g Arrow.001
v -4.643749E-07 1.517305E-07 -1.157063
v 0.2016 -0.2016006 -0.1960626
v 0.2015999 0.2016007 -0.1960626
v -4.643749E-07 1.517305E-07 -1.157063
v 0.2015999 0.2016007 -0.1960626
v -0.2016001 0.2016006 -0.1960624
v -4.643749E-07 1.517305E-07 -1.157063
v -0.2016 -0.2016007 -0.1960624
v 0.2016 -0.2016006 -0.1960626
v -4.643749E-07 1.517305E-07 -1.157063
v -0.2016001 0.2016006 -0.1960624
v -0.2016 -0.2016007 -0.1960624
v 0.2016 -0.2016006 -0.1960626
v 0.1128959 -0.1128963 -0.1973089
v 0.1128959 0.1128964 -0.1973089
v 0.2015999 0.2016007 -0.1960626
v 0.1128959 -0.1128963 -0.1973089
v 0.08086294 -0.08086316 0.07668532
v 0.08086291 0.08086316 0.07668535
v 0.1128959 0.1128964 -0.1973089
v 0.2015999 0.2016007 -0.1960626
v 0.1128959 0.1128964 -0.1973089
v -0.1128961 0.1128964 -0.1973088
v -0.2016001 0.2016006 -0.1960624
v -0.2016 -0.2016007 -0.1960624
v -0.1128961 -0.1128964 -0.1973088
v 0.1128959 -0.1128963 -0.1973089
v 0.2016 -0.2016006 -0.1960626
v -0.2016001 0.2016006 -0.1960624
v -0.1128961 0.1128964 -0.1973088
v -0.1128961 -0.1128964 -0.1973088
v -0.2016 -0.2016007 -0.1960624
v -0.08086288 0.08086313 0.07668541
v -0.1028935 0.1028938 0.1203823
v -0.1028934 -0.1028939 0.1203823
v -0.08086285 -0.08086319 0.07668539
v 0.1128959 0.1128964 -0.1973089
v 0.08086291 0.08086316 0.07668535
v -0.08086288 0.08086313 0.07668541
v -0.1128961 0.1128964 -0.1973088
v -0.1128961 -0.1128964 -0.1973088
v -0.08086285 -0.08086319 0.07668539
v 0.08086294 -0.08086316 0.07668532
v 0.1128959 -0.1128963 -0.1973089
v -0.1128961 0.1128964 -0.1973088
v -0.08086288 0.08086313 0.07668541
v -0.08086285 -0.08086319 0.07668539
v -0.1128961 -0.1128964 -0.1973088
v 0.08086291 0.08086316 0.07668535
v 0.1028935 0.1028938 0.1203822
v -0.1028935 0.1028938 0.1203823
v -0.08086288 0.08086313 0.07668541
v 0.08086294 -0.08086316 0.07668532
v 0.1028936 -0.1028938 0.1203822
v 0.1028935 0.1028938 0.1203822
v 0.08086291 0.08086316 0.07668535
v -0.08086285 -0.08086319 0.07668539
v -0.1028934 -0.1028939 0.1203823
v 0.1028936 -0.1028938 0.1203822
v 0.08086294 -0.08086316 0.07668532
v 0.1028936 -0.1028938 0.1203822
v 0.1028936 -0.1028938 0.1914053
v 0.1028935 0.1028938 0.1914053
v 0.1028935 0.1028938 0.1203822
v -0.1028934 -0.1028939 0.1203823
v -0.1028934 -0.1028939 0.1914053
v 0.1028936 -0.1028938 0.1914053
v 0.1028936 -0.1028938 0.1203822
v 0.1028935 0.1028938 0.1203822
v 0.1028935 0.1028938 0.1914053
v -0.1028934 0.1028938 0.1914053
v -0.1028935 0.1028938 0.1203823
v -0.1028935 0.1028938 0.1203823
v -0.1028934 0.1028938 0.1914053
v -0.1028934 -0.1028939 0.1914053
v -0.1028934 -0.1028939 0.1203823
v -0.1028934 -0.1028939 0.1914053
v -0.03180357 -0.03180385 0.2941648
v 0.03180382 -0.03180383 0.2941648
v 0.1028936 -0.1028938 0.1914053
v 0.1028935 0.1028938 0.1914053
v 0.03180381 0.03180376 0.2941648
v -0.03180359 0.03180375 0.2941649
v -0.1028934 0.1028938 0.1914053
v -0.1028934 0.1028938 0.1914053
v -0.03180359 0.03180375 0.2941649
v -0.03180357 -0.03180385 0.2941648
v -0.1028934 -0.1028939 0.1914053
v 0.1028936 -0.1028938 0.1914053
v 0.03180382 -0.03180383 0.2941648
v 0.03180381 0.03180376 0.2941648
v 0.1028935 0.1028938 0.1914053
v -0.03180357 -0.03180385 0.2941648
v -0.03180359 0.03180375 0.2941649
v 0.03180381 0.03180376 0.2941648
v 0.03180382 -0.03180383 0.2941648
vt 0.554087 0.7854006
vt 0.5787952 0.8101088
vt 0.5787952 0.7854006
vt 0.554087 0.7854006
vt 0.5787952 0.8101088
vt 0.5787952 0.7854006
vt 0.554087 0.7854006
vt 0.5787952 0.8101088
vt 0.5787952 0.7854006
vt 0.554087 0.7854006
vt 0.5787952 0.8101088
vt 0.5787952 0.7854006
vt 0.554087 0.7854006
vt 0.554087 0.8101088
vt 0.5787952 0.8101088
vt 0.5787952 0.7854006
vt 0.6904739 0.6881847
vt 0.6904739 0.6861976
vt 0.6884867 0.6861976
vt 0.6884867 0.6881847
vt 0.554087 0.7854006
vt 0.554087 0.8101088
vt 0.5787952 0.8101088
vt 0.5787952 0.7854006
vt 0.554087 0.7854006
vt 0.554087 0.8101088
vt 0.5787952 0.8101088
vt 0.5787952 0.7854006
vt 0.554087 0.7854006
vt 0.554087 0.8101088
vt 0.5787952 0.8101088
vt 0.5787952 0.7854006
vt 0.6904739 0.6976845
vt 0.6904739 0.6956973
vt 0.6884867 0.6956973
vt 0.6884867 0.6976845
vt 0.6904739 0.6881847
vt 0.6904739 0.6861976
vt 0.6884867 0.6861976
vt 0.6884867 0.6881847
vt 0.6904739 0.6881847
vt 0.6904739 0.6861976
vt 0.6884867 0.6861976
vt 0.6884867 0.6881847
vt 0.6904739 0.6881847
vt 0.6904739 0.6861976
vt 0.6884867 0.6861976
vt 0.6884867 0.6881847
vt 0.6904739 0.6976845
vt 0.6904739 0.6956973
vt 0.6884867 0.6956973
vt 0.6884867 0.6976845
vt 0.6904739 0.6976845
vt 0.6904739 0.6956973
vt 0.6884867 0.6956973
vt 0.6884867 0.6976845
vt 0.6904739 0.6976845
vt 0.6904739 0.6956973
vt 0.6884867 0.6956973
vt 0.6884867 0.6976845
vt 0.6904739 0.6976845
vt 0.6904739 0.6956973
vt 0.6884867 0.6956973
vt 0.6884867 0.6976845
vt 0.6904739 0.6976845
vt 0.6904739 0.6956973
vt 0.6884867 0.6956973
vt 0.6884867 0.6976845
vt 0.6904739 0.6976845
vt 0.6904739 0.6956973
vt 0.6884867 0.6956973
vt 0.6884867 0.6976845
vt 0.6904739 0.6976845
vt 0.6904739 0.6956973
vt 0.6884867 0.6956973
vt 0.6884867 0.6976845
vt 0.6904739 0.6976845
vt 0.6904739 0.6956973
vt 0.6884867 0.6956973
vt 0.6884867 0.6976845
vt 0.6904739 0.6976845
vt 0.6904739 0.6956973
vt 0.6884867 0.6956973
vt 0.6884867 0.6976845
vt 0.6904739 0.6976845
vt 0.6904739 0.6956973
vt 0.6884867 0.6956973
vt 0.6884867 0.6976845
vt 0.6904739 0.6976845
vt 0.6904739 0.6956973
vt 0.6884867 0.6956973
vt 0.6884867 0.6976845
vt 0.6904739 0.6976845
vt 0.6904739 0.6956973
vt 0.6884867 0.6956973
vt 0.6884867 0.6976845
vn 0.9786965 0 -0.2053126
vn 0.9786965 0 -0.2053126
vn 0.9786965 0 -0.2053126
vn 0 0.9786965 -0.2053128
vn 0 0.9786965 -0.2053128
vn 0 0.9786965 -0.2053128
vn 0 -0.9786963 -0.205313
vn 0 -0.9786963 -0.205313
vn 0 -0.9786963 -0.205313
vn -0.9786966 0 -0.2053118
vn -0.9786966 0 -0.2053118
vn -0.9786966 0 -0.2053118
vn -0.0140488 0 0.9999013
vn -0.0140488 0 0.9999013
vn -0.0140488 0 0.9999013
vn -0.0140488 0 0.9999013
vn 0.9932352 0 0.1161203
vn 0.9932352 0 0.1161203
vn 0.9932352 0 0.1161203
vn 0.9932352 0 0.1161203
vn 0 -0.01404921 0.9999013
vn 0 -0.01404921 0.9999013
vn 0 -0.01404921 0.9999013
vn 0 -0.01404921 0.9999013
vn 0 0.01404887 0.9999013
vn 0 0.01404887 0.9999013
vn 0 0.01404887 0.9999013
vn 0 0.01404887 0.9999013
vn 0.01404947 0 0.9999013
vn 0.01404947 0 0.9999013
vn 0.01404947 0 0.9999013
vn 0.01404947 0 0.9999013
vn -0.8929334 0 -0.4501886
vn -0.8929334 0 -0.4501886
vn -0.8929334 0 -0.4501886
vn -0.8929334 0 -0.4501886
vn 0 0.9932351 0.1161212
vn 0 0.9932351 0.1161212
vn 0 0.9932351 0.1161212
vn 0 0.9932351 0.1161212
vn 0 -0.9932351 0.116121
vn 0 -0.9932351 0.116121
vn 0 -0.9932351 0.116121
vn 0 -0.9932351 0.116121
vn -0.9932351 0 0.1161211
vn -0.9932351 0 0.1161211
vn -0.9932351 0 0.1161211
vn -0.9932351 0 0.1161211
vn 0 0.8929328 -0.45019
vn 0 0.8929328 -0.45019
vn 0 0.8929328 -0.45019
vn 0 0.8929328 -0.45019
vn 0.8929331 0 -0.4501894
vn 0.8929331 0 -0.4501894
vn 0.8929331 0 -0.4501894
vn 0.8929331 0 -0.4501894
vn 0 -0.8929327 -0.4501902
vn 0 -0.8929327 -0.4501902
vn 0 -0.8929327 -0.4501902
vn 0 -0.8929327 -0.4501902
vn 1 0 0
vn 1 0 0
vn 1 0 0
vn 1 0 0
vn 0 -1 0
vn 0 -1 0
vn 0 -1 0
vn 0 -1 0
vn 0 1 0
vn 0 1 0
vn 0 1 0
vn 0 1 0
vn -1 0 0
vn -1 0 0
vn -1 0 0
vn -1 0 0
vn 0 -0.8223838 0.568933
vn 0 -0.8223838 0.568933
vn 0 -0.8223838 0.568933
vn 0 -0.8223838 0.568933
vn 0 0.8223838 0.5689331
vn 0 0.8223838 0.5689331
vn 0 0.8223838 0.5689331
vn 0 0.8223838 0.5689331
vn -0.8223845 0 0.5689322
vn -0.8223845 0 0.5689322
vn -0.8223845 0 0.5689322
vn -0.8223845 0 0.5689322
vn 0.822385 0 0.5689313
vn 0.822385 0 0.5689313
vn 0.822385 0 0.5689313
vn 0.822385 0 0.5689313
vn 0 0 1
vn 0 0 1
vn 0 0 1
vn 0 0 1
g Arrow.001_0
f 3/3/3 2/2/2 1/1/1
f 6/6/6 5/5/5 4/4/4
f 9/9/9 8/8/8 7/7/7
f 12/12/12 11/11/11 10/10/10
f 15/15/15 14/14/14 13/13/13
f 16/16/16 15/15/15 13/13/13
f 19/19/19 18/18/18 17/17/17
f 20/20/20 19/19/19 17/17/17
f 23/23/23 22/22/22 21/21/21
f 24/24/24 23/23/23 21/21/21
f 27/27/27 26/26/26 25/25/25
f 28/28/28 27/27/27 25/25/25
f 31/31/31 30/30/30 29/29/29
f 32/32/32 31/31/31 29/29/29
f 35/35/35 34/34/34 33/33/33
f 36/36/36 35/35/35 33/33/33
f 39/39/39 38/38/38 37/37/37
f 40/40/40 39/39/39 37/37/37
f 43/43/43 42/42/42 41/41/41
f 44/44/44 43/43/43 41/41/41
f 47/47/47 46/46/46 45/45/45
f 48/48/48 47/47/47 45/45/45
f 51/51/51 50/50/50 49/49/49
f 52/52/52 51/51/51 49/49/49
f 55/55/55 54/54/54 53/53/53
f 56/56/56 55/55/55 53/53/53
f 59/59/59 58/58/58 57/57/57
f 60/60/60 59/59/59 57/57/57
f 63/63/63 62/62/62 61/61/61
f 64/64/64 63/63/63 61/61/61
f 67/67/67 66/66/66 65/65/65
f 68/68/68 67/67/67 65/65/65
f 71/71/71 70/70/70 69/69/69
f 72/72/72 71/71/71 69/69/69
f 75/75/75 74/74/74 73/73/73
f 76/76/76 75/75/75 73/73/73
f 79/79/79 78/78/78 77/77/77
f 80/80/80 79/79/79 77/77/77
f 83/83/83 82/82/82 81/81/81
f 84/84/84 83/83/83 81/81/81
f 87/87/87 86/86/86 85/85/85
f 88/88/88 87/87/87 85/85/85
f 91/91/91 90/90/90 89/89/89
f 92/92/92 91/91/91 89/89/89
f 95/95/95 94/94/94 93/93/93
f 96/96/96 95/95/95 93/93/93
