g Ball_Uv_01_Explode_Thin_08_Hull
v -0.2422614 0.1079243 0.0651036
v 0.1212797 0.2018812 0.2029532
v -0.2896917 0.04630481 0.04833329
v 0.2699328 0.09442293 0.02166174
v 0.2151233 0.1758546 0.1494532
v 0.2026791 0.1225069 0.009144707
v 0.1911021 0.182436 0.1949799
v 0.2954063 -0.001377368 -0.05752572
v 0.04288524 -0.1440442 -0.2020957
v 0.1911021 0.182436 0.1949799
v -0.2896917 0.04630481 0.04833329
v 0.1212797 0.2018812 0.2029532
v 0.1911021 0.182436 0.1949799
v 0.04288524 -0.1440442 -0.2020957
v -0.2896917 0.04630481 0.04833329
v 0.1187826 0.1846856 0.08488952
v 0.2026791 0.1225069 0.009144707
v 0.2151233 0.1758546 0.1494532
v 0.02239927 -0.0746093 -0.1855368
v 0.1421145 -0.07956746 -0.1715643
v 0.1152789 0.009471698 -0.1356079
v 0.02239927 -0.0746093 -0.1855368
v 0.04288524 -0.1440442 -0.2020957
v 0.1421145 -0.07956746 -0.1715643
v -0.05422905 -0.07710285 -0.1791807
v 0.04288524 -0.1440442 -0.2020957
v 0.02239927 -0.0746093 -0.1855368
v 0.02239927 0.2109309 0.1506977
v 0.1212797 0.2018812 0.2029532
v -0.2422614 0.1079243 0.0651036
v 0.02239927 0.2109309 0.1506977
v -0.07488421 0.1913254 0.1100209
v -0.07398405 0.1846856 0.08488941
v 0.02239927 0.1499175 -0.00697736
v 0.2026791 0.1225069 0.009144707
v 0.1187826 0.1846856 0.08488952
v 0.02239927 0.1499175 -0.00697736
v -0.07398405 0.1846856 0.08488941
v -0.1578805 0.1225069 0.009144707
v 0.198752 0.06818456 -0.06104085
v 0.2699328 0.09442293 0.02166174
v 0.2026791 0.1225069 0.009144707
v 0.198752 0.06818456 -0.06104085
v 0.2954063 -0.001377368 -0.05752572
v 0.2699328 0.09442293 0.02166174
v 0.198752 0.06818456 -0.06104085
v 0.02239927 0.09019727 -0.08305369
v 0.1152789 0.009471698 -0.1356079
v -0.06882419 0.08417185 -0.07702807
v 0.02239927 0.1499175 -0.00697736
v -0.1578805 0.1225069 0.009144707
v -0.06882419 0.08417185 -0.07702807
v 0.02239927 0.09019727 -0.08305369
v 0.02239927 0.1499175 -0.00697736
v 0.2026791 -0.002000918 -0.1153632
v 0.198752 0.06818456 -0.06104085
v 0.1152789 0.009471698 -0.1356079
v 0.2026791 -0.002000918 -0.1153632
v 0.2954063 -0.001377368 -0.05752572
v 0.198752 0.06818456 -0.06104085
v 0.1222071 0.2099453 0.1804971
v 0.02239927 0.2109309 0.1506977
v 0.1187826 0.1846856 0.08488952
v 0.1222071 0.2099453 0.1804971
v 0.1212797 0.2018812 0.2029532
v 0.02239927 0.2109309 0.1506977
v 0.1222071 0.2099453 0.1804971
v 0.1187826 0.1846856 0.08488952
v 0.2151233 0.1758546 0.1494532
v -0.07048036 0.009471698 -0.1356079
v -0.1588722 -0.01232706 -0.1201757
v -0.05422905 -0.07710285 -0.1791807
v -0.07048036 0.009471698 -0.1356079
v 0.02239927 0.09019727 -0.08305369
v -0.06882419 0.08417185 -0.07702807
v -0.07048036 0.009471698 -0.1356079
v -0.05422905 -0.07710285 -0.1791807
v 0.02239927 -0.0746093 -0.1855368
v -0.2884108 0.05123826 0.03040645
v -0.2422614 0.1079243 0.0651036
v -0.2896917 0.04630481 0.04833329
v -0.2884108 0.05123826 0.03040645
v -0.2896917 0.04630481 0.04833329
v -0.2497537 0.0351596 -0.02801587
v 0.1936764 0.1920631 0.1941109
v 0.1222071 0.2099453 0.1804971
v 0.2151233 0.1758546 0.1494532
v 0.1936764 0.1920631 0.1941109
v 0.1911021 0.182436 0.1949799
v 0.1212797 0.2018812 0.2029532
v 0.1936764 0.1920631 0.1941109
v 0.1212797 0.2018812 0.2029532
v 0.1222071 0.2099453 0.1804971
v 0.2066305 -0.04314636 -0.1345391
v 0.2954063 -0.001377368 -0.05752572
v 0.2026791 -0.002000918 -0.1153632
v -0.1647902 0.1560386 0.08109328
v -0.07398405 0.1846856 0.08488941
v -0.07488421 0.1913254 0.1100209
v -0.1647902 0.1560386 0.08109328
v -0.1578805 0.1225069 0.009144707
v -0.07398405 0.1846856 0.08488941
v -0.1647902 0.1560386 0.08109328
v -0.2422614 0.1079243 0.0651036
v -0.1578805 0.1225069 0.009144707
v -0.1539534 0.06818456 -0.06104085
v -0.1578805 0.1225069 0.009144707
v -0.2497537 0.0351596 -0.02801587
v -0.1539534 0.06818456 -0.06104085
v -0.06882419 0.08417185 -0.07702807
v -0.1578805 0.1225069 0.009144707
v -0.1539534 0.06818456 -0.06104085
v -0.2497537 0.0351596 -0.02801587
v -0.1588722 -0.01232706 -0.1201757
v 0.1421145 -0.07956746 -0.1715643
v 0.04288524 -0.1440442 -0.2020957
v 0.2954063 -0.001377368 -0.05752572
v 0.2066305 -0.04314636 -0.1345391
v 0.2699328 0.09442293 0.02166174
v 0.2954063 -0.001377368 -0.05752572
v 0.2151233 0.1758546 0.1494532
v 0.1936764 0.1920631 0.1941109
v 0.1911021 0.182436 0.1949799
v -0.2497537 0.0351596 -0.02801587
v -0.1578805 0.1225069 0.009144707
v -0.2422614 0.1079243 0.0651036
v -0.2884108 0.05123826 0.03040645
v -0.2497537 0.0351596 -0.02801587
v -0.2896917 0.04630481 0.04833329
v -0.1588722 -0.01232706 -0.1201757
v -0.05422905 -0.07710285 -0.1791807
v 0.04288524 -0.1440442 -0.2020957
v 0.02239927 0.2109309 0.1506977
v -0.2422614 0.1079243 0.0651036
v -0.07488421 0.1913254 0.1100209
v -0.1647902 0.1560386 0.08109328
v 0.02239927 0.1499175 -0.00697736
v 0.02239927 0.2109309 0.1506977
v -0.07398405 0.1846856 0.08488941
v 0.1187826 0.1846856 0.08488952
v 0.02239927 0.1499175 -0.00697736
v 0.02239927 0.09019727 -0.08305369
v 0.2026791 0.1225069 0.009144707
v 0.198752 0.06818456 -0.06104085
v -0.07048036 0.009471698 -0.1356079
v 0.1152789 0.009471698 -0.1356079
v 0.02239927 0.09019727 -0.08305369
v 0.02239927 -0.0746093 -0.1855368
v 0.2066305 -0.04314636 -0.1345391
v 0.1152789 0.009471698 -0.1356079
v 0.1421145 -0.07956746 -0.1715643
v 0.2026791 -0.002000918 -0.1153632
v -0.1539534 0.06818456 -0.06104085
v -0.07048036 0.009471698 -0.1356079
v -0.06882419 0.08417185 -0.07702807
v -0.1588722 -0.01232706 -0.1201757
vn -0.3596399 0.0229531 0.9328088
vn -0.3596399 0.0229531 0.9328088
vn -0.3596399 0.0229531 0.9328088
vn 0.4157328 0.8372529 -0.3552096
vn 0.4157328 0.8372529 -0.3552096
vn 0.4157328 0.8372529 -0.3552096
vn 0.09420754 -0.7859588 0.6110595
vn 0.09420754 -0.7859588 0.6110595
vn 0.09420754 -0.7859588 0.6110594
vn -0.07485897 -0.5964733 0.7991344
vn -0.07485897 -0.5964733 0.7991344
vn -0.07485896 -0.5964733 0.7991344
vn 0.02838133 -0.7772895 0.6285025
vn 0.02838133 -0.7772895 0.6285025
vn 0.02838133 -0.7772895 0.6285025
vn 0.322314 0.8749844 -0.3612702
vn 0.3223139 0.8749844 -0.3612702
vn 0.322314 0.8749844 -0.3612702
vn 0.1225444 0.403159 -0.9068879
vn 0.1225444 0.403159 -0.9068879
vn 0.1225444 0.403159 -0.9068879
vn 0.1225975 0.2643059 -0.956615
vn 0.1225975 0.2643058 -0.956615
vn 0.1225975 0.2643058 -0.956615
vn -0.08755453 0.2065697 -0.9745066
vn -0.08755454 0.2065698 -0.9745066
vn -0.08755454 0.2065698 -0.9745066
vn -0.4105045 0.3577771 0.8387381
vn -0.4105046 0.357777 0.8387381
vn -0.4105046 0.3577771 0.8387381
vn -0.0863478 0.9624466 -0.2573725
vn -0.0863478 0.9624466 -0.2573725
vn -0.0863478 0.9624466 -0.2573725
vn 0.1737109 0.8468068 -0.5027352
vn 0.1737108 0.8468069 -0.5027352
vn 0.1737109 0.8468069 -0.5027352
vn -0.1737109 0.8468065 -0.5027357
vn -0.1737109 0.8468065 -0.5027357
vn -0.1737109 0.8468065 -0.5027357
vn 0.404223 0.7122319 -0.5738724
vn 0.4042229 0.7122319 -0.5738724
vn 0.404223 0.7122319 -0.5738723
vn 0.4769572 0.6318446 -0.6109698
vn 0.4769572 0.6318447 -0.6109698
vn 0.4769573 0.6318446 -0.6109698
vn 0.1737201 0.6698446 -0.7218931
vn 0.1737201 0.6698446 -0.7218931
vn 0.1737201 0.6698446 -0.7218931
vn -0.1734668 0.8207101 -0.5443751
vn -0.1734668 0.8207101 -0.5443751
vn -0.1734668 0.8207101 -0.5443751
vn -0.09234539 0.7832287 -0.6148375
vn -0.09234538 0.7832287 -0.6148375
vn -0.09234538 0.7832288 -0.6148374
vn 0.2544042 0.6007927 -0.7578433
vn 0.2544042 0.6007926 -0.7578434
vn 0.2544042 0.6007926 -0.7578434
vn 0.4333119 0.5666611 -0.7008109
vn 0.433312 0.5666611 -0.7008109
vn 0.433312 0.5666611 -0.7008109
vn 0.08634749 0.9624465 -0.2573734
vn 0.0863475 0.9624465 -0.2573734
vn 0.0863475 0.9624465 -0.2573734
vn -0.09024274 0.9384947 0.3332926
vn -0.09024274 0.9384947 0.3332926
vn -0.09024274 0.9384947 0.3332926
vn 0.2566454 0.9321326 -0.2554642
vn 0.2566454 0.9321326 -0.2554643
vn 0.2566454 0.9321326 -0.2554642
vn -0.2519744 0.3969083 -0.8825943
vn -0.2519744 0.3969083 -0.8825943
vn -0.2519744 0.3969083 -0.8825943
vn -0.09235799 0.6157141 -0.7825383
vn -0.09235799 0.6157141 -0.7825383
vn -0.09235799 0.6157142 -0.7825383
vn -0.08848573 0.4345024 -0.8963135
vn -0.08848573 0.4345025 -0.8963135
vn -0.08848575 0.4345024 -0.8963135
vn -0.8016472 0.5885588 0.1046911
vn -0.8016473 0.5885589 0.1046911
vn -0.8016472 0.5885588 0.1046911
vn -0.6616447 -0.7095099 -0.2425326
vn -0.6616446 -0.70951 -0.2425326
vn -0.6616446 -0.70951 -0.2425326
vn 0.274619 0.9386126 -0.208784
vn 0.274619 0.9386126 -0.208784
vn 0.274619 0.9386126 -0.208784
vn 0.1284042 0.05504758 0.990193
vn 0.1284042 0.05504758 0.990193
vn 0.1284042 0.05504758 0.990193
vn 0.1669873 0.9257267 0.3393309
vn 0.1669873 0.9257267 0.3393309
vn 0.1669873 0.9257267 0.3393309
vn 0.4812377 0.4078417 -0.7759352
vn 0.4812378 0.4078417 -0.7759352
vn 0.4812377 0.4078417 -0.7759352
vn -0.2812562 0.925262 -0.2545296
vn -0.2812563 0.925262 -0.2545296
vn -0.2812562 0.925262 -0.2545296
vn -0.2555056 0.8666847 -0.428456
vn -0.2555056 0.8666847 -0.428456
vn -0.2555056 0.8666847 -0.428456
vn -0.4160029 0.8082939 -0.4166566
vn -0.4160029 0.8082939 -0.4166566
vn -0.4160029 0.8082939 -0.4166566
vn -0.4362523 0.6996066 -0.5658926
vn -0.4362523 0.6996066 -0.5658926
vn -0.4362523 0.6996066 -0.5658926
vn -0.2551039 0.7576788 -0.6007037
vn -0.255104 0.7576788 -0.6007037
vn -0.2551039 0.7576788 -0.6007037
vn -0.4353081 0.5500628 -0.7126976
vn -0.4353081 0.5500628 -0.7126975
vn -0.4353081 0.5500628 -0.7126976
vn 0.5803599 -0.7755627 -0.2483644
vn 0.5803599 -0.7755627 -0.2483644
vn 0.5803599 -0.7755627 -0.2483644
vn 0.5803612 -0.7755608 -0.2483672
vn 0.8652894 -0.1620231 0.4743656
vn 0.8652894 -0.1620231 0.4743656
vn 0.8652894 -0.1620231 0.4743656
vn 0.8652929 -0.162017 0.4743614
vn 0.8537895 -0.1843565 0.4868841
vn -0.4684374 0.7140546 -0.5202812
vn -0.4684374 0.7140546 -0.5202812
vn -0.4684374 0.7140546 -0.5202812
vn -0.4831374 0.7083336 -0.5146279
vn -0.6099618 -0.7648012 -0.2074263
vn -0.6099619 -0.7648012 -0.2074263
vn -0.6099619 -0.7648012 -0.2074263
vn -0.5866379 -0.7898915 -0.178682
vn -0.5866379 -0.7898915 -0.178682
vn -0.4209594 0.4086917 0.8097927
vn -0.4209594 0.4086916 0.8097928
vn -0.4209594 0.4086917 0.8097928
vn -0.4209597 0.4086922 0.8097923
vn -0.007550637 0.9325854 -0.3608704
vn -0.007550637 0.9325854 -0.3608704
vn -0.007550637 0.9325854 -0.3608704
vn 0.007551035 0.9325854 -0.3608704
vn 0.1722047 0.7748391 -0.6082516
vn 0.1722047 0.7748391 -0.6082516
vn 0.1722047 0.7748391 -0.6082516
vn 0.1726458 0.7742307 -0.6089009
vn 0 0.5455911 -0.8380516
vn 0 0.5455911 -0.8380516
vn 0 0.5455911 -0.8380515
vn 0 0.5105824 -0.8598288
vn 0.256301 0.4273604 -0.8669907
vn 0.2563011 0.4273605 -0.8669907
vn 0.2563011 0.4273604 -0.8669907
vn 0.2568974 0.4284098 -0.8662961
vn -0.2550841 0.6001661 -0.7581112
vn -0.2550841 0.6001661 -0.7581112
vn -0.2550841 0.6001661 -0.7581112
vn -0.2767727 0.5797704 -0.766331
g Ball_Uv_01_Explode_Thin_08_Hull_0
f 3/3/3 2/2/2 1/1/1
f 6/6/6 5/5/5 4/4/4
f 9/9/9 8/8/8 7/7/7
f 12/12/12 11/11/11 10/10/10
f 15/15/15 14/14/14 13/13/13
f 18/18/18 17/17/17 16/16/16
f 21/21/21 20/20/20 19/19/19
f 24/24/24 23/23/23 22/22/22
f 27/27/27 26/26/26 25/25/25
f 30/30/30 29/29/29 28/28/28
f 33/33/33 32/32/32 31/31/31
f 36/36/36 35/35/35 34/34/34
f 39/39/39 38/38/38 37/37/37
f 42/42/42 41/41/41 40/40/40
f 45/45/45 44/44/44 43/43/43
f 48/48/48 47/47/47 46/46/46
f 51/51/51 50/50/50 49/49/49
f 54/54/54 53/53/53 52/52/52
f 57/57/57 56/56/56 55/55/55
f 60/60/60 59/59/59 58/58/58
f 63/63/63 62/62/62 61/61/61
f 66/66/66 65/65/65 64/64/64
f 69/69/69 68/68/68 67/67/67
f 72/72/72 71/71/71 70/70/70
f 75/75/75 74/74/74 73/73/73
f 78/78/78 77/77/77 76/76/76
f 81/81/81 80/80/80 79/79/79
f 84/84/84 83/83/83 82/82/82
f 87/87/87 86/86/86 85/85/85
f 90/90/90 89/89/89 88/88/88
f 93/93/93 92/92/92 91/91/91
f 96/96/96 95/95/95 94/94/94
f 99/99/99 98/98/98 97/97/97
f 102/102/102 101/101/101 100/100/100
f 105/105/105 104/104/104 103/103/103
f 108/108/108 107/107/107 106/106/106
f 111/111/111 110/110/110 109/109/109
f 114/114/114 113/113/113 112/112/112
f 117/117/117 116/116/116 115/115/115
f 117/117/117 115/115/115 118/118/118
f 121/121/121 120/120/120 119/119/119
f 120/120/120 121/121/121 122/122/122
f 123/123/123 120/120/120 122/122/122
f 126/126/126 125/125/125 124/124/124
f 126/126/126 124/124/124 127/127/127
f 130/130/130 129/129/129 128/128/128
f 129/129/129 130/130/130 131/131/131
f 132/132/132 129/129/129 131/131/131
f 135/135/135 134/134/134 133/133/133
f 134/134/134 135/135/135 136/136/136
f 139/139/139 138/138/138 137/137/137
f 138/138/138 140/140/140 137/137/137
f 143/143/143 142/142/142 141/141/141
f 142/142/142 143/143/143 144/144/144
f 147/147/147 146/146/146 145/145/145
f 146/146/146 148/148/148 145/145/145
f 151/151/151 150/150/150 149/149/149
f 150/150/150 152/152/152 149/149/149
f 155/155/155 154/154/154 153/153/153
f 154/154/154 156/156/156 153/153/153
