g Ball_Uv_01_Explode_Thin_05_Hull
v -0.05611376 -0.09394626 0.250531
v -0.07203007 -0.01644862 0.2910083
v -0.02818746 -0.2459266 -0.2583837
v -0.2959321 -0.01249925 -0.1488512
v -0.2728633 -0.08140551 -0.1581324
v -0.02818746 -0.2459266 -0.2583837
v -0.2392939 0.2354169 0.2023568
v -0.02818746 -0.2459266 -0.2583837
v -0.07203007 -0.01644862 0.2910083
v -0.2107404 -0.1537968 -0.02003705
v -0.1163966 -0.1959401 0.06979659
v -0.1406961 -0.2195364 -0.1112524
v -0.1514535 -0.2002894 -0.2037821
v -0.02818746 -0.2459266 -0.2583837
v -0.2728633 -0.08140551 -0.1581324
v -0.09447821 -0.2418108 -0.1112524
v -0.1406961 -0.2195364 -0.1112524
v -0.1163966 -0.1959401 0.06979659
v -0.3035091 0.230228 0.09129301
v -0.02818746 -0.2459266 -0.2583837
v -0.2392939 0.2354169 0.2023568
v -0.3035091 0.230228 0.09129301
v -0.2959321 -0.01249925 -0.1488512
v -0.02818746 -0.2459266 -0.2583837
v -0.181682 0.1116445 0.268836
v -0.2107404 0.1122887 0.2460485
v -0.2348489 0.203504 0.2290372
v -0.2490721 -0.06763168 0.06901117
v -0.2490721 0.02324049 0.1598834
v -0.1506002 -0.09365649 0.1859081
v -0.2741558 0.2336307 0.174496
v -0.2392939 0.2354169 0.2023568
v -0.2348489 0.203504 0.2290372
v -0.3192393 0.004970284 -0.1112523
v -0.3380944 0.1034084 -0.03023939
v -0.3112452 0.008106253 -0.01487768
v -0.3192393 0.004970284 -0.1112523
v -0.2959321 -0.01249925 -0.1488512
v -0.3380944 0.1034084 -0.03023939
v -0.3192393 0.004970284 -0.1112523
v -0.2728633 -0.08140551 -0.1581324
v -0.2959321 -0.01249925 -0.1488512
v -0.3112452 0.1071294 0.08414556
v -0.3380944 0.1034084 -0.03023939
v -0.3244096 0.2035041 0.06774982
v -0.3112452 0.1071294 0.08414556
v -0.3112452 0.008106253 -0.01487768
v -0.3380944 0.1034084 -0.03023939
v -0.1050307 -0.1623434 0.1466081
v -0.1506002 -0.09365649 0.1859081
v -0.05611376 -0.09394626 0.250531
v -0.2167653 -0.1598215 -0.1112524
v -0.1514535 -0.2002894 -0.2037821
v -0.2728633 -0.08140551 -0.1581324
v -0.2167653 -0.1598215 -0.1112524
v -0.1406961 -0.2195364 -0.1112524
v -0.1514535 -0.2002894 -0.2037821
v -0.2167653 -0.1598215 -0.1112524
v -0.2107404 -0.1537968 -0.02003705
v -0.1406961 -0.2195364 -0.1112524
v -0.1947546 0.02716704 0.2300626
v -0.1506002 -0.09365649 0.1859081
v -0.2490721 0.02324049 0.1598834
v -0.269315 -0.07910323 -0.01838108
v -0.2167653 -0.1598215 -0.1112524
v -0.2728633 -0.08140551 -0.1581324
v -0.269315 -0.07910323 -0.01838108
v -0.2107404 -0.1537968 -0.02003705
v -0.2167653 -0.1598215 -0.1112524
v -0.269315 -0.07910323 -0.01838108
v -0.3192393 0.004970284 -0.1112523
v -0.3112452 0.008106253 -0.01487768
v -0.269315 -0.07910323 -0.01838108
v -0.2728633 -0.08140551 -0.1581324
v -0.3192393 0.004970284 -0.1112523
v -0.269315 -0.07910323 -0.01838108
v -0.3112452 0.008106253 -0.01487768
v -0.2490721 -0.06763168 0.06901117
v -0.1947546 -0.1378109 0.06508455
v -0.1050307 -0.1623434 0.1466081
v -0.1163966 -0.1959401 0.06979659
v -0.1947546 -0.1378109 0.06508455
v -0.2490721 -0.06763168 0.06901117
v -0.1506002 -0.09365649 0.1859081
v -0.1947546 -0.1378109 0.06508455
v -0.1506002 -0.09365649 0.1859081
v -0.1050307 -0.1623434 0.1466081
v -0.1947546 -0.1378109 0.06508455
v -0.1163966 -0.1959401 0.06979659
v -0.2107404 -0.1537968 -0.02003705
v -0.269315 0.1106327 0.1713551
v -0.2490721 0.02324049 0.1598834
v -0.3112452 0.1071294 0.08414556
v -0.269315 0.1106327 0.1713551
v -0.2348489 0.203504 0.2290372
v -0.2107404 0.1122887 0.2460485
v -0.269315 0.1106327 0.1713551
v -0.2741558 0.2336307 0.174496
v -0.2348489 0.203504 0.2290372
v -0.1245754 0.02324045 0.28438
v -0.1506002 -0.09365649 0.1859081
v -0.1947546 0.02716704 0.2300626
v -0.1245754 0.02324045 0.28438
v -0.181682 0.1116445 0.268836
v -0.07203007 -0.01644862 0.2910083
v -0.3124808 0.2311194 0.09562414
v -0.3244096 0.2035041 0.06774982
v -0.3035091 0.230228 0.09129301
v -0.3124808 0.2311194 0.09562414
v -0.3035091 0.230228 0.09129301
v -0.2392939 0.2354169 0.2023568
v -0.3124808 0.2311194 0.09562414
v -0.2392939 0.2354169 0.2023568
v -0.2741558 0.2336307 0.174496
v -0.09447821 -0.2418108 -0.1112524
v -0.1514535 -0.2002894 -0.2037821
v -0.1406961 -0.2195364 -0.1112524
v -0.02818746 -0.2459266 -0.2583837
v -0.09447821 -0.2418108 -0.1112524
v -0.1163966 -0.1959401 0.06979659
v -0.02818746 -0.2459266 -0.2583837
v -0.05611376 -0.09394626 0.250531
v -0.1050307 -0.1623434 0.1466081
v -0.3035091 0.230228 0.09129301
v -0.3380944 0.1034084 -0.03023939
v -0.2959321 -0.01249925 -0.1488512
v -0.3244096 0.2035041 0.06774982
v -0.181682 0.1116445 0.268836
v -0.2392939 0.2354169 0.2023568
v -0.07203007 -0.01644862 0.2910083
v -0.2348489 0.203504 0.2290372
v -0.2490721 -0.06763168 0.06901117
v -0.3112452 0.008106253 -0.01487768
v -0.2490721 0.02324049 0.1598834
v -0.3112452 0.1071294 0.08414556
v -0.1947546 0.02716704 0.2300626
v -0.2490721 0.02324049 0.1598834
v -0.2107404 0.1122887 0.2460485
v -0.269315 0.1106327 0.1713551
v -0.269315 -0.07910323 -0.01838108
v -0.2490721 -0.06763168 0.06901117
v -0.2107404 -0.1537968 -0.02003705
v -0.1947546 -0.1378109 0.06508455
v -0.1245754 0.02324045 0.28438
v -0.2107404 0.1122887 0.2460485
v -0.181682 0.1116445 0.268836
v -0.1947546 0.02716704 0.2300626
v -0.1245754 0.02324045 0.28438
v -0.07203007 -0.01644862 0.2910083
v -0.05611376 -0.09394626 0.250531
v -0.1506002 -0.09365649 0.1859081
v -0.3124808 0.2311194 0.09562414
v -0.3112452 0.1071294 0.08414556
v -0.3244096 0.2035041 0.06774982
v -0.269315 0.1106327 0.1713551
v -0.2741558 0.2336307 0.174496
vn 0.9787489 0.2049254 -0.007490042
vn 0.9787489 0.2049254 -0.007490043
vn 0.9787489 0.2049254 -0.007490042
vn -0.3808405 -0.002957323 -0.9246361
vn -0.3808405 -0.002957323 -0.9246361
vn -0.3808405 -0.002957323 -0.9246361
vn 0.8470176 0.5111471 -0.1459096
vn 0.8470176 0.5111471 -0.1459096
vn 0.8470176 0.5111471 -0.1459096
vn -0.5386926 -0.8231409 0.1795812
vn -0.5386927 -0.8231408 0.1795812
vn -0.5386926 -0.8231408 0.1795812
vn -0.4332953 -0.09850762 -0.8958523
vn -0.4332953 -0.09850764 -0.8958523
vn -0.4332953 -0.09850762 -0.8958523
vn -0.4276049 -0.8872517 0.1730272
vn -0.4276049 -0.8872517 0.1730272
vn -0.4276049 -0.8872517 0.1730272
vn 0.6361384 0.6605996 -0.3986679
vn 0.6361384 0.6605996 -0.3986679
vn 0.6361384 0.6605996 -0.3986679
vn 0.312495 0.6730037 -0.6703826
vn 0.312495 0.6730037 -0.6703826
vn 0.312495 0.6730037 -0.6703826
vn -0.6172251 -0.0164333 0.786615
vn -0.6172251 -0.0164333 0.786615
vn -0.6172251 -0.0164333 0.786615
vn -0.7162215 -0.493471 0.4934706
vn -0.7162215 -0.493471 0.4934706
vn -0.7162214 -0.493471 0.4934705
vn -0.5615228 0.483308 0.6716439
vn -0.5615228 0.483308 0.6716438
vn -0.5615228 0.483308 0.6716439
vn -0.9624007 -0.2569191 0.08818937
vn -0.9624007 -0.256919 0.08818936
vn -0.9624007 -0.2569191 0.08818936
vn -0.7062211 0.3643264 -0.6070568
vn -0.7062211 0.3643264 -0.6070568
vn -0.7062211 0.3643264 -0.6070568
vn -0.8713059 -0.2335679 -0.4315926
vn -0.8713059 -0.2335679 -0.4315926
vn -0.8713059 -0.2335679 -0.4315925
vn -0.9686323 -0.09311587 0.2303928
vn -0.9686323 -0.09311588 0.2303928
vn -0.9686323 -0.09311588 0.2303928
vn -0.945871 -0.2294866 0.2294864
vn -0.945871 -0.2294866 0.2294864
vn -0.945871 -0.2294866 0.2294864
vn -0.4320655 -0.6464431 0.6288329
vn -0.4320655 -0.6464431 0.6288329
vn -0.4320654 -0.6464431 0.6288329
vn -0.723579 -0.6523988 -0.2254094
vn -0.723579 -0.6523987 -0.2254094
vn -0.723579 -0.6523988 -0.2254094
vn -0.6148902 -0.7832929 -0.09144513
vn -0.6148902 -0.7832929 -0.09144513
vn -0.6148902 -0.7832929 -0.09144513
vn -0.614839 -0.7832278 0.09234273
vn -0.614839 -0.7832278 0.09234273
vn -0.614839 -0.7832278 0.09234274
vn -0.6907641 -0.4571662 0.5602179
vn -0.6907641 -0.4571661 0.5602179
vn -0.6907641 -0.4571662 0.5602179
vn -0.8214034 -0.5695454 0.0302381
vn -0.8214034 -0.5695454 0.03023809
vn -0.8214034 -0.5695454 0.0302381
vn -0.7825391 -0.6157135 0.0923553
vn -0.7825391 -0.6157135 0.0923553
vn -0.7825391 -0.6157135 0.0923553
vn -0.896314 -0.4345015 0.088486
vn -0.896314 -0.4345015 0.08848599
vn -0.896314 -0.4345015 0.088486
vn -0.8737207 -0.4854907 0.03018169
vn -0.8737207 -0.4854907 0.03018169
vn -0.8737207 -0.4854907 0.03018169
vn -0.8669295 -0.4271382 0.2568774
vn -0.8669295 -0.4271382 0.2568774
vn -0.8669295 -0.4271382 0.2568774
vn -0.561465 -0.7244332 0.399942
vn -0.5614649 -0.7244334 0.399942
vn -0.561465 -0.7244332 0.3999419
vn -0.6907641 -0.5602183 0.4571657
vn -0.6907641 -0.5602183 0.4571657
vn -0.6907641 -0.5602183 0.4571657
vn -0.5967816 -0.658373 0.4586903
vn -0.5967816 -0.6583729 0.4586903
vn -0.5967816 -0.658373 0.4586903
vn -0.5860022 -0.7692972 0.2545255
vn -0.5860022 -0.7692972 0.2545255
vn -0.5860022 -0.7692972 0.2545254
vn -0.8669297 -0.2568778 0.4271379
vn -0.8669295 -0.2568778 0.4271379
vn -0.8669295 -0.2568778 0.427138
vn -0.7825682 -0.09200376 0.6157291
vn -0.7825682 -0.09200376 0.6157292
vn -0.7825682 -0.09200376 0.6157292
vn -0.8224753 -0.04684635 0.5668684
vn -0.8224753 -0.04684635 0.5668684
vn -0.8224753 -0.04684635 0.5668684
vn -0.5602172 -0.4571662 0.6907646
vn -0.5602172 -0.4571662 0.6907646
vn -0.5602172 -0.4571662 0.6907646
vn 0.01279823 0.1811716 0.9833682
vn 0.01279823 0.1811716 0.9833682
vn 0.01279823 0.1811716 0.9833682
vn -0.2320162 0.738838 -0.6326824
vn -0.2320162 0.738838 -0.6326824
vn -0.2320162 0.738838 -0.6326824
vn 0.05974311 0.99492 -0.08102532
vn 0.05974311 0.99492 -0.08102533
vn 0.05974312 0.99492 -0.08102533
vn -0.04212293 0.9990481 -0.01134169
vn -0.04212293 0.9990481 -0.01134169
vn -0.04212293 0.9990481 -0.0113417
vn -0.4301408 -0.8925133 -0.1356428
vn -0.4301407 -0.8925133 -0.1356428
vn -0.4301407 -0.8925133 -0.1356428
vn -0.4031135 -0.9016863 -0.156401
vn 0.5440353 -0.7953243 0.2673664
vn 0.5440346 -0.7953249 0.2673663
vn 0.5440345 -0.7953249 0.2673663
vn 0.5440346 -0.7953249 0.2673663
vn 0.5440328 -0.7953257 0.2673674
vn -0.07254744 0.7003157 -0.7101371
vn -0.07254744 0.7003157 -0.7101371
vn -0.07254744 0.7003157 -0.7101371
vn -0.10675 0.7029647 -0.703168
vn 0.5558589 0.5790686 0.5964063
vn 0.5558589 0.5790686 0.5964063
vn 0.5558589 0.5790686 0.5964063
vn 0.5507839 0.5791718 0.6009968
vn -0.8759114 -0.3411593 0.341159
vn -0.8759114 -0.3411593 0.3411591
vn -0.8759114 -0.3411593 0.3411591
vn -0.8759114 -0.3411593 0.3411591
vn -0.7576789 -0.2551042 0.6007034
vn -0.7576789 -0.2551042 0.6007034
vn -0.7576789 -0.2551042 0.6007034
vn -0.7582541 -0.2544305 0.600263
vn -0.7582546 -0.6002628 0.2544299
vn -0.7582546 -0.6002628 0.2544299
vn -0.7582546 -0.6002628 0.2544299
vn -0.7576788 -0.6007035 0.2551042
vn -0.6002619 -0.2544301 0.7582552
vn -0.600262 -0.2544301 0.7582552
vn -0.6002619 -0.2544301 0.7582552
vn -0.6007026 -0.2551043 0.7576795
vn -0.4592262 -0.4835302 0.7451911
vn -0.4592262 -0.4835302 0.7451911
vn -0.4592262 -0.4835302 0.7451911
vn -0.4917622 -0.4943371 0.7167989
vn -0.8997201 -0.0491159 0.4336951
vn -0.8997201 -0.0491159 0.4336951
vn -0.8997201 -0.04911589 0.433695
vn -0.8993787 -0.04917737 0.4343958
vn -0.8978809 -0.04651742 0.437774
g Ball_Uv_01_Explode_Thin_05_Hull_0
f 3/3/3 2/2/2 1/1/1
f 6/6/6 5/5/5 4/4/4
f 9/9/9 8/8/8 7/7/7
f 12/12/12 11/11/11 10/10/10
f 15/15/15 14/14/14 13/13/13
f 18/18/18 17/17/17 16/16/16
f 21/21/21 20/20/20 19/19/19
f 24/24/24 23/23/23 22/22/22
f 27/27/27 26/26/26 25/25/25
f 30/30/30 29/29/29 28/28/28
f 33/33/33 32/32/32 31/31/31
f 36/36/36 35/35/35 34/34/34
f 39/39/39 38/38/38 37/37/37
f 42/42/42 41/41/41 40/40/40
f 45/45/45 44/44/44 43/43/43
f 48/48/48 47/47/47 46/46/46
f 51/51/51 50/50/50 49/49/49
f 54/54/54 53/53/53 52/52/52
f 57/57/57 56/56/56 55/55/55
f 60/60/60 59/59/59 58/58/58
f 63/63/63 62/62/62 61/61/61
f 66/66/66 65/65/65 64/64/64
f 69/69/69 68/68/68 67/67/67
f 72/72/72 71/71/71 70/70/70
f 75/75/75 74/74/74 73/73/73
f 78/78/78 77/77/77 76/76/76
f 81/81/81 80/80/80 79/79/79
f 84/84/84 83/83/83 82/82/82
f 87/87/87 86/86/86 85/85/85
f 90/90/90 89/89/89 88/88/88
f 93/93/93 92/92/92 91/91/91
f 96/96/96 95/95/95 94/94/94
f 99/99/99 98/98/98 97/97/97
f 102/102/102 101/101/101 100/100/100
f 105/105/105 104/104/104 103/103/103
f 108/108/108 107/107/107 106/106/106
f 111/111/111 110/110/110 109/109/109
f 114/114/114 113/113/113 112/112/112
f 117/117/117 116/116/116 115/115/115
f 116/116/116 118/118/118 115/115/115
f 121/121/121 120/120/120 119/119/119
f 120/120/120 121/121/121 122/122/122
f 120/120/120 122/122/122 123/123/123
f 126/126/126 125/125/125 124/124/124
f 125/125/125 127/127/127 124/124/124
f 130/130/130 129/129/129 128/128/128
f 129/129/129 131/131/131 128/128/128
f 134/134/134 133/133/133 132/132/132
f 133/133/133 134/134/134 135/135/135
f 138/138/138 137/137/137 136/136/136
f 137/137/137 138/138/138 139/139/139
f 142/142/142 141/141/141 140/140/140
f 141/141/141 142/142/142 143/143/143
f 146/146/146 145/145/145 144/144/144
f 145/145/145 147/147/147 144/144/144
f 150/150/150 149/149/149 148/148/148
f 151/151/151 150/150/150 148/148/148
f 154/154/154 153/153/153 152/152/152
f 153/153/153 155/155/155 152/152/152
f 155/155/155 156/156/156 152/152/152
