g Ball_Uv_01_Explode_Thin_10_Hull
v 0.04606535 0.1285006 0.2681842
v 0.05643142 -0.2605098 -0.1280325
v 0.1188833 0.167068 -0.2681787
v 0.09338989 -0.2191281 0.02614934
v 0.0725021 -0.1331565 0.1897058
v 0.1280997 -0.146936 0.02904938
v 0.101804 -0.2016276 -0.1615215
v 0.1533597 -0.05132772 -0.1671431
v 0.1399441 -0.04950887 -0.2179208
v 0.06827588 -0.04389379 0.2381127
v 0.04606535 0.1285006 0.2681842
v 0.09333128 0.04848077 0.2199498
v 0.09880706 0.262376 0.05834202
v 0.104994 0.2350483 0.1210408
v 0.04606535 0.1285006 0.2681842
v 0.09880706 0.262376 0.05834202
v 0.119406 0.2619797 0.02832324
v 0.104994 0.2350483 0.1210408
v 0.09880706 0.262376 0.05834202
v 0.04606535 0.1285006 0.2681842
v 0.1188833 0.167068 -0.2681787
v 0.1280997 -0.04790321 0.1280823
v 0.06827588 -0.04389379 0.2381127
v 0.09333128 0.04848077 0.2199498
v 0.1280997 -0.04790321 0.1280823
v 0.0725021 -0.1331565 0.1897058
v 0.06827588 -0.04389379 0.2381127
v 0.1280997 -0.04790321 0.1280823
v 0.1280997 -0.146936 0.02904938
v 0.0725021 -0.1331565 0.1897058
v 0.05951924 -0.1207256 0.2001086
v 0.0725021 -0.1331565 0.1897058
v 0.09338989 -0.2191281 0.02614934
v 0.05951924 -0.1207256 0.2001086
v 0.06827588 -0.04389379 0.2381127
v 0.0725021 -0.1331565 0.1897058
v 0.05951924 -0.1207256 0.2001086
v 0.04606535 0.1285006 0.2681842
v 0.06827588 -0.04389379 0.2381127
v 0.05951924 -0.1207256 0.2001086
v 0.05643142 -0.2605098 -0.1280325
v 0.04606535 0.1285006 0.2681842
v 0.1360946 -0.1500723 -0.06733454
v 0.1533597 -0.05132772 -0.1671431
v 0.101804 -0.2016276 -0.1615215
v 0.1360946 -0.1500723 -0.06733454
v 0.1618161 -0.05290483 -0.06733451
v 0.1533597 -0.05132772 -0.1671431
v 0.1360946 -0.1500723 -0.06733454
v 0.101804 -0.2016276 -0.1615215
v 0.08259706 -0.2524776 -0.06733458
v 0.1533597 0.1482896 -0.167143
v 0.1415932 0.04848095 -0.2451155
v 0.1618161 0.04848092 -0.1687202
v 0.1533597 0.1482896 -0.167143
v 0.1188833 0.167068 -0.2681787
v 0.1415932 0.04848095 -0.2451155
v 0.06426473 -0.2666637 -0.1289453
v 0.08259706 -0.2524776 -0.06733458
v 0.101804 -0.2016276 -0.1615215
v 0.1373509 0.2088822 -0.1649726
v 0.1188833 0.167068 -0.2681787
v 0.1533597 0.1482896 -0.167143
v 0.08616541 0.1413611 0.2153004
v 0.104994 0.2350483 0.1210408
v 0.1280997 0.1448648 0.1280824
v 0.08616541 0.1413611 0.2153004
v 0.04606535 0.1285006 0.2681842
v 0.104994 0.2350483 0.1210408
v 0.08616541 0.1413611 0.2153004
v 0.09333128 0.04848077 0.2199498
v 0.04606535 0.1285006 0.2681842
v 0.08616541 0.1413611 0.2153004
v 0.1280997 0.1448648 0.1280824
v 0.09333128 0.04848077 0.2199498
v 0.1533597 -0.05132779 0.03247406
v 0.1280997 -0.04790321 0.1280823
v 0.1618161 0.04848084 0.03405121
v 0.1533597 -0.05132779 0.03247406
v 0.1280997 -0.146936 0.02904938
v 0.1280997 -0.04790321 0.1280823
v 0.1533597 0.1482895 0.03247413
v 0.1618161 0.04848084 0.03405121
v 0.1280997 0.1448648 0.1280824
v 0.1533597 0.1482895 0.03247413
v 0.1378755 0.2403059 -0.06733439
v 0.1618161 0.1498665 -0.06733443
v 0.1533597 0.1482895 0.03247413
v 0.119406 0.2619797 0.02832324
v 0.1378755 0.2403059 -0.06733439
v 0.09880706 0.262376 0.05834202
v 0.1378755 0.2403059 -0.06733439
v 0.119406 0.2619797 0.02832324
v 0.1373509 0.2088822 -0.1649726
v 0.1188833 0.167068 -0.2681787
v 0.1280997 -0.04790321 0.1280823
v 0.1280997 0.1448648 0.1280824
v 0.1618161 0.04848084 0.03405121
v 0.09333128 0.04848077 0.2199498
v 0.1618161 -0.05290483 -0.06733451
v 0.1618161 0.04848092 -0.1687202
v 0.1533597 -0.05132772 -0.1671431
v 0.1704111 0.04848088 -0.06733446
v 0.05951924 -0.1207256 0.2001086
v 0.09338989 -0.2191281 0.02614934
v 0.08259706 -0.2524776 -0.06733458
v 0.06426473 -0.2666637 -0.1289453
v 0.05643142 -0.2605098 -0.1280325
v 0.1415932 0.04848095 -0.2451155
v 0.1399441 -0.04950887 -0.2179208
v 0.1533597 -0.05132772 -0.1671431
v 0.1618161 0.04848092 -0.1687202
v 0.1415932 0.04848095 -0.2451155
v 0.1188833 0.167068 -0.2681787
v 0.05643142 -0.2605098 -0.1280325
v 0.1399441 -0.04950887 -0.2179208
v 0.101804 -0.2016276 -0.1615215
v 0.06426473 -0.2666637 -0.1289453
v 0.1360946 -0.1500723 -0.06733454
v 0.09338989 -0.2191281 0.02614934
v 0.1280997 -0.146936 0.02904938
v 0.08259706 -0.2524776 -0.06733458
v 0.1533597 0.1482896 -0.167143
v 0.1618161 0.04848092 -0.1687202
v 0.1618161 0.1498665 -0.06733443
v 0.1704111 0.04848088 -0.06733446
v 0.1533597 0.1482896 -0.167143
v 0.1618161 0.1498665 -0.06733443
v 0.1378755 0.2403059 -0.06733439
v 0.1373509 0.2088822 -0.1649726
v 0.1533597 -0.05132779 0.03247406
v 0.1360946 -0.1500723 -0.06733454
v 0.1280997 -0.146936 0.02904938
v 0.1618161 -0.05290483 -0.06733451
v 0.1533597 -0.05132779 0.03247406
v 0.1618161 0.04848084 0.03405121
v 0.1618161 -0.05290483 -0.06733451
v 0.1704111 0.04848088 -0.06733446
v 0.1533597 0.1482895 0.03247413
v 0.104994 0.2350483 0.1210408
v 0.119406 0.2619797 0.02832324
v 0.1280997 0.1448648 0.1280824
v 0.1533597 0.1482895 0.03247413
v 0.1618161 0.1498665 -0.06733443
v 0.1618161 0.04848084 0.03405121
v 0.1704111 0.04848088 -0.06733446
vn -0.9866351 0.1026225 -0.126569
vn -0.9866351 0.1026225 -0.126569
vn -0.9866351 0.1026225 -0.126569
vn 0.84592 -0.4199236 0.3287605
vn 0.84592 -0.4199236 0.3287605
vn 0.84592 -0.4199236 0.3287605
vn 0.9122915 -0.3223799 -0.2525773
vn 0.9122915 -0.3223799 -0.2525773
vn 0.9122915 -0.3223799 -0.2525773
vn 0.6794676 -0.04025092 0.7326005
vn 0.6794676 -0.04025093 0.7326006
vn 0.6794676 -0.04025093 0.7326006
vn -0.4599415 0.7964742 0.3925337
vn -0.4599415 0.7964742 0.3925337
vn -0.4599415 0.7964742 0.3925337
vn 0.4716822 0.8244271 0.3127874
vn 0.4716822 0.8244271 0.3127874
vn 0.4716823 0.824427 0.3127874
vn -0.9729637 0.1986528 -0.1178078
vn -0.9729637 0.1986528 -0.1178078
vn -0.9729637 0.1986528 -0.1178078
vn 0.8675224 -0.1415481 0.4768323
vn 0.8675224 -0.1415481 0.4768323
vn 0.8675224 -0.1415481 0.4768323
vn 0.8545277 -0.2157618 0.4724714
vn 0.8545277 -0.2157618 0.4724714
vn 0.8545277 -0.2157618 0.4724714
vn 0.8816225 -0.333723 0.3337225
vn 0.8816225 -0.333723 0.3337225
vn 0.8816225 -0.333723 0.3337225
vn -0.478514 -0.8009378 0.3598929
vn -0.478514 -0.8009378 0.3598929
vn -0.478514 -0.8009378 0.3598929
vn 0.2527297 -0.4519628 0.8554867
vn 0.2527297 -0.4519627 0.8554867
vn 0.2527297 -0.4519627 0.8554867
vn -0.7801157 -0.2036929 0.5915477
vn -0.7801157 -0.2036929 0.5915478
vn -0.7801157 -0.2036929 0.5915478
vn -0.9972906 -0.0638265 0.03657388
vn -0.9972906 -0.0638265 0.03657387
vn -0.9972906 -0.0638265 0.03657387
vn 0.9317002 -0.3256112 -0.1609726
vn 0.9317002 -0.3256112 -0.1609727
vn 0.9317002 -0.3256112 -0.1609727
vn 0.9631525 -0.254959 -0.08563287
vn 0.9631525 -0.254959 -0.08563287
vn 0.9631525 -0.254959 -0.08563285
vn 0.8842242 -0.4619271 -0.0690726
vn 0.8842242 -0.4619271 -0.0690726
vn 0.8842242 -0.4619271 -0.0690726
vn 0.9631525 0.08563291 -0.2549597
vn 0.9631525 0.0856329 -0.2549597
vn 0.9631525 0.0856329 -0.2549597
vn 0.9460064 0.1228228 -0.2999772
vn 0.9460064 0.1228228 -0.2999772
vn 0.9460064 0.1228228 -0.2999772
vn 0.8316638 -0.5415371 -0.1227711
vn 0.8316638 -0.5415372 -0.1227711
vn 0.8316639 -0.5415371 -0.122771
vn 0.9286306 0.2549996 -0.2694818
vn 0.9286306 0.2549995 -0.2694817
vn 0.9286306 0.2549995 -0.2694817
vn 0.8672653 0.2555604 0.4272466
vn 0.8672653 0.2555604 0.4272466
vn 0.8672653 0.2555604 0.4272467
vn 0.640772 0.476702 0.6018027
vn 0.640772 0.476702 0.6018028
vn 0.640772 0.4767019 0.6018028
vn 0.7827021 0.09120648 0.6156775
vn 0.7827021 0.09120648 0.6156775
vn 0.7827021 0.09120648 0.6156775
vn 0.8960815 0.09088373 0.434486
vn 0.8960815 0.09088372 0.434486
vn 0.8960815 0.09088373 0.434486
vn 0.9625138 -0.08561682 0.2573651
vn 0.9625138 -0.08561683 0.2573651
vn 0.9625138 -0.08561682 0.2573651
vn 0.9324353 -0.2555039 0.2555035
vn 0.9324353 -0.2555039 0.2555035
vn 0.9324353 -0.2555039 0.2555035
vn 0.9625139 0.08561662 0.2573652
vn 0.9625139 0.08561663 0.2573652
vn 0.9625139 0.08561664 0.2573652
vn 0.9631525 0.2549593 0.08563272
vn 0.9631525 0.2549593 0.08563272
vn 0.9631525 0.2549593 0.08563272
vn 0.950273 0.2881153 0.1181983
vn 0.950273 0.2881153 0.1181983
vn 0.950273 0.2881153 0.1181983
vn -0.3819553 0.882707 -0.273749
vn -0.3819553 0.882707 -0.2737489
vn -0.3819553 0.882707 -0.273749
vn -0.4092815 0.8687836 -0.2787537
vn -0.4092815 0.8687837 -0.2787537
vn 0.941317 -1.287664E-07 0.3375237
vn 0.941317 -1.287664E-07 0.3375237
vn 0.941317 -1.287664E-07 0.3375237
vn 0.9352599 -1.400913E-07 0.3539616
vn 0.9926705 -0.0854554 -0.08545545
vn 0.9926705 -0.08545538 -0.08545544
vn 0.9926705 -0.0854554 -0.08545544
vn 0.9928898 -0.08417254 -0.08417261
vn -0.5255928 -0.7802628 0.3390313
vn -0.5255929 -0.7802628 0.3390313
vn -0.5255929 -0.7802628 0.3390313
vn -0.5312998 -0.7772484 0.3370539
vn -0.5592774 -0.7607543 0.3293351
vn 0.9623268 -0.08762713 -0.257388
vn 0.9623268 -0.08762713 -0.2573879
vn 0.9623268 -0.08762714 -0.257388
vn 0.9631525 -0.08563288 -0.2549597
vn -0.3561837 -0.243652 -0.9020903
vn -0.3561837 -0.243652 -0.9020903
vn -0.3446999 -0.2491298 -0.9050505
vn -0.3446999 -0.2491298 -0.9050505
vn -0.3446999 -0.2491297 -0.9050505
vn -0.3187263 -0.2709836 -0.9082849
vn 0.8963143 -0.4345009 0.08848567
vn 0.8963143 -0.4345009 0.08848567
vn 0.8963143 -0.4345009 0.08848567
vn 0.8845955 -0.4621211 0.06272953
vn 0.9926705 0.08545539 -0.08545528
vn 0.9926705 0.0854554 -0.08545527
vn 0.9926705 0.0854554 -0.08545527
vn 0.9928898 0.08417262 -0.08417251
vn 0.9631525 0.2549594 -0.08563251
vn 0.9631525 0.2549594 -0.08563251
vn 0.9631525 0.2549594 -0.08563251
vn 0.9622908 0.2573925 -0.08800927
vn 0.9622734 -0.2573942 0.0881939
vn 0.9622734 -0.2573942 0.0881939
vn 0.9622734 -0.2573942 0.08819391
vn 0.9631525 -0.254959 0.08563267
vn 0.9926705 -0.0854554 0.08545537
vn 0.9926705 -0.0854554 0.08545537
vn 0.9926705 -0.0854554 0.08545537
vn 0.9928896 -0.08417261 0.08417258
vn 0.9306737 0.2862641 0.2278142
vn 0.9306737 0.2862641 0.2278142
vn 0.9306737 0.2862641 0.2278142
vn 0.9316037 0.2586262 0.2553958
vn 0.9926705 0.08545534 0.08545538
vn 0.9926705 0.08545532 0.08545537
vn 0.9926705 0.08545534 0.08545537
vn 0.9928896 0.08417256 0.08417262
g Ball_Uv_01_Explode_Thin_10_Hull_0
f 3/3/3 2/2/2 1/1/1
f 6/6/6 5/5/5 4/4/4
f 9/9/9 8/8/8 7/7/7
f 12/12/12 11/11/11 10/10/10
f 15/15/15 14/14/14 13/13/13
f 18/18/18 17/17/17 16/16/16
f 21/21/21 20/20/20 19/19/19
f 24/24/24 23/23/23 22/22/22
f 27/27/27 26/26/26 25/25/25
f 30/30/30 29/29/29 28/28/28
f 33/33/33 32/32/32 31/31/31
f 36/36/36 35/35/35 34/34/34
f 39/39/39 38/38/38 37/37/37
f 42/42/42 41/41/41 40/40/40
f 45/45/45 44/44/44 43/43/43
f 48/48/48 47/47/47 46/46/46
f 51/51/51 50/50/50 49/49/49
f 54/54/54 53/53/53 52/52/52
f 57/57/57 56/56/56 55/55/55
f 60/60/60 59/59/59 58/58/58
f 63/63/63 62/62/62 61/61/61
f 66/66/66 65/65/65 64/64/64
f 69/69/69 68/68/68 67/67/67
f 72/72/72 71/71/71 70/70/70
f 75/75/75 74/74/74 73/73/73
f 78/78/78 77/77/77 76/76/76
f 81/81/81 80/80/80 79/79/79
f 84/84/84 83/83/83 82/82/82
f 87/87/87 86/86/86 85/85/85
f 90/90/90 89/89/89 88/88/88
f 93/93/93 92/92/92 91/91/91
f 91/91/91 92/92/92 94/94/94
f 95/95/95 91/91/91 94/94/94
f 98/98/98 97/97/97 96/96/96
f 97/97/97 99/99/99 96/96/96
f 102/102/102 101/101/101 100/100/100
f 100/100/100 101/101/101 103/103/103
f 106/106/106 105/105/105 104/104/104
f 106/106/106 104/104/104 107/107/107
f 104/104/104 108/108/108 107/107/107
f 111/111/111 110/110/110 109/109/109
f 112/112/112 111/111/111 109/109/109
f 115/115/115 114/114/114 113/113/113
f 116/116/116 115/115/115 113/113/113
f 115/115/115 116/116/116 117/117/117
f 115/115/115 117/117/117 118/118/118
f 121/121/121 120/120/120 119/119/119
f 120/120/120 122/122/122 119/119/119
f 125/125/125 124/124/124 123/123/123
f 124/124/124 125/125/125 126/126/126
f 129/129/129 128/128/128 127/127/127
f 129/129/129 127/127/127 130/130/130
f 133/133/133 132/132/132 131/131/131
f 132/132/132 134/134/134 131/131/131
f 137/137/137 136/136/136 135/135/135
f 136/136/136 137/137/137 138/138/138
f 141/141/141 140/140/140 139/139/139
f 140/140/140 142/142/142 139/139/139
f 145/145/145 144/144/144 143/143/143
f 144/144/144 145/145/145 146/146/146
