g Ball_Uv_01_Explode_Thin_07
v 0.01638763 -0.0008548736 -0.2138059
v 0.01638763 0.06891777 -0.1440331
v -0.005090332 0.0474398 -0.1923279
v 0.06137421 0.007164974 -0.1520532
v 0.01672958 -0.001948528 -0.2141478
v 0.08891495 -0.05878767 -0.1643281
v 0.03905411 0.09158424 -0.07153154
v 0.09838867 -0.06839453 -0.1555177
v 0.09335937 0.02142086 -0.07545725
v 0.1135977 0.03288982 0.01191529
v 0.05503631 0.1075664 0.01357097
v 0.06105987 0.1135898 0.1047656
v 0.1319908 -0.06147024 -0.08341799
v 0.1489035 -0.1274819 -0.08857225
v 0.1462955 -0.1311084 -0.0960103
v 0.1647667 -0.08930431 0.007158851
v 0.1555185 -0.05430008 0.008412685
v 0.1652911 -0.05789074 0.1047656
v 0.1207613 0.03753778 0.1047656
v 0.1135977 0.03288975 0.1976159
v 0.05503631 0.1075663 0.1959604
v 0.05426483 0.1067949 0.2000679
v 0.1084473 0.02997097 0.2198516
v 0.1349048 -0.03155006 0.2329582
v 0.1468275 -0.03622394 0.2003923
v 0.1614952 -0.05195541 0.1290639
v 0.1635107 -0.05116472 0.1047656
v -0.1376482 0.2250287 0.1047657
v -0.1394875 0.2225895 0.07244415
v -0.1309604 0.2154259 0.01859876
v -0.1254694 0.2129731 0.007745151
v -0.1068301 0.2080485 0.00841279
v -0.1095206 0.1992203 -0.02604464
v -0.08489273 0.1709552 -0.08062246
v -0.1036948 0.2160408 0.1047657
v -0.1354838 0.2200625 0.1531446
v -0.1054668 0.2115238 0.1592212
v -0.03110924 0.1458895 -0.07545721
v -0.05472839 0.1178144 -0.1537958
v -0.0196402 0.1661277 0.01191534
v -0.01499222 0.1732913 0.1047657
v -0.01873596 0.1675212 0.1795537
v -0.04536499 0.1139044 -0.1520531
v -0.04801453 0.09904224 -0.1724543
v -0.03650627 0.0614114 -0.2062994
v -0.005090332 0.0474398 -0.1923279
v 0.01638763 0.06891777 -0.1440331
v 0.03905411 0.09158424 -0.07153154
v 0.05503631 0.1075664 0.01357097
v 0.06105987 0.1135898 0.1047656
v 0.05503631 0.1075663 0.1959604
v 0.04112869 0.1184728 0.1962687
v 0.05426483 0.1067949 0.2000679
v 0.01638763 -0.0008548736 -0.2138059
v -0.005090332 0.0474398 -0.1923279
v -0.03650627 0.0614114 -0.2062994
v -0.02926292 0.02204447 -0.2329582
v 0.01441208 -0.0005982971 -0.2152451
v 0.01672958 -0.001948528 -0.2141478
v 0.01011653 0.06266325 -0.1393905
v 0.01012693 -0.005508712 -0.2075492
v -0.01088385 0.04170653 -0.1865344
v 0.05407343 0.00233017 -0.1472238
v 0.01000521 -0.005994599 -0.20795
v 0.08105443 -0.06292492 -0.1597351
v 0.03237356 0.08490513 -0.06825134
v 0.09013026 -0.0721515 -0.1513125
v 0.08541403 0.01634163 -0.07212967
v 0.1052585 0.02765064 0.01365004
v 0.04807268 0.1006018 0.01530352
v 0.05399078 0.1065167 0.1047656
v 0.1232295 -0.06487767 -0.08000784
v 0.1399616 -0.1300587 -0.08491127
v 0.1376286 -0.1336634 -0.09172569
v 0.155298 -0.09188227 0.009081899
v 0.1462965 -0.05775623 0.01014757
v 0.155626 -0.06045216 0.1049237
v 0.1122766 0.03224523 0.1047627
v 0.1052555 0.02765453 0.1958838
v 0.04807335 0.1006013 0.1942269
v 0.04732328 0.1000697 0.1975016
v 0.1002135 0.02491201 0.2172803
v 0.1262343 -0.03582256 0.2303954
v 0.1379567 -0.04055337 0.1987911
v 0.1524597 -0.05614765 0.128178
v 0.1541319 -0.05463433 0.1047627
v -0.1402101 0.2153625 0.1047979
v -0.1335341 0.2058023 0.0194715
v -0.1420613 0.2129659 0.07331688
v -0.1280452 0.2034249 0.009227299
v -0.1102895 0.1988273 0.01014511
v -0.1135359 0.1904287 -0.02347864
v -0.08915022 0.1624644 -0.07749525
v -0.1071654 0.2066624 0.1047697
v -0.1380399 0.2104348 0.1522654
v -0.1090375 0.2022258 0.1583283
v -0.03618742 0.1379425 -0.07213186
v -0.05885949 0.1100555 -0.1490278
v -0.0248761 0.1577858 0.01364657
v -0.02028652 0.1648078 0.1047676
v -0.0241333 0.1591528 0.1786379
v -0.05019109 0.1065921 -0.1472324
v -0.05317313 0.09245075 -0.1669824
v -0.04185284 0.0553858 -0.2003743
v -0.01088385 0.04170653 -0.1865344
v 0.01011653 0.06266325 -0.1393905
v 0.03237356 0.08490513 -0.06825134
v 0.04807268 0.1006018 0.01530352
v 0.05399078 0.1065167 0.1047656
v 0.04807335 0.1006013 0.1942269
v 0.03497685 0.1106574 0.1952318
v 0.04732328 0.1000697 0.1975016
v 0.01012693 -0.005508712 -0.2075492
v -0.04185284 0.0553858 -0.2003743
v -0.01088385 0.04170653 -0.1865344
v -0.03467299 0.01666898 -0.2264902
v 0.008952292 -0.005800717 -0.2086781
v 0.01000521 -0.005994599 -0.20795
v 0.08105443 -0.06292492 -0.1597351
v 0.01672958 -0.001948528 -0.2141478
v 0.01000521 -0.005994599 -0.20795
v 0.08891495 -0.05878767 -0.1643281
v 0.09013026 -0.0721515 -0.1513125
v 0.09838867 -0.06839453 -0.1555177
v 0.1376286 -0.1336634 -0.09172569
v 0.1462955 -0.1311084 -0.0960103
v -0.04801453 0.09904224 -0.1724543
v -0.04185284 0.0553858 -0.2003743
v -0.03650627 0.0614114 -0.2062994
v -0.05317313 0.09245075 -0.1669824
v -0.05472839 0.1178144 -0.1537958
v -0.05885949 0.1100555 -0.1490278
v -0.08489273 0.1709552 -0.08062246
v -0.08915022 0.1624644 -0.07749525
v -0.1095206 0.1992203 -0.02604464
v -0.1135359 0.1904287 -0.02347864
v -0.1254694 0.2129731 0.007745151
v -0.1280452 0.2034249 0.009227299
v -0.1309604 0.2154259 0.01859876
v -0.1335341 0.2058023 0.0194715
v -0.1394875 0.2225895 0.07244415
v -0.1420613 0.2129659 0.07331688
v -0.1376482 0.2250287 0.1047657
v -0.1402101 0.2153625 0.1047979
v -0.1354838 0.2200625 0.1531446
v -0.1380399 0.2104348 0.1522654
v 0.1468275 -0.03622394 0.2003923
v 0.1262343 -0.03582256 0.2303954
v 0.1349048 -0.03155006 0.2329582
v 0.1379567 -0.04055337 0.1987911
v 0.1614952 -0.05195541 0.1290639
v 0.1524597 -0.05614765 0.128178
v 0.1652911 -0.05789074 0.1047656
v 0.155626 -0.06045216 0.1049237
v 0.1647667 -0.08930431 0.007158851
v 0.155298 -0.09188227 0.009081899
v 0.1489035 -0.1274819 -0.08857225
v 0.1399616 -0.1300587 -0.08491127
v 0.1462955 -0.1311084 -0.0960103
v 0.1376286 -0.1336634 -0.09172569
v 0.1002135 0.02491201 0.2172803
v 0.1349048 -0.03155006 0.2329582
v 0.1262343 -0.03582256 0.2303954
v 0.1084473 0.02997097 0.2198516
v 0.04732328 0.1000697 0.1975016
v 0.05426483 0.1067949 0.2000679
v 0.008952292 -0.005800717 -0.2086781
v -0.02926292 0.02204447 -0.2329582
v -0.03467299 0.01666898 -0.2264902
v 0.01441208 -0.0005982971 -0.2152451
v 0.01000521 -0.005994599 -0.20795
v 0.01672958 -0.001948528 -0.2141478
v -0.03467299 0.01666898 -0.2264902
v -0.03650627 0.0614114 -0.2062994
v -0.04185284 0.0553858 -0.2003743
v -0.02926292 0.02204447 -0.2329582
v 0.03497685 0.1106574 0.1952318
v 0.05426483 0.1067949 0.2000679
v 0.04732328 0.1000697 0.1975016
v 0.04112869 0.1184728 0.1962687
v -0.0241333 0.1591528 0.1786379
v -0.01873596 0.1675212 0.1795537
v -0.1090375 0.2022258 0.1583283
v -0.1054668 0.2115238 0.1592212
v -0.1380399 0.2104348 0.1522654
v -0.1354838 0.2200625 0.1531446
vt 0.125 1
vt 0 0.875
vt 0 1
vt 0.125 0.875
vt 0.1268856 1
vt 0.2326308 0.875
vt 0 0.75
vt 0.25 0.8587267
vt 0.125 0.75
vt 0.125 0.625
vt 0 0.625
vt 0 0.5
vt 0.25 0.75
vt 0.3398552 0.75
vt 0.3438493 0.7608711
vt 0.29578 0.625
vt 0.25 0.625
vt 0.2586554 0.5
vt 0.125 0.5
vt 0.125 0.375
vt 0 0.375
vt 0 0.3689668
vt 0.125 0.3431884
vt 0.2125839 0.3292134
vt 0.224085 0.375
vt 0.25 0.4684774
vt 0.25 0.5
vt 0.7063069 0.5
vt 0.7050228 0.5413718
vt 0.7180573 0.6108267
vt 0.7256227 0.625
vt 0.75 0.625
vt 0.75 0.6719035
vt 0.7938944 0.75
vt 0.75 0.5
vt 0.7108221 0.4378487
vt 0.75 0.429354
vt 0.875 0.75
vt 0.8597195 0.8749999
vt 0.875 0.625
vt 0.875 0.5
vt 0.875 0.3993164
vt 0.875 0.875
vt 0.875 0.916296
vt 0.9186867 1
vt 1 1
vt 1 0.875
vt 1 0.75
vt 1 0.625
vt 1 0.5
vt 1 0.375
vt 0.9767201 0.375
vt 1 0.3689668
vt 1 0.125
vt 1 0
vt 0.9186867 0
vt 0.9154838 0.08670682
vt 0.996001 0.125
vt 1 0.1268856
vt 0 0.875
vt 0.125 1
vt 0 1
vt 0.125 0.875
vt 0.1268856 1
vt 0.2326308 0.875
vt 0 0.75
vt 0.25 0.8587267
vt 0.125 0.75
vt 0.125 0.625
vt 0 0.625
vt 0 0.5
vt 0.25 0.75
vt 0.3398552 0.75
vt 0.3438493 0.7608711
vt 0.29578 0.625
vt 0.25 0.625
vt 0.2586554 0.5
vt 0.125 0.5
vt 0.125 0.375
vt 0 0.375
vt 0 0.3689668
vt 0.125 0.3431884
vt 0.2125839 0.3292134
vt 0.224085 0.375
vt 0.25 0.4684774
vt 0.25 0.5
vt 0.7063069 0.5
vt 0.7180573 0.6108267
vt 0.7050228 0.5413718
vt 0.7256227 0.625
vt 0.75 0.625
vt 0.75 0.6719035
vt 0.7938944 0.75
vt 0.75 0.5
vt 0.7108221 0.4378487
vt 0.75 0.429354
vt 0.875 0.75
vt 0.8597195 0.8749999
vt 0.875 0.625
vt 0.875 0.5
vt 0.875 0.3993164
vt 0.875 0.875
vt 0.875 0.916296
vt 0.9186867 1
vt 1 1
vt 1 0.875
vt 1 0.75
vt 1 0.625
vt 1 0.5
vt 1 0.375
vt 0.9767201 0.375
vt 1 0.3689668
vt 1 0.125
vt 0.9186867 0
vt 1 0
vt 0.9154838 0.08670682
vt 0.996001 0.125
vt 1 0.1268856
vt 0.2326308 0.875
vt 0.1268856 1
vt 0.1268856 1
vt 0.2326308 0.875
vt 0.25 0.8587267
vt 0.25 0.8587267
vt 0.3438493 0.7608711
vt 0.3438493 0.7608711
vt 0.875 0.916296
vt 0.9186867 1
vt 0.9186867 1
vt 0.875 0.916296
vt 0.8597195 0.8749999
vt 0.8597195 0.8749999
vt 0.7938944 0.75
vt 0.7938944 0.75
vt 0.75 0.6719035
vt 0.75 0.6719035
vt 0.7256227 0.625
vt 0.7256227 0.625
vt 0.7180573 0.6108267
vt 0.7180573 0.6108267
vt 0.7050228 0.5413718
vt 0.7050228 0.5413718
vt 0.7063069 0.5
vt 0.7063069 0.5
vt 0.7108221 0.4378487
vt 0.7108221 0.4378487
vt 0.224085 0.375
vt 0.2125839 0.3292134
vt 0.2125839 0.3292134
vt 0.224085 0.375
vt 0.25 0.4684774
vt 0.25 0.4684774
vt 0.2586554 0.5
vt 0.2586554 0.5
vt 0.29578 0.625
vt 0.29578 0.625
vt 0.3398552 0.75
vt 0.3398552 0.75
vt 0.3438493 0.7608711
vt 0.3438493 0.7608711
vt 0.125 0.3431884
vt 0.2125839 0.3292134
vt 0.2125839 0.3292134
vt 0.125 0.3431884
vt 0 0.3689668
vt 0 0.3689668
vt 0.996001 0.125
vt 0.9154838 0.08670682
vt 0.9154838 0.08670682
vt 0.996001 0.125
vt 1 0.1268856
vt 1 0.1268856
vt 0.9154838 0.08670682
vt 0.9186867 0
vt 0.9186867 0
vt 0.9154838 0.08670682
vt 0.9767201 0.375
vt 1 0.3689668
vt 1 0.3689668
vt 0.9767201 0.375
vt 0.875 0.3993164
vt 0.875 0.3993164
vt 0.75 0.429354
vt 0.75 0.429354
vt 0.7108221 0.4378487
vt 0.7108221 0.4378487
vn 0.6260701 0.4653839 -0.6256629
vn 0.6271108 0.6254516 -0.4642653
vn 0.5793519 0.5733277 -0.5793504
vn 0.7300775 0.4834804 -0.4829426
vn 0.6724375 0.4046071 -0.6197748
vn 0.7860516 0.4137253 -0.4592975
vn 0.6680545 0.6679117 -0.3280201
vn 0.8258412 0.3756978 -0.4205206
vn 0.794535 0.5079235 -0.3327579
vn 0.8339164 0.523918 -0.1734745
vn 0.6963627 0.6964635 -0.1732554
vn 0.7069092 0.7073042 2.512584E-07
vn 0.8761298 0.340743 -0.3410142
vn 0.894188 0.2576813 -0.3660985
vn 0.8666837 0.2555003 -0.4284611
vn 0.9468689 0.257795 -0.1923047
vn 0.9221995 0.345615 -0.1734888
vn 0.9665096 0.2561428 -0.0158179
vn 0.8484629 0.5292549 0.0002939138
vn 0.8342205 0.5235218 0.1732087
vn 0.6962966 0.6965073 0.173346
vn 0.6941555 0.6725258 0.2566264
vn 0.8233804 0.5058959 0.2571263
vn 0.8670508 0.4272498 0.256282
vn 0.8870868 0.4329429 0.1601166
vn 0.9035502 0.4192241 0.08859037
vn 0.9378794 0.3469612 0.0002890954
vn 0.2561962 0.9666195 -0.003221549
vn 0.2573855 0.9623597 -0.08727276
vn 0.2573729 0.9623629 -0.0872741
vn 0.2575765 0.9548229 -0.1482147
vn 0.3459463 0.9221236 -0.173232
vn 0.4015293 0.8791648 -0.2565996
vn 0.4257484 0.8490841 -0.312721
vn 0.3470614 0.9378422 -0.0004020308
vn 0.2556097 0.9627739 0.08792201
vn 0.3570689 0.9298008 0.08928827
vn 0.507818 0.7946962 -0.3325342
vn 0.4131104 0.7758862 -0.4768023
vn 0.5235904 0.8341951 -0.1731231
vn 0.5294306 0.8483533 -0.0001908882
vn 0.5397336 0.8368395 0.09158194
vn 0.4826096 0.7312238 -0.4820783
vn 0.5158605 0.6591493 -0.5471838
vn 0.5346572 0.60256 -0.5925057
vn 0.5793519 0.5733277 -0.5793504
vn 0.6271108 0.6254516 -0.4642653
vn 0.6680545 0.6679117 -0.3280201
vn 0.6963627 0.6964635 -0.1732554
vn 0.7069092 0.7073042 2.512584E-07
vn 0.6962966 0.6965073 0.173346
vn 0.6151835 0.7815349 0.1036945
vn 0.6941555 0.6725258 0.2566264
vn 0.6260701 0.4653839 -0.6256629
vn 0.5793519 0.5733277 -0.5793504
vn 0.5346572 0.60256 -0.5925057
vn 0.5410071 0.5375489 -0.6468017
vn 0.5459787 0.520242 -0.6567006
vn 0.6724375 0.4046071 -0.6197748
vn -0.6270344 -0.6254234 0.4644064
vn -0.65433 -0.4338118 0.6194026
vn -0.5790352 -0.5735255 0.5794712
vn -0.7302024 -0.4832314 0.4830031
vn -0.6440172 -0.4005291 0.6517808
vn -0.786058 -0.4131665 0.4597894
vn -0.6680319 -0.6678945 0.328101
vn -0.8258967 -0.3751021 0.420943
vn -0.7945789 -0.5077623 0.332899
vn -0.8339695 -0.5238104 0.1735441
vn -0.6963514 -0.6964527 0.1733444
vn -0.706913 -0.7073005 7.211932E-07
vn -0.8761396 -0.3405254 0.3412062
vn -0.8940949 -0.2563016 0.3672925
vn -0.8666877 -0.252446 0.4302598
vn -0.9471778 -0.2568592 0.1920355
vn -0.9224419 -0.3449571 0.17351
vn -0.9682529 -0.2495902 0.01382592
vn -0.8485296 -0.5291478 -0.0002876794
vn -0.8342705 -0.5231474 -0.1740956
vn -0.6968184 -0.6947682 -0.1781608
vn -0.6884983 -0.6746602 -0.2660894
vn -0.8229275 -0.5058033 -0.2587532
vn -0.8668362 -0.4267054 -0.25791
vn -0.8873229 -0.4322601 -0.1606524
vn -0.9041409 -0.417485 -0.09074928
vn -0.938967 -0.3440063 0.0007413261
vn -0.2545683 -0.9670505 0.002882066
vn -0.2527372 -0.9635082 0.08818016
vn -0.2525179 -0.9635636 0.08820354
vn -0.2549474 -0.9553345 0.1494584
vn -0.3451689 -0.9224785 0.1728928
vn -0.3979389 -0.8802977 0.2583036
vn -0.4247493 -0.8492265 0.3136919
vn -0.3463843 -0.9380926 2.427337E-06
vn -0.2539339 -0.9631579 -0.08856958
vn -0.3562595 -0.9300522 -0.08990143
vn -0.5074974 -0.794815 0.3327393
vn -0.4107026 -0.7758636 0.4789144
vn -0.5235018 -0.8342367 0.1731905
vn -0.5292571 -0.8484615 -1.091619E-05
vn -0.5391306 -0.8371254 -0.09251618
vn -0.4812403 -0.7323788 0.4816939
vn -0.5106037 -0.6607352 0.5501934
vn -0.5338495 -0.6024674 0.5933277
vn -0.5790352 -0.5735255 0.5794712
vn -0.6270344 -0.6254234 0.4644064
vn -0.6680319 -0.6678945 0.328101
vn -0.6963514 -0.6964527 0.1733444
vn -0.706913 -0.7073005 7.211932E-07
vn -0.6968184 -0.6947682 -0.1781608
vn -0.6102601 -0.7822639 -0.1250832
vn -0.6884983 -0.6746602 -0.2660894
vn -0.65433 -0.4338118 0.6194026
vn -0.5338495 -0.6024674 0.5933277
vn -0.5790352 -0.5735255 0.5794712
vn -0.5398606 -0.5367683 0.648406
vn -0.5387701 -0.4878534 0.6868231
vn -0.6440172 -0.4005291 0.6517808
vn -0.0538174 -0.6987733 -0.7133159
vn -0.1418857 -0.7477109 -0.6486885
vn -0.002598186 -0.8010258 -0.5986243
vn -0.05011927 -0.6972769 -0.7150475
vn -0.0410175 -0.7043919 -0.7086251
vn -0.04335366 -0.7049437 -0.7079372
vn -0.112795 -0.7283633 -0.6758433
vn -0.1180326 -0.7294692 -0.6737529
vn -0.8269754 0.2170383 -0.518658
vn -0.8231097 0.2118495 -0.5268872
vn -0.8233945 0.2117774 -0.5264712
vn -0.8322365 0.2131676 -0.5118027
vn -0.8620991 0.179181 -0.4740035
vn -0.866095 0.1770684 -0.4674679
vn -0.8322766 0.2280389 -0.505286
vn -0.8308072 0.2299525 -0.5068344
vn -0.8356738 0.237022 -0.4954493
vn -0.8389178 0.2315437 -0.492549
vn -0.8676136 0.1689259 -0.4676651
vn -0.8671829 0.1675363 -0.4689621
vn -0.9173522 0.2081062 -0.3393476
vn -0.9141945 0.2132369 -0.3446427
vn -0.9650397 0.2513681 -0.07424506
vn -0.9651772 0.2508877 -0.07408373
vn -0.9650817 0.256509 0.05310684
vn -0.9652951 0.2556373 0.05342948
vn -0.9655176 0.2507472 0.07001217
vn -0.9657081 0.2499863 0.07010476
vn 0.3798888 -0.8840449 0.2723036
vn 0.3665977 -0.8922682 0.2635593
vn 0.3633814 -0.8942235 0.2613778
vn 0.381615 -0.8829435 0.2734606
vn 0.3824261 -0.8823275 0.2743146
vn 0.3675875 -0.8908869 0.2668333
vn 0.2685069 -0.9270217 0.2617916
vn 0.2534418 -0.9338691 0.2523008
vn 0.3051915 -0.9031516 0.3019525
vn 0.3089843 -0.9020253 0.3014615
vn 0.3723989 -0.8793372 0.2967912
vn 0.3835718 -0.8730797 0.3010059
vn 0.3891286 -0.8694732 0.3042945
vn 0.4079246 -0.8573678 0.3138759
vn -0.3214154 0.04410304 0.9459108
vn -0.3157474 0.0687719 0.9463477
vn -0.3142468 0.06981143 0.946771
vn -0.3233681 0.04277086 0.9453061
vn -0.3021126 -0.04936511 0.9519932
vn -0.2991385 -0.02261285 0.9539418
vn 0.0443 -0.799849 -0.5985642
vn -0.09657034 -0.7261249 -0.6807472
vn -0.09498267 -0.7250959 -0.6820661
vn -0.1086641 -0.7499994 -0.6524516
vn -0.002598186 -0.8010258 -0.5986243
vn -0.1418857 -0.7477109 -0.6486885
vn -0.8266588 0.2029644 -0.5248244
vn -0.8233945 0.2117774 -0.5264712
vn -0.8231097 0.2118495 -0.5268872
vn -0.827422 0.2024753 -0.5238099
vn -0.2361951 0.02875326 0.9712802
vn -0.2991385 -0.02261285 0.9539418
vn -0.3021126 -0.04936511 0.9519932
vn -0.2314866 0.05288931 0.9713993
vn -0.2252936 0.03915289 0.9735039
vn -0.2261036 0.03768519 0.9733739
vn -0.2190005 -0.008282548 0.9756895
vn -0.2195125 -0.01144613 0.9755425
vn -0.2077741 -0.03024397 0.9777092
vn -0.2076227 -0.03415485 0.9776126
g Ball_Uv_01_Explode_Thin_07_0
f 3/3/3 2/2/2 1/1/1
f 4/4/4 1/1/1 2/2/2
f 1/1/1 4/4/4 5/5/5
f 6/6/6 5/5/5 4/4/4
f 2/2/2 7/7/7 4/4/4
f 6/6/6 4/4/4 8/8/8
f 9/9/9 4/4/4 7/7/7
f 4/4/4 9/9/9 8/8/8
f 9/9/9 7/7/7 10/10/10
f 11/11/11 10/10/10 7/7/7
f 11/11/11 12/12/12 10/10/10
f 9/9/9 13/13/13 8/8/8
f 9/9/9 10/10/10 13/13/13
f 13/13/13 14/14/14 8/8/8
f 15/15/15 8/8/8 14/14/14
f 14/14/14 13/13/13 16/16/16
f 17/17/17 16/16/16 13/13/13
f 17/17/17 13/13/13 10/10/10
f 16/16/16 17/17/17 18/18/18
f 19/19/19 10/10/10 12/12/12
f 10/10/10 19/19/19 17/17/17
f 19/19/19 12/12/12 20/20/20
f 21/21/21 20/20/20 12/12/12
f 21/21/21 22/22/22 20/20/20
f 23/23/23 20/20/20 22/22/22
f 23/23/23 24/24/24 20/20/20
f 25/25/25 20/20/20 24/24/24
f 25/25/25 26/26/26 20/20/20
f 27/27/27 26/26/26 18/18/18
f 27/27/27 18/18/18 17/17/17
f 27/27/27 17/17/17 19/19/19
f 26/26/26 27/27/27 20/20/20
f 27/27/27 19/19/19 20/20/20
f 30/30/30 29/29/29 28/28/28
f 31/31/31 30/30/30 28/28/28
f 32/32/32 31/31/31 28/28/28
f 32/32/32 33/33/33 31/31/31
f 34/34/34 33/33/33 32/32/32
f 35/35/35 32/32/32 28/28/28
f 28/28/28 36/36/36 35/35/35
f 37/37/37 35/35/35 36/36/36
f 38/38/38 34/34/34 32/32/32
f 34/34/34 38/38/38 39/39/39
f 32/32/32 35/35/35 40/40/40
f 40/40/40 38/38/38 32/32/32
f 35/35/35 37/37/37 41/41/41
f 41/41/41 40/40/40 35/35/35
f 42/42/42 41/41/41 37/37/37
f 43/43/43 39/39/39 38/38/38
f 43/43/43 44/44/44 39/39/39
f 45/45/45 44/44/44 43/43/43
f 46/46/46 45/45/45 43/43/43
f 47/47/47 46/46/46 43/43/43
f 47/47/47 43/43/43 48/48/48
f 38/38/38 48/48/48 43/43/43
f 48/48/48 38/38/38 49/49/49
f 40/40/40 49/49/49 38/38/38
f 40/40/40 41/41/41 49/49/49
f 50/50/50 49/49/49 41/41/41
f 50/50/50 41/41/41 51/51/51
f 41/41/41 42/42/42 51/51/51
f 42/42/42 52/52/52 51/51/51
f 51/51/51 52/52/52 53/53/53
f 56/56/56 55/55/55 54/54/54
f 57/57/57 56/56/56 54/54/54
f 58/58/58 57/57/57 54/54/54
f 54/54/54 59/59/59 58/58/58
f 62/62/62 61/61/61 60/60/60
f 63/63/63 60/60/60 61/61/61
f 61/61/61 64/64/64 63/63/63
f 65/65/65 63/63/63 64/64/64
f 60/60/60 63/63/63 66/66/66
f 65/65/65 67/67/67 63/63/63
f 68/68/68 66/66/66 63/63/63
f 67/67/67 68/68/68 63/63/63
f 68/68/68 69/69/69 66/66/66
f 70/70/70 66/66/66 69/69/69
f 70/70/70 69/69/69 71/71/71
f 72/72/72 68/68/68 67/67/67
f 68/68/68 72/72/72 69/69/69
f 72/72/72 67/67/67 73/73/73
f 74/74/74 73/73/73 67/67/67
f 73/73/73 75/75/75 72/72/72
f 76/76/76 72/72/72 75/75/75
f 76/76/76 69/69/69 72/72/72
f 75/75/75 77/77/77 76/76/76
f 78/78/78 71/71/71 69/69/69
f 69/69/69 76/76/76 78/78/78
f 78/78/78 79/79/79 71/71/71
f 80/80/80 71/71/71 79/79/79
f 80/80/80 79/79/79 81/81/81
f 82/82/82 81/81/81 79/79/79
f 82/82/82 79/79/79 83/83/83
f 84/84/84 83/83/83 79/79/79
f 84/84/84 79/79/79 85/85/85
f 86/86/86 77/77/77 85/85/85
f 86/86/86 76/76/76 77/77/77
f 86/86/86 78/78/78 76/76/76
f 78/78/78 86/86/86 79/79/79
f 79/79/79 86/86/86 85/85/85
f 89/89/89 88/88/88 87/87/87
f 88/88/88 90/90/90 87/87/87
f 87/87/87 90/90/90 91/91/91
f 91/91/91 90/90/90 92/92/92
f 92/92/92 93/93/93 91/91/91
f 94/94/94 87/87/87 91/91/91
f 87/87/87 94/94/94 95/95/95
f 96/96/96 95/95/95 94/94/94
f 91/91/91 93/93/93 97/97/97
f 93/93/93 98/98/98 97/97/97
f 91/91/91 99/99/99 94/94/94
f 99/99/99 91/91/91 97/97/97
f 94/94/94 100/100/100 96/96/96
f 100/100/100 94/94/94 99/99/99
f 101/101/101 96/96/96 100/100/100
f 102/102/102 97/97/97 98/98/98
f 102/102/102 98/98/98 103/103/103
f 103/103/103 104/104/104 102/102/102
f 102/102/102 104/104/104 105/105/105
f 106/106/106 102/102/102 105/105/105
f 106/106/106 107/107/107 102/102/102
f 97/97/97 102/102/102 107/107/107
f 107/107/107 108/108/108 97/97/97
f 99/99/99 97/97/97 108/108/108
f 99/99/99 108/108/108 100/100/100
f 109/109/109 100/100/100 108/108/108
f 109/109/109 110/110/110 100/100/100
f 110/110/110 101/101/101 100/100/100
f 111/111/111 101/101/101 110/110/110
f 110/110/110 112/112/112 111/111/111
f 115/115/115 114/114/114 113/113/113
f 113/113/113 114/114/114 116/116/116
f 117/117/117 113/113/113 116/116/116
f 113/113/113 117/117/117 118/118/118
f 121/121/121 120/120/120 119/119/119
f 122/122/122 119/119/119 120/120/120
f 119/119/119 122/122/122 123/123/123
f 124/124/124 123/123/123 122/122/122
f 123/123/123 124/124/124 125/125/125
f 126/126/126 125/125/125 124/124/124
f 129/129/129 128/128/128 127/127/127
f 130/130/130 127/127/127 128/128/128
f 127/127/127 130/130/130 131/131/131
f 132/132/132 131/131/131 130/130/130
f 131/131/131 132/132/132 133/133/133
f 134/134/134 133/133/133 132/132/132
f 133/133/133 134/134/134 135/135/135
f 136/136/136 135/135/135 134/134/134
f 135/135/135 136/136/136 137/137/137
f 138/138/138 137/137/137 136/136/136
f 137/137/137 138/138/138 139/139/139
f 140/140/140 139/139/139 138/138/138
f 139/139/139 140/140/140 141/141/141
f 142/142/142 141/141/141 140/140/140
f 141/141/141 142/142/142 143/143/143
f 144/144/144 143/143/143 142/142/142
f 143/143/143 144/144/144 145/145/145
f 146/146/146 145/145/145 144/144/144
f 149/149/149 148/148/148 147/147/147
f 150/150/150 147/147/147 148/148/148
f 147/147/147 150/150/150 151/151/151
f 152/152/152 151/151/151 150/150/150
f 151/151/151 152/152/152 153/153/153
f 154/154/154 153/153/153 152/152/152
f 153/153/153 154/154/154 155/155/155
f 156/156/156 155/155/155 154/154/154
f 155/155/155 156/156/156 157/157/157
f 158/158/158 157/157/157 156/156/156
f 157/157/157 158/158/158 159/159/159
f 160/160/160 159/159/159 158/158/158
f 163/163/163 162/162/162 161/161/161
f 164/164/164 161/161/161 162/162/162
f 161/161/161 164/164/164 165/165/165
f 166/166/166 165/165/165 164/164/164
f 169/169/169 168/168/168 167/167/167
f 170/170/170 167/167/167 168/168/168
f 167/167/167 170/170/170 171/171/171
f 172/172/172 171/171/171 170/170/170
f 175/175/175 174/174/174 173/173/173
f 176/176/176 173/173/173 174/174/174
f 179/179/179 178/178/178 177/177/177
f 180/180/180 177/177/177 178/178/178
f 177/177/177 180/180/180 181/181/181
f 182/182/182 181/181/181 180/180/180
f 181/181/181 182/182/182 183/183/183
f 184/184/184 183/183/183 182/182/182
f 183/183/183 184/184/184 185/185/185
f 186/186/186 185/185/185 184/184/184
