g Ball_gb_001_Explode_Thin_10_Hull
v 0.1782887 -0.2079032 -0.07242507
v -0.0396059 0.1508109 -0.2402622
v -0.1422554 0.2129677 -0.06313665
v -0.07275228 0.03044267 0.2299301
v 0.1782887 -0.2079032 -0.07242507
v -0.1422554 0.2129677 -0.06313665
v 0.1546794 -0.2082855 0.05604736
v 0.1782887 -0.2079032 -0.07242507
v -0.07275228 0.03044267 0.2299301
v 0.04602335 0.05076048 0.1007583
v -0.08015306 0.1248712 0.1502774
v -0.02976976 0.1409101 0.063417
v -0.1162417 0.2060175 0.007243249
v -0.02976976 0.1725664 -0.09573021
v -0.02976976 0.1409101 0.063417
v -0.1162417 0.2060175 0.007243249
v -0.02976976 0.1409101 0.063417
v -0.08015306 0.1248712 0.1502774
v -0.1162417 0.2183819 -0.09983883
v -0.02976976 0.1725664 -0.09573021
v -0.1162417 0.2060175 0.007243249
v -0.1162417 0.2183819 -0.09983883
v -0.1422554 0.2129677 -0.06313665
v -0.0396059 0.1508109 -0.2402622
v -0.1162417 0.2183819 -0.09983883
v -0.0396059 0.1508109 -0.2402622
v -0.02976976 0.1725664 -0.09573021
v 0.1829076 -0.2216007 -0.0008370554
v 0.1782887 -0.2079032 -0.07242507
v 0.1546794 -0.2082855 0.05604736
v 0.04602335 0.1035687 -0.1647277
v -0.02976976 0.1725664 -0.09573021
v -0.0396059 0.1508109 -0.2402622
v 0.04602335 0.1035687 -0.1647277
v 0.1082253 0.01445199 -0.1986639
v 0.1082253 0.02923201 -0.04151906
v 0.1544455 -0.1855868 0.08581554
v 0.1544455 -0.08415805 0.01060865
v 0.1829076 -0.2216007 -0.0008370554
v 0.1544455 -0.1855868 0.08581554
v 0.1546794 -0.2082855 0.05604736
v 0.1082253 -0.1222102 0.1531071
v 0.1544455 -0.1855868 0.08581554
v 0.1829076 -0.2216007 -0.0008370554
v 0.1546794 -0.2082855 0.05604736
v 0.04602335 0.1035689 -0.02673261
v 0.04602335 0.1035687 -0.1647277
v 0.1082253 0.02923201 -0.04151906
v 0.04602335 0.1035689 -0.02673261
v -0.02976976 0.1725664 -0.09573021
v 0.04602335 0.1035687 -0.1647277
v 0.04602335 0.1035689 -0.02673261
v 0.04602335 0.05076048 0.1007583
v -0.02976976 0.1409101 0.063417
v 0.04602335 0.1035689 -0.02673261
v 0.1082253 0.02923201 -0.04151906
v 0.04602335 0.05076048 0.1007583
v 0.04602335 0.1035689 -0.02673261
v -0.02976976 0.1409101 0.063417
v -0.02976976 0.1725664 -0.09573021
v 0.0460235 -0.04681669 0.1983355
v -0.02976976 -0.0003133899 0.2402508
v 0.04602335 0.05076048 0.1007583
v 0.04602335 0.08511995 -0.2255453
v 0.04602335 0.1035687 -0.1647277
v -0.0396059 0.1508109 -0.2402622
v 0.04602335 0.08511995 -0.2255453
v 0.1082253 0.01445199 -0.1986639
v 0.04602335 0.1035687 -0.1647277
v 0.1544455 -0.05190054 -0.09573001
v 0.1544455 -0.08415805 0.01060865
v 0.1082253 0.02923201 -0.04151906
v 0.1544455 -0.05190054 -0.09573001
v 0.1829076 -0.1473406 -0.1121033
v 0.1544455 -0.08415805 0.01060865
v 0.1544455 -0.05190054 -0.09573001
v 0.1082253 0.02923201 -0.04151906
v 0.1082253 0.01445199 -0.1986639
v -0.06985296 0.06591026 0.2134852
v 0.04602335 0.05076048 0.1007583
v -0.02976976 -0.0003133899 0.2402508
v -0.06985296 0.06591026 0.2134852
v -0.08015306 0.1248712 0.1502774
v 0.04602335 0.05076048 0.1007583
v 0.1082253 -0.04681669 0.1007584
v 0.0460235 -0.04681669 0.1983355
v 0.04602335 0.05076048 0.1007583
v 0.1082253 -0.04681669 0.1007584
v 0.1082253 -0.1222102 0.1531071
v 0.0460235 -0.04681669 0.1983355
v 0.1082253 -0.04681669 0.1007584
v 0.04602335 0.05076048 0.1007583
v 0.1082253 0.02923201 -0.04151906
v 0.1082253 -0.04681669 0.1007584
v 0.1082253 0.02923201 -0.04151906
v 0.1544455 -0.08415805 0.01060865
v 0.0460235 -0.06166823 0.2062738
v 0.0460235 -0.04681669 0.1983355
v 0.1082253 -0.1222102 0.1531071
v 0.0460235 -0.06166823 0.2062738
v -0.02976976 -0.0003133899 0.2402508
v 0.0460235 -0.04681669 0.1983355
v 0.1544455 -0.06388858 -0.1604662
v 0.1544455 -0.05190054 -0.09573001
v 0.1082253 0.01445199 -0.1986639
v 0.1544455 -0.06388858 -0.1604662
v 0.1829076 -0.1473406 -0.1121033
v 0.1544455 -0.05190054 -0.09573001
v 0.1544455 -0.06388858 -0.1604662
v 0.1782887 -0.2079032 -0.07242507
v 0.1829076 -0.1473406 -0.1121033
v 0.1882434 -0.2070346 -0.07195964
v 0.1829076 -0.1473406 -0.1121033
v 0.1782887 -0.2079032 -0.07242507
v 0.1882434 -0.2070346 -0.07195964
v 0.1782887 -0.2079032 -0.07242507
v 0.1829076 -0.2216007 -0.0008370554
v -0.1393644 0.222498 -0.06219801
v -0.1162417 0.2183819 -0.09983883
v -0.1162417 0.2060175 0.007243249
v -0.1393644 0.222498 -0.06219801
v -0.1422554 0.2129677 -0.06313665
v -0.1162417 0.2183819 -0.09983883
v -0.02464168 -0.01861265 0.2331422
v -0.02976976 -0.0003133899 0.2402508
v 0.0460235 -0.06166823 0.2062738
v -0.02464168 -0.01861265 0.2331422
v 0.1546794 -0.2082855 0.05604736
v -0.07275228 0.03044267 0.2299301
v -0.06805472 0.03604541 0.2367571
v -0.02464168 -0.01861265 0.2331422
v -0.07275228 0.03044267 0.2299301
v -0.06805472 0.03604541 0.2367571
v -0.02976976 -0.0003133899 0.2402508
v -0.02464168 -0.01861265 0.2331422
v -0.06805472 0.03604541 0.2367571
v -0.06985296 0.06591026 0.2134852
v -0.02976976 -0.0003133899 0.2402508
v -0.06805472 0.03604541 0.2367571
v -0.07275228 0.03044267 0.2299301
v -0.06985296 0.06591026 0.2134852
v -0.07275228 0.03044267 0.2299301
v -0.08015306 0.1248712 0.1502774
v -0.1162417 0.2060175 0.007243249
v -0.1422554 0.2129677 -0.06313665
v -0.1393644 0.222498 -0.06219801
v 0.1829076 -0.2216007 -0.0008370554
v 0.1544455 -0.08415805 0.01060865
v 0.1829076 -0.1473406 -0.1121033
v 0.1882434 -0.2070346 -0.07195964
v 0.04602335 0.08511995 -0.2255453
v -0.0396059 0.1508109 -0.2402622
v 0.1782887 -0.2079032 -0.07242507
v 0.1082253 0.01445199 -0.1986639
v 0.1544455 -0.06388858 -0.1604662
v 0.1082253 -0.04681669 0.1007584
v 0.1544455 -0.1855868 0.08581554
v 0.1082253 -0.1222102 0.1531071
v 0.1544455 -0.08415805 0.01060865
v -0.02464168 -0.01861265 0.2331422
v 0.1082253 -0.1222102 0.1531071
v 0.1546794 -0.2082855 0.05604736
v 0.0460235 -0.06166823 0.2062738
vn -0.7741545 -0.5842357 -0.2436255
vn -0.7741545 -0.5842357 -0.2436255
vn -0.7741545 -0.5842357 -0.2436255
vn -0.7839893 -0.5930545 -0.1834313
vn -0.7839893 -0.5930545 -0.1834313
vn -0.7839893 -0.5930545 -0.1834313
vn -0.7664573 -0.6262393 -0.1427151
vn -0.7664573 -0.6262393 -0.1427151
vn -0.7664573 -0.6262393 -0.1427151
vn 0.5769575 0.6753525 0.4593681
vn 0.5769575 0.6753525 0.4593681
vn 0.5769575 0.6753525 0.4593681
vn 0.5218342 0.836656 0.1664209
vn 0.5218342 0.836656 0.1664209
vn 0.5218342 0.836656 0.1664209
vn 0.3864807 0.8406458 0.3794039
vn 0.3864807 0.8406458 0.3794038
vn 0.3864807 0.8406458 0.3794038
vn 0.4619692 0.8810422 0.1017303
vn 0.4619692 0.8810422 0.1017303
vn 0.4619692 0.8810422 0.1017303
vn -0.8119508 0.2105436 -0.544433
vn -0.8119508 0.2105436 -0.544433
vn -0.8119508 0.2105436 -0.544433
vn 0.4679673 0.8686584 -0.1626013
vn 0.4679673 0.8686584 -0.1626012
vn 0.4679673 0.8686584 -0.1626012
vn -0.600543 -0.7916079 -0.1127173
vn -0.600543 -0.7916079 -0.1127173
vn -0.6005429 -0.7916079 -0.1127173
vn 0.5811098 0.7980087 -0.1596667
vn 0.5811099 0.7980087 -0.1596667
vn 0.5811099 0.7980087 -0.1596668
vn 0.8088003 0.5854993 -0.05506825
vn 0.8088005 0.5854993 -0.05506826
vn 0.8088005 0.5854993 -0.05506827
vn 0.9544588 0.1776954 0.2396513
vn 0.9544587 0.1776954 0.2396513
vn 0.9544588 0.1776954 0.2396512
vn -0.2057038 -0.7789706 0.5923604
vn -0.2057038 -0.7789706 0.5923604
vn -0.2057037 -0.7789706 0.5923604
vn 0.6506866 -0.6013563 0.4636566
vn 0.6506866 -0.6013563 0.4636566
vn 0.6506866 -0.6013564 0.4636567
vn 0.766928 0.6417331 -8.841142E-07
vn 0.7669281 0.6417331 -8.841142E-07
vn 0.7669281 0.6417331 -8.841142E-07
vn 0.6731787 0.7394798 -1.022099E-06
vn 0.6731787 0.73948 -1.022099E-06
vn 0.6731787 0.7394798 -1.022099E-06
vn 0.6731786 0.6831905 0.2829867
vn 0.6731784 0.6831905 0.2829867
vn 0.6731784 0.6831905 0.2829867
vn 0.766928 0.5928841 0.2455806
vn 0.7669281 0.5928841 0.2455806
vn 0.766928 0.5928841 0.2455806
vn 0.5817571 0.7977342 0.1586789
vn 0.5817571 0.7977342 0.1586789
vn 0.5817571 0.7977342 0.1586789
vn 0.6363343 0.5454724 0.545471
vn 0.6363343 0.5454724 0.5454709
vn 0.6363343 0.5454724 0.545471
vn 0.6169932 0.7530819 -0.2284446
vn 0.6169932 0.7530819 -0.2284446
vn 0.6169932 0.7530819 -0.2284446
vn 0.7715056 0.6088272 -0.1846855
vn 0.7715055 0.6088272 -0.1846855
vn 0.7715055 0.6088272 -0.1846855
vn 0.8962154 0.4245171 0.128776
vn 0.8962154 0.4245171 0.128776
vn 0.8962154 0.4245171 0.128776
vn 0.9588173 0.2717936 0.08244774
vn 0.9588173 0.2717936 0.08244776
vn 0.9588173 0.2717936 0.08244776
vn 0.8534864 0.5188254 -0.04879734
vn 0.8534864 0.5188255 -0.04879734
vn 0.8534864 0.5188255 -0.04879734
vn 0.6037481 0.5845156 0.5420607
vn 0.6037481 0.5845156 0.5420607
vn 0.6037481 0.5845156 0.5420607
vn 0.575811 0.6425472 0.5055439
vn 0.575811 0.6425472 0.5055439
vn 0.575811 0.6425472 0.5055439
vn 0.7427361 0.4734683 0.4734667
vn 0.7427361 0.4734684 0.4734667
vn 0.7427361 0.4734684 0.4734668
vn 0.7900097 0.3496706 0.503602
vn 0.7900097 0.3496706 0.503602
vn 0.7900097 0.3496706 0.503602
vn 0.8104518 0.5166345 0.2761463
vn 0.8104518 0.5166345 0.2761463
vn 0.8104517 0.5166345 0.2761463
vn 0.8526522 0.4607855 0.2462945
vn 0.8526522 0.4607855 0.2462945
vn 0.8526522 0.4607855 0.2462944
vn 0.771506 0.2999127 0.561098
vn 0.771506 0.2999128 0.561098
vn 0.771506 0.2999128 0.561098
vn 0.6135327 0.3722473 0.6964263
vn 0.6135327 0.3722473 0.6964263
vn 0.6135327 0.3722473 0.6964263
vn 0.8760936 0.4740808 -0.0877917
vn 0.8760936 0.4740808 -0.0877917
vn 0.8760936 0.4740808 -0.0877917
vn 0.9542784 0.293922 -0.05442934
vn 0.9542784 0.293922 -0.05442934
vn 0.9542784 0.293922 -0.05442934
vn -0.1508051 -0.5336791 -0.8321325
vn -0.1508051 -0.5336791 -0.8321325
vn -0.1508051 -0.5336791 -0.8321325
vn 0.08685989 -0.5505745 -0.8302548
vn 0.08685989 -0.5505745 -0.8302548
vn 0.08685989 -0.5505745 -0.8302548
vn 0.09424249 -0.9766714 -0.1929544
vn 0.09424249 -0.9766714 -0.1929544
vn 0.0942425 -0.9766714 -0.1929544
vn 0.3416824 0.9336125 0.1078004
vn 0.3416823 0.9336125 0.1078004
vn 0.3416823 0.9336125 0.1078004
vn -0.7996987 0.2941357 -0.5234178
vn -0.7996987 0.2941357 -0.5234178
vn -0.7996987 0.2941357 -0.5234178
vn 0.1617178 -0.317633 0.9343215
vn 0.1617178 -0.317633 0.9343215
vn 0.1617178 -0.317633 0.9343215
vn -0.7145466 -0.6991317 0.02525787
vn -0.7145466 -0.6991317 0.02525787
vn -0.7145466 -0.6991318 0.02525787
vn -0.5132678 -0.4557667 0.7272089
vn -0.5132678 -0.4557668 0.7272089
vn -0.5132678 -0.4557667 0.7272089
vn -0.4793117 -0.4312552 0.7643816
vn -0.4793117 -0.4312552 0.7643816
vn -0.4793117 -0.4312552 0.7643816
vn 0.469626 0.5600827 0.6824651
vn 0.469626 0.5600828 0.6824652
vn 0.469626 0.5600828 0.6824653
vn -0.8816026 0.2559428 0.3965731
vn -0.8816026 0.2559428 0.3965731
vn -0.8928167 0.2474786 0.376341
vn -0.9055142 0.2288755 0.3572957
vn -0.9033764 0.2329307 0.3600754
vn -0.9055142 0.2288754 0.3572957
vn -0.9055142 0.2288755 0.3572957
vn -0.9029593 0.2387148 0.3573231
vn 0.9732943 0.1909408 0.1274355
vn 0.9732943 0.1909408 0.1274355
vn 0.9732943 0.1909408 0.1274355
vn 0.9815177 0.1591761 0.1062355
vn -0.2781681 -0.5404871 -0.794038
vn -0.2781681 -0.5404871 -0.794038
vn -0.2781681 -0.5404871 -0.794038
vn -0.2652811 -0.5378854 -0.8001907
vn -0.2364865 -0.5349956 -0.8110819
vn 0.8924263 0.2573324 0.3706149
vn 0.8924263 0.2573325 0.3706149
vn 0.8924263 0.2573324 0.3706149
vn 0.8985941 0.2613415 0.3524618
vn -0.2693811 -0.7808961 0.5635912
vn -0.2693811 -0.7808961 0.5635912
vn -0.2693811 -0.7808961 0.5635912
vn -0.2443598 -0.7693735 0.5902143
g Ball_gb_001_Explode_Thin_10_Hull_0
f 3/3/3 2/2/2 1/1/1
f 6/6/6 5/5/5 4/4/4
f 9/9/9 8/8/8 7/7/7
f 12/12/12 11/11/11 10/10/10
f 15/15/15 14/14/14 13/13/13
f 18/18/18 17/17/17 16/16/16
f 21/21/21 20/20/20 19/19/19
f 24/24/24 23/23/23 22/22/22
f 27/27/27 26/26/26 25/25/25
f 30/30/30 29/29/29 28/28/28
f 33/33/33 32/32/32 31/31/31
f 36/36/36 35/35/35 34/34/34
f 39/39/39 38/38/38 37/37/37
f 42/42/42 41/41/41 40/40/40
f 45/45/45 44/44/44 43/43/43
f 48/48/48 47/47/47 46/46/46
f 51/51/51 50/50/50 49/49/49
f 54/54/54 53/53/53 52/52/52
f 57/57/57 56/56/56 55/55/55
f 60/60/60 59/59/59 58/58/58
f 63/63/63 62/62/62 61/61/61
f 66/66/66 65/65/65 64/64/64
f 69/69/69 68/68/68 67/67/67
f 72/72/72 71/71/71 70/70/70
f 75/75/75 74/74/74 73/73/73
f 78/78/78 77/77/77 76/76/76
f 81/81/81 80/80/80 79/79/79
f 84/84/84 83/83/83 82/82/82
f 87/87/87 86/86/86 85/85/85
f 90/90/90 89/89/89 88/88/88
f 93/93/93 92/92/92 91/91/91
f 96/96/96 95/95/95 94/94/94
f 99/99/99 98/98/98 97/97/97
f 102/102/102 101/101/101 100/100/100
f 105/105/105 104/104/104 103/103/103
f 108/108/108 107/107/107 106/106/106
f 111/111/111 110/110/110 109/109/109
f 114/114/114 113/113/113 112/112/112
f 117/117/117 116/116/116 115/115/115
f 120/120/120 119/119/119 118/118/118
f 123/123/123 122/122/122 121/121/121
f 126/126/126 125/125/125 124/124/124
f 129/129/129 128/128/128 127/127/127
f 132/132/132 131/131/131 130/130/130
f 135/135/135 134/134/134 133/133/133
f 138/138/138 137/137/137 136/136/136
f 141/141/141 140/140/140 139/139/139
f 143/143/143 142/142/142 141/141/141
f 142/142/142 143/143/143 144/144/144
f 145/145/145 142/142/142 144/144/144
f 145/145/145 144/144/144 146/146/146
f 149/149/149 148/148/148 147/147/147
f 149/149/149 147/147/147 150/150/150
f 153/153/153 152/152/152 151/151/151
f 154/154/154 153/153/153 151/151/151
f 153/153/153 154/154/154 155/155/155
f 158/158/158 157/157/157 156/156/156
f 157/157/157 159/159/159 156/156/156
f 162/162/162 161/161/161 160/160/160
f 161/161/161 163/163/163 160/160/160
