g Ball_Uv_01_Explode_Thin_17_Hull
v 0.04985047 0.1994995 0.03583651
v 0.2558815 0.2118902 -0.1207992
v 0.2518887 0.2144072 -0.1997974
v 0.2584543 0.2215197 -0.1199267
v 0.2562885 0.2264841 -0.1683313
v 0.254448 0.2240402 -0.200671
v 0.2584543 0.2215197 -0.1199267
v 0.2558815 0.2118902 -0.1207992
v 0.2219313 0.2237766 -0.05885505
v 0.2048671 0.2267548 -0.2013934
v 0.04985047 0.1994995 0.03583651
v 0.2518887 0.2144072 -0.1997974
v 0.2193749 0.2144472 -0.0614115
v 0.2219313 0.2237766 -0.05885505
v 0.2558815 0.2118902 -0.1207992
v 0.2193749 0.2144472 -0.0614115
v 0.2558815 0.2118902 -0.1207992
v 0.04985047 0.1994995 0.03583651
v 0.1914943 0.2347601 -0.06850121
v 0.1450783 0.2386928 -0.06776778
v 0.1928697 0.2421349 -0.1555437
v 0.06390272 0.2151885 0.02936135
v 0.09166411 0.2216405 0.01459017
v 0.04896517 0.2084674 0.04018391
v 0.06390272 0.2151885 0.02936135
v 0.09166411 0.2250799 0.001597366
v 0.09166411 0.2216405 0.01459017
v 0.2284621 0.2249931 -0.06982538
v 0.2584543 0.2215197 -0.1199267
v 0.2219313 0.2237766 -0.05885505
v 0.254448 0.2240402 -0.200671
v 0.2518887 0.2144072 -0.1997974
v 0.2558815 0.2118902 -0.1207992
v 0.2584543 0.2215197 -0.1199267
v 0.254448 0.2240402 -0.200671
v 0.2562885 0.2264841 -0.1683313
v 0.2074206 0.2363902 -0.2022581
v 0.1985754 0.2417615 -0.1683313
v 0.04985047 0.1994995 0.03583651
v 0.04896517 0.2084674 0.04018391
v 0.2219313 0.2237766 -0.05885505
v 0.2193749 0.2144472 -0.0614115
v 0.2048671 0.2267548 -0.2013934
v 0.2074206 0.2363902 -0.2022581
v 0.04896517 0.2084674 0.04018391
v 0.04985047 0.1994995 0.03583651
v 0.2048671 0.2267548 -0.2013934
v 0.254448 0.2240402 -0.200671
v 0.2074206 0.2363902 -0.2022581
v 0.2518887 0.2144072 -0.1997974
v 0.09166411 0.2216405 0.01459017
v 0.2219313 0.2237766 -0.05885505
v 0.04896517 0.2084674 0.04018391
v 0.190534 0.2276767 -0.04169111
v 0.190534 0.2276767 -0.04169111
v 0.1914943 0.2347601 -0.06850121
v 0.2219313 0.2237766 -0.05885505
v 0.2284621 0.2249931 -0.06982538
v 0.190534 0.2276767 -0.04169111
v 0.09166411 0.2216405 0.01459017
v 0.1914943 0.2347601 -0.06850121
v 0.1450783 0.2386928 -0.06776778
v 0.09166411 0.2250799 0.001597366
v 0.1985754 0.2417615 -0.1683313
v 0.1928697 0.2421349 -0.1555437
v 0.2074206 0.2363902 -0.2022581
v 0.1450783 0.2386928 -0.06776778
v 0.04896517 0.2084674 0.04018391
v 0.09166411 0.2250799 0.001597366
v 0.06390272 0.2151885 0.02936135
v 0.1985754 0.2417615 -0.1683313
v 0.2562885 0.2264841 -0.1683313
v 0.1928697 0.2421349 -0.1555437
v 0.1914943 0.2347601 -0.06850121
v 0.2584543 0.2215197 -0.1199267
v 0.2284621 0.2249931 -0.06982538
vn 0.03454751 -0.9988391 -0.03357129
vn 0.03454752 -0.9988391 -0.03357129
vn 0.03454751 -0.9988391 -0.03357129
vn 0.9963476 -0.06806567 -0.0515605
vn 0.9963476 -0.06806567 -0.0515605
vn 0.9963476 -0.06806567 -0.0515605
vn 0.8231074 -0.265397 0.5020545
vn 0.8231074 -0.2653971 0.5020546
vn 0.8231074 -0.265397 0.5020545
vn -0.2367631 -0.9355201 -0.2621936
vn -0.2367631 -0.9355201 -0.2621936
vn -0.2367631 -0.9355201 -0.2621936
vn 0.7899699 -0.3537069 0.5008382
vn 0.7899699 -0.3537069 0.5008382
vn 0.78997 -0.3537069 0.5008382
vn 0.1699162 -0.9745218 0.1464099
vn 0.1699162 -0.9745218 0.1464099
vn 0.1699162 -0.9745218 0.1464099
vn 0.08545584 0.9926704 0.0854562
vn 0.08545585 0.9926704 0.08545619
vn 0.08545584 0.9926704 0.0854562
vn 0.2375249 0.6436284 0.7275469
vn 0.2375248 0.6436284 0.7275469
vn 0.2375249 0.6436284 0.7275469
vn -0.08816959 0.9629388 0.2549015
vn -0.08816959 0.9629388 0.2549015
vn -0.0881696 0.962939 0.2549015
vn 0.858386 0.01580515 0.5127609
vn 0.858386 0.01580515 0.5127609
vn 0.858386 0.01580515 0.5127609
vn 0.9636046 -0.2611784 -0.05702561
vn 0.9636046 -0.2611784 -0.05702562
vn 0.9636046 -0.2611784 -0.05702562
vn 0.9658577 -0.2529885 -0.05582021
vn 0.2557856 0.9627824 -0.08731352
vn 0.2557856 0.9627824 -0.08731352
vn 0.2557856 0.9627824 -0.08731352
vn 0.254951 0.9631208 -0.08601261
vn 0.4896978 -0.3407161 0.8025637
vn 0.4896978 -0.3407161 0.8025637
vn 0.4896979 -0.3407161 0.8025637
vn 0.4888325 -0.3526033 0.7979434
vn -0.8333821 0.1737742 -0.5246685
vn -0.8333821 0.1737742 -0.5246685
vn -0.8333821 0.1737741 -0.5246685
vn -0.8335642 0.1721715 -0.5249073
vn 0.00947873 -0.09186444 -0.9957265
vn 0.009478729 -0.09186442 -0.9957265
vn 0.009478729 -0.09186443 -0.9957265
vn 0.009426381 -0.09279758 -0.9956403
vn 0.4870609 0.1056426 0.8669552
vn 0.4870609 0.1056426 0.8669552
vn 0.4870609 0.1056426 0.8669552
vn 0.4870608 0.1056458 0.8669549
vn 0.2555038 0.9324349 0.2555055
vn 0.2555038 0.9324349 0.2555055
vn 0.2555038 0.9324349 0.2555055
vn 0.2555031 0.9324345 0.2555074
vn 0.08776789 0.9623131 0.2573915
vn 0.08563328 0.9631525 0.2549593
vn 0.08563327 0.9631525 0.2549593
vn 0.08563327 0.9631525 0.2549593
vn 0.08563123 0.963153 0.2549581
vn -0.5503361 0.7905458 -0.2686401
vn -0.550336 0.7905458 -0.2686401
vn -0.5503382 0.7905439 -0.2686411
vn -0.5503383 0.7905439 -0.2686411
vn -0.5503383 0.7905439 -0.2686411
vn -0.5503347 0.7905478 -0.2686369
vn -0.5503386 0.7905431 -0.2686431
vn 0.2549593 0.9631521 0.08563668
vn 0.2572646 0.9623993 0.08719265
vn 0.2549587 0.9631525 0.08563365
vn 0.2572646 0.9623993 0.08719265
vn 0.2572646 0.9623993 0.08719265
vn 0.2573845 0.962352 0.08736091
g Ball_Uv_01_Explode_Thin_17_Hull_0
f 3/3/3 2/2/2 1/1/1
f 6/6/6 5/5/5 4/4/4
f 9/9/9 8/8/8 7/7/7
f 12/12/12 11/11/11 10/10/10
f 15/15/15 14/14/14 13/13/13
f 18/18/18 17/17/17 16/16/16
f 21/21/21 20/20/20 19/19/19
f 24/24/24 23/23/23 22/22/22
f 27/27/27 26/26/26 25/25/25
f 30/30/30 29/29/29 28/28/28
f 33/33/33 32/32/32 31/31/31
f 33/33/33 31/31/31 34/34/34
f 37/37/37 36/36/36 35/35/35
f 36/36/36 37/37/37 38/38/38
f 41/41/41 40/40/40 39/39/39
f 41/41/41 39/39/39 42/42/42
f 45/45/45 44/44/44 43/43/43
f 46/46/46 45/45/45 43/43/43
f 49/49/49 48/48/48 47/47/47
f 48/48/48 50/50/50 47/47/47
f 53/53/53 52/52/52 51/51/51
f 51/51/51 52/52/52 54/54/54
f 57/57/57 56/56/56 55/55/55
f 56/56/56 57/57/57 58/58/58
f 61/61/61 60/60/60 59/59/59
f 62/62/62 60/60/60 61/61/61
f 60/60/60 62/62/62 63/63/63
f 66/66/66 65/65/65 64/64/64
f 66/66/66 67/67/67 65/65/65
f 66/66/66 68/68/68 67/67/67
f 67/67/67 68/68/68 69/69/69
f 69/69/69 68/68/68 70/70/70
f 73/73/73 72/72/72 71/71/71
f 72/72/72 73/73/73 74/74/74
f 75/75/75 72/72/72 74/74/74
f 75/75/75 74/74/74 76/76/76
