g Ball_gb_001_Explode_Thin_12_Hull
v -0.2065009 0.2660648 0.04326877
v 0.09324618 0.1878209 -0.3965427
v -0.02688575 -0.05471507 0.3965328
v 0.02190052 -0.1269985 0.3640867
v -0.02688575 -0.05471507 0.3965328
v 0.09324618 0.1878209 -0.3965427
v -0.005280972 0.01140192 -0.3175187
v -0.08106427 -0.0815114 -0.1827994
v -0.03465088 -0.1084455 -0.2097334
v -0.02697892 -0.1991751 -0.08506139
v -0.08106427 -0.1782903 -0.001738055
v 0.02354752 -0.2626877 0.06724971
v -0.02697892 -0.1991751 -0.08506139
v -0.03465088 -0.1084455 -0.2097334
v -0.08106427 -0.0815114 -0.1827994
v -0.143258 0.06221338 -0.1894409
v -0.08106427 0.09954954 -0.2795787
v -0.143258 0.2418907 -0.1994432
v -0.005280972 0.208627 -0.344619
v -0.005280972 0.01140192 -0.3175187
v 0.09324618 0.1878209 -0.3965427
v -0.005280972 0.208627 -0.344619
v -0.08106427 0.09954954 -0.2795787
v -0.005280972 0.01140192 -0.3175187
v -0.005280972 0.208627 -0.344619
v -0.143258 0.2418907 -0.1994432
v -0.08106427 0.09954954 -0.2795787
v -0.2212851 0.180928 0.1295356
v -0.2179306 0.1685385 -0.03031461
v -0.2065009 0.2660648 0.04326877
v -0.1894721 0.2558088 -0.1020614
v -0.2065009 0.2660648 0.04326877
v -0.2179306 0.1685385 -0.03031461
v 0.0458684 -0.26006 0.09948207
v 0.02190052 -0.1269985 0.3640867
v 0.09324618 0.1878209 -0.3965427
v 0.0458684 -0.26006 0.09948207
v 0.02354752 -0.2626877 0.06724971
v 0.02939502 -0.2574674 0.1519876
v -0.2179306 0.07840084 0.104586
v -0.2212851 0.180928 0.1295356
v -0.1894722 0.07982393 0.2357889
v -0.2179306 0.07840084 0.104586
v -0.2179306 0.1685385 -0.03031461
v -0.2212851 0.180928 0.1295356
v 0.01365352 -0.1856159 0.3038881
v 0.02939502 -0.2574674 0.1519876
v -0.005280895 -0.2156265 0.226376
v 0.01365352 -0.1856159 0.3038881
v -0.02688575 -0.05471507 0.3965328
v 0.02190052 -0.1269985 0.3640867
v -0.143258 0.02110164 0.3019657
v -0.143258 -0.02792408 0.2637124
v -0.1894722 0.07982393 0.2357889
v -0.08106427 -0.1782901 0.1362382
v 0.02354752 -0.2626877 0.06724971
v -0.08106427 -0.1782903 -0.001738055
v -0.08106427 -0.1782901 0.1362382
v 0.02939502 -0.2574674 0.1519876
v 0.02354752 -0.2626877 0.06724971
v -0.08106427 -0.1782901 0.1362382
v -0.005280895 -0.2156265 0.226376
v 0.02939502 -0.2574674 0.1519876
v -0.08106427 -0.1254886 0.2637124
v -0.08106427 -0.1782901 0.1362382
v -0.1432581 -0.08815231 0.1735746
v -0.08106427 -0.1254886 0.2637124
v -0.005280895 -0.2156265 0.226376
v -0.08106427 -0.1782901 0.1362382
v -0.08106427 -0.1254886 0.2637124
v 0.01365352 -0.1856159 0.3038881
v -0.005280895 -0.2156265 0.226376
v -0.08106427 -0.1254886 0.2637124
v -0.02688575 -0.05471507 0.3965328
v 0.01365352 -0.1856159 0.3038881
v -0.08106427 -0.1254886 0.2637124
v -0.1432581 -0.08815231 0.1735746
v -0.143258 -0.02792408 0.2637124
v -0.1432581 -0.1093016 0.06724974
v -0.08106427 -0.1782901 0.1362382
v -0.08106427 -0.1782903 -0.001738055
v -0.1432581 -0.1093016 0.06724974
v -0.1432581 -0.08815231 0.1735746
v -0.08106427 -0.1782901 0.1362382
v -0.1432581 -0.06247733 -0.08710951
v -0.1432581 -0.1093016 0.06724974
v -0.08106427 -0.1782903 -0.001738055
v -0.1432581 -0.06247733 -0.08710951
v -0.1894722 -0.008273184 -0.005987677
v -0.1432581 -0.1093016 0.06724974
v -0.1432581 -0.06247733 -0.08710951
v -0.08106427 -0.0815114 -0.1827994
v -0.143258 0.06221338 -0.1894409
v -0.1894722 0.06221358 -0.09187637
v -0.1432581 -0.06247733 -0.08710951
v -0.143258 0.06221338 -0.1894409
v -0.1894722 0.06221358 -0.09187637
v -0.1894722 -0.008273184 -0.005987677
v -0.1432581 -0.06247733 -0.08710951
v -0.005280972 0.01140192 -0.3175187
v -0.08106427 0.09954954 -0.2795787
v -0.08106427 -0.0815114 -0.1827994
v -0.143258 0.06221338 -0.1894409
v -0.005280972 0.01140192 -0.3175187
v -0.03465088 -0.1084455 -0.2097334
v 0.09324618 0.1878209 -0.3965427
v 0.02354752 -0.2626877 0.06724971
v -0.02697892 -0.1991751 -0.08506139
v 0.0458684 -0.26006 0.09948207
v -0.005280972 0.208627 -0.344619
v 0.09324618 0.1878209 -0.3965427
v -0.143258 0.2418907 -0.1994432
v -0.1894721 0.2558088 -0.1020614
v -0.2065009 0.2660648 0.04326877
v -0.2212851 0.180928 0.1295356
v -0.2065009 0.2660648 0.04326877
v -0.02688575 -0.05471507 0.3965328
v -0.1894722 0.07982393 0.2357889
v -0.143258 0.02110164 0.3019657
v -0.143258 -0.02792408 0.2637124
v -0.1432581 -0.08815231 0.1735746
v -0.1894722 0.07982393 0.2357889
v -0.2179306 0.07840084 0.104586
v -0.2179306 0.07840084 0.104586
v -0.1894722 -0.008273184 -0.005987677
v -0.2179306 0.1685385 -0.03031461
v -0.1894722 0.06221358 -0.09187637
v 0.01365352 -0.1856159 0.3038881
v 0.0458684 -0.26006 0.09948207
v 0.02939502 -0.2574674 0.1519876
v 0.02190052 -0.1269985 0.3640867
v -0.143258 0.02110164 0.3019657
v -0.02688575 -0.05471507 0.3965328
v -0.143258 -0.02792408 0.2637124
v -0.08106427 -0.1254886 0.2637124
v -0.1432581 -0.1093016 0.06724974
v -0.2179306 0.07840084 0.104586
v -0.1432581 -0.08815231 0.1735746
v -0.1894722 -0.008273184 -0.005987677
v -0.1432581 -0.06247733 -0.08710951
v -0.02697892 -0.1991751 -0.08506139
v -0.08106427 -0.0815114 -0.1827994
v -0.08106427 -0.1782903 -0.001738055
v -0.1894722 0.06221358 -0.09187637
v -0.1894721 0.2558088 -0.1020614
v -0.2179306 0.1685385 -0.03031461
v -0.143258 0.2418907 -0.1994432
v -0.143258 0.06221338 -0.1894409
vn 0.6405073 0.701866 0.311664
vn 0.6405072 0.7018661 0.311664
vn 0.6405073 0.7018661 0.311664
vn 0.8500755 0.453666 0.2675048
vn 0.8500755 0.453666 0.2675048
vn 0.8500755 0.453666 0.2675048
vn -0.6267433 -0.430531 -0.649489
vn -0.6267433 -0.430531 -0.649489
vn -0.6267434 -0.430531 -0.649489
vn -0.5557994 -0.8165273 -0.1561095
vn -0.5557994 -0.8165273 -0.1561095
vn -0.5557994 -0.8165273 -0.1561095
vn -0.6270243 -0.6477155 -0.4327877
vn -0.6270243 -0.6477155 -0.4327877
vn -0.6270244 -0.6477155 -0.4327877
vn -0.8163978 -0.03209811 -0.5765973
vn -0.8163978 -0.03209811 -0.5765973
vn -0.8163978 -0.03209811 -0.5765973
vn -0.4824834 -0.1192359 -0.8677514
vn -0.4824834 -0.1192359 -0.8677514
vn -0.4824835 -0.1192359 -0.8677515
vn -0.5475246 -0.1139112 -0.829
vn -0.5475248 -0.1139112 -0.8289999
vn -0.5475247 -0.1139112 -0.8289999
vn -0.7132468 0.08035776 -0.6962913
vn -0.7132468 0.08035777 -0.6962913
vn -0.7132468 0.08035776 -0.6962913
vn -0.9896706 0.139833 -0.03160643
vn -0.9896706 0.139833 -0.03160644
vn -0.9896706 0.139833 -0.03160644
vn -0.969132 0.2104626 -0.1284082
vn -0.969132 0.2104626 -0.1284082
vn -0.969132 0.2104626 -0.1284082
vn 0.9957572 -0.00349555 0.09195343
vn 0.9957572 -0.00349555 0.09195343
vn 0.9957572 -0.00349555 0.09195341
vn 0.03187225 -0.9977332 0.05926668
vn 0.03187224 -0.9977332 0.05926667
vn 0.03187224 -0.9977332 0.05926667
vn -0.9736767 -0.08347019 0.2120996
vn -0.9736767 -0.0834702 0.2120996
vn -0.9736767 -0.0834702 0.2120996
vn -0.9994276 -0.02812593 -0.01879312
vn -0.9994276 -0.02812593 -0.01879312
vn -0.9994276 -0.02812593 -0.01879312
vn -0.2197211 -0.8904855 0.3984449
vn -0.2197211 -0.8904855 0.3984449
vn -0.2197211 -0.8904855 0.3984449
vn -0.4611689 -0.6033127 0.6506436
vn -0.4611689 -0.6033126 0.6506436
vn -0.4611688 -0.6033126 0.6506436
vn -0.8859836 -0.2852615 0.3655939
vn -0.8859836 -0.2852614 0.3655939
vn -0.8859836 -0.2852615 0.3655939
vn -0.6279021 -0.7782924 1.075891E-06
vn -0.627902 -0.7782924 1.075891E-06
vn -0.627902 -0.7782924 1.075891E-06
vn -0.5886763 -0.8033305 0.09011246
vn -0.5886763 -0.8033305 0.09011245
vn -0.5886763 -0.8033305 0.09011246
vn -0.590015 -0.7895 0.1690329
vn -0.5900149 -0.7895 0.1690329
vn -0.590015 -0.7895 0.1690329
vn -0.742736 -0.6186153 0.2562386
vn -0.742736 -0.6186153 0.2562386
vn -0.7427361 -0.6186153 0.2562386
vn -0.6731778 -0.6831911 0.2829868
vn -0.6731778 -0.6831911 0.2829868
vn -0.6731778 -0.6831911 0.2829868
vn -0.6064426 -0.6803353 0.4115475
vn -0.6064426 -0.6803353 0.4115475
vn -0.6064426 -0.6803352 0.4115475
vn -0.6009523 -0.5773287 0.5527639
vn -0.6009522 -0.5773287 0.5527639
vn -0.6009521 -0.5773287 0.5527639
vn -0.7936049 -0.5058933 0.3380283
vn -0.7936049 -0.5058933 0.3380283
vn -0.7936049 -0.5058934 0.3380283
vn -0.7427366 -0.6695837 9.256153E-07
vn -0.7427366 -0.6695837 9.256153E-07
vn -0.7427366 -0.6695837 9.256153E-07
vn -0.7936045 -0.5967432 0.1186994
vn -0.7936045 -0.5967432 0.1186994
vn -0.7936045 -0.5967431 0.1186994
vn -0.8104518 -0.5605808 -0.17005
vn -0.8104518 -0.5605809 -0.17005
vn -0.8104518 -0.5605808 -0.17005
vn -0.8526526 -0.4999807 -0.1516672
vn -0.8526526 -0.4999807 -0.1516672
vn -0.8526526 -0.4999806 -0.1516672
vn -0.8104524 -0.3716307 -0.4528327
vn -0.8104524 -0.3716307 -0.4528327
vn -0.8104523 -0.3716308 -0.4528327
vn -0.852652 -0.3314576 -0.4038818
vn -0.852652 -0.3314576 -0.4038818
vn -0.852652 -0.3314577 -0.4038818
vn -0.8962157 -0.3429223 -0.281428
vn -0.8962157 -0.3429223 -0.281428
vn -0.8962157 -0.3429223 -0.281428
vn -0.7034838 -0.3350278 -0.626791
vn -0.7034838 -0.3350278 -0.6267909
vn -0.7034838 -0.3350278 -0.6267909
vn -0.7053982 -0.334132 -0.6251153
vn 0.6684424 -0.581201 -0.4641015
vn 0.6684429 -0.581201 -0.4641007
vn 0.6684429 -0.581201 -0.4641007
vn 0.6684429 -0.581201 -0.4641008
vn 0.6684449 -0.5811992 -0.4641002
vn 0.7011453 -0.5612316 -0.439789
vn 0.1779779 0.9824425 -0.05595147
vn 0.1779779 0.9824425 -0.05595148
vn 0.1779779 0.9824425 -0.05595148
vn 0.1866264 0.9812878 -0.04738181
vn 0.1866264 0.9812878 -0.04738181
vn -0.08309416 0.7163749 0.6927498
vn -0.08309414 0.7163749 0.6927497
vn -0.08309415 0.7163749 0.6927497
vn -0.1130522 0.7026755 0.7024716
vn -0.1130526 0.7026752 0.7024717
vn -0.9154143 -0.3346767 0.223625
vn -0.9154143 -0.3346767 0.223625
vn -0.9154143 -0.3346767 0.223625
vn -0.9220943 -0.3290886 0.2035753
vn -0.9780245 -0.1733532 -0.1158308
vn -0.9780245 -0.1733532 -0.1158308
vn -0.9780245 -0.1733532 -0.1158308
vn -0.9735419 -0.1766401 -0.1449642
vn 0.857367 -0.4252361 0.2899931
vn 0.857367 -0.4252361 0.2899931
vn 0.857367 -0.4252361 0.289993
vn 0.8622928 -0.4167611 0.2876828
vn -0.7213166 -0.4260656 0.5460499
vn -0.7213166 -0.4260656 0.5460498
vn -0.7213166 -0.4260656 0.5460499
vn -0.7133335 -0.4547234 0.5332747
vn -0.9212148 -0.3815788 0.07590062
vn -0.9212148 -0.3815788 0.07590063
vn -0.9212148 -0.3815788 0.07590063
vn -0.9233942 -0.3792002 0.05958426
vn -0.7132695 -0.6118506 -0.3418854
vn -0.7132695 -0.6118505 -0.3418854
vn -0.7132695 -0.6118505 -0.3418854
vn -0.7210748 -0.6180592 -0.3131357
vn -0.9205443 -0.02052287 -0.3900988
vn -0.9205443 -0.02052287 -0.3900988
vn -0.9205443 -0.02052287 -0.3900988
vn -0.9034836 -0.02382377 -0.4279603
vn -0.9034836 -0.02382377 -0.4279603
g Ball_gb_001_Explode_Thin_12_Hull_0
f 3/3/3 2/2/2 1/1/1
f 6/6/6 5/5/5 4/4/4
f 9/9/9 8/8/8 7/7/7
f 12/12/12 11/11/11 10/10/10
f 15/15/15 14/14/14 13/13/13
f 18/18/18 17/17/17 16/16/16
f 21/21/21 20/20/20 19/19/19
f 24/24/24 23/23/23 22/22/22
f 27/27/27 26/26/26 25/25/25
f 30/30/30 29/29/29 28/28/28
f 33/33/33 32/32/32 31/31/31
f 36/36/36 35/35/35 34/34/34
f 39/39/39 38/38/38 37/37/37
f 42/42/42 41/41/41 40/40/40
f 45/45/45 44/44/44 43/43/43
f 48/48/48 47/47/47 46/46/46
f 51/51/51 50/50/50 49/49/49
f 54/54/54 53/53/53 52/52/52
f 57/57/57 56/56/56 55/55/55
f 60/60/60 59/59/59 58/58/58
f 63/63/63 62/62/62 61/61/61
f 66/66/66 65/65/65 64/64/64
f 69/69/69 68/68/68 67/67/67
f 72/72/72 71/71/71 70/70/70
f 75/75/75 74/74/74 73/73/73
f 78/78/78 77/77/77 76/76/76
f 81/81/81 80/80/80 79/79/79
f 84/84/84 83/83/83 82/82/82
f 87/87/87 86/86/86 85/85/85
f 90/90/90 89/89/89 88/88/88
f 93/93/93 92/92/92 91/91/91
f 96/96/96 95/95/95 94/94/94
f 99/99/99 98/98/98 97/97/97
f 102/102/102 101/101/101 100/100/100
f 101/101/101 102/102/102 103/103/103
f 106/106/106 105/105/105 104/104/104
f 106/106/106 107/107/107 105/105/105
f 105/105/105 107/107/107 108/108/108
f 107/107/107 106/106/106 109/109/109
f 112/112/112 111/111/111 110/110/110
f 111/111/111 112/112/112 113/113/113
f 114/114/114 111/111/111 113/113/113
f 117/117/117 116/116/116 115/115/115
f 118/118/118 117/117/117 115/115/115
f 117/117/117 118/118/118 119/119/119
f 122/122/122 121/121/121 120/120/120
f 121/121/121 122/122/122 123/123/123
f 126/126/126 125/125/125 124/124/124
f 125/125/125 126/126/126 127/127/127
f 130/130/130 129/129/129 128/128/128
f 129/129/129 131/131/131 128/128/128
f 134/134/134 133/133/133 132/132/132
f 133/133/133 134/134/134 135/135/135
f 138/138/138 137/137/137 136/136/136
f 137/137/137 139/139/139 136/136/136
f 142/142/142 141/141/141 140/140/140
f 141/141/141 143/143/143 140/140/140
f 146/146/146 145/145/145 144/144/144
f 145/145/145 147/147/147 144/144/144
f 147/147/147 148/148/148 144/144/144
