g Ball_Uv_01_Explode_Thin_01_Hull
v 0.1441384 0.2394134 0.03998914
v 0.1447174 0.2392032 0.03898681
v 0.1460572 0.2490682 0.03814238
v 0.1460572 0.2490682 0.03814238
v 0.2177293 0.2292831 0.03013999
v 0.2091847 0.2364652 0.08409701
v 0.1620849 0.2488321 0.0825076
v 0.2066141 0.2268189 0.08496686
v 0.2091847 0.2364652 0.08409701
v 0.2177293 0.2292831 0.03013999
v 0.2151545 0.2196385 0.03101603
v 0.1620849 0.2488321 0.0825076
v 0.2091847 0.2364652 0.08409701
v 0.2066141 0.2268189 0.08496686
v 0.1595223 0.2391826 0.08336566
v 0.2151545 0.2196385 0.03101603
v 0.2177293 0.2292831 0.03013999
v 0.1460572 0.2490682 0.03814238
v 0.1447174 0.2392032 0.03898681
v 0.1595223 0.2391826 0.08336566
v 0.2066141 0.2268189 0.08496686
v 0.2151545 0.2196385 0.03101603
v 0.1441384 0.2394134 0.03998914
v 0.1447174 0.2392032 0.03898681
v 0.1595223 0.2391826 0.08336566
v 0.1460572 0.2490682 0.03814238
v 0.1620849 0.2488321 0.0825076
v 0.1441384 0.2394134 0.03998914
vn -0.8569337 0.07270198 -0.5102736
vn -0.8569336 0.07270198 -0.5102736
vn -0.8569336 0.07270198 -0.5102736
vn 0.2559733 0.9627058 -0.0876087
vn 0.2559733 0.9627058 -0.0876087
vn 0.2559733 0.9627058 -0.0876087
vn 0.2557436 0.9627977 -0.08726805
vn 0.9539865 -0.2377475 0.1827186
vn 0.9539865 -0.2377475 0.1827186
vn 0.9539865 -0.2377475 0.1827186
vn 0.9539117 -0.2380696 0.182689
vn -0.009369448 0.09228297 0.9956887
vn -0.009369448 0.09228294 0.9956887
vn -0.009369448 0.09228297 0.9956887
vn -0.009919031 0.09118195 0.9957848
vn -0.1261219 -0.05629063 -0.9904164
vn -0.1261219 -0.05629063 -0.9904164
vn -0.1261218 -0.05629063 -0.9904164
vn -0.1305322 -0.06694452 -0.9891813
vn -0.2557475 -0.9627619 0.08765192
vn -0.2557475 -0.9627619 0.08765192
vn -0.2557475 -0.9627619 0.08765192
vn -0.2571466 -0.962531 0.08607879
vn -0.2619504 -0.9637467 0.05073931
vn -0.9052212 0.2696071 0.3284609
vn -0.9052212 0.2696071 0.3284609
vn -0.9052212 0.2696071 0.3284609
vn -0.9136328 0.2438015 0.3253244
g Ball_Uv_01_Explode_Thin_01_Hull_0
f 3/3/3 2/2/2 1/1/1
f 6/6/6 5/5/5 4/4/4
f 6/6/6 4/4/4 7/7/7
f 10/10/10 9/9/9 8/8/8
f 10/10/10 8/8/8 11/11/11
f 14/14/14 13/13/13 12/12/12
f 14/14/14 12/12/12 15/15/15
f 18/18/18 17/17/17 16/16/16
f 18/18/18 16/16/16 19/19/19
f 22/22/22 21/21/21 20/20/20
f 22/22/22 20/20/20 23/23/23
f 24/24/24 22/22/22 23/23/23
f 27/27/27 26/26/26 25/25/25
f 25/25/25 26/26/26 28/28/28
