g Ball_gb_001_Explode_Thin_15_Hull
v 0.05421619 -0.2925768 0.0256455
v 0.2880255 0.2533266 -0.006510167
v -0.2456246 -0.266895 -0.03850367
v 0.2399191 0.3023778 -0.009722199
v -0.2456246 -0.266895 -0.03850367
v 0.2880255 0.2533266 -0.006510167
v 0.2727937 0.1108327 0.07778823
v 0.2123547 -0.05982805 0.1094728
v 0.1964338 0.1187953 0.1178192
v -0.2880846 -0.1896954 -0.01204508
v 0.2399191 0.3023778 -0.009722199
v -0.1633683 0.2137362 0.0949729
v -0.2880846 -0.1896954 -0.01204508
v -0.2456246 -0.266895 -0.03850367
v 0.2399191 0.3023778 -0.009722199
v -0.1863419 -0.2280485 0.04882761
v -0.2728062 -0.05618387 0.07136513
v -0.1863419 -0.06148827 0.1178192
v 0.1026147 -0.06704048 0.1457321
v 0.2123547 -0.05982805 0.1094728
v 0.1042591 -0.2435828 0.07207632
v 0.005046011 -0.1627345 0.1266974
v 0.1042591 -0.2435828 0.07207632
v 0.005046011 -0.2491988 0.08048126
v 0.005046011 -0.1627345 0.1266974
v 0.1026147 -0.06704048 0.1457321
v 0.1042591 -0.2435828 0.07207632
v 0.1964338 0.2853557 0.04882761
v 0.2399191 0.3023778 -0.009722199
v 0.2880255 0.2533266 -0.006510167
v 0.1964338 0.2853557 0.04882761
v 0.1026147 0.293924 0.07636249
v 0.2399191 0.3023778 -0.009722199
v 0.005045935 0.2712111 0.0993466
v 0.005045935 0.2200415 0.1266973
v -0.1633683 0.2137362 0.0949729
v 0.005045935 0.2712111 0.0993466
v 0.1026147 0.293924 0.07636249
v 0.005045935 0.2200415 0.1266973
v -0.2123447 0.1160838 0.1041874
v -0.1633683 0.2137362 0.0949729
v -0.1863419 0.1187953 0.1178191
v -0.09252273 0.1243475 0.145732
v -0.1633683 0.2137362 0.0949729
v 0.005045935 0.2200415 0.1266973
v -0.09252273 0.1243475 0.145732
v -0.1863419 0.1187953 0.1178191
v -0.1633683 0.2137362 0.0949729
v 0.1026147 0.1243476 0.145732
v 0.1026147 -0.06704048 0.1457321
v 0.005046011 0.02865354 0.1647668
v 0.1026147 0.1243476 0.145732
v 0.005045935 0.2200415 0.1266973
v 0.1026147 0.293924 0.07636249
v -0.09252273 -0.06704049 0.145732
v -0.09252273 0.1243475 0.145732
v 0.005046011 0.02865354 0.1647668
v -0.1863419 -0.2937693 -0.005107994
v -0.1863419 -0.2280485 0.04882761
v -0.09252273 -0.3079726 0.01987512
v 0.2828982 0.1877869 0.04882761
v 0.2880255 0.2533266 -0.006510167
v 0.2727937 0.1108327 0.07778823
v 0.2828982 0.1877869 0.04882761
v 0.1964338 0.2853557 0.04882761
v 0.2880255 0.2533266 -0.006510167
v 0.2828982 0.1877869 0.04882761
v 0.2727937 0.1108327 0.07778823
v 0.1964338 0.1187953 0.1178192
v 0.2828982 0.1877869 0.04882761
v 0.1964338 0.1187953 0.1178192
v 0.1964338 0.2853557 0.04882761
v 0.005045935 -0.3070859 0.03297448
v 0.1042591 -0.2435828 0.07207632
v 0.05421619 -0.2925768 0.0256455
v 0.005045935 -0.3070859 0.03297448
v 0.005046011 -0.2491988 0.08048126
v 0.1042591 -0.2435828 0.07207632
v 0.005045935 -0.3070859 0.03297448
v -0.09252273 -0.3079726 0.01987512
v 0.005046011 -0.2491988 0.08048126
v -0.2728062 -0.2370606 -0.01806755
v -0.1863419 -0.2280485 0.04882761
v -0.1863419 -0.2937693 -0.005107994
v -0.2728062 -0.2370606 -0.01806755
v -0.2456246 -0.266895 -0.03850367
v -0.2880846 -0.1896954 -0.01204508
v -0.2728062 -0.2370606 -0.01806755
v -0.1863419 -0.2937693 -0.005107994
v -0.2456246 -0.266895 -0.03850367
v -0.2728062 -0.2370606 -0.01806755
v -0.2880846 -0.1896954 -0.01204508
v -0.2728062 -0.05618387 0.07136513
v -0.2728062 -0.2370606 -0.01806755
v -0.2728062 -0.05618387 0.07136513
v -0.1863419 -0.2280485 0.04882761
v -0.09252273 -0.159057 0.1178192
v -0.09252273 -0.06704049 0.145732
v 0.005046011 -0.1627345 0.1266974
v -0.09252273 -0.159057 0.1178192
v -0.1863419 -0.2280485 0.04882761
v -0.1863419 -0.06148827 0.1178192
v -0.09252273 -0.159057 0.1178192
v -0.1863419 -0.06148827 0.1178192
v -0.09252273 -0.06704049 0.145732
v -0.09252273 -0.159057 0.1178192
v 0.005046011 -0.1627345 0.1266974
v 0.005046011 -0.2491988 0.08048126
v 0.2399191 0.3023778 -0.009722199
v 0.1026147 0.293924 0.07636249
v -0.1633683 0.2137362 0.0949729
v 0.005045935 0.2712111 0.0993466
v 0.2727937 0.1108327 0.07778823
v 0.2880255 0.2533266 -0.006510167
v 0.05421619 -0.2925768 0.0256455
v 0.2123547 -0.05982805 0.1094728
v 0.1042591 -0.2435828 0.07207632
v -0.2880846 -0.1896954 -0.01204508
v -0.1633683 0.2137362 0.0949729
v -0.2728062 -0.05618387 0.07136513
v -0.2123447 0.1160838 0.1041874
v 0.1026147 -0.06704048 0.1457321
v 0.1964338 0.1187953 0.1178192
v 0.2123547 -0.05982805 0.1094728
v 0.1026147 0.1243476 0.145732
v 0.005046011 -0.1627345 0.1266974
v 0.005046011 0.02865354 0.1647668
v 0.1026147 -0.06704048 0.1457321
v -0.09252273 -0.06704049 0.145732
v 0.1964338 0.2853557 0.04882761
v 0.1964338 0.1187953 0.1178192
v 0.1026147 0.293924 0.07636249
v 0.1026147 0.1243476 0.145732
v -0.2123447 0.1160838 0.1041874
v -0.1863419 -0.06148827 0.1178192
v -0.2728062 -0.05618387 0.07136513
v -0.1863419 0.1187953 0.1178191
v -0.09252273 0.1243475 0.145732
v -0.1863419 -0.06148827 0.1178192
v -0.1863419 0.1187953 0.1178191
v -0.09252273 -0.06704049 0.145732
v -0.09252273 0.1243475 0.145732
v 0.005045935 0.2200415 0.1266973
v 0.005046011 0.02865354 0.1647668
v 0.1026147 0.1243476 0.145732
v -0.1863419 -0.2937693 -0.005107994
v -0.09252273 -0.3079726 0.01987512
v -0.2456246 -0.266895 -0.03850367
v 0.05421619 -0.2925768 0.0256455
v 0.005045935 -0.3070859 0.03297448
v -0.09252273 -0.159057 0.1178192
v 0.005046011 -0.2491988 0.08048126
v -0.09252273 -0.3079726 0.01987512
v -0.1863419 -0.2280485 0.04882761
vn 0.1955648 -0.1409267 -0.9705123
vn 0.1955648 -0.1409267 -0.9705123
vn 0.1955648 -0.1409267 -0.9705123
vn 0.06315745 -0.003411117 -0.9979977
vn 0.06315745 -0.003411118 -0.9979977
vn 0.06315745 -0.003411117 -0.9979977
vn 0.4643064 -1.187625E-07 0.8856747
vn 0.4643063 -1.187625E-07 0.8856747
vn 0.4643064 -1.187625E-07 0.8856747
vn -0.3046178 0.3310765 -0.8930825
vn -0.3046178 0.3310765 -0.8930825
vn -0.3046178 0.3310765 -0.8930825
vn -0.19898 0.2180195 -0.9554446
vn -0.19898 0.2180195 -0.9554446
vn -0.19898 0.2180195 -0.9554446
vn -0.4612431 -0.3395453 0.819734
vn -0.461243 -0.3395453 0.819734
vn -0.461243 -0.3395453 0.819734
vn 0.3137454 -0.3631124 0.877333
vn 0.3137454 -0.3631124 0.877333
vn 0.3137454 -0.3631124 0.877333
vn 0.100879 -0.4689924 0.8774222
vn 0.100879 -0.4689924 0.8774222
vn 0.100879 -0.4689924 0.8774222
vn 0.1922905 -0.3763333 0.9063099
vn 0.1922905 -0.3763333 0.9063099
vn 0.1922905 -0.3763333 0.9063099
vn 0.5591053 0.5866981 0.5858213
vn 0.5591053 0.5866981 0.5858213
vn 0.5591053 0.5866981 0.5858213
vn 0.2011418 0.8904287 0.4082632
vn 0.2011418 0.8904287 0.4082631
vn 0.2011418 0.8904287 0.4082632
vn -0.1807505 0.4636322 0.8673952
vn -0.1807504 0.4636322 0.8673952
vn -0.1807504 0.4636322 0.8673952
vn 0.09754989 0.4691483 0.8777152
vn 0.09754988 0.4691483 0.8777152
vn 0.09754988 0.4691483 0.8777152
vn -0.466444 0.3120395 0.8276843
vn -0.466444 0.3120395 0.8276844
vn -0.466444 0.3120395 0.8276844
vn -0.1853361 0.3700446 0.9103393
vn -0.185336 0.3700445 0.9103393
vn -0.185336 0.3700445 0.9103393
vn -0.2886545 0.2894591 0.9126292
vn -0.2886545 0.2894591 0.9126292
vn -0.2886545 0.289459 0.9126292
vn 0.1914809 4.411094E-07 0.9814964
vn 0.1914808 4.411093E-07 0.9814964
vn 0.1914808 4.411094E-07 0.9814964
vn 0.1873993 0.3719129 0.9091547
vn 0.1873994 0.3719129 0.9091547
vn 0.1873994 0.3719129 0.9091547
vn -0.1914811 0 0.9814963
vn -0.1914811 0 0.9814963
vn -0.1914811 0 0.9814963
vn -0.2890042 -0.6073223 0.7400245
vn -0.2890041 -0.6073222 0.7400245
vn -0.2890042 -0.6073223 0.7400245
vn 0.9791078 -0.1703492 -0.1110361
vn 0.9791078 -0.1703492 -0.1110361
vn 0.9791078 -0.1703493 -0.1110361
vn 0.5688801 0.5041358 0.6497864
vn 0.5688802 0.5041359 0.6497864
vn 0.5688802 0.5041359 0.6497864
vn 0.4696282 0.2562819 0.8448485
vn 0.4696282 0.2562819 0.8448485
vn 0.4696282 0.2562819 0.8448485
vn 0.3964454 0.3513258 0.8481752
vn 0.3964454 0.3513259 0.8481752
vn 0.3964454 0.3513258 0.8481752
vn 0.3125193 -0.8018495 0.5092828
vn 0.3125193 -0.8018495 0.5092828
vn 0.3125193 -0.8018495 0.5092828
vn 0.1008789 -0.6311573 0.7690668
vn 0.1008789 -0.6311573 0.7690668
vn 0.1008789 -0.6311573 0.7690668
vn -0.09754997 -0.6313677 0.7693235
vn -0.09754998 -0.6313678 0.7693236
vn -0.09754998 -0.6313678 0.7693236
vn -0.4696275 -0.5600833 0.6824637
vn -0.4696275 -0.5600833 0.6824637
vn -0.4696275 -0.5600833 0.6824636
vn -0.6822269 -0.1285465 -0.7197515
vn -0.682227 -0.1285464 -0.7197514
vn -0.682227 -0.1285464 -0.7197514
vn -0.5478809 -0.7512558 0.3680234
vn -0.547881 -0.7512558 0.3680234
vn -0.5478809 -0.7512558 0.3680234
vn -0.7143148 -0.3101776 0.6273311
vn -0.7143148 -0.3101776 0.6273311
vn -0.7143148 -0.3101775 0.6273311
vn -0.543414 -0.3720692 0.7525063
vn -0.543414 -0.3720692 0.7525063
vn -0.5434141 -0.3720692 0.7525062
vn -0.09755044 -0.2888997 0.9523764
vn -0.09755044 -0.2888997 0.9523764
vn -0.09755044 -0.2888997 0.9523764
vn -0.3697703 -0.3555604 0.8583978
vn -0.3697703 -0.3555604 0.8583978
vn -0.3697703 -0.3555604 0.8583978
vn -0.2890034 -0.2778973 0.9161059
vn -0.2890034 -0.2778973 0.9161059
vn -0.2890034 -0.2778973 0.9161059
vn -0.09755052 -0.4691488 0.8777148
vn -0.0975505 -0.4691487 0.8777148
vn -0.0975505 -0.4691487 0.8777148
vn -0.2913508 0.8785852 -0.3784215
vn -0.2913508 0.8785852 -0.3784216
vn -0.2913508 0.8785852 -0.3784216
vn -0.2919768 0.8834419 -0.3664424
vn 0.7977793 -0.3708027 -0.4754508
vn 0.7957614 -0.3691044 -0.4801309
vn 0.7977793 -0.3708027 -0.4754508
vn 0.7977793 -0.3708027 -0.4754509
vn 0.8007677 -0.3762037 -0.4660921
vn -0.8169282 0.3699201 -0.4424787
vn -0.8169282 0.3699201 -0.4424787
vn -0.8169282 0.36992 -0.4424787
vn -0.821077 0.3708549 -0.4339346
vn 0.3146536 -0.01630091 0.9490666
vn 0.3146536 -0.01630091 0.9490666
vn 0.3146536 -0.01630091 0.9490666
vn 0.2851643 4.298433E-07 0.9584786
vn 0 -0.19509 0.9807854
vn 0 -0.19509 0.9807854
vn 0 -0.19509 0.9807854
vn -9.216507E-07 -0.19509 0.9807854
vn 0.2926931 0.3659246 0.8834195
vn 0.2926931 0.3659246 0.8834195
vn 0.2926931 0.3659246 0.8834195
vn 0.2853908 0.3628743 0.8870595
vn -0.4733611 -0.00169444 0.8808669
vn -0.473361 -0.00169444 0.8808669
vn -0.4733611 -0.00169444 0.8808669
vn -0.4643061 6.090621E-07 0.8856748
vn -0.2851653 6.591277E-07 0.9584783
vn -0.2851653 6.591277E-07 0.9584783
vn -0.2851653 6.591277E-07 0.9584783
vn -0.285164 0 0.9584787
vn -3.806821E-07 0.1950906 0.9807853
vn -3.806821E-07 0.1950906 0.9807853
vn -3.806821E-07 0.1950906 0.9807853
vn 3.406104E-07 0.1950906 0.9807853
vn 0.08336495 -0.6988648 -0.7103789
vn 0.0993802 -0.672232 -0.73364
vn 0.0993802 -0.672232 -0.73364
vn 0.0993802 -0.6722321 -0.73364
vn 0.1012532 -0.7001527 -0.7067772
vn -0.1847219 -0.5400551 0.821108
vn -0.1847219 -0.5400551 0.821108
vn -0.1847219 -0.5400551 0.821108
vn -0.205795 -0.5377495 0.8176026
g Ball_gb_001_Explode_Thin_15_Hull_0
f 3/3/3 2/2/2 1/1/1
f 6/6/6 5/5/5 4/4/4
f 9/9/9 8/8/8 7/7/7
f 12/12/12 11/11/11 10/10/10
f 15/15/15 14/14/14 13/13/13
f 18/18/18 17/17/17 16/16/16
f 21/21/21 20/20/20 19/19/19
f 24/24/24 23/23/23 22/22/22
f 27/27/27 26/26/26 25/25/25
f 30/30/30 29/29/29 28/28/28
f 33/33/33 32/32/32 31/31/31
f 36/36/36 35/35/35 34/34/34
f 39/39/39 38/38/38 37/37/37
f 42/42/42 41/41/41 40/40/40
f 45/45/45 44/44/44 43/43/43
f 48/48/48 47/47/47 46/46/46
f 51/51/51 50/50/50 49/49/49
f 54/54/54 53/53/53 52/52/52
f 57/57/57 56/56/56 55/55/55
f 60/60/60 59/59/59 58/58/58
f 63/63/63 62/62/62 61/61/61
f 66/66/66 65/65/65 64/64/64
f 69/69/69 68/68/68 67/67/67
f 72/72/72 71/71/71 70/70/70
f 75/75/75 74/74/74 73/73/73
f 78/78/78 77/77/77 76/76/76
f 81/81/81 80/80/80 79/79/79
f 84/84/84 83/83/83 82/82/82
f 87/87/87 86/86/86 85/85/85
f 90/90/90 89/89/89 88/88/88
f 93/93/93 92/92/92 91/91/91
f 96/96/96 95/95/95 94/94/94
f 99/99/99 98/98/98 97/97/97
f 102/102/102 101/101/101 100/100/100
f 105/105/105 104/104/104 103/103/103
f 108/108/108 107/107/107 106/106/106
f 111/111/111 110/110/110 109/109/109
f 110/110/110 111/111/111 112/112/112
f 115/115/115 114/114/114 113/113/113
f 116/116/116 115/115/115 113/113/113
f 115/115/115 116/116/116 117/117/117
f 120/120/120 119/119/119 118/118/118
f 119/119/119 120/120/120 121/121/121
f 124/124/124 123/123/123 122/122/122
f 122/122/122 123/123/123 125/125/125
f 128/128/128 127/127/127 126/126/126
f 126/126/126 127/127/127 129/129/129
f 132/132/132 131/131/131 130/130/130
f 131/131/131 132/132/132 133/133/133
f 136/136/136 135/135/135 134/134/134
f 135/135/135 137/137/137 134/134/134
f 140/140/140 139/139/139 138/138/138
f 138/138/138 139/139/139 141/141/141
f 144/144/144 143/143/143 142/142/142
f 143/143/143 144/144/144 145/145/145
f 148/148/148 147/147/147 146/146/146
f 148/148/148 149/149/149 147/147/147
f 147/147/147 149/149/149 150/150/150
f 153/153/153 152/152/152 151/151/151
f 154/154/154 153/153/153 151/151/151
