g Ball_gb_001_Explode_Thin_06_Hull
v 0.1659582 0.04163137 0.07347849
v 0.1197377 0.1199725 0.03528056
v 0.1659582 0.02136167 0.03187568
v 0.1197377 -0.03144724 -0.118511
v 0.0602043 0.05689612 -0.1531485
v 0.07672215 -0.07334986 -0.1857313
v 0.1197377 -0.1919982 -0.1343237
v 0.1659582 -0.1949226 -0.04350807
v 0.1659582 -0.1377867 -0.05319054
v 0.1944205 -0.156823 0.04251244
v 0.1659582 -0.1377867 -0.05319054
v 0.1659582 -0.1949226 -0.04350807
v 0.1197377 0.0587031 -0.05827455
v 0.0602043 0.05689612 -0.1531485
v 0.1197377 -0.03144724 -0.118511
v 0.1197377 0.0587031 -0.05827455
v 0.1659582 0.02136167 0.03187568
v 0.1197377 0.1199725 0.03528056
v 0.1197377 0.0587031 -0.05827455
v 0.1197377 0.1199725 0.03528056
v 0.05753526 0.1562809 -0.05827476
v 0.1197377 -0.2272802 -0.1236209
v 0.1659582 -0.1949226 -0.04350807
v 0.1197377 -0.1919982 -0.1343237
v 0.05753526 0.1906409 0.008398985
v 0.05753526 0.1562809 -0.05827476
v 0.1197377 0.1199725 0.03528056
v 0.06219853 -0.2056764 -0.203088
v 0.1197377 -0.2272802 -0.1236209
v 0.1197377 -0.1919982 -0.1343237
v 0.06219853 -0.2056764 -0.203088
v 0.04533543 -0.2563254 -0.2040454
v 0.1197377 -0.2272802 -0.1236209
v 0.1659582 -0.03144715 -0.02093303
v 0.1197377 0.0587031 -0.05827455
v 0.1197377 -0.03144724 -0.118511
v 0.1659582 -0.03144715 -0.02093303
v 0.1659582 0.02136167 0.03187568
v 0.1197377 0.0587031 -0.05827455
v 0.1898017 -0.1023852 0.1615216
v 0.1997564 -0.1015162 0.1619859
v 0.1944205 -0.156823 0.04251244
v 0.1898017 -0.1023852 0.1615216
v -0.02809466 0.2563324 -0.006318083
v 0.1997564 -0.1015162 0.1619859
v 0.03900766 -0.2540763 -0.1966313
v 0.1197377 -0.2272802 -0.1236209
v 0.04533543 -0.2563254 -0.2040454
v 0.1944205 -0.04182126 0.1218418
v 0.1944205 -0.05665348 0.08400386
v 0.1997564 -0.1015162 0.1619859
v 0.1944205 -0.1004451 0.04806509
v 0.1997564 -0.1015162 0.1619859
v 0.1944205 -0.156823 0.04251244
v -0.03279248 0.2478811 -0.003754463
v -0.02809466 0.2563324 -0.006318083
v 0.1898017 -0.1023852 0.1615216
v -0.03279248 0.2478811 -0.003754463
v 0.1898017 -0.1023852 0.1615216
v 0.03900766 -0.2540763 -0.1966313
v -0.0445051 0.225423 -0.06581824
v -0.03279248 0.2478811 -0.003754463
v 0.03900766 -0.2540763 -0.1966313
v -0.0445051 0.225423 -0.06581824
v 0.04533543 -0.2563254 -0.2040454
v -0.03980727 0.2332118 -0.06998143
v -0.0445051 0.225423 -0.06581824
v 0.03900766 -0.2540763 -0.1966313
v 0.04533543 -0.2563254 -0.2040454
v -0.01152508 0.2034057 -0.08976257
v -0.02809466 0.2563324 -0.006318083
v -0.03980727 0.2332118 -0.06998143
v 0.1197377 -0.08357537 -0.1343238
v 0.1197377 -0.1919982 -0.1343237
v 0.1659582 -0.1377867 -0.05319054
v 0.1197377 -0.08357537 -0.1343238
v 0.1197377 -0.03144724 -0.118511
v 0.07672215 -0.07334986 -0.1857313
v 0.05753526 0.1122973 -0.1118689
v 0.03268225 0.1267197 -0.1262914
v 0.0602043 0.05689612 -0.1531485
v 0.05753526 0.1122973 -0.1118689
v 0.1197377 0.0587031 -0.05827455
v 0.05753526 0.1562809 -0.05827476
v 0.05753526 0.1122973 -0.1118689
v 0.0602043 0.05689612 -0.1531485
v 0.1197377 0.0587031 -0.05827455
v 0.1944205 -0.1004451 0.04806509
v 0.1659582 -0.1377867 -0.05319054
v 0.1944205 -0.156823 0.04251244
v 0.1944205 -0.1004451 0.04806509
v 0.1659582 -0.03144715 -0.02093303
v 0.1659582 -0.1377867 -0.05319054
v 0.07343262 -0.1377869 -0.196086
v 0.1197377 -0.08357537 -0.1343238
v 0.07672215 -0.07334986 -0.1857313
v 0.07343262 -0.1377869 -0.196086
v 0.1197377 -0.1919982 -0.1343237
v 0.1197377 -0.08357537 -0.1343238
v 0.07343262 -0.1377869 -0.196086
v 0.06219853 -0.2056764 -0.203088
v 0.1197377 -0.1919982 -0.1343237
v 0.05753526 0.1906409 0.008398985
v 0.1197377 0.1199725 0.03528056
v -0.02809466 0.2563324 -0.006318083
v 0.1997564 -0.1015162 0.1619859
v 0.1659582 0.04163137 0.07347849
v 0.1944205 -0.04182126 0.1218418
v 0.1944205 -0.05665348 0.08400386
v 0.1659582 0.04163137 0.07347849
v 0.1659582 0.02136167 0.03187568
v 0.1944205 -0.04182126 0.1218418
v 0.1659582 -0.03144715 -0.02093303
v 0.1944205 -0.05665348 0.08400386
v 0.1659582 0.02136167 0.03187568
v 0.1944205 -0.1004451 0.04806509
v 0.1659582 -0.03144715 -0.02093303
v 0.1197377 -0.03144724 -0.118511
v 0.1659582 -0.1377867 -0.05319054
v 0.1197377 -0.08357537 -0.1343238
v 0.1898017 -0.1023852 0.1615216
v 0.1944205 -0.156823 0.04251244
v 0.1659582 -0.1949226 -0.04350807
v 0.03900766 -0.2540763 -0.1966313
v 0.1197377 -0.2272802 -0.1236209
v -0.0445051 0.225423 -0.06581824
v -0.03980727 0.2332118 -0.06998143
v -0.02809466 0.2563324 -0.006318083
v -0.03279248 0.2478811 -0.003754463
v -0.01152508 0.2034057 -0.08976257
v 0.03268225 0.1267197 -0.1262914
v 0.05753526 0.1562809 -0.05827476
v 0.05753526 0.1122973 -0.1118689
v -0.01152508 0.2034057 -0.08976257
v -0.03980727 0.2332118 -0.06998143
v 0.03268225 0.1267197 -0.1262914
v 0.0602043 0.05689612 -0.1531485
v 0.04533543 -0.2563254 -0.2040454
v 0.07672215 -0.07334986 -0.1857313
v 0.06219853 -0.2056764 -0.203088
v 0.07343262 -0.1377869 -0.196086
v -0.01152508 0.2034057 -0.08976257
v 0.05753526 0.1906409 0.008398985
v -0.02809466 0.2563324 -0.006318083
v 0.05753526 0.1562809 -0.05827476
vn 0.8834593 0.4211772 -0.2052058
vn 0.8834593 0.4211772 -0.2052058
vn 0.8834593 0.4211771 -0.2052058
vn 0.7369868 0.2505103 -0.6277699
vn 0.7369868 0.2505104 -0.62777
vn 0.7369868 0.2505103 -0.6277699
vn 0.8875661 -0.0769712 -0.4542045
vn 0.8875661 -0.0769712 -0.4542045
vn 0.8875661 -0.0769712 -0.4542045
vn 0.9545709 -0.04978758 -0.2937949
vn 0.9545709 -0.04978758 -0.2937949
vn 0.9545709 -0.04978758 -0.2937949
vn 0.7944692 0.3373998 -0.5049555
vn 0.7944692 0.3373998 -0.5049555
vn 0.7944692 0.3373998 -0.5049555
vn 0.8675618 0.4160484 -0.2724708
vn 0.8675618 0.4160484 -0.2724707
vn 0.8675618 0.4160484 -0.2724707
vn 0.7953947 0.5070353 -0.3320583
vn 0.7953947 0.5070352 -0.3320583
vn 0.7953947 0.5070353 -0.3320583
vn 0.8809723 -0.1373544 -0.452793
vn 0.8809723 -0.1373544 -0.452793
vn 0.8809723 -0.1373544 -0.452793
vn 0.7702714 0.5668688 -0.2921332
vn 0.7702714 0.5668688 -0.2921332
vn 0.7702714 0.5668688 -0.2921332
vn 0.7715055 -0.1846871 -0.6088266
vn 0.7715055 -0.1846871 -0.6088266
vn 0.7715055 -0.1846871 -0.6088267
vn 0.7542823 -0.2395768 -0.6112784
vn 0.7542823 -0.2395768 -0.6112784
vn 0.7542823 -0.2395768 -0.6112783
vn 0.868894 0.2750058 -0.4115761
vn 0.8688941 0.2750058 -0.4115761
vn 0.8688941 0.2750058 -0.411576
vn 0.8898591 0.3226067 -0.3226075
vn 0.8898591 0.3226068 -0.3226075
vn 0.8898591 0.3226067 -0.3226075
vn 0.05970563 -0.9068764 0.4171453
vn 0.05970564 -0.9068766 0.4171453
vn 0.05970563 -0.9068766 0.4171453
vn -0.07644147 0.3840843 0.9201283
vn -0.07644147 0.3840843 0.9201283
vn -0.07644147 0.3840843 0.9201283
vn 0.030836 -0.9488702 0.3141565
vn 0.030836 -0.9488702 0.3141565
vn 0.030836 -0.9488702 0.3141565
vn 0.9971259 0.07053609 -0.02764971
vn 0.9971259 0.07053609 -0.02764971
vn 0.9971259 0.07053608 -0.02764971
vn 0.9988962 0.004603821 -0.04674421
vn 0.9988962 0.004603821 -0.04674421
vn 0.9988962 0.004603821 -0.04674421
vn -0.1309988 0.3537486 0.9261215
vn -0.1309988 0.3537486 0.9261215
vn -0.1309988 0.3537487 0.9261215
vn -0.8266329 -0.3009543 0.4755048
vn -0.8266327 -0.3009542 0.4755047
vn -0.8266329 -0.3009543 0.4755048
vn -0.936298 -0.2344183 0.2615227
vn -0.936298 -0.2344183 0.2615227
vn -0.936298 -0.2344183 0.2615227
vn -0.7194325 0.06426858 -0.6915826
vn -0.7194325 0.06426858 -0.6915826
vn -0.7194325 0.06426857 -0.6915825
vn -0.7524926 0.04813443 -0.6568393
vn -0.7524926 0.04813443 -0.6568393
vn -0.7524926 0.04813443 -0.6568393
vn 0.5363536 0.7568325 -0.3735361
vn 0.5363536 0.7568325 -0.3735361
vn 0.5363536 0.7568325 -0.3735361
vn 0.8688943 -5.651962E-07 -0.4949976
vn 0.8688943 -5.651962E-07 -0.4949976
vn 0.8688943 -5.651962E-07 -0.4949976
vn 0.7715064 0.1846846 -0.6088265
vn 0.7715064 0.1846845 -0.6088264
vn 0.7715064 0.1846845 -0.6088263
vn 0.6319443 0.4824046 -0.6065741
vn 0.6319443 0.4824046 -0.6065741
vn 0.6319443 0.4824046 -0.6065741
vn 0.7715055 0.4918065 -0.4036156
vn 0.7715055 0.4918065 -0.4036156
vn 0.7715055 0.4918066 -0.4036156
vn 0.7715056 0.4036151 -0.491807
vn 0.7715056 0.4036151 -0.491807
vn 0.7715055 0.4036151 -0.491807
vn 0.9596296 0.02756851 -0.2799124
vn 0.9596296 0.02756851 -0.2799124
vn 0.9596296 0.02756851 -0.2799124
vn 0.949419 0.09115233 -0.300491
vn 0.949419 0.09115233 -0.300491
vn 0.9494189 0.09115234 -0.3004911
vn 0.7715064 0.06236001 -0.6331581
vn 0.7715064 0.06236 -0.633158
vn 0.7715064 0.06236001 -0.6331581
vn 0.8001038 -6.859208E-07 -0.5998616
vn 0.8001038 -6.859208E-07 -0.5998616
vn 0.8001037 -6.859208E-07 -0.5998617
vn 0.7715057 -0.06236312 -0.6331587
vn 0.7715056 -0.06236312 -0.6331587
vn 0.7715056 -0.06236312 -0.6331587
vn 0.288938 0.5518883 0.7822621
vn 0.2889393 0.5518892 0.7822611
vn 0.2889393 0.5518892 0.7822611
vn 0.2889393 0.5518892 0.7822611
vn 0.2889368 0.5518889 0.7822621
vn 0.2889394 0.5518889 0.7822613
vn 0.9561902 0.2631716 -0.1282224
vn 0.9561902 0.2631716 -0.1282224
vn 0.9561902 0.2631716 -0.1282224
vn 0.9582175 0.2663106 -0.1043921
vn 0.9553494 0.2089344 -0.2089348
vn 0.9553495 0.2089344 -0.2089348
vn 0.9553495 0.2089344 -0.2089348
vn 0.9596296 0.1784334 -0.2174223
vn 0.8962154 0.1287751 -0.4245175
vn 0.8962154 0.1287751 -0.4245175
vn 0.8962154 0.1287751 -0.4245175
vn 0.8962154 0.1287752 -0.4245172
vn -0.03569493 -0.9093212 0.4145611
vn -0.03569494 -0.9093212 0.4145611
vn -0.03569494 -0.9093212 0.4145611
vn -0.06361347 -0.9120638 0.4050838
vn -0.06361347 -0.9120638 0.4050838
vn -0.8619521 0.5063575 -0.02531453
vn -0.8619519 0.5063575 -0.02531453
vn -0.8619519 0.5063575 -0.02531453
vn -0.8752592 0.4835548 -0.009798659
vn 0.6325635 0.598703 -0.4913432
vn 0.6325635 0.598703 -0.4913433
vn 0.6325635 0.598703 -0.4913433
vn 0.6325635 0.5987029 -0.4913433
vn -0.443255 0.164239 -0.881221
vn -0.4432597 0.1642355 -0.8812193
vn -0.4432559 0.1642383 -0.8812207
vn -0.4432597 0.1642355 -0.8812193
vn -0.4432597 0.1642355 -0.8812193
vn -0.4432569 0.1642357 -0.8812207
vn -0.4432613 0.1642362 -0.8812183
vn -0.4432631 0.1642363 -0.8812176
vn 0.609073 0.7188804 -0.335024
vn 0.609073 0.7188803 -0.335024
vn 0.609073 0.7188804 -0.3350241
vn 0.6319584 0.688903 -0.355023
g Ball_gb_001_Explode_Thin_06_Hull_0
f 3/3/3 2/2/2 1/1/1
f 6/6/6 5/5/5 4/4/4
f 9/9/9 8/8/8 7/7/7
f 12/12/12 11/11/11 10/10/10
f 15/15/15 14/14/14 13/13/13
f 18/18/18 17/17/17 16/16/16
f 21/21/21 20/20/20 19/19/19
f 24/24/24 23/23/23 22/22/22
f 27/27/27 26/26/26 25/25/25
f 30/30/30 29/29/29 28/28/28
f 33/33/33 32/32/32 31/31/31
f 36/36/36 35/35/35 34/34/34
f 39/39/39 38/38/38 37/37/37
f 42/42/42 41/41/41 40/40/40
f 45/45/45 44/44/44 43/43/43
f 48/48/48 47/47/47 46/46/46
f 51/51/51 50/50/50 49/49/49
f 50/50/50 53/53/53 52/52/52
f 53/53/53 54/54/54 52/52/52
f 57/57/57 56/56/56 55/55/55
f 60/60/60 59/59/59 58/58/58
f 63/63/63 62/62/62 61/61/61
f 66/66/66 65/65/65 64/64/64
f 69/69/69 68/68/68 67/67/67
f 72/72/72 71/71/71 70/70/70
f 75/75/75 74/74/74 73/73/73
f 78/78/78 77/77/77 76/76/76
f 81/81/81 80/80/80 79/79/79
f 84/84/84 83/83/83 82/82/82
f 87/87/87 86/86/86 85/85/85
f 90/90/90 89/89/89 88/88/88
f 93/93/93 92/92/92 91/91/91
f 96/96/96 95/95/95 94/94/94
f 99/99/99 98/98/98 97/97/97
f 102/102/102 101/101/101 100/100/100
f 105/105/105 104/104/104 103/103/103
f 105/105/105 106/106/106 104/104/104
f 104/104/104 106/106/106 107/107/107
f 107/107/107 106/106/106 108/108/108
f 111/111/111 110/110/110 109/109/109
f 109/109/109 110/110/110 112/112/112
f 115/115/115 114/114/114 113/113/113
f 113/113/113 114/114/114 116/116/116
f 119/119/119 118/118/118 117/117/117
f 118/118/118 119/119/119 120/120/120
f 123/123/123 122/122/122 121/121/121
f 123/123/123 121/121/121 124/124/124
f 125/125/125 123/123/123 124/124/124
f 128/128/128 127/127/127 126/126/126
f 129/129/129 128/128/128 126/126/126
f 132/132/132 131/131/131 130/130/130
f 131/131/131 132/132/132 133/133/133
f 136/136/136 135/135/135 134/134/134
f 137/137/137 135/135/135 136/136/136
f 137/137/137 138/138/138 135/135/135
f 138/138/138 137/137/137 139/139/139
f 138/138/138 139/139/139 140/140/140
f 140/140/140 139/139/139 141/141/141
f 144/144/144 143/143/143 142/142/142
f 143/143/143 145/145/145 142/142/142
