g Ball_Uv_01_Explode_Thin_12_Hull
v 0.1669147 -0.0679171 -0.303025
v 0.296347 -0.04322426 -0.1639232
v -0.235995 0.03379396 0.3030463
v -0.1347354 -0.1602921 -0.05870493
v -0.2744002 -0.1140877 -0.05870491
v -0.2287588 -0.1265787 0.03767111
v -0.1347354 -0.1602921 -0.05870493
v -0.22712 -0.121201 -0.1760704
v -0.2744002 -0.1140877 -0.05870491
v 0.06644244 -0.1518365 0.04109545
v -0.03335798 -0.1602922 0.04267243
v -0.03335798 -0.1346923 0.1393812
v 0.06644244 -0.1518365 0.04109545
v -0.03335798 -0.1346923 0.1393812
v 0.1644808 -0.1327934 -0.03725231
v -0.2849529 -0.03461909 0.1991595
v -0.2136244 -0.06440455 0.212435
v -0.296319 -0.06821632 0.1223469
v -0.1301136 -0.1293769 -0.2435139
v -0.03335798 -0.1602921 -0.1600823
v -0.03335798 -0.1289137 -0.2689839
v 0.06801944 -0.1602921 -0.05870493
v 0.06644244 -0.1518365 0.04109545
v 0.1644808 -0.1327934 -0.03725231
v 0.2381599 -0.06507141 -0.2360914
v 0.296347 -0.04322426 -0.1639232
v 0.1669147 -0.0679171 -0.303025
v -0.1297341 -0.1265787 0.1366959
v -0.2136244 -0.06440455 0.212435
v -0.1329965 -0.08308058 0.2230186
v -0.1297341 -0.1265787 0.1366959
v -0.1329965 -0.08308058 0.2230186
v -0.03335798 -0.1346923 0.1393812
v 0.2508879 -0.08716619 -0.1189327
v 0.2381599 -0.06507141 -0.2360914
v 0.1620429 -0.1265786 -0.155081
v 0.2508879 -0.08716619 -0.1189327
v 0.296347 -0.04322426 -0.1639232
v 0.2381599 -0.06507141 -0.2360914
v 0.2508879 -0.08716619 -0.1189327
v 0.1620429 -0.1265786 -0.155081
v 0.1644808 -0.1327934 -0.03725231
v -0.2055393 -0.1088984 -0.2032478
v -0.1301136 -0.1293769 -0.2435139
v -0.1686338 -0.1123652 -0.2276788
v -0.2055393 -0.1088984 -0.2032478
v -0.22712 -0.121201 -0.1760704
v -0.1301136 -0.1293769 -0.2435139
v -0.2055393 -0.1088984 -0.2032478
v -0.2744002 -0.1140877 -0.05870491
v -0.22712 -0.121201 -0.1760704
v -0.2055393 -0.1088984 -0.2032478
v 0.1669147 -0.0679171 -0.303025
v -0.235995 0.03379396 0.3030463
v -0.2055393 -0.1088984 -0.2032478
v -0.1686338 -0.1123652 -0.2276788
v 0.1669147 -0.0679171 -0.303025
v 0.06164477 -0.110141 -0.2882935
v 0.06301815 -0.1265785 -0.2541058
v 0.1669147 -0.0679171 -0.303025
v 0.06164477 -0.110141 -0.2882935
v -0.03335798 -0.1289137 -0.2689839
v 0.06301815 -0.1265785 -0.2541058
v -0.2083591 -0.01033757 0.2828667
v -0.2849529 -0.03461909 0.1991595
v -0.235995 0.03379396 0.3030463
v -0.2083591 -0.01033757 0.2828667
v -0.2136244 -0.06440455 0.212435
v -0.2849529 -0.03461909 0.1991595
v -0.2083591 -0.01033757 0.2828667
v -0.1329965 -0.08308058 0.2230186
v -0.2136244 -0.06440455 0.212435
v 0.06644244 -0.1518365 -0.1585054
v 0.1620429 -0.1265786 -0.155081
v 0.06301815 -0.1265785 -0.2541058
v -0.1331584 -0.1518365 0.04109545
v -0.2287588 -0.1265787 0.03767111
v -0.1297341 -0.1265787 0.1366959
v -0.1331584 -0.1518365 0.04109545
v -0.1347354 -0.1602921 -0.05870493
v -0.2287588 -0.1265787 0.03767111
v -0.03335798 -0.1688864 -0.05870493
v -0.03335798 -0.1602921 -0.1600823
v -0.1347354 -0.1602921 -0.05870493
v -0.29335 -0.09552323 0.03507645
v -0.2744002 -0.1140877 -0.05870491
v -0.2055393 -0.1088984 -0.2032478
v -0.29335 -0.09552323 0.03507645
v -0.296319 -0.06821632 0.1223469
v -0.2287588 -0.1265787 0.03767111
v -0.29335 -0.09552323 0.03507645
v -0.2287588 -0.1265787 0.03767111
v -0.2744002 -0.1140877 -0.05870491
v 0.06301815 -0.1265785 -0.2541058
v 0.1620429 -0.1265786 -0.155081
v 0.1669147 -0.0679171 -0.303025
v 0.2381599 -0.06507141 -0.2360914
v 0.06301815 -0.1265785 -0.2541058
v -0.03335798 -0.1289137 -0.2689839
v -0.03335798 -0.1602921 -0.1600823
v 0.06644244 -0.1518365 -0.1585054
v -0.1301136 -0.1293769 -0.2435139
v -0.1347354 -0.1602921 -0.05870493
v -0.03335798 -0.1602921 -0.1600823
v -0.22712 -0.121201 -0.1760704
v -0.1301136 -0.1293769 -0.2435139
v 0.1669147 -0.0679171 -0.303025
v -0.1686338 -0.1123652 -0.2276788
v -0.03335798 -0.1289137 -0.2689839
v 0.06164477 -0.110141 -0.2882935
v 0.06801944 -0.1602921 -0.05870493
v -0.03335798 -0.1602922 0.04267243
v 0.06644244 -0.1518365 0.04109545
v -0.03335798 -0.1688864 -0.05870493
v 0.06801944 -0.1602921 -0.05870493
v 0.1644808 -0.1327934 -0.03725231
v 0.1620429 -0.1265786 -0.155081
v 0.06644244 -0.1518365 -0.1585054
v -0.1297341 -0.1265787 0.1366959
v -0.2287588 -0.1265787 0.03767111
v -0.296319 -0.06821632 0.1223469
v -0.2136244 -0.06440455 0.212435
v 0.2508879 -0.08716619 -0.1189327
v 0.1644808 -0.1327934 -0.03725231
v 0.296347 -0.04322426 -0.1639232
v -0.03335798 -0.1346923 0.1393812
v -0.235995 0.03379396 0.3030463
v -0.1329965 -0.08308058 0.2230186
v -0.2083591 -0.01033757 0.2828667
v -0.2055393 -0.1088984 -0.2032478
v -0.235995 0.03379396 0.3030463
v -0.2849529 -0.03461909 0.1991595
v -0.296319 -0.06821632 0.1223469
v -0.29335 -0.09552323 0.03507645
v 0.06644244 -0.1518365 -0.1585054
v -0.03335798 -0.1602921 -0.1600823
v 0.06801944 -0.1602921 -0.05870493
v -0.03335798 -0.1688864 -0.05870493
v -0.1331584 -0.1518365 0.04109545
v -0.03335798 -0.1346923 0.1393812
v -0.03335798 -0.1602922 0.04267243
v -0.1297341 -0.1265787 0.1366959
v -0.1331584 -0.1518365 0.04109545
v -0.03335798 -0.1602922 0.04267243
v -0.1347354 -0.1602921 -0.05870493
v -0.03335798 -0.1688864 -0.05870493
vn -0.005989985 0.9855335 -0.1693746
vn -0.005989986 0.9855335 -0.1693746
vn -0.005989986 0.9855335 -0.1693746
vn -0.3139791 -0.9490824 0.02568566
vn -0.3139792 -0.9490824 0.02568566
vn -0.3139792 -0.9490824 0.02568566
vn -0.3133381 -0.9471445 -0.06882263
vn -0.3133381 -0.9471444 -0.06882264
vn -0.3133381 -0.9471445 -0.06882264
vn 0.08563229 -0.963153 0.2549578
vn 0.08563228 -0.963153 0.2549578
vn 0.08563227 -0.963153 0.2549578
vn 0.6249696 -0.3531507 0.6962023
vn 0.6249695 -0.3531507 0.6962023
vn 0.6249696 -0.3531507 0.6962023
vn -0.4152681 -0.8093023 0.41543
vn -0.4152681 -0.8093024 0.4154299
vn -0.4152681 -0.8093024 0.41543
vn -0.06812511 -0.9586747 -0.2762278
vn -0.06812511 -0.9586747 -0.2762278
vn -0.06812511 -0.9586747 -0.2762278
vn 0.2554878 -0.9630128 0.08562847
vn 0.2554878 -0.9630128 0.08562847
vn 0.2554879 -0.9630128 0.08562847
vn 0.5582533 0.5538277 -0.6177605
vn 0.5582533 0.5538277 -0.6177605
vn 0.5582533 0.5538277 -0.6177605
vn -0.2568775 -0.8669295 0.4271386
vn -0.2568775 -0.8669295 0.4271386
vn -0.2568775 -0.8669295 0.4271386
vn -0.08742109 -0.8909341 0.4456387
vn -0.0874211 -0.8909341 0.4456387
vn -0.0874211 -0.8909342 0.4456387
vn 0.4672089 -0.8582047 -0.2126046
vn 0.4672089 -0.8582047 -0.2126046
vn 0.4672089 -0.8582047 -0.2126045
vn 0.5627317 -0.7990392 -0.2118242
vn 0.5627317 -0.7990392 -0.2118242
vn 0.5627317 -0.7990392 -0.2118241
vn 0.4239546 -0.9039225 -0.05644871
vn 0.4239547 -0.9039225 -0.05644871
vn 0.4239546 -0.9039225 -0.05644871
vn -0.5092865 -0.5035967 -0.6978664
vn -0.5092866 -0.5035968 -0.6978664
vn -0.5092866 -0.5035967 -0.6978664
vn -0.5027673 -0.5644098 -0.6547263
vn -0.5027673 -0.5644098 -0.6547263
vn -0.5027673 -0.5644097 -0.6547263
vn -0.7489908 0.5708734 -0.3363279
vn -0.7489908 0.5708734 -0.3363279
vn -0.7489908 0.5708734 -0.3363279
vn -0.1780625 0.9442734 -0.2768423
vn -0.1780625 0.9442734 -0.2768423
vn -0.1780625 0.9442734 -0.2768423
vn -0.2156559 0.8672067 -0.4488264
vn -0.2156559 0.8672067 -0.4488263
vn -0.2156559 0.8672067 -0.4488264
vn 0.2852382 -0.8592755 -0.4245996
vn 0.2852382 -0.8592755 -0.4245996
vn 0.2852382 -0.8592755 -0.4245996
vn 0.08879347 -0.8962834 -0.4345016
vn 0.08879349 -0.8962834 -0.4345016
vn 0.08879349 -0.8962834 -0.4345016
vn -0.4969555 -0.5985174 0.6283408
vn -0.4969555 -0.5985174 0.6283409
vn -0.4969555 -0.5985174 0.6283408
vn -0.4039823 -0.7107834 0.5758344
vn -0.4039823 -0.7107834 0.5758343
vn -0.4039824 -0.7107834 0.5758343
vn -0.2544048 -0.7578505 0.6007836
vn -0.2544048 -0.7578505 0.6007836
vn -0.2544048 -0.7578505 0.6007836
vn 0.2555038 -0.9324353 -0.2555041
vn 0.2555038 -0.9324353 -0.2555041
vn 0.2555038 -0.9324353 -0.2555041
vn -0.2555039 -0.9324355 0.2555033
vn -0.2555039 -0.9324355 0.2555033
vn -0.2555039 -0.9324355 0.2555033
vn -0.2573655 -0.9625139 0.0856159
vn -0.2573655 -0.9625139 0.0856159
vn -0.2573655 -0.9625139 0.08561591
vn -0.08417217 -0.9928898 -0.08417257
vn -0.08417217 -0.9928898 -0.08417257
vn -0.08417217 -0.9928898 -0.08417258
vn -0.6244118 0.7325122 -0.2711748
vn -0.6244118 0.7325122 -0.2711748
vn -0.6244118 0.7325122 -0.2711748
vn -0.4271498 -0.8669642 0.2567413
vn -0.4271498 -0.8669642 0.2567413
vn -0.4271497 -0.8669642 0.2567413
vn -0.4344951 -0.8962051 0.08961242
vn -0.4344951 -0.8962051 0.08961242
vn -0.4344951 -0.8962051 0.08961241
vn 0.3373633 -0.8788469 -0.3373635
vn 0.3373633 -0.8788469 -0.3373635
vn 0.3373633 -0.8788469 -0.3373635
vn 0.3499509 -0.8747025 -0.3353057
vn 0.06588157 -0.9588194 -0.2762695
vn 0.06588157 -0.9588194 -0.2762695
vn 0.06588157 -0.9588194 -0.2762695
vn 0.08561613 -0.9625138 -0.2573658
vn -0.1667344 -0.9718019 -0.1667348
vn -0.1667344 -0.9718019 -0.1667349
vn -0.1667344 -0.9718019 -0.1667348
vn -0.1972165 -0.9661099 -0.166545
vn -0.2450705 0.2880127 -0.9257371
vn -0.2450705 0.2880127 -0.9257371
vn -0.246629 0.2994761 -0.9216769
vn -0.2450705 0.2880127 -0.9257371
vn -0.2450713 0.2880162 -0.9257358
vn 0.08545479 -0.9926707 0.08545448
vn 0.08545478 -0.9926707 0.08545446
vn 0.08545479 -0.9926707 0.08545446
vn 0.08417217 -0.9928898 0.08417185
vn 0.2852909 -0.956782 -0.05636771
vn 0.285291 -0.956782 -0.05636772
vn 0.285291 -0.956782 -0.05636771
vn 0.2573655 -0.9625138 -0.08561659
vn -0.3370223 -0.8791088 0.3370218
vn -0.3370223 -0.8791088 0.3370218
vn -0.3370223 -0.8791088 0.3370218
vn -0.3366226 -0.8757479 0.3460502
vn 0.6637044 0.07533048 0.7441921
vn 0.6637035 0.07533279 0.7441927
vn 0.6637035 0.07533268 0.7441927
vn 0.6637035 0.07533269 0.7441927
vn 0.6637035 0.07533268 0.7441927
vn 0.6637038 0.07533323 0.7441923
vn 0.6637009 0.07532846 0.7441954
vn -0.5709301 0.7798611 -0.2566234
vn -0.5590457 0.7886584 -0.255902
vn -0.5709301 0.779861 -0.2566234
vn -0.5709301 0.7798611 -0.2566234
vn -0.5881105 0.7659596 -0.2596766
vn 0.08545479 -0.9926707 -0.08545519
vn 0.08545479 -0.9926707 -0.08545519
vn 0.08545478 -0.9926707 -0.08545521
vn 0.08417217 -0.9928898 -0.08417257
vn -0.08563229 -0.963153 0.2549578
vn -0.08563227 -0.963153 0.2549578
vn -0.08563228 -0.963153 0.2549578
vn -0.0881821 -0.9622746 0.2573937
vn -0.08545479 -0.9926707 0.08545448
vn -0.08545478 -0.9926707 0.08545447
vn -0.08545479 -0.9926707 0.08545448
vn -0.08417218 -0.9928898 0.08417185
g Ball_Uv_01_Explode_Thin_12_Hull_0
f 3/3/3 2/2/2 1/1/1
f 6/6/6 5/5/5 4/4/4
f 9/9/9 8/8/8 7/7/7
f 12/12/12 11/11/11 10/10/10
f 15/15/15 14/14/14 13/13/13
f 18/18/18 17/17/17 16/16/16
f 21/21/21 20/20/20 19/19/19
f 24/24/24 23/23/23 22/22/22
f 27/27/27 26/26/26 25/25/25
f 30/30/30 29/29/29 28/28/28
f 33/33/33 32/32/32 31/31/31
f 36/36/36 35/35/35 34/34/34
f 39/39/39 38/38/38 37/37/37
f 42/42/42 41/41/41 40/40/40
f 45/45/45 44/44/44 43/43/43
f 48/48/48 47/47/47 46/46/46
f 51/51/51 50/50/50 49/49/49
f 54/54/54 53/53/53 52/52/52
f 57/57/57 56/56/56 55/55/55
f 60/60/60 59/59/59 58/58/58
f 63/63/63 62/62/62 61/61/61
f 66/66/66 65/65/65 64/64/64
f 69/69/69 68/68/68 67/67/67
f 72/72/72 71/71/71 70/70/70
f 75/75/75 74/74/74 73/73/73
f 78/78/78 77/77/77 76/76/76
f 81/81/81 80/80/80 79/79/79
f 84/84/84 83/83/83 82/82/82
f 87/87/87 86/86/86 85/85/85
f 90/90/90 89/89/89 88/88/88
f 93/93/93 92/92/92 91/91/91
f 96/96/96 95/95/95 94/94/94
f 95/95/95 96/96/96 97/97/97
f 100/100/100 99/99/99 98/98/98
f 100/100/100 98/98/98 101/101/101
f 104/104/104 103/103/103 102/102/102
f 103/103/103 105/105/105 102/102/102
f 108/108/108 107/107/107 106/106/106
f 107/107/107 109/109/109 106/106/106
f 109/109/109 107/107/107 110/110/110
f 113/113/113 112/112/112 111/111/111
f 111/111/111 112/112/112 114/114/114
f 117/117/117 116/116/116 115/115/115
f 117/117/117 115/115/115 118/118/118
f 121/121/121 120/120/120 119/119/119
f 122/122/122 121/121/121 119/119/119
f 125/125/125 124/124/124 123/123/123
f 125/125/125 126/126/126 124/124/124
f 125/125/125 127/127/127 126/126/126
f 126/126/126 127/127/127 128/128/128
f 128/128/128 127/127/127 129/129/129
f 132/132/132 131/131/131 130/130/130
f 133/133/133 132/132/132 130/130/130
f 133/133/133 130/130/130 134/134/134
f 137/137/137 136/136/136 135/135/135
f 136/136/136 137/137/137 138/138/138
f 141/141/141 140/140/140 139/139/139
f 140/140/140 142/142/142 139/139/139
f 145/145/145 144/144/144 143/143/143
f 144/144/144 145/145/145 146/146/146
