g Ball_Uv_01_Explode_Thin_07_Hull
v -0.1335894 0.2058477 0.01946383
v -0.1380968 0.2104818 0.1523044
v -0.02928163 0.02202529 -0.2330545
v 0.08893776 -0.05883523 -0.1644003
v 0.06138734 0.007140575 -0.1521211
v -0.02928163 0.02202529 -0.2330545
v -0.1377049 0.2250809 0.104788
v -0.1380968 0.2104818 0.1523044
v -0.1335894 0.2058477 0.01946383
v -0.04538935 0.1139175 -0.1521211
v -0.08493098 0.1709884 -0.08066528
v -0.02928163 0.02202529 -0.2330545
v -0.04538935 0.1139175 -0.1521211
v -0.02928163 0.02202529 -0.2330545
v 0.06138734 0.007140575 -0.1521211
v 0.1376686 -0.1337373 -0.09177242
v 0.08893776 -0.05883523 -0.1644003
v -0.02928163 0.02202529 -0.2330545
v 0.1376686 -0.1337373 -0.09177242
v 0.1489474 -0.1275536 -0.08861788
v 0.08893776 -0.05883523 -0.1644003
v 0.1376686 -0.1337373 -0.09177242
v -0.02928163 0.02202529 -0.2330545
v -0.1380968 0.2104818 0.1523044
v 0.1136292 0.03287438 0.1976709
v 0.1635598 -0.05120961 0.1047879
v 0.1349438 -0.03158806 0.2330255
v 0.1136292 0.03287438 0.1976709
v 0.1207952 0.03752405 0.1047879
v 0.1635598 -0.05120961 0.1047879
v 0.0390594 0.0915895 -0.07157117
v -0.04538935 0.1139175 -0.1521211
v 0.06138734 0.007140575 -0.1521211
v 0.0390594 0.0915895 -0.07157117
v 0.1136292 0.03287446 0.01190497
v 0.05504723 0.1075773 0.01356123
v -0.01965552 0.1661592 0.01190502
v 0.0390594 0.0915895 -0.07157117
v 0.05504723 0.1075773 0.01356123
v -0.01965552 0.1661592 0.01190502
v -0.106876 0.2080947 0.008401241
v -0.08493098 0.1709884 -0.08066528
v 0.0610729 0.1136028 0.1047879
v 0.1136292 0.03287438 0.1976709
v 0.04113471 0.1184875 0.1963232
v 0.0610729 0.1136028 0.1047879
v 0.1207952 0.03752405 0.1047879
v 0.1136292 0.03287438 0.1976709
v -0.1255219 0.213021 0.007733366
v -0.08493098 0.1709884 -0.08066528
v -0.106876 0.2080947 0.008401241
v -0.1255219 0.213021 0.007733366
v -0.1377049 0.2250809 0.104788
v -0.1335894 0.2058477 0.01946383
v -0.1355398 0.2201129 0.1531839
v -0.1380968 0.2104818 0.1523044
v -0.1377049 0.2250809 0.104788
v 0.1648161 -0.0893626 0.007146861
v 0.1635598 -0.05120961 0.1047879
v 0.1555647 -0.05434608 0.008401136
v 0.1648161 -0.0893626 0.007146861
v 0.1349438 -0.03158806 0.2330255
v 0.1635598 -0.05120961 0.1047879
v 0.1084769 0.02995458 0.2199143
v 0.1136292 0.03287438 0.1976709
v 0.1349438 -0.03158806 0.2330255
v 0.1084769 0.02995458 0.2199143
v 0.04113471 0.1184875 0.1963232
v 0.1136292 0.03287438 0.1976709
v 0.1320288 -0.06151875 -0.0834618
v 0.08893776 -0.05883523 -0.1644003
v 0.1489474 -0.1275536 -0.08861788
v 0.1320288 -0.06151875 -0.0834618
v 0.1555647 -0.05434608 0.008401136
v 0.1136292 0.03287446 0.01190497
v 0.1320288 -0.06151875 -0.0834618
v 0.06138734 0.007140575 -0.1521211
v 0.08893776 -0.05883523 -0.1644003
v 0.1262702 -0.03586206 0.2304618
v 0.1376686 -0.1337373 -0.09177242
v -0.1380968 0.2104818 0.1523044
v 0.1262702 -0.03586206 0.2304618
v 0.1349438 -0.03158806 0.2330255
v 0.1376686 -0.1337373 -0.09177242
v -0.1335894 0.2058477 0.01946383
v -0.02928163 0.02202529 -0.2330545
v -0.08493098 0.1709884 -0.08066528
v -0.1255219 0.213021 0.007733366
v 0.1376686 -0.1337373 -0.09177242
v 0.1349438 -0.03158806 0.2330255
v 0.1489474 -0.1275536 -0.08861788
v 0.1648161 -0.0893626 0.007146861
v -0.1055122 0.2115712 0.1592626
v -0.1037396 0.2160898 0.104788
v -0.01500591 0.1733253 0.104788
v -0.01875097 0.1675532 0.1796023
v -0.106876 0.2080947 0.008401241
v -0.01500591 0.1733253 0.104788
v -0.1037396 0.2160898 0.104788
v -0.01965552 0.1661592 0.01190502
v 0.1555647 -0.05434608 0.008401136
v 0.1207952 0.03752405 0.1047879
v 0.1136292 0.03287446 0.01190497
v 0.1635598 -0.05120961 0.1047879
v 0.0390594 0.0915895 -0.07157117
v -0.08493098 0.1709884 -0.08066528
v -0.04538935 0.1139175 -0.1521211
v -0.01965552 0.1661592 0.01190502
v 0.0390594 0.0915895 -0.07157117
v 0.06138734 0.007140575 -0.1521211
v 0.1136292 0.03287446 0.01190497
v 0.1320288 -0.06151875 -0.0834618
v 0.0610729 0.1136028 0.1047879
v -0.01965552 0.1661592 0.01190502
v 0.05504723 0.1075773 0.01356123
v -0.01500591 0.1733253 0.104788
v 0.0610729 0.1136028 0.1047879
v 0.05504723 0.1075773 0.01356123
v 0.1136292 0.03287446 0.01190497
v 0.1207952 0.03752405 0.1047879
v 0.0610729 0.1136028 0.1047879
v -0.01875097 0.1675532 0.1796023
v -0.01500591 0.1733253 0.104788
v 0.04113471 0.1184875 0.1963232
v -0.1255219 0.213021 0.007733366
v -0.1037396 0.2160898 0.104788
v -0.1377049 0.2250809 0.104788
v -0.106876 0.2080947 0.008401241
v -0.1355398 0.2201129 0.1531839
v -0.1377049 0.2250809 0.104788
v -0.1037396 0.2160898 0.104788
v -0.1055122 0.2115712 0.1592626
v -0.1355398 0.2201129 0.1531839
v -0.1055122 0.2115712 0.1592626
v 0.1349438 -0.03158806 0.2330255
v -0.01875097 0.1675532 0.1796023
v 0.04113471 0.1184875 0.1963232
v 0.1084769 0.02995458 0.2199143
v 0.1648161 -0.0893626 0.007146861
v 0.1555647 -0.05434608 0.008401136
v 0.1489474 -0.1275536 -0.08861788
v 0.1320288 -0.06151875 -0.0834618
v 0.1262702 -0.03586206 0.2304618
v -0.1355398 0.2201129 0.1531839
v 0.1349438 -0.03158806 0.2330255
v -0.1380968 0.2104818 0.1523044
vn -0.8772348 -0.4798849 -0.01302422
vn -0.8772348 -0.4798849 -0.01302422
vn -0.8772348 -0.4798849 -0.01302422
vn 0.6475971 0.3920342 -0.6533967
vn 0.647597 0.3920341 -0.6533967
vn 0.6475971 0.3920342 -0.6533967
vn -0.9967083 -0.07482383 -0.03120849
vn -0.9967083 -0.07482383 -0.03120849
vn -0.9967083 -0.07482384 -0.03120849
vn -0.4968802 0.5228997 -0.6925936
vn -0.4968802 0.5228997 -0.6925936
vn -0.4968802 0.5228998 -0.6925936
vn 0.5895833 0.5895823 -0.5520726
vn 0.5895832 0.5895823 -0.5520726
vn 0.5895832 0.5895823 -0.5520726
vn -0.1011425 -0.7256884 -0.6805487
vn -0.1011425 -0.7256884 -0.6805487
vn -0.1011425 -0.7256884 -0.6805487
vn 0.4593629 -0.4459864 -0.7681679
vn 0.4593628 -0.4459863 -0.7681679
vn 0.4593628 -0.4459863 -0.7681679
vn -0.7304388 -0.6719307 0.1223454
vn -0.7304388 -0.6719306 0.1223454
vn -0.7304388 -0.6719306 0.1223454
vn 0.9128572 0.3815401 0.1453233
vn 0.9128572 0.3815401 0.1453233
vn 0.9128572 0.3815401 0.1453233
vn 0.8971134 0.4323569 0.09085722
vn 0.8971134 0.4323569 0.09085722
vn 0.8971134 0.4323569 0.09085722
vn 0.6207995 0.6207985 -0.4787662
vn 0.6207995 0.6207984 -0.4787662
vn 0.6207995 0.6207985 -0.4787663
vn 0.7581112 0.6001664 -0.2550836
vn 0.7581112 0.6001665 -0.2550836
vn 0.7581112 0.6001664 -0.2550836
vn 0.6001664 0.7581114 -0.2550835
vn 0.6001664 0.7581114 -0.2550835
vn 0.6001664 0.7581112 -0.2550835
vn 0.4272098 0.8671517 -0.2560073
vn 0.4272098 0.8671517 -0.2560073
vn 0.4272098 0.8671517 -0.2560073
vn 0.7556322 0.6418973 0.1303373
vn 0.7556322 0.6418973 0.1303373
vn 0.7556322 0.6418973 0.1303373
vn 0.7833093 0.6149035 0.09121524
vn 0.7833093 0.6149035 0.09121522
vn 0.7833093 0.6149035 0.09121523
vn 0.2527924 0.9136455 -0.3183519
vn 0.2527924 0.9136455 -0.3183518
vn 0.2527924 0.9136455 -0.3183519
vn -0.7826667 0.598044 -0.1725578
vn -0.7826667 0.598044 -0.1725578
vn -0.7826667 0.598044 -0.1725578
vn -0.9657634 0.2501128 0.06888118
vn -0.9657634 0.2501128 0.06888118
vn -0.9657634 0.2501128 0.06888118
vn 0.9622734 0.2573941 -0.08819412
vn 0.9622734 0.2573941 -0.08819412
vn 0.9622734 0.2573941 -0.08819412
vn 0.7234114 -0.6398612 0.2593327
vn 0.7234114 -0.6398613 0.2593328
vn 0.7234114 -0.6398612 0.2593327
vn 0.8667592 0.4274818 0.2568805
vn 0.8667592 0.4274818 0.2568805
vn 0.8667592 0.4274818 0.2568805
vn 0.7363721 0.6275183 0.252937
vn 0.7363719 0.6275183 0.2529369
vn 0.7363721 0.6275183 0.252937
vn 0.8570939 0.2545641 -0.4478696
vn 0.8570939 0.2545641 -0.4478697
vn 0.8570939 0.2545641 -0.4478696
vn 0.8672658 0.4272464 -0.2555591
vn 0.8672658 0.4272464 -0.2555591
vn 0.8672658 0.4272464 -0.2555591
vn 0.8086405 0.4152386 -0.4167463
vn 0.8086405 0.4152386 -0.4167463
vn 0.8086405 0.4152386 -0.4167463
vn -0.698684 -0.6910481 0.1851842
vn -0.698684 -0.6910481 0.1851842
vn -0.698684 -0.6910481 0.1851842
vn 0.3552798 -0.8908431 0.2831516
vn 0.3552798 -0.8908431 0.2831515
vn 0.3552798 -0.8908431 0.2831515
vn -0.863103 0.1656315 -0.4770947
vn -0.863103 0.1656315 -0.4770947
vn -0.863103 0.1656315 -0.4770947
vn -0.8584812 0.1805087 -0.4800279
vn 0.4008807 -0.8729608 0.2779101
vn 0.4008807 -0.8729608 0.2779101
vn 0.4008807 -0.8729608 0.2779101
vn 0.4158612 -0.8663475 0.2765892
vn 0.432449 0.8973044 0.08850236
vn 0.432449 0.8973044 0.08850236
vn 0.432449 0.8973044 0.08850236
vn 0.4335506 0.8965356 0.09087247
vn 0.4324491 0.8973045 -0.08850127
vn 0.432449 0.8973045 -0.08850127
vn 0.4324491 0.8973045 -0.08850127
vn 0.4344859 0.8960815 -0.0908839
vn 0.8960816 0.4344858 -0.09088382
vn 0.8960816 0.4344858 -0.09088381
vn 0.8960816 0.4344858 -0.09088384
vn 0.8973045 0.4324491 -0.08850147
vn 0.5255403 0.7824247 -0.3340943
vn 0.5255403 0.7824247 -0.3340943
vn 0.5255402 0.7824247 -0.3340942
vn 0.5260957 0.7837512 -0.330087
vn 0.7843035 0.5240542 -0.3320169
vn 0.7843035 0.5240542 -0.3320169
vn 0.7843035 0.5240542 -0.3320169
vn 0.8034458 0.4933446 -0.3332956
vn 0.6157144 0.7825385 -0.09235531
vn 0.6157143 0.7825385 -0.0923553
vn 0.6157143 0.7825385 -0.09235531
vn 0.6149039 0.783309 -0.09121487
vn 0.7825385 0.6157143 -0.09235562
vn 0.7825384 0.6157143 -0.09235561
vn 0.7825385 0.6157143 -0.09235562
vn 0.7833093 0.6149035 -0.09121474
vn 0.6149039 0.783309 0.09121498
vn 0.6149039 0.783309 0.09121498
vn 0.6149038 0.783309 0.09121496
vn 0.6155134 0.7827026 0.09230263
vn 0.2549146 0.9629819 -0.08765958
vn 0.2549146 0.9629819 -0.08765958
vn 0.2549146 0.9629819 -0.08765958
vn 0.257396 0.9622729 -0.08819406
vn 0.2549194 0.9629999 0.08744961
vn 0.2549194 0.9629999 0.0874496
vn 0.2549194 0.9629999 0.0874496
vn 0.2559875 0.9626498 0.08818054
vn -0.1579581 0.1403024 0.9774275
vn -0.1579582 0.1403026 0.9774274
vn -0.1579581 0.1403027 0.9774275
vn -0.1579581 0.1403027 0.9774275
vn -0.1579581 0.1403027 0.9774275
vn -0.1579587 0.1403023 0.9774274
vn 0.9322094 0.2554745 -0.2563557
vn 0.9322094 0.2554745 -0.2563557
vn 0.9322094 0.2554745 -0.2563557
vn 0.9307001 0.2586478 -0.2586472
vn -0.2833347 -0.0002684328 0.959021
vn -0.2833346 -0.0002684328 0.959021
vn -0.2833347 -0.0002684328 0.959021
vn -0.2919158 -0.0098385 0.9563934
g Ball_Uv_01_Explode_Thin_07_Hull_0
f 3/3/3 2/2/2 1/1/1
f 6/6/6 5/5/5 4/4/4
f 9/9/9 8/8/8 7/7/7
f 12/12/12 11/11/11 10/10/10
f 15/15/15 14/14/14 13/13/13
f 18/18/18 17/17/17 16/16/16
f 21/21/21 20/20/20 19/19/19
f 24/24/24 23/23/23 22/22/22
f 27/27/27 26/26/26 25/25/25
f 30/30/30 29/29/29 28/28/28
f 33/33/33 32/32/32 31/31/31
f 36/36/36 35/35/35 34/34/34
f 39/39/39 38/38/38 37/37/37
f 42/42/42 41/41/41 40/40/40
f 45/45/45 44/44/44 43/43/43
f 48/48/48 47/47/47 46/46/46
f 51/51/51 50/50/50 49/49/49
f 54/54/54 53/53/53 52/52/52
f 57/57/57 56/56/56 55/55/55
f 60/60/60 59/59/59 58/58/58
f 63/63/63 62/62/62 61/61/61
f 66/66/66 65/65/65 64/64/64
f 69/69/69 68/68/68 67/67/67
f 72/72/72 71/71/71 70/70/70
f 75/75/75 74/74/74 73/73/73
f 78/78/78 77/77/77 76/76/76
f 81/81/81 80/80/80 79/79/79
f 84/84/84 83/83/83 82/82/82
f 87/87/87 86/86/86 85/85/85
f 87/87/87 85/85/85 88/88/88
f 91/91/91 90/90/90 89/89/89
f 90/90/90 91/91/91 92/92/92
f 95/95/95 94/94/94 93/93/93
f 96/96/96 95/95/95 93/93/93
f 99/99/99 98/98/98 97/97/97
f 97/97/97 98/98/98 100/100/100
f 103/103/103 102/102/102 101/101/101
f 102/102/102 104/104/104 101/101/101
f 107/107/107 106/106/106 105/105/105
f 105/105/105 106/106/106 108/108/108
f 111/111/111 110/110/110 109/109/109
f 110/110/110 111/111/111 112/112/112
f 115/115/115 114/114/114 113/113/113
f 114/114/114 116/116/116 113/113/113
f 119/119/119 118/118/118 117/117/117
f 120/120/120 119/119/119 117/117/117
f 123/123/123 122/122/122 121/121/121
f 122/122/122 124/124/124 121/121/121
f 127/127/127 126/126/126 125/125/125
f 126/126/126 128/128/128 125/125/125
f 131/131/131 130/130/130 129/129/129
f 132/132/132 131/131/131 129/129/129
f 135/135/135 134/134/134 133/133/133
f 135/135/135 136/136/136 134/134/134
f 135/135/135 137/137/137 136/136/136
f 137/137/137 135/135/135 138/138/138
f 141/141/141 140/140/140 139/139/139
f 140/140/140 141/141/141 142/142/142
f 145/145/145 144/144/144 143/143/143
f 144/144/144 146/146/146 143/143/143
