g Ball_Uv_01_Explode_Thin_01
v 0.1452733 0.239115 0.03903599
v 0.1442094 0.2394072 0.04002447
v 0.1447872 0.2391975 0.03902423
v 0.2091208 0.2364652 0.08404084
v 0.1465415 0.2490045 0.03816147
v 0.2176476 0.2292979 0.03019575
v 0.1465575 0.2490897 0.03916701
v 0.1621186 0.2488064 0.08245473
v 0.1461242 0.249042 0.03818155
v 0.1447872 0.2391975 0.03902423
v 0.2065555 0.2268389 0.08490889
v 0.2150782 0.2196733 0.03106997
v 0.1442094 0.2394072 0.04002447
v 0.1595613 0.2391769 0.08331101
v 0.2065555 0.2268389 0.08490889
v 0.2176476 0.2292979 0.03019575
v 0.2150782 0.2196733 0.03106997
v 0.2091208 0.2364652 0.08404084
v 0.2150782 0.2196733 0.03106997
v 0.1465415 0.2490045 0.03816147
v 0.1447872 0.2391975 0.03902423
v 0.2176476 0.2292979 0.03019575
v 0.1442094 0.2394072 0.04002447
v 0.1621186 0.2488064 0.08245473
v 0.1595613 0.2391769 0.08331101
v 0.1465575 0.2490897 0.03916701
v 0.1452733 0.239115 0.03903599
v 0.1461242 0.249042 0.03818155
v 0.1595613 0.2391769 0.08331101
v 0.2091208 0.2364652 0.08404084
v 0.2065555 0.2268389 0.08490889
v 0.1621186 0.2488064 0.08245473
v 0.1447872 0.2391975 0.03902423
v 0.1461242 0.249042 0.03818155
v 0.1452733 0.239115 0.03903599
v 0.1465415 0.2490045 0.03816147
vt 0.6244789 0.5979402
vt 0.625 0.5967116
vt 0.625 0.5979713
vt 0.705027 0.5413812
vt 0.625 0.5979713
vt 0.7180912 0.6108977
vt 0.625 0.5967116
vt 0.6442481 0.5426941
vt 0.6244789 0.5979402
vt 0.625 0.5979713
vt 0.705027 0.5413812
vt 0.7180912 0.6108977
vt 0.625 0.5967116
vt 0.6442481 0.5426941
vt 0.705027 0.5413812
vt 0.7180912 0.6108977
vt 0.7180912 0.6108977
vt 0.705027 0.5413812
vt 0.7180912 0.6108977
vt 0.625 0.5979713
vt 0.625 0.5979713
vt 0.7180912 0.6108977
vt 0.625 0.5967116
vt 0.6442481 0.5426941
vt 0.6442481 0.5426941
vt 0.625 0.5967116
vt 0.6244789 0.5979402
vt 0.6244789 0.5979402
vt 0.6442481 0.5426941
vt 0.705027 0.5413812
vt 0.705027 0.5413812
vt 0.6442481 0.5426941
vt 0.625 0.5979713
vt 0.6244789 0.5979402
vt 0.6244789 0.5979402
vt 0.625 0.5979713
vn 0.1688624 0.9797221 -0.1078425
vn 0.1688624 0.9797221 -0.1078425
vn 0.1688624 0.9797221 -0.1078425
vn 0.2565272 0.9626312 -0.0868045
vn 0.1754326 0.9807037 -0.08627587
vn 0.2569466 0.9624634 -0.08742242
vn 0.2348087 0.9682522 -0.08574668
vn 0.2557284 0.962949 -0.08562801
vn 0.08508699 0.9927032 -0.08544403
vn -0.2465555 -0.9664807 0.07159163
vn -0.2567049 -0.9626086 0.08652978
vn -0.2574204 -0.9623449 0.08733169
vn -0.2451515 -0.9669718 0.06975799
vn -0.2557275 -0.9629541 0.0855737
vn 0.953978 -0.2377838 0.1827148
vn 0.9539204 -0.2380326 0.182692
vn 0.9539118 -0.2380697 0.1826886
vn 0.9539866 -0.2377468 0.1827182
vn -0.1267889 -0.05683295 -0.9903002
vn -0.1294204 -0.06315671 -0.9895765
vn -0.1297072 -0.06384666 -0.9894946
vn -0.1265175 -0.0561813 -0.9903721
vn -0.9476962 0.2103024 -0.2400931
vn -0.9076248 0.2669609 0.3239582
vn -0.9071207 0.2696377 0.3231525
vn -0.9291729 0.18514 0.3199389
vn -0.7119623 0.1007862 -0.6949474
vn -0.9116389 0.1121706 0.3953889
vn -0.009669764 0.09127685 0.9957786
vn -0.00961874 0.09218694 0.9956952
vn -0.009609851 0.09234548 0.9956806
vn -0.009678646 0.09111837 0.995793
vn -0.01113674 0.08678285 0.996165
vn -0.05689763 -0.07747494 -0.9953694
vn -0.009414421 0.08655217 0.9962028
vn -0.054883 -0.07775635 -0.9954606
g Ball_Uv_01_Explode_Thin_01_0
f 3/3/3 2/2/2 1/1/1
f 6/6/6 5/5/5 4/4/4
f 5/5/5 7/7/7 4/4/4
f 7/7/7 8/8/8 4/4/4
f 5/5/5 9/9/9 7/7/7
f 12/12/12 11/11/11 10/10/10
f 11/11/11 13/13/13 10/10/10
f 14/14/14 13/13/13 11/11/11
f 17/17/17 16/16/16 15/15/15
f 18/18/18 15/15/15 16/16/16
f 21/21/21 20/20/20 19/19/19
f 22/22/22 19/19/19 20/20/20
f 25/25/25 24/24/24 23/23/23
f 26/26/26 23/23/23 24/24/24
f 23/23/23 26/26/26 27/27/27
f 28/28/28 27/27/27 26/26/26
f 31/31/31 30/30/30 29/29/29
f 32/32/32 29/29/29 30/30/30
f 35/35/35 34/34/34 33/33/33
f 36/36/36 33/33/33 34/34/34
