g Ball_gb_001_Explode_Thin_08_Hull
v -0.09603944 -0.1234379 -0.2958095
v -0.1014453 -0.1399512 -0.3063335
v -0.09854399 -0.1408933 -0.2967689
v -0.09894081 -0.1224959 -0.3053741
v -0.09854399 -0.1408933 -0.2967689
v -0.1321604 -0.1467992 -0.2871531
v -0.09603944 -0.1234379 -0.2958095
v -0.1319092 -0.1479994 -0.2873475
v -0.1350617 -0.1458572 -0.2967177
v -0.09603944 -0.1234379 -0.2958095
v -0.1321604 -0.1467992 -0.2871531
v -0.09894081 -0.1224959 -0.3053741
v -0.09894081 -0.1224959 -0.3053741
v -0.1350617 -0.1458572 -0.2967177
v -0.1014453 -0.1399512 -0.3063335
v -0.1348106 -0.1470574 -0.2969121
v -0.1348106 -0.1470574 -0.2969121
v -0.1350617 -0.1458572 -0.2967177
v -0.1321604 -0.1467992 -0.2871531
v -0.1319092 -0.1479994 -0.2873475
v -0.1348106 -0.1470574 -0.2969121
v -0.09854399 -0.1408933 -0.2967689
v -0.1014453 -0.1399512 -0.3063335
v -0.1319092 -0.1479994 -0.2873475
vn 0.9467666 -0.1194143 -0.2989533
vn 0.9467666 -0.1194143 -0.2989534
vn 0.9467666 -0.1194143 -0.2989534
vn 0.9467655 -0.1194107 -0.2989585
vn 0.2890044 -0.09383158 0.9527183
vn 0.2890044 -0.09383157 0.9527183
vn 0.2890044 -0.09383158 0.9527183
vn 0.2890067 -0.0938478 0.9527159
vn -0.4887136 0.8412785 0.2311052
vn -0.4887135 0.8412785 0.2311052
vn -0.4887136 0.8412784 0.2311052
vn -0.4887136 0.8412784 0.2311052
vn -0.2890046 0.0938319 -0.9527181
vn -0.2890046 0.0938319 -0.9527181
vn -0.2890046 0.0938319 -0.9527181
vn -0.2890069 0.09384887 -0.9527159
vn -0.93571 -0.2379822 0.260406
vn -0.93571 -0.2379822 0.260406
vn -0.93571 -0.2379822 0.2604059
vn -0.9357104 -0.2379806 0.260406
vn 0.1663184 -0.9751297 -0.1464931
vn 0.1663183 -0.9751297 -0.146493
vn 0.1663183 -0.9751297 -0.1464931
vn 0.1663184 -0.97513 -0.1464915
g Ball_gb_001_Explode_Thin_08_Hull_0
f 3/3/3 2/2/2 1/1/1
f 1/1/1 2/2/2 4/4/4
f 7/7/7 6/6/6 5/5/5
f 5/5/5 6/6/6 8/8/8
f 11/11/11 10/10/10 9/9/9
f 9/9/9 10/10/10 12/12/12
f 15/15/15 14/14/14 13/13/13
f 14/14/14 15/15/15 16/16/16
f 19/19/19 18/18/18 17/17/17
f 19/19/19 17/17/17 20/20/20
f 23/23/23 22/22/22 21/21/21
f 21/21/21 22/22/22 24/24/24
