g Ball_Uv_01_Explode_Thin_13_Hull
v -0.1310149 -0.1746317 0.1430828
v -0.163007 -0.01336849 0.293446
v 0.1822748 -0.02205563 -0.2837883
v 0.09064022 -0.1062373 -0.2428663
v -0.1310149 -0.1746317 0.1430828
v 0.1822748 -0.02205563 -0.2837883
v 0.09064022 -0.1062373 -0.2428663
v 0.1822748 -0.02205563 -0.2837883
v 0.1797002 -0.0229378 -0.2934136
v -0.101679 -0.1685673 -0.004164519
v -0.113821 -0.1425142 -0.006666593
v -0.1310149 -0.1746317 0.1430828
v -0.1796643 0.04572071 0.1815685
v -0.163007 -0.01336849 0.293446
v -0.1710698 -0.05565996 0.1815684
v -0.1762886 0.08554023 0.1815685
v -0.163007 -0.01336849 0.293446
v -0.1796643 0.04572071 0.1815685
v 0.1204878 0.04572089 -0.2835588
v 0.1797002 -0.0229378 -0.2934136
v 0.1822748 -0.02205563 -0.2837883
v 0.1204878 0.04572089 -0.2835588
v 0.1822748 -0.02205563 -0.2837883
v 0.03682287 0.1180494 -0.2359119
v 0.1204878 0.04572089 -0.2835588
v 0.03682287 0.1180494 -0.2359119
v 0.03320219 0.04572088 -0.2414922
v -0.03684548 0.1369405 -0.1757493
v -0.08707573 0.1746326 -0.09632198
v -0.1025884 0.04572082 -0.1057016
v -0.03255728 0.1597743 -0.1714611
v -0.03684548 0.1369405 -0.1757493
v 0.03682287 0.1180494 -0.2359119
v -0.03255728 0.1597743 -0.1714611
v -0.08707573 0.1746326 -0.09632198
v -0.03684548 0.1369405 -0.1757493
v -0.1373551 0.1421 -0.01383854
v -0.1025884 0.04572082 -0.1057016
v -0.08707573 0.1746326 -0.09632198
v -0.1305898 0.1685055 -0.01177679
v -0.1373551 0.1421 -0.01383854
v -0.08707573 0.1746326 -0.09632198
v -0.1305898 0.1685055 -0.01177679
v -0.1629507 0.1415481 0.0817021
v -0.1373551 0.1421 -0.01383854
v -0.1481019 -0.1424253 0.1815684
v -0.163007 -0.01336849 0.293446
v -0.1310149 -0.1746317 0.1430828
v -0.1481019 -0.1424253 0.1815684
v -0.1710698 -0.05565996 0.1815684
v -0.163007 -0.01336849 0.293446
v -0.01711017 -0.1426153 -0.1560141
v 0.09064022 -0.1062373 -0.2428663
v -0.02085891 -0.1306245 -0.1597628
v 0.03785145 -0.04715483 -0.2343267
v -0.02085891 -0.1306245 -0.1597628
v 0.09064022 -0.1062373 -0.2428663
v 0.03785145 -0.04715483 -0.2343267
v -0.03684548 -0.04549879 -0.1757494
v -0.02085891 -0.1306245 -0.1597628
v 0.03785145 -0.04715483 -0.2343267
v 0.1204878 0.04572089 -0.2835588
v 0.03320219 0.04572088 -0.2414922
v -0.07517901 -0.1345513 -0.08958026
v -0.113821 -0.1425142 -0.006666593
v -0.101679 -0.1685673 -0.004164519
v -0.07517901 -0.1345513 -0.08958026
v -0.101679 -0.1685673 -0.004164519
v -0.01711017 -0.1426153 -0.1560141
v -0.07517901 -0.1345513 -0.08958026
v -0.01711017 -0.1426153 -0.1560141
v -0.02085891 -0.1306245 -0.1597628
v -0.1626138 -0.05408292 0.08176479
v -0.113821 -0.1425142 -0.006666593
v -0.1373551 -0.05065843 -0.01383871
v -0.1626138 -0.05408292 0.08176479
v -0.1710698 -0.05565996 0.1815684
v -0.1481019 -0.1424253 0.1815684
v -0.1453496 0.04572079 -0.01697483
v -0.1025884 0.04572082 -0.1057016
v -0.1373551 0.1421 -0.01383854
v -0.04287069 0.04572086 -0.1817747
v -0.03684548 0.1369405 -0.1757493
v -0.1025884 0.04572082 -0.1057016
v -0.101679 -0.1685673 -0.004164519
v -0.1310149 -0.1746317 0.1430828
v 0.09064022 -0.1062373 -0.2428663
v -0.01711017 -0.1426153 -0.1560141
v -0.1796643 0.04572071 0.1815685
v -0.1710698 -0.05565996 0.1815684
v -0.1710698 0.04572075 0.08018781
v -0.1626138 -0.05408292 0.08176479
v -0.1762886 0.08554023 0.1815685
v -0.1710698 0.04572075 0.08018781
v -0.1629507 0.1415481 0.0817021
v -0.1796643 0.04572071 0.1815685
v -0.1762886 0.08554023 0.1815685
v 0.1822748 -0.02205563 -0.2837883
v -0.163007 -0.01336849 0.293446
v -0.1629507 0.1415481 0.0817021
v -0.1305898 0.1685055 -0.01177679
v -0.08707573 0.1746326 -0.09632198
v 0.1822748 -0.02205563 -0.2837883
v -0.03255728 0.1597743 -0.1714611
v 0.03682287 0.1180494 -0.2359119
v -0.09542285 -0.04715486 -0.1010524
v -0.1373551 -0.05065843 -0.01383871
v -0.113821 -0.1425142 -0.006666593
v -0.07517901 -0.1345513 -0.08958026
v -0.09542285 -0.04715486 -0.1010524
v -0.1025884 0.04572082 -0.1057016
v -0.1373551 -0.05065843 -0.01383871
v -0.1453496 0.04572079 -0.01697483
v 0.03785145 -0.04715483 -0.2343267
v 0.09064022 -0.1062373 -0.2428663
v 0.1797002 -0.0229378 -0.2934136
v 0.1204878 0.04572089 -0.2835588
v -0.07517901 -0.1345513 -0.08958026
v -0.02085891 -0.1306245 -0.1597628
v -0.03684548 -0.04549879 -0.1757494
v -0.09542285 -0.04715486 -0.1010524
v -0.1626138 -0.05408292 0.08176479
v -0.1310149 -0.1746317 0.1430828
v -0.113821 -0.1425142 -0.006666593
v -0.1481019 -0.1424253 0.1815684
v -0.1453496 0.04572079 -0.01697483
v -0.1626138 -0.05408292 0.08176479
v -0.1373551 -0.05065843 -0.01383871
v -0.1710698 0.04572075 0.08018781
v -0.1453496 0.04572079 -0.01697483
v -0.1629507 0.1415481 0.0817021
v -0.1710698 0.04572075 0.08018781
v -0.1373551 0.1421 -0.01383854
v -0.04287069 0.04572086 -0.1817747
v 0.03785145 -0.04715483 -0.2343267
v 0.03320219 0.04572088 -0.2414922
v -0.03684548 -0.04549879 -0.1757494
v -0.04287069 0.04572086 -0.1817747
v -0.09542285 -0.04715486 -0.1010524
v -0.03684548 -0.04549879 -0.1757494
v -0.1025884 0.04572082 -0.1057016
v -0.04287069 0.04572086 -0.1817747
v 0.03320219 0.04572088 -0.2414922
v 0.03682287 0.1180494 -0.2359119
v -0.03684548 0.1369405 -0.1757493
vn 0.8172517 -0.2978595 0.4933348
vn 0.8172517 -0.2978595 0.4933348
vn 0.8172517 -0.2978595 0.4933348
vn 0.7145475 -0.6328367 0.2982274
vn 0.7145475 -0.6328366 0.2982274
vn 0.7145475 -0.6328366 0.2982274
vn 0.6472923 -0.755123 -0.103933
vn 0.6472923 -0.755123 -0.103933
vn 0.6472923 -0.755123 -0.103933
vn -0.8820369 -0.4296492 -0.1934227
vn -0.8820369 -0.4296492 -0.1934227
vn -0.8820369 -0.4296492 -0.1934227
vn -0.9911068 -0.08402079 0.1031885
vn -0.9911068 -0.08402079 0.1031885
vn -0.9911068 -0.08402078 0.1031885
vn -0.9783759 0.08294179 0.1894759
vn -0.9783759 0.08294179 0.1894759
vn -0.9783759 0.08294179 0.1894759
vn 0.7149174 0.6525891 -0.251039
vn 0.7149173 0.6525892 -0.251039
vn 0.7149173 0.6525891 -0.251039
vn 0.7127179 0.6488322 0.2665523
vn 0.7127178 0.6488323 0.2665522
vn 0.7127178 0.6488323 0.2665522
vn -0.4323573 0.09085786 -0.8971131
vn -0.4323573 0.09085786 -0.8971131
vn -0.4323573 0.09085787 -0.8971131
vn -0.8058951 0.1388544 -0.5755455
vn -0.805895 0.1388544 -0.5755455
vn -0.8058951 0.1388544 -0.5755455
vn -0.5719178 0.2538959 -0.78003
vn -0.5719179 0.2538959 -0.78003
vn -0.5719179 0.2538959 -0.78003
vn -0.7579398 0.2550925 -0.6003791
vn -0.7579398 0.2550924 -0.600379
vn -0.7579398 0.2550925 -0.600379
vn -0.8690031 0.1391216 -0.4748459
vn -0.8690031 0.1391217 -0.474846
vn -0.8690031 0.1391217 -0.474846
vn -0.867034 0.2555383 -0.4277293
vn -0.867034 0.2555383 -0.4277293
vn -0.867034 0.2555383 -0.4277293
vn -0.9334603 0.2585695 -0.2485833
vn -0.9334603 0.2585695 -0.2485833
vn -0.9334603 0.2585696 -0.2485833
vn 0.5297599 -0.5197999 0.6701957
vn 0.5297599 -0.5197999 0.6701957
vn 0.5297599 -0.5197999 0.6701957
vn -0.9535913 -0.2524282 0.1641455
vn -0.9535913 -0.2524283 0.1641455
vn -0.9535913 -0.2524283 0.1641455
vn -0.4914435 -0.3961229 -0.7756094
vn -0.4914435 -0.3961229 -0.7756094
vn -0.4914436 -0.3961229 -0.7756094
vn -0.5117971 -0.3434604 -0.7874634
vn -0.5117971 -0.3434604 -0.7874634
vn -0.5117971 -0.3434604 -0.7874634
vn -0.6001662 -0.2550837 -0.7581114
vn -0.6001662 -0.2550837 -0.7581114
vn -0.6001662 -0.2550836 -0.7581114
vn -0.4323573 -0.09085704 -0.8971132
vn -0.4323573 -0.09085705 -0.8971132
vn -0.4323573 -0.09085703 -0.8971132
vn -0.8080264 -0.416589 -0.4165897
vn -0.8080264 -0.416589 -0.4165897
vn -0.8080264 -0.416589 -0.4165897
vn -0.6053898 -0.6569022 -0.4494248
vn -0.6053898 -0.6569022 -0.4494248
vn -0.6053898 -0.6569022 -0.4494248
vn -0.7129094 -0.4024234 -0.5742958
vn -0.7129094 -0.4024234 -0.5742958
vn -0.7129094 -0.4024234 -0.5742957
vn -0.9316039 -0.258625 -0.2553961
vn -0.9316039 -0.2586249 -0.2553961
vn -0.9316039 -0.258625 -0.2553961
vn -0.9631525 -0.2549591 -0.0856335
vn -0.9631525 -0.2549591 -0.0856335
vn -0.9631525 -0.2549591 -0.0856335
vn -0.8973043 0.0885024 -0.4324491
vn -0.8973043 0.08850239 -0.4324491
vn -0.8973043 0.0885024 -0.4324491
vn -0.7832285 0.09234592 -0.6148376
vn -0.7832285 0.09234592 -0.6148376
vn -0.7832285 0.09234593 -0.6148376
vn 0.3407823 -0.939689 0.02919204
vn 0.3407823 -0.939689 0.02919204
vn 0.3407823 -0.939689 0.02919204
vn 0.3407822 -0.939689 0.02919205
vn -0.9928898 -0.08417188 -0.08417197
vn -0.9928898 -0.08417188 -0.08417197
vn -0.9928898 -0.08417188 -0.08417196
vn -0.9926704 -0.08545598 -0.08545608
vn -0.9927387 0.08544903 -0.08466554
vn -0.9927387 0.08544904 -0.08466555
vn -0.9927387 0.08544903 -0.08466554
vn -0.9928898 0.08417233 -0.08417188
vn 0.7107968 0.5667225 0.4166455
vn 0.7107968 0.5667225 0.4166455
vn 0.7107968 0.5667225 0.4166455
vn 0.7091561 0.5703005 0.414554
vn 0.7061169 0.5804929 0.4054958
vn 0.7050325 0.5889239 0.3950922
vn 0.7052624 0.6070368 0.3662121
vn 0.7050325 0.588924 0.3950922
vn 0.7052624 0.6070367 0.3662121
vn -0.8672656 -0.2555593 -0.4272469
vn -0.8672656 -0.2555593 -0.4272469
vn -0.8672656 -0.2555592 -0.4272469
vn -0.8662961 -0.2568973 -0.4284098
vn -0.8960814 -0.0908842 -0.4344861
vn -0.8960814 -0.09088421 -0.4344861
vn -0.8960814 -0.09088421 -0.4344861
vn -0.8973044 -0.08850165 -0.4324492
vn -0.3515941 -0.1813961 -0.91841
vn -0.3515942 -0.1813961 -0.91841
vn -0.3515942 -0.1813961 -0.91841
vn -0.3534421 -0.1728577 -0.919347
vn -0.7576788 -0.2551034 -0.6007038
vn -0.7576788 -0.2551034 -0.6007038
vn -0.7576788 -0.2551034 -0.6007038
vn -0.7582541 -0.2544297 -0.6002635
vn -0.9259668 -0.3331425 -0.1777684
vn -0.9259668 -0.3331426 -0.1777684
vn -0.9259668 -0.3331425 -0.1777684
vn -0.9357765 -0.3202872 -0.1474401
vn -0.9622733 -0.08819455 -0.2573943
vn -0.9622733 -0.08819456 -0.2573943
vn -0.9622733 -0.08819456 -0.2573943
vn -0.9631525 -0.08563332 -0.2549592
vn -0.9631525 0.08563332 -0.2549591
vn -0.9631525 0.08563332 -0.2549591
vn -0.9631525 0.08563333 -0.2549592
vn -0.9623002 0.08819398 -0.2572938
vn -0.6149018 -0.09121497 -0.7833106
vn -0.6149018 -0.09121497 -0.7833106
vn -0.6149018 -0.09121495 -0.7833106
vn -0.615714 -0.09235796 -0.7825383
vn -0.7825384 -0.09235771 -0.615714
vn -0.7825384 -0.0923577 -0.615714
vn -0.7825384 -0.0923577 -0.615714
vn -0.7833105 -0.09121513 -0.6149021
vn -0.6149018 0.09121566 -0.7833106
vn -0.6149018 0.09121566 -0.7833106
vn -0.6149018 0.09121566 -0.7833106
vn -0.6155173 0.09235585 -0.7826933
g Ball_Uv_01_Explode_Thin_13_Hull_0
f 3/3/3 2/2/2 1/1/1
f 6/6/6 5/5/5 4/4/4
f 9/9/9 8/8/8 7/7/7
f 12/12/12 11/11/11 10/10/10
f 15/15/15 14/14/14 13/13/13
f 18/18/18 17/17/17 16/16/16
f 21/21/21 20/20/20 19/19/19
f 24/24/24 23/23/23 22/22/22
f 27/27/27 26/26/26 25/25/25
f 30/30/30 29/29/29 28/28/28
f 33/33/33 32/32/32 31/31/31
f 36/36/36 35/35/35 34/34/34
f 39/39/39 38/38/38 37/37/37
f 42/42/42 41/41/41 40/40/40
f 45/45/45 44/44/44 43/43/43
f 48/48/48 47/47/47 46/46/46
f 51/51/51 50/50/50 49/49/49
f 54/54/54 53/53/53 52/52/52
f 57/57/57 56/56/56 55/55/55
f 60/60/60 59/59/59 58/58/58
f 63/63/63 62/62/62 61/61/61
f 66/66/66 65/65/65 64/64/64
f 69/69/69 68/68/68 67/67/67
f 72/72/72 71/71/71 70/70/70
f 75/75/75 74/74/74 73/73/73
f 78/78/78 77/77/77 76/76/76
f 81/81/81 80/80/80 79/79/79
f 84/84/84 83/83/83 82/82/82
f 87/87/87 86/86/86 85/85/85
f 87/87/87 85/85/85 88/88/88
f 91/91/91 90/90/90 89/89/89
f 90/90/90 91/91/91 92/92/92
f 95/95/95 94/94/94 93/93/93
f 94/94/94 96/96/96 93/93/93
f 99/99/99 98/98/98 97/97/97
f 98/98/98 100/100/100 97/97/97
f 100/100/100 98/98/98 101/101/101
f 103/103/103 102/102/102 101/101/101
f 102/102/102 98/98/98 104/104/104
f 103/103/103 105/105/105 104/104/104
f 108/108/108 107/107/107 106/106/106
f 108/108/108 106/106/106 109/109/109
f 112/112/112 111/111/111 110/110/110
f 111/111/111 112/112/112 113/113/113
f 116/116/116 115/115/115 114/114/114
f 117/117/117 116/116/116 114/114/114
f 120/120/120 119/119/119 118/118/118
f 121/121/121 120/120/120 118/118/118
f 124/124/124 123/123/123 122/122/122
f 123/123/123 125/125/125 122/122/122
f 128/128/128 127/127/127 126/126/126
f 127/127/127 129/129/129 126/126/126
f 132/132/132 131/131/131 130/130/130
f 131/131/131 133/133/133 130/130/130
f 136/136/136 135/135/135 134/134/134
f 135/135/135 137/137/137 134/134/134
f 140/140/140 139/139/139 138/138/138
f 139/139/139 141/141/141 138/138/138
f 144/144/144 143/143/143 142/142/142
f 145/145/145 144/144/144 142/142/142
