g Ball_gb_001_Explode_Thin_16_Hull
v 0.03238561 0.2111499 0.2247415
v 0.03007545 -0.2216855 -0.2329932
v -0.03568662 0.189685 0.2523269
v -0.1083502 0.1324096 0.2084888
v -0.03568662 0.189685 0.2523269
v 0.03007545 -0.2216855 -0.2329932
v 0.09504455 0.09693252 -0.1223074
v 0.1172488 0.1597559 -0.0491879
v 0.001219889 0.1342727 -0.03216054
v 0.06606542 -0.198409 -0.2416182
v 0.03007545 -0.2216855 -0.2329932
v 0.03238561 0.2111499 0.2247415
v 0.001219966 -0.2061472 -0.2332091
v -0.08524936 -0.1375703 -0.1738383
v 0.03007545 -0.2216855 -0.2329932
v -0.154574 -0.02798865 -0.03873292
v 0.03007545 -0.2216855 -0.2329932
v -0.08524936 -0.1375703 -0.1738383
v -0.154574 -0.02798865 -0.03873292
v -0.1083502 0.1324096 0.2084888
v 0.03007545 -0.2216855 -0.2329932
v -0.1507693 -0.04876575 -0.0765091
v -0.154574 -0.02798865 -0.03873292
v -0.08524936 -0.1375703 -0.1738383
v -0.1507693 -0.04876575 -0.0765091
v -0.08524936 -0.1375703 -0.1738383
v -0.08524936 -0.01889229 -0.1212179
v -0.1699859 0.03506256 0.03412969
v -0.1507693 -0.04876575 -0.0765091
v -0.1610403 0.0001437187 -0.02551846
v -0.1699859 0.03506256 0.03412969
v -0.154574 -0.02798865 -0.03873292
v -0.1507693 -0.04876575 -0.0765091
v -0.1699859 0.03506256 0.03412969
v -0.08524928 0.1342728 0.0654139
v -0.1440694 0.1105928 0.1528438
v -0.08899774 0.162852 0.2245565
v -0.1083502 0.1324096 0.2084888
v -0.1440694 0.1105928 0.1528438
v -0.08899774 0.162852 0.2245565
v -0.03568662 0.189685 0.2523269
v -0.1083502 0.1324096 0.2084888
v 0.08810292 0.2013229 0.03764086
v 0.001219889 0.1342727 -0.03216054
v 0.1172488 0.1597559 -0.0491879
v 0.1260956 -0.06103986 -0.2314684
v 0.09504462 -0.06221018 -0.2286429
v 0.08075766 -0.1550776 -0.2523068
v 0.1260956 -0.06103986 -0.2314684
v 0.1681671 0.02659887 -0.1893005
v 0.09504462 -0.06221018 -0.2286429
v 0.001219966 -0.07310195 -0.202348
v 0.001219966 -0.2061472 -0.2332091
v 0.08075766 -0.1550776 -0.2523068
v 0.001219966 -0.07310195 -0.202348
v -0.08524936 -0.1375703 -0.1738383
v 0.001219966 -0.2061472 -0.2332091
v 0.001219966 -0.07310195 -0.202348
v -0.08524936 -0.01889229 -0.1212179
v -0.08524936 -0.1375703 -0.1738383
v 0.001219966 -0.07310195 -0.202348
v 0.001219966 0.006785397 -0.1596476
v -0.08524936 -0.01889229 -0.1212179
v 0.001219966 -0.07310195 -0.202348
v 0.09504462 -0.06221018 -0.2286429
v 0.001219966 0.006785397 -0.1596476
v 0.001219966 -0.07310195 -0.202348
v 0.08075766 -0.1550776 -0.2523068
v 0.09504462 -0.06221018 -0.2286429
v -0.08524936 0.04412569 -0.06950054
v -0.08524936 -0.01889229 -0.1212179
v 0.001219966 0.006785397 -0.1596476
v -0.08524936 0.04412569 -0.06950054
v 0.001219889 0.1342727 -0.03216054
v -0.08524928 0.1342728 0.0654139
v 0.001219889 0.2121471 0.2245564
v -0.03568662 0.189685 0.2523269
v -0.08899774 0.162852 0.2245565
v 0.1709625 0.01403211 -0.1849316
v 0.1681671 0.02659887 -0.1893005
v 0.1260956 -0.06103986 -0.2314684
v 0.1709625 0.01403211 -0.1849316
v 0.06606542 -0.198409 -0.2416182
v 0.03238561 0.2111499 0.2247415
v 0.144282 0.1003616 -0.1257366
v 0.1709625 0.01403211 -0.1849316
v 0.1172488 0.1597559 -0.0491879
v 0.144282 0.1003616 -0.1257366
v 0.1681671 0.02659887 -0.1893005
v 0.1709625 0.01403211 -0.1849316
v 0.144282 0.1003616 -0.1257366
v 0.09504455 0.09693252 -0.1223074
v 0.1681671 0.02659887 -0.1893005
v 0.144282 0.1003616 -0.1257366
v 0.1172488 0.1597559 -0.0491879
v 0.09504455 0.09693252 -0.1223074
v 0.001219889 0.2032684 0.1344094
v 0.001219889 0.2121471 0.2245564
v -0.08899774 0.162852 0.2245565
v 0.001219889 0.2032684 0.1344094
v 0.08810292 0.2013229 0.03764086
v 0.05827053 0.2202419 0.1310331
v 0.02948237 0.2207205 0.2245564
v 0.05827053 0.2202419 0.1310331
v 0.03238561 0.2111499 0.2247415
v 0.02948237 0.2207205 0.2245564
v 0.03238561 0.2111499 0.2247415
v -0.03568662 0.189685 0.2523269
v 0.02948237 0.2207205 0.2245564
v -0.03568662 0.189685 0.2523269
v 0.001219889 0.2121471 0.2245564
v 0.09504455 0.09693252 -0.1223074
v 0.001219889 0.1342727 -0.03216054
v 0.001219966 0.006785397 -0.1596476
v -0.08524936 0.04412569 -0.06950054
v 0.09504455 0.09693252 -0.1223074
v 0.001219966 0.006785397 -0.1596476
v 0.1681671 0.02659887 -0.1893005
v 0.09504462 -0.06221018 -0.2286429
v 0.06606542 -0.198409 -0.2416182
v 0.08075766 -0.1550776 -0.2523068
v 0.03007545 -0.2216855 -0.2329932
v 0.001219966 -0.2061472 -0.2332091
v -0.1507693 -0.04876575 -0.0765091
v -0.08524936 -0.01889229 -0.1212179
v -0.1610403 0.0001437187 -0.02551846
v -0.08524936 0.04412569 -0.06950054
v -0.1699859 0.03506256 0.03412969
v -0.1440694 0.1105928 0.1528438
v -0.1083502 0.1324096 0.2084888
v -0.154574 -0.02798865 -0.03873292
v -0.08899774 0.162852 0.2245565
v -0.1440694 0.1105928 0.1528438
v -0.08524928 0.1342728 0.0654139
v 0.001219889 0.2032684 0.1344094
v 0.08810292 0.2013229 0.03764086
v 0.03238561 0.2111499 0.2247415
v 0.05827053 0.2202419 0.1310331
v 0.1709625 0.01403211 -0.1849316
v 0.1172488 0.1597559 -0.0491879
v 0.1260956 -0.06103986 -0.2314684
v 0.08075766 -0.1550776 -0.2523068
v 0.06606542 -0.198409 -0.2416182
v 0.1709625 0.01403211 -0.1849316
v -0.08524936 0.04412569 -0.06950054
v -0.1699859 0.03506256 0.03412969
v -0.1610403 0.0001437187 -0.02551846
v -0.08524928 0.1342728 0.0654139
v 0.001219889 0.2032684 0.1344094
v 0.05827053 0.2202419 0.1310331
v 0.001219889 0.2121471 0.2245564
v 0.02948237 0.2207205 0.2245564
v 0.001219889 0.2032684 0.1344094
v -0.08524928 0.1342728 0.0654139
v 0.001219889 0.1342727 -0.03216054
v 0.08810292 0.2013229 0.03764086
vn 0.4524798 -0.6490959 0.6115034
vn 0.4524798 -0.649096 0.6115035
vn 0.4524798 -0.649096 0.6115034
vn 0.1884713 -0.7364168 0.6497452
vn 0.1884713 -0.7364168 0.6497452
vn 0.1884713 -0.7364168 0.6497452
vn -0.2549557 0.7703399 -0.5844433
vn -0.2549557 0.77034 -0.5844432
vn -0.2549556 0.7703399 -0.5844433
vn 0.5361804 -0.6146687 0.5785265
vn 0.5361804 -0.6146687 0.5785266
vn 0.5361804 -0.6146687 0.5785266
vn -0.4529996 -0.8369824 0.3070045
vn -0.4529995 -0.8369824 0.3070044
vn -0.4529995 -0.8369824 0.3070044
vn -0.3435448 -0.8078321 0.4789407
vn -0.3435448 -0.8078321 0.4789408
vn -0.3435448 -0.8078321 0.4789407
vn -0.2426554 -0.7924869 0.5595381
vn -0.2426554 -0.7924869 0.5595381
vn -0.2426554 -0.7924869 0.5595379
vn -0.4947661 -0.7815332 0.3800162
vn -0.4947661 -0.7815332 0.3800162
vn -0.4947661 -0.7815332 0.3800162
vn -0.6287689 0.3151828 -0.7108511
vn -0.6287689 0.3151828 -0.7108511
vn -0.628769 0.3151828 -0.7108511
vn -0.988325 -0.1360563 -0.06857321
vn -0.988325 -0.1360563 -0.06857321
vn -0.988325 -0.1360563 -0.06857321
vn -0.939877 -0.3302514 0.08697842
vn -0.939877 -0.3302513 0.08697842
vn -0.939877 -0.3302513 0.08697842
vn -0.6851189 0.6730321 -0.2786393
vn -0.685119 0.6730321 -0.2786394
vn -0.685119 0.673032 -0.2786393
vn -0.8496232 0.3180774 0.4206745
vn -0.8496232 0.3180775 0.4206744
vn -0.8496233 0.3180775 0.4206745
vn -0.3392048 -0.2613336 0.9036841
vn -0.3392048 -0.2613335 0.903684
vn -0.3392047 -0.2613336 0.9036841
vn -0.2549165 0.8360648 -0.4858121
vn -0.2549165 0.8360646 -0.485812
vn -0.2549164 0.8360648 -0.485812
vn -0.09721494 0.2597712 -0.9607644
vn -0.09721494 0.2597711 -0.9607643
vn -0.09721495 0.2597711 -0.9607643
vn -0.09754952 0.4691471 -0.8777158
vn -0.09754951 0.4691471 -0.8777159
vn -0.09754951 0.4691471 -0.8777158
vn -0.3543868 0.2112946 -0.9109141
vn -0.3543868 0.2112946 -0.9109141
vn -0.3543868 0.2112946 -0.9109141
vn -0.439761 0.2029377 -0.8748866
vn -0.439761 0.2029377 -0.8748866
vn -0.439761 0.2029377 -0.8748866
vn -0.5167668 0.3470151 -0.7826446
vn -0.5167668 0.3470151 -0.7826446
vn -0.5167668 0.3470151 -0.7826446
vn -0.4696286 0.4161778 -0.7786174
vn -0.4696286 0.4161778 -0.7786173
vn -0.4696286 0.4161778 -0.7786174
vn -0.2890041 0.4512796 -0.8442886
vn -0.2890041 0.4512796 -0.8442886
vn -0.2890041 0.4512796 -0.8442886
vn -0.289004 0.2778969 -0.9161059
vn -0.289004 0.2778969 -0.9161059
vn -0.289004 0.2778969 -0.9161058
vn -0.4696285 0.5600821 -0.682464
vn -0.4696286 0.5600821 -0.6824639
vn -0.4696286 0.5600821 -0.6824639
vn -0.5311694 0.7044754 -0.470716
vn -0.5311694 0.7044754 -0.470716
vn -0.5311693 0.7044754 -0.4707159
vn -0.4782355 0.8752446 0.07237289
vn -0.4782355 0.8752446 0.07237289
vn -0.4782355 0.8752446 0.07237289
vn 0.7616895 -0.05501842 -0.6456021
vn 0.7616895 -0.05501842 -0.645602
vn 0.7616895 -0.05501842 -0.6456021
vn 0.7282684 -0.4879826 0.4811426
vn 0.7282684 -0.4879826 0.4811426
vn 0.7282684 -0.4879825 0.4811426
vn 0.9626465 0.1376229 0.233177
vn 0.9626465 0.1376229 0.233177
vn 0.9626465 0.1376229 0.233177
vn 0.9665928 0.2431748 0.08101963
vn 0.9665928 0.2431748 0.08101963
vn 0.9665928 0.2431748 0.08101963
vn -0.09755071 0.631366 -0.7693249
vn -0.09755071 0.631366 -0.7693249
vn -0.09755071 0.631366 -0.7693248
vn -0.09755059 0.7693227 -0.6313686
vn -0.0975506 0.7693227 -0.6313687
vn -0.09755059 0.7693228 -0.6313686
vn -0.4777119 0.8742863 -0.0861102
vn -0.4777119 0.8742863 -0.0861102
vn -0.4777119 0.8742863 -0.0861102
vn -0.2890034 0.9161057 -0.2778981
vn -0.2890034 0.9161057 -0.2778981
vn -0.2890034 0.9161057 -0.2778981
vn 0.9169185 0.2835768 0.2807929
vn 0.9169185 0.2835768 0.2807929
vn 0.9169185 0.2835768 0.2807929
vn 0.3397682 0.1211075 0.9326793
vn 0.3397682 0.1211075 0.9326793
vn 0.3397682 0.1211075 0.9326793
vn -0.2706073 0.8920698 0.361916
vn -0.2706073 0.8920698 0.361916
vn -0.2706073 0.8920698 0.361916
vn -0.3697703 0.6569885 -0.6569902
vn -0.3697703 0.6569884 -0.6569902
vn -0.3697703 0.6569885 -0.6569902
vn -0.3964456 0.6491643 -0.6491659
vn -0.2088959 0.5518383 -0.8073642
vn -0.2088959 0.5518383 -0.8073642
vn -0.2088959 0.5518383 -0.8073642
vn -0.2088959 0.5347258 -0.8187984
vn -0.09988705 -0.2062387 -0.9733901
vn -0.09988705 -0.2062387 -0.9733901
vn -0.09988705 -0.2062387 -0.9733901
vn -0.1026611 -0.2041706 -0.9735373
vn -0.6325625 0.4913425 -0.5987045
vn -0.6325625 0.4913425 -0.5987045
vn -0.6325626 0.4913425 -0.5987045
vn -0.6325625 0.4913428 -0.5987045
vn -0.416746 -0.7230073 0.5509838
vn -0.416746 -0.7230073 0.5509838
vn -0.416746 -0.7230073 0.5509838
vn -0.3986121 -0.7335534 0.5504615
vn -0.5627953 0.8111738 -0.1589288
vn -0.5627953 0.8111738 -0.1589288
vn -0.5627953 0.8111738 -0.1589288
vn -0.5334655 0.8302292 -0.16166
vn 0.9512938 0.1371775 0.2760839
vn 0.9512939 0.1371775 0.2760839
vn 0.9512938 0.1371775 0.2760839
vn 0.9566161 0.09654263 0.2748913
vn 0.9566161 0.09654263 0.2748913
vn 0.8890792 -0.368458 -0.2716191
vn 0.8890792 -0.368458 -0.2716191
vn 0.8890792 -0.368458 -0.2716191
vn 0.8912206 -0.370088 -0.2622225
vn -0.6300751 0.6252417 -0.4605194
vn -0.6300751 0.6252417 -0.4605194
vn -0.6300751 0.6252417 -0.4605194
vn -0.6092854 0.6593145 -0.4405403
vn -0.2890034 0.9527183 -0.09383515
vn -0.2890034 0.9527183 -0.09383516
vn -0.2890034 0.9527183 -0.09383516
vn -0.2890047 0.9527177 -0.09383603
vn -0.3964461 0.8481747 -0.3513262
vn -0.3964461 0.8481748 -0.3513262
vn -0.3964461 0.8481747 -0.3513262
vn -0.3758106 0.8561556 -0.354632
g Ball_gb_001_Explode_Thin_16_Hull_0
f 3/3/3 2/2/2 1/1/1
f 6/6/6 5/5/5 4/4/4
f 9/9/9 8/8/8 7/7/7
f 12/12/12 11/11/11 10/10/10
f 15/15/15 14/14/14 13/13/13
f 18/18/18 17/17/17 16/16/16
f 21/21/21 20/20/20 19/19/19
f 24/24/24 23/23/23 22/22/22
f 27/27/27 26/26/26 25/25/25
f 30/30/30 29/29/29 28/28/28
f 33/33/33 32/32/32 31/31/31
f 36/36/36 35/35/35 34/34/34
f 39/39/39 38/38/38 37/37/37
f 42/42/42 41/41/41 40/40/40
f 45/45/45 44/44/44 43/43/43
f 48/48/48 47/47/47 46/46/46
f 51/51/51 50/50/50 49/49/49
f 54/54/54 53/53/53 52/52/52
f 57/57/57 56/56/56 55/55/55
f 60/60/60 59/59/59 58/58/58
f 63/63/63 62/62/62 61/61/61
f 66/66/66 65/65/65 64/64/64
f 69/69/69 68/68/68 67/67/67
f 72/72/72 71/71/71 70/70/70
f 75/75/75 74/74/74 73/73/73
f 78/78/78 77/77/77 76/76/76
f 81/81/81 80/80/80 79/79/79
f 84/84/84 83/83/83 82/82/82
f 87/87/87 86/86/86 85/85/85
f 90/90/90 89/89/89 88/88/88
f 93/93/93 92/92/92 91/91/91
f 96/96/96 95/95/95 94/94/94
f 99/99/99 98/98/98 97/97/97
f 102/102/102 101/101/101 100/100/100
f 105/105/105 104/104/104 103/103/103
f 108/108/108 107/107/107 106/106/106
f 111/111/111 110/110/110 109/109/109
f 114/114/114 113/113/113 112/112/112
f 113/113/113 114/114/114 115/115/115
f 118/118/118 117/117/117 116/116/116
f 117/117/117 118/118/118 119/119/119
f 122/122/122 121/121/121 120/120/120
f 121/121/121 122/122/122 123/123/123
f 126/126/126 125/125/125 124/124/124
f 125/125/125 126/126/126 127/127/127
f 130/130/130 129/129/129 128/128/128
f 131/131/131 130/130/130 128/128/128
f 134/134/134 133/133/133 132/132/132
f 134/134/134 132/132/132 135/135/135
f 138/138/138 137/137/137 136/136/136
f 136/136/136 137/137/137 139/139/139
f 140/140/140 136/136/136 139/139/139
f 143/143/143 142/142/142 141/141/141
f 143/143/143 141/141/141 144/144/144
f 147/147/147 146/146/146 145/145/145
f 146/146/146 148/148/148 145/145/145
f 151/151/151 150/150/150 149/149/149
f 150/150/150 151/151/151 152/152/152
f 155/155/155 154/154/154 153/153/153
f 156/156/156 155/155/155 153/153/153
