g Ball_gb_001_Explode_Thin_00_Hull
v 0.1587257 0.00272213 -0.0005071622
v 0.1125047 -0.1119434 0.01593078
v 0.1587257 -0.04998678 0.1007951
v 0.1587257 0.00272213 -0.0005071622
v 0.1125047 -0.0584239 -0.06165306
v 0.1125047 -0.1119434 0.01593078
v 0.1721826 0.01889552 0.2203005
v 0.1784979 0.04881199 0.2240948
v 0.1871883 0.05693442 0.1890504
v 0.1721826 0.01889552 0.2203005
v 0.1626139 0.02115015 0.2184502
v 0.1855071 0.1588694 0.235771
v 0.1721826 0.01889552 0.2203005
v 0.1855071 0.1588694 0.235771
v 0.1784979 0.04881199 0.2240948
v 0.1721826 0.01889552 0.2203005
v -0.03444274 -0.2187298 -0.08571785
v 0.1626139 0.02115015 0.2184502
v 0.1125047 0.04857348 -0.1270007
v 0.1125047 0.03172729 -0.1218904
v 0.1587257 0.08093141 -0.04688692
v -0.01824344 -0.0193695 -0.2289401
v -0.01191563 -0.02302171 -0.2357731
v 0.03810142 0.0195279 -0.2074262
v -0.01824344 -0.0193695 -0.2289401
v -0.03444274 -0.2187298 -0.08571785
v -0.01191563 -0.02302171 -0.2357731
v 0.192513 0.1742511 0.159015
v 0.1855071 0.1588694 0.235771
v 0.1825577 0.1734495 0.1584507
v -0.03914065 -0.210941 -0.0815546
v -0.03444274 -0.2187298 -0.08571785
v -0.01824344 -0.0193695 -0.2289401
v -0.03914065 -0.210941 -0.0815546
v 0.1626139 0.02115015 0.2184502
v -0.03444274 -0.2187298 -0.08571785
v 0.1759383 0.158023 0.2329799
v 0.1855071 0.1588694 0.235771
v 0.1626139 0.02115015 0.2184502
v 0.1759383 0.158023 0.2329799
v 0.1626139 0.02115015 0.2184502
v -0.03914065 -0.210941 -0.0815546
v 0.1759383 0.158023 0.2329799
v -0.03914065 -0.210941 -0.0815546
v -0.01824344 -0.0193695 -0.2289401
v 0.1759383 0.158023 0.2329799
v 0.1825577 0.1734495 0.1584507
v 0.1855071 0.1588694 0.235771
v 0.1759383 0.158023 0.2329799
v -0.01824344 -0.0193695 -0.2289401
v 0.1825577 0.1734495 0.1584507
v 0.0503017 -0.05842408 -0.1592321
v 0.0503017 -0.1120189 -0.1152479
v 0.1125047 -0.0584239 -0.06165306
v 0.0503017 -0.05842408 -0.1592321
v 0.1125047 -0.0584239 -0.06165306
v 0.1125047 0.03172729 -0.1218904
v 0.1871883 0.1007265 0.2249896
v 0.1784979 0.04881199 0.2240948
v 0.1855071 0.1588694 0.235771
v 0.1871883 0.1007265 0.2249896
v 0.1871883 0.05693442 0.1890504
v 0.1784979 0.04881199 0.2240948
v 0.03177357 0.02177732 -0.2000122
v -0.01824344 -0.0193695 -0.2289401
v 0.03810142 0.0195279 -0.2074262
v 0.03177357 0.02177732 -0.2000122
v 0.1825577 0.1734495 0.1584507
v -0.01824344 -0.0193695 -0.2289401
v 0.0503017 0.002721825 -0.1919153
v 0.03810142 0.0195279 -0.2074262
v -0.01191563 -0.02302171 -0.2357731
v 0.0503017 0.002721825 -0.1919153
v 0.0503017 -0.05842408 -0.1592321
v 0.1125047 0.03172729 -0.1218904
v 0.0503017 0.002721825 -0.1919153
v 0.1125047 0.04857348 -0.1270007
v 0.03810142 0.0195279 -0.2074262
v 0.0503017 0.002721825 -0.1919153
v 0.1125047 0.03172729 -0.1218904
v 0.1125047 0.04857348 -0.1270007
v 0.1871885 0.1183698 0.03933529
v 0.1587257 0.08093141 -0.04688692
v 0.1871883 0.0690695 0.06583992
v 0.1587257 0.00272213 -0.0005071622
v -0.01426492 -0.1494875 -0.1527162
v -0.01191563 -0.02302171 -0.2357731
v -0.03444274 -0.2187298 -0.08571785
v -0.008862963 -0.08539991 -0.1996042
v 0.0503017 -0.1658246 -0.0432778
v -0.01426492 -0.1494875 -0.1527162
v -0.03444274 -0.2187298 -0.08571785
v 0.0503017 -0.1120189 -0.1152479
v 0.0503017 -0.1658246 -0.0432778
v -0.03444274 -0.2187298 -0.08571785
v 0.1125047 -0.1119434 0.01593078
v 0.1587257 -0.04998678 0.1007951
v 0.1721826 0.01889552 0.2203005
v 0.0503017 -0.1658246 -0.0432778
v 0.1125047 -0.1119434 0.01593078
v 0.1125047 -0.0584239 -0.06165306
v 0.0503017 -0.1120189 -0.1152479
v 0.1943603 0.1628284 0.1348385
v 0.1871885 0.1183698 0.03933529
v 0.1871883 0.0690695 0.06583992
v 0.1871883 0.04048942 0.1348385
v 0.1871883 0.05693442 0.1890504
v 0.1943603 0.1628284 0.1348385
v 0.1871883 0.1007265 0.2249896
v 0.1943603 0.1628284 0.1348385
v 0.192513 0.1742511 0.159015
v 0.1855071 0.1588694 0.235771
v 0.1587257 0.00272213 -0.0005071622
v 0.1125047 0.03172729 -0.1218904
v 0.1125047 -0.0584239 -0.06165306
v 0.1587257 0.08093141 -0.04688692
v 0.1587257 0.00272213 -0.0005071622
v 0.1587257 -0.04998678 0.1007951
v 0.1871883 0.0690695 0.06583992
v 0.1871883 0.04048942 0.1348385
v 0.1125047 0.04857348 -0.1270007
v 0.1587257 0.08093141 -0.04688692
v 0.03810142 0.0195279 -0.2074262
v 0.1871885 0.1183698 0.03933529
v 0.1943603 0.1628284 0.1348385
v 0.192513 0.1742511 0.159015
v 0.192513 0.1742511 0.159015
v 0.1825577 0.1734495 0.1584507
v 0.03810142 0.0195279 -0.2074262
v 0.03177357 0.02177732 -0.2000122
v 0.0503017 -0.05842408 -0.1592321
v -0.01426492 -0.1494875 -0.1527162
v 0.0503017 -0.1120189 -0.1152479
v -0.008862963 -0.08539991 -0.1996042
v -0.008862963 -0.08539991 -0.1996042
v 0.0503017 -0.05842408 -0.1592321
v -0.01191563 -0.02302171 -0.2357731
v 0.0503017 0.002721825 -0.1919153
v 0.1871883 0.04048942 0.1348385
v 0.1721826 0.01889552 0.2203005
v 0.1871883 0.05693442 0.1890504
v 0.1587257 -0.04998678 0.1007951
vn 0.8976287 -0.3909929 -0.2034388
vn 0.8976287 -0.3909929 -0.2034388
vn 0.8976287 -0.3909929 -0.2034388
vn 0.8786384 -0.3930422 -0.2711317
vn 0.8786384 -0.3930421 -0.2711316
vn 0.8786384 -0.3930421 -0.2711317
vn 0.9565504 -0.2253824 0.1849711
vn 0.9565504 -0.2253824 0.1849711
vn 0.9565504 -0.2253824 0.1849711
vn -0.209018 -0.08774981 0.9739668
vn -0.209018 -0.0877498 0.9739668
vn -0.209018 -0.0877498 0.9739668
vn -0.1386595 -0.09574433 0.9857011
vn -0.1386595 -0.09574433 0.9857011
vn -0.1386595 -0.09574433 0.9857011
vn -0.2891483 -0.6516502 0.7012454
vn -0.2891483 -0.6516502 0.7012454
vn -0.2891483 -0.6516502 0.7012454
vn 0.8809723 -0.1373545 -0.4527929
vn 0.8809723 -0.1373545 -0.4527929
vn 0.8809723 -0.1373545 -0.4527929
vn -0.2619263 0.7291225 -0.6322776
vn -0.2619263 0.7291225 -0.6322777
vn -0.2619263 0.7291225 -0.6322776
vn -0.7741009 -0.3266698 -0.542268
vn -0.7741009 -0.3266697 -0.5422681
vn -0.7741009 -0.3266697 -0.5422681
vn -0.08940562 0.9781197 0.187852
vn -0.08940562 0.9781197 0.187852
vn -0.0894056 0.9781197 0.187852
vn -0.8465989 -0.2634431 -0.4624587
vn -0.8465989 -0.2634431 -0.4624587
vn -0.8465989 -0.2634431 -0.4624588
vn -0.3659681 -0.6006763 0.7108132
vn -0.3659681 -0.6006764 0.7108132
vn -0.3659681 -0.6006764 0.7108132
vn -0.273088 -0.07522243 0.9590435
vn -0.273088 -0.07522245 0.9590435
vn -0.273088 -0.07522243 0.9590435
vn -0.8379688 0.02369924 0.5452032
vn -0.8379688 0.02369924 0.5452033
vn -0.8379688 0.02369924 0.5452033
vn -0.9140814 0.3051761 0.2670635
vn -0.9140814 0.3051761 0.2670634
vn -0.9140814 0.3051761 0.2670635
vn -0.1409889 0.9718726 0.1886417
vn -0.1409889 0.9718726 0.1886416
vn -0.1409889 0.9718726 0.1886417
vn -0.7558658 0.6512212 0.06766008
vn -0.7558657 0.6512213 0.06766007
vn -0.7558658 0.6512212 0.06766008
vn 0.7715063 -0.4036156 -0.4918054
vn 0.7715062 -0.4036156 -0.4918054
vn 0.7715063 -0.4036156 -0.4918054
vn 0.7936054 -0.338028 -0.5058929
vn 0.7936054 -0.3380279 -0.5058928
vn 0.7936054 -0.3380279 -0.5058928
vn 0.6458324 -0.1211051 0.753813
vn 0.6458324 -0.1211051 0.753813
vn 0.6458324 -0.1211051 0.753813
vn 0.9655421 -0.1650987 0.2011733
vn 0.9655421 -0.1650987 0.2011733
vn 0.9655421 -0.1650987 0.2011733
vn -0.3382467 0.7806398 -0.5255385
vn -0.3382467 0.7806398 -0.5255385
vn -0.3382467 0.7806398 -0.5255385
vn -0.6049905 0.7921343 -0.08068273
vn -0.6049905 0.7921343 -0.08068272
vn -0.6049905 0.7921343 -0.08068272
vn 0.6231972 -0.2357963 -0.745671
vn 0.6231973 -0.2357963 -0.745671
vn 0.6231972 -0.2357963 -0.745671
vn 0.7715061 -0.2999135 -0.5610974
vn 0.7715061 -0.2999135 -0.5610974
vn 0.7715061 -0.2999135 -0.5610974
vn 0.7449098 -0.07144351 -0.6633289
vn 0.7449098 -0.07144351 -0.6633288
vn 0.7449098 -0.07144352 -0.6633288
vn 0.7715061 -0.184687 -0.608826
vn 0.771506 -0.184687 -0.608826
vn 0.7715061 -0.184687 -0.608826
vn 0.9568039 -0.1376714 -0.2560722
vn 0.9568039 -0.1376714 -0.2560722
vn 0.9568039 -0.1376714 -0.2560722
vn 0.95432 -0.1524036 -0.2569953
vn -0.6931041 -0.3866646 -0.6083562
vn -0.6931041 -0.3866646 -0.6083562
vn -0.6931041 -0.3866646 -0.6083562
vn -0.6931111 -0.3866609 -0.6083507
vn 0.6245126 -0.6294132 -0.4624101
vn 0.6245126 -0.6294132 -0.4624101
vn 0.6245126 -0.6294132 -0.4624101
vn 0.6304768 -0.6216782 -0.4647743
vn 0.2991026 -0.8409065 0.4510145
vn 0.2991039 -0.8409068 0.4510129
vn 0.2991039 -0.8409068 0.4510128
vn 0.2991039 -0.8409068 0.4510128
vn 0.2991031 -0.8409068 0.4510135
vn 0.7817237 -0.5133343 -0.3541126
vn 0.7817237 -0.5133343 -0.3541127
vn 0.7817237 -0.5133344 -0.3541126
vn 0.7697869 -0.5112262 -0.3821989
vn 0.9976829 -0.03221859 -0.05992293
vn 0.9976829 -0.03221859 -0.05992293
vn 0.9976829 -0.03221859 -0.05992293
vn 0.9979929 -0.05850627 -0.02423405
vn 0.9981287 -0.05851424 0.0177501
vn 0.9981287 -0.05851424 0.0177501
vn 0.9969922 -0.002702411 0.07745433
vn 0.9969922 -0.002702411 0.07745433
vn 0.9969922 -0.002702411 0.07745432
vn 0.995583 0.01150886 0.09317817
vn 0.8780697 -0.2658592 -0.397885
vn 0.8780697 -0.2658592 -0.397885
vn 0.8780697 -0.2658592 -0.397885
vn 0.8887402 -0.2338242 -0.3942932
vn 0.952952 -0.2688995 -0.1399119
vn 0.952952 -0.2688995 -0.1399119
vn 0.952952 -0.2688995 -0.139912
vn 0.959242 -0.2610751 -0.1081407
vn 0.1102445 0.8978619 -0.4262511
vn 0.1102467 0.8978611 -0.4262523
vn 0.1102467 0.8978611 -0.4262524
vn 0.1102467 0.8978611 -0.4262524
vn 0.1102437 0.8978621 -0.426251
vn 0.09113909 0.903071 -0.4197098
vn -0.05378382 0.9278333 -0.3690972
vn -0.05378382 0.9278333 -0.3690972
vn -0.05378382 0.9278333 -0.3690972
vn -0.08739177 0.9300923 -0.3567788
vn 0.6325626 -0.4913445 -0.5987028
vn 0.6325626 -0.4913445 -0.5987028
vn 0.6325626 -0.4913445 -0.5987028
vn 0.632562 -0.4913442 -0.5987038
vn 0.632562 -0.3651018 -0.6830564
vn 0.632562 -0.3651019 -0.6830564
vn 0.632562 -0.3651018 -0.6830564
vn 0.632562 -0.3651019 -0.6830563
vn 0.94963 -0.2998794 0.09096744
vn 0.94963 -0.2998794 0.09096744
vn 0.94963 -0.2998794 0.09096743
vn 0.9413333 -0.3272127 0.08260433
g Ball_gb_001_Explode_Thin_00_Hull_0
f 3/3/3 2/2/2 1/1/1
f 6/6/6 5/5/5 4/4/4
f 9/9/9 8/8/8 7/7/7
f 12/12/12 11/11/11 10/10/10
f 15/15/15 14/14/14 13/13/13
f 18/18/18 17/17/17 16/16/16
f 21/21/21 20/20/20 19/19/19
f 24/24/24 23/23/23 22/22/22
f 27/27/27 26/26/26 25/25/25
f 30/30/30 29/29/29 28/28/28
f 33/33/33 32/32/32 31/31/31
f 36/36/36 35/35/35 34/34/34
f 39/39/39 38/38/38 37/37/37
f 42/42/42 41/41/41 40/40/40
f 45/45/45 44/44/44 43/43/43
f 48/48/48 47/47/47 46/46/46
f 51/51/51 50/50/50 49/49/49
f 54/54/54 53/53/53 52/52/52
f 57/57/57 56/56/56 55/55/55
f 60/60/60 59/59/59 58/58/58
f 63/63/63 62/62/62 61/61/61
f 66/66/66 65/65/65 64/64/64
f 69/69/69 68/68/68 67/67/67
f 72/72/72 71/71/71 70/70/70
f 75/75/75 74/74/74 73/73/73
f 78/78/78 77/77/77 76/76/76
f 81/81/81 80/80/80 79/79/79
f 84/84/84 83/83/83 82/82/82
f 83/83/83 84/84/84 85/85/85
f 88/88/88 87/87/87 86/86/86
f 86/86/86 87/87/87 89/89/89
f 92/92/92 91/91/91 90/90/90
f 91/91/91 93/93/93 90/90/90
f 96/96/96 95/95/95 94/94/94
f 97/97/97 95/95/95 96/96/96
f 95/95/95 97/97/97 98/98/98
f 101/101/101 100/100/100 99/99/99
f 102/102/102 101/101/101 99/99/99
f 105/105/105 104/104/104 103/103/103
f 105/105/105 103/103/103 106/106/106
f 108/108/108 107/107/107 106/106/106
f 107/107/107 110/110/110 109/109/109
f 110/110/110 111/111/111 109/109/109
f 111/111/111 112/112/112 109/109/109
f 115/115/115 114/114/114 113/113/113
f 114/114/114 116/116/116 113/113/113
f 119/119/119 118/118/118 117/117/117
f 118/118/118 119/119/119 120/120/120
f 123/123/123 122/122/122 121/121/121
f 122/122/122 123/123/123 124/124/124
f 124/124/124 123/123/123 125/125/125
f 125/125/125 123/123/123 126/126/126
f 129/129/129 128/128/128 127/127/127
f 128/128/128 129/129/129 130/130/130
f 133/133/133 132/132/132 131/131/131
f 131/131/131 132/132/132 134/134/134
f 137/137/137 136/136/136 135/135/135
f 136/136/136 137/137/137 138/138/138
f 141/141/141 140/140/140 139/139/139
f 140/140/140 142/142/142 139/139/139
