g Ball_gb_001_Explode_Thin_04_Hull
v -0.2495131 -0.07082944 -0.130935
v 0.1311626 0.2582411 0.1321724
v 0.1646577 -0.2623911 -0.02756451
v 0.2146732 -0.2212458 0.001362853
v 0.1646577 -0.2623911 -0.02756451
v 0.1311626 0.2582411 0.1321724
v -0.1204628 -0.1380426 -0.1606958
v 0.008625426 -0.1987953 -0.1355424
v -0.1204628 -0.1049597 -0.1639543
v 0.1574086 -0.1860906 -0.07167214
v 0.07093816 -0.1049596 -0.1258823
v 0.008625426 -0.1987953 -0.1355424
v 0.2332004 -0.1739557 -0.0106665
v 0.2146732 -0.2212458 0.001362853
v 0.2523867 -0.04052405 0.01226252
v 0.07093816 0.261888 0.0583267
v -0.008208334 0.2387596 -0.007518358
v 0.07093816 0.2217828 0.009458461
v 0.1574086 0.240819 0.1051589
v 0.07093816 0.2217828 0.009458461
v 0.2083479 0.1595405 0.07170095
v 0.1574086 0.240819 0.1051589
v 0.07093816 0.261888 0.0583267
v 0.07093816 0.2217828 0.009458461
v -0.2180382 -0.08856392 -0.1527291
v -0.1204628 -0.1380426 -0.1606958
v -0.1204628 -0.1049597 -0.1639543
v 0.1574086 -0.2612146 -0.04888331
v 0.2332004 -0.1739557 -0.0106665
v 0.1574086 -0.1860906 -0.07167214
v 0.1574086 -0.2612146 -0.04888331
v 0.1646577 -0.2623911 -0.02756451
v 0.2146732 -0.2212458 0.001362853
v 0.1574086 -0.2612146 -0.04888331
v 0.2146732 -0.2212458 0.001362853
v 0.2332004 -0.1739557 -0.0106665
v 0.1574086 -0.2612146 -0.04888331
v 0.1574086 -0.1860906 -0.07167214
v 0.008625426 -0.1987953 -0.1355424
v 0.07093816 0.1517603 -0.04800749
v -0.02288742 0.08276387 -0.1170037
v 0.1574086 0.0541848 -0.04800738
v 0.07093816 0.1517603 -0.04800749
v 0.2083479 0.1595405 0.07170095
v 0.07093816 0.2217828 0.009458461
v 0.1574086 -0.0238285 -0.07167233
v -0.02288742 -0.009259059 -0.1449184
v 0.07093816 -0.1049596 -0.1258823
v 0.1574086 -0.0238285 -0.07167233
v 0.2332004 -0.1739557 -0.0106665
v 0.2523867 -0.04052405 0.01226252
v 0.1574086 -0.0238285 -0.07167233
v 0.1574086 -0.1860906 -0.07167214
v 0.2332004 -0.1739557 -0.0106665
v 0.1574086 -0.0238285 -0.07167233
v 0.07093816 -0.1049596 -0.1258823
v 0.1574086 -0.1860906 -0.07167214
v 0.1574086 -0.0238285 -0.07167233
v 0.2523867 -0.04052405 0.01226252
v 0.1574086 0.0541848 -0.04800738
v 0.2332004 0.09152538 0.04214059
v 0.1574086 0.0541848 -0.04800738
v 0.2523867 -0.04052405 0.01226252
v 0.2332004 0.09152538 0.04214059
v 0.2523867 -0.04052405 0.01226252
v 0.2083479 0.1595405 0.07170095
v -0.1204629 0.08644152 -0.1258824
v -0.1204629 0.1801956 -0.07368555
v -0.2180382 0.02064781 -0.1358463
v -0.1421198 0.1590068 -0.07329191
v -0.2180382 0.02064781 -0.1358463
v -0.1204629 0.1801956 -0.07368555
v -0.1421198 0.1590068 -0.07329191
v -0.1204629 0.1801956 -0.07368555
v -0.008208334 0.2387596 -0.007518358
v -0.1421198 0.1590068 -0.07329191
v 0.1311626 0.2582411 0.1321724
v -0.2495131 -0.07082944 -0.130935
v -0.02288742 0.1675727 -0.07167252
v -0.02288742 0.08276387 -0.1170037
v 0.07093816 0.1517603 -0.04800749
v -0.02288742 0.1675727 -0.07167252
v -0.008208334 0.2387596 -0.007518358
v -0.1204629 0.1801956 -0.07368555
v -0.2499085 -0.05249736 -0.1395091
v -0.1421198 0.1590068 -0.07329191
v -0.2495131 -0.07082944 -0.130935
v -0.2499085 -0.05249736 -0.1395091
v -0.2180382 0.02064781 -0.1358463
v -0.1421198 0.1590068 -0.07329191
v -0.2499085 -0.05249736 -0.1395091
v -0.2180382 -0.08856392 -0.1527291
v -0.2180382 0.02064781 -0.1358463
v -0.2499085 -0.05249736 -0.1395091
v -0.2495131 -0.07082944 -0.130935
v -0.2180382 -0.08856392 -0.1527291
v 0.1358603 0.2660297 0.1280093
v 0.07093816 0.261888 0.0583267
v 0.1574086 0.240819 0.1051589
v 0.1358603 0.2660297 0.1280093
v 0.2083479 0.1595405 0.07170095
v 0.1311626 0.2582411 0.1321724
v 0.1358603 0.2660297 0.1280093
v 0.1574086 0.240819 0.1051589
v 0.2083479 0.1595405 0.07170095
v -0.1204629 -0.007384202 -0.154344
v -0.1204628 -0.1049597 -0.1639543
v -0.02288742 -0.009259059 -0.1449184
v -0.1204629 -0.007384202 -0.154344
v -0.1204629 0.08644152 -0.1258824
v -0.2180382 0.02064781 -0.1358463
v -0.1204629 -0.007384202 -0.154344
v -0.2180382 -0.08856392 -0.1527291
v -0.1204628 -0.1049597 -0.1639543
v -0.1204629 -0.007384202 -0.154344
v -0.2180382 0.02064781 -0.1358463
v -0.2180382 -0.08856392 -0.1527291
v 0.008625426 -0.1987953 -0.1355424
v 0.07093816 -0.1049596 -0.1258823
v -0.1204628 -0.1049597 -0.1639543
v -0.02288742 -0.009259059 -0.1449184
v 0.2083479 0.1595405 0.07170095
v 0.2523867 -0.04052405 0.01226252
v 0.1311626 0.2582411 0.1321724
v 0.2146732 -0.2212458 0.001362853
v -0.2180382 -0.08856392 -0.1527291
v -0.2495131 -0.07082944 -0.130935
v -0.1204628 -0.1380426 -0.1606958
v 0.008625426 -0.1987953 -0.1355424
v 0.1646577 -0.2623911 -0.02756451
v 0.1574086 -0.2612146 -0.04888331
v -0.02288742 -0.009259059 -0.1449184
v 0.1574086 0.0541848 -0.04800738
v -0.02288742 0.08276387 -0.1170037
v 0.1574086 -0.0238285 -0.07167233
v 0.07093816 0.1517603 -0.04800749
v 0.07093816 0.2217828 0.009458461
v -0.008208334 0.2387596 -0.007518358
v -0.02288742 0.1675727 -0.07167252
v 0.2332004 0.09152538 0.04214059
v 0.07093816 0.1517603 -0.04800749
v 0.1574086 0.0541848 -0.04800738
v 0.2083479 0.1595405 0.07170095
v -0.1204629 0.08644152 -0.1258824
v -0.02288742 -0.009259059 -0.1449184
v -0.02288742 0.08276387 -0.1170037
v -0.1204629 -0.007384202 -0.154344
v -0.1421198 0.1590068 -0.07329191
v -0.008208334 0.2387596 -0.007518358
v 0.07093816 0.261888 0.0583267
v 0.1311626 0.2582411 0.1321724
v 0.1358603 0.2660297 0.1280093
v -0.02288742 0.1675727 -0.07167252
v -0.1204629 0.08644152 -0.1258824
v -0.02288742 0.08276387 -0.1170037
v -0.1204629 0.1801956 -0.07368555
vn -0.3575473 -0.2948763 0.8861196
vn -0.3575473 -0.2948763 0.8861196
vn -0.3575473 -0.2948763 0.8861196
vn -0.2823044 -0.2979409 0.9118857
vn -0.2823044 -0.2979409 0.9118857
vn -0.2823044 -0.2979409 0.9118857
vn 0.1461968 -0.0969668 -0.9844918
vn 0.1461967 -0.0969668 -0.9844918
vn 0.1461968 -0.09696679 -0.9844918
vn 0.4009633 -0.1736648 -0.8994826
vn 0.4009633 -0.1736648 -0.8994826
vn 0.4009634 -0.1736648 -0.8994826
vn 0.8457693 -0.2061771 0.492103
vn 0.8457693 -0.2061771 0.492103
vn 0.8457693 -0.2061771 0.492103
vn 0.2890038 0.740024 -0.6073232
vn 0.2890038 0.740024 -0.6073232
vn 0.2890038 0.740024 -0.6073232
vn 0.5393687 0.5866905 -0.6040493
vn 0.5393687 0.5866905 -0.6040493
vn 0.5393687 0.5866905 -0.6040493
vn 0.4696267 0.6824633 -0.5600843
vn 0.4696267 0.6824633 -0.5600844
vn 0.4696267 0.6824633 -0.5600844
vn -0.1298489 -0.0971901 -0.986759
vn -0.1298489 -0.0971901 -0.986759
vn -0.1298489 -0.0971901 -0.986759
vn 0.6325628 -0.22483 -0.7411584
vn 0.6325628 -0.2248301 -0.7411584
vn 0.6325628 -0.2248301 -0.7411584
vn 0.7006058 -0.6586056 -0.2745727
vn 0.7006058 -0.6586055 -0.2745727
vn 0.7006058 -0.6586056 -0.2745727
vn 0.746241 -0.4230911 -0.5139245
vn 0.746241 -0.4230911 -0.5139245
vn 0.7462409 -0.4230911 -0.5139246
vn 0.3993465 -0.2661353 -0.8773224
vn 0.3993465 -0.2661353 -0.8773224
vn 0.3993465 -0.2661353 -0.8773224
vn 0.3826368 0.3390878 -0.8594233
vn 0.3826368 0.3390878 -0.8594233
vn 0.3826367 0.3390878 -0.8594233
vn 0.5375639 0.5349346 -0.6518205
vn 0.5375639 0.5349347 -0.6518205
vn 0.5375639 0.5349347 -0.6518205
vn 0.3826365 0.1955269 -0.902972
vn 0.3826365 0.1955268 -0.902972
vn 0.3826365 0.1955268 -0.902972
vn 0.6650587 0.03257785 -0.7460802
vn 0.6650587 0.03257785 -0.7460802
vn 0.6650587 0.03257785 -0.7460802
vn 0.6270245 -8.940443E-07 -0.7789994
vn 0.6270245 -8.940443E-07 -0.7789994
vn 0.6270245 -8.940444E-07 -0.7789995
vn 0.5311682 -9.710409E-07 -0.8472664
vn 0.5311682 -9.710409E-07 -0.8472664
vn 0.5311682 -9.710409E-07 -0.8472664
vn 0.6676072 0.2161199 -0.7124555
vn 0.6676072 0.2161199 -0.7124555
vn 0.6676072 0.2161199 -0.7124555
vn 0.6859447 0.2539544 -0.6818995
vn 0.6859447 0.2539544 -0.6818995
vn 0.6859448 0.2539544 -0.6818995
vn 0.6860312 -0.06430194 0.7247251
vn 0.6860311 -0.06430195 0.7247251
vn 0.6860311 -0.06430195 0.7247251
vn -0.2322487 0.4731342 -0.8498262
vn -0.2322487 0.4731342 -0.8498262
vn -0.2322487 0.4731342 -0.8498262
vn -0.5756004 0.5775596 -0.578886
vn -0.5756004 0.5775596 -0.578886
vn -0.5756004 0.5775596 -0.578886
vn -0.6106852 0.6330122 0.4757722
vn -0.6106852 0.6330122 0.4757722
vn -0.6106852 0.6330122 0.4757721
vn -0.6199108 0.0942893 0.7789866
vn -0.6199108 0.0942893 0.7789866
vn -0.6199108 0.0942893 0.7789866
vn 0.2890038 0.4512807 -0.8442882
vn 0.2890038 0.4512807 -0.8442882
vn 0.2890037 0.4512807 -0.8442881
vn 0.1001441 0.6546203 -0.7492952
vn 0.1001441 0.6546203 -0.7492953
vn 0.1001441 0.6546203 -0.7492952
vn -0.8029998 0.238195 0.5463099
vn -0.8029998 0.238195 0.5463099
vn -0.8029998 0.238195 0.54631
vn -0.8920152 0.3761078 0.2507028
vn -0.8920152 0.3761078 0.2507028
vn -0.8920152 0.3761078 0.2507028
vn -0.2306569 0.1486539 -0.9616129
vn -0.2306569 0.1486539 -0.9616129
vn -0.2306569 0.1486539 -0.9616129
vn -0.6561455 -0.3312736 -0.6780346
vn -0.6561456 -0.3312736 -0.6780346
vn -0.6561455 -0.3312736 -0.6780347
vn 0.4342201 0.7798312 -0.450906
vn 0.4342201 0.7798312 -0.450906
vn 0.4342201 0.7798312 -0.450906
vn 0.6376131 0.026932 0.7698857
vn 0.6376131 0.026932 0.7698857
vn 0.6376131 0.026932 0.7698858
vn 0.8441386 0.3689021 0.3890261
vn 0.8441386 0.368902 0.3890261
vn 0.8441386 0.368902 0.3890261
vn 0.09754892 0.09754928 -0.9904385
vn 0.09754892 0.09754927 -0.9904385
vn 0.09754891 0.09754927 -0.9904385
vn -0.09754917 0.2888984 -0.952377
vn -0.09754917 0.2888984 -0.952377
vn -0.09754916 0.2888984 -0.952377
vn -0.09754977 0.09754913 -0.9904384
vn -0.09754977 0.09754913 -0.9904384
vn -0.09754977 0.09754911 -0.9904384
vn -0.1420048 0.1512252 -0.9782462
vn -0.1420048 0.1512252 -0.9782462
vn -0.1420048 0.1512252 -0.9782462
vn 0.1950107 -0.02857071 -0.9803848
vn 0.1950107 -0.02857071 -0.9803848
vn 0.1950107 -0.02857071 -0.9803848
vn 0.1950889 -0.003823015 -0.9807781
vn 0.4841838 -0.1495443 0.862092
vn 0.4841838 -0.1495443 0.862092
vn 0.4841838 -0.1495443 0.862092
vn 0.4796489 -0.1522134 0.8641574
vn -0.4453737 -0.8915561 0.08227938
vn -0.4398329 -0.8912353 0.1106649
vn -0.4401741 -0.8917271 0.105212
vn -0.4398329 -0.8912352 0.1106649
vn -0.4398329 -0.8912353 0.1106649
vn -0.4328881 -0.8961327 0.09774485
vn 0.3811089 0.2683752 -0.8847207
vn 0.3811089 0.2683752 -0.8847207
vn 0.3811089 0.2683753 -0.8847207
vn 0.3811087 0.2683757 -0.8847207
vn 0.2890038 0.607322 -0.7400249
vn 0.2890038 0.607322 -0.7400249
vn 0.2890038 0.607322 -0.7400249
vn 0.2890037 0.607322 -0.7400249
vn 0.555199 0.4920109 -0.6705814
vn 0.5551988 0.4920109 -0.6705814
vn 0.5551988 0.4920109 -0.6705814
vn 0.5551541 0.4937551 -0.6693353
vn 0.09754892 0.2888984 -0.952377
vn 0.09754892 0.2888984 -0.952377
vn 0.09754892 0.2888984 -0.952377
vn 0.09754889 0.2888984 -0.952377
vn -0.6109193 0.590454 0.5273914
vn -0.6108025 0.5914093 0.5264554
vn -0.6109193 0.590454 0.5273914
vn -0.6109193 0.590454 0.5273914
vn -0.587943 0.6274801 0.5104819
vn 0.09754885 0.469148 -0.8777154
vn 0.09754884 0.469148 -0.8777154
vn 0.09754884 0.469148 -0.8777154
vn 0.08068951 0.484849 -0.8708677
g Ball_gb_001_Explode_Thin_04_Hull_0
f 3/3/3 2/2/2 1/1/1
f 6/6/6 5/5/5 4/4/4
f 9/9/9 8/8/8 7/7/7
f 12/12/12 11/11/11 10/10/10
f 15/15/15 14/14/14 13/13/13
f 18/18/18 17/17/17 16/16/16
f 21/21/21 20/20/20 19/19/19
f 24/24/24 23/23/23 22/22/22
f 27/27/27 26/26/26 25/25/25
f 30/30/30 29/29/29 28/28/28
f 33/33/33 32/32/32 31/31/31
f 36/36/36 35/35/35 34/34/34
f 39/39/39 38/38/38 37/37/37
f 42/42/42 41/41/41 40/40/40
f 45/45/45 44/44/44 43/43/43
f 48/48/48 47/47/47 46/46/46
f 51/51/51 50/50/50 49/49/49
f 54/54/54 53/53/53 52/52/52
f 57/57/57 56/56/56 55/55/55
f 60/60/60 59/59/59 58/58/58
f 63/63/63 62/62/62 61/61/61
f 66/66/66 65/65/65 64/64/64
f 69/69/69 68/68/68 67/67/67
f 72/72/72 71/71/71 70/70/70
f 75/75/75 74/74/74 73/73/73
f 78/78/78 77/77/77 76/76/76
f 81/81/81 80/80/80 79/79/79
f 84/84/84 83/83/83 82/82/82
f 87/87/87 86/86/86 85/85/85
f 90/90/90 89/89/89 88/88/88
f 93/93/93 92/92/92 91/91/91
f 96/96/96 95/95/95 94/94/94
f 99/99/99 98/98/98 97/97/97
f 102/102/102 101/101/101 100/100/100
f 105/105/105 104/104/104 103/103/103
f 108/108/108 107/107/107 106/106/106
f 111/111/111 110/110/110 109/109/109
f 114/114/114 113/113/113 112/112/112
f 117/117/117 116/116/116 115/115/115
f 120/120/120 119/119/119 118/118/118
f 119/119/119 120/120/120 121/121/121
f 124/124/124 123/123/123 122/122/122
f 123/123/123 124/124/124 125/125/125
f 128/128/128 127/127/127 126/126/126
f 129/129/129 127/127/127 128/128/128
f 130/130/130 127/127/127 129/129/129
f 130/130/130 129/129/129 131/131/131
f 134/134/134 133/133/133 132/132/132
f 132/132/132 133/133/133 135/135/135
f 138/138/138 137/137/137 136/136/136
f 138/138/138 136/136/136 139/139/139
f 142/142/142 141/141/141 140/140/140
f 141/141/141 143/143/143 140/140/140
f 146/146/146 145/145/145 144/144/144
f 144/144/144 145/145/145 147/147/147
f 150/150/150 149/149/149 148/148/148
f 151/151/151 150/150/150 148/148/148
f 150/150/150 151/151/151 152/152/152
f 155/155/155 154/154/154 153/153/153
f 154/154/154 156/156/156 153/153/153
