g Ball_gb_001_Explode_Thin_07_Hull
v 0.1140812 0.07239883 0.2175566
v 0.05600788 0.3226377 -0.1774319
v -0.01352925 -0.326529 0.1189812
v -0.1362367 -0.2556218 0.03039634
v -0.2109144 -0.1283082 -0.1089724
v -0.1824541 -0.1081748 -0.01294294
v -0.199484 -0.01064243 -0.2283177
v -0.07403874 0.2430622 -0.2288075
v -0.1824541 0.0801753 -0.235225
v -0.199484 -0.01064243 -0.2283177
v 0.05600788 0.3226377 -0.1774319
v -0.07403874 0.2430622 -0.2288075
v -0.199484 -0.01064243 -0.2283177
v -0.01352925 -0.326529 0.1189812
v 0.05600788 0.3226377 -0.1774319
v 0.001749592 0.05096229 0.1798555
v -0.07403883 0.02716018 0.1223921
v -0.07403874 0.1418917 0.04573096
v 0.001749668 0.3074447 -0.2020441
v -0.07403874 0.2430622 -0.2288075
v 0.05600788 0.3226377 -0.1774319
v 0.001749668 0.3074447 -0.2020441
v -0.07403874 0.2386774 -0.1353425
v -0.07403874 0.2430622 -0.2288075
v -0.2109144 -0.018031 -0.1669967
v -0.2109144 -0.1283082 -0.1089724
v -0.199484 -0.01064243 -0.2283177
v -0.2109144 -0.018031 -0.1669967
v -0.199484 -0.01064243 -0.2283177
v -0.1824541 0.0801753 -0.235225
v -0.07385781 -0.3048838 0.08971164
v -0.1362367 -0.2556218 0.03039634
v -0.07403883 -0.177168 0.1425168
v -0.1362367 -0.1081748 0.07352353
v -0.1362367 -0.2556218 0.03039634
v -0.1824541 -0.1081748 -0.01294294
v -0.1362367 -0.1081748 0.07352353
v -0.07403883 -0.177168 0.1425168
v -0.1362367 -0.2556218 0.03039634
v 0.001749668 0.237588 0.0266957
v -0.07403874 0.2386774 -0.1353425
v 0.04079378 0.2952971 -0.03721208
v 0.001749668 0.237588 0.0266957
v 0.05915368 0.2075685 0.1114077
v -0.07403874 0.1418917 0.04573096
v 0.001749668 0.237588 0.0266957
v 0.04079378 0.2952971 -0.03721208
v 0.05915368 0.2075685 0.1114077
v -0.1362367 -0.001842732 0.05237272
v -0.07403883 0.02716018 0.1223921
v -0.1362367 -0.1081748 0.07352353
v -0.1362367 -0.001842732 0.05237272
v -0.1824541 -0.1081748 -0.01294294
v -0.1824541 0.02716018 -0.06900053
v -0.1362367 -0.001842732 0.05237272
v -0.1362367 -0.1081748 0.07352353
v -0.1824541 -0.1081748 -0.01294294
v -0.1362367 -0.001842732 0.05237272
v -0.07403874 0.1418917 0.04573096
v -0.07403883 0.02716018 0.1223921
v -0.1362367 -0.001842732 0.05237272
v -0.1362367 0.1228565 -0.04996537
v -0.07403874 0.1418917 0.04573096
v -0.1362367 -0.001842732 0.05237272
v -0.1824541 0.02716018 -0.06900053
v -0.1362367 0.1228565 -0.04996537
v -0.1362367 0.1643451 -0.150128
v -0.1362367 0.1228565 -0.04996537
v -0.1824541 0.02716018 -0.06900053
v -0.1362367 0.1643451 -0.150128
v -0.07403874 0.2386774 -0.1353425
v -0.1362367 0.1228565 -0.04996537
v -0.1362367 0.1643451 -0.150128
v -0.07403874 0.2430622 -0.2288075
v -0.07403874 0.2386774 -0.1353425
v -0.1362367 0.1643451 -0.150128
v -0.1824541 0.0801753 -0.235225
v -0.07403874 0.2430622 -0.2288075
v 0.001749592 -0.1081748 0.2115099
v 0.001749592 0.05096229 0.1798555
v 0.06221259 -0.02074246 0.2352166
v 0.001749592 -0.1081748 0.2115099
v -0.07403883 0.02716018 0.1223921
v 0.001749592 0.05096229 0.1798555
v 0.001749592 -0.1081748 0.2115099
v 0.002566304 -0.1893874 0.2039478
v -0.07403883 -0.177168 0.1425168
v 0.001749592 -0.1081748 0.2115099
v 0.06221259 -0.02074246 0.2352166
v 0.002566304 -0.1893874 0.2039478
v 0.04378895 0.3217189 -0.1188245
v 0.001749668 0.3074447 -0.2020441
v 0.05600788 0.3226377 -0.1774319
v 0.04378895 0.3217189 -0.1188245
v 0.04079378 0.2952971 -0.03721208
v -0.07403874 0.2386774 -0.1353425
v 0.04378895 0.3217189 -0.1188245
v -0.07403874 0.2386774 -0.1353425
v 0.001749668 0.3074447 -0.2020441
v 0.08821596 0.06864889 0.2225547
v 0.06221259 -0.02074246 0.2352166
v 0.001749592 0.05096229 0.1798555
v 0.08821596 0.06864889 0.2225547
v 0.001749592 0.05096229 0.1798555
v 0.08087492 0.1463534 0.1765928
v 0.08821596 0.06864889 0.2225547
v 0.1140812 0.07239883 0.2175566
v 0.06221259 -0.02074246 0.2352166
v 0.08821596 0.06864889 0.2225547
v 0.08087492 0.1463534 0.1765928
v 0.1140812 0.07239883 0.2175566
v -0.01228337 -0.2629048 0.1692157
v -0.07403883 -0.177168 0.1425168
v 0.002566304 -0.1893874 0.2039478
v -0.01228337 -0.2629048 0.1692157
v -0.07385781 -0.3048838 0.08971164
v -0.07403883 -0.177168 0.1425168
v -0.01228337 -0.2629048 0.1692157
v -0.01352925 -0.326529 0.1189812
v -0.07385781 -0.3048838 0.08971164
v 0.1140812 0.07239883 0.2175566
v -0.01352925 -0.326529 0.1189812
v 0.06221259 -0.02074246 0.2352166
v 0.002566304 -0.1893874 0.2039478
v -0.01228337 -0.2629048 0.1692157
v -0.199484 -0.01064243 -0.2283177
v -0.2109144 -0.1283082 -0.1089724
v -0.1362367 -0.2556218 0.03039634
v -0.01352925 -0.326529 0.1189812
v -0.07385781 -0.3048838 0.08971164
v -0.1824541 0.02716018 -0.06900053
v -0.1824541 -0.1081748 -0.01294294
v -0.2109144 -0.1283082 -0.1089724
v -0.2109144 -0.018031 -0.1669967
v -0.1362367 0.1228565 -0.04996537
v -0.07403874 0.2386774 -0.1353425
v -0.07403874 0.1418917 0.04573096
v 0.001749668 0.237588 0.0266957
v 0.08087492 0.1463534 0.1765928
v -0.07403874 0.1418917 0.04573096
v 0.05915368 0.2075685 0.1114077
v 0.001749592 0.05096229 0.1798555
v 0.08087492 0.1463534 0.1765928
v 0.05915368 0.2075685 0.1114077
v 0.04079378 0.2952971 -0.03721208
v 0.04378895 0.3217189 -0.1188245
v 0.05600788 0.3226377 -0.1774319
v 0.1140812 0.07239883 0.2175566
v -0.2109144 -0.018031 -0.1669967
v -0.1824541 0.0801753 -0.235225
v -0.1824541 0.02716018 -0.06900053
v -0.1362367 0.1643451 -0.150128
v -0.1362367 -0.1081748 0.07352353
v -0.07403883 0.02716018 0.1223921
v -0.07403883 -0.177168 0.1425168
v 0.001749592 -0.1081748 0.2115099
vn 0.931887 -0.2284731 -0.2817566
vn 0.931887 -0.2284731 -0.2817566
vn 0.931887 -0.2284731 -0.2817567
vn -0.9277639 -0.1977986 0.3164327
vn -0.9277639 -0.1977986 0.3164327
vn -0.9277639 -0.1977986 0.3164327
vn 0.2331386 -0.1171402 -0.9653624
vn 0.2331387 -0.1171402 -0.9653624
vn 0.2331387 -0.1171402 -0.9653624
vn 0.4796813 -0.2388106 -0.8443195
vn 0.4796813 -0.2388106 -0.8443195
vn 0.4796813 -0.2388106 -0.8443195
vn 0.6283028 -0.3778227 -0.6800628
vn 0.6283029 -0.3778227 -0.6800628
vn 0.6283029 -0.3778227 -0.6800628
vn -0.6270237 0.4327896 0.6477148
vn -0.6270238 0.4327895 0.6477148
vn -0.6270237 0.4327895 0.6477148
vn 0.4438874 -0.1556946 -0.8824529
vn 0.4438874 -0.1556946 -0.8824529
vn 0.4438874 -0.1556946 -0.8824529
vn -0.6542618 0.7554373 0.03544029
vn -0.6542618 0.7554372 0.0354403
vn -0.6542618 0.7554372 0.0354403
vn -0.9756331 -0.1021661 -0.1941702
vn -0.9756331 -0.1021661 -0.1941702
vn -0.9756331 -0.1021661 -0.1941702
vn -0.9722324 0.1700859 -0.1607326
vn -0.9722324 0.1700859 -0.1607326
vn -0.9722324 0.1700859 -0.1607326
vn -0.7631785 -0.2478236 0.5967762
vn -0.7631785 -0.2478236 0.5967762
vn -0.7631785 -0.2478236 0.5967762
vn -0.8736556 -0.136588 0.466979
vn -0.8736557 -0.1365881 0.4669791
vn -0.8736557 -0.1365881 0.4669791
vn -0.8089491 -0.1650357 0.5642381
vn -0.8089491 -0.1650356 0.5642381
vn -0.8089491 -0.1650357 0.5642381
vn -0.6114439 0.7358636 0.2909314
vn -0.6114439 0.7358636 0.2909315
vn -0.6114439 0.7358636 0.2909314
vn -0.5719455 0.5702527 0.5896527
vn -0.5719455 0.5702527 0.5896527
vn -0.5719455 0.5702527 0.5896527
vn -0.3371698 0.7919116 0.5091096
vn -0.3371698 0.7919116 0.5091096
vn -0.3371698 0.7919116 0.5091094
vn -0.7669287 0.125196 0.6294016
vn -0.7669288 0.125196 0.6294016
vn -0.7669288 0.125196 0.6294015
vn -0.9093732 0.1591891 0.3843165
vn -0.9093732 0.1591891 0.3843165
vn -0.9093732 0.1591891 0.3843165
vn -0.8780694 0.09335737 0.4693382
vn -0.8780694 0.09335738 0.4693382
vn -0.8780695 0.09335737 0.4693383
vn -0.7669286 0.3565278 0.5335808
vn -0.7669286 0.3565278 0.5335808
vn -0.7669286 0.3565278 0.5335808
vn -0.8104525 0.3716305 0.4528328
vn -0.8104524 0.3716305 0.4528328
vn -0.8104524 0.3716305 0.4528328
vn -0.8526515 0.3314579 0.4038824
vn -0.8526516 0.3314579 0.4038824
vn -0.8526516 0.3314579 0.4038824
vn -0.9004813 0.4017906 0.1664267
vn -0.9004813 0.4017905 0.1664268
vn -0.9004813 0.4017905 0.1664267
vn -0.7669284 0.5928839 0.24558
vn -0.7669284 0.5928838 0.24558
vn -0.7669284 0.5928838 0.24558
vn -0.7695069 0.6379368 0.02992792
vn -0.7695068 0.6379368 0.02992792
vn -0.7695069 0.6379369 0.02992793
vn -0.8265619 0.5540531 -0.09909914
vn -0.8265619 0.5540531 -0.09909914
vn -0.8265619 0.5540531 -0.09909914
vn -0.5546981 0.1623258 0.816064
vn -0.554698 0.1623258 0.8160641
vn -0.5546981 0.1623258 0.816064
vn -0.6270238 0.1519759 0.7640317
vn -0.6270238 0.1519759 0.7640317
vn -0.6270238 0.1519759 0.7640317
vn -0.631253 -0.07819832 0.7716247
vn -0.631253 -0.07819832 0.7716247
vn -0.631253 -0.07819832 0.7716247
vn -0.2449013 -0.09233235 0.9651415
vn -0.2449013 -0.09233234 0.9651415
vn -0.2449013 -0.09233234 0.9651415
vn -0.2535511 0.9665867 -0.03770878
vn -0.253551 0.9665867 -0.03770878
vn -0.2535511 0.9665867 -0.03770878
vn -0.5819212 0.7797252 0.2310764
vn -0.5819212 0.7797252 0.2310764
vn -0.5819212 0.7797252 0.2310764
vn -0.5835437 0.7965314 0.1581593
vn -0.5835437 0.7965314 0.1581593
vn -0.5835437 0.7965314 0.1581593
vn -0.4696288 0.2562815 0.8448482
vn -0.4696288 0.2562815 0.8448482
vn -0.4696288 0.2562815 0.8448482
vn -0.4696288 0.4161802 0.778616
vn -0.4696288 0.4161802 0.778616
vn -0.4696288 0.4161803 0.778616
vn 0.1767615 0.08744556 0.9803615
vn 0.1767615 0.08744556 0.9803615
vn 0.1767615 0.08744556 0.9803615
vn 0.09048413 0.513334 0.8534054
vn 0.09048413 0.513334 0.8534055
vn 0.09048413 0.513334 0.8534055
vn -0.6312365 -0.2233852 0.7427245
vn -0.6312364 -0.2233852 0.7427245
vn -0.6312364 -0.2233852 0.7427245
vn -0.6815445 -0.2804273 0.6759125
vn -0.6815445 -0.2804274 0.6759125
vn -0.6815445 -0.2804274 0.6759125
vn -0.5165541 -0.5243515 0.676925
vn -0.5165541 -0.5243515 0.676925
vn -0.5165541 -0.5243515 0.676925
vn 0.8163281 -0.3705999 0.4430171
vn 0.8163281 -0.3705999 0.443017
vn 0.8163281 -0.3706 0.4430171
vn 0.8156929 -0.3708176 0.4440037
vn 0.801854 -0.3798656 0.4612292
vn 0.0913973 -0.7118279 -0.6963818
vn 0.08183008 -0.7136187 -0.6957386
vn 0.09139729 -0.7118279 -0.6963818
vn 0.09139731 -0.7118279 -0.6963819
vn 0.06602005 -0.7323841 -0.6776835
vn -0.9590951 0.1083315 0.2615355
vn -0.9590951 0.1083315 0.2615355
vn -0.9590951 0.1083315 0.2615355
vn -0.966852 0.1188964 0.2259668
vn -0.7053981 0.625116 0.3341311
vn -0.705398 0.625116 0.334131
vn -0.7053981 0.625116 0.334131
vn -0.705398 0.6251161 0.3341311
vn -0.5683662 0.4967535 0.6558931
vn -0.5683663 0.4967535 0.6558931
vn -0.5683663 0.4967535 0.6558931
vn -0.5691384 0.4945581 0.6568819
vn 0.8406932 0.5053877 0.194469
vn 0.8406932 0.5053877 0.1944689
vn 0.8406932 0.5053877 0.1944689
vn 0.8406907 0.505391 0.1944717
vn 0.8557569 0.4846101 0.1811992
vn 0.8557569 0.4846101 0.1811992
vn -0.9314112 0.3467591 0.1105945
vn -0.9314112 0.3467591 0.1105945
vn -0.9314112 0.3467592 0.1105945
vn -0.9167227 0.3806337 0.1213983
vn -0.7053984 0.06947581 0.7053978
vn -0.7053984 0.06947581 0.7053978
vn -0.7053985 0.06947581 0.7053978
vn -0.705398 0.06947586 0.7053983
g Ball_gb_001_Explode_Thin_07_Hull_0
f 3/3/3 2/2/2 1/1/1
f 6/6/6 5/5/5 4/4/4
f 9/9/9 8/8/8 7/7/7
f 12/12/12 11/11/11 10/10/10
f 15/15/15 14/14/14 13/13/13
f 18/18/18 17/17/17 16/16/16
f 21/21/21 20/20/20 19/19/19
f 24/24/24 23/23/23 22/22/22
f 27/27/27 26/26/26 25/25/25
f 30/30/30 29/29/29 28/28/28
f 33/33/33 32/32/32 31/31/31
f 36/36/36 35/35/35 34/34/34
f 39/39/39 38/38/38 37/37/37
f 42/42/42 41/41/41 40/40/40
f 45/45/45 44/44/44 43/43/43
f 48/48/48 47/47/47 46/46/46
f 51/51/51 50/50/50 49/49/49
f 54/54/54 53/53/53 52/52/52
f 57/57/57 56/56/56 55/55/55
f 60/60/60 59/59/59 58/58/58
f 63/63/63 62/62/62 61/61/61
f 66/66/66 65/65/65 64/64/64
f 69/69/69 68/68/68 67/67/67
f 72/72/72 71/71/71 70/70/70
f 75/75/75 74/74/74 73/73/73
f 78/78/78 77/77/77 76/76/76
f 81/81/81 80/80/80 79/79/79
f 84/84/84 83/83/83 82/82/82
f 87/87/87 86/86/86 85/85/85
f 90/90/90 89/89/89 88/88/88
f 93/93/93 92/92/92 91/91/91
f 96/96/96 95/95/95 94/94/94
f 99/99/99 98/98/98 97/97/97
f 102/102/102 101/101/101 100/100/100
f 105/105/105 104/104/104 103/103/103
f 108/108/108 107/107/107 106/106/106
f 111/111/111 110/110/110 109/109/109
f 114/114/114 113/113/113 112/112/112
f 117/117/117 116/116/116 115/115/115
f 120/120/120 119/119/119 118/118/118
f 123/123/123 122/122/122 121/121/121
f 122/122/122 123/123/123 124/124/124
f 122/122/122 124/124/124 125/125/125
f 128/128/128 127/127/127 126/126/126
f 129/129/129 128/128/128 126/126/126
f 128/128/128 129/129/129 130/130/130
f 133/133/133 132/132/132 131/131/131
f 133/133/133 131/131/131 134/134/134
f 137/137/137 136/136/136 135/135/135
f 136/136/136 137/137/137 138/138/138
f 141/141/141 140/140/140 139/139/139
f 140/140/140 142/142/142 139/139/139
f 145/145/145 144/144/144 143/143/143
f 145/145/145 143/143/143 146/146/146
f 143/143/143 147/147/147 146/146/146
f 148/148/148 147/147/147 143/143/143
f 151/151/151 150/150/150 149/149/149
f 150/150/150 151/151/151 152/152/152
f 155/155/155 154/154/154 153/153/153
f 154/154/154 155/155/155 156/156/156
