g Ball_gb_001_Explode_Thin_08
v -0.1347376 -0.1470271 -0.2969107
v -0.11259 -0.1313459 -0.3020847
v -0.1349877 -0.1458316 -0.296717
v -0.1032491 -0.1403207 -0.3058021
v -0.1015026 -0.1399487 -0.3062952
v -0.09900787 -0.1225616 -0.3053396
v -0.1097 -0.1322842 -0.2925574
v -0.1318475 -0.1479655 -0.2873835
v -0.1320977 -0.1467699 -0.2871898
v -0.1003591 -0.1412591 -0.2962749
v -0.09861261 -0.1408871 -0.296768
v -0.09611785 -0.1234999 -0.2958124
v -0.1003591 -0.1412591 -0.2962749
v -0.1347376 -0.1470271 -0.2969107
v -0.1318475 -0.1479655 -0.2873835
v -0.1032491 -0.1403207 -0.3058021
v -0.09861261 -0.1408871 -0.296768
v -0.1015026 -0.1399487 -0.3062952
v -0.1349877 -0.1458316 -0.296717
v -0.1318475 -0.1479655 -0.2873835
v -0.1347376 -0.1470271 -0.2969107
v -0.1320977 -0.1467699 -0.2871898
v -0.11259 -0.1313459 -0.3020847
v -0.1320977 -0.1467699 -0.2871898
v -0.1349877 -0.1458316 -0.296717
v -0.1097 -0.1322842 -0.2925574
v -0.09900787 -0.1225616 -0.3053396
v -0.09611785 -0.1234999 -0.2958124
v -0.1015026 -0.1399487 -0.3062952
v -0.09611785 -0.1234999 -0.2958124
v -0.09900787 -0.1225616 -0.3053396
v -0.09861261 -0.1408871 -0.296768
vt 0.7402977 0.5537689
vt 0.7348601 0.54639
vt 0.7398832 0.5538522
vt 0.7379722 0.5432779
vt 0.7378844 0.5426961
vt 0.7322533 0.5418649
vt 0.7348601 0.54639
vt 0.7402977 0.5537689
vt 0.7398832 0.5538522
vt 0.7379722 0.5432779
vt 0.7378844 0.5426961
vt 0.7322533 0.5418649
vt 0.7379722 0.5432779
vt 0.7402977 0.5537689
vt 0.7402977 0.5537689
vt 0.7379722 0.5432779
vt 0.7378844 0.5426961
vt 0.7378844 0.5426961
vt 0.7398832 0.5538522
vt 0.7402977 0.5537689
vt 0.7402977 0.5537689
vt 0.7398832 0.5538522
vt 0.7348601 0.54639
vt 0.7398832 0.5538522
vt 0.7398832 0.5538522
vt 0.7348601 0.54639
vt 0.7322533 0.5418649
vt 0.7322533 0.5418649
vt 0.7378844 0.5426961
vt 0.7322533 0.5418649
vt 0.7322533 0.5418649
vt 0.7378844 0.5426961
vn -0.2890047 0.0938307 -0.9527183
vn -0.2890033 0.09383104 -0.9527187
vn -0.2890047 0.09383081 -0.9527183
vn -0.2889986 0.09383693 -0.9527194
vn -0.2889995 0.093835 -0.9527194
vn -0.2890022 0.09383133 -0.952719
vn 0.2890037 -0.09383143 0.9527185
vn 0.2890048 -0.09383078 0.9527181
vn 0.2890048 -0.09383078 0.9527183
vn 0.2889985 -0.09383793 0.9527194
vn 0.2889996 -0.09383573 0.9527193
vn 0.2890026 -0.09383162 0.9527188
vn 0.1663235 -0.9751284 -0.1464963
vn 0.166318 -0.9751301 -0.1464913
vn 0.166318 -0.9751302 -0.1464904
vn 0.1663199 -0.9751291 -0.1464949
vn 0.1663283 -0.9751273 -0.1464978
vn 0.166321 -0.975129 -0.1464942
vn -0.9357115 -0.237974 0.2604077
vn -0.9357115 -0.237974 0.2604077
vn -0.9357115 -0.2379741 0.2604077
vn -0.9357115 -0.2379741 0.2604077
vn -0.4887137 0.8412785 0.2311049
vn -0.4887131 0.8412787 0.2311051
vn -0.4887131 0.8412787 0.2311052
vn -0.4887138 0.8412785 0.2311048
vn -0.4887143 0.8412781 0.2311047
vn -0.4887144 0.8412781 0.2311046
vn 0.9467661 -0.1194128 -0.2989558
vn 0.9467659 -0.1194123 -0.2989565
vn 0.9467657 -0.1194118 -0.2989572
vn 0.9467662 -0.1194133 -0.2989551
g Ball_gb_001_Explode_Thin_08_0
f 3/3/3 2/2/2 1/1/1
f 4/4/4 1/1/1 2/2/2
f 4/4/4 2/2/2 5/5/5
f 6/6/6 5/5/5 2/2/2
f 9/9/9 8/8/8 7/7/7
f 10/10/10 7/7/7 8/8/8
f 10/10/10 11/11/11 7/7/7
f 12/12/12 7/7/7 11/11/11
f 15/15/15 14/14/14 13/13/13
f 16/16/16 13/13/13 14/14/14
f 13/13/13 16/16/16 17/17/17
f 18/18/18 17/17/17 16/16/16
f 21/21/21 20/20/20 19/19/19
f 22/22/22 19/19/19 20/20/20
f 25/25/25 24/24/24 23/23/23
f 26/26/26 23/23/23 24/24/24
f 23/23/23 26/26/26 27/27/27
f 28/28/28 27/27/27 26/26/26
f 31/31/31 30/30/30 29/29/29
f 32/32/32 29/29/29 30/30/30
