g Ball_Uv_01_Explode_Thin_00
v 0.1182927 -0.04243049 -0.1098334
v 0.1213474 -0.04300415 -0.110407
v 0.1176393 -0.03075325 -0.1188713
v 0.03777092 0.0419886 -0.1321535
v 0.09914672 0.0305656 -0.157783
v 0.04579094 -0.0197641 -0.0871669
v 0.07452125 0.1136861 -0.18791
v -0.0239817 0.0500086 -0.08716686
v -0.002503738 0.001713982 -0.06568889
v -0.04290047 0.1105228 -0.1060856
v 0.02351517 0.1185846 -0.1641386
v 0.06482117 0.1468905 -0.1929311
v -0.01252647 0.1206012 -0.136243
v 0.02174545 0.1320664 -0.1672613
v -0.1247392 0.01396198 0.184535
v -0.1512378 0.0787557 0.1360439
v -0.1567742 0.07851513 0.1929311
v -0.1211917 0.01626381 0.1385543
v -0.06415962 -0.05994201 0.163361
v -0.06263039 -0.05841289 0.1402099
v -0.1009534 0.02773285 0.05118171
v -0.1274461 0.08457794 0.04572244
v -0.04664818 -0.04243053 0.05510738
v -0.06896831 0.04198866 -0.02541418
v -0.09119182 0.09520809 -0.03531919
v -0.0239817 -0.01976414 -0.01739422
v -0.0239817 0.0500086 -0.08716686
v -0.04290047 0.1105228 -0.1060856
v -0.002503738 0.001713982 -0.06568889
v -0.06415962 -0.05994201 0.163361
v -0.003356857 -0.1048951 0.1388957
v -0.06263039 -0.05841289 0.1402099
v 0.01287903 -0.1155045 0.1322096
v 0.02351517 -0.09673576 0.05118168
v -0.04664818 -0.04243053 0.05510738
v 0.1025663 -0.1479674 0.09240028
v 0.1064062 -0.1353672 0.04322096
v 0.1198674 -0.1505282 0.08431385
v 0.1567742 -0.1540026 0.05990887
v 0.1545528 -0.1477028 0.03946169
v -0.0239817 -0.01976414 -0.01739422
v 0.1399134 -0.1026531 -0.04302341
v 0.03777092 -0.06475071 -0.02541422
v -0.002503738 0.001713982 -0.06568889
v 0.04579094 -0.0197641 -0.0871669
v 0.1143668 -0.09673572 -0.03967003
v 0.1213474 -0.04300415 -0.110407
v 0.1182927 -0.04243049 -0.1098334
v 0.1239132 -0.03605055 -0.103694
v 0.1215714 -0.03575186 -0.1031516
v 0.1215858 -0.02499231 -0.1117133
v 0.04260387 0.04682228 -0.1248543
v 0.1032533 0.03565253 -0.150216
v 0.05043626 -0.01351312 -0.08089424
v 0.07874975 0.1171778 -0.1795477
v -0.01772691 0.05466694 -0.08090768
v 0.003289775 0.007447255 -0.05989538
v -0.03653768 0.1145711 -0.0995186
v 0.02859489 0.1219094 -0.1561924
v 0.06910477 0.1494536 -0.1842662
v -0.006752323 0.1244893 -0.1290637
v 0.02675617 0.1346381 -0.1589982
v -0.1423884 0.08307879 0.1377757
v -0.1162325 0.01913937 0.1854462
v -0.1478065 0.0828495 0.1938222
v -0.1128517 0.02150164 0.1402889
v -0.0569722 -0.05305146 0.1642891
v -0.05566633 -0.05144884 0.141943
v -0.09300678 0.03281164 0.05450685
v -0.1190436 0.08881546 0.04910475
v -0.03996643 -0.0357519 0.05838613
v -0.06166897 0.0468244 -0.02058354
v -0.0835784 0.09931562 -0.03030283
v -0.01770904 -0.01351316 -0.01274889
v -0.01772691 0.05466694 -0.08090768
v -0.03653768 0.1145711 -0.0995186
v 0.003289775 0.007447255 -0.05989538
v 0.002667544 -0.0972805 0.1412883
v -0.0569722 -0.05305146 0.1642891
v -0.05566633 -0.05144884 0.141943
v 0.01825337 -0.1074714 0.1347758
v 0.02859236 -0.08878738 0.05450513
v -0.03996643 -0.0357519 0.05838613
v 0.1062429 -0.1390328 0.09498044
v 0.1098162 -0.1266063 0.0466295
v 0.1224539 -0.1412212 0.08690033
v 0.1593607 -0.1446956 0.06249535
v 0.1571358 -0.1386464 0.04282476
v -0.01770904 -0.01351316 -0.01274889
v 0.1424823 -0.09441864 -0.03796436
v 0.04259597 -0.05744059 -0.02058917
v 0.003289775 0.007447255 -0.05989538
v 0.05043626 -0.01351312 -0.08089424
v 0.1176906 -0.08878873 -0.03459087
v 0.1239132 -0.03605055 -0.103694
v 0.1215714 -0.03575186 -0.1031516
v 0.1215858 -0.02499231 -0.1117133
v 0.1213474 -0.04300415 -0.110407
v 0.1239132 -0.03605055 -0.103694
v 0.1176393 -0.03075325 -0.1188713
v 0.1032533 0.03565253 -0.150216
v 0.09914672 0.0305656 -0.157783
v 0.07874975 0.1171778 -0.1795477
v 0.07452125 0.1136861 -0.18791
v 0.06910477 0.1494536 -0.1842662
v 0.06482117 0.1468905 -0.1929311
v 0.1399134 -0.1026531 -0.04302341
v 0.1239132 -0.03605055 -0.103694
v 0.1213474 -0.04300415 -0.110407
v 0.1424823 -0.09441864 -0.03796436
v 0.1545528 -0.1477028 0.03946169
v 0.1571358 -0.1386464 0.04282476
v 0.1567742 -0.1540026 0.05990887
v 0.1593607 -0.1446956 0.06249535
v -0.1162325 0.01913937 0.1854462
v -0.1567742 0.07851513 0.1929311
v -0.1478065 0.0828495 0.1938222
v -0.1247392 0.01396198 0.184535
v -0.0569722 -0.05305146 0.1642891
v -0.06415962 -0.05994201 0.163361
v -0.1512378 0.0787557 0.1360439
v -0.1478065 0.0828495 0.1938222
v -0.1567742 0.07851513 0.1929311
v -0.1423884 0.08307879 0.1377757
v -0.1274461 0.08457794 0.04572244
v -0.1190436 0.08881546 0.04910475
v -0.09119182 0.09520809 -0.03531919
v -0.0835784 0.09931562 -0.03030283
v -0.04290047 0.1105228 -0.1060856
v -0.03653768 0.1145711 -0.0995186
v 0.1198674 -0.1505282 0.08431385
v 0.1593607 -0.1446956 0.06249535
v 0.1567742 -0.1540026 0.05990887
v 0.1224539 -0.1412212 0.08690033
v 0.1025663 -0.1479674 0.09240028
v 0.1062429 -0.1390328 0.09498044
v 0.01287903 -0.1155045 0.1322096
v 0.01825337 -0.1074714 0.1347758
v -0.003356857 -0.1048951 0.1388957
v 0.002667544 -0.0972805 0.1412883
v -0.06415962 -0.05994201 0.163361
v -0.0569722 -0.05305146 0.1642891
v -0.01252647 0.1206012 -0.136243
v -0.03653768 0.1145711 -0.0995186
v -0.04290047 0.1105228 -0.1060856
v -0.006752323 0.1244893 -0.1290637
v 0.02174545 0.1320664 -0.1672613
v 0.02675617 0.1346381 -0.1589982
v 0.06482117 0.1468905 -0.1929311
v 0.06910477 0.1494536 -0.1842662
vt 0.25 1
vt 0.2544869 1
vt 0.25 0.9791964
vt 0.125 0.875
vt 0.2251617 0.875
vt 0.125 1
vt 0.2019174 0.75
vt 0 0.875
vt 0 1
vt 0 0.7706677
vt 0.125 0.75
vt 0.1924175 0.7045089
vt 0.06078981 0.75
vt 0.125 0.7307122
vt 0.125 0.5630983
vt 0.2145917 0.625
vt 0.2172487 0.5504315
vt 0.125 0.625
vt 0 0.5932669
vt 0 0.625
vt 0.125 0.75
vt 0.2107227 0.75
vt 0 0.75
vt 0.125 0.875
vt 0.2118509 0.875
vt 0 0.875
vt 0.125 1
vt 0.2293323 1
vt 0 1
vt 1 0.5932669
vt 0.9007829 0.625
vt 1 0.625
vt 0.875 0.634077
vt 0.875 0.75
vt 1 0.75
vt 0.75 0.6830571
vt 0.75 0.75
vt 0.7271699 0.6922817
vt 0.6792339 0.721759
vt 0.6844628 0.75
vt 1 0.875
vt 0.7134516 0.875
vt 0.875 0.875
vt 1 1
vt 0.875 1
vt 0.75 0.875
vt 0.7455131 1
vt 0.75 1
vt 0.2544869 1
vt 0.25 1
vt 0.25 0.9791964
vt 0.125 0.875
vt 0.2251617 0.875
vt 0.125 1
vt 0.2019174 0.75
vt 0 0.875
vt 0 1
vt 0 0.7706677
vt 0.125 0.75
vt 0.1924175 0.7045089
vt 0.06078981 0.75
vt 0.125 0.7307122
vt 0.2145917 0.625
vt 0.125 0.5630983
vt 0.2172487 0.5504315
vt 0.125 0.625
vt 0 0.5932669
vt 0 0.625
vt 0.125 0.75
vt 0.2107227 0.75
vt 0 0.75
vt 0.125 0.875
vt 0.2118509 0.875
vt 0 0.875
vt 0.125 1
vt 0.2293323 1
vt 0 1
vt 0.9007829 0.625
vt 1 0.5932669
vt 1 0.625
vt 0.875 0.634077
vt 0.875 0.75
vt 1 0.75
vt 0.75 0.6830571
vt 0.75 0.75
vt 0.7271699 0.6922817
vt 0.6792339 0.721759
vt 0.6844628 0.75
vt 1 0.875
vt 0.7134516 0.875
vt 0.875 0.875
vt 1 1
vt 0.875 1
vt 0.75 0.875
vt 0.7455131 1
vt 0.75 1
vt 0.25 0.9791964
vt 0.2544869 1
vt 0.2544869 1
vt 0.25 0.9791964
vt 0.2251617 0.875
vt 0.2251617 0.875
vt 0.2019174 0.75
vt 0.2019174 0.75
vt 0.1924175 0.7045089
vt 0.1924175 0.7045089
vt 0.7134516 0.875
vt 0.7455131 1
vt 0.7455131 1
vt 0.7134516 0.875
vt 0.6844628 0.75
vt 0.6844628 0.75
vt 0.6792339 0.721759
vt 0.6792339 0.721759
vt 0.125 0.5630983
vt 0.2172487 0.5504315
vt 0.2172487 0.5504315
vt 0.125 0.5630983
vt 0 0.5932669
vt 0 0.5932669
vt 0.2145917 0.625
vt 0.2172487 0.5504315
vt 0.2172487 0.5504315
vt 0.2145917 0.625
vt 0.2107227 0.75
vt 0.2107227 0.75
vt 0.2118509 0.875
vt 0.2118509 0.875
vt 0.2293323 1
vt 0.2293323 1
vt 0.7271699 0.6922817
vt 0.6792339 0.721759
vt 0.6792339 0.721759
vt 0.7271699 0.6922817
vt 0.75 0.6830571
vt 0.75 0.6830571
vt 0.875 0.634077
vt 0.875 0.634077
vt 0.9007829 0.625
vt 0.9007829 0.625
vt 1 0.5932669
vt 1 0.5932669
vt 0.06078981 0.75
vt 0 0.7706677
vt 0 0.7706677
vt 0.06078981 0.75
vt 0.125 0.7307122
vt 0.125 0.7307122
vt 0.1924175 0.7045089
vt 0.1924175 0.7045089
vn -0.3278684 -0.6678639 -0.6681767
vn -0.2565766 -0.6953601 -0.6712994
vn -0.3946508 -0.5760944 -0.7157975
vn -0.4832955 -0.4833675 -0.7299187
vn -0.4106596 -0.5086921 -0.7566974
vn -0.4645321 -0.6250979 -0.627266
vn -0.4228501 -0.3491693 -0.8362288
vn -0.6254796 -0.4658338 -0.6259186
vn -0.5793512 -0.5733274 -0.5793512
vn -0.6362784 -0.4048356 -0.6567022
vn -0.5079728 -0.3324783 -0.7946205
vn -0.4283597 -0.2563018 -0.8664971
vn -0.5774151 -0.388813 -0.717925
vn -0.5010717 -0.2571726 -0.8263107
vn -0.8506727 -0.5177386 -0.0911199
vn -0.8849401 -0.4323082 -0.1731786
vn -0.8967673 -0.4334376 -0.08910879
vn -0.8340024 -0.5237828 -0.1734694
vn -0.7187423 -0.6890551 -0.09280528
vn -0.6964054 -0.6964057 -0.1733166
vn -0.7946659 -0.5078791 -0.332513
vn -0.8402587 -0.4237519 -0.3382303
vn -0.6681743 -0.6678631 -0.3278747
vn -0.7299349 -0.4835739 -0.4830644
vn -0.7613422 -0.4107537 -0.5016369
vn -0.627266 -0.6250976 -0.4645323
vn -0.6254796 -0.4658338 -0.6259186
vn -0.6362784 -0.4048356 -0.6567022
vn -0.5793512 -0.5733274 -0.5793512
vn -0.7187423 -0.6890551 -0.09280528
vn -0.6024401 -0.7614598 -0.2392588
vn -0.6964054 -0.6964057 -0.1733166
vn -0.5374346 -0.803312 -0.2566202
vn -0.5077196 -0.7948381 -0.3323449
vn -0.6681743 -0.6678631 -0.3278747
vn -0.367656 -0.8934522 -0.2580156
vn -0.3409936 -0.8760949 -0.3408535
vn -0.2586489 -0.9306996 -0.2586483
vn -0.2586482 -0.9306996 -0.2586489
vn -0.258291 -0.9056397 -0.3363073
vn -0.627266 -0.6250976 -0.4645323
vn -0.2568922 -0.8234479 -0.5059051
vn -0.4825048 -0.7310118 -0.4825048
vn -0.5793512 -0.5733274 -0.5793512
vn -0.4645321 -0.6250979 -0.627266
vn -0.3323756 -0.7946997 -0.507916
vn -0.2565766 -0.6953601 -0.6712994
vn -0.3278684 -0.6678639 -0.6681767
vn 0.247019 0.6923314 0.6779814
vn 0.3228016 0.6709121 0.6675897
vn 0.3920529 0.5735431 0.7192655
vn 0.4831118 0.4833229 0.7300698
vn 0.4102032 0.5088238 0.7568564
vn 0.4646687 0.6250798 0.6271828
vn 0.4222657 0.348727 0.8367085
vn 0.6255274 0.4656692 0.6259934
vn 0.5792777 0.5734709 0.5792826
vn 0.6366705 0.4042824 0.6566631
vn 0.507495 0.3317873 0.7952144
vn 0.4280183 0.254404 0.8672249
vn 0.5799904 0.3823077 0.7193414
vn 0.5029848 0.2547192 0.8259082
vn 0.8853121 0.4316813 0.1728395
vn 0.8508692 0.5175316 0.09045697
vn 0.8970674 0.4329425 0.08849262
vn 0.8343076 0.5234374 0.1730437
vn 0.7180848 0.6899031 0.09158581
vn 0.6967261 0.6962306 0.1727294
vn 0.7948641 0.5075278 0.332576
vn 0.840551 0.4231122 0.3383048
vn 0.6681508 0.6678464 0.3279567
vn 0.7300727 0.4832912 0.4831392
vn 0.7615495 0.4103329 0.5016666
vn 0.6271842 0.625079 0.4646677
vn 0.6255274 0.4656692 0.6259934
vn 0.6366705 0.4042824 0.6566631
vn 0.5792777 0.5734709 0.5792826
vn 0.6025228 0.7635645 0.2322401
vn 0.7180848 0.6899031 0.09158581
vn 0.6967261 0.6962306 0.1727294
vn 0.5371522 0.8038284 0.2555921
vn 0.5076106 0.7949643 0.3322098
vn 0.6681508 0.6678464 0.3279567
vn 0.3669562 0.8938792 0.2575324
vn 0.3405326 0.8764828 0.3403166
vn 0.2559551 0.9316797 0.2577983
vn 0.2576852 0.9313654 0.2572095
vn 0.257538 0.9061075 0.335624
vn 0.6271842 0.625079 0.4646677
vn 0.2558831 0.823571 0.506216
vn 0.4825384 0.7309667 0.4825395
vn 0.5792777 0.5734709 0.5792826
vn 0.4646687 0.6250798 0.6271828
vn 0.3317366 0.7949932 0.5078747
vn 0.247019 0.6923314 0.6779814
vn 0.3228016 0.6709121 0.6675897
vn 0.8989592 -0.03486767 -0.4366423
vn 0.9382296 -0.04628732 -0.3429033
vn 0.9472394 -0.04531565 -0.3173076
vn 0.8872538 -0.03621456 -0.4598577
vn 0.8719497 0.02331501 -0.4890399
vn 0.8729444 0.02309708 -0.4872728
vn 0.8603862 0.1326088 -0.492088
vn 0.8625114 0.1323131 -0.4884336
vn 0.8574723 0.1789964 -0.4823913
vn 0.859924 0.1789238 -0.4780345
vn 0.9492207 -0.113958 -0.2932467
vn 0.9472394 -0.04531565 -0.3173076
vn 0.9382296 -0.04628732 -0.3429033
vn 0.9483086 -0.1154784 -0.2955935
vn 0.9572177 -0.19105 -0.2173341
vn 0.9564673 -0.1926623 -0.2192069
vn 0.9607448 -0.2161335 -0.1739417
vn 0.9600193 -0.2179887 -0.1756246
vn 0.01229555 -0.1935647 0.9810105
vn -0.0279418 -0.1437795 0.9892152
vn -0.02858646 -0.1442095 0.9891343
vn 0.01333406 -0.1915549 0.9813913
vn 0.1154421 -0.2518801 0.9608484
vn 0.1133323 -0.2536874 0.960624
vn -0.4310401 0.9011288 -0.04659704
vn -0.4318599 0.9011313 -0.03820167
vn -0.4317703 0.9011739 -0.03821001
vn -0.4311581 0.9010721 -0.04660237
vn -0.4287002 0.9011918 -0.06379202
vn -0.4290778 0.9010043 -0.06390328
vn -0.428874 0.8993787 -0.08476418
vn -0.4301474 0.898712 -0.08538105
vn -0.4386986 0.8903356 -0.1218437
vn -0.4400258 0.8896087 -0.1223661
vn 0.4251647 -0.3501142 0.8346586
vn 0.4915266 -0.3573094 0.7941861
vn 0.4915266 -0.3573095 0.7941862
vn 0.4267926 -0.3582206 0.830377
vn 0.3132816 -0.3720535 0.8737453
vn 0.3156631 -0.383139 0.8680791
vn 0.1835209 -0.4056865 0.8953986
vn 0.1837822 -0.4098875 0.8934295
vn 0.1139217 -0.3772523 0.919077
vn 0.1154242 -0.375168 0.9197425
vn 0.1133323 -0.2536874 0.960624
vn 0.1154421 -0.2518801 0.9608484
vn -0.428925 0.8927044 -0.1382107
vn -0.4400258 0.8896087 -0.1223661
vn -0.4386986 0.8903356 -0.1218437
vn -0.4242863 0.8955161 -0.1342835
vn -0.3621016 0.9288602 -0.07810954
vn -0.3573357 0.9309871 -0.07466021
vn -0.3734637 0.9237042 -0.0854131
vn -0.3750862 0.922847 -0.08754269
g Ball_Uv_01_Explode_Thin_00_0
f 3/3/3 2/2/2 1/1/1
f 3/3/3 1/1/1 4/4/4
f 5/5/5 3/3/3 4/4/4
f 1/1/1 6/6/6 4/4/4
f 5/5/5 4/4/4 7/7/7
f 4/4/4 6/6/6 8/8/8
f 9/9/9 8/8/8 6/6/6
f 4/4/4 8/8/8 10/10/10
f 11/11/11 7/7/7 4/4/4
f 11/11/11 4/4/4 10/10/10
f 7/7/7 11/11/11 12/12/12
f 13/13/13 11/11/11 10/10/10
f 14/14/14 12/12/12 11/11/11
f 13/13/13 14/14/14 11/11/11
f 17/17/17 16/16/16 15/15/15
f 18/18/18 15/15/15 16/16/16
f 15/15/15 18/18/18 19/19/19
f 20/20/20 19/19/19 18/18/18
f 18/18/18 16/16/16 21/21/21
f 18/18/18 21/21/21 20/20/20
f 22/22/22 21/21/21 16/16/16
f 23/23/23 20/20/20 21/21/21
f 21/21/21 22/22/22 24/24/24
f 21/21/21 24/24/24 23/23/23
f 25/25/25 24/24/24 22/22/22
f 26/26/26 23/23/23 24/24/24
f 24/24/24 25/25/25 27/27/27
f 24/24/24 27/27/27 26/26/26
f 28/28/28 27/27/27 25/25/25
f 29/29/29 26/26/26 27/27/27
f 32/32/32 31/31/31 30/30/30
f 33/33/33 31/31/31 32/32/32
f 34/34/34 33/33/33 32/32/32
f 35/35/35 34/34/34 32/32/32
f 33/33/33 34/34/34 36/36/36
f 37/37/37 36/36/36 34/34/34
f 38/38/38 36/36/36 37/37/37
f 39/39/39 38/38/38 37/37/37
f 40/40/40 39/39/39 37/37/37
f 35/35/35 41/41/41 34/34/34
f 40/40/40 37/37/37 42/42/42
f 43/43/43 34/34/34 41/41/41
f 34/34/34 43/43/43 37/37/37
f 41/41/41 44/44/44 43/43/43
f 45/45/45 43/43/43 44/44/44
f 46/46/46 42/42/42 37/37/37
f 46/46/46 37/37/37 43/43/43
f 43/43/43 45/45/45 46/46/46
f 42/42/42 46/46/46 47/47/47
f 48/48/48 46/46/46 45/45/45
f 48/48/48 47/47/47 46/46/46
f 51/51/51 50/50/50 49/49/49
f 52/52/52 50/50/50 51/51/51
f 53/53/53 52/52/52 51/51/51
f 54/54/54 50/50/50 52/52/52
f 53/53/53 55/55/55 52/52/52
f 52/52/52 56/56/56 54/54/54
f 57/57/57 54/54/54 56/56/56
f 56/56/56 52/52/52 58/58/58
f 59/59/59 52/52/52 55/55/55
f 58/58/58 52/52/52 59/59/59
f 55/55/55 60/60/60 59/59/59
f 61/61/61 58/58/58 59/59/59
f 62/62/62 59/59/59 60/60/60
f 61/61/61 59/59/59 62/62/62
f 65/65/65 64/64/64 63/63/63
f 66/66/66 63/63/63 64/64/64
f 64/64/64 67/67/67 66/66/66
f 68/68/68 66/66/66 67/67/67
f 66/66/66 69/69/69 63/63/63
f 66/66/66 68/68/68 69/69/69
f 70/70/70 63/63/63 69/69/69
f 71/71/71 69/69/69 68/68/68
f 69/69/69 72/72/72 70/70/70
f 69/69/69 71/71/71 72/72/72
f 73/73/73 70/70/70 72/72/72
f 74/74/74 72/72/72 71/71/71
f 72/72/72 75/75/75 73/73/73
f 72/72/72 74/74/74 75/75/75
f 76/76/76 73/73/73 75/75/75
f 77/77/77 75/75/75 74/74/74
f 80/80/80 79/79/79 78/78/78
f 78/78/78 81/81/81 80/80/80
f 80/80/80 81/81/81 82/82/82
f 83/83/83 80/80/80 82/82/82
f 81/81/81 84/84/84 82/82/82
f 85/85/85 82/82/82 84/84/84
f 84/84/84 86/86/86 85/85/85
f 85/85/85 86/86/86 87/87/87
f 88/88/88 85/85/85 87/87/87
f 83/83/83 82/82/82 89/89/89
f 88/88/88 90/90/90 85/85/85
f 91/91/91 89/89/89 82/82/82
f 82/82/82 85/85/85 91/91/91
f 89/89/89 91/91/91 92/92/92
f 93/93/93 92/92/92 91/91/91
f 94/94/94 85/85/85 90/90/90
f 94/94/94 91/91/91 85/85/85
f 91/91/91 94/94/94 93/93/93
f 90/90/90 95/95/95 94/94/94
f 96/96/96 93/93/93 94/94/94
f 96/96/96 94/94/94 95/95/95
f 99/99/99 98/98/98 97/97/97
f 100/100/100 97/97/97 98/98/98
f 97/97/97 100/100/100 101/101/101
f 102/102/102 101/101/101 100/100/100
f 101/101/101 102/102/102 103/103/103
f 104/104/104 103/103/103 102/102/102
f 103/103/103 104/104/104 105/105/105
f 106/106/106 105/105/105 104/104/104
f 109/109/109 108/108/108 107/107/107
f 110/110/110 107/107/107 108/108/108
f 107/107/107 110/110/110 111/111/111
f 112/112/112 111/111/111 110/110/110
f 111/111/111 112/112/112 113/113/113
f 114/114/114 113/113/113 112/112/112
f 117/117/117 116/116/116 115/115/115
f 118/118/118 115/115/115 116/116/116
f 115/115/115 118/118/118 119/119/119
f 120/120/120 119/119/119 118/118/118
f 123/123/123 122/122/122 121/121/121
f 124/124/124 121/121/121 122/122/122
f 121/121/121 124/124/124 125/125/125
f 126/126/126 125/125/125 124/124/124
f 125/125/125 126/126/126 127/127/127
f 128/128/128 127/127/127 126/126/126
f 127/127/127 128/128/128 129/129/129
f 130/130/130 129/129/129 128/128/128
f 133/133/133 132/132/132 131/131/131
f 134/134/134 131/131/131 132/132/132
f 131/131/131 134/134/134 135/135/135
f 136/136/136 135/135/135 134/134/134
f 135/135/135 136/136/136 137/137/137
f 138/138/138 137/137/137 136/136/136
f 137/137/137 138/138/138 139/139/139
f 140/140/140 139/139/139 138/138/138
f 139/139/139 140/140/140 141/141/141
f 142/142/142 141/141/141 140/140/140
f 145/145/145 144/144/144 143/143/143
f 146/146/146 143/143/143 144/144/144
f 143/143/143 146/146/146 147/147/147
f 148/148/148 147/147/147 146/146/146
f 147/147/147 148/148/148 149/149/149
f 150/150/150 149/149/149 148/148/148
