g Ball_Uv_01_Explode_Thin_14_Hull
v 0.156605 -0.0627858 -0.0970554
v -0.1077861 0.1836038 -0.1752291
v 0.09601969 -0.1975835 0.1066238
v -0.08372362 0.1576327 -0.03448803
v -0.0382674 0.09668061 0.03848981
v -0.1417305 0.1954479 -0.1132818
v -0.07518707 0.1846452 -0.1682628
v -0.1077861 0.1836038 -0.1752291
v 0.01157414 0.1406272 -0.1479232
v 0.1652793 -0.05850887 -0.09449901
v 0.138802 0.003028739 -0.1076112
v 0.156605 -0.0627858 -0.0970554
v -0.1052118 0.19323 -0.1743473
v -0.1077861 0.1836038 -0.1752291
v -0.07518707 0.1846452 -0.1682628
v 0.1038488 -0.1966712 0.1127836
v 0.08530361 -0.1851019 0.1345392
v 0.1361257 -0.1500144 0.05546868
v 0.1038488 -0.1966712 0.1127836
v 0.09601969 -0.1975835 0.1066238
v 0.08530361 -0.1851019 0.1345392
v -0.0008034706 0.1189877 -0.04245145
v 0.06938448 0.06466346 -0.04637855
v -0.01506422 0.08699135 0.0341713
v 0.01370106 -0.1515386 0.1667678
v 0.08530361 -0.1851019 0.1345392
v 0.09601969 -0.1975835 0.1066238
v 0.01370106 -0.1515386 0.1667678
v 0.01970886 -0.1489889 0.1743491
v 0.08530361 -0.1851019 0.1345392
v 0.01370106 -0.1515386 0.1667678
v -0.1417305 0.1954479 -0.1132818
v 0.01970886 -0.1489889 0.1743491
v -0.1442889 0.1861257 -0.1158549
v -0.1417305 0.1954479 -0.1132818
v 0.01370106 -0.1515386 0.1667678
v -0.1442889 0.1861257 -0.1158549
v -0.1052118 0.19323 -0.1743473
v -0.1417305 0.1954479 -0.1132818
v -0.1442889 0.1861257 -0.1158549
v -0.1077861 0.1836038 -0.1752291
v -0.1052118 0.19323 -0.1743473
v 0.02522456 0.02050347 0.0744601
v 0.06938448 0.06466346 -0.04637855
v 0.09171241 -0.01978533 0.03417126
v 0.02522456 0.02050347 0.0744601
v -0.01506422 0.08699135 0.0341713
v 0.06938448 0.06466346 -0.04637855
v -0.009313688 0.03586354 0.08982025
v -0.0382674 0.09668061 0.03848981
v -0.01506422 0.08699135 0.0341713
v -0.009313688 0.03586354 0.08982025
v -0.01506422 0.08699135 0.0341713
v 0.02522456 0.02050347 0.0744601
v 0.1237088 -0.005524523 -0.04245149
v 0.09171241 -0.01978533 0.03417126
v 0.06938448 0.06466346 -0.04637855
v 0.1237088 -0.09640813 0.04843204
v 0.1627833 -0.09012154 -0.03435718
v 0.1361257 -0.1500144 0.05546868
v -0.07655085 0.1811687 -0.1263509
v -0.07518707 0.1846452 -0.1682628
v 0.01157414 0.1406272 -0.1479232
v -0.07655085 0.1811687 -0.1263509
v -0.08372362 0.1576327 -0.03448803
v -0.1417305 0.1954479 -0.1132818
v 0.04671006 -0.02780818 0.09594561
v 0.02522456 0.02050347 0.0744601
v 0.09171241 -0.01978533 0.03417126
v 0.01157414 0.1406272 -0.1479232
v -0.1077861 0.1836038 -0.1752291
v 0.08460055 0.07987963 -0.1274018
v 0.156605 -0.0627858 -0.0970554
v 0.138802 0.003028739 -0.1076112
v -0.08372362 0.1576327 -0.03448803
v -0.01506422 0.08699135 0.0341713
v -0.0382674 0.09668061 0.03848981
v -0.0008034706 0.1189877 -0.04245145
v 0.1652793 -0.05850887 -0.09449901
v 0.156605 -0.0627858 -0.0970554
v 0.1627833 -0.09012154 -0.03435718
v 0.1361257 -0.1500144 0.05546868
v 0.1038488 -0.1966712 0.1127836
v 0.156605 -0.0627858 -0.0970554
v 0.09601969 -0.1975835 0.1066238
v -0.0008034706 0.1189877 -0.04245145
v 0.01157414 0.1406272 -0.1479232
v 0.08460055 0.07987963 -0.1274018
v 0.06938448 0.06466346 -0.04637855
v 0.01370106 -0.1515386 0.1667678
v 0.09601969 -0.1975835 0.1066238
v -0.1077861 0.1836038 -0.1752291
v -0.1442889 0.1861257 -0.1158549
v -0.009313688 0.03586354 0.08982025
v 0.006827225 -0.02262856 0.1250001
v -0.0382674 0.09668061 0.03848981
v -0.1417305 0.1954479 -0.1132818
v 0.01970886 -0.1489889 0.1743491
v 0.01793502 -0.0974567 0.1584409
v -0.009313688 0.03586354 0.08982025
v 0.02522456 0.02050347 0.0744601
v 0.006827225 -0.02262856 0.1250001
v 0.04671006 -0.02780818 0.09594561
v 0.1237088 -0.005524523 -0.04245149
v 0.1652793 -0.05850887 -0.09449901
v 0.1627833 -0.09012154 -0.03435718
v 0.138802 0.003028739 -0.1076112
v 0.1237088 -0.005524523 -0.04245149
v 0.08460055 0.07987963 -0.1274018
v 0.138802 0.003028739 -0.1076112
v 0.06938448 0.06466346 -0.04637855
v 0.1237088 -0.09640813 0.04843204
v 0.1237088 -0.005524523 -0.04245149
v 0.1627833 -0.09012154 -0.03435718
v 0.09171241 -0.01978533 0.03417126
v 0.1237088 -0.09640813 0.04843204
v 0.1361257 -0.1500144 0.05546868
v 0.08530361 -0.1851019 0.1345392
v 0.06938448 -0.1003353 0.1186201
v 0.01793502 -0.0974567 0.1584409
v 0.08530361 -0.1851019 0.1345392
v 0.01970886 -0.1489889 0.1743491
v 0.06938448 -0.1003353 0.1186201
v -0.07655085 0.1811687 -0.1263509
v -0.0008034706 0.1189877 -0.04245145
v -0.08372362 0.1576327 -0.03448803
v 0.01157414 0.1406272 -0.1479232
v -0.07655085 0.1811687 -0.1263509
v -0.1052118 0.19323 -0.1743473
v -0.07518707 0.1846452 -0.1682628
v -0.1417305 0.1954479 -0.1132818
v 0.04671006 -0.02780818 0.09594561
v 0.01793502 -0.0974567 0.1584409
v 0.006827225 -0.02262856 0.1250001
v 0.06938448 -0.1003353 0.1186201
v 0.04671006 -0.02780818 0.09594561
v 0.1237088 -0.09640813 0.04843204
v 0.06938448 -0.1003353 0.1186201
v 0.09171241 -0.01978533 0.03417126
vn -0.4559411 -0.6737568 -0.5815234
vn -0.4559411 -0.6737568 -0.5815234
vn -0.4559411 -0.6737568 -0.5815234
vn -0.7269171 0.2318325 0.6464095
vn -0.7269171 0.2318325 0.6464094
vn -0.7269171 0.2318325 0.6464094
vn 0.209977 -0.03756651 -0.9769843
vn 0.209977 -0.03756651 -0.9769843
vn 0.209977 -0.03756651 -0.9769843
vn 0.3124948 -0.06743909 -0.9475225
vn 0.3124948 -0.06743909 -0.9475225
vn 0.3124948 -0.0674391 -0.9475225
vn 0.2078184 0.03397325 -0.9775773
vn 0.2078183 0.03397325 -0.9775773
vn 0.2078184 0.03397325 -0.9775773
vn 0.7927939 0.170409 0.5851824
vn 0.792794 0.170409 0.5851824
vn 0.7927939 0.170409 0.5851824
vn -0.1666655 -0.9223928 0.3484455
vn -0.1666655 -0.9223928 0.3484455
vn -0.1666655 -0.9223928 0.3484455
vn 0.5738721 0.7122319 0.4042233
vn 0.5738721 0.7122319 0.4042233
vn 0.5738721 0.7122319 0.4042233
vn -0.2941013 -0.9095089 0.293765
vn -0.2941013 -0.9095089 0.293765
vn -0.2941013 -0.9095089 0.293765
vn -0.2030768 -0.8681262 0.4528982
vn -0.2030769 -0.8681262 0.4528982
vn -0.2030769 -0.8681262 0.4528981
vn -0.7973429 0.1201783 0.5914401
vn -0.7973429 0.1201783 0.5914401
vn -0.7973429 0.1201783 0.5914401
vn -0.8296016 0.07494783 0.5533029
vn -0.8296016 0.07494783 0.5533029
vn -0.8296016 0.07494783 0.5533029
vn -0.7970012 0.3538362 -0.4894783
vn -0.7970012 0.3538362 -0.4894783
vn -0.7970012 0.3538362 -0.4894783
vn -0.8162879 0.265303 -0.5131165
vn -0.8162879 0.2653029 -0.5131164
vn -0.8162879 0.2653029 -0.5131164
vn 0.6470435 0.6088444 0.4589587
vn 0.6470435 0.6088444 0.4589588
vn 0.6470435 0.6088444 0.4589587
vn 0.6088451 0.647043 0.4589588
vn 0.6088451 0.647043 0.4589588
vn 0.6088451 0.647043 0.4589588
vn 0.4012265 0.6947967 0.5968876
vn 0.4012265 0.6947967 0.5968876
vn 0.4012265 0.6947967 0.5968876
vn 0.5308483 0.6506841 0.5429643
vn 0.5308483 0.6506841 0.5429643
vn 0.5308483 0.6506841 0.5429643
vn 0.7122318 0.573872 0.4042237
vn 0.7122319 0.573872 0.4042237
vn 0.7122318 0.573872 0.4042237
vn 0.8663089 0.2568965 0.4283844
vn 0.8663089 0.2568965 0.4283843
vn 0.8663089 0.2568965 0.4283843
vn 0.4340962 0.8965101 0.08848901
vn 0.4340962 0.89651 0.088489
vn 0.4340962 0.8965101 0.088489
vn 0.2559166 0.9314598 0.2586297
vn 0.2559166 0.9314598 0.2586297
vn 0.2559166 0.9314598 0.2586297
vn 0.6506847 0.5308481 0.542964
vn 0.6506847 0.5308481 0.542964
vn 0.6506847 0.530848 0.542964
vn 0.1845258 -0.1081723 -0.9768566
vn 0.1797003 -0.1170645 -0.9767311
vn 0.1797003 -0.1170646 -0.9767311
vn 0.1797003 -0.1170646 -0.9767311
vn 0.2170046 -0.09708805 -0.9713305
vn 0.4152384 0.808641 0.4167454
vn 0.4152384 0.8086411 0.4167454
vn 0.4152384 0.808641 0.4167454
vn 0.4167455 0.808641 0.4152383
vn 0.4970168 -0.7764202 -0.3874867
vn 0.4637975 -0.7944599 -0.3920783
vn 0.4637975 -0.7944599 -0.3920784
vn 0.4637975 -0.7944599 -0.3920783
vn 0.418165 -0.8097941 -0.4115476
vn 0.418165 -0.8097941 -0.4115476
vn 0.418165 -0.8097941 -0.4115476
vn 0.5838898 0.7790536 0.2283595
vn 0.5838898 0.7790537 0.2283595
vn 0.5838898 0.7790536 0.2283595
vn 0.6007038 0.7576789 0.2551034
vn -0.6522364 -0.6441603 -0.3995563
vn -0.6522364 -0.6441603 -0.3995564
vn -0.6522364 -0.6441603 -0.3995563
vn -0.6696269 -0.6353014 -0.3846974
vn -0.7604587 0.1675052 0.627411
vn -0.7604569 0.1675069 0.6274127
vn -0.7604563 0.1675079 0.6274133
vn -0.7604569 0.1675069 0.6274127
vn -0.7604569 0.1675069 0.6274127
vn -0.7604535 0.1675086 0.6274165
vn 0.5306603 0.5395726 0.6536521
vn 0.5306602 0.5395726 0.6536521
vn 0.5306602 0.5395726 0.6536521
vn 0.5429635 0.530848 0.650685
vn 0.867036 0.4253083 0.2595406
vn 0.867036 0.4253083 0.2595406
vn 0.867036 0.4253083 0.2595406
vn 0.8666811 0.4276368 0.2568867
vn 0.7582341 0.6002886 0.2544301
vn 0.7582342 0.6002885 0.2544301
vn 0.7582341 0.6002885 0.25443
vn 0.7576789 0.6007038 0.2551033
vn 0.8106401 0.4140425 0.4140428
vn 0.8106401 0.4140425 0.4140428
vn 0.8106402 0.4140425 0.4140428
vn 0.8093804 0.415273 0.4152733
vn 0.7582529 0.2544292 0.6002653
vn 0.7582529 0.2544292 0.6002653
vn 0.7582529 0.2544292 0.6002653
vn 0.7576785 0.2551039 0.600704
vn 0.6003267 0.2546963 0.7581146
vn 0.6003267 0.2546963 0.7581145
vn 0.6003267 0.2546963 0.7581146
vn 0.6007026 0.2551039 0.7576796
vn 0.4284564 0.8666844 0.2555059
vn 0.4284564 0.8666844 0.2555059
vn 0.4284564 0.8666844 0.2555059
vn 0.4526287 0.8615575 0.2298826
vn 0.2572763 0.962305 0.08819304
vn 0.2572763 0.962305 0.08819304
vn 0.2572763 0.962305 0.08819305
vn 0.2326991 0.9669678 0.104041
vn 0.572344 0.4038916 0.7136482
vn 0.572344 0.4038916 0.7136482
vn 0.572344 0.4038916 0.7136482
vn 0.5742946 0.4024236 0.7129102
vn 0.712909 0.4024237 0.5742961
vn 0.712909 0.4024237 0.5742961
vn 0.712909 0.4024237 0.574296
vn 0.7134246 0.4044195 0.5722501
g Ball_Uv_01_Explode_Thin_14_Hull_0
f 3/3/3 2/2/2 1/1/1
f 6/6/6 5/5/5 4/4/4
f 9/9/9 8/8/8 7/7/7
f 12/12/12 11/11/11 10/10/10
f 15/15/15 14/14/14 13/13/13
f 18/18/18 17/17/17 16/16/16
f 21/21/21 20/20/20 19/19/19
f 24/24/24 23/23/23 22/22/22
f 27/27/27 26/26/26 25/25/25
f 30/30/30 29/29/29 28/28/28
f 33/33/33 32/32/32 31/31/31
f 36/36/36 35/35/35 34/34/34
f 39/39/39 38/38/38 37/37/37
f 42/42/42 41/41/41 40/40/40
f 45/45/45 44/44/44 43/43/43
f 48/48/48 47/47/47 46/46/46
f 51/51/51 50/50/50 49/49/49
f 54/54/54 53/53/53 52/52/52
f 57/57/57 56/56/56 55/55/55
f 60/60/60 59/59/59 58/58/58
f 63/63/63 62/62/62 61/61/61
f 66/66/66 65/65/65 64/64/64
f 69/69/69 68/68/68 67/67/67
f 72/72/72 71/71/71 70/70/70
f 73/73/73 71/71/71 72/72/72
f 73/73/73 72/72/72 74/74/74
f 77/77/77 76/76/76 75/75/75
f 75/75/75 76/76/76 78/78/78
f 81/81/81 80/80/80 79/79/79
f 80/80/80 81/81/81 82/82/82
f 84/84/84 82/82/82 83/83/83
f 85/85/85 84/84/84 83/83/83
f 88/88/88 87/87/87 86/86/86
f 89/89/89 88/88/88 86/86/86
f 92/92/92 91/91/91 90/90/90
f 92/92/92 90/90/90 93/93/93
f 96/96/96 95/95/95 94/94/94
f 97/97/97 95/95/95 96/96/96
f 97/97/97 98/98/98 95/95/95
f 95/95/95 98/98/98 99/99/99
f 102/102/102 101/101/101 100/100/100
f 101/101/101 102/102/102 103/103/103
f 106/106/106 105/105/105 104/104/104
f 105/105/105 107/107/107 104/104/104
f 110/110/110 109/109/109 108/108/108
f 109/109/109 111/111/111 108/108/108
f 114/114/114 113/113/113 112/112/112
f 113/113/113 115/115/115 112/112/112
f 118/118/118 117/117/117 116/116/116
f 119/119/119 118/118/118 116/116/116
f 122/122/122 121/121/121 120/120/120
f 121/121/121 123/123/123 120/120/120
f 126/126/126 125/125/125 124/124/124
f 125/125/125 127/127/127 124/124/124
f 130/130/130 129/129/129 128/128/128
f 129/129/129 131/131/131 128/128/128
f 134/134/134 133/133/133 132/132/132
f 133/133/133 135/135/135 132/132/132
f 138/138/138 137/137/137 136/136/136
f 137/137/137 139/139/139 136/136/136
