g Ball_Uv_01_Explode_Thin_11_Hull
v -0.1247976 -0.221489 0.2407234
v -0.01717681 -0.1044366 0.315006
v 0.212897 0.197043 0.137953
v 0.161228 0.2266887 0.02049187
v 0.07348596 0.203507 0.01734907
v 0.07301959 0.2046958 -0.1610785
v 0.005860119 0.1161067 -0.2905459
v -0.1247976 -0.221489 0.2407234
v 0.212897 0.197043 0.137953
v -0.1332679 0.02051657 -0.231202
v -0.04891684 0.07227732 -0.3150309
v -0.0884251 0.1029972 -0.1702503
v -0.01837725 0.1687402 -0.07903045
v -0.002255778 0.1413307 0.1012421
v -0.0884251 0.1029971 0.01218946
v -0.01837725 0.1687402 -0.07903045
v 0.07348596 0.203507 0.01734907
v -0.002255778 0.1413307 0.1012421
v -0.01837725 0.1687402 -0.07903045
v -0.0884251 0.1029971 0.01218946
v -0.0884251 0.1029972 -0.1702503
v -0.01837725 0.1687402 -0.07903045
v 0.07301959 0.2046958 -0.1610785
v 0.07348596 0.203507 0.01734907
v -0.04976576 0.0643377 0.1698369
v -0.0884251 0.1029971 0.01218946
v -0.002255778 0.1413307 0.1012421
v 0.08862097 0.1413307 0.1921189
v 0.08151758 0.08356198 0.2588532
v 0.02002614 0.06433766 0.2396289
v 0.08862097 0.1413307 0.1921189
v -0.002255778 0.1413307 0.1012421
v 0.07348596 0.203507 0.01734907
v -0.002255778 0.1413309 -0.2593031
v -0.01837725 0.1687402 -0.07903045
v -0.0884251 0.1029972 -0.1702503
v -0.002255778 0.1413309 -0.2593031
v 0.07301959 0.2046958 -0.1610785
v -0.01837725 0.1687402 -0.07903045
v -0.002255778 0.1413309 -0.2593031
v -0.0884251 0.1029972 -0.1702503
v -0.04891684 0.07227732 -0.3150309
v -0.04976576 -0.005454283 0.2396289
v -0.04976576 0.0643377 0.1698369
v 0.02002614 0.06433766 0.2396289
v -0.1541682 0.03294924 -0.07903048
v -0.0884251 0.1029972 -0.1702503
v -0.0884251 0.1029971 0.01218946
v -0.1541682 0.03294924 -0.07903048
v -0.0884251 0.1029971 0.01218946
v -0.1470026 0.02829992 0.01384547
v -0.1541682 0.03294924 -0.07903048
v -0.1332679 0.02051657 -0.231202
v -0.0884251 0.1029972 -0.1702503
v -0.1541682 0.03294924 -0.07903048
v -0.1940599 -0.05690347 -0.1136255
v -0.1332679 0.02051657 -0.231202
v 0.1499901 0.1555457 0.2001746
v 0.08151758 0.08356198 0.2588532
v 0.08862097 0.1413307 0.1921189
v -0.0884251 -0.1631019 0.2782882
v -0.04976576 -0.005454283 0.2396289
v -0.01717681 -0.1044366 0.315006
v -0.0884251 -0.1631019 0.2782882
v -0.1267587 -0.0740492 0.1921189
v -0.04976576 -0.005454283 0.2396289
v -0.0884251 -0.1631019 0.2782882
v -0.01717681 -0.1044366 0.315006
v -0.1247976 -0.221489 0.2407234
v 0.03187359 0.006266022 0.2929251
v -0.04976576 -0.005454283 0.2396289
v 0.02002614 0.06433766 0.2396289
v 0.03187359 0.006266022 0.2929251
v -0.01717681 -0.1044366 0.315006
v -0.04976576 -0.005454283 0.2396289
v 0.03187359 0.006266022 0.2929251
v 0.02002614 0.06433766 0.2396289
v 0.08151758 0.08356198 0.2588532
v 0.01923262 0.1513455 -0.2613668
v -0.04891684 0.07227732 -0.3150309
v 0.005860119 0.1161067 -0.2905459
v 0.01923262 0.1513455 -0.2613668
v -0.002255778 0.1413309 -0.2593031
v -0.04891684 0.07227732 -0.3150309
v 0.01923262 0.1513455 -0.2613668
v 0.005860119 0.1161067 -0.2905459
v 0.07301959 0.2046958 -0.1610785
v 0.01923262 0.1513455 -0.2613668
v 0.07301959 0.2046958 -0.1610785
v -0.002255778 0.1413309 -0.2593031
v -0.1267587 0.01682771 0.1012421
v -0.1267587 -0.0740492 0.1921189
v -0.188935 -0.1579423 0.1163771
v -0.1267587 0.01682771 0.1012421
v -0.1470026 0.02829992 0.01384547
v -0.0884251 0.1029971 0.01218946
v -0.1267587 0.01682771 0.1012421
v -0.0884251 0.1029971 0.01218946
v -0.04976576 0.0643377 0.1698369
v -0.1940604 -0.2197327 0.1183877
v -0.1247976 -0.221489 0.2407234
v -0.1812123 -0.2275995 0.1235262
v -0.1940604 -0.2197327 0.1183877
v -0.188935 -0.1579423 0.1163771
v -0.1247976 -0.221489 0.2407234
v -0.1940604 -0.2197327 0.1183877
v -0.1812123 -0.2275995 0.1235262
v -0.2128742 -0.1495232 0.02059441
v -0.1940604 -0.2197327 0.1183877
v -0.2128742 -0.1495232 0.02059441
v -0.188935 -0.1579423 0.1163771
v -0.1247976 -0.221489 0.2407234
v -0.04891684 0.07227732 -0.3150309
v -0.1812123 -0.2275995 0.1235262
v 0.005860119 0.1161067 -0.2905459
v 0.161228 0.2266887 0.02049187
v 0.212897 0.197043 0.137953
v 0.07348596 0.203507 0.01734907
v 0.08862097 0.1413307 0.1921189
v 0.1499901 0.1555457 0.2001746
v -0.2128742 -0.1495232 0.02059441
v -0.1812123 -0.2275995 0.1235262
v -0.1940599 -0.05690347 -0.1136255
v -0.1332679 0.02051657 -0.231202
v -0.04891684 0.07227732 -0.3150309
v 0.005860119 0.1161067 -0.2905459
v 0.161228 0.2266887 0.02049187
v 0.07301959 0.2046958 -0.1610785
v 0.212897 0.197043 0.137953
v -0.1470026 0.02829992 0.01384547
v -0.2128742 -0.1495232 0.02059441
v -0.1940599 -0.05690347 -0.1136255
v -0.1541682 0.03294924 -0.07903048
v -0.04976576 0.0643377 0.1698369
v -0.002255778 0.1413307 0.1012421
v 0.02002614 0.06433766 0.2396289
v 0.08862097 0.1413307 0.1921189
v -0.188935 -0.1579423 0.1163771
v -0.1267587 -0.0740492 0.1921189
v -0.1247976 -0.221489 0.2407234
v -0.0884251 -0.1631019 0.2782882
v -0.04976576 -0.005454283 0.2396289
v -0.1267587 -0.0740492 0.1921189
v -0.04976576 0.0643377 0.1698369
v -0.1267587 0.01682771 0.1012421
v 0.1499901 0.1555457 0.2001746
v 0.212897 0.197043 0.137953
v 0.08151758 0.08356198 0.2588532
v -0.01717681 -0.1044366 0.315006
v 0.03187359 0.006266022 0.2929251
v -0.1267587 0.01682771 0.1012421
v -0.2128742 -0.1495232 0.02059441
v -0.1470026 0.02829992 0.01384547
v -0.188935 -0.1579423 0.1163771
vn 0.7627064 -0.6393461 -0.09754745
vn 0.7627064 -0.6393461 -0.09754745
vn 0.7627064 -0.6393461 -0.09754745
vn -0.25567 0.966738 0.00710958
vn -0.25567 0.966738 0.007109579
vn -0.25567 0.966738 0.007109579
vn 0.7288951 -0.6446893 -0.2304076
vn 0.7288951 -0.6446892 -0.2304076
vn 0.7288951 -0.6446893 -0.2304076
vn -0.7082872 0.6260776 -0.3261227
vn -0.7082872 0.6260776 -0.3261227
vn -0.7082872 0.6260776 -0.3261227
vn -0.5443754 0.8207098 0.1734672
vn -0.5443754 0.8207098 0.1734672
vn -0.5443754 0.8207098 0.1734672
vn -0.5027359 0.8468064 0.1737114
vn -0.5027358 0.8468064 0.1737113
vn -0.5027359 0.8468064 0.1737114
vn -0.6843466 0.729157 3.04924E-07
vn -0.6843464 0.729157 3.04924E-07
vn -0.6843464 0.729157 3.04924E-07
vn -0.360511 0.9327275 0.007157004
vn -0.3605109 0.9327275 0.007157003
vn -0.360511 0.9327275 0.007157003
vn -0.6454306 0.690048 0.3274952
vn -0.6454306 0.690048 0.3274952
vn -0.6454306 0.690048 0.3274952
vn -0.4024241 0.712909 0.5742958
vn -0.402424 0.712909 0.5742957
vn -0.4024241 0.712909 0.5742958
vn -0.3411592 0.8759113 0.3411594
vn -0.3411592 0.8759113 0.3411594
vn -0.3411592 0.8759113 0.3411593
vn -0.5443755 0.8207098 -0.1734665
vn -0.5443755 0.8207098 -0.1734665
vn -0.5443755 0.8207098 -0.1734665
vn -0.4916281 0.8533043 -0.1737052
vn -0.491628 0.8533043 -0.1737052
vn -0.4916281 0.8533043 -0.1737052
vn -0.6426954 0.6947949 -0.3228044
vn -0.6426954 0.6947949 -0.3228044
vn -0.6426954 0.6947949 -0.3228044
vn -0.5773506 0.5773499 0.5773502
vn -0.5773506 0.57735 0.5773503
vn -0.5773506 0.57735 0.5773503
vn -0.7291571 0.6843464 2.861848E-07
vn -0.729157 0.6843464 2.861848E-07
vn -0.729157 0.6843464 2.861848E-07
vn -0.7826343 0.6157637 0.0912066
vn -0.7826343 0.6157638 0.0912066
vn -0.7826343 0.6157637 0.0912066
vn -0.8140901 0.5589781 -0.1574825
vn -0.8140901 0.5589783 -0.1574825
vn -0.8140901 0.5589782 -0.1574825
vn -0.8786519 0.4507356 -0.1575062
vn -0.8786519 0.4507356 -0.1575063
vn -0.8786519 0.4507356 -0.1575062
vn -0.253526 0.744558 0.6175419
vn -0.253526 0.744558 0.6175419
vn -0.253526 0.7445579 0.6175419
vn -0.6316419 0.3272424 0.7028093
vn -0.6316419 0.3272424 0.7028093
vn -0.6316419 0.3272423 0.7028093
vn -0.6900482 0.3274944 0.6454307
vn -0.6900483 0.3274944 0.6454306
vn -0.6900483 0.3274944 0.6454306
vn 0.02464929 -0.5517164 0.8336674
vn 0.02464929 -0.5517164 0.8336674
vn 0.02464929 -0.5517164 0.8336675
vn -0.5184016 0.518401 0.6800884
vn -0.5184016 0.518401 0.6800884
vn -0.5184016 0.518401 0.6800885
vn -0.5421307 0.388795 0.7449381
vn -0.5421307 0.388795 0.7449381
vn -0.5421307 0.388795 0.7449381
vn -0.4023622 0.5731063 0.7139004
vn -0.4023622 0.5731063 0.7139004
vn -0.4023622 0.5731063 0.7139004
vn -0.2194441 0.6702861 -0.7089153
vn -0.2194441 0.6702861 -0.7089153
vn -0.2194441 0.6702861 -0.7089153
vn -0.3917628 0.723465 -0.5684367
vn -0.3917628 0.723465 -0.5684367
vn -0.3917628 0.723465 -0.5684367
vn 0.8541538 0.09864427 -0.5105787
vn 0.8541538 0.09864426 -0.5105786
vn 0.8541538 0.09864427 -0.5105787
vn -0.4290714 0.8724374 -0.233989
vn -0.4290714 0.8724374 -0.233989
vn -0.4290714 0.8724374 -0.233989
vn -0.8759114 0.341159 0.3411596
vn -0.8759113 0.3411589 0.3411595
vn -0.8759114 0.341159 0.3411596
vn -0.7582541 0.6002633 0.2544304
vn -0.7582541 0.6002633 0.2544304
vn -0.758254 0.6002633 0.2544304
vn -0.6900481 0.6454305 0.3274951
vn -0.6900481 0.6454305 0.3274952
vn -0.6900481 0.6454305 0.3274951
vn -0.5845373 -0.7454925 0.3202452
vn -0.5845374 -0.7454925 0.3202452
vn -0.5845374 -0.7454925 0.3202452
vn -0.8663012 0.08785887 0.4917347
vn -0.8663013 0.08785887 0.4917346
vn -0.8663012 0.08785887 0.4917347
vn -0.2832333 -0.8040479 -0.5227675
vn -0.2832333 -0.8040479 -0.5227675
vn -0.2832333 -0.8040479 -0.5227675
vn -0.9645361 0.08810274 0.2488132
vn -0.9645361 0.08810273 0.2488132
vn -0.9645361 0.08810273 0.2488132
vn 0.6574537 -0.6995379 -0.2800024
vn 0.6574536 -0.6995379 -0.2800024
vn 0.6574536 -0.6995379 -0.2800024
vn 0.6724045 -0.6883721 -0.2720589
vn -0.251619 0.9063511 0.3394341
vn -0.2516191 0.9063511 0.3394341
vn -0.251619 0.9063511 0.3394341
vn -0.255365 0.903721 0.3436233
vn -0.2545548 0.9033763 0.3451275
vn -0.1236292 -0.8085578 -0.5752826
vn -0.1236292 -0.8085577 -0.5752826
vn -0.1236292 -0.8085577 -0.5752826
vn -0.07645173 -0.8121611 -0.5784024
vn -0.07645174 -0.8121611 -0.5784024
vn 0.9007191 -0.05266801 -0.4311973
vn 0.9007191 -0.05266801 -0.4311972
vn 0.9007191 -0.05266801 -0.4311972
vn 0.9033191 -0.08860962 -0.4197178
vn -0.9306338 0.348925 0.1103268
vn -0.9306338 0.348925 0.1103268
vn -0.9306338 0.3489249 0.1103268
vn -0.9226528 0.3749927 0.08995646
vn -0.4837053 0.7294233 0.4837051
vn -0.4837053 0.7294233 0.4837052
vn -0.4837053 0.7294233 0.4837052
vn -0.483705 0.7294234 0.4837052
vn -0.8420853 0.1587244 0.5154598
vn -0.8420853 0.1587244 0.5154598
vn -0.8420853 0.1587244 0.5154598
vn -0.8252124 0.1669064 0.5395988
vn -0.7294239 0.4837047 0.483705
vn -0.7294239 0.4837047 0.483705
vn -0.7294239 0.4837047 0.483705
vn -0.7294236 0.4837047 0.4837056
vn 0.7540655 -0.2099834 0.622328
vn 0.7540659 -0.2099839 0.6223274
vn 0.7540659 -0.2099839 0.6223273
vn 0.7540659 -0.2099839 0.6223274
vn 0.7540633 -0.2099813 0.6223314
vn -0.90366 0.3444057 0.2545257
vn -0.90366 0.3444057 0.2545257
vn -0.90366 0.3444057 0.2545257
vn -0.9035373 0.3436146 0.2560264
g Ball_Uv_01_Explode_Thin_11_Hull_0
f 3/3/3 2/2/2 1/1/1
f 6/6/6 5/5/5 4/4/4
f 9/9/9 8/8/8 7/7/7
f 12/12/12 11/11/11 10/10/10
f 15/15/15 14/14/14 13/13/13
f 18/18/18 17/17/17 16/16/16
f 21/21/21 20/20/20 19/19/19
f 24/24/24 23/23/23 22/22/22
f 27/27/27 26/26/26 25/25/25
f 30/30/30 29/29/29 28/28/28
f 33/33/33 32/32/32 31/31/31
f 36/36/36 35/35/35 34/34/34
f 39/39/39 38/38/38 37/37/37
f 42/42/42 41/41/41 40/40/40
f 45/45/45 44/44/44 43/43/43
f 48/48/48 47/47/47 46/46/46
f 51/51/51 50/50/50 49/49/49
f 54/54/54 53/53/53 52/52/52
f 57/57/57 56/56/56 55/55/55
f 60/60/60 59/59/59 58/58/58
f 63/63/63 62/62/62 61/61/61
f 66/66/66 65/65/65 64/64/64
f 69/69/69 68/68/68 67/67/67
f 72/72/72 71/71/71 70/70/70
f 75/75/75 74/74/74 73/73/73
f 78/78/78 77/77/77 76/76/76
f 81/81/81 80/80/80 79/79/79
f 84/84/84 83/83/83 82/82/82
f 87/87/87 86/86/86 85/85/85
f 90/90/90 89/89/89 88/88/88
f 93/93/93 92/92/92 91/91/91
f 96/96/96 95/95/95 94/94/94
f 99/99/99 98/98/98 97/97/97
f 102/102/102 101/101/101 100/100/100
f 105/105/105 104/104/104 103/103/103
f 108/108/108 107/107/107 106/106/106
f 111/111/111 110/110/110 109/109/109
f 114/114/114 113/113/113 112/112/112
f 112/112/112 113/113/113 115/115/115
f 118/118/118 117/117/117 116/116/116
f 117/117/117 118/118/118 119/119/119
f 117/117/117 119/119/119 120/120/120
f 123/123/123 122/122/122 121/121/121
f 122/122/122 123/123/123 124/124/124
f 125/125/125 122/122/122 124/124/124
f 128/128/128 127/127/127 126/126/126
f 127/127/127 129/129/129 126/126/126
f 132/132/132 131/131/131 130/130/130
f 132/132/132 130/130/130 133/133/133
f 136/136/136 135/135/135 134/134/134
f 135/135/135 136/136/136 137/137/137
f 140/140/140 139/139/139 138/138/138
f 139/139/139 140/140/140 141/141/141
f 144/144/144 143/143/143 142/142/142
f 143/143/143 144/144/144 145/145/145
f 148/148/148 147/147/147 146/146/146
f 149/149/149 147/147/147 148/148/148
f 149/149/149 148/148/148 150/150/150
f 153/153/153 152/152/152 151/151/151
f 152/152/152 154/154/154 151/151/151
