g Ball_Uv_01_Explode_Thin_16_Hull
v -0.3167168 0.1099068 0.2149898
v -0.3048936 0.02825785 0.1825372
v 0.2274483 -0.04875912 -0.2844323
v 0.2838727 0.01674768 -0.239893
v 0.295019 0.1544438 0.09367651
v -0.3167168 0.1099068 0.2149898
v 0.2838727 0.01674768 -0.239893
v -0.3167168 0.1099068 0.2149898
v 0.2274483 -0.04875912 -0.2844323
v 0.2838727 0.01674768 -0.239893
v 0.2274483 -0.04875912 -0.2844323
v 0.3100563 0.02476468 -0.1792134
v 0.3136244 0.04308674 -0.08634081
v 0.3100563 0.02476468 -0.1792134
v 0.2550489 -0.0316079 -0.08799683
v -0.009384422 -0.09018326 0.1033979
v 0.07408235 -0.01562182 0.1621065
v 0.08597166 -0.1085808 0.00901514
v -0.009384422 -0.09018326 0.1033979
v -0.1022571 -0.03763287 0.1841174
v 0.07408235 -0.01562182 0.1621065
v -0.005885429 0.1301873 0.2785459
v 0.1686322 0.1440865 0.2158628
v 0.07800916 0.05455838 0.2164246
v -0.1980256 0.1151739 0.2713274
v -0.3167168 0.1099068 0.2149898
v -0.1022571 0.122621 0.2844048
v -0.1980256 0.1151739 0.2713274
v -0.1022571 0.122621 0.2844048
v -0.1951297 0.04308663 0.2366677
v -0.002853236 -0.1544467 -0.06834081
v 0.08597166 -0.1085808 0.00901514
v 0.09558158 -0.1383289 -0.1577609
v 0.216391 0.07683945 0.1394345
v 0.07408235 -0.01562182 0.1621065
v 0.07800916 0.05455838 0.2164246
v 0.216391 0.07683945 0.1394345
v 0.216391 0.007050025 0.06964503
v 0.07408235 -0.01562182 0.1621065
v 0.216391 0.07683945 0.1394345
v 0.07800916 0.05455838 0.2164246
v 0.1686322 0.1440865 0.2158628
v 0.216391 0.07683945 0.1394345
v 0.1686322 0.1440865 0.2158628
v 0.295019 0.1544438 0.09367651
v 0.1688827 -0.06994005 0.001052642
v 0.2550489 -0.0316079 -0.08799683
v 0.1850036 -0.09734844 -0.1792135
v 0.1688827 -0.06994005 0.001052642
v 0.07408235 -0.01562182 0.1621065
v 0.216391 0.007050025 0.06964503
v 0.1688827 -0.06994005 0.001052642
v 0.08597166 -0.1085808 0.00901514
v 0.07408235 -0.01562182 0.1621065
v 0.1688827 -0.06994005 0.001052642
v 0.216391 0.007050025 0.06964503
v 0.2550489 -0.0316079 -0.08799683
v -0.009384422 0.04308663 0.2366679
v -0.005885429 0.1301873 0.2785459
v 0.07800916 0.05455838 0.2164246
v -0.009384422 0.04308663 0.2366679
v -0.1022571 0.122621 0.2844048
v -0.005885429 0.1301873 0.2785459
v -0.009384422 0.04308663 0.2366679
v 0.07408235 -0.01562182 0.1621065
v -0.1022571 -0.03763287 0.1841174
v -0.009384422 0.04308663 0.2366679
v 0.07800916 0.05455838 0.2164246
v 0.07408235 -0.01562182 0.1621065
v -0.2876815 0.108269 0.2414565
v -0.1951297 0.04308663 0.2366677
v -0.3048936 0.02825785 0.1825372
v -0.2876815 0.108269 0.2414565
v -0.1980256 0.1151739 0.2713274
v -0.1951297 0.04308663 0.2366677
v -0.2876815 0.108269 0.2414565
v -0.3048936 0.02825785 0.1825372
v -0.3167168 0.1099068 0.2149898
v -0.2876815 0.108269 0.2414565
v -0.3167168 0.1099068 0.2149898
v -0.1980256 0.1151739 0.2713274
v 0.2933812 0.05455846 0.00105268
v 0.2550489 -0.0316079 -0.08799683
v 0.216391 0.007050025 0.06964503
v 0.2933812 0.05455846 0.00105268
v 0.3136244 0.04308674 -0.08634081
v 0.2550489 -0.0316079 -0.08799683
v 0.3208482 0.05811135 -0.08573727
v 0.2933812 0.05455846 0.00105268
v 0.295019 0.1544438 0.09367651
v 0.3208482 0.05811135 -0.08573727
v 0.3136244 0.04308674 -0.08634081
v 0.2933812 0.05455846 0.00105268
v 0.3208482 0.05811135 -0.08573727
v 0.3100563 0.02476468 -0.1792134
v 0.3136244 0.04308674 -0.08634081
v 0.1819886 -0.09270171 -0.2394412
v 0.1850036 -0.09734844 -0.1792135
v 0.2274483 -0.04875912 -0.2844323
v 0.1819886 -0.09270171 -0.2394412
v 0.09558158 -0.1383289 -0.1577609
v 0.1850036 -0.09734844 -0.1792135
v -0.1934737 -0.03160802 0.1780925
v -0.1022571 -0.03763287 0.1841174
v -0.2018955 -0.08861611 0.1025098
v -0.1934737 -0.03160802 0.1780925
v -0.1951297 0.04308663 0.2366677
v -0.1022571 -0.03763287 0.1841174
v -0.1934737 -0.03160802 0.1780925
v -0.2018955 -0.08861611 0.1025098
v -0.3048936 0.02825785 0.1825372
v -0.1934737 -0.03160802 0.1780925
v -0.3048936 0.02825785 0.1825372
v -0.1951297 0.04308663 0.2366677
v 0.1686322 0.1440865 0.2158628
v -0.3167168 0.1099068 0.2149898
v 0.295019 0.1544438 0.09367651
v -0.005885429 0.1301873 0.2785459
v -0.1022571 0.122621 0.2844048
v -0.2018955 -0.08861611 0.1025098
v -0.1022571 -0.1402277 0.0188724
v -0.3048936 0.02825785 0.1825372
v 0.2274483 -0.04875912 -0.2844323
v 0.09558158 -0.1383289 -0.1577609
v -0.002853236 -0.1544467 -0.06834081
v 0.1819886 -0.09270171 -0.2394412
v -0.009384422 -0.09018326 0.1033979
v -0.2018955 -0.08861611 0.1025098
v -0.1022571 -0.03763287 0.1841174
v -0.1022571 -0.1402277 0.0188724
v -0.009384422 -0.09018326 0.1033979
v 0.08597166 -0.1085808 0.00901514
v -0.1022571 -0.1402277 0.0188724
v -0.002853236 -0.1544467 -0.06834081
v 0.1850036 -0.09734844 -0.1792135
v 0.3100563 0.02476468 -0.1792134
v 0.2274483 -0.04875912 -0.2844323
v 0.2550489 -0.0316079 -0.08799683
v 0.1688827 -0.06994005 0.001052642
v 0.09558158 -0.1383289 -0.1577609
v 0.08597166 -0.1085808 0.00901514
v 0.1850036 -0.09734844 -0.1792135
v -0.009384422 0.04308663 0.2366679
v -0.1951297 0.04308663 0.2366677
v -0.1022571 0.122621 0.2844048
v -0.1022571 -0.03763287 0.1841174
v 0.2933812 0.05455846 0.00105268
v 0.216391 0.07683945 0.1394345
v 0.295019 0.1544438 0.09367651
v 0.216391 0.007050025 0.06964503
v 0.3208482 0.05811135 -0.08573727
v 0.2838727 0.01674768 -0.239893
v 0.3100563 0.02476468 -0.1792134
v 0.295019 0.1544438 0.09367651
vn -0.6280169 0.2072017 -0.7501082
vn -0.6280169 0.2072017 -0.7501082
vn -0.6280168 0.2072017 -0.7501082
vn -0.1408608 0.9167771 -0.3737351
vn -0.1408608 0.9167771 -0.3737351
vn -0.1408608 0.9167771 -0.3737351
vn -0.3492149 0.7136656 -0.6072317
vn -0.3492149 0.7136656 -0.6072317
vn -0.3492149 0.7136656 -0.6072317
vn 0.8134537 -0.5076107 -0.2839447
vn 0.8134537 -0.5076107 -0.2839447
vn 0.8134537 -0.5076107 -0.2839447
vn 0.7826176 -0.6157548 0.09140981
vn 0.7826177 -0.6157548 0.0914098
vn 0.7826177 -0.6157547 0.0914098
vn 0.3487178 -0.7888467 0.5060797
vn 0.3487179 -0.7888468 0.5060797
vn 0.3487179 -0.7888467 0.5060797
vn 0.1737192 -0.7218931 0.6698448
vn 0.1737192 -0.7218931 0.6698448
vn 0.1737192 -0.7218931 0.6698448
vn 0.3417426 -0.3404253 0.8759696
vn 0.3417426 -0.3404252 0.8759696
vn 0.3417426 -0.3404253 0.8759696
vn -0.09043168 0.9910828 0.09786268
vn -0.09043168 0.9910828 0.09786268
vn -0.09043168 0.9910828 0.09786268
vn -0.08860416 -0.4345027 0.8963016
vn -0.08860416 -0.4345027 0.8963016
vn -0.08860416 -0.4345027 0.8963016
vn 0.3195346 -0.9294973 0.1842077
vn 0.3195346 -0.9294973 0.1842077
vn 0.3195346 -0.9294973 0.1842077
vn 0.4705934 -0.5563747 0.6848277
vn 0.4705934 -0.5563747 0.6848277
vn 0.4705934 -0.5563747 0.6848277
vn 0.4965633 -0.6137694 0.6137687
vn 0.4965633 -0.6137694 0.6137687
vn 0.4965633 -0.6137694 0.6137688
vn 0.4835273 -0.4848677 0.7287694
vn 0.4835273 -0.4848677 0.7287692
vn 0.4835273 -0.4848677 0.7287692
vn 0.6777527 -0.28771 0.6766641
vn 0.6777527 -0.28771 0.6766641
vn 0.6777527 -0.28771 0.6766641
vn 0.5443746 -0.8207104 0.1734666
vn 0.5443746 -0.8207104 0.1734666
vn 0.5443746 -0.8207104 0.1734666
vn 0.4490076 -0.7326998 0.511413
vn 0.4490076 -0.7326998 0.511413
vn 0.4490075 -0.7326997 0.511413
vn 0.4052726 -0.7671174 0.4972775
vn 0.4052727 -0.7671174 0.4972775
vn 0.4052727 -0.7671174 0.4972774
vn 0.6454301 -0.6900488 0.3274945
vn 0.6454301 -0.6900488 0.3274945
vn 0.6454301 -0.6900488 0.3274945
vn 0.2568782 -0.4271388 0.866929
vn 0.2568782 -0.4271388 0.866929
vn 0.2568782 -0.4271388 0.866929
vn 0.08860434 -0.4345016 0.8963022
vn 0.08860434 -0.4345016 0.8963022
vn 0.08860434 -0.4345016 0.8963022
vn 0.1737191 -0.6698449 0.7218929
vn 0.1737191 -0.669845 0.7218929
vn 0.1737191 -0.6698449 0.7218929
vn 0.2544051 -0.6007915 0.757844
vn 0.2544051 -0.6007915 0.757844
vn 0.254405 -0.6007915 0.7578441
vn -0.3219699 -0.5155028 0.7940984
vn -0.32197 -0.5155028 0.7940984
vn -0.32197 -0.5155028 0.7940984
vn -0.2560086 -0.4272117 0.8671505
vn -0.2560086 -0.4272117 0.8671505
vn -0.2560086 -0.4272117 0.8671504
vn -0.6389868 -0.3622421 0.6785841
vn -0.6389868 -0.3622421 0.6785841
vn -0.6389868 -0.3622421 0.6785841
vn -0.148281 0.9636355 0.2223047
vn -0.148281 0.9636355 0.2223047
vn -0.148281 0.9636355 0.2223048
vn 0.6900488 -0.64543 0.3274945
vn 0.6900488 -0.64543 0.3274946
vn 0.6900488 -0.6454301 0.3274945
vn 0.7582541 -0.6002631 0.2544302
vn 0.7582542 -0.6002632 0.2544302
vn 0.7582542 -0.6002631 0.2544302
vn 0.9199142 -0.2746262 0.27989
vn 0.9199142 -0.2746262 0.27989
vn 0.9199142 -0.2746262 0.27989
vn 0.8669284 -0.4271404 0.2568778
vn 0.8669284 -0.4271404 0.2568778
vn 0.8669284 -0.4271404 0.2568778
vn 0.8992566 -0.43442 0.05115466
vn 0.8992566 -0.43442 0.05115467
vn 0.8992566 -0.43442 0.05115467
vn 0.6441968 -0.7594461 -0.09084139
vn 0.6441968 -0.7594461 -0.09084139
vn 0.6441968 -0.7594461 -0.0908414
vn 0.3969196 -0.9133966 -0.09034051
vn 0.3969196 -0.9133966 -0.09034051
vn 0.3969196 -0.9133966 -0.09034051
vn -0.09221501 -0.7900006 0.6061316
vn -0.09221502 -0.7900006 0.6061316
vn -0.09221502 -0.7900006 0.6061316
vn -0.09235521 -0.6157125 0.7825398
vn -0.09235521 -0.6157125 0.7825398
vn -0.09235521 -0.6157125 0.7825398
vn -0.365197 -0.7232103 0.5861723
vn -0.365197 -0.7232103 0.5861723
vn -0.365197 -0.7232103 0.5861723
vn -0.289564 -0.5946131 0.7500587
vn -0.289564 -0.5946131 0.7500587
vn -0.289564 -0.5946131 0.7500587
vn -0.07026514 0.9974577 0.01187101
vn -0.07026514 0.9974577 0.01187101
vn -0.07026514 0.9974577 0.01187101
vn -0.07516362 0.9959267 0.04980427
vn -0.07516362 0.9959267 0.04980427
vn -0.6637033 -0.07533194 -0.7441928
vn -0.6637036 -0.07533226 -0.7441926
vn -0.6637036 -0.07533226 -0.7441926
vn -0.6637036 -0.07533226 -0.7441926
vn -0.6637033 -0.07533322 -0.7441928
vn -0.6637031 -0.07533754 -0.7441925
vn -0.6637037 -0.07533222 -0.7441924
vn -0.009343605 -0.8428958 0.5379957
vn -0.009343605 -0.8428958 0.5379956
vn -0.009343605 -0.8428958 0.5379957
vn -0.009352881 -0.8559148 0.5170324
vn 0.1730657 -0.9190915 0.3540041
vn 0.1730657 -0.9190915 0.3540042
vn 0.1730657 -0.9190915 0.3540041
vn 0.1731387 -0.9215258 0.3475821
vn 0.6978251 -0.7146237 -0.04850935
vn 0.6978251 -0.7146237 -0.04850935
vn 0.6978251 -0.7146236 -0.04850935
vn 0.6984957 -0.7153106 -0.02084548
vn 0.4296778 -0.8843475 0.1825009
vn 0.4296778 -0.8843475 0.1825009
vn 0.4296778 -0.8843475 0.1825009
vn 0.4443772 -0.8789034 0.1733719
vn -5.31361E-07 -0.5146255 0.857415
vn -5.31361E-07 -0.5146256 0.857415
vn -5.31361E-07 -0.5146256 0.857415
vn -5.163378E-07 -0.545592 0.838051
vn 0.7405698 -0.4634018 0.4866366
vn 0.7405698 -0.4634017 0.4866365
vn 0.7405698 -0.4634018 0.4866365
vn 0.729424 -0.483705 0.4837045
vn 0.5454605 0.7675008 -0.3367721
vn 0.5454605 0.7675008 -0.3367721
vn 0.5454606 0.7675008 -0.3367721
vn 0.5399202 0.7715179 -0.336521
g Ball_Uv_01_Explode_Thin_16_Hull_0
f 3/3/3 2/2/2 1/1/1
f 6/6/6 5/5/5 4/4/4
f 9/9/9 8/8/8 7/7/7
f 12/12/12 11/11/11 10/10/10
f 15/15/15 14/14/14 13/13/13
f 18/18/18 17/17/17 16/16/16
f 21/21/21 20/20/20 19/19/19
f 24/24/24 23/23/23 22/22/22
f 27/27/27 26/26/26 25/25/25
f 30/30/30 29/29/29 28/28/28
f 33/33/33 32/32/32 31/31/31
f 36/36/36 35/35/35 34/34/34
f 39/39/39 38/38/38 37/37/37
f 42/42/42 41/41/41 40/40/40
f 45/45/45 44/44/44 43/43/43
f 48/48/48 47/47/47 46/46/46
f 51/51/51 50/50/50 49/49/49
f 54/54/54 53/53/53 52/52/52
f 57/57/57 56/56/56 55/55/55
f 60/60/60 59/59/59 58/58/58
f 63/63/63 62/62/62 61/61/61
f 66/66/66 65/65/65 64/64/64
f 69/69/69 68/68/68 67/67/67
f 72/72/72 71/71/71 70/70/70
f 75/75/75 74/74/74 73/73/73
f 78/78/78 77/77/77 76/76/76
f 81/81/81 80/80/80 79/79/79
f 84/84/84 83/83/83 82/82/82
f 87/87/87 86/86/86 85/85/85
f 90/90/90 89/89/89 88/88/88
f 93/93/93 92/92/92 91/91/91
f 96/96/96 95/95/95 94/94/94
f 99/99/99 98/98/98 97/97/97
f 102/102/102 101/101/101 100/100/100
f 105/105/105 104/104/104 103/103/103
f 108/108/108 107/107/107 106/106/106
f 111/111/111 110/110/110 109/109/109
f 114/114/114 113/113/113 112/112/112
f 117/117/117 116/116/116 115/115/115
f 115/115/115 116/116/116 118/118/118
f 116/116/116 119/119/119 118/118/118
f 122/122/122 121/121/121 120/120/120
f 122/122/122 123/123/123 121/121/121
f 121/121/121 123/123/123 124/124/124
f 121/121/121 124/124/124 125/125/125
f 124/124/124 123/123/123 126/126/126
f 129/129/129 128/128/128 127/127/127
f 128/128/128 130/130/130 127/127/127
f 133/133/133 132/132/132 131/131/131
f 132/132/132 133/133/133 134/134/134
f 137/137/137 136/136/136 135/135/135
f 136/136/136 138/138/138 135/135/135
f 141/141/141 140/140/140 139/139/139
f 140/140/140 142/142/142 139/139/139
f 145/145/145 144/144/144 143/143/143
f 144/144/144 146/146/146 143/143/143
f 149/149/149 148/148/148 147/147/147
f 148/148/148 150/150/150 147/147/147
f 153/153/153 152/152/152 151/151/151
f 152/152/152 154/154/154 151/151/151
