g Ball_Uv_01_Explode_Thin_12
v -0.2097572 -0.008390121 0.2838676
v -0.2595689 0.005493011 0.2669336
v -0.2359521 0.03375984 0.3029626
v -0.209661 -0.01010979 0.2825366
v -0.2083229 -0.01036106 0.2827879
v 0.2380885 -0.06508171 -0.2360452
v 0.2832439 -0.0579401 -0.1507965
v 0.2962616 -0.04323982 -0.1638943
v 0.2491797 -0.08465317 -0.1515517
v 0.2508135 -0.08717117 -0.1189147
v 0.2351521 -0.06560726 -0.23917
v 0.1619898 -0.1265741 -0.1550543
v 0.1548196 -0.1030463 -0.246885
v 0.1495832 -0.07763512 -0.3014093
v 0.1668604 -0.06792671 -0.3029626
v 0.0616159 -0.1101405 -0.2882347
v 0.06298897 -0.126574 -0.2540552
v -0.03336395 -0.1289086 -0.2689297
v 0.1651251 -0.1345664 -0.05870141
v 0.1874561 -0.1238042 -0.05870141
v 0.1644272 -0.1327874 -0.03725398
v -0.03336395 -0.1345663 -0.2571905
v -0.08568809 -0.1302261 -0.2554878
v 0.06641243 -0.1518259 -0.1584778
v 0.06641243 -0.1518259 0.04107491
v 0.07888702 -0.1485301 0.04062809
v 0.066016 -0.1489013 0.05214466
v -0.1331403 -0.1518259 -0.1584777
v -0.1300962 -0.1293717 -0.2434658
v -0.03336395 -0.1602795 -0.1600544
v 0.06798904 -0.1602795 -0.05870143
v -0.03336395 -0.1602795 0.04265151
v -0.03336395 -0.1346858 0.1393369
v -0.1297169 -0.1265742 0.1366523
v -0.03386917 -0.1345246 0.1397712
v -0.1264648 -0.0876511 0.2176072
v -0.2135869 -0.06441502 0.2123732
v -0.1329784 -0.08308654 0.2229542
v -0.2083229 -0.01036106 0.2827879
v -0.209661 -0.01010979 0.2825366
v -0.2595689 0.005493011 0.2669336
v -0.2848982 -0.03463672 0.1991009
v -0.03336395 -0.1688717 -0.05870143
v -0.2215475 -0.1030465 0.129482
v -0.2962616 -0.06822586 0.1223067
v -0.2932933 -0.0955262 0.03505735
v -0.2287177 -0.1265741 0.03765139
v -0.2743481 -0.1140862 -0.05870141
v -0.1331403 -0.1518259 0.04107491
v -0.1347169 -0.1602795 -0.05870143
v -0.231853 -0.1345664 -0.05870141
v -0.238541 -0.121851 -0.1546597
v -0.2287177 -0.1265741 -0.1550543
v -0.2270792 -0.1211977 -0.1760386
v -0.2080848 -0.1182074 -0.205793
v -0.171179 -0.1216817 -0.2301974
v -0.255521 0.01215312 0.2606681
v -0.2059798 -0.00259448 0.2766467
v -0.2319279 0.03949373 0.2958262
v -0.2063847 -0.003428965 0.2758558
v -0.2057605 -0.003214274 0.2762796
v 0.2771957 -0.05029016 -0.1485832
v 0.233399 -0.05663249 -0.2334725
v 0.290259 -0.03565728 -0.16135
v 0.2439398 -0.07631399 -0.1498191
v 0.230885 -0.05706152 -0.2362098
v 0.2459188 -0.07849826 -0.1180074
v 0.1514094 -0.09428669 -0.2434732
v 0.1585283 -0.1173531 -0.1533246
v 0.1461075 -0.06926848 -0.2971762
v 0.1626945 -0.05984646 -0.2987967
v 0.05976308 -0.1013146 -0.2839137
v 0.06126307 -0.1173516 -0.2505957
v -0.03350419 -0.1199024 -0.264586
v 0.16165 -0.1251896 -0.05869932
v 0.18312 -0.1148072 -0.05819798
v 0.1613687 -0.1233079 -0.03813981
v 0.06469745 -0.1421255 -0.1567566
v -0.03336714 -0.1251876 -0.2537206
v -0.08480481 -0.1206418 -0.2527749
v 0.06469583 -0.1421262 0.03935214
v 0.07631084 -0.1389512 0.03935995
v 0.06470315 -0.1393267 0.04957491
v -0.03336869 -0.1504274 -0.1583408
v -0.1314176 -0.1421261 -0.1567611
v -0.1285203 -0.1198393 -0.2408873
v 0.06627855 -0.1504269 -0.05869982
v -0.03335988 -0.1504275 0.04093748
v -0.03294883 -0.1250271 0.1367802
v -0.12799 -0.1173527 0.1331908
v -0.03298373 -0.1250245 0.1367771
v -0.1243351 -0.07887912 0.213304
v -0.2102644 -0.05646673 0.2072952
v -0.1304057 -0.07466863 0.2182088
v -0.2057605 -0.003214274 0.2762796
v -0.2063847 -0.003428965 0.2758558
v -0.255521 0.01215312 0.2606681
v -0.2807727 -0.02693956 0.1942292
v -0.03336395 -0.1588717 -0.05870142
v -0.2181395 -0.09428564 0.1260712
v -0.2920213 -0.05982443 0.118925
v -0.2889705 -0.08669643 0.03322739
v -0.2252594 -0.1173515 0.03592424
v -0.2700024 -0.1050816 -0.05888222
v -0.1314222 -0.1421256 0.03935681
v -0.1330003 -0.150428 -0.05870302
v -0.2283857 -0.1251867 -0.05870081
v -0.234211 -0.1129617 -0.153166
v -0.2252578 -0.1173517 -0.1533289
v -0.2242331 -0.111967 -0.1734514
v -0.2055038 -0.1088981 -0.2032094
v -0.1686072 -0.1123641 -0.2276346
v -0.2059798 -0.00259448 0.2766467
v -0.2359521 0.03375984 0.3029626
v -0.2319279 0.03949373 0.2958262
v -0.2097572 -0.008390121 0.2838676
v -0.2057605 -0.003214274 0.2762796
v -0.2083229 -0.01036106 0.2827879
v -0.2319279 0.03949373 0.2958262
v -0.2595689 0.005493011 0.2669336
v -0.255521 0.01215312 0.2606681
v -0.2359521 0.03375984 0.3029626
v 0.233399 -0.05663249 -0.2334725
v 0.2962616 -0.04323982 -0.1638943
v 0.290259 -0.03565728 -0.16135
v 0.2380885 -0.06508171 -0.2360452
v 0.230885 -0.05706152 -0.2362098
v 0.2351521 -0.06560726 -0.23917
v 0.1626945 -0.05984646 -0.2987967
v 0.1668604 -0.06792671 -0.3029626
v 0.2832439 -0.0579401 -0.1507965
v 0.290259 -0.03565728 -0.16135
v 0.2962616 -0.04323982 -0.1638943
v 0.2771957 -0.05029016 -0.1485832
v 0.2508135 -0.08717117 -0.1189147
v 0.2459188 -0.07849826 -0.1180074
v 0.1874561 -0.1238042 -0.05870141
v 0.18312 -0.1148072 -0.05819798
v 0.1644272 -0.1327874 -0.03725398
v 0.1613687 -0.1233079 -0.03813981
v 0.07888702 -0.1485301 0.04062809
v 0.07631084 -0.1389512 0.03935995
v 0.066016 -0.1489013 0.05214466
v 0.06470315 -0.1393267 0.04957491
v -0.03336395 -0.1346858 0.1393369
v -0.03294883 -0.1250271 0.1367802
v -0.03386917 -0.1345246 0.1397712
v -0.03298373 -0.1250245 0.1367771
v -0.1264648 -0.0876511 0.2176072
v -0.1243351 -0.07887912 0.213304
v -0.1329784 -0.08308654 0.2229542
v -0.1304057 -0.07466863 0.2182088
v -0.2083229 -0.01036106 0.2827879
v -0.2057605 -0.003214274 0.2762796
v 0.1461075 -0.06926848 -0.2971762
v 0.1668604 -0.06792671 -0.3029626
v 0.1626945 -0.05984646 -0.2987967
v 0.1495832 -0.07763512 -0.3014093
v 0.05976308 -0.1013146 -0.2839137
v 0.0616159 -0.1101405 -0.2882347
v -0.03350419 -0.1199024 -0.264586
v -0.03336395 -0.1289086 -0.2689297
v -0.08480481 -0.1206418 -0.2527749
v -0.08568809 -0.1302261 -0.2554878
v -0.1285203 -0.1198393 -0.2408873
v -0.1300962 -0.1293717 -0.2434658
v -0.1686072 -0.1123641 -0.2276346
v -0.171179 -0.1216817 -0.2301974
v -0.2055038 -0.1088981 -0.2032094
v -0.2080848 -0.1182074 -0.205793
v -0.2242331 -0.111967 -0.1734514
v -0.2270792 -0.1211977 -0.1760386
v -0.234211 -0.1129617 -0.153166
v -0.238541 -0.121851 -0.1546597
v -0.2700024 -0.1050816 -0.05888222
v -0.2743481 -0.1140862 -0.05870141
v -0.2889705 -0.08669643 0.03322739
v -0.2932933 -0.0955262 0.03505735
v -0.2920213 -0.05982443 0.118925
v -0.2962616 -0.06822586 0.1223067
v -0.2807727 -0.02693956 0.1942292
v -0.2848982 -0.03463672 0.1991009
v -0.255521 0.01215312 0.2606681
v -0.2595689 0.005493011 0.2669336
vt 0.75 0.9969363
vt 0.8360459 1
vt 0.789309 0.9298306
vt 0.75 1
vt 0.7480345 1
vt 0.125 0.745881
vt 0.06798046 0.625
vt 0.04324034 0.6442072
vt 0.125 0.625
vt 0.125 0.5810623
vt 0.1288584 0.75
vt 0.25 0.625
vt 0.25 0.75
vt 0.25 0.8322229
vt 0.2234763 0.8371127
vt 0.375 0.7990016
vt 0.375 0.75
vt 0.5 0.766543
vt 0.25 0.5
vt 0.2185312 0.5
vt 0.25 0.4721759
vt 0.5 0.75
vt 0.5678808 0.75
vt 0.375 0.625
vt 0.375 0.375
vt 0.3586852 0.375
vt 0.375 0.3605225
vt 0.625 0.625
vt 0.625 0.736151
vt 0.5 0.625
vt 0.375 0.5
vt 0.5 0.375
vt 0.5 0.25058
vt 0.625 0.25
vt 0.5006554 0.25
vt 0.625 0.1339388
vt 0.75 0.125
vt 0.6346771 0.125
vt 0.7480345 0
vt 0.75 0
vt 0.8360459 0
vt 0.8663759 0.125
vt 0.5 0.5
vt 0.75 0.25
vt 0.8626692 0.25
vt 0.8425789 0.375
vt 0.75 0.375
vt 0.8098843 0.5
vt 0.625 0.375
vt 0.625 0.5
vt 0.75 0.5
vt 0.7640832 0.625
vt 0.75 0.625
vt 0.75 0.6535639
vt 0.727168 0.6922829
vt 0.6792332 0.7217594
vt 0.8360459 1
vt 0.75 0.9969363
vt 0.789309 0.9298306
vt 0.75 1
vt 0.7480345 1
vt 0.06798046 0.625
vt 0.125 0.745881
vt 0.04324034 0.6442072
vt 0.125 0.625
vt 0.1288584 0.75
vt 0.125 0.5810623
vt 0.25 0.75
vt 0.25 0.625
vt 0.25 0.8322229
vt 0.2234763 0.8371127
vt 0.375 0.7990016
vt 0.375 0.75
vt 0.5 0.766543
vt 0.25 0.5
vt 0.2185312 0.5
vt 0.25 0.4721759
vt 0.375 0.625
vt 0.5 0.75
vt 0.5678808 0.75
vt 0.375 0.375
vt 0.3586852 0.375
vt 0.375 0.3605225
vt 0.5 0.625
vt 0.625 0.625
vt 0.625 0.736151
vt 0.375 0.5
vt 0.5 0.375
vt 0.5 0.25058
vt 0.625 0.25
vt 0.5006554 0.25
vt 0.625 0.1339388
vt 0.75 0.125
vt 0.6346771 0.125
vt 0.7480345 0
vt 0.75 0
vt 0.8360459 0
vt 0.8663759 0.125
vt 0.5 0.5
vt 0.75 0.25
vt 0.8626692 0.25
vt 0.8425789 0.375
vt 0.75 0.375
vt 0.8098843 0.5
vt 0.625 0.375
vt 0.625 0.5
vt 0.75 0.5
vt 0.7640832 0.625
vt 0.75 0.625
vt 0.75 0.6535639
vt 0.727168 0.6922829
vt 0.6792332 0.7217594
vt 0.75 0.9969363
vt 0.789309 0.9298306
vt 0.789309 0.9298306
vt 0.75 0.9969363
vt 0.7480345 1
vt 0.7480345 1
vt 0.789309 0.9298306
vt 0.8360459 1
vt 0.8360459 1
vt 0.789309 0.9298306
vt 0.125 0.745881
vt 0.04324034 0.6442072
vt 0.04324034 0.6442072
vt 0.125 0.745881
vt 0.1288584 0.75
vt 0.1288584 0.75
vt 0.2234763 0.8371127
vt 0.2234763 0.8371127
vt 0.06798046 0.625
vt 0.04324034 0.6442072
vt 0.04324034 0.6442072
vt 0.06798046 0.625
vt 0.125 0.5810623
vt 0.125 0.5810623
vt 0.2185312 0.5
vt 0.2185312 0.5
vt 0.25 0.4721759
vt 0.25 0.4721759
vt 0.3586852 0.375
vt 0.3586852 0.375
vt 0.375 0.3605225
vt 0.375 0.3605225
vt 0.5 0.25058
vt 0.5 0.25058
vt 0.5006554 0.25
vt 0.5006554 0.25
vt 0.625 0.1339388
vt 0.625 0.1339388
vt 0.6346771 0.125
vt 0.6346771 0.125
vt 0.7480345 0
vt 0.7480345 0
vt 0.25 0.8322229
vt 0.2234763 0.8371127
vt 0.2234763 0.8371127
vt 0.25 0.8322229
vt 0.375 0.7990016
vt 0.375 0.7990016
vt 0.5 0.766543
vt 0.5 0.766543
vt 0.5678808 0.75
vt 0.5678808 0.75
vt 0.625 0.736151
vt 0.625 0.736151
vt 0.6792332 0.7217594
vt 0.6792332 0.7217594
vt 0.727168 0.6922829
vt 0.727168 0.6922829
vt 0.75 0.6535639
vt 0.75 0.6535639
vt 0.7640832 0.625
vt 0.7640832 0.625
vt 0.8098843 0.5
vt 0.8098843 0.5
vt 0.8425789 0.375
vt 0.8425789 0.375
vt 0.8626692 0.25
vt 0.8626692 0.25
vt 0.8663759 0.125
vt 0.8663759 0.125
vt 0.8360459 0
vt 0.8360459 0
vn -0.3777424 -0.5795642 0.7220914
vn -0.4047928 -0.6660112 0.6265556
vn -0.4024193 -0.5733894 0.7136409
vn -0.3276296 -0.6680823 0.6680756
vn -0.2562431 -0.7146785 0.6508257
vn 0.4689555 -0.8449219 -0.2572698
vn 0.6048135 -0.7649937 -0.2213259
vn 0.6002625 -0.7582544 -0.2544309
vn 0.5239872 -0.8339181 -0.1732577
vn 0.4894636 -0.8672916 -0.09072344
vn 0.4267062 -0.8545746 -0.296014
vn 0.3461525 -0.9220952 -0.1729708
vn 0.3410187 -0.8759611 -0.3411721
vn 0.3475688 -0.8366635 -0.4233086
vn 0.4165904 -0.808025 -0.416591
vn 0.1852826 -0.8825904 -0.4320934
vn 0.1725902 -0.9222423 -0.3459506
vn 0.01402394 -0.9006274 -0.4343656
vn 0.3475115 -0.9376757 -0.0002091111
vn 0.4336019 -0.8996971 -0.05034406
vn 0.3058478 -0.9479505 0.08858339
vn 0.000318727 -0.9378681 -0.3469921
vn -0.0883283 -0.9584364 -0.2712891
vn 0.1714977 -0.9700333 -0.1721156
vn 0.1716598 -0.9699762 0.1722764
vn 0.2576191 -0.9578887 0.1268133
vn 0.1312858 -0.9574592 0.2569748
vn -0.1722775 -0.9699758 -0.1716604
vn -0.1575929 -0.9532461 -0.2578498
vn 0.0004733792 -0.9852084 -0.1713597
vn 0.1710493 -0.9852624 -0.0001606205
vn -0.0004071915 -0.9852009 0.1714034
vn -0.04151272 -0.9658711 0.255675
vn -0.1726852 -0.92215 0.3461491
vn -0.08854413 -0.9500089 0.2994044
vn -0.2129693 -0.877198 0.4303112
vn -0.3322528 -0.7948286 0.5077949
vn -0.2572778 -0.8417915 0.4745473
vn -0.2562431 -0.7146785 0.6508257
vn -0.3276296 -0.6680823 0.6680756
vn -0.4047928 -0.6660112 0.6265556
vn -0.4125555 -0.7697166 0.4871699
vn 0 -1 -3.611408E-07
vn -0.3408023 -0.8760819 0.3410782
vn -0.4240265 -0.840143 0.3381733
vn -0.4322793 -0.8829762 0.182996
vn -0.3458353 -0.9222622 0.1727146
vn -0.4345703 -0.9004564 0.01808083
vn -0.1718097 -0.9700325 0.1718094
vn -0.1716693 -0.9851546 0.0001599094
vn -0.3467316 -0.9379644 -6.022901E-05
vn -0.4330052 -0.8889287 -0.1493732
vn -0.3459869 -0.9222385 -0.1725377
vn -0.2846111 -0.9230712 -0.2587202
vn -0.258102 -0.9309312 -0.2583612
vn -0.257181 -0.9317614 -0.2562785
vn 0.4047761 0.6655149 -0.6270936
vn 0.3821373 0.5492907 -0.7431358
vn 0.4010859 0.5729753 -0.7147233
vn 0.3060011 0.6751691 -0.6712005
vn 0.2656404 0.6683888 -0.6947602
vn -0.6058076 0.7644271 0.2205634
vn -0.4689283 0.8447753 0.2578006
vn -0.6011462 0.7578571 0.2535266
vn -0.5238468 0.8340267 0.173159
vn -0.4270659 0.8540764 0.2969314
vn -0.4906568 0.866697 0.08995632
vn -0.3410297 0.8758332 0.3414894
vn -0.3462268 0.9220843 0.1728801
vn -0.3477154 0.8361084 0.4242837
vn -0.4172566 0.8065774 0.418724
vn -0.1850305 0.8821888 0.4330204
vn -0.1726003 0.9220157 0.3465489
vn -0.01314529 0.8991951 0.4373505
vn -0.3475527 0.9376604 0.0001400499
vn -0.4357562 0.8988686 0.04638759
vn -0.3092913 0.9466102 -0.09092812
vn -0.1714872 0.9700393 0.1720928
vn -0.000774125 0.9373358 0.3484264
vn 0.08912431 0.9581761 0.2719474
vn -0.1710914 0.9698739 -0.1734137
vn -0.2612535 0.9560795 -0.1328859
vn -0.1334155 0.9564841 -0.2594962
vn -0.0004660731 0.9852154 0.1713192
vn 0.1722563 0.9699464 0.1718479
vn 0.157442 0.9530674 0.2586015
vn -0.1710126 0.9852688 0.0001583701
vn 0.0002718084 0.9851747 -0.1715538
vn 0.02496418 0.965642 -0.2586744
vn 0.1726649 0.9221539 -0.346149
vn -0.08177826 -0.9960088 0.03576211
vn 0.2119825 0.877203 -0.430788
vn 0.3323877 0.7947371 -0.5078499
vn 0.2567558 0.8418966 -0.4746437
vn 0.2656404 0.6683888 -0.6947602
vn 0.3060011 0.6751691 -0.6712005
vn 0.4047761 0.6655149 -0.6270936
vn 0.4129812 0.7695056 -0.4871421
vn -2.123635E-06 1 -2.351596E-07
vn 0.3410664 0.8760096 -0.3409998
vn 0.4244848 0.8399531 -0.3380701
vn 0.4327872 0.8827499 -0.1828873
vn 0.3461587 0.9221425 -0.1727062
vn 0.4353073 0.9001048 -0.01786029
vn 0.1717939 0.9700383 -0.1717923
vn 0.1716226 0.9851627 -0.0001573945
vn 0.3472417 0.9377756 7.583245E-05
vn 0.4363713 0.8869787 0.1511588
vn 0.3475509 0.9217632 0.1719333
vn 0.2891251 0.9209757 0.2611709
vn 0.2599216 0.9298311 0.2604898
vn 0.2593337 0.9302012 0.2597532
vn 0.8339958 0.1239552 0.5376674
vn 0.7745565 0.2055916 0.5981592
vn 0.7737186 0.2036327 0.5999111
vn 0.781895 0.2287397 0.5799296
vn 0.8140738 0.1703914 0.5552033
vn 0.7579241 0.2653375 0.5959423
vn -0.7947 0.6050847 0.04821231
vn -0.8310246 0.5543049 0.04630385
vn -0.8321802 0.5520542 0.05207973
vn -0.7924458 0.6084914 0.04204688
vn 0.5847458 0.5189897 -0.6234758
vn 0.528144 0.6068414 -0.5939758
vn 0.5238604 0.6131212 -0.5913144
vn 0.5840682 0.5133023 -0.6287965
vn 0.5789944 0.5114971 -0.6349301
vn 0.5758036 0.5121531 -0.6372985
vn 0.5432493 0.5833718 -0.603786
vn 0.5410725 0.5886256 -0.6006333
vn 0.5672129 0.2135768 0.7953959
vn 0.5732993 0.1962712 0.7954907
vn 0.57923 0.1927711 0.7920429
vn 0.5638778 0.2162939 0.7970312
vn 0.5758672 0.2423181 0.7808066
vn 0.574872 0.2423179 0.7815396
vn 0.5986774 0.2462582 0.7621956
vn 0.5982611 0.2473796 0.7621595
vn 0.609937 0.264933 0.7468517
vn 0.6084909 0.266064 0.7476288
vn 0.6301503 0.2661749 0.7294255
vn 0.6289427 0.2683799 0.7296596
vn 0.6443403 0.2771096 0.7127663
vn 0.6425627 0.2770188 0.7144045
vn 0.6711835 0.1654437 0.7225934
vn 0.3504854 0.2501582 0.9025413
vn 0.6763515 0.1620568 0.7185306
vn 0.3521186 0.2518427 0.9014366
vn 0.6892736 0.1767312 0.7026151
vn 0.6882781 0.1796253 0.7028571
vn 0.7005547 0.1739854 0.6920637
vn 0.7010558 0.179185 0.6902272
vn 0.7579241 0.2653375 0.5959423
vn 0.8140738 0.1703914 0.5552033
vn -0.2696124 0.3409361 -0.9005951
vn -0.2732522 0.3305722 -0.9033579
vn -0.2734174 0.3256692 -0.905087
vn -0.2697704 0.3443714 -0.8992398
vn -0.2655344 0.3773281 -0.8871951
vn -0.265796 0.3795482 -0.8861691
vn -0.2341705 0.4182762 -0.8776157
vn -0.2369367 0.4110472 -0.8802847
vn -0.2440018 0.2929885 -0.924457
vn -0.245821 0.2853097 -0.9263749
vn -0.2480075 0.2905623 -0.9241569
vn -0.2467859 0.2929557 -0.9237281
vn -0.3696933 0.3378185 -0.8655666
vn -0.3685851 0.3398975 -0.8652253
vn -0.6668081 0.3650045 -0.649722
vn -0.6657171 0.3672063 -0.6496
vn -0.8209509 0.3722223 -0.4330014
vn -0.8130069 0.3855563 -0.4363097
vn -0.8112505 0.4457288 -0.3784156
vn -0.8061608 0.454155 -0.3792729
vn -0.8589618 0.4104472 -0.3061334
vn -0.8606272 0.4077843 -0.3050129
vn -0.8943323 0.3960453 -0.2081296
vn -0.8951488 0.3946941 -0.2071838
vn -0.9039349 0.4146468 -0.1047364
vn -0.9039438 0.4146258 -0.1047434
vn -0.8840146 0.4673665 -0.009311772
vn -0.8832702 0.4687227 -0.01152221
vn -0.8321802 0.5520542 0.05207973
vn -0.8310246 0.5543049 0.04630385
g Ball_Uv_01_Explode_Thin_12_0
f 3/3/3 2/2/2 1/1/1
f 4/4/4 1/1/1 2/2/2
f 4/4/4 5/5/5 1/1/1
f 8/8/8 7/7/7 6/6/6
f 9/9/9 6/6/6 7/7/7
f 9/9/9 7/7/7 10/10/10
f 11/11/11 6/6/6 9/9/9
f 12/12/12 9/9/9 10/10/10
f 13/13/13 11/11/11 9/9/9
f 12/12/12 13/13/13 9/9/9
f 13/13/13 14/14/14 11/11/11
f 15/15/15 11/11/11 14/14/14
f 14/14/14 13/13/13 16/16/16
f 17/17/17 16/16/16 13/13/13
f 13/13/13 12/12/12 17/17/17
f 16/16/16 17/17/17 18/18/18
f 19/19/19 12/12/12 10/10/10
f 20/20/20 19/19/19 10/10/10
f 19/19/19 20/20/20 21/21/21
f 22/22/22 18/18/18 17/17/17
f 22/22/22 23/23/23 18/18/18
f 24/24/24 17/17/17 12/12/12
f 12/12/12 19/19/19 24/24/24
f 19/19/19 21/21/21 25/25/25
f 21/21/21 26/26/26 25/25/25
f 25/25/25 26/26/26 27/27/27
f 23/23/23 22/22/22 28/28/28
f 29/29/29 23/23/23 28/28/28
f 22/22/22 17/17/17 30/30/30
f 24/24/24 30/30/30 17/17/17
f 22/22/22 30/30/30 28/28/28
f 31/31/31 19/19/19 25/25/25
f 31/31/31 24/24/24 19/19/19
f 25/25/25 27/27/27 32/32/32
f 25/25/25 32/32/32 31/31/31
f 33/33/33 32/32/32 27/27/27
f 32/32/32 33/33/33 34/34/34
f 33/33/33 35/35/35 34/34/34
f 34/34/34 35/35/35 36/36/36
f 34/34/34 36/36/36 37/37/37
f 36/36/36 38/38/38 37/37/37
f 38/38/38 39/39/39 37/37/37
f 40/40/40 37/37/37 39/39/39
f 40/40/40 41/41/41 37/37/37
f 42/42/42 37/37/37 41/41/41
f 31/31/31 43/43/43 24/24/24
f 43/43/43 31/31/31 32/32/32
f 30/30/30 24/24/24 43/43/43
f 37/37/37 42/42/42 44/44/44
f 44/44/44 34/34/34 37/37/37
f 45/45/45 44/44/44 42/42/42
f 45/45/45 46/46/46 44/44/44
f 47/47/47 44/44/44 46/46/46
f 44/44/44 47/47/47 34/34/34
f 46/46/46 48/48/48 47/47/47
f 49/49/49 32/32/32 34/34/34
f 32/32/32 49/49/49 43/43/43
f 49/49/49 34/34/34 47/47/47
f 43/43/43 50/50/50 30/30/30
f 50/50/50 43/43/43 49/49/49
f 49/49/49 47/47/47 50/50/50
f 28/28/28 30/30/30 50/50/50
f 51/51/51 47/47/47 48/48/48
f 51/51/51 50/50/50 47/47/47
f 48/48/48 52/52/52 51/51/51
f 28/28/28 50/50/50 53/53/53
f 51/51/51 53/53/53 50/50/50
f 53/53/53 51/51/51 52/52/52
f 53/53/53 52/52/52 54/54/54
f 29/29/29 28/28/28 53/53/53
f 54/54/54 55/55/55 53/53/53
f 55/55/55 29/29/29 53/53/53
f 56/56/56 29/29/29 55/55/55
f 59/59/59 58/58/58 57/57/57
f 60/60/60 57/57/57 58/58/58
f 60/60/60 58/58/58 61/61/61
f 64/64/64 63/63/63 62/62/62
f 65/65/65 62/62/62 63/63/63
f 63/63/63 66/66/66 65/65/65
f 65/65/65 67/67/67 62/62/62
f 65/65/65 66/66/66 68/68/68
f 65/65/65 69/69/69 67/67/67
f 69/69/69 65/65/65 68/68/68
f 68/68/68 66/66/66 70/70/70
f 71/71/71 70/70/70 66/66/66
f 70/70/70 72/72/72 68/68/68
f 73/73/73 68/68/68 72/72/72
f 68/68/68 73/73/73 69/69/69
f 72/72/72 74/74/74 73/73/73
f 67/67/67 69/69/69 75/75/75
f 76/76/76 67/67/67 75/75/75
f 75/75/75 77/77/77 76/76/76
f 78/78/78 69/69/69 73/73/73
f 69/69/69 78/78/78 75/75/75
f 79/79/79 73/73/73 74/74/74
f 79/79/79 74/74/74 80/80/80
f 81/81/81 77/77/77 75/75/75
f 82/82/82 77/77/77 81/81/81
f 81/81/81 83/83/83 82/82/82
f 79/79/79 84/84/84 73/73/73
f 78/78/78 73/73/73 84/84/84
f 85/85/85 79/79/79 80/80/80
f 84/84/84 79/79/79 85/85/85
f 86/86/86 85/85/85 80/80/80
f 87/87/87 81/81/81 75/75/75
f 87/87/87 75/75/75 78/78/78
f 81/81/81 88/88/88 83/83/83
f 81/81/81 87/87/87 88/88/88
f 89/89/89 83/83/83 88/88/88
f 90/90/90 89/89/89 88/88/88
f 91/91/91 89/89/89 90/90/90
f 90/90/90 92/92/92 91/91/91
f 93/93/93 92/92/92 90/90/90
f 94/94/94 92/92/92 93/93/93
f 94/94/94 93/93/93 95/95/95
f 96/96/96 95/95/95 93/93/93
f 96/96/96 93/93/93 97/97/97
f 98/98/98 97/97/97 93/93/93
f 87/87/87 78/78/78 99/99/99
f 99/99/99 88/88/88 87/87/87
f 84/84/84 99/99/99 78/78/78
f 93/93/93 100/100/100 98/98/98
f 100/100/100 93/93/93 90/90/90
f 101/101/101 98/98/98 100/100/100
f 101/101/101 100/100/100 102/102/102
f 103/103/103 102/102/102 100/100/100
f 100/100/100 90/90/90 103/103/103
f 102/102/102 103/103/103 104/104/104
f 105/105/105 90/90/90 88/88/88
f 88/88/88 99/99/99 105/105/105
f 105/105/105 103/103/103 90/90/90
f 99/99/99 84/84/84 106/106/106
f 106/106/106 105/105/105 99/99/99
f 105/105/105 106/106/106 103/103/103
f 85/85/85 106/106/106 84/84/84
f 107/107/107 104/104/104 103/103/103
f 107/107/107 103/103/103 106/106/106
f 104/104/104 107/107/107 108/108/108
f 85/85/85 109/109/109 106/106/106
f 107/107/107 106/106/106 109/109/109
f 109/109/109 108/108/108 107/107/107
f 109/109/109 110/110/110 108/108/108
f 85/85/85 86/86/86 109/109/109
f 110/110/110 109/109/109 111/111/111
f 109/109/109 86/86/86 111/111/111
f 86/86/86 112/112/112 111/111/111
f 115/115/115 114/114/114 113/113/113
f 116/116/116 113/113/113 114/114/114
f 113/113/113 116/116/116 117/117/117
f 118/118/118 117/117/117 116/116/116
f 121/121/121 120/120/120 119/119/119
f 122/122/122 119/119/119 120/120/120
f 125/125/125 124/124/124 123/123/123
f 126/126/126 123/123/123 124/124/124
f 123/123/123 126/126/126 127/127/127
f 128/128/128 127/127/127 126/126/126
f 127/127/127 128/128/128 129/129/129
f 130/130/130 129/129/129 128/128/128
f 133/133/133 132/132/132 131/131/131
f 134/134/134 131/131/131 132/132/132
f 131/131/131 134/134/134 135/135/135
f 136/136/136 135/135/135 134/134/134
f 135/135/135 136/136/136 137/137/137
f 138/138/138 137/137/137 136/136/136
f 137/137/137 138/138/138 139/139/139
f 140/140/140 139/139/139 138/138/138
f 139/139/139 140/140/140 141/141/141
f 142/142/142 141/141/141 140/140/140
f 141/141/141 142/142/142 143/143/143
f 144/144/144 143/143/143 142/142/142
f 143/143/143 144/144/144 145/145/145
f 146/146/146 145/145/145 144/144/144
f 145/145/145 146/146/146 147/147/147
f 148/148/148 147/147/147 146/146/146
f 147/147/147 148/148/148 149/149/149
f 150/150/150 149/149/149 148/148/148
f 149/149/149 150/150/150 151/151/151
f 152/152/152 151/151/151 150/150/150
f 151/151/151 152/152/152 153/153/153
f 154/154/154 153/153/153 152/152/152
f 157/157/157 156/156/156 155/155/155
f 158/158/158 155/155/155 156/156/156
f 155/155/155 158/158/158 159/159/159
f 160/160/160 159/159/159 158/158/158
f 159/159/159 160/160/160 161/161/161
f 162/162/162 161/161/161 160/160/160
f 161/161/161 162/162/162 163/163/163
f 164/164/164 163/163/163 162/162/162
f 163/163/163 164/164/164 165/165/165
f 166/166/166 165/165/165 164/164/164
f 165/165/165 166/166/166 167/167/167
f 168/168/168 167/167/167 166/166/166
f 167/167/167 168/168/168 169/169/169
f 170/170/170 169/169/169 168/168/168
f 169/169/169 170/170/170 171/171/171
f 172/172/172 171/171/171 170/170/170
f 171/171/171 172/172/172 173/173/173
f 174/174/174 173/173/173 172/172/172
f 173/173/173 174/174/174 175/175/175
f 176/176/176 175/175/175 174/174/174
f 175/175/175 176/176/176 177/177/177
f 178/178/178 177/177/177 176/176/176
f 177/177/177 178/178/178 179/179/179
f 180/180/180 179/179/179 178/178/178
f 179/179/179 180/180/180 181/181/181
f 182/182/182 181/181/181 180/180/180
f 181/181/181 182/182/182 183/183/183
f 184/184/184 183/183/183 182/182/182
