g Ball_gb_001_Explode_Thin_03_Hull
v 0.1250826 0.09633447 -0.06998989
v 0.1250826 0.09298156 -0.03594673
v 0.1385393 0.1652177 0.04951749
v -0.1081792 -0.1492084 -0.1221936
v -0.1222111 -0.1652031 -0.03594676
v -0.05913502 -0.1234974 -0.1170794
v -0.05913502 -0.06140038 0.1951019
v -0.1381005 -0.1388267 0.1393546
v -0.1365037 -0.06425021 0.2565028
v -0.05913502 -0.1234972 0.04518674
v -0.05913502 -0.1234974 -0.1170794
v -0.1222111 -0.1652031 -0.03594676
v 0.0788618 0.03437819 -0.1548537
v 0.0788618 0.02766079 -0.1422863
v 0.1250826 0.09633447 -0.06998989
v 0.0788618 0.03437819 -0.1548537
v 0.1250826 0.09633447 -0.06998989
v 0.0096953 -0.01316921 -0.2106767
v -0.08378477 -0.07680307 -0.2419581
v -0.1222111 -0.1652031 -0.03594676
v -0.1081792 -0.1492084 -0.1221936
v 0.0788618 0.006508574 -0.03594674
v 0.1250826 0.09633447 -0.06998989
v 0.0788618 0.02766079 -0.1422863
v 0.0788618 0.006508574 -0.03594674
v 0.1250826 0.09298156 -0.03594673
v 0.1250826 0.09633447 -0.06998989
v 0.0788618 0.006508574 -0.03594674
v 0.0788618 0.02766079 -0.1422863
v 0.01665919 -0.06248997 -0.1049444
v 0.0788618 0.006508574 -0.03594674
v 0.01665919 -0.06248997 -0.1049444
v 0.01665919 -0.06248977 0.03305162
v 0.0788618 0.006508574 -0.03594674
v 0.01665919 -0.06248977 0.03305162
v 0.0788618 0.02766088 0.07039327
v 0.0788618 0.006508574 -0.03594674
v 0.0788618 0.02766088 0.07039327
v 0.1250826 0.09298156 -0.03594673
v -0.09121933 -0.1156758 -0.2016578
v -0.08378477 -0.07680307 -0.2419581
v -0.1081792 -0.1492084 -0.1221936
v -0.09121933 -0.1156758 -0.2016578
v -0.0680849 -0.0724076 -0.2565017
v -0.08378477 -0.07680307 -0.2419581
v -0.09121933 -0.1156758 -0.2016578
v -0.1081792 -0.1492084 -0.1221936
v -0.05913502 -0.1234974 -0.1170794
v 0.01665919 -0.01950265 -0.2140619
v 0.0788618 0.03437819 -0.1548537
v 0.0096953 -0.01316921 -0.2106767
v 0.01665919 -0.01950265 -0.2140619
v 0.01665919 -0.06248997 -0.1049444
v 0.0788618 0.02766079 -0.1422863
v 0.01665919 -0.01950265 -0.2140619
v 0.0788618 0.02766079 -0.1422863
v 0.0788618 0.03437819 -0.1548537
v -0.05913502 -0.01922059 0.2464983
v -0.05913502 -0.06140038 0.1951019
v -0.1365037 -0.06425021 0.2565028
v -0.05913502 -0.01922059 0.2464983
v 0.01665919 0.03411641 0.2139111
v -0.05913502 -0.06140038 0.1951019
v 0.01665919 -0.0423637 0.09939837
v -0.05913502 -0.06140038 0.1951019
v 0.01665919 0.03411641 0.2139111
v 0.01665919 -0.0423637 0.09939837
v 0.0788618 0.02766088 0.07039327
v 0.01665919 -0.06248977 0.03305162
v -0.1412016 -0.05742325 0.2509001
v -0.05913502 -0.01922059 0.2464983
v -0.1365037 -0.06425021 0.2565028
v -0.1412016 -0.05742325 0.2509001
v 0.01665919 0.03411641 0.2139111
v -0.05913502 -0.01922059 0.2464983
v -0.1412016 -0.05742325 0.2509001
v -0.1365037 -0.06425021 0.2565028
v -0.1381005 -0.1388267 0.1393546
v -0.1324175 -0.1619149 0.05282849
v -0.1412016 -0.05742325 0.2509001
v -0.1381005 -0.1388267 0.1393546
v -0.1324175 -0.1619149 0.05282849
v -0.05913502 -0.1234972 0.04518674
v -0.1222111 -0.1652031 -0.03594676
v 0.1289705 0.1674724 0.04766724
v 0.1250826 0.09633447 -0.06998989
v 0.1385393 0.1652177 0.04951749
v 0.1289705 0.1674724 0.04766724
v 0.0096953 -0.01316921 -0.2106767
v 0.1250826 0.09633447 -0.06998989
v -0.07278276 -0.06461876 -0.2523385
v 0.0096953 -0.01316921 -0.2106767
v 0.1289705 0.1674724 0.04766724
v -0.07278276 -0.06461876 -0.2523385
v -0.08378477 -0.07680307 -0.2419581
v -0.0680849 -0.0724076 -0.2565017
v -0.07278276 -0.06461876 -0.2523385
v -0.1412016 -0.05742325 0.2509001
v -0.08378477 -0.07680307 -0.2419581
v -0.07278276 -0.06461876 -0.2523385
v 0.1289705 0.1674724 0.04766724
v -0.1412016 -0.05742325 0.2509001
v 0.1250826 0.1252395 0.07039327
v 0.0788618 0.02766088 0.07039327
v 0.0788618 0.08847421 0.1610171
v 0.1250826 0.1252395 0.07039327
v 0.1250826 0.09298156 -0.03594673
v 0.0788618 0.02766088 0.07039327
v 0.1250826 0.1252395 0.07039327
v 0.1385393 0.1652177 0.04951749
v 0.1250826 0.09298156 -0.03594673
v 0.1250826 0.14158 0.09030426
v 0.1250826 0.1252395 0.07039327
v 0.0788618 0.08847421 0.1610171
v 0.1250826 0.14158 0.09030426
v 0.1385393 0.1652177 0.04951749
v 0.1250826 0.1252395 0.07039327
v 0.1250826 0.14158 0.09030426
v 0.1289705 0.1674724 0.04766724
v 0.1385393 0.1652177 0.04951749
v 0.1250826 0.14158 0.09030426
v 0.0788618 0.08847421 0.1610171
v 0.1289705 0.1674724 0.04766724
v -0.05913502 -0.0998315 0.1232023
v -0.05913502 -0.06140038 0.1951019
v 0.01665919 -0.0423637 0.09939837
v -0.05913502 -0.0998315 0.1232023
v -0.1381005 -0.1388267 0.1393546
v -0.05913502 -0.06140038 0.1951019
v 0.0788618 0.08847421 0.1610171
v 0.0788618 0.02766088 0.07039327
v 0.01665919 0.03411641 0.2139111
v 0.01665919 -0.0423637 0.09939837
v -0.05913502 -0.1234974 -0.1170794
v 0.01665919 -0.06248977 0.03305162
v 0.01665919 -0.06248997 -0.1049444
v -0.05913502 -0.1234972 0.04518674
v 0.01665919 -0.01950265 -0.2140619
v -0.0680849 -0.0724076 -0.2565017
v -0.09121933 -0.1156758 -0.2016578
v -0.05913502 -0.1234974 -0.1170794
v 0.01665919 -0.06248997 -0.1049444
v 0.01665919 -0.0423637 0.09939837
v 0.01665919 -0.06248977 0.03305162
v -0.05913502 -0.1234972 0.04518674
v -0.05913502 -0.0998315 0.1232023
v -0.1412016 -0.05742325 0.2509001
v -0.1222111 -0.1652031 -0.03594676
v -0.08378477 -0.07680307 -0.2419581
v -0.1324175 -0.1619149 0.05282849
v -0.1324175 -0.1619149 0.05282849
v -0.1381005 -0.1388267 0.1393546
v -0.05913502 -0.1234972 0.04518674
v -0.05913502 -0.0998315 0.1232023
v 0.1289705 0.1674724 0.04766724
v 0.0788618 0.08847421 0.1610171
v 0.01665919 0.03411641 0.2139111
v -0.1412016 -0.05742325 0.2509001
v -0.07278276 -0.06461876 -0.2523385
v 0.01665919 -0.01950265 -0.2140619
v 0.0096953 -0.01316921 -0.2106767
v -0.0680849 -0.0724076 -0.2565017
vn 0.9862356 -0.1645498 -0.01620648
vn 0.9862356 -0.1645498 -0.01620648
vn 0.9862356 -0.1645498 -0.01620648
vn 0.4696288 -0.8786129 -0.08653503
vn 0.4696288 -0.8786129 -0.08653503
vn 0.4696288 -0.8786129 -0.08653502
vn 0.4132856 -0.770699 0.4849928
vn 0.4132857 -0.770699 0.4849928
vn 0.4132856 -0.770699 0.4849928
vn 0.5515383 -0.8341496 9.79314E-07
vn 0.5515383 -0.8341496 9.79314E-07
vn 0.5515382 -0.8341496 9.793139E-07
vn 0.898572 -0.3870106 -0.2068602
vn 0.898572 -0.3870106 -0.2068602
vn 0.898572 -0.3870106 -0.2068602
vn -0.1463686 0.8352336 -0.5300575
vn -0.1463686 0.8352336 -0.5300575
vn -0.1463686 0.8352336 -0.5300575
vn -0.9851081 0.09635135 -0.1424031
vn -0.9851081 0.09635135 -0.1424031
vn -0.9851081 0.09635136 -0.1424031
vn 0.8697429 -0.4840227 -0.09627796
vn 0.8697429 -0.4840228 -0.09627797
vn 0.8697429 -0.4840228 -0.09627797
vn 0.8809724 -0.4708894 -0.04637787
vn 0.8809724 -0.4708894 -0.04637786
vn 0.8809724 -0.4708894 -0.04637787
vn 0.7936052 -0.5967422 -0.1186992
vn 0.7936052 -0.5967422 -0.1186992
vn 0.7936052 -0.5967422 -0.1186992
vn 0.7427372 -0.669583 9.254819E-07
vn 0.7427372 -0.669583 9.254819E-07
vn 0.7427372 -0.669583 9.254819E-07
vn 0.793605 -0.5967425 0.1186992
vn 0.793605 -0.5967424 0.1186992
vn 0.793605 -0.5967424 0.1186992
vn 0.8780697 -0.4693378 0.09335693
vn 0.8780697 -0.4693379 0.09335693
vn 0.8780697 -0.4693378 0.09335691
vn -0.9719669 -0.05185658 -0.2293275
vn -0.9719669 -0.05185658 -0.2293275
vn -0.9719669 -0.05185658 -0.2293275
vn -0.4454471 -0.6019195 -0.6627743
vn -0.4454472 -0.6019194 -0.6627744
vn -0.4454471 -0.6019194 -0.6627744
vn 0.4696289 -0.8448487 -0.2562801
vn 0.4696288 -0.8448487 -0.2562801
vn 0.4696288 -0.8448487 -0.2562801
vn 0.1909999 0.6177503 -0.7628261
vn 0.1909999 0.6177503 -0.7628261
vn 0.1909999 0.6177503 -0.7628261
vn 0.7484038 -0.617084 -0.2431029
vn 0.7484038 -0.617084 -0.2431028
vn 0.7484038 -0.617084 -0.2431029
vn 0.7715061 -0.5610984 -0.2999116
vn 0.7715061 -0.5610984 -0.2999116
vn 0.7715061 -0.5610984 -0.2999116
vn 0.4696276 -0.6824644 0.5600822
vn 0.4696277 -0.6824644 0.5600823
vn 0.4696277 -0.6824644 0.5600823
vn 0.6325626 -0.5987045 0.4913425
vn 0.6325626 -0.5987045 0.4913425
vn 0.6325626 -0.5987046 0.4913425
vn 0.6731007 -0.6150005 0.4107431
vn 0.6731006 -0.6150004 0.4107431
vn 0.6731006 -0.6150004 0.4107431
vn 0.7715058 -0.6088268 0.1846857
vn 0.7715058 -0.6088268 0.1846857
vn 0.7715057 -0.6088268 0.1846857
vn -0.2041899 0.5332314 0.8209572
vn -0.20419 0.5332314 0.8209572
vn -0.20419 0.5332314 0.8209572
vn -0.3425781 0.7938203 0.5024835
vn -0.3425781 0.7938203 0.5024836
vn -0.3425781 0.7938201 0.5024835
vn -0.8819093 -0.392138 0.2616559
vn -0.8819093 -0.392138 0.2616559
vn -0.8819093 -0.392138 0.2616559
vn -0.9928997 0.08124127 -0.08689138
vn -0.9928997 0.08124126 -0.08689137
vn -0.9928997 0.08124127 -0.08689138
vn 0.4696292 -0.8786126 0.08653577
vn 0.4696292 -0.8786126 0.08653577
vn 0.4696292 -0.8786126 0.08653578
vn 0.2891448 0.8149304 -0.5022786
vn 0.2891448 0.8149304 -0.5022786
vn 0.2891449 0.8149304 -0.5022786
vn -0.1861715 0.8434946 -0.5038423
vn -0.1861715 0.8434946 -0.5038423
vn -0.1861715 0.8434946 -0.5038423
vn -0.2969666 0.8415095 -0.4513011
vn -0.2969666 0.8415095 -0.4513011
vn -0.2969666 0.8415095 -0.4513011
vn -0.677199 -0.01524654 -0.7356419
vn -0.677199 -0.01524654 -0.735642
vn -0.677199 -0.01524654 -0.7356419
vn -0.7841291 0.6097878 -0.1153269
vn -0.7841291 0.6097878 -0.1153269
vn -0.7841291 0.6097878 -0.1153269
vn -0.6809737 0.7250352 -0.10295
vn -0.6809737 0.7250352 -0.10295
vn -0.6809737 0.7250352 -0.10295
vn 0.8686113 -0.4114414 0.2760986
vn 0.8686113 -0.4114414 0.2760986
vn 0.8686113 -0.4114414 0.2760986
vn 0.8962156 -0.4245169 0.1287758
vn 0.8962156 -0.4245169 0.1287758
vn 0.8962156 -0.4245169 0.1287758
vn 0.9568599 -0.2780389 0.08434219
vn 0.9568599 -0.2780389 0.0843422
vn 0.9568599 -0.2780389 0.0843422
vn 0.8806383 -0.3662437 0.300569
vn 0.8806383 -0.3662437 0.300569
vn 0.8806383 -0.3662437 0.300569
vn 0.9565489 -0.2253878 0.1849714
vn 0.9565489 -0.2253878 0.1849714
vn 0.9565489 -0.2253878 0.1849714
vn 0.09833826 0.8465909 0.5230808
vn 0.09833827 0.8465909 0.5230808
vn 0.09833827 0.8465909 0.5230808
vn -0.2154875 0.8432511 0.4924355
vn -0.2154875 0.8432511 0.4924356
vn -0.2154875 0.8432511 0.4924355
vn 0.6325625 -0.6830564 0.365101
vn 0.6325625 -0.6830564 0.3651011
vn 0.6325625 -0.6830564 0.3651011
vn 0.4696291 -0.7786164 0.4161789
vn 0.4696292 -0.7786164 0.4161789
vn 0.4696292 -0.7786164 0.4161789
vn 0.768083 -0.531725 0.3568152
vn 0.768083 -0.531725 0.3568152
vn 0.768083 -0.531725 0.3568152
vn 0.7669414 -0.5336432 0.3564067
vn 0.6270237 -0.7790002 1.076716E-06
vn 0.6270238 -0.7790002 1.076716E-06
vn 0.6270237 -0.7790002 1.076716E-06
vn 0.6270239 -0.7790001 9.156714E-07
vn 0.6151419 -0.7288012 -0.3007478
vn 0.611111 -0.7261292 -0.3150869
vn 0.6151419 -0.7288012 -0.3007478
vn 0.6151419 -0.7288013 -0.3007478
vn 0.6282814 -0.7238411 -0.2851603
vn 0.632562 -0.7411596 0.2248283
vn 0.632562 -0.7411596 0.2248283
vn 0.632562 -0.7411596 0.2248283
vn 0.6325625 -0.7411594 0.2248275
vn -0.9818441 0.1467823 -0.1201542
vn -0.9818441 0.1467823 -0.1201542
vn -0.9818441 0.1467823 -0.1201542
vn -0.9828504 0.1415076 -0.1182389
vn 0.4696291 -0.8448482 0.256281
vn 0.4696292 -0.8448482 0.256281
vn 0.4696291 -0.8448482 0.256281
vn 0.4696291 -0.8448482 0.256281
vn -0.3741344 0.8302231 0.4132226
vn -0.3741344 0.8302231 0.4132226
vn -0.3741344 0.8302231 0.4132226
vn -0.3860721 0.8291512 0.4042979
vn 0.08521795 0.5409416 -0.8367317
vn 0.08521795 0.5409417 -0.8367317
vn 0.08521795 0.5409417 -0.8367317
vn 0.1031891 0.5165732 -0.8500025
g Ball_gb_001_Explode_Thin_03_Hull_0
f 3/3/3 2/2/2 1/1/1
f 6/6/6 5/5/5 4/4/4
f 9/9/9 8/8/8 7/7/7
f 12/12/12 11/11/11 10/10/10
f 15/15/15 14/14/14 13/13/13
f 18/18/18 17/17/17 16/16/16
f 21/21/21 20/20/20 19/19/19
f 24/24/24 23/23/23 22/22/22
f 27/27/27 26/26/26 25/25/25
f 30/30/30 29/29/29 28/28/28
f 33/33/33 32/32/32 31/31/31
f 36/36/36 35/35/35 34/34/34
f 39/39/39 38/38/38 37/37/37
f 42/42/42 41/41/41 40/40/40
f 45/45/45 44/44/44 43/43/43
f 48/48/48 47/47/47 46/46/46
f 51/51/51 50/50/50 49/49/49
f 54/54/54 53/53/53 52/52/52
f 57/57/57 56/56/56 55/55/55
f 60/60/60 59/59/59 58/58/58
f 63/63/63 62/62/62 61/61/61
f 66/66/66 65/65/65 64/64/64
f 69/69/69 68/68/68 67/67/67
f 72/72/72 71/71/71 70/70/70
f 75/75/75 74/74/74 73/73/73
f 78/78/78 77/77/77 76/76/76
f 81/81/81 80/80/80 79/79/79
f 84/84/84 83/83/83 82/82/82
f 87/87/87 86/86/86 85/85/85
f 90/90/90 89/89/89 88/88/88
f 93/93/93 92/92/92 91/91/91
f 96/96/96 95/95/95 94/94/94
f 99/99/99 98/98/98 97/97/97
f 102/102/102 101/101/101 100/100/100
f 105/105/105 104/104/104 103/103/103
f 108/108/108 107/107/107 106/106/106
f 111/111/111 110/110/110 109/109/109
f 114/114/114 113/113/113 112/112/112
f 117/117/117 116/116/116 115/115/115
f 120/120/120 119/119/119 118/118/118
f 123/123/123 122/122/122 121/121/121
f 126/126/126 125/125/125 124/124/124
f 129/129/129 128/128/128 127/127/127
f 132/132/132 131/131/131 130/130/130
f 131/131/131 132/132/132 133/133/133
f 136/136/136 135/135/135 134/134/134
f 134/134/134 135/135/135 137/137/137
f 140/140/140 139/139/139 138/138/138
f 141/141/141 140/140/140 138/138/138
f 142/142/142 141/141/141 138/138/138
f 145/145/145 144/144/144 143/143/143
f 145/145/145 143/143/143 146/146/146
f 149/149/149 148/148/148 147/147/147
f 147/147/147 148/148/148 150/150/150
f 153/153/153 152/152/152 151/151/151
f 152/152/152 153/153/153 154/154/154
f 157/157/157 156/156/156 155/155/155
f 158/158/158 157/157/157 155/155/155
f 161/161/161 160/160/160 159/159/159
f 160/160/160 162/162/162 159/159/159
