g Ball_gb_001_Explode_Thin_01_Hull
v -0.1498294 0.1382315 0.09028957
v -0.1498293 0.09958036 -0.02181925
v -0.05225424 0.1191955 -0.005410783
v -0.1866037 0.1272905 0.09246588
v -0.1498293 0.09958036 -0.02181925
v -0.1498294 0.1382315 0.09028957
v 0.1391462 0.02395981 -0.09188318
v 0.1391462 0.08402161 0.009158799
v 0.04532092 0.06498557 -0.08654153
v 0.1391462 0.02395981 -0.09188318
v 0.204068 0.02810148 -0.02220096
v 0.1391462 0.08402161 0.009158799
v 0.1391462 0.02395981 -0.09188318
v 0.04532092 0.06498557 -0.08654153
v 0.04532092 0.003980102 -0.1608767
v -0.05225424 0.1558143 0.2007456
v -0.1498294 0.1476573 0.1859899
v -0.05225424 0.1572676 0.1859899
v -0.05225424 0.07297619 -0.09188078
v -0.1005916 0.007409239 -0.1643058
v 0.04532092 0.003980102 -0.1608767
v -0.05225424 0.07297619 -0.09188078
v 0.04532092 0.003980102 -0.1608767
v 0.04532092 0.06498557 -0.08654153
v -0.2153921 0.127769 0.1859899
v -0.1498294 0.1476573 0.1859899
v -0.05225424 0.1558143 0.2007456
v -0.2153921 0.127769 0.1859899
v -0.2128937 0.1179894 0.1863755
v -0.07488671 -0.07422806 -0.2322812
v 0.2157804 0.05122161 0.04146094
v 0.1391462 0.08402161 0.009158799
v 0.204068 0.02810148 -0.02220096
v 0.2157804 0.05122161 0.04146094
v 0.204068 0.02810148 -0.02220096
v 0.2110826 0.04277055 0.0440245
v -0.05225424 0.1476572 0.08841468
v -0.1498294 0.1382315 0.09028957
v -0.05225424 0.1191955 -0.005410783
v 0.04532092 0.1103167 -0.001733048
v 0.04532092 0.06498557 -0.08654153
v 0.1391462 0.08402161 0.009158799
v 0.1131333 0.1133772 0.2185825
v -0.2128937 0.1179894 0.1863755
v 0.1160242 0.1229073 0.2195211
v -0.1276249 0.06680394 -0.08775654
v -0.1005916 0.007409239 -0.1643058
v -0.05225424 0.07297619 -0.09188078
v 0.04532092 -0.005034275 -0.1682745
v 0.1391462 0.02395981 -0.09188318
v 0.04532092 0.003980102 -0.1608767
v -0.07391093 -0.07892095 -0.2235013
v 0.1131333 0.1133772 0.2185825
v 0.2110826 0.04277055 0.0440245
v -0.07391093 -0.07892095 -0.2235013
v -0.07488671 -0.07422806 -0.2322812
v -0.2128937 0.1179894 0.1863755
v -0.07391093 -0.07892095 -0.2235013
v -0.2128937 0.1179894 0.1863755
v 0.1131333 0.1133772 0.2185825
v -0.07391093 -0.07892095 -0.2235013
v 0.204068 0.02810148 -0.02220096
v -0.07488671 -0.07422806 -0.2322812
v -0.07391093 -0.07892095 -0.2235013
v 0.2110826 0.04277055 0.0440245
v 0.204068 0.02810148 -0.02220096
v 0.04532085 0.1451983 0.2109563
v 0.1160242 0.1229073 0.2195211
v -0.05225424 0.1558143 0.2007456
v -0.2153921 0.127769 0.1859899
v 0.1160242 0.1229073 0.2195211
v -0.2128937 0.1179894 0.1863755
v 0.1391462 0.1187911 0.1818814
v 0.1391462 0.1103168 0.09584217
v 0.1847481 0.0864105 0.1005975
v -0.1005916 0.007409239 -0.1643058
v -0.07488671 -0.07422806 -0.2322812
v 0.04532092 0.003980102 -0.1608767
v 0.04532092 -0.005034275 -0.1682745
v -0.1498294 0.1476573 0.1859899
v -0.1866037 0.1272905 0.09246588
v -0.1498294 0.1382315 0.09028957
v -0.2153921 0.127769 0.1859899
v -0.1498294 0.1476573 0.1859899
v -0.1498294 0.1382315 0.09028957
v -0.05225424 0.1572676 0.1859899
v -0.05225424 0.1476572 0.08841468
v 0.1391462 0.08402161 0.009158799
v 0.1391462 0.1103168 0.09584217
v 0.04532092 0.1382316 0.09028956
v 0.04532092 0.1103167 -0.001733048
v 0.1391462 0.08402161 0.009158799
v 0.1847481 0.0864105 0.1005975
v 0.1391462 0.1103168 0.09584217
v 0.2157804 0.05122161 0.04146094
v 0.1391462 0.02395981 -0.09188318
v -0.07488671 -0.07422806 -0.2322812
v 0.204068 0.02810148 -0.02220096
v 0.04532092 -0.005034275 -0.1682745
v -0.05225424 0.07297619 -0.09188078
v 0.04532092 0.06498557 -0.08654153
v -0.05225424 0.1191955 -0.005410783
v 0.04532092 0.1103167 -0.001733048
v -0.05225424 0.07297619 -0.09188078
v -0.05225424 0.1191955 -0.005410783
v -0.1498293 0.09958036 -0.02181925
v -0.1276249 0.06680394 -0.08775654
v 0.04532092 0.1476573 0.1859899
v -0.05225424 0.1558143 0.2007456
v -0.05225424 0.1572676 0.1859899
v 0.04532085 0.1451983 0.2109563
v 0.04532092 0.1476573 0.1859899
v 0.04532092 0.1382316 0.09028956
v 0.1391462 0.1103168 0.09584217
v 0.1391462 0.1187911 0.1818814
v 0.04532092 0.1476573 0.1859899
v -0.05225424 0.1572676 0.1859899
v 0.04532092 0.1382316 0.09028956
v -0.05225424 0.1476572 0.08841468
v -0.2153921 0.127769 0.1859899
v -0.07488671 -0.07422806 -0.2322812
v -0.1866037 0.1272905 0.09246588
v -0.1498293 0.09958036 -0.02181925
v -0.1005916 0.007409239 -0.1643058
v -0.1276249 0.06680394 -0.08775654
v 0.2157804 0.05122161 0.04146094
v 0.2110826 0.04277055 0.0440245
v 0.1160242 0.1229073 0.2195211
v 0.1131333 0.1133772 0.2185825
v 0.2157804 0.05122161 0.04146094
v 0.1160242 0.1229073 0.2195211
v 0.1847481 0.0864105 0.1005975
v 0.1391462 0.1187911 0.1818814
v -0.05225424 0.1476572 0.08841468
v -0.05225424 0.1191955 -0.005410783
v 0.04532092 0.1382316 0.09028956
v 0.04532092 0.1103167 -0.001733048
v 0.04532085 0.1451983 0.2109563
v 0.04532092 0.1476573 0.1859899
v 0.1160242 0.1229073 0.2195211
v 0.1391462 0.1187911 0.1818814
vn -0.1340179 0.9368629 -0.3229968
vn -0.1340179 0.9368629 -0.3229969
vn -0.1340179 0.9368629 -0.3229969
vn -0.2878397 0.9053811 -0.3121431
vn -0.2878396 0.9053811 -0.3121432
vn -0.2878397 0.9053811 -0.3121431
vn 0.3276352 0.8121539 -0.482764
vn 0.3276352 0.812154 -0.482764
vn 0.3276352 0.8121539 -0.482764
vn 0.4426139 0.7708141 -0.4581906
vn 0.4426139 0.770814 -0.4581905
vn 0.4426139 0.770814 -0.4581905
vn 0.2890043 0.7400234 -0.6073235
vn 0.2890043 0.7400235 -0.6073235
vn 0.2890043 0.7400234 -0.6073235
vn -0.0975499 0.9904384 0.09754863
vn -0.0975499 0.9904384 0.09754863
vn -0.09754989 0.9904384 0.09754863
vn 0.03319937 0.7298015 -0.6828524
vn 0.03319937 0.7298016 -0.6828524
vn 0.03319937 0.7298015 -0.6828524
vn 0.09754939 0.7693227 -0.6313689
vn 0.09754939 0.7693227 -0.6313689
vn 0.09754941 0.7693227 -0.6313689
vn -0.1694799 0.5587009 0.8118681
vn -0.1694799 0.5587008 0.8118681
vn -0.1694799 0.5587009 0.8118681
vn -0.9478627 -0.249941 -0.1977011
vn -0.9478627 -0.249941 -0.1977011
vn -0.9478627 -0.249941 -0.1977011
vn 0.493963 0.7841445 -0.3756569
vn 0.493963 0.7841445 -0.3756569
vn 0.493963 0.7841445 -0.3756569
vn 0.8757615 -0.4825373 0.01412182
vn 0.8757615 -0.4825373 0.01412182
vn 0.8757615 -0.4825373 0.01412182
vn -0.09755008 0.9523762 -0.2889004
vn -0.09755008 0.9523762 -0.2889004
vn -0.09755009 0.9523762 -0.2889004
vn 0.2890041 0.8442876 -0.4512817
vn 0.2890041 0.8442875 -0.4512816
vn 0.2890041 0.8442876 -0.4512817
vn -0.09903093 -0.06773658 0.9927763
vn -0.09903093 -0.06773658 0.9927763
vn -0.09903093 -0.06773658 0.9927763
vn -0.09754934 0.7693232 -0.6313685
vn -0.09754933 0.7693231 -0.6313685
vn -0.09754934 0.7693232 -0.6313685
vn 0.3976095 0.5820884 -0.7092812
vn 0.3976095 0.5820884 -0.7092812
vn 0.3976095 0.5820883 -0.7092812
vn 0.028534 -0.9209898 0.3885405
vn 0.028534 -0.9209898 0.3885405
vn 0.028534 -0.9209898 0.3885405
vn -0.9080966 -0.4028336 -0.1143936
vn -0.9080964 -0.4028336 -0.1143935
vn -0.9080966 -0.4028336 -0.1143936
vn -0.05407027 -0.9070921 0.4174449
vn -0.05407026 -0.9070921 0.4174449
vn -0.05407028 -0.9070921 0.4174449
vn 0.5795248 -0.6902033 -0.4333249
vn 0.5795248 -0.6902033 -0.4333249
vn 0.5795248 -0.6902033 -0.4333249
vn 0.2322032 -0.9545534 0.1868404
vn 0.2322032 -0.9545534 0.1868404
vn 0.2322032 -0.9545534 0.1868404
vn -0.09521508 0.07926021 0.9922963
vn -0.09521507 0.0792602 0.9922963
vn -0.09966797 0.0571078 0.9933805
vn -0.1004553 0.01356183 0.9948491
vn -0.1004553 0.01356183 0.9948491
vn -0.1004553 0.01356183 0.9948491
vn 0.4696273 0.8786133 -0.08653786
vn 0.4696272 0.8786133 -0.08653786
vn 0.4696273 0.8786134 -0.08653786
vn 0.03310334 0.6456591 -0.762908
vn 0.03310333 0.645659 -0.762908
vn 0.03310334 0.645659 -0.762908
vn 0.04638652 0.6337083 -0.77218
vn -0.2890038 0.952718 -0.09383606
vn -0.2890038 0.952718 -0.09383606
vn -0.2890038 0.952718 -0.09383605
vn -0.289004 0.9527179 -0.0938359
vn -0.09754987 0.9904382 -0.09755123
vn -0.09754988 0.9904382 -0.09755123
vn -0.09754987 0.9904382 -0.09755122
vn -0.09755011 0.9904382 -0.09755103
vn 0.2890049 0.9161053 -0.277898
vn 0.2890049 0.9161053 -0.2778979
vn 0.2890049 0.9161053 -0.277898
vn 0.289004 0.9161052 -0.2778988
vn 0.4696273 0.8448488 -0.2562825
vn 0.4696273 0.8448488 -0.2562825
vn 0.4696273 0.8448488 -0.2562825
vn 0.4696273 0.8448488 -0.2562826
vn 0.6170254 -0.5715833 -0.5408995
vn 0.6170254 -0.5715833 -0.5408995
vn 0.6170254 -0.5715833 -0.5408994
vn 0.6170256 -0.5715826 -0.5409001
vn 0.09754929 0.8777146 -0.4691496
vn 0.09754929 0.8777146 -0.4691496
vn 0.09754927 0.8777146 -0.4691495
vn 0.09755006 0.8777149 -0.4691488
vn -0.09755012 0.8777145 -0.4691496
vn -0.09755011 0.8777145 -0.4691496
vn -0.0975501 0.8777145 -0.4691495
vn -0.09754922 0.8777152 -0.4691485
vn 0.0975499 0.9904384 0.09754863
vn 0.0975499 0.9904384 0.09754863
vn 0.09754989 0.9904384 0.09754863
vn 0.09754991 0.9904384 0.09754868
vn 0.2890049 0.9527178 -0.0938349
vn 0.2890049 0.9527178 -0.09383489
vn 0.2890049 0.9527178 -0.0938349
vn 0.2890032 0.9527181 -0.09383671
vn 0.09754987 0.9904383 -0.09755003
vn 0.09754988 0.9904383 -0.09755003
vn 0.09754988 0.9904383 -0.09755003
vn 0.09754894 0.9904383 -0.09755102
vn -0.9543194 -0.05612563 -0.2934695
vn -0.9543197 -0.05612616 -0.2934687
vn -0.9543192 -0.05612405 -0.2934704
vn -0.9543197 -0.05612616 -0.2934687
vn -0.9543197 -0.05612616 -0.2934687
vn -0.9543205 -0.05613285 -0.2934647
vn 0.7889727 -0.2713577 0.5512595
vn 0.7889727 -0.2713577 0.5512595
vn 0.7889727 -0.2713577 0.5512595
vn 0.7792737 -0.2910487 0.5549983
vn 0.8343387 -0.1538211 0.5293563
vn 0.8343387 -0.1538211 0.5293562
vn 0.8343386 -0.1538212 0.5293563
vn 0.8343403 -0.1538152 0.5293554
vn 0.09754894 0.9523764 -0.2889004
vn 0.09754895 0.9523764 -0.2889004
vn 0.09754894 0.9523764 -0.2889004
vn 0.09755004 0.9523759 -0.2889014
vn 0.2890024 0.9527186 0.09383418
vn 0.2890024 0.9527186 0.09383418
vn 0.2890024 0.9527186 0.09383418
vn 0.2962778 0.9519194 0.07790365
g Ball_gb_001_Explode_Thin_01_Hull_0
f 3/3/3 2/2/2 1/1/1
f 6/6/6 5/5/5 4/4/4
f 9/9/9 8/8/8 7/7/7
f 12/12/12 11/11/11 10/10/10
f 15/15/15 14/14/14 13/13/13
f 18/18/18 17/17/17 16/16/16
f 21/21/21 20/20/20 19/19/19
f 24/24/24 23/23/23 22/22/22
f 27/27/27 26/26/26 25/25/25
f 30/30/30 29/29/29 28/28/28
f 33/33/33 32/32/32 31/31/31
f 36/36/36 35/35/35 34/34/34
f 39/39/39 38/38/38 37/37/37
f 42/42/42 41/41/41 40/40/40
f 45/45/45 44/44/44 43/43/43
f 48/48/48 47/47/47 46/46/46
f 51/51/51 50/50/50 49/49/49
f 54/54/54 53/53/53 52/52/52
f 57/57/57 56/56/56 55/55/55
f 60/60/60 59/59/59 58/58/58
f 63/63/63 62/62/62 61/61/61
f 66/66/66 65/65/65 64/64/64
f 69/69/69 68/68/68 67/67/67
f 71/71/71 69/69/69 70/70/70
f 72/72/72 71/71/71 70/70/70
f 75/75/75 74/74/74 73/73/73
f 78/78/78 77/77/77 76/76/76
f 77/77/77 78/78/78 79/79/79
f 82/82/82 81/81/81 80/80/80
f 80/80/80 81/81/81 83/83/83
f 86/86/86 85/85/85 84/84/84
f 85/85/85 86/86/86 87/87/87
f 90/90/90 89/89/89 88/88/88
f 90/90/90 88/88/88 91/91/91
f 94/94/94 93/93/93 92/92/92
f 92/92/92 93/93/93 95/95/95
f 98/98/98 97/97/97 96/96/96
f 96/96/96 97/97/97 99/99/99
f 102/102/102 101/101/101 100/100/100
f 101/101/101 102/102/102 103/103/103
f 106/106/106 105/105/105 104/104/104
f 106/106/106 104/104/104 107/107/107
f 110/110/110 109/109/109 108/108/108
f 108/108/108 109/109/109 111/111/111
f 114/114/114 113/113/113 112/112/112
f 114/114/114 112/112/112 115/115/115
f 118/118/118 117/117/117 116/116/116
f 117/117/117 118/118/118 119/119/119
f 122/122/122 121/121/121 120/120/120
f 123/123/123 121/121/121 122/122/122
f 121/121/121 123/123/123 124/124/124
f 124/124/124 123/123/123 125/125/125
f 128/128/128 127/127/127 126/126/126
f 127/127/127 128/128/128 129/129/129
f 132/132/132 131/131/131 130/130/130
f 131/131/131 132/132/132 133/133/133
f 136/136/136 135/135/135 134/134/134
f 135/135/135 136/136/136 137/137/137
f 140/140/140 139/139/139 138/138/138
f 139/139/139 140/140/140 141/141/141
