g baseball_Explode_Thin_07_Hull
v 0.04981576 0.2350311 0.2492748
v -0.1046689 0.2804181 -0.03561848
v -0.1049639 -0.09552237 -0.2583344
v -0.06812542 0.08124267 0.1702072
v -0.06467282 -0.1303616 0.09076174
v -0.1164697 0.0812427 0.07540665
v -0.06812542 0.08124267 0.1702072
v -0.007871389 -0.0267178 0.2245747
v -0.06467282 -0.1303616 0.09076174
v -0.08306901 -0.1388759 -0.2325601
v 0.04981576 0.2350311 0.2492748
v -0.1049639 -0.09552237 -0.2583344
v -0.08306901 -0.1388759 -0.2325601
v 0.03997568 -0.282664 0.1039378
v 0.04981576 0.2350311 0.2492748
v -0.1423569 0.1934435 -0.09452841
v -0.1566641 0.08124273 -0.1178693
v -0.1529837 0.08124273 -0.1630673
v -0.00143949 0.08124267 0.2488755
v 0.03210804 0.2077468 0.2580234
v -0.007871389 -0.0267178 0.2245747
v -0.00143949 0.08124267 0.2488755
v -0.007871389 -0.0267178 0.2245747
v -0.06812542 0.08124267 0.1702072
v -0.08408466 -0.1786229 -0.1877805
v -0.05322932 -0.2450451 -0.07548659
v -0.08306901 -0.1388759 -0.2325601
v -0.08408466 -0.1786229 -0.1877805
v -0.1099709 -0.131694 -0.09206356
v -0.05322932 -0.2450451 -0.07548659
v -0.1244892 -0.03078202 -0.00991115
v -0.06467282 -0.1303616 0.09076174
v -0.1099709 -0.131694 -0.09206356
v -0.1244892 -0.03078202 -0.00991115
v -0.1164697 0.0812427 0.07540665
v -0.06467282 -0.1303616 0.09076174
v -0.1438554 -0.03076451 -0.1064591
v -0.1244892 -0.03078202 -0.00991115
v -0.1099709 -0.131694 -0.09206356
v -0.002633529 -0.1008459 0.1975613
v -0.06467282 -0.1303616 0.09076174
v -0.007871389 -0.0267178 0.2245747
v -0.002633529 -0.1008459 0.1975613
v 0.03997568 -0.282664 0.1039378
v -0.06467282 -0.1303616 0.09076174
v -0.01117625 -0.2746302 0.01872097
v -0.06467282 -0.1303616 0.09076174
v 0.03997568 -0.282664 0.1039378
v -0.06604421 0.2800687 0.08866765
v -0.1046689 0.2804181 -0.03561848
v 0.04981576 0.2350311 0.2492748
v 0.04981576 0.2350311 0.2492748
v -0.0272088 0.2692327 0.1657919
v 0.006784763 0.256171 0.2169795
v 0.04376667 0.2384152 0.2564869
v 0.006784763 0.256171 0.2169795
v 0.04981576 0.2350311 0.2492748
v 0.04376667 0.2384152 0.2564869
v 0.03210804 0.2077468 0.2580234
v 0.006784763 0.256171 0.2169795
v 0.04376667 0.2384152 0.2564869
v 0.04981576 0.2350311 0.2492748
v 0.03997568 -0.282664 0.1039378
v -0.05531524 0.1873762 0.1694623
v -0.0272088 0.2692327 0.1657919
v 0.006784763 0.256171 0.2169795
v -0.05531524 0.1873762 0.1694623
v 0.03210804 0.2077468 0.2580234
v -0.00143949 0.08124267 0.2488755
v -0.05531524 0.1873762 0.1694623
v 0.006784763 0.256171 0.2169795
v 0.03210804 0.2077468 0.2580234
v -0.05531524 0.1873762 0.1694623
v -0.00143949 0.08124267 0.2488755
v -0.06812542 0.08124267 0.1702072
v -0.1458135 0.08124271 -0.02166834
v -0.1438554 -0.03076451 -0.1064591
v -0.1566641 0.08124273 -0.1178693
v -0.1458135 0.08124271 -0.02166834
v -0.1244892 -0.03078202 -0.00991115
v -0.1438554 -0.03076451 -0.1064591
v -0.1458135 0.08124271 -0.02166834
v -0.1164697 0.0812427 0.07540665
v -0.1244892 -0.03078202 -0.00991115
v -0.1352262 -0.02505898 -0.2225411
v -0.1390315 -0.02609567 -0.2079457
v -0.1049639 -0.09552237 -0.2583344
v -0.1352262 -0.02505898 -0.2225411
v -0.1529837 0.08124273 -0.1630673
v -0.1390315 -0.02609567 -0.2079457
v -0.09188376 -0.1432341 -0.234394
v -0.08306901 -0.1388759 -0.2325601
v -0.1049639 -0.09552237 -0.2583344
v -0.09188376 -0.1432341 -0.234394
v -0.08408466 -0.1786229 -0.1877805
v -0.08306901 -0.1388759 -0.2325601
v -0.09188376 -0.1432341 -0.234394
v -0.1049639 -0.09552237 -0.2583344
v -0.1390315 -0.02609567 -0.2079457
v -0.130688 0.1946558 -0.008417112
v -0.1423569 0.1934435 -0.09452841
v -0.1046689 0.2804181 -0.03561848
v -0.06467282 -0.1303616 0.09076174
v -0.05322932 -0.2450451 -0.07548659
v -0.1099709 -0.131694 -0.09206356
v -0.01117625 -0.2746302 0.01872097
v -0.1006145 0.1923487 0.08467381
v -0.06812542 0.08124267 0.1702072
v -0.1164697 0.0812427 0.07540665
v -0.05531524 0.1873762 0.1694623
v -0.1423569 0.1934435 -0.09452841
v -0.1529837 0.08124273 -0.1630673
v -0.1046689 0.2804181 -0.03561848
v -0.1049639 -0.09552237 -0.2583344
v -0.1352262 -0.02505898 -0.2225411
v -0.1390315 -0.02609567 -0.2079457
v -0.1529837 0.08124273 -0.1630673
v -0.1566641 0.08124273 -0.1178693
v -0.1438554 -0.03076451 -0.1064591
v -0.1438554 -0.03076451 -0.1064591
v -0.1099709 -0.131694 -0.09206356
v -0.1390315 -0.02609567 -0.2079457
v -0.08408466 -0.1786229 -0.1877805
v -0.09188376 -0.1432341 -0.234394
v -0.002633529 -0.1008459 0.1975613
v -0.007871389 -0.0267178 0.2245747
v 0.03997568 -0.282664 0.1039378
v 0.03210804 0.2077468 0.2580234
v 0.04376667 0.2384152 0.2564869
v -0.01117625 -0.2746302 0.01872097
v -0.08306901 -0.1388759 -0.2325601
v -0.05322932 -0.2450451 -0.07548659
v 0.03997568 -0.282664 0.1039378
v -0.06604421 0.2800687 0.08866765
v -0.0272088 0.2692327 0.1657919
v -0.1006145 0.1923487 0.08467381
v -0.05531524 0.1873762 0.1694623
v -0.1458135 0.08124271 -0.02166834
v -0.1566641 0.08124273 -0.1178693
v -0.1423569 0.1934435 -0.09452841
v -0.130688 0.1946558 -0.008417112
v -0.130688 0.1946558 -0.008417112
v -0.1006145 0.1923487 0.08467381
v -0.1164697 0.0812427 0.07540665
v -0.1458135 0.08124271 -0.02166834
v -0.130688 0.1946558 -0.008417112
v -0.06604421 0.2800687 0.08866765
v -0.1006145 0.1923487 0.08467381
v -0.1046689 0.2804181 -0.03561848
vn 0.8666642 0.2537789 -0.4295223
vn 0.8666642 0.2537789 -0.4295223
vn 0.8666642 0.2537789 -0.4295223
vn -0.8759713 -0.1820063 0.4467079
vn -0.8759713 -0.1820063 0.4467079
vn -0.8759713 -0.1820063 0.446708
vn -0.8329687 -0.2063457 0.513405
vn -0.8329687 -0.2063457 0.513405
vn -0.8329687 -0.2063457 0.513405
vn 0.8897292 0.2076585 -0.4065218
vn 0.8897292 0.2076585 -0.4065219
vn 0.8897292 0.2076585 -0.4065219
vn 0.9461937 0.07066962 -0.3157899
vn 0.9461937 0.07066961 -0.3157899
vn 0.9461937 0.07066962 -0.3157899
vn -0.9865283 0.1425085 -0.08033226
vn -0.9865283 0.1425085 -0.08033226
vn -0.9865283 0.1425085 -0.08033226
vn 0.5829447 -0.2113238 0.7845494
vn 0.5829447 -0.2113238 0.7845494
vn 0.5829447 -0.2113238 0.7845494
vn -0.7590166 -0.09960487 0.643407
vn -0.7590166 -0.09960488 0.643407
vn -0.7590166 -0.09960488 0.643407
vn 0.6014692 -0.6042053 -0.5226575
vn 0.6014691 -0.6042053 -0.5226575
vn 0.6014691 -0.6042053 -0.5226574
vn -0.8928013 -0.4499685 -0.02084046
vn -0.8928013 -0.4499685 -0.02084046
vn -0.8928013 -0.4499685 -0.02084046
vn -0.9192107 -0.3195545 0.2300791
vn -0.9192107 -0.3195545 0.2300791
vn -0.9192107 -0.3195545 0.2300791
vn -0.9162968 -0.199075 0.347519
vn -0.9162968 -0.199075 0.347519
vn -0.9162968 -0.199075 0.347519
vn -0.9388379 -0.2883386 0.1882664
vn -0.9388378 -0.2883386 0.1882664
vn -0.9388378 -0.2883386 0.1882664
vn -0.8046871 -0.2526451 0.5372607
vn -0.8046871 -0.2526451 0.5372607
vn -0.8046871 -0.2526452 0.5372607
vn -0.7154629 -0.4450064 0.5385928
vn -0.7154629 -0.4450064 0.5385928
vn -0.7154629 -0.4450064 0.5385929
vn -0.7666069 -0.4909375 0.4138771
vn -0.7666069 -0.4909375 0.4138771
vn -0.7666069 -0.4909374 0.4138771
vn 0.5341374 0.8315985 -0.1521222
vn 0.5520077 0.8164809 -0.1692529
vn 0.5520077 0.8164809 -0.1692529
vn 0.5092445 0.8521085 -0.1207525
vn 0.5092445 0.8521085 -0.1207525
vn 0.5092446 0.8521084 -0.1207525
vn 0.4594563 0.8876542 -0.03114598
vn 0.4594563 0.8876542 -0.03114598
vn 0.4594563 0.8876541 -0.03114598
vn -0.6358647 0.2778023 0.7200708
vn -0.6358647 0.2778023 0.7200708
vn -0.6358646 0.2778023 0.7200708
vn 0.7003092 -0.2052507 0.6836951
vn 0.7003092 -0.2052507 0.6836951
vn 0.7003092 -0.2052507 0.6836952
vn -0.7623361 0.2877503 0.5796926
vn -0.7623361 0.2877503 0.5796926
vn -0.7623361 0.2877503 0.5796926
vn -0.7205879 0.142016 0.6786638
vn -0.7205878 0.142016 0.6786638
vn -0.7205879 0.142016 0.6786638
vn -0.7202225 0.1891053 0.6674719
vn -0.7202226 0.1891053 0.6674719
vn -0.7202225 0.1891053 0.6674719
vn -0.7592751 0.09616093 0.643626
vn -0.7592751 0.09616093 0.643626
vn -0.7592751 0.09616095 0.643626
vn -0.9885482 -0.1016877 0.1114994
vn -0.9885482 -0.1016877 0.1114994
vn -0.9885482 -0.1016877 0.1114994
vn -0.9672397 -0.1637585 0.1939861
vn -0.9672397 -0.1637586 0.1939861
vn -0.9672397 -0.1637586 0.1939861
vn -0.9463757 -0.1501226 0.2860704
vn -0.9463757 -0.1501226 0.2860704
vn -0.9463757 -0.1501226 0.2860704
vn -0.9279968 -0.2660508 -0.2608429
vn -0.9279968 -0.2660508 -0.2608429
vn -0.9279968 -0.2660508 -0.2608429
vn -0.9671226 -0.01970189 -0.2535461
vn -0.9671226 -0.01970189 -0.2535461
vn -0.9671226 -0.01970189 -0.2535461
vn 0.3503253 -0.3415661 -0.8721267
vn 0.3503253 -0.341566 -0.8721267
vn 0.3503253 -0.341566 -0.8721267
vn 0.4538699 -0.671501 -0.5857376
vn 0.4538699 -0.671501 -0.5857376
vn 0.4538699 -0.671501 -0.5857376
vn -0.9274198 -0.3363428 -0.1636031
vn -0.9274198 -0.3363428 -0.1636031
vn -0.9274198 -0.3363428 -0.1636031
vn -0.9382434 0.323531 0.1225852
vn -0.9382434 0.323531 0.1225852
vn -0.9382434 0.323531 0.1225852
vn -0.8844934 -0.4102754 0.2221385
vn -0.8844934 -0.4102754 0.2221385
vn -0.8844934 -0.4102753 0.2221385
vn -0.8623403 -0.4425813 0.2459491
vn -0.887325 0.0888818 0.4524979
vn -0.887325 0.08888179 0.4524978
vn -0.887325 0.0888818 0.4524978
vn -0.8741074 0.1088262 0.4733846
vn 0.1665262 0.5024811 -0.8483995
vn 0.1665261 0.502481 -0.8483996
vn 0.1665261 0.502481 -0.8483995
vn 0.1665261 0.502481 -0.8483996
vn 0.1665288 0.5024812 -0.8483989
vn -0.9921754 -0.09518702 -0.08079211
vn -0.9921754 -0.09518701 -0.08079211
vn -0.9921754 -0.09518701 -0.08079212
vn -0.9915309 -0.1187451 -0.05259323
vn -0.9436976 -0.3253552 -0.05982458
vn -0.9341035 -0.3473854 -0.08230572
vn -0.9341034 -0.3473854 -0.08230571
vn -0.9341034 -0.3473854 -0.08230571
vn -0.9304073 -0.3496905 -0.1098125
vn 0.6609882 -0.2152584 0.7188591
vn 0.6609856 -0.2152598 0.7188611
vn 0.6609856 -0.2152598 0.7188611
vn 0.6609856 -0.2152598 0.7188611
vn 0.6609893 -0.2152588 0.718858
vn 0.7162068 -0.507479 -0.4790751
vn 0.7162068 -0.507479 -0.4790751
vn 0.7162068 -0.507479 -0.4790751
vn 0.7178393 -0.5056571 -0.478558
vn -0.8320489 0.3068707 0.4620878
vn -0.8320489 0.3068707 0.4620878
vn -0.8320489 0.3068707 0.4620877
vn -0.832001 0.3064146 0.4624765
vn -0.9884297 0.1028472 0.1114861
vn -0.9884297 0.1028472 0.1114861
vn -0.9884297 0.1028472 0.1114861
vn -0.984481 0.1158999 0.1317738
vn -0.9450938 0.1091759 0.3080233
vn -0.9450938 0.109176 0.3080233
vn -0.9450938 0.109176 0.3080234
vn -0.9530354 0.09344282 0.2880835
vn -0.892952 0.3383952 0.2968593
vn -0.892952 0.3383952 0.2968593
vn -0.892952 0.3383952 0.2968593
vn -0.891175 0.3585317 0.2779605
g baseball_Explode_Thin_07_Hull_0
f 3/3/3 2/2/2 1/1/1
f 6/6/6 5/5/5 4/4/4
f 9/9/9 8/8/8 7/7/7
f 12/12/12 11/11/11 10/10/10
f 15/15/15 14/14/14 13/13/13
f 18/18/18 17/17/17 16/16/16
f 21/21/21 20/20/20 19/19/19
f 24/24/24 23/23/23 22/22/22
f 27/27/27 26/26/26 25/25/25
f 30/30/30 29/29/29 28/28/28
f 33/33/33 32/32/32 31/31/31
f 36/36/36 35/35/35 34/34/34
f 39/39/39 38/38/38 37/37/37
f 42/42/42 41/41/41 40/40/40
f 45/45/45 44/44/44 43/43/43
f 48/48/48 47/47/47 46/46/46
f 51/51/51 50/50/50 49/49/49
f 53/53/53 52/52/52 49/49/49
f 52/52/52 53/53/53 54/54/54
f 57/57/57 56/56/56 55/55/55
f 60/60/60 59/59/59 58/58/58
f 63/63/63 62/62/62 61/61/61
f 66/66/66 65/65/65 64/64/64
f 69/69/69 68/68/68 67/67/67
f 72/72/72 71/71/71 70/70/70
f 75/75/75 74/74/74 73/73/73
f 78/78/78 77/77/77 76/76/76
f 81/81/81 80/80/80 79/79/79
f 84/84/84 83/83/83 82/82/82
f 87/87/87 86/86/86 85/85/85
f 90/90/90 89/89/89 88/88/88
f 93/93/93 92/92/92 91/91/91
f 96/96/96 95/95/95 94/94/94
f 99/99/99 98/98/98 97/97/97
f 102/102/102 101/101/101 100/100/100
f 105/105/105 104/104/104 103/103/103
f 103/103/103 104/104/104 106/106/106
f 109/109/109 108/108/108 107/107/107
f 107/107/107 108/108/108 110/110/110
f 113/113/113 112/112/112 111/111/111
f 113/113/113 114/114/114 112/112/112
f 112/112/112 114/114/114 115/115/115
f 118/118/118 117/117/117 116/116/116
f 118/118/118 116/116/116 119/119/119
f 122/122/122 121/121/121 120/120/120
f 121/121/121 122/122/122 123/123/123
f 123/123/123 122/122/122 124/124/124
f 127/127/127 126/126/126 125/125/125
f 127/127/127 128/128/128 126/126/126
f 128/128/128 127/127/127 129/129/129
f 132/132/132 131/131/131 130/130/130
f 131/131/131 133/133/133 130/130/130
f 136/136/136 135/135/135 134/134/134
f 135/135/135 136/136/136 137/137/137
f 140/140/140 139/139/139 138/138/138
f 140/140/140 138/138/138 141/141/141
f 144/144/144 143/143/143 142/142/142
f 145/145/145 144/144/144 142/142/142
f 148/148/148 147/147/147 146/146/146
f 147/147/147 149/149/149 146/146/146
