g baseball_Explode_Thin_10_Hull
v 0.2447369 0.2045197 -0.1605626
v 0.2004896 0.0171749 -0.2905964
v -0.1867105 -0.3093794 0.07014318
v -0.1867105 -0.3093794 0.07014318
v -0.1957121 0.06361689 0.290616
v 0.2447369 0.2045197 -0.1605626
v 0.07937009 -0.1343749 -0.2557023
v -0.1867105 -0.3093794 0.07014318
v 0.2004896 0.0171749 -0.2905964
v 0.09391575 0.3031964 0.05129297
v 0.03779801 0.3061728 0.07899894
v 0.1547847 0.2895243 -0.06191507
v 0.09391575 0.3031964 0.05129297
v 0.2447369 0.2045197 -0.1605626
v -0.1957121 0.06361689 0.290616
v -0.148466 -0.2682956 -0.06985672
v -0.02280024 -0.1878183 -0.2128407
v -0.1530702 -0.237233 -0.07689123
v -0.1386585 0.1653829 0.01331667
v 0.03779801 0.3061728 0.07899894
v -0.1210484 0.2303338 0.1911477
v 0.219798 0.08883551 -0.2681479
v 0.2004896 0.0171749 -0.2905964
v 0.2447369 0.2045197 -0.1605626
v 0.219798 0.08883551 -0.2681479
v 0.1892274 0.08869791 -0.2645734
v 0.2004896 0.0171749 -0.2905964
v 0.08381721 0.02588848 -0.2597525
v 0.1892274 0.08869791 -0.2645734
v 0.03023452 0.1073022 -0.2029702
v 0.08381721 0.02588848 -0.2597525
v 0.2004896 0.0171749 -0.2905964
v 0.1892274 0.08869791 -0.2645734
v 0.08381721 0.02588848 -0.2597525
v -0.08159863 0.06319316 -0.1534199
v -0.02280024 -0.1878183 -0.2128407
v 0.08381721 0.02588848 -0.2597525
v 0.03023452 0.1073022 -0.2029702
v -0.08159863 0.06319316 -0.1534199
v 0.08381721 0.02588848 -0.2597525
v 0.07937009 -0.1343749 -0.2557023
v 0.2004896 0.0171749 -0.2905964
v 0.08381721 0.02588848 -0.2597525
v -0.02280024 -0.1878183 -0.2128407
v 0.07937009 -0.1343749 -0.2557023
v 0.05564791 0.2499497 -0.06570365
v 0.1547847 0.2895243 -0.06191507
v 0.03779801 0.3061728 0.07899894
v 0.05564791 0.2499497 -0.06570365
v 0.03779801 0.3061728 0.07899894
v -0.1386585 0.1653829 0.01331667
v 0.05564791 0.2499497 -0.06570365
v -0.1386585 0.1653829 0.01331667
v -0.1350484 0.1004478 -0.07023585
v -0.2350153 -0.02352341 0.2197816
v -0.1957121 0.06361689 0.290616
v -0.2440258 -0.1355538 0.1631702
v -0.2350153 -0.02352341 0.2197816
v -0.2440258 -0.1355538 0.1631702
v -0.2397917 -0.1355538 0.111174
v -0.2262686 -0.2418532 0.1036978
v -0.2134887 -0.1355538 0.01822678
v -0.2397917 -0.1355538 0.111174
v -0.2262686 -0.2418532 0.1036978
v -0.2397917 -0.1355538 0.111174
v -0.2440258 -0.1355538 0.1631702
v -0.1079829 -0.1355537 -0.1470664
v -0.2134887 -0.1355538 0.01822678
v -0.1530702 -0.237233 -0.07689123
v -0.1079829 -0.1355537 -0.1470664
v -0.1530702 -0.237233 -0.07689123
v -0.02280024 -0.1878183 -0.2128407
v -0.1079829 -0.1355537 -0.1470664
v -0.02280024 -0.1878183 -0.2128407
v -0.08159863 0.06319316 -0.1534199
v 0.1680179 0.2459762 -0.1266774
v 0.05564791 0.2499497 -0.06570365
v 0.03023452 0.1073022 -0.2029702
v 0.1680179 0.2459762 -0.1266774
v 0.1547847 0.2895243 -0.06191507
v 0.05564791 0.2499497 -0.06570365
v 0.1680179 0.2459762 -0.1266774
v 0.03023452 0.1073022 -0.2029702
v 0.1892274 0.08869791 -0.2645734
v -0.1573236 0.1801972 0.1289283
v -0.1386585 0.1653829 0.01331667
v -0.1210484 0.2303338 0.1911477
v -0.1573236 0.1801972 0.1289283
v -0.2047703 0.06083835 0.1298283
v -0.1386585 0.1653829 0.01331667
v -0.1573236 0.1801972 0.1289283
v -0.1210484 0.2303338 0.1911477
v -0.1957121 0.06361689 0.290616
v -0.1899214 -0.303898 0.03311481
v -0.1530702 -0.237233 -0.07689123
v -0.2134887 -0.1355538 0.01822678
v -0.1899214 -0.303898 0.03311481
v -0.2134887 -0.1355538 0.01822678
v -0.2262686 -0.2418532 0.1036978
v -0.1899214 -0.303898 0.03311481
v -0.148466 -0.2682956 -0.06985672
v -0.1530702 -0.237233 -0.07689123
v -0.1899214 -0.303898 0.03311481
v -0.2262686 -0.2418532 0.1036978
v -0.1867105 -0.3093794 0.07014318
v 0.2027259 0.2523818 -0.1237582
v 0.1547847 0.2895243 -0.06191507
v 0.1680179 0.2459762 -0.1266774
v 0.2027259 0.2523818 -0.1237582
v 0.219798 0.08883551 -0.2681479
v 0.2447369 0.2045197 -0.1605626
v -0.2045185 -0.035177 0.02042596
v -0.2134887 -0.1355538 0.01822678
v -0.1350484 0.1004478 -0.07023585
v -0.1079829 -0.1355537 -0.1470664
v -0.1350484 0.1004478 -0.07023585
v -0.08159863 0.06319316 -0.1534199
v -0.2045185 -0.035177 0.02042596
v -0.2397917 -0.1355538 0.111174
v -0.2134887 -0.1355538 0.01822678
v 0.07937009 -0.1343749 -0.2557023
v -0.02280024 -0.1878183 -0.2128407
v -0.1867105 -0.3093794 0.07014318
v -0.148466 -0.2682956 -0.06985672
v -0.1899214 -0.303898 0.03311481
v 0.09391575 0.3031964 0.05129297
v 0.1547847 0.2895243 -0.06191507
v 0.2447369 0.2045197 -0.1605626
v 0.2027259 0.2523818 -0.1237582
v 0.09391575 0.3031964 0.05129297
v -0.1210484 0.2303338 0.1911477
v 0.03779801 0.3061728 0.07899894
v -0.1957121 0.06361689 0.290616
v -0.08159863 0.06319316 -0.1534199
v 0.03023452 0.1073022 -0.2029702
v -0.1350484 0.1004478 -0.07023585
v 0.05564791 0.2499497 -0.06570365
v -0.2350153 -0.02352341 0.2197816
v -0.2397917 -0.1355538 0.111174
v -0.2047703 0.06083835 0.1298283
v -0.2045185 -0.035177 0.02042596
v -0.2262686 -0.2418532 0.1036978
v -0.1957121 0.06361689 0.290616
v -0.1867105 -0.3093794 0.07014318
v -0.2440258 -0.1355538 0.1631702
v 0.1680179 0.2459762 -0.1266774
v 0.1892274 0.08869791 -0.2645734
v 0.219798 0.08883551 -0.2681479
v 0.2027259 0.2523818 -0.1237582
v -0.1573236 0.1801972 0.1289283
v -0.2350153 -0.02352341 0.2197816
v -0.2047703 0.06083835 0.1298283
v -0.1957121 0.06361689 0.290616
v -0.2045185 -0.035177 0.02042596
v -0.1386585 0.1653829 0.01331667
v -0.2047703 0.06083835 0.1298283
v -0.1350484 0.1004478 -0.07023585
vn 0.7804521 -0.4702808 0.4119837
vn 0.7804521 -0.4702809 0.4119837
vn 0.7804521 -0.4702808 0.4119837
vn 0.7240483 -0.3379407 0.6012905
vn 0.7240482 -0.3379407 0.6012906
vn 0.7240482 -0.3379407 0.6012905
vn 0.771107 -0.5377967 0.3408354
vn 0.771107 -0.5377967 0.3408354
vn 0.771107 -0.5377967 0.3408354
vn -0.008897366 0.9921662 -0.1246078
vn -0.008897366 0.9921662 -0.1246078
vn -0.008897366 0.9921662 -0.1246078
vn 0.7307796 -0.248248 0.6358727
vn 0.7307796 -0.248248 0.6358727
vn 0.7307795 -0.248248 0.6358728
vn -0.6489216 -0.2582595 -0.7156834
vn -0.6489216 -0.2582595 -0.7156834
vn -0.6489216 -0.2582595 -0.7156835
vn -0.5501307 0.8004782 -0.2378882
vn -0.5501307 0.8004782 -0.2378882
vn -0.5501307 0.8004782 -0.2378882
vn 0.955323 -0.2835422 0.0834377
vn 0.955323 -0.2835422 0.08343769
vn 0.955323 -0.2835422 0.0834377
vn -0.1112996 0.3242657 -0.9393957
vn -0.1112996 0.3242657 -0.9393957
vn -0.1112996 0.3242657 -0.9393957
vn -0.2863005 0.4141705 -0.8639994
vn -0.2863005 0.4141706 -0.8639993
vn -0.2863005 0.4141705 -0.8639994
vn -0.2224708 0.3022192 -0.9269145
vn -0.2224708 0.3022192 -0.9269145
vn -0.2224708 0.3022192 -0.9269145
vn -0.5267864 0.07699138 -0.8465036
vn -0.5267865 0.07699138 -0.8465036
vn -0.5267864 0.07699138 -0.8465036
vn -0.4769734 0.2695448 -0.8365656
vn -0.4769734 0.2695448 -0.8365656
vn -0.4769734 0.2695448 -0.8365656
vn -0.2567516 -0.01729648 -0.9663226
vn -0.2567516 -0.01729648 -0.9663226
vn -0.2567516 -0.01729648 -0.9663226
vn -0.3811232 -0.01278676 -0.9244359
vn -0.3811231 -0.01278676 -0.9244359
vn -0.3811231 -0.01278676 -0.9244359
vn -0.3309339 0.8650965 -0.3769494
vn -0.3309339 0.8650965 -0.3769495
vn -0.3309339 0.8650965 -0.3769494
vn -0.4927097 0.7888812 -0.3672925
vn -0.4927097 0.7888812 -0.3672925
vn -0.4927097 0.7888812 -0.3672925
vn -0.5108086 0.6679658 -0.5411988
vn -0.5108086 0.6679658 -0.5411989
vn -0.5108086 0.6679659 -0.5411989
vn -0.6050824 -0.3197753 0.7291221
vn -0.6050824 -0.3197753 0.7291222
vn -0.6050823 -0.3197753 0.7291222
vn -0.989463 0.1202964 -0.08057179
vn -0.989463 0.1202964 -0.0805718
vn -0.989463 0.1202964 -0.08057181
vn -0.9571244 -0.1027127 -0.2708561
vn -0.9571244 -0.1027127 -0.2708561
vn -0.9571244 -0.1027126 -0.270856
vn -0.9894733 -0.1202109 -0.08057263
vn -0.9894733 -0.1202109 -0.08057264
vn -0.9894733 -0.1202109 -0.08057264
vn -0.8429211 0.002443802 -0.5380317
vn -0.8429211 0.002443802 -0.5380317
vn -0.8429211 0.002443802 -0.5380316
vn -0.6716717 -0.1953698 -0.7146242
vn -0.6716717 -0.1953698 -0.7146242
vn -0.6716717 -0.1953698 -0.7146242
vn -0.5899186 0.05255564 -0.8057505
vn -0.5899186 0.05255564 -0.8057505
vn -0.5899186 0.05255564 -0.8057505
vn -0.3287953 0.6845937 -0.6505575
vn -0.3287953 0.6845937 -0.6505575
vn -0.3287953 0.6845937 -0.6505575
vn -0.2844819 0.7676243 -0.574302
vn -0.2844819 0.7676244 -0.574302
vn -0.2844819 0.7676244 -0.5743021
vn -0.2166005 0.6269277 -0.7483621
vn -0.2166005 0.6269277 -0.7483621
vn -0.2166005 0.6269277 -0.7483621
vn -0.6596395 0.7246616 -0.1993526
vn -0.6596394 0.7246616 -0.1993526
vn -0.6596395 0.7246616 -0.1993526
vn -0.9121996 0.3611521 -0.193548
vn -0.9121997 0.3611521 -0.1935481
vn -0.9121997 0.3611521 -0.1935481
vn -0.8732862 0.4692631 0.1310094
vn -0.8732861 0.4692631 0.1310094
vn -0.8732862 0.4692631 0.1310094
vn -0.9020701 -0.1616746 -0.4001635
vn -0.9020701 -0.1616746 -0.4001635
vn -0.9020701 -0.1616746 -0.4001635
vn -0.9277319 -0.1597121 -0.3373507
vn -0.9277319 -0.1597121 -0.3373507
vn -0.9277319 -0.1597121 -0.3373507
vn -0.8737344 -0.2269345 -0.4302196
vn -0.8737344 -0.2269345 -0.4302195
vn -0.8737344 -0.2269345 -0.4302195
vn -0.8628447 -0.505469 -4.621224E-06
vn -0.8628448 -0.505469 -4.621224E-06
vn -0.8628448 -0.505469 -4.621224E-06
vn -0.1026364 0.815617 -0.5694162
vn -0.1026364 0.815617 -0.5694162
vn -0.1026364 0.815617 -0.5694162
vn 0.1089145 0.6642661 -0.7395189
vn 0.1089145 0.664266 -0.7395189
vn 0.1089145 0.664266 -0.7395189
vn -0.8494992 0.08731526 -0.5203146
vn -0.8403391 0.07824741 -0.5363837
vn -0.8494992 0.08731526 -0.5203146
vn -0.8188933 0.09059305 -0.566751
vn -0.8188933 0.09059305 -0.566751
vn -0.8188933 0.09059304 -0.566751
vn -0.958171 0.09156783 -0.2711522
vn -0.9581711 0.09156784 -0.2711522
vn -0.958171 0.09156783 -0.2711522
vn 0.4078785 -0.9005321 -0.1505889
vn 0.4078784 -0.9005321 -0.1505889
vn 0.4078785 -0.9005321 -0.1505889
vn 0.4014436 -0.902635 -0.1552192
vn 0.3693639 -0.914093 -0.1673451
vn 0.8213662 0.4148024 0.3915311
vn 0.8213662 0.4148024 0.3915311
vn 0.8213662 0.4148024 0.3915311
vn 0.8202494 0.4292685 0.378047
vn 0.4313164 0.3352312 0.8376074
vn 0.4313164 0.3352312 0.8376074
vn 0.4313164 0.3352311 0.8376074
vn 0.4453346 0.3031982 0.8424654
vn -0.5093145 0.614512 -0.6024731
vn -0.5093144 0.614512 -0.6024731
vn -0.5093145 0.614512 -0.6024731
vn -0.4935117 0.6471129 -0.581112
vn -0.9706679 0.1873998 -0.1506165
vn -0.9706679 0.1873997 -0.1506165
vn -0.9706679 0.1873998 -0.1506165
vn -0.9676622 0.1884812 -0.167645
vn -0.1426053 -0.5061898 0.8505502
vn -0.1426053 -0.5061898 0.8505502
vn -0.1426053 -0.5061898 0.8505502
vn -0.1665265 -0.5024811 0.8483995
vn -0.09118532 0.6495284 -0.7548497
vn -0.09118532 0.6495284 -0.7548497
vn -0.0911853 0.6495284 -0.7548497
vn -0.05811397 0.6573037 -0.7513818
vn -0.928639 0.3694041 0.03420571
vn -0.928639 0.3694042 0.03420572
vn -0.928639 0.3694042 0.03420572
vn -0.9253169 0.3757206 0.05120996
vn -0.9202825 0.293012 -0.2592759
vn -0.9202825 0.293012 -0.2592759
vn -0.9202825 0.293012 -0.2592759
vn -0.9184287 0.2921391 -0.2667275
g baseball_Explode_Thin_10_Hull_0
f 3/3/3 2/2/2 1/1/1
f 6/6/6 5/5/5 4/4/4
f 9/9/9 8/8/8 7/7/7
f 12/12/12 11/11/11 10/10/10
f 15/15/15 14/14/14 13/13/13
f 18/18/18 17/17/17 16/16/16
f 21/21/21 20/20/20 19/19/19
f 24/24/24 23/23/23 22/22/22
f 27/27/27 26/26/26 25/25/25
f 30/30/30 29/29/29 28/28/28
f 33/33/33 32/32/32 31/31/31
f 36/36/36 35/35/35 34/34/34
f 39/39/39 38/38/38 37/37/37
f 42/42/42 41/41/41 40/40/40
f 45/45/45 44/44/44 43/43/43
f 48/48/48 47/47/47 46/46/46
f 51/51/51 50/50/50 49/49/49
f 54/54/54 53/53/53 52/52/52
f 57/57/57 56/56/56 55/55/55
f 60/60/60 59/59/59 58/58/58
f 63/63/63 62/62/62 61/61/61
f 66/66/66 65/65/65 64/64/64
f 69/69/69 68/68/68 67/67/67
f 72/72/72 71/71/71 70/70/70
f 75/75/75 74/74/74 73/73/73
f 78/78/78 77/77/77 76/76/76
f 81/81/81 80/80/80 79/79/79
f 84/84/84 83/83/83 82/82/82
f 87/87/87 86/86/86 85/85/85
f 90/90/90 89/89/89 88/88/88
f 93/93/93 92/92/92 91/91/91
f 96/96/96 95/95/95 94/94/94
f 99/99/99 98/98/98 97/97/97
f 102/102/102 101/101/101 100/100/100
f 105/105/105 104/104/104 103/103/103
f 108/108/108 107/107/107 106/106/106
f 111/111/111 110/110/110 109/109/109
f 114/114/114 113/113/113 112/112/112
f 113/113/113 116/116/116 115/115/115
f 116/116/116 117/117/117 115/115/115
f 120/120/120 119/119/119 118/118/118
f 123/123/123 122/122/122 121/121/121
f 122/122/122 123/123/123 124/124/124
f 124/124/124 123/123/123 125/125/125
f 128/128/128 127/127/127 126/126/126
f 127/127/127 128/128/128 129/129/129
f 132/132/132 131/131/131 130/130/130
f 131/131/131 133/133/133 130/130/130
f 136/136/136 135/135/135 134/134/134
f 135/135/135 136/136/136 137/137/137
f 140/140/140 139/139/139 138/138/138
f 139/139/139 140/140/140 141/141/141
f 144/144/144 143/143/143 142/142/142
f 143/143/143 145/145/145 142/142/142
f 148/148/148 147/147/147 146/146/146
f 148/148/148 146/146/146 149/149/149
f 152/152/152 151/151/151 150/150/150
f 151/151/151 153/153/153 150/150/150
f 156/156/156 155/155/155 154/154/154
f 155/155/155 157/157/157 154/154/154
