g baseball_Explode_Thin_02_Hull
v 0.01828107 0.2055081 0.007004757
v 0.06127894 0.1709555 0.02353982
v 0.003076401 0.2021066 0.1216991
v 0.009754028 0.1685309 0.172927
v 0.107957 0.03220092 0.112927
v 0.07178819 0.02420389 0.2099013
v 0.009754028 0.1685309 0.172927
v 0.06127894 0.1709555 0.02353982
v 0.107957 0.03220092 0.112927
v 0.009754028 0.1685309 0.172927
v 0.003076401 0.2021066 0.1216991
v 0.06127894 0.1709555 0.02353982
v 0.07664876 0.07693896 -0.2287349
v 0.08509399 0.0891794 -0.1989224
v 0.05529629 0.1067658 -0.2309386
v 0.07664876 0.07693896 -0.2287349
v 0.1323081 -0.08247779 -0.1872045
v 0.08509399 0.0891794 -0.1989224
v 0.1546322 -0.07636067 -0.09974535
v 0.08509399 0.0891794 -0.1989224
v 0.1323081 -0.08247779 -0.1872045
v 0.08946701 -0.09087344 0.2262522
v -0.005308199 0.1417718 -0.2164107
v -0.00460618 0.1721602 0.1660105
v 0.1427419 -0.2046142 -0.1408188
v -0.005308199 0.1417718 -0.2164107
v 0.08946701 -0.09087344 0.2262522
v 0.1427419 -0.2046142 -0.1408188
v 0.1523416 -0.2055304 -0.1434788
v 0.1323081 -0.08247779 -0.1872045
v -0.001037607 0.1495553 -0.2210205
v -0.005308199 0.1417718 -0.2164107
v 0.05529629 0.1067658 -0.2309386
v -0.001037607 0.1495553 -0.2210205
v 0.05529629 0.1067658 -0.2309386
v 0.002429809 0.155182 -0.2083078
v 0.06152637 0.1603734 -0.09894166
v 0.08322962 0.1328676 -0.08919703
v 0.06127894 0.1709555 0.02353982
v 0.06152637 0.1603734 -0.09894166
v 0.06127894 0.1709555 0.02353982
v 0.01828107 0.2055081 0.007004757
v 0.06152637 0.1603734 -0.09894166
v 0.01828107 0.2055081 0.007004757
v 0.01723105 0.1857369 -0.1122803
v 0.06152637 0.1603734 -0.09894166
v 0.08509399 0.0891794 -0.1989224
v 0.08322962 0.1328676 -0.08919703
v 0.06152637 0.1603734 -0.09894166
v 0.05529629 0.1067658 -0.2309386
v 0.08509399 0.0891794 -0.1989224
v 0.1261413 0.02956689 0.01624255
v 0.1468566 -0.07015386 0.1000484
v 0.107957 0.03220092 0.112927
v 0.1261413 0.02956689 0.01624255
v 0.1604222 -0.07147884 0.001840264
v 0.1468566 -0.07015386 0.1000484
v 0.1261413 0.02956689 0.01624255
v 0.107957 0.03220092 0.112927
v 0.06127894 0.1709555 0.02353982
v 0.1261413 0.02956689 0.01624255
v 0.06127894 0.1709555 0.02353982
v 0.08322962 0.1328676 -0.08919703
v -0.005311336 0.1959011 0.1189965
v -0.005308199 0.1417718 -0.2164107
v -0.001037607 0.1495553 -0.2210205
v -0.005311336 0.1959011 0.1189965
v 0.01828107 0.2055081 0.007004757
v 0.003076401 0.2021066 0.1216991
v -0.005311336 0.1959011 0.1189965
v -0.00460618 0.1721602 0.1660105
v -0.005308199 0.1417718 -0.2164107
v 0.1163433 -0.07255511 0.1931294
v 0.1551228 -0.1259367 0.09371351
v 0.0982354 -0.08979126 0.2309442
v 0.1163433 -0.07255511 0.1931294
v 0.1468566 -0.07015386 0.1000484
v 0.1551228 -0.1259367 0.09371351
v 0.1163433 -0.07255511 0.1931294
v 0.0982354 -0.08979126 0.2309442
v 0.07178819 0.02420389 0.2099013
v 0.1163433 -0.07255511 0.1931294
v 0.07178819 0.02420389 0.2099013
v 0.107957 0.03220092 0.112927
v 0.1163433 -0.07255511 0.1931294
v 0.107957 0.03220092 0.112927
v 0.1468566 -0.07015386 0.1000484
v 0.002402487 0.1785146 0.1692617
v -0.005311336 0.1959011 0.1189965
v 0.003076401 0.2021066 0.1216991
v 0.002402487 0.1785146 0.1692617
v -0.00460618 0.1721602 0.1660105
v -0.005311336 0.1959011 0.1189965
v 0.002402487 0.1785146 0.1692617
v 0.003076401 0.2021066 0.1216991
v 0.009754028 0.1685309 0.172927
v 0.169776 -0.157011 -0.006877889
v 0.162371 -0.1383977 0.05267932
v 0.1604222 -0.07147884 0.001840264
v 0.1468566 -0.07015386 0.1000484
v 0.1604222 -0.07147884 0.001840264
v 0.162371 -0.1383977 0.05267932
v 0.1551228 -0.1259367 0.09371351
v 0.009754028 0.1685309 0.172927
v 0.07178819 0.02420389 0.2099013
v 0.0982354 -0.08979126 0.2309442
v 0.002402487 0.1785146 0.1692617
v 0.1663591 -0.1837661 -0.08534925
v 0.1323081 -0.08247779 -0.1872045
v 0.1523416 -0.2055304 -0.1434788
v 0.1546322 -0.07636067 -0.09974535
v 0.002429809 0.155182 -0.2083078
v 0.01723105 0.1857369 -0.1122803
v 0.01828107 0.2055081 0.007004757
v -0.001037607 0.1495553 -0.2210205
v -0.005311336 0.1959011 0.1189965
v 0.07664876 0.07693896 -0.2287349
v 0.05529629 0.1067658 -0.2309386
v -0.005308199 0.1417718 -0.2164107
v 0.1427419 -0.2046142 -0.1408188
v 0.1323081 -0.08247779 -0.1872045
v 0.1546322 -0.07636067 -0.09974535
v 0.08322962 0.1328676 -0.08919703
v 0.08509399 0.0891794 -0.1989224
v 0.1604222 -0.07147884 0.001840264
v 0.1261413 0.02956689 0.01624255
v 0.08946701 -0.09087344 0.2262522
v -0.00460618 0.1721602 0.1660105
v 0.0982354 -0.08979126 0.2309442
v 0.002402487 0.1785146 0.1692617
v 0.1427419 -0.2046142 -0.1408188
v 0.0982354 -0.08979126 0.2309442
v 0.1523416 -0.2055304 -0.1434788
v 0.08946701 -0.09087344 0.2262522
v 0.06152637 0.1603734 -0.09894166
v 0.002429809 0.155182 -0.2083078
v 0.05529629 0.1067658 -0.2309386
v 0.01723105 0.1857369 -0.1122803
v 0.1551228 -0.1259367 0.09371351
v 0.162371 -0.1383977 0.05267932
v 0.0982354 -0.08979126 0.2309442
v 0.1523416 -0.2055304 -0.1434788
v 0.1663591 -0.1837661 -0.08534925
v 0.169776 -0.157011 -0.006877889
v 0.169776 -0.157011 -0.006877889
v 0.1546322 -0.07636067 -0.09974535
v 0.1663591 -0.1837661 -0.08534925
v 0.1604222 -0.07147884 0.001840264
vn 0.5987215 0.7943164 0.1029279
vn 0.5987214 0.7943164 0.1029279
vn 0.5987215 0.7943164 0.1029279
vn 0.8270011 0.4438559 0.3450523
vn 0.8270011 0.4438558 0.3450523
vn 0.8270011 0.4438558 0.3450523
vn 0.8321696 0.4697627 0.2946469
vn 0.8321696 0.4697627 0.2946469
vn 0.8321696 0.4697627 0.2946469
vn 0.7714524 0.5736036 0.2753905
vn 0.7714525 0.5736036 0.2753905
vn 0.7714524 0.5736036 0.2753905
vn 0.7519062 0.5071547 -0.4212258
vn 0.7519062 0.5071548 -0.4212258
vn 0.7519062 0.5071547 -0.4212258
vn 0.9089373 0.2260892 -0.3503094
vn 0.9089373 0.2260891 -0.3503093
vn 0.9089373 0.2260892 -0.3503094
vn 0.9364334 0.2401021 -0.2558189
vn 0.9364334 0.2401021 -0.255819
vn 0.9364334 0.2401021 -0.2558189
vn -0.9432398 -0.3309278 0.02802807
vn -0.9432398 -0.3309277 0.02802807
vn -0.9432398 -0.3309277 0.02802807
vn -0.9186114 -0.395011 -0.01092445
vn -0.9186114 -0.395011 -0.01092445
vn -0.9186114 -0.395011 -0.01092445
vn -0.2808549 -0.3616276 -0.8890141
vn -0.2808549 -0.3616277 -0.889014
vn -0.2808549 -0.3616277 -0.8890141
vn -0.3848878 -0.3047878 -0.8711863
vn -0.3848878 -0.3047878 -0.8711863
vn -0.3848878 -0.3047878 -0.8711864
vn 0.4837883 0.7438194 -0.4611742
vn 0.4837883 0.7438194 -0.4611742
vn 0.4837883 0.7438194 -0.4611742
vn 0.7927181 0.6074611 -0.05088158
vn 0.7927181 0.6074612 -0.05088158
vn 0.7927181 0.6074612 -0.05088158
vn 0.6401144 0.7655379 -0.06484726
vn 0.6401144 0.7655379 -0.06484726
vn 0.6401144 0.7655379 -0.06484726
vn 0.52399 0.8395047 -0.1437579
vn 0.5239901 0.8395046 -0.1437579
vn 0.52399 0.8395047 -0.1437579
vn 0.8023598 0.5590644 -0.2089637
vn 0.8023598 0.5590643 -0.2089637
vn 0.8023598 0.5590644 -0.2089638
vn 0.7011986 0.6484181 -0.2964364
vn 0.7011986 0.6484181 -0.2964364
vn 0.7011986 0.6484181 -0.2964364
vn 0.928602 0.3320754 0.165603
vn 0.928602 0.3320754 0.165603
vn 0.928602 0.3320753 0.165603
vn 0.9447312 0.3024928 0.1264158
vn 0.9447312 0.3024928 0.1264158
vn 0.9447312 0.3024929 0.1264158
vn 0.9005264 0.4049463 0.1583373
vn 0.9005264 0.4049463 0.1583374
vn 0.9005264 0.4049463 0.1583373
vn 0.9090242 0.4151202 0.03674608
vn 0.9090242 0.4151202 0.03674608
vn 0.9090242 0.4151202 0.03674608
vn -0.8918139 0.4466222 -0.0720859
vn -0.8918139 0.4466222 -0.0720859
vn -0.8918139 0.4466222 -0.0720859
vn -0.5827746 0.81089 -0.05320775
vn -0.5827746 0.81089 -0.05320775
vn -0.5827746 0.81089 -0.05320774
vn -0.9997398 -0.02251687 0.003624504
vn -0.9997398 -0.02251687 0.003624504
vn -0.9997398 -0.02251687 0.003624504
vn 0.9128995 -0.08164306 0.3999361
vn 0.9128995 -0.08164306 0.3999361
vn 0.9128995 -0.08164307 0.3999361
vn 0.9442449 0.1044647 0.312232
vn 0.9442449 0.1044647 0.312232
vn 0.9442449 0.1044647 0.312232
vn 0.808498 0.2828385 0.516075
vn 0.808498 0.2828385 0.516075
vn 0.808498 0.2828385 0.516075
vn 0.8715631 0.3401249 0.3531185
vn 0.8715631 0.3401249 0.3531185
vn 0.8715631 0.3401249 0.3531185
vn 0.9026632 0.3048328 0.3037699
vn 0.9026632 0.3048328 0.3037699
vn 0.9026632 0.3048328 0.3037699
vn -0.6276913 0.7008889 0.33876
vn -0.6276914 0.7008889 0.3387601
vn -0.6276913 0.7008889 0.33876
vn -0.713524 0.6210495 0.3243162
vn -0.713524 0.6210495 0.3243162
vn -0.713524 0.6210495 0.3243162
vn 0.7006196 0.6352185 0.3250071
vn 0.7006196 0.6352185 0.3250071
vn 0.7006196 0.6352184 0.3250071
vn 0.9908057 0.0989494 0.09226617
vn 0.9908057 0.09894939 0.09226616
vn 0.9908057 0.09894939 0.09226616
vn 0.9823778 0.1303627 0.1339382
vn 0.9823778 0.1303627 0.1339382
vn 0.9823778 0.1303627 0.1339382
vn 0.9823778 0.130363 0.1339379
vn -0.3387895 0.09420519 0.9361341
vn -0.3387895 0.0942052 0.9361341
vn -0.3387895 0.09420519 0.9361341
vn -0.3387907 0.09420433 0.9361337
vn 0.9641625 0.06562268 -0.2570688
vn 0.9641625 0.06562268 -0.2570688
vn 0.9641625 0.06562268 -0.2570688
vn 0.9652273 0.07169173 -0.2513895
vn -0.7195988 0.6860381 -0.1073744
vn -0.7195988 0.6860382 -0.1073744
vn -0.7195988 0.6860381 -0.1073744
vn -0.7195953 0.6860417 -0.1073755
vn -0.7425591 0.6623319 -0.09961205
vn -0.4059147 -0.3528725 -0.8430386
vn -0.4059147 -0.3528725 -0.8430386
vn -0.4059147 -0.3528725 -0.8430387
vn -0.4094809 -0.3581317 -0.839087
vn -0.3850503 -0.3562329 -0.8513721
vn 0.9430516 0.3253298 -0.06938484
vn 0.9430516 0.3253298 -0.06938484
vn 0.9384837 0.3260131 -0.1138592
vn 0.9430516 0.3253298 -0.06938484
vn 0.9424736 0.3285384 -0.06169248
vn -0.4746063 0.03171617 0.8796266
vn -0.4746063 0.03171617 0.8796266
vn -0.4746063 0.03171617 0.8796266
vn -0.452388 0.04320234 0.8907743
vn -0.009749179 -0.9557478 0.2940257
vn -0.009749179 -0.9557478 0.2940257
vn -0.009749179 -0.9557478 0.2940256
vn -0.03760548 -0.9560494 0.2907839
vn 0.5540696 0.761845 -0.3355579
vn 0.5540696 0.761845 -0.3355579
vn 0.5540696 0.761845 -0.3355579
vn 0.5419245 0.7731283 -0.3295309
vn 0.1585841 -0.9366087 0.3124345
vn 0.1585839 -0.9366087 0.3124346
vn 0.1585838 -0.9366087 0.3124346
vn 0.1585838 -0.9366087 0.3124346
vn 0.158587 -0.9366083 0.3124343
vn 0.1585851 -0.9366086 0.3124343
vn 0.9922249 0.09806208 -0.07663929
vn 0.9922249 0.09806208 -0.07663929
vn 0.9922249 0.09806209 -0.07663929
vn 0.9914566 0.1147471 -0.06202397
g baseball_Explode_Thin_02_Hull_0
f 3/3/3 2/2/2 1/1/1
f 6/6/6 5/5/5 4/4/4
f 9/9/9 8/8/8 7/7/7
f 12/12/12 11/11/11 10/10/10
f 15/15/15 14/14/14 13/13/13
f 18/18/18 17/17/17 16/16/16
f 21/21/21 20/20/20 19/19/19
f 24/24/24 23/23/23 22/22/22
f 27/27/27 26/26/26 25/25/25
f 30/30/30 29/29/29 28/28/28
f 33/33/33 32/32/32 31/31/31
f 36/36/36 35/35/35 34/34/34
f 39/39/39 38/38/38 37/37/37
f 42/42/42 41/41/41 40/40/40
f 45/45/45 44/44/44 43/43/43
f 48/48/48 47/47/47 46/46/46
f 51/51/51 50/50/50 49/49/49
f 54/54/54 53/53/53 52/52/52
f 57/57/57 56/56/56 55/55/55
f 60/60/60 59/59/59 58/58/58
f 63/63/63 62/62/62 61/61/61
f 66/66/66 65/65/65 64/64/64
f 69/69/69 68/68/68 67/67/67
f 72/72/72 71/71/71 70/70/70
f 75/75/75 74/74/74 73/73/73
f 78/78/78 77/77/77 76/76/76
f 81/81/81 80/80/80 79/79/79
f 84/84/84 83/83/83 82/82/82
f 87/87/87 86/86/86 85/85/85
f 90/90/90 89/89/89 88/88/88
f 93/93/93 92/92/92 91/91/91
f 96/96/96 95/95/95 94/94/94
f 99/99/99 98/98/98 97/97/97
f 102/102/102 101/101/101 100/100/100
f 102/102/102 100/100/100 103/103/103
f 106/106/106 105/105/105 104/104/104
f 106/106/106 104/104/104 107/107/107
f 110/110/110 109/109/109 108/108/108
f 108/108/108 109/109/109 111/111/111
f 114/114/114 113/113/113 112/112/112
f 114/114/114 112/112/112 115/115/115
f 114/114/114 115/115/115 116/116/116
f 119/119/119 118/118/118 117/117/117
f 119/119/119 117/117/117 120/120/120
f 117/117/117 121/121/121 120/120/120
f 124/124/124 123/123/123 122/122/122
f 123/123/123 125/125/125 122/122/122
f 125/125/125 123/123/123 126/126/126
f 129/129/129 128/128/128 127/127/127
f 128/128/128 129/129/129 130/130/130
f 133/133/133 132/132/132 131/131/131
f 132/132/132 134/134/134 131/131/131
f 137/137/137 136/136/136 135/135/135
f 136/136/136 138/138/138 135/135/135
f 141/141/141 140/140/140 139/139/139
f 141/141/141 142/142/142 140/140/140
f 140/140/140 142/142/142 143/143/143
f 140/140/140 143/143/143 144/144/144
f 147/147/147 146/146/146 145/145/145
f 146/146/146 148/148/148 145/145/145
