g baseball_Explode_Thin_09
v 0.1739621 0.07929242 -0.001758806
v 0.1776757 0.088722 -0.0002868938
v 0.1727085 0.0804864 -0.003025749
v 0.1807574 0.07773086 0.01954407
v 0.1816721 0.06191276 0.04848856
v 0.178027 0.06438053 0.05152321
v 0.1802044 0.08484589 0.006050396
v 0.1532041 0.07664143 0.07045872
v 0.1776757 0.088722 -0.0002868938
v 0.1794709 0.0875943 -0.0009031963
v 0.1796856 0.08733379 0.0002421856
v 0.1802044 0.08484589 0.006050396
v 0.1532041 0.07664143 0.07045872
v 0.1463749 0.07888824 0.07523929
v 0.1503997 0.1024628 0.006111288
v 0.1309183 0.08233692 0.08543615
v 0.1446172 0.1048328 0.006993084
v 0.1105376 0.09345451 0.08103491
v 0.1097244 0.0820388 0.09750377
v 0.1150095 0.1130544 0.008087912
v 0.1008618 0.08125995 0.1023009
v 0.07594551 0.108485 0.07008199
v 0.07178093 0.07741146 0.1175498
v 0.1045127 0.1164247 0.008874187
v 0.0506559 0.08032223 0.1307996
v 0.05277 0.1393655 0.01827986
v 0.02619324 0.08292934 0.1458522
v 0.02763023 0.1470912 0.0321475
v 0.02921425 0.14886 0.02173219
v -0.05536369 0.1713809 0.0283955
v -0.05062149 0.1708601 0.02453666
v -0.05526962 0.1722466 0.02479225
v -0.1326938 0.1814118 0.01687527
v -0.1477252 0.1790916 0.0322304
v -0.05862114 0.1362534 0.1097323
v -0.1477248 0.1442699 0.1106157
v -0.147725 0.1833271 0.01545704
v 0.01971146 0.125797 0.0881208
v 0.002928543 0.08150981 0.158683
v -0.05962295 0.0774469 0.1930874
v -0.06320457 0.07657429 0.1948138
v -0.1627303 0.1812963 0.01698204
v -0.163439 0.182584 0.01157494
v -0.1608069 0.1780598 0.03170896
v -0.1593651 0.1737837 0.04236986
v -0.1500759 0.1441062 0.110619
v -0.1497845 0.1426253 0.1126469
v -0.1477248 0.132619 0.1270787
v -0.1371219 0.07928962 0.2009972
v -0.07132027 0.07458729 0.1987216
v -0.1333681 0.05007564 0.2250504
v 0.174666 0.05556053 0.0452385
v 0.1745651 0.07068676 0.01607466
v 0.1715553 0.05755769 0.04812231
v 0.1751169 0.07683493 0.002897265
v 0.1480526 0.0686797 0.06728499
v 0.1739621 0.07929242 -0.001758806
v 0.1727085 0.0804864 -0.003025749
v 0.1745805 0.07905579 -0.002084249
v 0.1751169 0.07683493 0.002897265
v 0.1480526 0.0686797 0.06728499
v 0.1420803 0.07042006 0.07210137
v 0.1459469 0.09407055 0.002990038
v 0.1271454 0.07390465 0.08160704
v 0.1410861 0.09596689 0.004005335
v 0.1076051 0.084907 0.07675235
v 0.1121147 0.1038564 0.005439062
v 0.1071371 0.07416032 0.09191491
v 0.1009633 0.1075091 0.006061072
v 0.07246944 0.1000297 0.06602935
v 0.04849352 0.1308392 0.01527731
v 0.09893191 0.0731527 0.09677391
v 0.06830762 0.06970818 0.1122023
v 0.04659092 0.07279813 0.1256166
v 0.02303438 0.07514545 0.1404271
v 0.02433419 0.1381204 0.02920449
v 0.02584711 0.1396747 0.01966022
v -0.05712276 0.1620295 0.02532037
v -0.05333752 0.1614611 0.02246744
v -0.05715275 0.1627085 0.02245159
v -0.1336268 0.1717427 0.0145009
v -0.1477597 0.1696175 0.02903062
v -0.06026297 0.1277007 0.1048175
v -0.1478125 0.1355799 0.1056684
v -0.1475861 0.1736324 0.013009
v 0.01657186 0.1174966 0.08351146
v 0.0003492364 0.07362149 0.1531044
v -0.06104117 0.06936635 0.1873696
v -0.06399016 0.0684346 0.189058
v -0.1617146 0.1716408 0.01458649
v -0.1623816 0.1729426 0.009140423
v -0.1599385 0.1685501 0.02874078
v -0.1586626 0.1646375 0.03838845
v -0.1494802 0.1354522 0.1056437
v -0.1490333 0.1345165 0.1068432
v -0.1484461 0.1244776 0.121317
v -0.1378818 0.07188976 0.1943141
v -0.07209443 0.06671416 0.1926049
v -0.1340898 0.0436809 0.2173962
v 0.1420803 0.07042006 0.07210137
v 0.1532041 0.07664143 0.07045872
v 0.1480526 0.0686797 0.06728499
v 0.1463749 0.07888824 0.07523929
v 0.1271454 0.07390465 0.08160704
v 0.1309183 0.08233692 0.08543615
v 0.1071371 0.07416032 0.09191491
v 0.1097244 0.0820388 0.09750377
v 0.09893191 0.0731527 0.09677391
v 0.1008618 0.08125995 0.1023009
v 0.06830762 0.06970818 0.1122023
v 0.07178093 0.07741146 0.1175498
v 0.04659092 0.07279813 0.1256166
v 0.0506559 0.08032223 0.1307996
v 0.02303438 0.07514545 0.1404271
v 0.02619324 0.08292934 0.1458522
v 0.0003492364 0.07362149 0.1531044
v 0.002928543 0.08150981 0.158683
v -0.06104117 0.06936635 0.1873696
v -0.05962295 0.0774469 0.1930874
v -0.06399016 0.0684346 0.189058
v -0.06320457 0.07657429 0.1948138
v -0.07209443 0.06671416 0.1926049
v -0.07132027 0.07458729 0.1987216
v -0.1340898 0.0436809 0.2173962
v -0.1333681 0.05007564 0.2250504
v 0.1796856 0.08733379 0.0002421856
v 0.1751169 0.07683493 0.002897265
v 0.1802044 0.08484589 0.006050396
v 0.1745805 0.07905579 -0.002084249
v 0.1794709 0.0875943 -0.0009031963
v 0.1715553 0.05755769 0.04812231
v 0.1816721 0.06191276 0.04848856
v 0.174666 0.05556053 0.0452385
v 0.178027 0.06438053 0.05152321
v 0.1480526 0.0686797 0.06728499
v 0.1532041 0.07664143 0.07045872
v 0.1807574 0.07773086 0.01954407
v 0.174666 0.05556053 0.0452385
v 0.1816721 0.06191276 0.04848856
v 0.1745651 0.07068676 0.01607466
v 0.1802044 0.08484589 0.006050396
v 0.1751169 0.07683493 0.002897265
v 0.1745805 0.07905579 -0.002084249
v 0.1794709 0.0875943 -0.0009031963
v 0.1739621 0.07929242 -0.001758806
v 0.1776757 0.088722 -0.0002868938
v 0.1503997 0.1024628 0.006111288
v 0.1727085 0.0804864 -0.003025749
v 0.1459469 0.09407055 0.002990038
v 0.1446172 0.1048328 0.006993084
v 0.1410861 0.09596689 0.004005335
v 0.1150095 0.1130544 0.008087912
v 0.1121147 0.1038564 0.005439062
v 0.1045127 0.1164247 0.008874187
v 0.1009633 0.1075091 0.006061072
v 0.05277 0.1393655 0.01827986
v 0.04849352 0.1308392 0.01527731
v 0.02921425 0.14886 0.02173219
v 0.02584711 0.1396747 0.01966022
v -0.05062149 0.1708601 0.02453666
v -0.05333752 0.1614611 0.02246744
v -0.05526962 0.1722466 0.02479225
v -0.05715275 0.1627085 0.02245159
v -0.1326938 0.1814118 0.01687527
v -0.1336268 0.1717427 0.0145009
v -0.147725 0.1833271 0.01545704
v -0.1475861 0.1736324 0.013009
v -0.163439 0.182584 0.01157494
v -0.1623816 0.1729426 0.009140423
v -0.1627303 0.1812963 0.01698204
v -0.1623816 0.1729426 0.009140423
v -0.163439 0.182584 0.01157494
v -0.1617146 0.1716408 0.01458649
v -0.1608069 0.1780598 0.03170896
v -0.1599385 0.1685501 0.02874078
v -0.1593651 0.1737837 0.04236986
v -0.1586626 0.1646375 0.03838845
v -0.1500759 0.1441062 0.110619
v -0.1494802 0.1354522 0.1056437
v -0.1497845 0.1426253 0.1126469
v -0.1490333 0.1345165 0.1068432
v -0.1477248 0.132619 0.1270787
v -0.1484461 0.1244776 0.121317
v -0.1371219 0.07928962 0.2009972
v -0.1378818 0.07188976 0.1943141
v -0.1333681 0.05007564 0.2250504
v -0.1340898 0.0436809 0.2173962
vt 0.03963083 0.6973503
vt 0.0406491 0.6976413
vt 0.0406491 0.6976413
vt 0.4599677 0.00966241
vt 0.4736667 0.01925757
vt 0.4757168 0.01767782
vt 0.4536981 0.005261916
vt 0.4901557 0.00856455
vt 0.0406491 0.6976413
vt 0.03963083 0.6973503
vt 0.03949822 0.6979628
vt 0.03913862 0.7012186
vt 0.05381018 0.7369082
vt 0.05764802 0.7394961
vt 0.0561176 0.7008749
vt 0.06562428 0.7442464
vt 0.05912575 0.7010026
vt 0.07628822 0.7404732
vt 0.07664413 0.7508759
vt 0.07410404 0.7016724
vt 0.0810191 0.753253
vt 0.09366571 0.7334396
vt 0.09549766 0.7621642
vt 0.07937369 0.7017328
vt 0.1066576 0.7669147
vt 0.1067204 0.7044756
vt 0.1195192 0.7736328
vt 0.1198732 0.7108199
vt 0.1191121 0.7058018
vt 0.160874 0.7068334
vt 0.1585396 0.7050826
vt 0.1608533 0.7051569
vt 0.1980771 0.7008526
vt 0.2051892 0.7078801
vt 0.1620205 0.7470701
vt 0.2051324 0.7461896
vt 0.2052034 0.700156
vt 0.1233433 0.7391516
vt 0.1309391 0.77977
vt 0.1623814 0.7939708
vt 0.1641119 0.7948871
vt 0.2123173 0.7009132
vt 0.2126579 0.6984259
vt 0.211463 0.7077412
vt 0.2107968 0.712953
vt 0.2062665 0.7462149
vt 0.2061313 0.7473699
vt 0.2051271 0.7553251
vt 0.199961 0.7965913
vt 0.1680469 0.796866
vt 0.1981373 0.8139132
vt 0.4736667 0.01925757
vt 0.4599677 0.00966241
vt 0.4757168 0.01767782
vt 0.4536981 0.005261916
vt 0.4901557 0.00856455
vt 0.03963083 0.6973503
vt 0.0406491 0.6976413
vt 0.03949822 0.6979628
vt 0.03913862 0.7012186
vt 0.05381018 0.7369082
vt 0.05764802 0.7394961
vt 0.0561176 0.7008749
vt 0.06562428 0.7442464
vt 0.05912575 0.7010026
vt 0.07628822 0.7404732
vt 0.07410404 0.7016724
vt 0.07664413 0.7508759
vt 0.07937369 0.7017328
vt 0.09366571 0.7334396
vt 0.1067204 0.7044756
vt 0.0810191 0.753253
vt 0.09549766 0.7621642
vt 0.1066576 0.7669147
vt 0.1195192 0.7736328
vt 0.1198732 0.7108199
vt 0.1191121 0.7058018
vt 0.160874 0.7068334
vt 0.1585396 0.7050826
vt 0.1608533 0.7051569
vt 0.1980771 0.7008526
vt 0.2051892 0.7078801
vt 0.1620205 0.7470701
vt 0.2051324 0.7461896
vt 0.2052034 0.700156
vt 0.1233433 0.7391516
vt 0.1309391 0.77977
vt 0.1623814 0.7939708
vt 0.1641119 0.7948871
vt 0.2123173 0.7009132
vt 0.2126579 0.6984259
vt 0.211463 0.7077412
vt 0.2107968 0.712953
vt 0.2062665 0.7462149
vt 0.2061313 0.7473699
vt 0.2051271 0.7553251
vt 0.199961 0.7965913
vt 0.1680469 0.796866
vt 0.1981373 0.8139132
vt 0.05764802 0.7394961
vt 0.05381018 0.7369082
vt 0.05381018 0.7369082
vt 0.05764802 0.7394961
vt 0.06562428 0.7442464
vt 0.06562428 0.7442464
vt 0.07664413 0.7508759
vt 0.07664413 0.7508759
vt 0.0810191 0.753253
vt 0.0810191 0.753253
vt 0.09549766 0.7621642
vt 0.09549766 0.7621642
vt 0.1066576 0.7669147
vt 0.1066576 0.7669147
vt 0.1195192 0.7736328
vt 0.1195192 0.7736328
vt 0.1309391 0.77977
vt 0.1309391 0.77977
vt 0.1623814 0.7939708
vt 0.1623814 0.7939708
vt 0.1641119 0.7948871
vt 0.1641119 0.7948871
vt 0.1680469 0.796866
vt 0.1680469 0.796866
vt 0.1981373 0.8139132
vt 0.1981373 0.8139132
vt 0.03949822 0.6979628
vt 0.03913862 0.7012186
vt 0.03913862 0.7012186
vt 0.03949822 0.6979628
vt 0.03963083 0.6973503
vt 0.4757168 0.01767782
vt 0.4736667 0.01925757
vt 0.4736667 0.01925757
vt 0.4757168 0.01767782
vt 0.4901557 0.00856455
vt 0.4901557 0.00856455
vt 0.4599677 0.00966241
vt 0.4736667 0.01925757
vt 0.4736667 0.01925757
vt 0.4599677 0.00966241
vt 0.4536981 0.005261916
vt 0.4536981 0.005261916
vt 0.03949822 0.6979628
vt 0.03963083 0.6973503
vt 0.03963083 0.6973503
vt 0.0406491 0.6976413
vt 0.0561176 0.7008749
vt 0.0406491 0.6976413
vt 0.0561176 0.7008749
vt 0.05912575 0.7010026
vt 0.05912575 0.7010026
vt 0.07410404 0.7016724
vt 0.07410404 0.7016724
vt 0.07937369 0.7017328
vt 0.07937369 0.7017328
vt 0.1067204 0.7044756
vt 0.1067204 0.7044756
vt 0.1191121 0.7058018
vt 0.1191121 0.7058018
vt 0.1585396 0.7050826
vt 0.1585396 0.7050826
vt 0.1608533 0.7051569
vt 0.1608533 0.7051569
vt 0.1980771 0.7008526
vt 0.1980771 0.7008526
vt 0.2052034 0.700156
vt 0.2052034 0.700156
vt 0.2126579 0.6984259
vt 0.2126579 0.6984259
vt 0.2123173 0.7009132
vt 0.2126579 0.6984259
vt 0.2126579 0.6984259
vt 0.2123173 0.7009132
vt 0.211463 0.7077412
vt 0.211463 0.7077412
vt 0.2107968 0.712953
vt 0.2107968 0.712953
vt 0.2062665 0.7462149
vt 0.2062665 0.7462149
vt 0.2061313 0.7473699
vt 0.2061313 0.7473699
vt 0.2051271 0.7553251
vt 0.2051271 0.7553251
vt 0.199961 0.7965913
vt 0.199961 0.7965913
vt 0.1981373 0.8139132
vt 0.1981373 0.8139132
vn 0.6388066 -0.1332986 -0.757732
vn 0.6388066 -0.1332986 -0.757732
vn 0.6388065 -0.1332986 -0.757732
vn 0.6192237 0.7044109 0.3469403
vn 0.7006153 0.6352239 0.3250061
vn 0.6471685 0.6822841 0.3400902
vn 0.5087469 0.8010957 0.315313
vn 0.5151541 0.7961727 0.3173726
vn 0.4967248 0.8235601 0.2738856
vn 0.5508785 0.830188 0.08556093
vn 0.510512 0.827801 0.2326434
vn 0.5087469 0.8010957 0.315313
vn 0.5151541 0.7961727 0.3173726
vn 0.4294562 0.8468185 0.3137926
vn 0.4452842 0.8392258 0.312125
vn 0.3772887 0.8432276 0.3829105
vn 0.3531151 0.8865908 0.2987748
vn 0.2932512 0.854752 0.4282556
vn 0.2587327 0.7878473 0.5588862
vn 0.2894838 0.9198017 0.264885
vn 0.1929905 0.8107257 0.5527011
vn 0.3476072 0.8455353 0.4052645
vn 0.347331 0.7703282 0.5347483
vn 0.3549439 0.8915597 0.2813115
vn 0.4064978 0.7524103 0.5183033
vn 0.4276488 0.8526216 0.3002549
vn 0.3158857 0.7783899 0.5425176
vn 0.3296039 0.8970774 0.2943013
vn 0.3367133 0.918528 0.2071964
vn 0.1759069 0.9351431 0.307513
vn 0.271603 0.9399018 0.2069212
vn 0.1883127 0.9538089 0.2340659
vn 0.09329963 0.9669122 0.2374366
vn 0.003445513 0.947419 0.3199772
vn 0.1641838 0.8552724 0.4914803
vn 0.008766034 0.8690004 0.4947338
vn -0.01389312 0.9694729 0.2448043
vn 0.31396 0.8300415 0.4609342
vn 0.2579307 0.7888324 0.5578666
vn 0.1418219 0.8080544 0.5717821
vn 0.07855912 0.8139679 0.5755733
vn -0.1015706 0.9655553 0.2395546
vn -0.1057415 0.9641318 0.2434513
vn -0.0868382 0.9509774 0.2968184
vn -0.07025891 0.9146296 0.3981411
vn -0.05957319 0.865397 0.4975331
vn -0.07512894 0.8108844 0.5803638
vn 0.07213012 0.8141409 0.5761701
vn 0.07599322 0.7399867 0.6683148
vn 0.07741641 0.7873127 0.6116742
vn 0.07216838 0.6394747 0.7654174
vn -0.7053846 -0.6302192 -0.3244325
vn -0.6976715 -0.6375786 -0.3267231
vn -0.6495852 -0.679572 -0.3409119
vn -0.5066169 -0.8025129 -0.3151387
vn -0.5152893 -0.7961124 -0.3173042
vn 0.4763405 0.8244393 0.3056135
vn -0.4819798 -0.8194605 -0.3101288
vn -0.4663946 -0.8232616 -0.3235995
vn -0.5066169 -0.8025129 -0.3151387
vn -0.5152893 -0.7961124 -0.3173042
vn -0.4295346 -0.8467147 -0.3139654
vn -0.4462986 -0.8387521 -0.3119495
vn -0.3780898 -0.8425235 -0.3836694
vn -0.3545556 -0.8861133 -0.2984852
vn -0.293605 -0.8542276 -0.4290586
vn -0.2891592 -0.92048 -0.2628756
vn -0.2598324 -0.7840359 -0.5637152
vn -0.3551793 -0.8919474 -0.2797809
vn -0.3484664 -0.8447983 -0.4060628
vn -0.4282249 -0.8527694 -0.2990114
vn -0.1964241 -0.8076851 -0.5559338
vn -0.3474736 -0.7691182 -0.5363946
vn -0.4081549 -0.7502514 -0.5201273
vn -0.3158947 -0.7776259 -0.5436069
vn -0.3298328 -0.8975523 -0.2925922
vn -0.3371347 -0.919345 -0.2028417
vn -0.1794551 -0.9367053 -0.300631
vn -0.2745524 -0.9453416 -0.175927
vn -0.1903997 -0.9557571 -0.2242234
vn -0.09471403 -0.9676957 -0.2336545
vn -0.001686358 -0.9478424 -0.3187352
vn -0.1642324 -0.8550901 -0.4917809
vn 0.003750439 -0.8657234 -0.5005087
vn 0.01382338 -0.9698567 -0.2432837
vn -0.3139688 -0.8300367 -0.4609368
vn -0.258325 -0.7882358 -0.558527
vn -0.1362451 -0.8084564 -0.5725693
vn -0.07690773 -0.8139279 -0.5758528
vn 0.1050341 -0.9654335 -0.2385497
vn 0.1086458 -0.9637503 -0.243683
vn 0.09037399 -0.9499971 -0.2988948
vn 0.07510611 -0.9139066 -0.3989158
vn 0.07322533 -0.8579363 -0.5085109
vn 0.1335059 -0.7998123 -0.5852149
vn -0.04352729 -0.8139793 -0.5792607
vn -0.0753333 -0.73994 -0.6684412
vn -0.07786782 -0.7881686 -0.6105136
vn -0.07007767 -0.6373416 -0.7673883
vn 0.3953023 -0.5062301 0.7664641
vn 0.3687509 -0.5226064 0.7687037
vn 0.3716162 -0.552406 0.746156
vn 0.3869707 -0.4918786 0.7799417
vn 0.3863963 -0.514234 0.7656769
vn 0.3883644 -0.5323678 0.7521685
vn 0.4267429 -0.6012222 0.6755903
vn 0.4201035 -0.6036615 0.6775735
vn 0.4307553 -0.585548 0.6867193
vn 0.423324 -0.5825779 0.6938298
vn 0.3795907 -0.6312169 0.6763698
vn 0.3815792 -0.6388138 0.6680675
vn 0.3464664 -0.6499408 0.6764156
vn 0.3466841 -0.6490749 0.6771351
vn 0.3846392 -0.6304464 0.6742328
vn 0.3852916 -0.6259103 0.6780757
vn 0.4139799 -0.6137325 0.6722746
vn 0.4141189 -0.6101986 0.6753985
vn 0.4814827 -0.5626901 0.6719779
vn 0.4548147 -0.5568008 0.6950657
vn 0.4769279 -0.5480872 0.6871247
vn 0.4589314 -0.5503263 0.697512
vn 0.4634541 -0.5637254 0.6836841
vn 0.4730767 -0.575403 0.6671655
vn 0.4954889 -0.6789976 0.541713
vn 0.4963399 -0.6886731 0.5285603
vn 0.853815 -0.446399 -0.2678205
vn 0.857751 -0.4587034 -0.2320659
vn 0.8465892 -0.4693926 -0.2509126
vn 0.8492975 -0.44313 -0.2869312
vn 0.8525156 -0.4519558 -0.2625889
vn 0.2666474 -0.632417 0.727288
vn 0.236914 -0.6136917 0.7531629
vn 0.2522781 -0.6465868 0.7199176
vn 0.2645495 -0.6070141 0.7493647
vn 0.3716162 -0.552406 0.746156
vn 0.3687509 -0.5226064 0.7687037
vn 0.7784477 -0.5474036 -0.3071945
vn 0.7272196 -0.5954787 -0.3414042
vn 0.7130007 -0.6055509 -0.3534659
vn 0.8002588 -0.531585 -0.2774948
vn 0.8465892 -0.4693926 -0.2509126
vn 0.857751 -0.4587034 -0.2320659
vn -0.3430668 0.3187096 -0.8835889
vn -0.195141 0.227804 -0.9539525
vn -0.3231158 0.306677 -0.8952906
vn -0.1137819 0.2876252 -0.9509603
vn -0.01549993 0.3527676 -0.9355825
vn -0.04398483 0.3451389 -0.9375204
vn -0.03348219 0.3523619 -0.9352647
vn 0.01392419 0.3245715 -0.9457587
vn -0.008687575 0.3184521 -0.9478992
vn 0.02281153 0.2740071 -0.9614571
vn 0.02634326 0.2739564 -0.9613813
vn -0.002700345 0.2967916 -0.9549384
vn 0.004790449 0.3010145 -0.9536076
vn -0.01024815 0.334853 -0.9422147
vn -0.01920109 0.3265458 -0.9449863
vn -0.02220607 0.2419721 -0.970029
vn -0.03231706 0.2310645 -0.9724016
vn 0.01619806 0.2106339 -0.9774308
vn 0.0399324 0.2144112 -0.9759269
vn 0.07553361 0.2144586 -0.9738081
vn 0.1006895 0.2187946 -0.970562
vn 0.1233888 0.2249219 -0.9665326
vn 0.1264036 0.2288174 -0.9652278
vn 0.1762656 0.2396566 -0.9547225
vn 0.1805475 0.2468409 -0.9520884
vn 0.2287473 0.2545779 -0.9396089
vn 0.2326749 0.2620166 -0.9365947
vn -0.9866955 -0.1297324 0.09798676
vn -0.9873381 -0.1285112 0.09299614
vn -0.9863174 -0.1328302 0.09764261
vn -0.98745 -0.1260908 0.09509771
vn -0.9883569 -0.1206097 0.09275741
vn -0.9887596 -0.1180457 0.09175863
vn -0.9897565 -0.1142048 0.08566961
vn -0.9898976 -0.1133055 0.08523238
vn -0.990974 -0.1111336 0.07496543
vn -0.9787092 -0.1614379 0.1267517
vn -0.9902768 -0.1231726 0.06465631
vn -0.9817876 -0.1468146 0.1205758
vn -0.9949367 -0.01204144 0.09978007
vn -0.9946718 0.0156068 0.101904
vn -0.9910768 -0.01712911 0.1321861
vn -0.9911849 -0.01868061 0.1311618
vn -0.9918476 -0.03111404 0.1235722
vn -0.99199 -0.03374643 0.1217249
g baseball_Explode_Thin_09_0
f 3/3/3 2/2/2 1/1/1
f 6/6/6 5/5/5 4/4/4
f 4/4/4 7/7/7 6/6/6
f 8/8/8 6/6/6 7/7/7
f 11/11/11 10/10/10 9/9/9
f 12/12/12 11/11/11 9/9/9
f 13/13/13 12/12/12 9/9/9
f 14/14/14 13/13/13 9/9/9
f 15/15/15 14/14/14 9/9/9
f 14/14/14 15/15/15 16/16/16
f 15/15/15 17/17/17 16/16/16
f 17/17/17 18/18/18 16/16/16
f 18/18/18 19/19/19 16/16/16
f 18/18/18 17/17/17 20/20/20
f 21/21/21 19/19/19 18/18/18
f 18/18/18 22/22/22 21/21/21
f 23/23/23 21/21/21 22/22/22
f 20/20/20 24/24/24 18/18/18
f 22/22/22 18/18/18 24/24/24
f 22/22/22 25/25/25 23/23/23
f 24/24/24 26/26/26 22/22/22
f 25/25/25 22/22/22 27/27/27
f 28/28/28 22/22/22 26/26/26
f 26/26/26 29/29/29 28/28/28
f 28/28/28 29/29/29 30/30/30
f 31/31/31 30/30/30 29/29/29
f 31/31/31 32/32/32 30/30/30
f 32/32/32 33/33/33 30/30/30
f 34/34/34 30/30/30 33/33/33
f 30/30/30 34/34/34 35/35/35
f 35/35/35 34/34/34 36/36/36
f 33/33/33 37/37/37 34/34/34
f 22/22/22 28/28/28 38/38/38
f 38/38/38 28/28/28 30/30/30
f 38/38/38 27/27/27 22/22/22
f 30/30/30 35/35/35 38/38/38
f 38/38/38 35/35/35 27/27/27
f 39/39/39 27/27/27 35/35/35
f 35/35/35 40/40/40 39/39/39
f 40/40/40 35/35/35 41/41/41
f 36/36/36 41/41/41 35/35/35
f 34/34/34 37/37/37 42/42/42
f 43/43/43 42/42/42 37/37/37
f 34/34/34 42/42/42 44/44/44
f 34/34/34 44/44/44 45/45/45
f 34/34/34 45/45/45 36/36/36
f 46/46/46 36/36/36 45/45/45
f 36/36/36 46/46/46 47/47/47
f 36/36/36 47/47/47 48/48/48
f 36/36/36 48/48/48 49/49/49
f 41/41/41 36/36/36 49/49/49
f 50/50/50 41/41/41 49/49/49
f 49/49/49 51/51/51 50/50/50
f 54/54/54 53/53/53 52/52/52
f 53/53/53 54/54/54 55/55/55
f 56/56/56 55/55/55 54/54/54
f 59/59/59 58/58/58 57/57/57
f 60/60/60 58/58/58 59/59/59
f 61/61/61 58/58/58 60/60/60
f 62/62/62 58/58/58 61/61/61
f 63/63/63 58/58/58 62/62/62
f 62/62/62 64/64/64 63/63/63
f 63/63/63 64/64/64 65/65/65
f 65/65/65 64/64/64 66/66/66
f 66/66/66 67/67/67 65/65/65
f 66/66/66 64/64/64 68/68/68
f 67/67/67 66/66/66 69/69/69
f 70/70/70 69/69/69 66/66/66
f 69/69/69 70/70/70 71/71/71
f 72/72/72 66/66/66 68/68/68
f 66/66/66 72/72/72 70/70/70
f 73/73/73 70/70/70 72/72/72
f 70/70/70 73/73/73 74/74/74
f 74/74/74 75/75/75 70/70/70
f 76/76/76 71/71/71 70/70/70
f 71/71/71 76/76/76 77/77/77
f 76/76/76 78/78/78 77/77/77
f 79/79/79 77/77/77 78/78/78
f 79/79/79 78/78/78 80/80/80
f 80/80/80 78/78/78 81/81/81
f 82/82/82 81/81/81 78/78/78
f 78/78/78 83/83/83 82/82/82
f 83/83/83 84/84/84 82/82/82
f 81/81/81 82/82/82 85/85/85
f 70/70/70 86/86/86 76/76/76
f 86/86/86 78/78/78 76/76/76
f 86/86/86 70/70/70 75/75/75
f 78/78/78 86/86/86 83/83/83
f 86/86/86 75/75/75 83/83/83
f 87/87/87 83/83/83 75/75/75
f 83/83/83 87/87/87 88/88/88
f 88/88/88 89/89/89 83/83/83
f 84/84/84 83/83/83 89/89/89
f 82/82/82 90/90/90 85/85/85
f 91/91/91 85/85/85 90/90/90
f 82/82/82 92/92/92 90/90/90
f 82/82/82 93/93/93 92/92/92
f 82/82/82 84/84/84 93/93/93
f 94/94/94 93/93/93 84/84/84
f 84/84/84 95/95/95 94/94/94
f 84/84/84 96/96/96 95/95/95
f 84/84/84 97/97/97 96/96/96
f 89/89/89 97/97/97 84/84/84
f 98/98/98 97/97/97 89/89/89
f 97/97/97 98/98/98 99/99/99
f 102/102/102 101/101/101 100/100/100
f 103/103/103 100/100/100 101/101/101
f 100/100/100 103/103/103 104/104/104
f 105/105/105 104/104/104 103/103/103
f 104/104/104 105/105/105 106/106/106
f 107/107/107 106/106/106 105/105/105
f 106/106/106 107/107/107 108/108/108
f 109/109/109 108/108/108 107/107/107
f 108/108/108 109/109/109 110/110/110
f 111/111/111 110/110/110 109/109/109
f 110/110/110 111/111/111 112/112/112
f 113/113/113 112/112/112 111/111/111
f 112/112/112 113/113/113 114/114/114
f 115/115/115 114/114/114 113/113/113
f 114/114/114 115/115/115 116/116/116
f 117/117/117 116/116/116 115/115/115
f 116/116/116 117/117/117 118/118/118
f 119/119/119 118/118/118 117/117/117
f 118/118/118 119/119/119 120/120/120
f 121/121/121 120/120/120 119/119/119
f 120/120/120 121/121/121 122/122/122
f 123/123/123 122/122/122 121/121/121
f 122/122/122 123/123/123 124/124/124
f 125/125/125 124/124/124 123/123/123
f 128/128/128 127/127/127 126/126/126
f 129/129/129 126/126/126 127/127/127
f 126/126/126 129/129/129 130/130/130
f 133/133/133 132/132/132 131/131/131
f 134/134/134 131/131/131 132/132/132
f 131/131/131 134/134/134 135/135/135
f 136/136/136 135/135/135 134/134/134
f 139/139/139 138/138/138 137/137/137
f 140/140/140 137/137/137 138/138/138
f 137/137/137 140/140/140 141/141/141
f 142/142/142 141/141/141 140/140/140
f 145/145/145 144/144/144 143/143/143
f 144/144/144 145/145/145 146/146/146
f 146/146/146 148/148/148 147/147/147
f 149/149/149 147/147/147 148/148/148
f 147/147/147 149/149/149 150/150/150
f 151/151/151 150/150/150 149/149/149
f 150/150/150 151/151/151 152/152/152
f 153/153/153 152/152/152 151/151/151
f 152/152/152 153/153/153 154/154/154
f 155/155/155 154/154/154 153/153/153
f 154/154/154 155/155/155 156/156/156
f 157/157/157 156/156/156 155/155/155
f 156/156/156 157/157/157 158/158/158
f 159/159/159 158/158/158 157/157/157
f 158/158/158 159/159/159 160/160/160
f 161/161/161 160/160/160 159/159/159
f 160/160/160 161/161/161 162/162/162
f 163/163/163 162/162/162 161/161/161
f 162/162/162 163/163/163 164/164/164
f 165/165/165 164/164/164 163/163/163
f 164/164/164 165/165/165 166/166/166
f 167/167/167 166/166/166 165/165/165
f 166/166/166 167/167/167 168/168/168
f 169/169/169 168/168/168 167/167/167
f 172/172/172 171/171/171 170/170/170
f 173/173/173 170/170/170 171/171/171
f 170/170/170 173/173/173 174/174/174
f 175/175/175 174/174/174 173/173/173
f 174/174/174 175/175/175 176/176/176
f 177/177/177 176/176/176 175/175/175
f 176/176/176 177/177/177 178/178/178
f 179/179/179 178/178/178 177/177/177
f 178/178/178 179/179/179 180/180/180
f 181/181/181 180/180/180 179/179/179
f 180/180/180 181/181/181 182/182/182
f 183/183/183 182/182/182 181/181/181
f 182/182/182 183/183/183 184/184/184
f 185/185/185 184/184/184 183/183/183
f 184/184/184 185/185/185 186/186/186
f 187/187/187 186/186/186 185/185/185
