g baseball_Explode_Thin_04
v -0.1990737 -0.1573929 -0.03285929
v -0.1778407 -0.1507961 -0.01346439
v -0.1790768 -0.1663286 -0.03454039
v -0.1715261 -0.1697943 -0.0351335
v -0.1498711 -0.1424668 0.01217543
v -0.137823 -0.1379016 0.02297182
v -0.1434695 -0.1790359 -0.03899063
v -0.100114 -0.1455241 0.04570856
v -0.1160348 -0.1364479 0.04422327
v -0.1351205 -0.1843461 -0.03897434
v -0.09637649 -0.128777 0.06178289
v -0.09013908 -0.2085915 -0.04087088
v -0.04880241 -0.1018308 0.1021501
v -0.01011642 -0.1612743 0.06322477
v -0.003748932 -0.07171604 0.1392119
v -0.07341705 -0.2152656 -0.04263964
v 0.007827606 -0.06218633 0.14828
v 0.07860397 -0.06438291 0.1528111
v 0.04742279 -0.0137657 0.1752784
v 0.07860397 0.02557177 0.1962334
v 0.1001865 0.05715687 0.2096316
v -0.01116112 -0.2236579 -0.02540644
v -0.01222931 -0.2350119 -0.05123728
v 0.02828514 -0.2427747 -0.05934536
v 0.07860359 -0.2521515 -0.06953575
v 0.07860374 -0.231728 -0.02449074
v 0.1676992 -0.2237974 -0.02532524
v 0.1666122 -0.1612017 0.06315916
v 0.107614 -0.253041 -0.07746456
v 0.1502767 -0.253985 -0.08929022
v 0.167757 -0.2481778 -0.08019791
v 0.1696831 -0.2448643 -0.07318
v 0.1812843 -0.2220085 -0.0290576
v 0.1847802 -0.2087479 -0.01168657
v 0.1984232 -0.1556401 0.05697332
v 0.2025568 -0.1059034 0.09929041
v 0.2056832 -0.05705887 0.138475
v 0.07860382 -0.1678106 0.06649084
v 0.1594079 -0.06148571 0.1466057
v 0.2016188 0.02283606 0.1792244
v 0.1515221 0.05588738 0.2046224
v 0.1998845 0.05286178 0.1940124
v 0.1495269 0.1329119 0.2250678
v 0.1927317 0.1063318 0.2100097
v 0.1228156 0.1045817 0.2200473
v 0.1892556 0.1313961 0.2171948
v 0.1361299 0.1330882 0.2260225
v 0.168102 0.15694 0.2237185
v 0.1865643 0.1449137 0.2189927
v 0.1492287 0.1692592 0.2284673
v 0.148175 0.1699845 0.2286086
v -0.1748403 -0.1432018 -0.01923716
v -0.1961562 -0.1497756 -0.03864417
v -0.1760943 -0.1587293 -0.0403158
v -0.1690218 -0.1619517 -0.04080998
v -0.1478015 -0.1344353 0.006588759
v -0.1338585 -0.1304236 0.01764621
v -0.1399993 -0.1713711 -0.04439518
v -0.09664558 -0.1385141 0.03947717
v -0.1308479 -0.176927 -0.04414175
v -0.1115982 -0.1296145 0.03842479
v -0.08704916 -0.2007383 -0.04623546
v -0.09350869 -0.122484 0.05455973
v -0.07086153 -0.2071744 -0.04793135
v -0.04656688 -0.09551474 0.09472655
v -0.008508647 -0.1540007 0.05655323
v -0.002758154 -0.06531923 0.1315896
v 0.00852607 -0.05631193 0.1402176
v 0.0785428 -0.05895238 0.1444143
v 0.04804121 -0.009400692 0.1663027
v 0.07809044 0.02991319 0.1872396
v 0.09937464 0.06085289 0.2003753
v -0.009523628 -0.215111 -0.03033273
v -0.01069927 -0.2259885 -0.0552668
v 0.02915575 -0.2336962 -0.06344707
v 0.0784706 -0.2430447 -0.07366478
v 0.0786066 -0.2230385 -0.02943976
v 0.16608 -0.215257 -0.0302688
v 0.1649986 -0.1539441 0.05647159
v 0.1067436 -0.2439578 -0.08155595
v 0.1493571 -0.2448855 -0.09333417
v 0.1668374 -0.2390783 -0.08424184
v 0.1686447 -0.2357773 -0.07722337
v 0.1788547 -0.2135817 -0.03386236
v 0.1822912 -0.2008466 -0.01728795
v 0.1959048 -0.1484945 0.0504466
v 0.2005409 -0.09966126 0.09174238
v 0.2037271 -0.05172405 0.1302462
v 0.07859517 -0.1604393 0.05973333
v 0.1580365 -0.05611831 0.1382804
v 0.1998939 0.02712898 0.170359
v 0.1502159 0.05931095 0.195318
v 0.1980956 0.05642564 0.1848419
v 0.1482403 0.1345955 0.2152948
v 0.1909069 0.1088379 0.2005023
v 0.1219603 0.1070966 0.2104065
v 0.1874115 0.1332216 0.2075374
v 0.1354539 0.1348772 0.2162071
v 0.1662133 0.157851 0.2139408
v 0.1846625 0.1458351 0.2092185
v 0.1481672 0.1701765 0.2185662
v 0.1474793 0.1709078 0.2186756
v 0.1067436 -0.2439578 -0.08155595
v 0.1502767 -0.253985 -0.08929022
v 0.1493571 -0.2448855 -0.09333417
v 0.107614 -0.253041 -0.07746456
v 0.0784706 -0.2430447 -0.07366478
v 0.07860359 -0.2521515 -0.06953575
v 0.02915575 -0.2336962 -0.06344707
v 0.02828514 -0.2427747 -0.05934536
v -0.01069927 -0.2259885 -0.0552668
v -0.01222931 -0.2350119 -0.05123728
v -0.07086153 -0.2071744 -0.04793135
v -0.07341705 -0.2152656 -0.04263964
v -0.08704916 -0.2007383 -0.04623546
v -0.09013908 -0.2085915 -0.04087088
v -0.1308479 -0.176927 -0.04414175
v -0.1351205 -0.1843461 -0.03897434
v -0.1399993 -0.1713711 -0.04439518
v -0.1434695 -0.1790359 -0.03899063
v -0.1690218 -0.1619517 -0.04080998
v -0.1715261 -0.1697943 -0.0351335
v -0.1760943 -0.1587293 -0.0403158
v -0.1790768 -0.1663286 -0.03454039
v -0.1961562 -0.1497756 -0.03864417
v -0.1990737 -0.1573929 -0.03285929
v 0.167757 -0.2481778 -0.08019791
v 0.1493571 -0.2448855 -0.09333417
v 0.1502767 -0.253985 -0.08929022
v 0.1668374 -0.2390783 -0.08424184
v 0.1696831 -0.2448643 -0.07318
v 0.1686447 -0.2357773 -0.07722337
v 0.1812843 -0.2220085 -0.0290576
v 0.1788547 -0.2135817 -0.03386236
v 0.1847802 -0.2087479 -0.01168657
v 0.1822912 -0.2008466 -0.01728795
v 0.1984232 -0.1556401 0.05697332
v 0.1959048 -0.1484945 0.0504466
v 0.2025568 -0.1059034 0.09929041
v 0.2005409 -0.09966126 0.09174238
v 0.2056832 -0.05705887 0.138475
v 0.2037271 -0.05172405 0.1302462
v 0.2016188 0.02283606 0.1792244
v 0.1998939 0.02712898 0.170359
v 0.1998845 0.05286178 0.1940124
v 0.1980956 0.05642564 0.1848419
v 0.1927317 0.1063318 0.2100097
v 0.1909069 0.1088379 0.2005023
v 0.1892556 0.1313961 0.2171948
v 0.1874115 0.1332216 0.2075374
v 0.1865643 0.1449137 0.2189927
v 0.1846625 0.1458351 0.2092185
v 0.168102 0.15694 0.2237185
v 0.1662133 0.157851 0.2139408
v 0.1492287 0.1692592 0.2284673
v 0.1481672 0.1701765 0.2185662
v 0.148175 0.1699845 0.2286086
v 0.1474793 0.1709078 0.2186756
v -0.1748403 -0.1432018 -0.01923716
v -0.1990737 -0.1573929 -0.03285929
v -0.1961562 -0.1497756 -0.03864417
v -0.1778407 -0.1507961 -0.01346439
v -0.1478015 -0.1344353 0.006588759
v -0.1498711 -0.1424668 0.01217543
v -0.1338585 -0.1304236 0.01764621
v -0.137823 -0.1379016 0.02297182
v -0.1115982 -0.1296145 0.03842479
v -0.1160348 -0.1364479 0.04422327
v -0.09350869 -0.122484 0.05455973
v -0.09637649 -0.128777 0.06178289
v -0.04656688 -0.09551474 0.09472655
v -0.04880241 -0.1018308 0.1021501
v -0.002758154 -0.06531923 0.1315896
v -0.003748932 -0.07171604 0.1392119
v 0.00852607 -0.05631193 0.1402176
v 0.007827606 -0.06218633 0.14828
v 0.04804121 -0.009400692 0.1663027
v 0.04742279 -0.0137657 0.1752784
v 0.07809044 0.02991319 0.1872396
v 0.07860397 0.02557177 0.1962334
v 0.09937464 0.06085289 0.2003753
v 0.1001865 0.05715687 0.2096316
v 0.1219603 0.1070966 0.2104065
v 0.1228156 0.1045817 0.2200473
v 0.1354539 0.1348772 0.2162071
v 0.1361299 0.1330882 0.2260225
v 0.1474793 0.1709078 0.2186756
v 0.148175 0.1699845 0.2286086
vt 0.930408 0.2450708
vt 0.9195007 0.2334825
vt 0.919966 0.2470985
vt 0.9161404 0.2483264
vt 0.9055415 0.2198653
vt 0.8995543 0.2134828
vt 0.9020292 0.2511193
vt 0.8793283 0.2062183
vt 0.8879445 0.2042209
vt 0.8975036 0.2526428
vt 0.8774554 0.1948921
vt 0.8737611 0.2575384
vt 0.8535972 0.1707467
vt 0.8341884 0.2035467
vt 0.8312883 0.1488409
vt 0.865446 0.2596103
vt 0.8256649 0.1427295
vt 0.7911459 0.1421822
vt 0.8063217 0.1164287
vt 0.791141 0.09577078
vt 0.7806145 0.07981076
vt 0.8346579 0.2533757
vt 0.8350484 0.2661851
vt 0.8155819 0.2706338
vt 0.7912335 0.2764175
vt 0.7912135 0.2543306
vt 0.7480971 0.2534115
vt 0.7485016 0.2035659
vt 0.7771978 0.2798727
vt 0.7568095 0.2853364
vt 0.7483776 0.2806551
vt 0.7474146 0.2771523
vt 0.7413881 0.2547776
vt 0.7395009 0.2443545
vt 0.7325428 0.2045226
vt 0.730451 0.1730776
vt 0.7287115 0.1439009
vt 0.7911723 0.2039811
vt 0.751693 0.1429352
vt 0.7308623 0.1004084
vt 0.7555803 0.08126515
vt 0.7317172 0.08464279
vt 0.7566581 0.04357922
vt 0.7353507 0.05736744
vt 0.7696446 0.05699462
vt 0.7370934 0.04505212
vt 0.7631716 0.0434057
vt 0.7475184 0.03215183
vt 0.7384231 0.0383817
vt 0.7568475 0.02628832
vt 0.7573606 0.02593626
vt 0.9195007 0.2334825
vt 0.930408 0.2450708
vt 0.919966 0.2470985
vt 0.9161404 0.2483264
vt 0.9055415 0.2198653
vt 0.8995543 0.2134828
vt 0.9020292 0.2511193
vt 0.8793283 0.2062183
vt 0.8975036 0.2526428
vt 0.8879445 0.2042209
vt 0.8737611 0.2575384
vt 0.8774554 0.1948921
vt 0.865446 0.2596103
vt 0.8535972 0.1707467
vt 0.8341884 0.2035467
vt 0.8312883 0.1488409
vt 0.8256649 0.1427295
vt 0.7911459 0.1421822
vt 0.8063217 0.1164287
vt 0.791141 0.09577078
vt 0.7806145 0.07981076
vt 0.8346579 0.2533757
vt 0.8350484 0.2661851
vt 0.8155819 0.2706338
vt 0.7912335 0.2764175
vt 0.7912135 0.2543306
vt 0.7480971 0.2534115
vt 0.7485016 0.2035659
vt 0.7771978 0.2798727
vt 0.7568095 0.2853364
vt 0.7483776 0.2806551
vt 0.7474146 0.2771523
vt 0.7413881 0.2547776
vt 0.7395009 0.2443545
vt 0.7325428 0.2045226
vt 0.730451 0.1730776
vt 0.7287115 0.1439009
vt 0.7911723 0.2039811
vt 0.751693 0.1429352
vt 0.7308623 0.1004084
vt 0.7555803 0.08126515
vt 0.7317172 0.08464279
vt 0.7566581 0.04357922
vt 0.7353507 0.05736744
vt 0.7696446 0.05699462
vt 0.7370934 0.04505212
vt 0.7631716 0.0434057
vt 0.7475184 0.03215183
vt 0.7384231 0.0383817
vt 0.7568475 0.02628832
vt 0.7573606 0.02593626
vt 0.7771978 0.2798727
vt 0.7568095 0.2853364
vt 0.7568095 0.2853364
vt 0.7771978 0.2798727
vt 0.7912335 0.2764175
vt 0.7912335 0.2764175
vt 0.8155819 0.2706338
vt 0.8155819 0.2706338
vt 0.8350484 0.2661851
vt 0.8350484 0.2661851
vt 0.865446 0.2596103
vt 0.865446 0.2596103
vt 0.8737611 0.2575384
vt 0.8737611 0.2575384
vt 0.8975036 0.2526428
vt 0.8975036 0.2526428
vt 0.9020292 0.2511193
vt 0.9020292 0.2511193
vt 0.9161404 0.2483264
vt 0.9161404 0.2483264
vt 0.919966 0.2470985
vt 0.919966 0.2470985
vt 0.930408 0.2450708
vt 0.930408 0.2450708
vt 0.7483776 0.2806551
vt 0.7568095 0.2853364
vt 0.7568095 0.2853364
vt 0.7483776 0.2806551
vt 0.7474146 0.2771523
vt 0.7474146 0.2771523
vt 0.7413881 0.2547776
vt 0.7413881 0.2547776
vt 0.7395009 0.2443545
vt 0.7395009 0.2443545
vt 0.7325428 0.2045226
vt 0.7325428 0.2045226
vt 0.730451 0.1730776
vt 0.730451 0.1730776
vt 0.7287115 0.1439009
vt 0.7287115 0.1439009
vt 0.7308623 0.1004084
vt 0.7308623 0.1004084
vt 0.7317172 0.08464279
vt 0.7317172 0.08464279
vt 0.7353507 0.05736744
vt 0.7353507 0.05736744
vt 0.7370934 0.04505212
vt 0.7370934 0.04505212
vt 0.7384231 0.0383817
vt 0.7384231 0.0383817
vt 0.7475184 0.03215183
vt 0.7475184 0.03215183
vt 0.7568475 0.02628832
vt 0.7568475 0.02628832
vt 0.7573606 0.02593626
vt 0.7573606 0.02593626
vt 0.9195007 0.2334825
vt 0.930408 0.2450708
vt 0.930408 0.2450708
vt 0.9195007 0.2334825
vt 0.9055415 0.2198653
vt 0.9055415 0.2198653
vt 0.8995543 0.2134828
vt 0.8995543 0.2134828
vt 0.8879445 0.2042209
vt 0.8879445 0.2042209
vt 0.8774554 0.1948921
vt 0.8774554 0.1948921
vt 0.8535972 0.1707467
vt 0.8535972 0.1707467
vt 0.8312883 0.1488409
vt 0.8312883 0.1488409
vt 0.8256649 0.1427295
vt 0.8256649 0.1427295
vt 0.8063217 0.1164287
vt 0.8063217 0.1164287
vt 0.791141 0.09577078
vt 0.791141 0.09577078
vt 0.7806145 0.07981076
vt 0.7806145 0.07981076
vt 0.7696446 0.05699462
vt 0.7696446 0.05699462
vt 0.7631716 0.0434057
vt 0.7631716 0.0434057
vt 0.7573606 0.02593626
vt 0.7573606 0.02593626
vn -0.2917479 -0.7617311 0.5784884
vn -0.3000403 -0.7594261 0.5772762
vn -0.2982552 -0.7599277 0.5775411
vn -0.2504316 -0.7842573 0.5676484
vn -0.2069596 -0.8031558 0.5586666
vn -0.396448 -0.7478018 0.5325611
vn -0.3470148 -0.7664784 0.5404549
vn -0.3468403 -0.7009988 0.6231392
vn -0.4436555 -0.6833347 0.5798478
vn -0.4272544 -0.7419112 0.5167411
vn -0.2867802 -0.6292974 0.7223171
vn -0.3089918 -0.7853255 0.5364588
vn -0.2235539 -0.6316077 0.742358
vn -0.1607777 -0.7273625 0.6671538
vn -0.09907774 -0.6396804 0.7622287
vn -0.2555521 -0.8091175 0.529171
vn -0.06984638 -0.5874402 0.8062478
vn 0.006117506 -0.5430537 0.8396756
vn -0.06184148 -0.4365005 0.8975761
vn 0.05135261 -0.4341424 0.8993794
vn 0.08118108 -0.3696028 0.9256368
vn -0.1637489 -0.8546942 0.4926296
vn -0.1530035 -0.9023409 0.4029526
vn -0.08706141 -0.9078436 0.4101712
vn 0.01329904 -0.910678 0.4129028
vn -0.0002856195 -0.8689485 0.4949024
vn 0.16192 -0.8540456 0.4943562
vn 0.1613662 -0.7257587 0.6687565
vn 0.08704318 -0.908311 0.4091389
vn 0.09195796 -0.9099498 0.4043948
vn 0.0919581 -0.9099499 0.4043945
vn 0.1038488 -0.9086958 0.4043358
vn 0.2429678 -0.8426796 0.4804766
vn 0.2489009 -0.7901232 0.5601373
vn 0.2518442 -0.7145578 0.6526727
vn 0.2015818 -0.6242092 0.7548031
vn 0.1956158 -0.5334821 0.8228799
vn 0.0008649667 -0.7371298 0.6757506
vn 0.137135 -0.5367401 0.8325288
vn 0.1724866 -0.4292926 0.8865417
vn 0.1306145 -0.3423569 0.9304469
vn 0.178893 -0.356385 0.9170535
vn 0.1286612 -0.1683545 0.9772938
vn 0.1824826 -0.2506104 0.9507337
vn 0.08552915 -0.251488 0.964074
vn 0.1844133 -0.1825515 0.9657467
vn 0.06759648 -0.1788984 0.9815428
vn 0.1888698 -0.09110185 0.9777672
vn 0.1901724 -0.09213486 0.9774178
vn 0.1061494 -0.09173355 0.9901097
vn 0.06956775 -0.09233084 0.9932953
vn 0.3016109 0.7589667 -0.577062
vn 0.29176 0.7617311 -0.5784823
vn 0.2995216 0.759572 -0.5773536
vn 0.254269 0.783412 -0.567109
vn 0.2274659 0.7944927 -0.5630634
vn 0.3965718 0.7466683 -0.5340574
vn 0.3444019 0.7684571 -0.5393152
vn 0.3473042 0.7006301 -0.6232955
vn 0.4250578 0.7439525 -0.5156166
vn 0.4451954 0.6789606 -0.5837923
vn 0.3090382 0.7857432 -0.5358201
vn 0.2912832 0.6246865 -0.7245141
vn 0.2558633 0.8094876 -0.528454
vn 0.2245544 0.630581 -0.7429287
vn 0.1609217 0.7272255 -0.6672685
vn 0.1017071 0.638732 -0.7626776
vn 0.07082908 0.5866939 -0.8067054
vn -0.005907009 0.5427042 -0.8399031
vn 0.0631839 0.4355415 -0.8979484
vn -0.04918065 0.4334011 -0.8998581
vn -0.08036481 0.3690299 -0.9259365
vn 0.1637407 0.8551319 -0.4918724
vn 0.1532626 0.9030792 -0.4011963
vn 0.08882689 0.9092877 -0.406578
vn -0.01336383 0.9112405 -0.4116577
vn 0.0002073255 0.8692492 -0.4943742
vn -0.1632706 0.8539408 -0.494093
vn -0.1620484 0.7257157 -0.6686382
vn -0.08723368 0.9089292 -0.4077228
vn -0.0920504 0.9104201 -0.4033137
vn -0.09322368 0.9103894 -0.4031136
vn -0.108281 0.9087454 -0.4030596
vn -0.2454892 0.8421687 -0.4800908
vn -0.2549983 0.7896129 -0.5581105
vn -0.2533733 0.7139329 -0.6527647
vn -0.2057883 0.6243622 -0.7535403
vn -0.196357 0.5329937 -0.8230198
vn -0.000876255 0.7372287 -0.6756428
vn -0.1375062 0.5364738 -0.8326392
vn -0.1733457 0.4292064 -0.8864158
vn -0.1309452 0.3422773 -0.9304298
vn -0.1791476 0.3565041 -0.9169574
vn -0.1284541 0.1678732 -0.9774038
vn -0.1832507 0.2504745 -0.9506218
vn -0.07921607 0.2473667 -0.9656783
vn -0.1851917 0.182362 -0.9656336
vn -0.06607682 0.1782148 -0.9817706
vn -0.1901747 0.08972704 -0.9776414
vn -0.1926574 0.08826843 -0.9772879
vn -0.1002324 0.08964258 -0.9909176
vn -0.06321124 0.08919822 -0.994006
vn -0.2540089 -0.4171282 -0.8726302
vn -0.2509116 -0.4146475 -0.8747061
vn -0.2508476 -0.4141874 -0.8749425
vn -0.253633 -0.415828 -0.8733597
vn -0.2559329 -0.4037835 -0.8783265
vn -0.2550309 -0.4008346 -0.8799379
vn -0.2537688 -0.3794448 -0.8897319
vn -0.2528116 -0.3766632 -0.8911853
vn -0.2370893 -0.3637668 -0.900812
vn -0.2390928 -0.3677233 -0.8986735
vn -0.2688802 -0.4608205 -0.8457825
vn -0.2713223 -0.4657128 -0.8423157
vn -0.2822248 -0.4625601 -0.8404686
vn -0.2812886 -0.4615663 -0.8413283
vn -0.2628229 -0.4467814 -0.8551669
vn -0.2713432 -0.4475119 -0.8521185
vn -0.264572 -0.4658129 -0.8444052
vn -0.2763802 -0.4707255 -0.8378731
vn -0.2797416 -0.4992251 -0.8200725
vn -0.2844065 -0.5024461 -0.816493
vn -0.2908206 -0.5023065 -0.8143167
vn -0.2935612 -0.502933 -0.8129453
vn -0.2932703 -0.5040036 -0.8123871
vn -0.2936094 -0.5042806 -0.8120927
vn 0.8019283 -0.1730739 -0.5718011
vn 0.5170973 -0.3034251 -0.8003396
vn 0.5170972 -0.3034256 -0.8003396
vn 0.8040087 -0.1682843 -0.5703074
vn 0.9673006 -0.005927494 -0.2535635
vn 0.9674065 0.005874109 -0.2531607
vn 0.9542298 0.106873 -0.2793272
vn 0.9530809 0.1129282 -0.2808629
vn 0.9552224 0.1072976 -0.2757489
vn 0.9556001 0.1052503 -0.2752289
vn 0.9614688 0.1092028 -0.2522943
vn 0.9622808 0.1064634 -0.2503619
vn 0.9771118 0.0841835 -0.1953604
vn 0.9777934 0.08136576 -0.193131
vn 0.9805626 0.1039878 -0.1663837
vn 0.9808004 0.1032285 -0.1654525
vn 0.9837028 0.1196288 -0.1342307
vn 0.9836286 0.119972 -0.1344673
vn 0.9800543 0.148207 -0.1323947
vn 0.9796187 0.1496852 -0.1339461
vn 0.9745551 0.1751624 -0.1398587
vn 0.9740306 0.1764274 -0.1419072
vn 0.9695355 0.1962674 -0.1465612
vn 0.9677108 0.2012329 -0.1517932
vn 0.8123375 0.5747955 -0.09857912
vn 0.8090983 0.5785935 -0.1029057
vn 0.5413126 0.840412 -0.02623728
vn 0.5446228 0.838423 -0.02080415
vn 0.5642393 0.8255534 0.009783267
vn 0.6444137 0.7645442 0.01425188
vn 0.5794231 0.8148863 0.01513081
vn 0.7292768 0.6841044 0.0125138
vn -0.6354517 0.6100416 0.4733395
vn -0.628536 0.6094068 0.4832865
vn -0.6285967 0.6085461 0.484291
vn -0.6362755 0.6051179 0.4785246
vn -0.6303225 0.5517746 0.5461121
vn -0.6345597 0.561658 0.5309184
vn -0.5749812 0.6388401 0.5111555
vn -0.5795998 0.6598317 0.4782116
vn -0.5605038 0.7110382 0.4245706
vn -0.5555329 0.7170953 0.420901
vn -0.6351801 0.6895764 0.3478945
vn -0.6365937 0.6877601 0.3489048
vn -0.687961 0.6426135 0.3372797
vn -0.68875 0.6391987 0.3421235
vn -0.7241808 0.5740011 0.3822105
vn -0.7260351 0.5725899 0.380807
vn -0.7750772 0.5387205 0.3302052
vn -0.7748774 0.5433874 0.3229476
vn -0.8188981 0.534683 0.2086141
vn -0.8187374 0.5345771 0.2095146
vn -0.8316638 0.4826246 0.2746066
vn -0.8315988 0.4805551 0.2784067
vn -0.8702532 0.4259862 0.2473765
vn -0.8703083 0.42789 0.2438725
vn -0.9000772 0.3941642 0.1857301
vn -0.9016072 0.39423 0.1780091
vn -0.9267071 0.351641 0.1325243
vn -0.9275076 0.3519808 0.1258536
vn -0.9476706 0.30358 0.09879088
vn -0.9483016 0.3029507 0.09457693
g baseball_Explode_Thin_04_0
f 3/3/3 2/2/2 1/1/1
f 3/3/3 4/4/4 2/2/2
f 5/5/5 2/2/2 4/4/4
f 5/5/5 4/4/4 6/6/6
f 7/7/7 6/6/6 4/4/4
f 6/6/6 7/7/7 8/8/8
f 9/9/9 6/6/6 8/8/8
f 7/7/7 10/10/10 8/8/8
f 8/8/8 11/11/11 9/9/9
f 8/8/8 10/10/10 12/12/12
f 11/11/11 8/8/8 13/13/13
f 14/14/14 13/13/13 8/8/8
f 14/14/14 15/15/15 13/13/13
f 12/12/12 16/16/16 8/8/8
f 15/15/15 14/14/14 17/17/17
f 18/18/18 17/17/17 14/14/14
f 19/19/19 17/17/17 18/18/18
f 18/18/18 20/20/20 19/19/19
f 20/20/20 18/18/18 21/21/21
f 22/22/22 8/8/8 16/16/16
f 8/8/8 22/22/22 14/14/14
f 22/22/22 16/16/16 23/23/23
f 23/23/23 24/24/24 22/22/22
f 24/24/24 25/25/25 22/22/22
f 14/14/14 22/22/22 26/26/26
f 26/26/26 22/22/22 25/25/25
f 26/26/26 25/25/25 27/27/27
f 26/26/26 27/27/27 28/28/28
f 29/29/29 27/27/27 25/25/25
f 29/29/29 30/30/30 27/27/27
f 30/30/30 31/31/31 27/27/27
f 31/31/31 32/32/32 27/27/27
f 27/27/27 32/32/32 33/33/33
f 33/33/33 34/34/34 27/27/27
f 34/34/34 35/35/35 27/27/27
f 28/28/28 27/27/27 35/35/35
f 35/35/35 36/36/36 28/28/28
f 36/36/36 37/37/37 28/28/28
f 26/26/26 38/38/38 14/14/14
f 38/38/38 26/26/26 28/28/28
f 14/14/14 38/38/38 18/18/18
f 18/18/18 38/38/38 28/28/28
f 39/39/39 28/28/28 37/37/37
f 28/28/28 39/39/39 18/18/18
f 39/39/39 37/37/37 40/40/40
f 18/18/18 39/39/39 41/41/41
f 39/39/39 40/40/40 41/41/41
f 42/42/42 41/41/41 40/40/40
f 41/41/41 21/21/21 18/18/18
f 41/41/41 43/43/43 21/21/21
f 41/41/41 42/42/42 44/44/44
f 41/41/41 44/44/44 43/43/43
f 45/45/45 21/21/21 43/43/43
f 46/46/46 43/43/43 44/44/44
f 43/43/43 47/47/47 45/45/45
f 43/43/43 46/46/46 48/48/48
f 49/49/49 48/48/48 46/46/46
f 48/48/48 50/50/50 43/43/43
f 43/43/43 50/50/50 47/47/47
f 51/51/51 47/47/47 50/50/50
f 54/54/54 53/53/53 52/52/52
f 54/54/54 52/52/52 55/55/55
f 56/56/56 55/55/55 52/52/52
f 56/56/56 57/57/57 55/55/55
f 58/58/58 55/55/55 57/57/57
f 57/57/57 59/59/59 58/58/58
f 58/58/58 59/59/59 60/60/60
f 61/61/61 59/59/59 57/57/57
f 59/59/59 62/62/62 60/60/60
f 59/59/59 61/61/61 63/63/63
f 62/62/62 59/59/59 64/64/64
f 63/63/63 65/65/65 59/59/59
f 66/66/66 59/59/59 65/65/65
f 66/66/66 65/65/65 67/67/67
f 67/67/67 68/68/68 66/66/66
f 69/69/69 66/66/66 68/68/68
f 70/70/70 69/69/69 68/68/68
f 69/69/69 70/70/70 71/71/71
f 71/71/71 72/72/72 69/69/69
f 73/73/73 64/64/64 59/59/59
f 59/59/59 66/66/66 73/73/73
f 73/73/73 74/74/74 64/64/64
f 74/74/74 73/73/73 75/75/75
f 75/75/75 73/73/73 76/76/76
f 66/66/66 77/77/77 73/73/73
f 77/77/77 76/76/76 73/73/73
f 77/77/77 78/78/78 76/76/76
f 77/77/77 79/79/79 78/78/78
f 80/80/80 76/76/76 78/78/78
f 80/80/80 78/78/78 81/81/81
f 81/81/81 78/78/78 82/82/82
f 82/82/82 78/78/78 83/83/83
f 78/78/78 84/84/84 83/83/83
f 84/84/84 78/78/78 85/85/85
f 85/85/85 78/78/78 86/86/86
f 79/79/79 86/86/86 78/78/78
f 86/86/86 79/79/79 87/87/87
f 87/87/87 79/79/79 88/88/88
f 77/77/77 66/66/66 89/89/89
f 89/89/89 79/79/79 77/77/77
f 66/66/66 69/69/69 89/89/89
f 69/69/69 79/79/79 89/89/89
f 90/90/90 88/88/88 79/79/79
f 79/79/79 69/69/69 90/90/90
f 90/90/90 91/91/91 88/88/88
f 69/69/69 92/92/92 90/90/90
f 90/90/90 92/92/92 91/91/91
f 93/93/93 91/91/91 92/92/92
f 92/92/92 69/69/69 72/72/72
f 92/92/92 72/72/72 94/94/94
f 92/92/92 95/95/95 93/93/93
f 92/92/92 94/94/94 95/95/95
f 96/96/96 94/94/94 72/72/72
f 97/97/97 95/95/95 94/94/94
f 94/94/94 96/96/96 98/98/98
f 94/94/94 99/99/99 97/97/97
f 100/100/100 97/97/97 99/99/99
f 99/99/99 94/94/94 101/101/101
f 94/94/94 98/98/98 101/101/101
f 102/102/102 101/101/101 98/98/98
f 105/105/105 104/104/104 103/103/103
f 106/106/106 103/103/103 104/104/104
f 103/103/103 106/106/106 107/107/107
f 108/108/108 107/107/107 106/106/106
f 107/107/107 108/108/108 109/109/109
f 110/110/110 109/109/109 108/108/108
f 109/109/109 110/110/110 111/111/111
f 112/112/112 111/111/111 110/110/110
f 111/111/111 112/112/112 113/113/113
f 114/114/114 113/113/113 112/112/112
f 113/113/113 114/114/114 115/115/115
f 116/116/116 115/115/115 114/114/114
f 115/115/115 116/116/116 117/117/117
f 118/118/118 117/117/117 116/116/116
f 117/117/117 118/118/118 119/119/119
f 120/120/120 119/119/119 118/118/118
f 119/119/119 120/120/120 121/121/121
f 122/122/122 121/121/121 120/120/120
f 121/121/121 122/122/122 123/123/123
f 124/124/124 123/123/123 122/122/122
f 123/123/123 124/124/124 125/125/125
f 126/126/126 125/125/125 124/124/124
f 129/129/129 128/128/128 127/127/127
f 130/130/130 127/127/127 128/128/128
f 127/127/127 130/130/130 131/131/131
f 132/132/132 131/131/131 130/130/130
f 131/131/131 132/132/132 133/133/133
f 134/134/134 133/133/133 132/132/132
f 133/133/133 134/134/134 135/135/135
f 136/136/136 135/135/135 134/134/134
f 135/135/135 136/136/136 137/137/137
f 138/138/138 137/137/137 136/136/136
f 137/137/137 138/138/138 139/139/139
f 140/140/140 139/139/139 138/138/138
f 139/139/139 140/140/140 141/141/141
f 142/142/142 141/141/141 140/140/140
f 141/141/141 142/142/142 143/143/143
f 144/144/144 143/143/143 142/142/142
f 143/143/143 144/144/144 145/145/145
f 146/146/146 145/145/145 144/144/144
f 145/145/145 146/146/146 147/147/147
f 148/148/148 147/147/147 146/146/146
f 147/147/147 148/148/148 149/149/149
f 150/150/150 149/149/149 148/148/148
f 149/149/149 150/150/150 151/151/151
f 152/152/152 151/151/151 150/150/150
f 151/151/151 152/152/152 153/153/153
f 154/154/154 153/153/153 152/152/152
f 153/153/153 154/154/154 155/155/155
f 156/156/156 155/155/155 154/154/154
f 155/155/155 156/156/156 157/157/157
f 158/158/158 157/157/157 156/156/156
f 161/161/161 160/160/160 159/159/159
f 162/162/162 159/159/159 160/160/160
f 159/159/159 162/162/162 163/163/163
f 164/164/164 163/163/163 162/162/162
f 163/163/163 164/164/164 165/165/165
f 166/166/166 165/165/165 164/164/164
f 165/165/165 166/166/166 167/167/167
f 168/168/168 167/167/167 166/166/166
f 167/167/167 168/168/168 169/169/169
f 170/170/170 169/169/169 168/168/168
f 169/169/169 170/170/170 171/171/171
f 172/172/172 171/171/171 170/170/170
f 171/171/171 172/172/172 173/173/173
f 174/174/174 173/173/173 172/172/172
f 173/173/173 174/174/174 175/175/175
f 176/176/176 175/175/175 174/174/174
f 175/175/175 176/176/176 177/177/177
f 178/178/178 177/177/177 176/176/176
f 177/177/177 178/178/178 179/179/179
f 180/180/180 179/179/179 178/178/178
f 179/179/179 180/180/180 181/181/181
f 182/182/182 181/181/181 180/180/180
f 181/181/181 182/182/182 183/183/183
f 184/184/184 183/183/183 182/182/182
f 183/183/183 184/184/184 185/185/185
f 186/186/186 185/185/185 184/184/184
f 185/185/185 186/186/186 187/187/187
f 188/188/188 187/187/187 186/186/186
