g baseball_Explode_Thin_06_Hull
v -0.2234806 0.2842346 -0.1189809
v 0.2536292 -0.07668187 0.1187586
v 0.1399836 -0.3014756 -0.03823173
v -0.2592865 0.1036941 -0.2384959
v -0.2234806 0.2842346 -0.1189809
v 0.1399836 -0.3014756 -0.03823173
v 0.117045 -0.2546681 -0.1121319
v 0.06144985 -0.05583792 -0.1724146
v -0.03377724 -0.112326 -0.2202457
v 0.105593 0.2696704 0.04317487
v -0.03628668 0.3052152 -0.06557664
v 0.136401 0.2595422 0.03290841
v 0.105593 0.2696704 0.04317487
v 0.2536292 -0.07668187 0.1187586
v -0.2234806 0.2842346 -0.1189809
v 0.1875421 0.2048435 0.03085144
v 0.136401 0.2595422 0.03290841
v 0.1706155 0.1803102 -0.02890134
v 0.1875421 0.2048435 0.03085144
v 0.1706155 0.1803102 -0.02890134
v 0.2352312 0.06872392 0.06622925
v -0.1343773 0.269646 -0.1404824
v 0.02376405 0.1561729 -0.1721728
v -0.03628668 0.3052152 -0.06557664
v 0.1167478 0.1429063 -0.1118286
v 0.2071473 -0.05583795 -0.0249808
v 0.1706155 0.1803102 -0.02890134
v 0.1167478 0.1429063 -0.1118286
v 0.02376405 0.1561729 -0.1721728
v 0.06144985 -0.05583792 -0.1724146
v 0.1650487 -0.2880861 -0.03769235
v 0.2071473 -0.05583795 -0.0249808
v 0.117045 -0.2546681 -0.1121319
v 0.1650487 -0.2880861 -0.03769235
v 0.2376334 -0.1564697 0.05605223
v 0.2071473 -0.05583795 -0.0249808
v 0.1650487 -0.2880861 -0.03769235
v 0.117045 -0.2546681 -0.1121319
v 0.1399836 -0.3014756 -0.03823173
v -0.1473017 0.1345544 -0.2395973
v 0.02376405 0.1561729 -0.1721728
v -0.1343773 0.269646 -0.1404824
v -0.1334345 0.304323 -0.1062512
v -0.1343773 0.269646 -0.1404824
v -0.03628668 0.3052152 -0.06557664
v -0.1387959 -0.009294476 -0.2489384
v -0.1473017 0.1345544 -0.2395973
v -0.2163822 0.09622715 -0.2552309
v -0.1387959 -0.009294476 -0.2489384
v -0.2163822 0.09622715 -0.2552309
v -0.2592865 0.1036941 -0.2384959
v 0.2496051 -0.05583796 0.05944029
v 0.2071473 -0.05583795 -0.0249808
v 0.2376334 -0.1564697 0.05605223
v -0.04862224 0.1055064 -0.2180178
v -0.1387959 -0.009294476 -0.2489384
v -0.03377724 -0.112326 -0.2202457
v -0.04862224 0.1055064 -0.2180178
v -0.1473017 0.1345544 -0.2395973
v -0.1387959 -0.009294476 -0.2489384
v -0.04862224 0.1055064 -0.2180178
v 0.02376405 0.1561729 -0.1721728
v -0.1473017 0.1345544 -0.2395973
v -0.04862224 0.1055064 -0.2180178
v -0.03377724 -0.112326 -0.2202457
v 0.06144985 -0.05583792 -0.1724146
v -0.04862224 0.1055064 -0.2180178
v 0.06144985 -0.05583792 -0.1724146
v 0.02376405 0.1561729 -0.1721728
v 0.2627327 -0.05583798 0.1068159
v 0.2352312 0.06872392 0.06622925
v 0.2496051 -0.05583796 0.05944029
v 0.2627327 -0.05583798 0.1068159
v 0.2536292 -0.07668187 0.1187586
v 0.105593 0.2696704 0.04317487
v 0.09188034 -0.2505865 -0.1175111
v -0.2592865 0.1036941 -0.2384959
v 0.1399836 -0.3014756 -0.03823173
v 0.09188034 -0.2505865 -0.1175111
v 0.117045 -0.2546681 -0.1121319
v -0.03377724 -0.112326 -0.2202457
v 0.09188034 -0.2505865 -0.1175111
v 0.1399836 -0.3014756 -0.03823173
v 0.117045 -0.2546681 -0.1121319
v 0.09668606 0.1767919 -0.1110668
v 0.1167478 0.1429063 -0.1118286
v 0.1706155 0.1803102 -0.02890134
v 0.09668606 0.1767919 -0.1110668
v -0.03628668 0.3052152 -0.06557664
v 0.02376405 0.1561729 -0.1721728
v 0.09668606 0.1767919 -0.1110668
v 0.02376405 0.1561729 -0.1721728
v 0.1167478 0.1429063 -0.1118286
v 0.09668606 0.1767919 -0.1110668
v 0.1706155 0.1803102 -0.02890134
v 0.136401 0.2595422 0.03290841
v 0.09668606 0.1767919 -0.1110668
v 0.136401 0.2595422 0.03290841
v -0.03628668 0.3052152 -0.06557664
v -0.2161822 0.2694989 -0.1481059
v -0.1334345 0.304323 -0.1062512
v -0.2234806 0.2842346 -0.1189809
v -0.2161822 0.2694989 -0.1481059
v -0.1343773 0.269646 -0.1404824
v -0.1334345 0.304323 -0.1062512
v -0.2161822 0.2694989 -0.1481059
v -0.2234806 0.2842346 -0.1189809
v -0.2484192 0.1685511 -0.2265654
v -0.2549514 0.1347294 -0.2436222
v -0.1473017 0.1345544 -0.2395973
v -0.2484192 0.1685511 -0.2265654
v -0.2549514 0.1347294 -0.2436222
v -0.2163822 0.09622715 -0.2552309
v -0.1473017 0.1345544 -0.2395973
v -0.2549514 0.1347294 -0.2436222
v -0.2592865 0.1036941 -0.2384959
v -0.2163822 0.09622715 -0.2552309
v 0.2601018 -0.09318788 0.1101862
v 0.2536292 -0.07668187 0.1187586
v 0.2627327 -0.05583798 0.1068159
v 0.2601018 -0.09318788 0.1101862
v 0.1650487 -0.2880861 -0.03769235
v 0.1399836 -0.3014756 -0.03823173
v 0.2601018 -0.09318788 0.1101862
v 0.2376334 -0.1564697 0.05605223
v 0.1650487 -0.2880861 -0.03769235
v 0.2601018 -0.09318788 0.1101862
v 0.1399836 -0.3014756 -0.03823173
v 0.2536292 -0.07668187 0.1187586
v 0.117045 -0.2546681 -0.1121319
v 0.2071473 -0.05583795 -0.0249808
v 0.06144985 -0.05583792 -0.1724146
v 0.1167478 0.1429063 -0.1118286
v 0.2352312 0.06872392 0.06622925
v 0.1706155 0.1803102 -0.02890134
v 0.2071473 -0.05583795 -0.0249808
v 0.2496051 -0.05583796 0.05944029
v 0.1875421 0.2048435 0.03085144
v 0.2352312 0.06872392 0.06622925
v 0.136401 0.2595422 0.03290841
v 0.2627327 -0.05583798 0.1068159
v 0.105593 0.2696704 0.04317487
v -0.1473017 0.1345544 -0.2395973
v -0.1343773 0.269646 -0.1404824
v -0.2484192 0.1685511 -0.2265654
v -0.2161822 0.2694989 -0.1481059
v -0.1334345 0.304323 -0.1062512
v 0.105593 0.2696704 0.04317487
v -0.2234806 0.2842346 -0.1189809
v -0.03628668 0.3052152 -0.06557664
v 0.09188034 -0.2505865 -0.1175111
v -0.1387959 -0.009294476 -0.2489384
v -0.2592865 0.1036941 -0.2384959
v -0.03377724 -0.112326 -0.2202457
v -0.2549514 0.1347294 -0.2436222
v -0.2234806 0.2842346 -0.1189809
v -0.2592865 0.1036941 -0.2384959
v -0.2484192 0.1685511 -0.2265654
v 0.2601018 -0.09318788 0.1101862
v 0.2496051 -0.05583796 0.05944029
v 0.2376334 -0.1564697 0.05605223
v 0.2627327 -0.05583798 0.1068159
vn -0.5771047 -0.2509823 0.7771475
vn -0.5771046 -0.2509823 0.7771475
vn -0.5771047 -0.2509823 0.7771475
vn -0.6625599 -0.3176363 0.6783227
vn -0.6625599 -0.3176363 0.6783227
vn -0.6625599 -0.3176363 0.6783227
vn 0.5013749 -0.1196175 -0.8569218
vn 0.5013749 -0.1196175 -0.8569217
vn 0.501375 -0.1196175 -0.8569217
vn 0.2911022 0.954281 -0.06787745
vn 0.2911022 0.954281 -0.06787743
vn 0.2911022 0.954281 -0.06787743
vn -0.4417551 0.006961468 0.8971087
vn -0.4417551 0.006961468 0.8971087
vn -0.4417551 0.006961468 0.8971087
vn 0.6479843 0.6223516 -0.439084
vn 0.6479843 0.6223516 -0.439084
vn 0.6479844 0.6223516 -0.439084
vn 0.9085394 0.227172 -0.3506408
vn 0.9085394 0.227172 -0.3506408
vn 0.9085394 0.227172 -0.3506408
vn 0.3119015 0.632647 -0.7088549
vn 0.3119015 0.632647 -0.7088549
vn 0.3119015 0.632647 -0.7088549
vn 0.8083964 0.1154753 -0.5772008
vn 0.8083964 0.1154753 -0.5772008
vn 0.8083964 0.1154753 -0.5772008
vn 0.5516105 0.09899562 -0.8282064
vn 0.5516105 0.09899562 -0.8282064
vn 0.5516105 0.09899561 -0.8282064
vn 0.8103789 -0.1154546 -0.5744182
vn 0.8103789 -0.1154546 -0.5744182
vn 0.8103789 -0.1154546 -0.5744182
vn 0.8639765 -0.1299839 -0.4864656
vn 0.8639765 -0.1299839 -0.4864656
vn 0.8639765 -0.129984 -0.4864656
vn 0.3947892 -0.7158402 -0.5759465
vn 0.3947891 -0.7158402 -0.5759465
vn 0.3947892 -0.7158402 -0.5759465
vn 0.2420149 0.5588055 -0.7931994
vn 0.2420149 0.5588055 -0.7931994
vn 0.2420149 0.5588055 -0.7931994
vn 0.2813694 0.6702501 -0.6867285
vn 0.2813694 0.6702501 -0.6867285
vn 0.2813694 0.6702501 -0.6867285
vn 0.1806868 0.07436927 -0.980725
vn 0.1806868 0.07436927 -0.980725
vn 0.1806868 0.07436927 -0.980725
vn -0.3925056 -0.3395675 -0.8547709
vn -0.3925056 -0.3395675 -0.8547709
vn -0.3925056 -0.3395675 -0.8547709
vn 0.8896896 -0.09077763 -0.4474505
vn 0.8896896 -0.09077763 -0.4474505
vn 0.8896896 -0.09077764 -0.4474505
vn 0.2903301 0.02956825 -0.9564697
vn 0.2903301 0.02956825 -0.9564697
vn 0.29033 0.02956825 -0.9564697
vn 0.2345254 0.07679601 -0.9690719
vn 0.2345254 0.07679601 -0.9690719
vn 0.2345254 0.07679601 -0.9690719
vn 0.3005649 0.367101 -0.8802826
vn 0.3005649 0.3671011 -0.8802826
vn 0.3005649 0.3671011 -0.8802826
vn 0.4301631 0.03853987 -0.9019282
vn 0.4301631 0.03853987 -0.9019282
vn 0.4301631 0.03853987 -0.9019281
vn 0.4883993 0.08780514 -0.8681914
vn 0.4883992 0.08780514 -0.8681914
vn 0.4883992 0.08780515 -0.8681915
vn 0.9561559 0.1247765 -0.2649468
vn 0.9561559 0.1247765 -0.2649468
vn 0.9561559 0.1247765 -0.2649468
vn 0.3568201 0.3422028 0.8692392
vn 0.3568201 0.3422028 0.8692392
vn 0.35682 0.3422028 0.8692392
vn -0.7054036 -0.7083046 -0.02665043
vn -0.7054036 -0.7083047 -0.02665043
vn -0.7054036 -0.7083047 -0.02665043
vn 0.09157012 -0.5389621 -0.8373379
vn 0.09157013 -0.5389621 -0.8373379
vn 0.09157013 -0.5389621 -0.8373379
vn -0.02434642 -0.847947 -0.5295216
vn -0.02434642 -0.847947 -0.5295216
vn -0.02434642 -0.847947 -0.5295216
vn 0.6691868 0.4101185 -0.6196708
vn 0.6691868 0.4101185 -0.6196708
vn 0.6691867 0.4101185 -0.6196708
vn 0.3831233 0.6344846 -0.6713016
vn 0.3831233 0.6344846 -0.6713016
vn 0.3831233 0.6344846 -0.6713016
vn 0.5455846 0.3402278 -0.7658867
vn 0.5455846 0.3402278 -0.7658867
vn 0.5455846 0.3402278 -0.7658867
vn 0.5523071 0.6478137 -0.5246848
vn 0.5523071 0.6478137 -0.5246848
vn 0.5523072 0.6478138 -0.5246848
vn 0.4867722 0.6925815 -0.5323378
vn 0.4867723 0.6925815 -0.5323378
vn 0.4867723 0.6925815 -0.5323378
vn -0.1276073 0.8717526 -0.4730369
vn -0.1276073 0.8717526 -0.473037
vn -0.1276073 0.8717526 -0.473037
vn 0.06500384 0.7001359 -0.7110444
vn 0.06500383 0.7001358 -0.7110445
vn 0.06500384 0.7001358 -0.7110444
vn -0.6773918 0.5739494 -0.4601333
vn -0.6773918 0.5739494 -0.4601333
vn -0.6773918 0.5739494 -0.4601333
vn 0.03418611 0.4447573 -0.8949985
vn 0.03418611 0.4447573 -0.8949985
vn 0.03418611 0.4447573 -0.8949985
vn 0.03590355 0.3212838 -0.9463022
vn 0.03590355 0.3212838 -0.9463022
vn 0.03590355 0.3212838 -0.9463022
vn -0.3765729 -0.09953193 -0.9210246
vn -0.376573 -0.09953193 -0.9210246
vn -0.3765729 -0.09953193 -0.9210246
vn 0.796609 -0.001563656 0.6044928
vn 0.796609 -0.001563656 0.6044927
vn 0.796609 -0.001563656 0.6044927
vn 0.3427301 -0.6681893 0.6603477
vn 0.3427301 -0.6681893 0.6603477
vn 0.3427301 -0.6681893 0.6603477
vn 0.4377443 -0.6691392 0.6005269
vn 0.4377443 -0.6691393 0.6005269
vn 0.4377443 -0.6691393 0.6005269
vn -0.1687388 -0.505595 0.8461093
vn -0.1687387 -0.505595 0.8461093
vn -0.1687387 -0.505595 0.8461093
vn 0.7112109 -0.01422792 -0.7028347
vn 0.7112108 -0.01422792 -0.7028348
vn 0.7112108 -0.01422792 -0.7028348
vn 0.7111875 0.01636957 -0.7028118
vn 0.8841898 0.129331 -0.4488674
vn 0.8841898 0.129331 -0.4488674
vn 0.8841898 0.129331 -0.4488674
vn 0.8861951 0.1265545 -0.4456929
vn 0.422472 0.3637756 0.8301715
vn 0.4224721 0.3637756 0.8301715
vn 0.4224721 0.3637756 0.8301715
vn 0.3989533 0.357674 0.8443373
vn 0.3989533 0.357674 0.8443373
vn 0.09210047 0.5832913 -0.8070247
vn 0.09210047 0.5832913 -0.8070247
vn 0.09210048 0.5832914 -0.8070247
vn 0.07335286 0.5973088 -0.7986498
vn -0.2544811 0.7696467 0.5855624
vn -0.2544811 0.7696467 0.5855623
vn -0.2544811 0.7696467 0.5855624
vn -0.2496915 0.7758922 0.5793493
vn -0.6846546 -0.7191488 -0.11863
vn -0.6846546 -0.7191488 -0.11863
vn -0.6846546 -0.7191488 -0.11863
vn -0.6689293 -0.7261165 -0.1590233
vn -0.9863131 0.1493194 0.06992925
vn -0.9863131 0.1493194 0.06992925
vn -0.9863131 0.1493194 0.06992925
vn -0.9850816 0.1640658 0.05193011
vn 0.9558639 -0.1044693 -0.2746096
vn 0.9558639 -0.1044693 -0.2746096
vn 0.9558639 -0.1044693 -0.2746096
vn 0.9596365 -0.09159107 -0.2659113
g baseball_Explode_Thin_06_Hull_0
f 3/3/3 2/2/2 1/1/1
f 6/6/6 5/5/5 4/4/4
f 9/9/9 8/8/8 7/7/7
f 12/12/12 11/11/11 10/10/10
f 15/15/15 14/14/14 13/13/13
f 18/18/18 17/17/17 16/16/16
f 21/21/21 20/20/20 19/19/19
f 24/24/24 23/23/23 22/22/22
f 27/27/27 26/26/26 25/25/25
f 30/30/30 29/29/29 28/28/28
f 33/33/33 32/32/32 31/31/31
f 36/36/36 35/35/35 34/34/34
f 39/39/39 38/38/38 37/37/37
f 42/42/42 41/41/41 40/40/40
f 45/45/45 44/44/44 43/43/43
f 48/48/48 47/47/47 46/46/46
f 51/51/51 50/50/50 49/49/49
f 54/54/54 53/53/53 52/52/52
f 57/57/57 56/56/56 55/55/55
f 60/60/60 59/59/59 58/58/58
f 63/63/63 62/62/62 61/61/61
f 66/66/66 65/65/65 64/64/64
f 69/69/69 68/68/68 67/67/67
f 72/72/72 71/71/71 70/70/70
f 75/75/75 74/74/74 73/73/73
f 78/78/78 77/77/77 76/76/76
f 81/81/81 80/80/80 79/79/79
f 84/84/84 83/83/83 82/82/82
f 87/87/87 86/86/86 85/85/85
f 90/90/90 89/89/89 88/88/88
f 93/93/93 92/92/92 91/91/91
f 96/96/96 95/95/95 94/94/94
f 99/99/99 98/98/98 97/97/97
f 102/102/102 101/101/101 100/100/100
f 105/105/105 104/104/104 103/103/103
f 108/108/108 107/107/107 106/106/106
f 111/111/111 110/110/110 109/109/109
f 114/114/114 113/113/113 112/112/112
f 117/117/117 116/116/116 115/115/115
f 120/120/120 119/119/119 118/118/118
f 123/123/123 122/122/122 121/121/121
f 126/126/126 125/125/125 124/124/124
f 129/129/129 128/128/128 127/127/127
f 132/132/132 131/131/131 130/130/130
f 131/131/131 132/132/132 133/133/133
f 136/136/136 135/135/135 134/134/134
f 136/136/136 134/134/134 137/137/137
f 140/140/140 139/139/139 138/138/138
f 139/139/139 140/140/140 141/141/141
f 140/140/140 142/142/142 141/141/141
f 145/145/145 144/144/144 143/143/143
f 144/144/144 145/145/145 146/146/146
f 149/149/149 148/148/148 147/147/147
f 148/148/148 150/150/150 147/147/147
f 153/153/153 152/152/152 151/151/151
f 152/152/152 154/154/154 151/151/151
f 157/157/157 156/156/156 155/155/155
f 156/156/156 158/158/158 155/155/155
f 161/161/161 160/160/160 159/159/159
f 160/160/160 162/162/162 159/159/159
