g baseball_Explode_Thin_08_Hull
v 0.2737567 -0.1132725 -0.008297329
v 0.2073216 -0.1986822 0.04768334
v -0.1255129 0.2918968 -0.2085611
v 0.1134091 -0.2533766 0.005654516
v 0.01889747 -0.2324397 -0.06616098
v 0.04693529 -0.2937059 0.03680315
v 0.1134091 -0.2533766 0.005654516
v 0.06824505 -0.1869658 -0.09659152
v 0.01889747 -0.2324397 -0.06616098
v -0.008923852 -0.02036054 -0.2142174
v -0.00502238 0.1789082 -0.2190037
v -0.08259323 0.1323648 -0.2273982
v -0.008923852 -0.02036054 -0.2142174
v 0.07474899 -0.06493003 -0.1813528
v 0.09778184 0.07813145 -0.1915311
v -0.008923852 -0.02036054 -0.2142174
v 0.09778184 0.07813145 -0.1915311
v -0.00502238 0.1789082 -0.2190037
v 0.2601238 -0.1493842 0.000869112
v 0.2307033 -0.1003884 -0.08140013
v 0.1134091 -0.2533766 0.005654516
v 0.1199932 -0.2663581 0.03494764
v 0.1134091 -0.2533766 0.005654516
v 0.04693529 -0.2937059 0.03680315
v -0.1600609 0.1843964 -0.2188026
v -0.1238598 -0.02013776 -0.2186939
v -0.08259323 0.1323648 -0.2273982
v -0.1169009 0.2848727 -0.2211439
v -0.08259323 0.1323648 -0.2273982
v -0.00502238 0.1789082 -0.2190037
v -0.2577528 0.1339642 -0.1938131
v -0.1238598 -0.02013776 -0.2186939
v -0.1600609 0.1843964 -0.2188026
v -0.2577528 0.1339642 -0.1938131
v -0.255073 0.1335437 -0.1841853
v 0.04693529 -0.2937059 0.03680315
v 0.2802639 -0.1179084 -0.01431538
v 0.2307033 -0.1003884 -0.08140013
v 0.2601238 -0.1493842 0.000869112
v 0.2802639 -0.1179084 -0.01431538
v 0.2315499 -0.06104445 -0.09554484
v 0.2307033 -0.1003884 -0.08140013
v 0.2802639 -0.1179084 -0.01431538
v 0.2737567 -0.1132725 -0.008297329
v -0.1255129 0.2918968 -0.2085611
v 0.2123905 -0.2059813 0.04309192
v 0.2802639 -0.1179084 -0.01431538
v 0.2601238 -0.1493842 0.000869112
v 0.2123905 -0.2059813 0.04309192
v 0.1199932 -0.2663581 0.03494764
v 0.2073216 -0.1986822 0.04768334
v -0.08259972 -0.05820166 -0.2175488
v -0.08259323 0.1323648 -0.2273982
v -0.1238598 -0.02013776 -0.2186939
v -0.08259972 -0.05820166 -0.2175488
v -0.008923852 -0.02036054 -0.2142174
v -0.08259323 0.1323648 -0.2273982
v -0.08259972 -0.05820166 -0.2175488
v -0.1238598 -0.02013776 -0.2186939
v -0.06797796 -0.09247276 -0.1991633
v -0.08259972 -0.05820166 -0.2175488
v 0.07474899 -0.06493003 -0.1813528
v -0.008923852 -0.02036054 -0.2142174
v -0.1339538 0.2850929 -0.2190792
v -0.2577528 0.1339642 -0.1938131
v -0.1600609 0.1843964 -0.2188026
v 0.0633573 -0.09767311 -0.1704363
v 0.06824505 -0.1869658 -0.09659152
v 0.1384708 -0.1101549 -0.130954
v 0.04364077 -0.2851638 0.04083203
v 0.04693529 -0.2937059 0.03680315
v -0.255073 0.1335437 -0.1841853
v -0.1266716 0.2937256 -0.2183266
v -0.2577528 0.1339642 -0.1938131
v -0.1339538 0.2850929 -0.2190792
v -0.1266716 0.2937256 -0.2183266
v -0.1339538 0.2850929 -0.2190792
v -0.1169009 0.2848727 -0.2211439
v 0.1557547 -0.07886948 -0.1390892
v 0.2307033 -0.1003884 -0.08140013
v 0.2315499 -0.06104445 -0.09554484
v 0.1557547 -0.07886948 -0.1390892
v 0.1384708 -0.1101549 -0.130954
v 0.2307033 -0.1003884 -0.08140013
v 0.1557547 -0.07886948 -0.1390892
v 0.2315499 -0.06104445 -0.09554484
v 0.09778184 0.07813145 -0.1915311
v 0.1557547 -0.07886948 -0.1390892
v 0.09778184 0.07813145 -0.1915311
v 0.07474899 -0.06493003 -0.1813528
v -0.0006469202 -0.1929442 -0.1103354
v 0.0633573 -0.09767311 -0.1704363
v -0.06797796 -0.09247276 -0.1991633
v -0.0006469202 -0.1929442 -0.1103354
v 0.06824505 -0.1869658 -0.09659152
v 0.0633573 -0.09767311 -0.1704363
v -0.0006469202 -0.1929442 -0.1103354
v 0.01889747 -0.2324397 -0.06616098
v 0.06824505 -0.1869658 -0.09659152
v -0.0006469202 -0.1929442 -0.1103354
v -0.06797796 -0.09247276 -0.1991633
v 0.01889747 -0.2324397 -0.06616098
v 0.01889747 -0.2324397 -0.06616098
v -0.06797796 -0.09247276 -0.1991633
v 0.04693529 -0.2937059 0.03680315
v -0.1238598 -0.02013776 -0.2186939
v -0.2577528 0.1339642 -0.1938131
v 0.2307033 -0.1003884 -0.08140013
v 0.06824505 -0.1869658 -0.09659152
v 0.1134091 -0.2533766 0.005654516
v 0.1384708 -0.1101549 -0.130954
v 0.1199932 -0.2663581 0.03494764
v 0.2601238 -0.1493842 0.000869112
v 0.1134091 -0.2533766 0.005654516
v 0.2123905 -0.2059813 0.04309192
v 0.1199932 -0.2663581 0.03494764
v 0.04693529 -0.2937059 0.03680315
v 0.2073216 -0.1986822 0.04768334
v 0.04364077 -0.2851638 0.04083203
v -0.1169009 0.2848727 -0.2211439
v -0.1600609 0.1843964 -0.2188026
v -0.08259323 0.1323648 -0.2273982
v -0.1339538 0.2850929 -0.2190792
v -0.2577528 0.1339642 -0.1938131
v -0.1255129 0.2918968 -0.2085611
v -0.255073 0.1335437 -0.1841853
v -0.1266716 0.2937256 -0.2183266
v 0.2802639 -0.1179084 -0.01431538
v -0.1255129 0.2918968 -0.2085611
v 0.2315499 -0.06104445 -0.09554484
v 0.09778184 0.07813145 -0.1915311
v -0.00502238 0.1789082 -0.2190037
v -0.1169009 0.2848727 -0.2211439
v -0.1266716 0.2937256 -0.2183266
v 0.2123905 -0.2059813 0.04309192
v 0.2073216 -0.1986822 0.04768334
v 0.2737567 -0.1132725 -0.008297329
v 0.2802639 -0.1179084 -0.01431538
v 0.0633573 -0.09767311 -0.1704363
v -0.08259972 -0.05820166 -0.2175488
v -0.06797796 -0.09247276 -0.1991633
v 0.07474899 -0.06493003 -0.1813528
v 0.04364077 -0.2851638 0.04083203
v -0.1255129 0.2918968 -0.2085611
v 0.2073216 -0.1986822 0.04768334
v -0.255073 0.1335437 -0.1841853
v 0.1557547 -0.07886948 -0.1390892
v 0.0633573 -0.09767311 -0.1704363
v 0.1384708 -0.1101549 -0.130954
v 0.07474899 -0.06493003 -0.1813528
vn 0.07867092 0.5029569 0.8607237
vn 0.07867092 0.5029569 0.8607237
vn 0.07867091 0.5029569 0.8607237
vn 0.2343796 -0.8060588 -0.5434477
vn 0.2343796 -0.8060588 -0.5434477
vn 0.2343796 -0.8060588 -0.5434477
vn 0.3004468 -0.7337937 -0.6093264
vn 0.3004468 -0.7337936 -0.6093264
vn 0.3004468 -0.7337937 -0.6093264
vn 0.1231006 -0.02623849 -0.9920473
vn 0.1231006 -0.02623849 -0.9920473
vn 0.1231006 -0.02623849 -0.9920473
vn 0.3085462 -0.1168384 -0.9440064
vn 0.3085462 -0.1168384 -0.9440064
vn 0.3085462 -0.1168384 -0.9440064
vn 0.2324523 -0.02790294 -0.9722075
vn 0.2324522 -0.02790294 -0.9722075
vn 0.2324522 -0.02790294 -0.9722075
vn 0.462728 -0.6790507 -0.5698885
vn 0.462728 -0.6790507 -0.5698885
vn 0.462728 -0.6790507 -0.5698885
vn 0.3045449 -0.843582 -0.4422915
vn 0.3045449 -0.843582 -0.4422915
vn 0.3045449 -0.843582 -0.4422915
vn -0.1253045 -0.02270497 -0.9918585
vn -0.1253045 -0.02270497 -0.9918585
vn -0.1253045 -0.02270497 -0.9918585
vn 0.07334822 0.05733157 -0.9956571
vn 0.07334822 0.05733157 -0.9956571
vn 0.07334822 0.05733157 -0.9956571
vn -0.227777 -0.04083179 -0.9728568
vn -0.227777 -0.04083179 -0.9728568
vn -0.227777 -0.04083179 -0.9728568
vn -0.8464326 -0.4874676 0.2143065
vn -0.8464326 -0.4874676 0.2143065
vn -0.8464326 -0.4874676 0.2143065
vn 0.5444466 -0.6205986 -0.564301
vn 0.5444465 -0.6205986 -0.5643008
vn 0.5444466 -0.6205986 -0.5643009
vn 0.750519 -0.2378178 -0.6165743
vn 0.750519 -0.2378178 -0.6165744
vn 0.7505191 -0.2378178 -0.6165743
vn 0.6642929 0.7312272 0.1549895
vn 0.6642929 0.7312272 0.1549895
vn 0.6642929 0.7312272 0.1549895
vn 0.7743735 -0.2070557 0.597891
vn 0.7743735 -0.2070557 0.597891
vn 0.7743735 -0.2070557 0.597891
vn 0.1967202 -0.4205225 0.8856986
vn 0.1967203 -0.4205225 0.8856986
vn 0.1967202 -0.4205225 0.8856986
vn -0.01989769 -0.05160494 -0.9984693
vn -0.0198977 -0.05160495 -0.9984693
vn -0.01989769 -0.05160494 -0.9984693
vn 0.07148626 -0.05148622 -0.9961119
vn 0.07148626 -0.05148622 -0.9961119
vn 0.07148626 -0.05148622 -0.9961119
vn -0.5034037 -0.5653309 -0.6534415
vn -0.5034037 -0.5653309 -0.6534415
vn -0.5034037 -0.5653309 -0.6534415
vn 0.2006613 -0.3088335 -0.9297079
vn 0.2006613 -0.3088335 -0.9297079
vn 0.2006613 -0.3088335 -0.9297079
vn -0.2810916 0.07024811 -0.9571064
vn -0.2810916 0.0702481 -0.9571064
vn -0.2810916 0.0702481 -0.9571064
vn 0.2918167 -0.6000225 -0.7448598
vn 0.2918167 -0.6000225 -0.7448598
vn 0.2918167 -0.6000225 -0.7448598
vn -0.8464023 -0.4561038 0.2749045
vn -0.8464023 -0.4561038 0.2749045
vn -0.8464023 -0.4561038 0.2749045
vn -0.7654438 0.6392992 0.07343296
vn -0.7654438 0.6392992 0.07343296
vn -0.7654438 0.6392992 0.07343296
vn -0.1158482 0.182835 -0.9762942
vn -0.1158482 0.1828351 -0.9762942
vn -0.1158482 0.1828351 -0.9762942
vn 0.5272321 -0.2974975 -0.7959406
vn 0.5272321 -0.2974975 -0.7959406
vn 0.5272321 -0.2974975 -0.7959406
vn 0.4587962 -0.4523352 -0.7647869
vn 0.4587962 -0.4523352 -0.7647868
vn 0.4587962 -0.4523352 -0.7647869
vn 0.5126838 -0.09568818 -0.8532286
vn 0.5126838 -0.09568818 -0.8532286
vn 0.5126838 -0.09568818 -0.8532286
vn 0.4401625 -0.1340339 -0.887858
vn 0.4401625 -0.1340338 -0.887858
vn 0.4401625 -0.1340339 -0.8878582
vn 0.1487585 -0.5971671 -0.7882019
vn 0.1487585 -0.5971671 -0.7882019
vn 0.1487585 -0.5971671 -0.7882019
vn 0.2051104 -0.6170563 -0.7597179
vn 0.2051104 -0.6170563 -0.7597179
vn 0.2051104 -0.6170563 -0.7597179
vn 0.1992365 -0.6850938 -0.7006792
vn 0.1992365 -0.6850938 -0.7006792
vn 0.1992365 -0.6850938 -0.7006791
vn -0.5478038 -0.729387 -0.4097629
vn -0.5478038 -0.729387 -0.4097629
vn -0.5478038 -0.729387 -0.4097629
vn -0.7573546 -0.6307369 -0.169071
vn -0.7573541 -0.6307374 -0.1690717
vn -0.757354 -0.6307374 -0.1690717
vn -0.757354 -0.6307374 -0.1690717
vn -0.7573544 -0.630737 -0.169071
vn 0.4141629 -0.66883 -0.6173617
vn 0.4141628 -0.66883 -0.6173618
vn 0.4141629 -0.66883 -0.6173618
vn 0.4094847 -0.6573789 -0.632594
vn 0.5091492 -0.7386473 -0.4417773
vn 0.5091492 -0.7386473 -0.4417773
vn 0.5091492 -0.7386473 -0.4417773
vn 0.5242008 -0.7470667 -0.4087845
vn 0.1680489 -0.3874308 0.9064529
vn 0.1680489 -0.3874308 0.9064529
vn 0.1680489 -0.3874308 0.9064529
vn 0.1576391 -0.3708634 0.9152105
vn -0.0977719 0.0188113 -0.995031
vn -0.09777189 0.0188113 -0.995031
vn -0.0977719 0.0188113 -0.995031
vn -0.1197935 0.02833223 -0.9923944
vn -0.7349358 0.6370761 0.2323862
vn -0.7349358 0.6370762 0.2323862
vn -0.7349358 0.6370762 0.2323862
vn -0.7403867 0.6393245 0.2075852
vn 0.6842779 0.722914 0.09570304
vn 0.6847492 0.7227357 0.09365755
vn 0.6847492 0.7227357 0.09365754
vn 0.6847492 0.7227356 0.09365754
vn 0.6854433 0.7229223 0.08689583
vn 0.685578 0.7251424 0.06442923
vn 0.6792611 0.7317238 0.05643184
vn 0.6573065 -0.01745914 0.7534211
vn 0.6573065 -0.01745914 0.7534211
vn 0.6573065 -0.01745914 0.7534211
vn 0.6673704 -0.02925933 0.744151
vn 0.1801403 -0.4042232 -0.8967459
vn 0.1801403 -0.4042232 -0.8967459
vn 0.1801403 -0.4042232 -0.8967459
vn 0.1931962 -0.3701611 -0.9086561
vn -0.2147521 0.333737 0.9178786
vn -0.2147521 0.333737 0.9178786
vn -0.2147521 0.333737 0.9178786
vn -0.2293841 0.3287025 0.9161537
vn 0.3670207 -0.4187535 -0.830627
vn 0.3670207 -0.4187536 -0.830627
vn 0.3670207 -0.4187535 -0.830627
vn 0.366643 -0.4065581 -0.8368293
g baseball_Explode_Thin_08_Hull_0
f 3/3/3 2/2/2 1/1/1
f 6/6/6 5/5/5 4/4/4
f 9/9/9 8/8/8 7/7/7
f 12/12/12 11/11/11 10/10/10
f 15/15/15 14/14/14 13/13/13
f 18/18/18 17/17/17 16/16/16
f 21/21/21 20/20/20 19/19/19
f 24/24/24 23/23/23 22/22/22
f 27/27/27 26/26/26 25/25/25
f 30/30/30 29/29/29 28/28/28
f 33/33/33 32/32/32 31/31/31
f 36/36/36 35/35/35 34/34/34
f 39/39/39 38/38/38 37/37/37
f 42/42/42 41/41/41 40/40/40
f 45/45/45 44/44/44 43/43/43
f 48/48/48 47/47/47 46/46/46
f 51/51/51 50/50/50 49/49/49
f 54/54/54 53/53/53 52/52/52
f 57/57/57 56/56/56 55/55/55
f 60/60/60 59/59/59 58/58/58
f 63/63/63 62/62/62 61/61/61
f 66/66/66 65/65/65 64/64/64
f 69/69/69 68/68/68 67/67/67
f 72/72/72 71/71/71 70/70/70
f 75/75/75 74/74/74 73/73/73
f 78/78/78 77/77/77 76/76/76
f 81/81/81 80/80/80 79/79/79
f 84/84/84 83/83/83 82/82/82
f 87/87/87 86/86/86 85/85/85
f 90/90/90 89/89/89 88/88/88
f 93/93/93 92/92/92 91/91/91
f 96/96/96 95/95/95 94/94/94
f 99/99/99 98/98/98 97/97/97
f 102/102/102 101/101/101 100/100/100
f 105/105/105 104/104/104 103/103/103
f 104/104/104 105/105/105 106/106/106
f 106/106/106 105/105/105 107/107/107
f 110/110/110 109/109/109 108/108/108
f 108/108/108 109/109/109 111/111/111
f 114/114/114 113/113/113 112/112/112
f 112/112/112 113/113/113 115/115/115
f 118/118/118 117/117/117 116/116/116
f 117/117/117 118/118/118 119/119/119
f 122/122/122 121/121/121 120/120/120
f 120/120/120 121/121/121 123/123/123
f 126/126/126 125/125/125 124/124/124
f 124/124/124 125/125/125 127/127/127
f 130/130/130 129/129/129 128/128/128
f 129/129/129 130/130/130 131/131/131
f 129/129/129 131/131/131 132/132/132
f 129/129/129 132/132/132 133/133/133
f 129/129/129 133/133/133 134/134/134
f 137/137/137 136/136/136 135/135/135
f 138/138/138 137/137/137 135/135/135
f 141/141/141 140/140/140 139/139/139
f 140/140/140 142/142/142 139/139/139
f 145/145/145 144/144/144 143/143/143
f 144/144/144 146/146/146 143/143/143
f 149/149/149 148/148/148 147/147/147
f 148/148/148 150/150/150 147/147/147
