g baseball_Explode_Thin_05_Hull
v -0.2794 0.06768188 0.1687343
v -0.01599177 0.2431119 -0.1667496
v 0.2854107 -0.1760287 0.0679028
v 0.1592342 0.01654726 -0.1738261
v 0.1179052 0.08900543 -0.1916311
v 0.01291506 0.01129162 -0.14343
v 0.2530753 -0.212403 0.09374755
v 0.1765912 -0.2314214 0.1558466
v 0.2854107 -0.1760287 0.0679028
v 0.2850344 -0.172496 0.03527067
v 0.2377105 -0.08380887 -0.08359828
v 0.159358 -0.2008356 0.0466896
v 0.2850344 -0.172496 0.03527067
v 0.159358 -0.2008356 0.0466896
v 0.2530753 -0.212403 0.09374755
v 0.2850344 -0.172496 0.03527067
v 0.2854107 -0.1760287 0.0679028
v 0.2377105 -0.08380887 -0.08359828
v 0.2850344 -0.172496 0.03527067
v 0.2530753 -0.212403 0.09374755
v 0.2854107 -0.1760287 0.0679028
v -0.06247484 -0.001388583 -0.1044454
v 0.07533722 -0.1400326 -0.02809723
v 0.01291506 0.01129162 -0.14343
v -0.06247484 -0.001388583 -0.1044454
v -0.03706452 -0.1440578 0.03284496
v 0.07533722 -0.1400326 -0.02809723
v -0.2826106 0.07316373 0.1317035
v -0.2275196 0.005582161 0.02848108
v -0.2411542 0.108767 0.02872919
v -0.2826106 0.07316373 0.1317035
v -0.2525289 -0.03099082 0.1179554
v -0.2275196 0.005582161 0.02848108
v -0.2013935 -0.08214647 0.1087612
v -0.2275196 0.005582161 0.02848108
v -0.2525289 -0.03099082 0.1179554
v -0.2013935 -0.08214647 0.1087612
v -0.2525289 -0.03099082 0.1179554
v -0.2290644 -0.08801813 0.1825569
v -0.2013935 -0.08214647 0.1087612
v -0.05486467 -0.1972746 0.1676837
v -0.03706452 -0.1440578 0.03284496
v -0.2013935 -0.08214647 0.1087612
v -0.2290644 -0.08801813 0.1825569
v -0.05486467 -0.1972746 0.1676837
v 0.1737887 0.01666828 -0.1721
v 0.1179052 0.08900543 -0.1916311
v 0.1592342 0.01654726 -0.1738261
v 0.1737887 0.01666828 -0.1721
v 0.2377105 -0.08380887 -0.08359828
v 0.2854107 -0.1760287 0.0679028
v 0.2854107 -0.1760287 0.0679028
v 0.1179052 0.08900543 -0.1916311
v -0.01599177 0.2431119 -0.1667496
v -0.00755097 0.08054613 -0.1582881
v -0.06247484 -0.001388583 -0.1044454
v 0.01291506 0.01129162 -0.14343
v -0.00755097 0.08054613 -0.1582881
v -0.115485 0.1892465 -0.1142587
v -0.1742652 0.04276601 -0.05481593
v -0.00755097 0.08054613 -0.1582881
v -0.1742652 0.04276601 -0.05481593
v -0.06247484 -0.001388583 -0.1044454
v -0.00755097 0.08054613 -0.1582881
v -0.01599177 0.2431119 -0.1667496
v -0.115485 0.1892465 -0.1142587
v -0.00755097 0.08054613 -0.1582881
v 0.1179052 0.08900543 -0.1916311
v -0.01599177 0.2431119 -0.1667496
v -0.00755097 0.08054613 -0.1582881
v 0.01291506 0.01129162 -0.14343
v 0.1179052 0.08900543 -0.1916311
v 0.1593581 -0.2430854 0.1539484
v 0.2530753 -0.212403 0.09374755
v 0.159358 -0.2008356 0.0466896
v 0.1593581 -0.2430854 0.1539484
v 0.1765912 -0.2314214 0.1558466
v 0.2530753 -0.212403 0.09374755
v 0.1593581 -0.2430854 0.1539484
v 0.06131474 -0.2330861 0.1596704
v 0.1765912 -0.2314214 0.1558466
v -0.2511902 -0.05769082 0.1852923
v -0.2525289 -0.03099082 0.1179554
v -0.2826106 0.07316373 0.1317035
v -0.2511902 -0.05769082 0.1852923
v -0.2794 0.06768188 0.1687343
v -0.2668024 0.02139531 0.192268
v -0.2511902 -0.05769082 0.1852923
v -0.2826106 0.07316373 0.1317035
v -0.2794 0.06768188 0.1687343
v -0.2511902 -0.05769082 0.1852923
v -0.2290644 -0.08801813 0.1825569
v -0.2525289 -0.03099082 0.1179554
v 0.07133231 -0.1860519 0.03766317
v 0.07533722 -0.1400326 -0.02809723
v -0.03706452 -0.1440578 0.03284496
v 0.07133231 -0.1860519 0.03766317
v 0.159358 -0.2008356 0.0466896
v 0.07533722 -0.1400326 -0.02809723
v -0.1885944 0.145021 -0.0470631
v -0.1742652 0.04276601 -0.05481593
v -0.115485 0.1892465 -0.1142587
v -0.2794 0.06768188 0.1687343
v 0.1765912 -0.2314214 0.1558466
v -0.2668024 0.02139531 0.192268
v 0.2854107 -0.1760287 0.0679028
v 0.159358 -0.2008356 0.0466896
v 0.2377105 -0.08380887 -0.08359828
v 0.1593577 -0.08387114 -0.09115176
v 0.07533722 -0.1400326 -0.02809723
v -0.2275196 0.005582161 0.02848108
v -0.1742652 0.04276601 -0.05481593
v -0.2411542 0.108767 0.02872919
v -0.1885944 0.145021 -0.0470631
v 0.1592342 0.01654726 -0.1738261
v 0.01291506 0.01129162 -0.14343
v 0.1593577 -0.08387114 -0.09115176
v 0.07533722 -0.1400326 -0.02809723
v 0.1592342 0.01654726 -0.1738261
v 0.1593577 -0.08387114 -0.09115176
v 0.2377105 -0.08380887 -0.08359828
v 0.1737887 0.01666828 -0.1721
v -0.05486467 -0.1972746 0.1676837
v 0.1765912 -0.2314214 0.1558466
v 0.06131474 -0.2330861 0.1596704
v -0.2668024 0.02139531 0.192268
v -0.2290644 -0.08801813 0.1825569
v -0.2511902 -0.05769082 0.1852923
v -0.06247484 -0.001388583 -0.1044454
v -0.1742652 0.04276601 -0.05481593
v -0.2275196 0.005582161 0.02848108
v -0.03706452 -0.1440578 0.03284496
v -0.2013935 -0.08214647 0.1087612
v -0.2826106 0.07316373 0.1317035
v -0.01599177 0.2431119 -0.1667496
v -0.2794 0.06768188 0.1687343
v -0.2411542 0.108767 0.02872919
v -0.115485 0.1892465 -0.1142587
v -0.1885944 0.145021 -0.0470631
v 0.1593581 -0.2430854 0.1539484
v 0.159358 -0.2008356 0.0466896
v 0.06131474 -0.2330861 0.1596704
v 0.07133231 -0.1860519 0.03766317
v 0.07133231 -0.1860519 0.03766317
v -0.05486467 -0.1972746 0.1676837
v 0.06131474 -0.2330861 0.1596704
v -0.03706452 -0.1440578 0.03284496
vn 0.3959185 0.6486187 0.6500326
vn 0.3959185 0.6486187 0.6500325
vn 0.3959185 0.6486188 0.6500325
vn -0.1805592 -0.3306148 -0.9263327
vn -0.1805592 -0.3306147 -0.9263327
vn -0.1805592 -0.3306147 -0.9263327
vn 0.6319574 -0.01118767 0.7749224
vn 0.6319574 -0.01118767 0.7749224
vn 0.6319574 -0.01118767 0.7749223
vn 0.1176394 -0.7729195 -0.6235032
vn 0.1176394 -0.7729197 -0.6235031
vn 0.1176394 -0.7729197 -0.6235032
vn 0.1466656 -0.8525444 -0.5016546
vn 0.1466656 -0.8525444 -0.5016546
vn 0.1466656 -0.8525444 -0.5016546
vn 0.854273 0.5177675 0.04620076
vn 0.854273 0.5177674 0.04620075
vn 0.854273 0.5177675 0.04620075
vn 0.7146047 -0.6945356 -0.08342972
vn 0.7146047 -0.6945356 -0.08342972
vn 0.7146047 -0.6945356 -0.08342972
vn -0.2594864 -0.6508365 -0.7134975
vn -0.2594864 -0.6508365 -0.7134975
vn -0.2594864 -0.6508365 -0.7134975
vn -0.3282959 -0.6846688 -0.6507306
vn -0.3282959 -0.6846688 -0.6507306
vn -0.3282959 -0.6846688 -0.6507306
vn -0.9061767 -0.1187641 -0.4058803
vn -0.9061767 -0.1187641 -0.4058803
vn -0.9061767 -0.1187641 -0.4058803
vn -0.9130892 -0.2182527 -0.3444326
vn -0.9130892 -0.2182527 -0.3444326
vn -0.9130892 -0.2182527 -0.3444326
vn -0.6752669 -0.5972026 -0.4328552
vn -0.6752669 -0.5972026 -0.4328552
vn -0.6752669 -0.5972026 -0.4328552
vn -0.6992025 -0.6426149 -0.3133082
vn -0.6992025 -0.6426149 -0.3133082
vn -0.6992025 -0.6426149 -0.3133082
vn -0.4738969 -0.795942 -0.3766935
vn -0.473897 -0.7959419 -0.3766935
vn -0.4738969 -0.795942 -0.3766935
vn -0.5286883 -0.807217 -0.2624679
vn -0.5286883 -0.807217 -0.2624679
vn -0.5286883 -0.807217 -0.2624679
vn 0.1174086 -0.1733162 -0.9778429
vn 0.1174086 -0.1733162 -0.9778429
vn 0.1174086 -0.1733162 -0.9778429
vn 0.7621388 0.6295564 0.151007
vn 0.7849671 0.6073015 0.1225216
vn 0.7849671 0.6073015 0.1225216
vn 0.7579027 0.6331037 0.1573636
vn 0.7579027 0.6331036 0.1573635
vn 0.7579027 0.6331037 0.1573636
vn -0.3969811 -0.3031755 -0.8663087
vn -0.396981 -0.3031755 -0.8663087
vn -0.3969811 -0.3031755 -0.8663087
vn -0.4972469 -0.1474244 -0.8549922
vn -0.4972469 -0.1474244 -0.8549922
vn -0.4972469 -0.1474244 -0.8549921
vn -0.471756 -0.2411018 -0.848125
vn -0.471756 -0.2411018 -0.8481251
vn -0.471756 -0.2411018 -0.848125
vn -0.4358771 -0.06933771 -0.8973312
vn -0.4358771 -0.06933771 -0.8973312
vn -0.4358771 -0.06933771 -0.8973312
vn -0.2523491 -0.06335978 -0.9655597
vn -0.2523491 -0.06335979 -0.9655597
vn -0.2523491 -0.06335978 -0.9655597
vn -0.2304415 -0.2687483 -0.9352385
vn -0.2304415 -0.2687483 -0.9352385
vn -0.2304415 -0.2687482 -0.9352385
vn 0.06902231 -0.9282004 -0.3656227
vn 0.06902231 -0.9282004 -0.3656227
vn 0.06902231 -0.9282004 -0.3656227
vn 0.4935529 -0.7888145 0.366302
vn 0.4935529 -0.7888145 0.366302
vn 0.4935529 -0.7888145 0.366302
vn 0.03545291 -0.211332 0.9767712
vn 0.03545291 -0.211332 0.9767712
vn 0.03545291 -0.211332 0.9767712
vn -0.9601246 -0.2659039 -0.08634739
vn -0.9601246 -0.2659039 -0.08634739
vn -0.9601246 -0.2659039 -0.08634739
vn -0.9716735 -0.2025539 0.1217478
vn -0.9716735 -0.2025539 0.1217478
vn -0.9716735 -0.2025539 0.1217478
vn -0.9757101 -0.2125237 0.0531361
vn -0.9757101 -0.2125237 0.05313611
vn -0.9757101 -0.2125237 0.05313611
vn -0.7990439 -0.5642113 -0.2078328
vn -0.7990439 -0.5642113 -0.2078327
vn -0.7990439 -0.5642113 -0.2078327
vn -0.2769068 -0.7792673 -0.5621967
vn -0.2769068 -0.7792673 -0.5621967
vn -0.2769068 -0.7792673 -0.5621967
vn -0.07786697 -0.8145867 -0.5747916
vn -0.07786697 -0.8145867 -0.5747916
vn -0.07786696 -0.8145867 -0.5747916
vn -0.6642045 -0.03646556 -0.746661
vn -0.6642045 -0.03646555 -0.7466611
vn -0.6642045 -0.03646556 -0.746661
vn 0.3493921 0.498473 0.7933787
vn 0.3493921 0.498473 0.7933787
vn 0.3493921 0.498473 0.7933788
vn 0.362041 0.5185654 0.7746071
vn 0.06285485 -0.7609792 -0.6457244
vn 0.06285485 -0.7609792 -0.6457244
vn 0.06285485 -0.7609792 -0.6457244
vn 0.02410492 -0.7622653 -0.6468157
vn -0.8155126 -0.106392 -0.5688761
vn -0.8155126 -0.106392 -0.5688761
vn -0.8155126 -0.106392 -0.5688761
vn -0.8043289 -0.06795768 -0.5902853
vn -0.1362441 -0.6297741 -0.7647367
vn -0.1362441 -0.6297741 -0.7647367
vn -0.1362441 -0.6297741 -0.7647367
vn -0.1431663 -0.6366066 -0.7577832
vn 0.07472512 -0.6337693 -0.7699044
vn 0.07472511 -0.6337693 -0.7699043
vn 0.07472512 -0.6337693 -0.7699043
vn 0.09729121 -0.6222656 -0.7767368
vn 0.03454105 -0.1102057 0.9933084
vn 0.03454105 -0.1102057 0.9933084
vn 0.03454105 -0.1102057 0.9933084
vn 0.03778047 -0.07540859 0.9964367
vn 0.03778047 -0.07540859 0.9964367
vn 0.003728513 -0.0871316 0.9961898
vn -0.4948137 -0.6467045 -0.5804591
vn -0.5098999 -0.6156447 -0.6008192
vn -0.4948137 -0.6467045 -0.5804589
vn -0.4948137 -0.6467045 -0.580459
vn -0.5054841 -0.6595799 -0.5562736
vn -0.4102994 0.9001792 0.1460543
vn -0.4102997 0.9001791 0.146054
vn -0.3894079 0.905646 0.1678301
vn -0.4102997 0.9001791 0.146054
vn -0.4102998 0.9001791 0.146054
vn -0.4102967 0.90018 0.1460566
vn -0.1155029 -0.9241922 -0.3640437
vn -0.1155029 -0.9241922 -0.3640437
vn -0.1155029 -0.9241922 -0.3640437
vn -0.1175796 -0.9233172 -0.365596
vn -0.2971647 -0.8824753 -0.3645964
vn -0.2971647 -0.8824753 -0.3645964
vn -0.2971648 -0.8824753 -0.3645964
vn -0.3186477 -0.8665736 -0.3840751
g baseball_Explode_Thin_05_Hull_0
f 3/3/3 2/2/2 1/1/1
f 6/6/6 5/5/5 4/4/4
f 9/9/9 8/8/8 7/7/7
f 12/12/12 11/11/11 10/10/10
f 15/15/15 14/14/14 13/13/13
f 18/18/18 17/17/17 16/16/16
f 21/21/21 20/20/20 19/19/19
f 24/24/24 23/23/23 22/22/22
f 27/27/27 26/26/26 25/25/25
f 30/30/30 29/29/29 28/28/28
f 33/33/33 32/32/32 31/31/31
f 36/36/36 35/35/35 34/34/34
f 39/39/39 38/38/38 37/37/37
f 42/42/42 41/41/41 40/40/40
f 45/45/45 44/44/44 43/43/43
f 48/48/48 47/47/47 46/46/46
f 51/51/51 50/50/50 49/49/49
f 53/53/53 52/52/52 49/49/49
f 52/52/52 53/53/53 54/54/54
f 57/57/57 56/56/56 55/55/55
f 60/60/60 59/59/59 58/58/58
f 63/63/63 62/62/62 61/61/61
f 66/66/66 65/65/65 64/64/64
f 69/69/69 68/68/68 67/67/67
f 72/72/72 71/71/71 70/70/70
f 75/75/75 74/74/74 73/73/73
f 78/78/78 77/77/77 76/76/76
f 81/81/81 80/80/80 79/79/79
f 84/84/84 83/83/83 82/82/82
f 87/87/87 86/86/86 85/85/85
f 90/90/90 89/89/89 88/88/88
f 93/93/93 92/92/92 91/91/91
f 96/96/96 95/95/95 94/94/94
f 99/99/99 98/98/98 97/97/97
f 102/102/102 101/101/101 100/100/100
f 105/105/105 104/104/104 103/103/103
f 104/104/104 106/106/106 103/103/103
f 109/109/109 108/108/108 107/107/107
f 109/109/109 107/107/107 110/110/110
f 113/113/113 112/112/112 111/111/111
f 112/112/112 113/113/113 114/114/114
f 117/117/117 116/116/116 115/115/115
f 116/116/116 117/117/117 118/118/118
f 121/121/121 120/120/120 119/119/119
f 121/121/121 119/119/119 122/122/122
f 125/125/125 124/124/124 123/123/123
f 124/124/124 126/126/126 123/123/123
f 126/126/126 127/127/127 123/123/123
f 127/127/127 126/126/126 128/128/128
f 131/131/131 130/130/130 129/129/129
f 132/132/132 131/131/131 129/129/129
f 131/131/131 132/132/132 133/133/133
f 136/136/136 135/135/135 134/134/134
f 135/135/135 137/137/137 134/134/134
f 137/137/137 135/135/135 138/138/138
f 137/137/137 138/138/138 139/139/139
f 142/142/142 141/141/141 140/140/140
f 141/141/141 142/142/142 143/143/143
f 146/146/146 145/145/145 144/144/144
f 145/145/145 147/147/147 144/144/144
