g baseball_Explode_Thin_13_Hull
v 0.1377269 -0.1869783 -0.02535441
v 0.05736757 -0.2359754 -0.06460334
v 0.05053662 -0.2176057 -0.01713702
v 0.1124194 -0.2138806 -0.0786702
v 0.05736757 -0.2359754 -0.06460334
v 0.1377269 -0.1869783 -0.02535441
v 0.1837053 -0.1041048 0.04853284
v 0.1611057 0.1082166 0.1752696
v 0.1546108 0.1103668 0.1679713
v 0.1837053 -0.1041048 0.04853284
v 0.108105 -0.2054169 -0.08180483
v 0.1124194 -0.2138806 -0.0786702
v 0.1837053 -0.1041048 0.04853284
v 0.1546108 0.1103668 0.1679713
v 0.108105 -0.2054169 -0.08180483
v -0.01089855 0.1418373 0.2390329
v 0.108105 -0.2054169 -0.08180483
v 0.1546108 0.1103668 0.1679713
v -0.01089855 0.1418373 0.2390329
v -0.02872995 -0.2432161 -0.05453419
v 0.108105 -0.2054169 -0.08180483
v 0.1716523 -0.1003714 0.07258773
v 0.1464887 -0.03103131 0.14393
v 0.1748602 -0.008399205 0.1167041
v 0.1716523 -0.1003714 0.07258773
v 0.1748602 -0.008399205 0.1167041
v 0.1837053 -0.1041048 0.04853284
v 0.06106636 -0.1495726 0.07541505
v 0.1716523 -0.1003714 0.07258773
v 0.1736882 -0.1273999 0.03597679
v 0.06106636 -0.1495726 0.07541505
v 0.1377269 -0.1869783 -0.02535441
v 0.05053662 -0.2176057 -0.01713702
v 0.06378143 0.05040123 0.2207036
v 0.004329166 0.04883016 0.2238212
v 0.06418829 0.1143605 0.2426328
v 0.06378143 0.05040123 0.2207036
v 0.01012999 -0.06113052 0.1682636
v 0.004329166 0.04883016 0.2238212
v 0.1116899 -0.04161375 0.1527481
v 0.1464887 -0.03103131 0.14393
v 0.1716523 -0.1003714 0.07258773
v 0.1116899 -0.04161375 0.1527481
v 0.1716523 -0.1003714 0.07258773
v 0.06106636 -0.1495726 0.07541505
v 0.1116899 -0.04161375 0.1527481
v 0.100968 0.05388181 0.2129449
v 0.1464887 -0.03103131 0.14393
v 0.1334558 0.05852139 0.1951856
v 0.1464887 -0.03103131 0.14393
v 0.100968 0.05388181 0.2129449
v 0.1663197 0.06786152 0.1587407
v 0.1337713 0.102751 0.2089473
v 0.1611057 0.1082166 0.1752696
v 0.1663197 0.06786152 0.1587407
v 0.1334558 0.05852139 0.1951856
v 0.1337713 0.102751 0.2089473
v 0.1663197 0.06786152 0.1587407
v 0.1464887 -0.03103131 0.14393
v 0.1748602 -0.008399205 0.1167041
v -0.02780984 -0.252319 -0.0504888
v -0.01089855 0.1418373 0.2390329
v -0.008996076 0.1409157 0.2488106
v -0.02780984 -0.252319 -0.0504888
v -0.02872995 -0.2432161 -0.05453419
v -0.01089855 0.1418373 0.2390329
v -0.02780984 -0.252319 -0.0504888
v -0.01427769 -0.2261403 0.0006699848
v -0.02558231 -0.2521992 -0.05072598
v 0.1814312 -0.1118257 0.04732627
v 0.1716523 -0.1003714 0.07258773
v 0.1837053 -0.1041048 0.04853284
v 0.1814312 -0.1118257 0.04732627
v 0.1736882 -0.1273999 0.03597679
v 0.1716523 -0.1003714 0.07258773
v -0.006303596 0.127393 0.2470121
v 0.06418829 0.1143605 0.2426328
v 0.004329166 0.04883016 0.2238212
v -0.006303596 0.127393 0.2470121
v -0.008996076 0.1409157 0.2488106
v 0.06418829 0.1143605 0.2426328
v -0.02558231 -0.2521992 -0.05072598
v 0.05053662 -0.2176057 -0.01713702
v 0.05736757 -0.2359754 -0.06460334
v -0.01427769 -0.2261403 0.0006699848
v 0.1124194 -0.2138806 -0.0786702
v 0.1377269 -0.1869783 -0.02535441
v 0.1736882 -0.1273999 0.03597679
v 0.1837053 -0.1041048 0.04853284
v 0.1814312 -0.1118257 0.04732627
v 0.1124194 -0.2138806 -0.0786702
v 0.108105 -0.2054169 -0.08180483
v -0.02872995 -0.2432161 -0.05453419
v 0.05736757 -0.2359754 -0.06460334
v -0.02558231 -0.2521992 -0.05072598
v -0.02780984 -0.252319 -0.0504888
v 0.1611057 0.1082166 0.1752696
v -0.008996076 0.1409157 0.2488106
v 0.1546108 0.1103668 0.1679713
v -0.01089855 0.1418373 0.2390329
v 0.1611057 0.1082166 0.1752696
v 0.1337713 0.102751 0.2089473
v -0.008996076 0.1409157 0.2488106
v 0.1014778 0.1053238 0.2303213
v 0.06418829 0.1143605 0.2426328
v 0.1837053 -0.1041048 0.04853284
v 0.1748602 -0.008399205 0.1167041
v 0.1611057 0.1082166 0.1752696
v 0.1663197 0.06786152 0.1587407
v 0.06418829 0.1143605 0.2426328
v 0.1014778 0.1053238 0.2303213
v 0.100968 0.05388181 0.2129449
v 0.06378143 0.05040123 0.2207036
v 0.06106636 -0.1495726 0.07541505
v -0.01427769 -0.2261403 0.0006699848
v 0.002867374 -0.1597477 0.08673225
v 0.05053662 -0.2176057 -0.01713702
v 0.06378143 0.05040123 0.2207036
v 0.100968 0.05388181 0.2129449
v 0.01012999 -0.06113052 0.1682636
v 0.1116899 -0.04161375 0.1527481
v 0.1116899 -0.04161375 0.1527481
v 0.002867374 -0.1597477 0.08673225
v 0.01012999 -0.06113052 0.1682636
v 0.06106636 -0.1495726 0.07541505
v 0.1334558 0.05852139 0.1951856
v 0.100968 0.05388181 0.2129449
v 0.1014778 0.1053238 0.2303213
v 0.1337713 0.102751 0.2089473
v -0.02780984 -0.252319 -0.0504888
v -0.008996076 0.1409157 0.2488106
v -0.01427769 -0.2261403 0.0006699848
v 0.002867374 -0.1597477 0.08673225
v 0.01012999 -0.06113052 0.1682636
v 0.004329166 0.04883016 0.2238212
v -0.006303596 0.127393 0.2470121
vn 0.3381474 -0.86026 0.3815877
vn 0.3381474 -0.86026 0.3815877
vn 0.3381474 -0.86026 0.3815877
vn 0.41444 -0.8763476 0.2454676
vn 0.41444 -0.8763476 0.2454676
vn 0.41444 -0.8763476 0.2454676
vn 0.7397892 0.4011709 -0.540161
vn 0.7397892 0.4011709 -0.540161
vn 0.7397892 0.4011709 -0.540161
vn 0.7839659 0.1795316 -0.5942775
vn 0.783966 0.1795316 -0.5942775
vn 0.7839659 0.1795316 -0.5942775
vn 0.5665855 0.4582417 -0.6848324
vn 0.5665855 0.4582417 -0.6848324
vn 0.5665855 0.4582417 -0.6848324
vn -0.2043041 0.6256149 -0.752905
vn -0.2043041 0.6256149 -0.752905
vn -0.2043041 0.6256149 -0.752905
vn -0.3109232 0.5853083 -0.7488263
vn -0.3109232 0.5853083 -0.7488263
vn -0.3109232 0.5853083 -0.7488263
vn 0.7736515 -0.2957655 0.5603446
vn 0.7736515 -0.2957655 0.5603446
vn 0.7736515 -0.2957655 0.5603446
vn 0.8488401 -0.2524131 0.4644976
vn 0.8488401 -0.2524131 0.4644976
vn 0.8488401 -0.2524131 0.4644976
vn 0.3462231 -0.74545 0.5695909
vn 0.3462231 -0.74545 0.5695909
vn 0.3462231 -0.74545 0.5695909
vn 0.3243059 -0.7794166 0.5360367
vn 0.3243059 -0.7794166 0.5360367
vn 0.3243059 -0.7794166 0.5360367
vn 0.05807931 -0.3241112 0.9442344
vn 0.05807931 -0.3241112 0.9442344
vn 0.05807931 -0.3241113 0.9442344
vn 0.05861981 -0.4477173 0.8922516
vn 0.05861981 -0.4477173 0.8922516
vn 0.05861981 -0.4477174 0.8922516
vn 0.3631692 -0.6008595 0.7120926
vn 0.3631692 -0.6008595 0.7120926
vn 0.3631692 -0.6008595 0.7120926
vn 0.304861 -0.644944 0.7007903
vn 0.304861 -0.6449441 0.7007903
vn 0.304861 -0.6449441 0.7007903
vn 0.3486421 -0.4714733 0.8100381
vn 0.348642 -0.4714733 0.8100381
vn 0.348642 -0.4714732 0.8100381
vn 0.4848491 -0.380233 0.7876193
vn 0.4848492 -0.380233 0.7876192
vn 0.4848492 -0.380233 0.7876193
vn 0.7794814 -0.1485475 0.6085578
vn 0.7794813 -0.1485475 0.6085578
vn 0.7794814 -0.1485475 0.6085578
vn 0.7525728 -0.2005266 0.6272346
vn 0.7505723 -0.2425663 0.6146566
vn 0.7525728 -0.2005266 0.6272346
vn 0.7654858 -0.2427488 0.5959064
vn 0.7654858 -0.2427488 0.5959064
vn 0.7654858 -0.2427488 0.5959064
vn -0.97905 -0.09157922 0.1818638
vn -0.97905 -0.09157921 0.1818638
vn -0.97905 -0.09157921 0.1818638
vn -0.991555 -0.04640877 0.121099
vn -0.991555 -0.04640877 0.121099
vn -0.991555 -0.04640877 0.121099
vn 0.09434502 -0.8961455 0.4336154
vn 0.09434502 -0.8961455 0.4336154
vn 0.09434502 -0.8961455 0.4336154
vn 0.8276025 -0.3162284 0.4637604
vn 0.8276024 -0.3162284 0.4637604
vn 0.8276025 -0.3162284 0.4637604
vn 0.5597667 -0.6514785 0.5120908
vn 0.5597667 -0.6514786 0.5120908
vn 0.5597667 -0.6514786 0.5120909
vn 0.007429454 -0.2821791 0.9593329
vn 0.007429455 -0.2821791 0.9593329
vn 0.007429454 -0.2821791 0.9593329
vn 0.03863951 -0.1241785 0.9915073
vn 0.0386395 -0.1241785 0.9915073
vn 0.03863951 -0.1241785 0.9915073
vn 0.2383899 -0.8936707 0.3801616
vn 0.2383899 -0.8936708 0.3801616
vn 0.2383899 -0.8936708 0.3801616
vn 0.226881 -0.8878688 0.4002674
vn 0.9195944 -0.2199794 -0.3255078
vn 0.9195944 -0.2199795 -0.3255078
vn 0.9195944 -0.2199794 -0.3255078
vn 0.9195946 -0.2199859 -0.3255029
vn 0.9195934 -0.219982 -0.3255088
vn -0.07831669 -0.3811055 -0.9212084
vn -0.07831668 -0.3811055 -0.9212084
vn -0.07178643 -0.4105165 -0.909023
vn -0.07178643 -0.4105165 -0.909023
vn -0.07178643 -0.4105165 -0.909023
vn -0.07462451 -0.4112696 -0.9084539
vn 0.224046 0.970723 0.08660326
vn 0.224046 0.970723 0.08660325
vn 0.224046 0.970723 0.08660325
vn 0.2078931 0.9767885 0.05162002
vn 0.3411772 0.8439767 0.4138861
vn 0.3411776 0.8439752 0.4138885
vn 0.3411775 0.8439753 0.4138885
vn 0.3411775 0.8439753 0.4138885
vn 0.3411776 0.8439724 0.4138943
vn 0.9773937 0.1749224 -0.1187587
vn 0.9773937 0.1749224 -0.1187587
vn 0.9773937 0.1749224 -0.1187587
vn 0.9773933 0.1749232 -0.1187608
vn 0.2283105 -0.3136002 0.9216992
vn 0.2283105 -0.3136001 0.9216992
vn 0.2283105 -0.3136002 0.9216992
vn 0.2220632 -0.3174942 0.9218922
vn 0.2471826 -0.7903989 0.5605091
vn 0.2471825 -0.7903989 0.5605091
vn 0.2471826 -0.7903989 0.5605091
vn 0.2563865 -0.7924912 0.5533748
vn 0.2214759 -0.5001454 0.8371397
vn 0.2214759 -0.5001455 0.8371397
vn 0.2214759 -0.5001454 0.8371397
vn 0.2240441 -0.5015754 0.8355995
vn 0.2341657 -0.6296533 0.740745
vn 0.2341657 -0.6296533 0.7407449
vn 0.2341657 -0.6296534 0.7407448
vn 0.2529751 -0.6389824 0.7264332
vn 0.4908447 -0.283181 0.8239418
vn 0.4908447 -0.2831809 0.8239418
vn 0.4908447 -0.2831809 0.8239418
vn 0.5190022 -0.2573203 0.8151214
vn -0.9061856 -0.2278112 0.3562721
vn -0.9061852 -0.2278116 0.3562727
vn -0.9061855 -0.2278113 0.3562722
vn -0.9061852 -0.2278116 0.3562727
vn -0.9061852 -0.2278116 0.3562727
vn -0.9061838 -0.2278126 0.3562756
vn -0.9061792 -0.2278147 0.356286
g baseball_Explode_Thin_13_Hull_0
f 3/3/3 2/2/2 1/1/1
f 6/6/6 5/5/5 4/4/4
f 9/9/9 8/8/8 7/7/7
f 12/12/12 11/11/11 10/10/10
f 15/15/15 14/14/14 13/13/13
f 18/18/18 17/17/17 16/16/16
f 21/21/21 20/20/20 19/19/19
f 24/24/24 23/23/23 22/22/22
f 27/27/27 26/26/26 25/25/25
f 30/30/30 29/29/29 28/28/28
f 32/32/32 30/30/30 31/31/31
f 33/33/33 32/32/32 31/31/31
f 36/36/36 35/35/35 34/34/34
f 39/39/39 38/38/38 37/37/37
f 42/42/42 41/41/41 40/40/40
f 45/45/45 44/44/44 43/43/43
f 48/48/48 47/47/47 46/46/46
f 51/51/51 50/50/50 49/49/49
f 54/54/54 53/53/53 52/52/52
f 57/57/57 56/56/56 55/55/55
f 56/56/56 59/59/59 58/58/58
f 59/59/59 60/60/60 58/58/58
f 63/63/63 62/62/62 61/61/61
f 66/66/66 65/65/65 64/64/64
f 69/69/69 68/68/68 67/67/67
f 72/72/72 71/71/71 70/70/70
f 75/75/75 74/74/74 73/73/73
f 78/78/78 77/77/77 76/76/76
f 81/81/81 80/80/80 79/79/79
f 84/84/84 83/83/83 82/82/82
f 83/83/83 85/85/85 82/82/82
f 88/88/88 87/87/87 86/86/86
f 88/88/88 86/86/86 89/89/89
f 88/88/88 89/89/89 90/90/90
f 93/93/93 92/92/92 91/91/91
f 94/94/94 93/93/93 91/91/91
f 93/93/93 94/94/94 95/95/95
f 93/93/93 95/95/95 96/96/96
f 99/99/99 98/98/98 97/97/97
f 98/98/98 99/99/99 100/100/100
f 103/103/103 102/102/102 101/101/101
f 103/103/103 104/104/104 102/102/102
f 104/104/104 103/103/103 105/105/105
f 108/108/108 107/107/107 106/106/106
f 107/107/107 108/108/108 109/109/109
f 112/112/112 111/111/111 110/110/110
f 112/112/112 110/110/110 113/113/113
f 116/116/116 115/115/115 114/114/114
f 115/115/115 117/117/117 114/114/114
f 120/120/120 119/119/119 118/118/118
f 119/119/119 120/120/120 121/121/121
f 124/124/124 123/123/123 122/122/122
f 123/123/123 125/125/125 122/122/122
f 128/128/128 127/127/127 126/126/126
f 129/129/129 128/128/128 126/126/126
f 132/132/132 131/131/131 130/130/130
f 133/133/133 131/131/131 132/132/132
f 131/131/131 133/133/133 134/134/134
f 131/131/131 134/134/134 135/135/135
f 131/131/131 135/135/135 136/136/136
