g baseball_Explode_Thin_01_Hull
v -0.1894778 0.07836372 -0.1598442
v -0.1002084 0.0003304291 -0.2656333
v -0.0922232 0.09491592 -0.1494354
v -0.09222274 0.1481236 -0.008437635
v 0.006242236 0.1513611 0.08047564
v -0.09222168 0.1603686 0.163667
v -0.09222274 0.1481236 -0.008437635
v -0.2010977 0.1458789 0.0820226
v -0.1910779 0.1345321 -0.00691577
v -0.09222274 0.1481236 -0.008437635
v -0.09222168 0.1603686 0.163667
v -0.2010977 0.1458789 0.0820226
v 0.00320625 0.1141973 -0.08601206
v 0.1217214 0.1002338 -0.0041153
v 0.006242236 0.1513611 0.08047564
v 0.00320625 0.1141973 -0.08601206
v 0.006242236 0.1513611 0.08047564
v -0.09222274 0.1481236 -0.008437635
v 0.00320625 0.1141973 -0.08601206
v -0.09222274 0.1481236 -0.008437635
v -0.0922232 0.09491592 -0.1494354
v -0.1559245 0.1512832 0.1719787
v -0.2010977 0.1458789 0.0820226
v -0.09222168 0.1603686 0.163667
v -0.008889996 0.03484792 -0.2246379
v 0.00320625 0.1141973 -0.08601206
v -0.0922232 0.09491592 -0.1494354
v -0.008889996 0.03484792 -0.2246379
v -0.0922232 0.09491592 -0.1494354
v -0.1002084 0.0003304291 -0.2656333
v 0.1204533 0.07224376 -0.08989867
v 0.1217214 0.1002338 -0.0041153
v 0.00320625 0.1141973 -0.08601206
v 0.1204533 0.07224376 -0.08989867
v 0.08768032 0.01433645 -0.20509
v 0.2338361 -0.0134269 -0.1009439
v 0.252104 0.02275328 0.007791661
v 0.1204533 0.07224376 -0.08989867
v 0.2338361 -0.0134269 -0.1009439
v 0.252104 0.02275328 0.007791661
v 0.1217214 0.1002338 -0.0041153
v 0.1204533 0.07224376 -0.08989867
v 0.252104 0.02275328 0.007791661
v 0.253154 0.04252351 0.1270712
v 0.1217214 0.1002338 -0.0041153
v 0.1128971 0.1173272 0.09557446
v 0.253154 0.04252351 0.1270712
v 0.2067732 0.06065566 0.2335535
v 0.1128971 0.1173272 0.09557446
v 0.1217214 0.1002338 -0.0041153
v 0.253154 0.04252351 0.1270712
v 0.1128971 0.1173272 0.09557446
v 0.006242236 0.1513611 0.08047564
v 0.1217214 0.1002338 -0.0041153
v -0.09222243 0.1369829 0.2562795
v -0.1559245 0.1512832 0.1719787
v -0.09222168 0.1603686 0.163667
v -0.09222243 0.1369829 0.2562795
v -0.1068833 0.1265952 0.2499609
v -0.1559245 0.1512832 0.1719787
v -0.09222243 0.1369829 0.2562795
v 0.0002614635 0.1258989 0.2656175
v -0.1068833 0.1265952 0.2499609
v -0.2375383 0.1206223 -0.005759759
v -0.2010977 0.1458789 0.0820226
v -0.2503493 0.09203652 -0.04663116
v -0.2375383 0.1206223 -0.005759759
v -0.1910779 0.1345321 -0.00691577
v -0.2010977 0.1458789 0.0820226
v -0.2335157 0.09764379 -0.08737021
v -0.1910779 0.1345321 -0.00691577
v -0.2375383 0.1206223 -0.005759759
v -0.00947184 0.01344426 -0.2457664
v -0.008889996 0.03484792 -0.2246379
v -0.1002084 0.0003304291 -0.2656333
v -0.00947184 0.01344426 -0.2457664
v 0.08768032 0.01433645 -0.20509
v -0.008889996 0.03484792 -0.2246379
v 0.2350743 0.04122062 0.2399142
v 0.0847714 0.1025051 0.2625566
v 0.2067732 0.06065566 0.2335535
v 0.2350743 0.04122062 0.2399142
v 0.2295637 0.03291621 0.2390584
v 0.0847714 0.1025051 0.2625566
v 0.2350743 0.04122062 0.2399142
v 0.253154 0.04252351 0.1270712
v 0.2295637 0.03291621 0.2390584
v 0.2350743 0.04122062 0.2399142
v 0.2067732 0.06065566 0.2335535
v 0.253154 0.04252351 0.1270712
v 0.002594642 0.1473819 0.1761984
v 0.006242236 0.1513611 0.08047564
v 0.1128971 0.1173272 0.09557446
v 0.002594642 0.1473819 0.1761984
v 0.0847714 0.1025051 0.2625566
v 0.0002614635 0.1258989 0.2656175
v 0.002594642 0.1473819 0.1761984
v -0.09222168 0.1603686 0.163667
v 0.006242236 0.1513611 0.08047564
v 0.2295654 -0.02120984 -0.09633423
v 0.252104 0.02275328 0.007791661
v 0.2338361 -0.0134269 -0.1009439
v 0.2295654 -0.02120984 -0.09633423
v 0.2338361 -0.0134269 -0.1009439
v 0.08768032 0.01433645 -0.20509
v 0.2295654 -0.02120984 -0.09633423
v -0.1002084 0.0003304291 -0.2656333
v 0.2295637 0.03291621 0.2390584
v -0.2531516 0.101144 -0.04967444
v -0.2375383 0.1206223 -0.005759759
v -0.2503493 0.09203652 -0.04663116
v -0.2531516 0.101144 -0.04967444
v -0.2335157 0.09764379 -0.08737021
v -0.2375383 0.1206223 -0.005759759
v -0.1068833 0.1265952 0.2499609
v 0.0002614635 0.1258989 0.2656175
v 0.2295637 0.03291621 0.2390584
v 0.0847714 0.1025051 0.2625566
v -0.2503493 0.09203652 -0.04663116
v 0.2295637 0.03291621 0.2390584
v -0.1002084 0.0003304291 -0.2656333
v -0.1068833 0.1265952 0.2499609
v -0.1894778 0.07836372 -0.1598442
v -0.2503493 0.09203652 -0.04663116
v -0.1002084 0.0003304291 -0.2656333
v -0.2335157 0.09764379 -0.08737021
v -0.2531516 0.101144 -0.04967444
v -0.09222274 0.1481236 -0.008437635
v -0.1894778 0.07836372 -0.1598442
v -0.0922232 0.09491592 -0.1494354
v -0.1910779 0.1345321 -0.00691577
v -0.2335157 0.09764379 -0.08737021
v -0.1559245 0.1512832 0.1719787
v -0.1068833 0.1265952 0.2499609
v -0.2503493 0.09203652 -0.04663116
v -0.2010977 0.1458789 0.0820226
v -0.008889996 0.03484792 -0.2246379
v 0.08768032 0.01433645 -0.20509
v 0.00320625 0.1141973 -0.08601206
v 0.1204533 0.07224376 -0.08989867
v -0.09222243 0.1369829 0.2562795
v -0.09222168 0.1603686 0.163667
v 0.0002614635 0.1258989 0.2656175
v 0.002594642 0.1473819 0.1761984
v 0.002594642 0.1473819 0.1761984
v 0.1128971 0.1173272 0.09557446
v 0.2067732 0.06065566 0.2335535
v 0.0847714 0.1025051 0.2625566
v 0.2295654 -0.02120984 -0.09633423
v -0.00947184 0.01344426 -0.2457664
v -0.1002084 0.0003304291 -0.2656333
v 0.08768032 0.01433645 -0.20509
v 0.2295654 -0.02120984 -0.09633423
v 0.2295637 0.03291621 0.2390584
v 0.253154 0.04252351 0.1270712
v 0.252104 0.02275328 0.007791661
vn -0.06495122 0.7760862 -0.6272731
vn -0.06495122 0.7760862 -0.6272731
vn -0.06495121 0.7760862 -0.6272731
vn 0.03127355 0.9969906 -0.07093459
vn 0.03127355 0.9969906 -0.07093458
vn 0.03127355 0.9969906 -0.07093458
vn -0.1369798 0.9805546 -0.1405324
vn -0.1369798 0.9805546 -0.1405324
vn -0.1369798 0.9805546 -0.1405324
vn -0.0792804 0.9943388 -0.07074522
vn -0.0792804 0.9943388 -0.07074521
vn -0.0792804 0.9943388 -0.07074522
vn 0.2594377 0.9415455 -0.2149051
vn 0.2594377 0.9415455 -0.2149051
vn 0.2594377 0.9415455 -0.2149051
vn 0.1649895 0.9619604 -0.2177398
vn 0.1649895 0.9619604 -0.2177398
vn 0.1649895 0.9619604 -0.2177398
vn 0.04556577 0.9346277 -0.3526965
vn 0.04556577 0.9346277 -0.3526965
vn 0.04556577 0.9346277 -0.3526965
vn -0.1398137 0.9901197 0.01072712
vn -0.1398137 0.9901197 0.01072712
vn -0.1398137 0.9901197 0.01072712
vn 0.1610334 0.8504297 -0.500837
vn 0.1610334 0.8504297 -0.5008369
vn 0.1610334 0.8504296 -0.5008369
vn -0.01005582 0.7758421 -0.6308469
vn -0.01005582 0.7758421 -0.6308469
vn -0.01005583 0.7758421 -0.630847
vn 0.3127144 0.901622 -0.2988102
vn 0.3127144 0.901622 -0.2988102
vn 0.3127144 0.901622 -0.2988102
vn 0.4910654 0.7142138 -0.4987519
vn 0.4910654 0.7142138 -0.4987519
vn 0.4910654 0.7142138 -0.4987519
vn 0.5439888 0.7645342 -0.3457797
vn 0.5439888 0.7645342 -0.3457797
vn 0.5439888 0.7645342 -0.3457797
vn 0.5097038 0.8156618 -0.2736746
vn 0.5097038 0.8156619 -0.2736746
vn 0.5097038 0.8156618 -0.2736746
vn 0.5152166 0.8447815 -0.1445553
vn 0.5152166 0.8447815 -0.1445553
vn 0.5152166 0.8447815 -0.1445553
vn 0.461225 0.8858705 0.05004847
vn 0.461225 0.8858705 0.05004847
vn 0.461225 0.8858705 0.05004847
vn 0.4863251 0.8673642 -0.1056752
vn 0.4863251 0.8673642 -0.1056752
vn 0.4863251 0.8673642 -0.1056752
vn 0.3183185 0.9386404 -0.1327682
vn 0.3183185 0.9386404 -0.1327682
vn 0.3183185 0.9386404 -0.1327682
vn -0.1057419 0.9641314 0.2434532
vn -0.1057419 0.9641314 0.2434532
vn -0.1057419 0.9641314 0.2434532
vn -0.6252617 0.5394166 0.5639837
vn -0.6252617 0.5394166 0.5639837
vn -0.6252617 0.5394166 0.5639838
vn -0.1368555 -0.3666115 0.9202535
vn -0.1368555 -0.3666115 0.9202535
vn -0.1368555 -0.3666115 0.9202535
vn -0.8779464 -0.2168308 0.4268427
vn -0.8779464 -0.2168308 0.4268427
vn -0.8779464 -0.2168308 0.4268427
vn -0.2869272 0.9456595 -0.1529736
vn -0.2869272 0.9456595 -0.1529736
vn -0.2869272 0.9456595 -0.1529736
vn -0.2821519 0.9197447 -0.2728736
vn -0.2821519 0.9197447 -0.2728736
vn -0.2821519 0.9197447 -0.2728736
vn 0.05447867 0.7007232 -0.7113502
vn 0.05447867 0.7007231 -0.7113502
vn 0.05447867 0.7007231 -0.7113502
vn 0.2813694 0.6702501 -0.6867285
vn 0.2813694 0.6702501 -0.6867285
vn 0.2813694 0.6702501 -0.6867285
vn 0.384971 0.7407632 0.5505154
vn 0.384971 0.7407632 0.5505154
vn 0.384971 0.7407632 0.5505154
vn 0.08412345 -0.1572249 0.9839733
vn 0.08412345 -0.157225 0.9839733
vn 0.08412345 -0.157225 0.9839733
vn 0.8207111 -0.5574888 0.1250578
vn 0.8207111 -0.5574889 0.1250578
vn 0.8207111 -0.5574889 0.1250578
vn 0.5484222 0.8305029 0.09745737
vn 0.5484222 0.8305029 0.09745737
vn 0.5484222 0.8305029 0.09745738
vn 0.2970512 0.9535009 0.05095603
vn 0.2970512 0.953501 0.05095603
vn 0.2970512 0.953501 0.05095603
vn 0.267311 0.9353418 0.2316908
vn 0.267311 0.9353418 0.2316908
vn 0.2673109 0.9353418 0.2316908
vn 0.1295712 0.9904974 0.046112
vn 0.1295712 0.9904974 0.046112
vn 0.1295712 0.9904974 0.046112
vn 0.8792977 -0.4761524 0.01070769
vn 0.8792977 -0.4761524 0.01070769
vn 0.8792977 -0.4761524 0.01070769
vn 0.3760498 -0.6162081 -0.6920072
vn 0.3760498 -0.6162081 -0.6920072
vn 0.3760498 -0.6162081 -0.6920072
vn -0.144735 -0.9768321 0.1576416
vn -0.144735 -0.9768321 0.1576416
vn -0.144735 -0.9768321 0.1576416
vn -0.908836 -0.1495102 0.3894404
vn -0.908836 -0.1495102 0.3894404
vn -0.908836 -0.1495102 0.3894404
vn -0.3577626 0.8941132 -0.2693835
vn -0.3577627 0.8941132 -0.2693835
vn -0.3577627 0.8941132 -0.2693835
vn -0.1247381 -0.5445242 0.8294178
vn -0.1247381 -0.5445242 0.8294178
vn -0.1247381 -0.5445242 0.8294177
vn -0.1140756 -0.5226469 0.8448828
vn -0.2492393 -0.9422532 0.2236934
vn -0.2492393 -0.9422532 0.2236934
vn -0.2492393 -0.9422532 0.2236934
vn -0.2539088 -0.9389368 0.2322238
vn -0.8235054 -0.4087363 -0.3934127
vn -0.8235054 -0.4087363 -0.3934127
vn -0.8235053 -0.4087362 -0.3934127
vn -0.8270609 -0.3983685 -0.3965764
vn -0.8315023 -0.388523 -0.3970566
vn -0.1205612 0.9287753 -0.3504875
vn -0.1205612 0.9287753 -0.3504875
vn -0.1205613 0.9287753 -0.3504874
vn -0.1331285 0.9298815 -0.3429246
vn -0.1570986 0.9264997 -0.3419334
vn -0.8495272 -0.2847338 0.444106
vn -0.8495272 -0.2847338 0.444106
vn -0.8495272 -0.2847338 0.444106
vn -0.8501682 -0.2830822 0.4439352
vn 0.2752856 0.8237947 -0.4955605
vn 0.2752856 0.8237947 -0.4955604
vn 0.2752856 0.8237947 -0.4955605
vn 0.2784821 0.8239854 -0.4934528
vn 0.09109978 0.965535 0.2438093
vn 0.09109978 0.965535 0.2438093
vn 0.09109978 0.965535 0.2438093
vn 0.1013634 0.96672 0.2348994
vn 0.3537636 0.9249188 0.1391995
vn 0.3537636 0.9249188 0.1391995
vn 0.3537637 0.9249188 0.1391995
vn 0.3518201 0.9246557 0.1457205
vn 0.2377529 -0.7909849 -0.5637521
vn 0.237753 -0.7909849 -0.5637521
vn 0.2377529 -0.7909849 -0.5637521
vn 0.2496917 -0.7758919 -0.5793495
vn 0.7569637 -0.6451096 0.1041123
vn 0.7569637 -0.6451097 0.1041123
vn 0.7569637 -0.6451097 0.1041123
vn 0.7735217 -0.6263031 0.09699889
g baseball_Explode_Thin_01_Hull_0
f 3/3/3 2/2/2 1/1/1
f 6/6/6 5/5/5 4/4/4
f 9/9/9 8/8/8 7/7/7
f 12/12/12 11/11/11 10/10/10
f 15/15/15 14/14/14 13/13/13
f 18/18/18 17/17/17 16/16/16
f 21/21/21 20/20/20 19/19/19
f 24/24/24 23/23/23 22/22/22
f 27/27/27 26/26/26 25/25/25
f 30/30/30 29/29/29 28/28/28
f 33/33/33 32/32/32 31/31/31
f 36/36/36 35/35/35 34/34/34
f 39/39/39 38/38/38 37/37/37
f 42/42/42 41/41/41 40/40/40
f 45/45/45 44/44/44 43/43/43
f 48/48/48 47/47/47 46/46/46
f 51/51/51 50/50/50 49/49/49
f 54/54/54 53/53/53 52/52/52
f 57/57/57 56/56/56 55/55/55
f 60/60/60 59/59/59 58/58/58
f 63/63/63 62/62/62 61/61/61
f 66/66/66 65/65/65 64/64/64
f 69/69/69 68/68/68 67/67/67
f 72/72/72 71/71/71 70/70/70
f 75/75/75 74/74/74 73/73/73
f 78/78/78 77/77/77 76/76/76
f 81/81/81 80/80/80 79/79/79
f 84/84/84 83/83/83 82/82/82
f 87/87/87 86/86/86 85/85/85
f 90/90/90 89/89/89 88/88/88
f 93/93/93 92/92/92 91/91/91
f 96/96/96 95/95/95 94/94/94
f 99/99/99 98/98/98 97/97/97
f 102/102/102 101/101/101 100/100/100
f 105/105/105 104/104/104 103/103/103
f 108/108/108 107/107/107 106/106/106
f 111/111/111 110/110/110 109/109/109
f 114/114/114 113/113/113 112/112/112
f 117/117/117 116/116/116 115/115/115
f 116/116/116 117/117/117 118/118/118
f 121/121/121 120/120/120 119/119/119
f 120/120/120 122/122/122 119/119/119
f 125/125/125 124/124/124 123/123/123
f 123/123/123 124/124/124 126/126/126
f 126/126/126 124/124/124 127/127/127
f 130/130/130 129/129/129 128/128/128
f 129/129/129 131/131/131 128/128/128
f 131/131/131 129/129/129 132/132/132
f 135/135/135 134/134/134 133/133/133
f 136/136/136 135/135/135 133/133/133
f 139/139/139 138/138/138 137/137/137
f 138/138/138 139/139/139 140/140/140
f 143/143/143 142/142/142 141/141/141
f 142/142/142 143/143/143 144/144/144
f 147/147/147 146/146/146 145/145/145
f 148/148/148 147/147/147 145/145/145
f 151/151/151 150/150/150 149/149/149
f 150/150/150 152/152/152 149/149/149
f 155/155/155 154/154/154 153/153/153
f 156/156/156 155/155/155 153/153/153
