g baseball_Explode_Thin_03
v -0.03367676 -0.210496 0.2059241
v -0.01619591 -0.2046886 0.2150167
v -0.01396927 -0.2045689 0.2147796
v -0.01289062 -0.2160232 0.1887605
v -0.03449692 -0.2178104 0.1896521
v 0.01413734 -0.1994361 0.2102337
v 0.07016227 -0.1916099 0.1924862
v 0.06895042 -0.1883509 0.2009073
v 0.07817841 -0.1851917 0.1987828
v 0.1239819 -0.1662643 0.1868456
v 0.1281764 -0.173889 0.1604848
v 0.132706 -0.1796246 0.1322304
v 0.08351211 -0.2078916 0.1114659
v 0.1425996 -0.1797966 0.07156598
v 0.1500678 -0.1797931 0.02578288
v -0.0106089 -0.2375693 0.09554841
v -0.04125183 -0.2330741 0.126931
v -0.04526718 -0.2413852 0.09085617
v 0.09965927 -0.2076657 0.01498707
v 0.1572682 -0.1704801 -0.01756695
v 0.1085329 -0.1906966 -0.08467777
v 0.1679893 -0.1538455 -0.08187991
v 0.1774916 -0.1248284 -0.1376691
v 0.1828668 -0.1102172 -0.169382
v -0.007176971 -0.2405271 -5.022049E-05
v -0.006484451 -0.2283257 -0.08821367
v -0.05359985 -0.244061 0.03909012
v -0.06150406 -0.2453938 -0.008103671
v -0.06853157 -0.2415026 -0.04201647
v -0.07839248 -0.2354871 -0.0887223
v 0.1070585 -0.1623117 -0.1702582
v -0.07218254 -0.2213356 -0.1356318
v -0.08714935 -0.2262172 -0.1239723
v -0.009908142 -0.2048317 -0.1666186
v -0.03493843 -0.2082344 -0.1647702
v -0.02226219 -0.2024041 -0.1748668
v -0.01166016 -0.1976412 -0.1832964
v 0.05080414 -0.1592429 -0.2136297
v 0.02395981 -0.169817 -0.2131617
v 0.09699829 -0.1424765 -0.2150167
v 0.1502554 -0.1072261 -0.2101395
v 0.1893716 -0.0821154 -0.2068745
v -0.01711552 -0.195589 0.2109728
v -0.03459631 -0.2013965 0.2018802
v -0.01551937 -0.195551 0.2107455
v -0.01459583 -0.2066731 0.1856512
v 0.01173456 -0.1905281 0.206377
v 0.0668613 -0.1826937 0.1893871
v 0.0659219 -0.1796177 0.1970917
v 0.07400705 -0.1767295 0.1954676
v 0.1196691 -0.1578037 0.1837122
v 0.1240448 -0.1651823 0.1578161
v 0.1283676 -0.1707869 0.1304776
v -0.03540809 -0.2083575 0.1865195
v 0.07990484 -0.1986769 0.1100248
v 0.1378971 -0.1710052 0.07079245
v 0.1452075 -0.1710547 0.02591615
v -0.01245834 -0.2278282 0.09424774
v -0.04211515 -0.223365 0.1246974
v -0.04620838 -0.23149 0.08976096
v 0.09570082 -0.1984876 0.01529027
v 0.1522027 -0.1619288 -0.01646444
v 0.1043301 -0.1818753 -0.08255099
v 0.1628006 -0.1456615 -0.07941016
v 0.172098 -0.1168998 -0.1348326
v 0.1776233 -0.1026526 -0.1654727
v -0.009201731 -0.2307472 0.0004540595
v -0.008592627 -0.2187841 -0.08608874
v -0.0545896 -0.2341139 0.03881433
v -0.06250615 -0.2354736 -0.007338582
v -0.06958149 -0.2316566 -0.04061823
v -0.07937454 -0.2257829 -0.08651689
v 0.1027849 -0.1540497 -0.1665871
v -0.07319956 -0.2117942 -0.1328161
v -0.08812129 -0.2166538 -0.121216
v -0.01202173 -0.1957116 -0.1631033
v -0.0359905 -0.1987954 -0.1616402
v -0.02317978 -0.1933078 -0.1708152
v -0.01427213 -0.1888798 -0.1792446
v 0.04779376 -0.1507538 -0.2092853
v 0.02066617 -0.1612772 -0.2091338
v 0.0928933 -0.1345173 -0.2105669
v 0.1451527 -0.09992925 -0.2055878
v 0.1843041 -0.0748182 -0.2022843
v -0.03449692 -0.2178104 0.1896521
v -0.03459631 -0.2013965 0.2018802
v -0.03367676 -0.210496 0.2059241
v -0.03540809 -0.2083575 0.1865195
v -0.04125183 -0.2330741 0.126931
v -0.04211515 -0.223365 0.1246974
v -0.04526718 -0.2413852 0.09085617
v -0.04620838 -0.23149 0.08976096
v -0.05359985 -0.244061 0.03909012
v -0.0545896 -0.2341139 0.03881433
v -0.06150406 -0.2453938 -0.008103671
v -0.06250615 -0.2354736 -0.007338582
v -0.06853157 -0.2415026 -0.04201647
v -0.06958149 -0.2316566 -0.04061823
v -0.07839248 -0.2354871 -0.0887223
v -0.07937454 -0.2257829 -0.08651689
v -0.08714935 -0.2262172 -0.1239723
v -0.08812129 -0.2166538 -0.121216
v -0.01711552 -0.195589 0.2109728
v -0.03367676 -0.210496 0.2059241
v -0.03459631 -0.2013965 0.2018802
v -0.01619591 -0.2046886 0.2150167
v -0.01551937 -0.195551 0.2107455
v -0.01396927 -0.2045689 0.2147796
v 0.01173456 -0.1905281 0.206377
v 0.01413734 -0.1994361 0.2102337
v 0.0659219 -0.1796177 0.1970917
v 0.06895042 -0.1883509 0.2009073
v 0.07400705 -0.1767295 0.1954676
v 0.07817841 -0.1851917 0.1987828
v 0.1196691 -0.1578037 0.1837122
v 0.1239819 -0.1662643 0.1868456
v 0.1451527 -0.09992925 -0.2055878
v 0.1893716 -0.0821154 -0.2068745
v 0.1843041 -0.0748182 -0.2022843
v 0.1502554 -0.1072261 -0.2101395
v 0.0928933 -0.1345173 -0.2105669
v 0.09699829 -0.1424765 -0.2150167
v 0.04779376 -0.1507538 -0.2092853
v 0.05080414 -0.1592429 -0.2136297
v 0.02066617 -0.1612772 -0.2091338
v 0.02395981 -0.169817 -0.2131617
v -0.01427213 -0.1888798 -0.1792446
v -0.01166016 -0.1976412 -0.1832964
v -0.02317978 -0.1933078 -0.1708152
v -0.02226219 -0.2024041 -0.1748668
v -0.0359905 -0.1987954 -0.1616402
v -0.03493843 -0.2082344 -0.1647702
v -0.07319956 -0.2117942 -0.1328161
v -0.07218254 -0.2213356 -0.1356318
v -0.08812129 -0.2166538 -0.121216
v -0.08714935 -0.2262172 -0.1239723
v 0.1828668 -0.1102172 -0.169382
v 0.1843041 -0.0748182 -0.2022843
v 0.1893716 -0.0821154 -0.2068745
v 0.1776233 -0.1026526 -0.1654727
v 0.1774916 -0.1248284 -0.1376691
v 0.172098 -0.1168998 -0.1348326
v 0.1679893 -0.1538455 -0.08187991
v 0.1628006 -0.1456615 -0.07941016
v 0.1572682 -0.1704801 -0.01756695
v 0.1522027 -0.1619288 -0.01646444
v 0.1500678 -0.1797931 0.02578288
v 0.1452075 -0.1710547 0.02591615
v 0.1425996 -0.1797966 0.07156598
v 0.1378971 -0.1710052 0.07079245
v 0.132706 -0.1796246 0.1322304
v 0.1283676 -0.1707869 0.1304776
v 0.1281764 -0.173889 0.1604848
v 0.1240448 -0.1651823 0.1578161
v 0.1239819 -0.1662643 0.1868456
v 0.1196691 -0.1578037 0.1837122
vt 0.7568097 0.2853365
vt 0.7483774 0.280655
vt 0.7473112 0.2807515
vt 0.7469401 0.2936596
vt 0.7572942 0.2934234
vt 0.7334108 0.2819974
vt 0.7059004 0.2896212
vt 0.7064266 0.2853514
vt 0.7015505 0.285864
vt 0.6773943 0.2902471
vt 0.6755501 0.3042811
vt 0.6735399 0.3179666
vt 0.6999443 0.328859
vt 0.6684841 0.3491364
vt 0.665244 0.3709502
vt 0.7464199 0.3369747
vt 0.7609192 0.3226379
vt 0.7628382 0.3391718
vt 0.6928938 0.3748371
vt 0.6617364 0.3918987
vt 0.689026 0.4228038
vt 0.6563455 0.4258551
vt 0.6507084 0.4573271
vt 0.647648 0.4738752
vt 0.7455064 0.3803991
vt 0.7452895 0.4208189
vt 0.767161 0.3627051
vt 0.7708797 0.3838412
vt 0.7742016 0.3993555
vt 0.7788299 0.4204475
vt 0.6896138 0.4656295
vt 0.7759537 0.4424418
vt 0.7829296 0.4368613
vt 0.7469461 0.4580982
vt 0.7586135 0.4568551
vt 0.7527118 0.4620239
vt 0.7477819 0.4664082
vt 0.7169997 0.4860727
vt 0.7302087 0.4839755
vt 0.6943574 0.4890202
vt 0.6646892 0.4940157
vt 0.6431059 0.4966204
vt 0.7483774 0.280655
vt 0.7568097 0.2853365
vt 0.7473112 0.2807515
vt 0.7469401 0.2936596
vt 0.7334108 0.2819974
vt 0.7059004 0.2896212
vt 0.7064266 0.2853514
vt 0.7015505 0.285864
vt 0.6773943 0.2902471
vt 0.6755501 0.3042811
vt 0.6735399 0.3179666
vt 0.7572942 0.2934234
vt 0.6999443 0.328859
vt 0.6684841 0.3491364
vt 0.665244 0.3709502
vt 0.7464199 0.3369747
vt 0.7609192 0.3226379
vt 0.7628382 0.3391718
vt 0.6928938 0.3748371
vt 0.6617364 0.3918987
vt 0.689026 0.4228038
vt 0.6563455 0.4258551
vt 0.6507084 0.4573271
vt 0.647648 0.4738752
vt 0.7455064 0.3803991
vt 0.7452895 0.4208189
vt 0.767161 0.3627051
vt 0.7708797 0.3838412
vt 0.7742016 0.3993555
vt 0.7788299 0.4204475
vt 0.6896138 0.4656295
vt 0.7759537 0.4424418
vt 0.7829296 0.4368613
vt 0.7469461 0.4580982
vt 0.7586135 0.4568551
vt 0.7527118 0.4620239
vt 0.7477819 0.4664082
vt 0.7169997 0.4860727
vt 0.7302087 0.4839755
vt 0.6943574 0.4890202
vt 0.6646892 0.4940157
vt 0.6431059 0.4966204
vt 0.7572942 0.2934234
vt 0.7568097 0.2853365
vt 0.7568097 0.2853365
vt 0.7572942 0.2934234
vt 0.7609192 0.3226379
vt 0.7609192 0.3226379
vt 0.7628382 0.3391718
vt 0.7628382 0.3391718
vt 0.767161 0.3627051
vt 0.767161 0.3627051
vt 0.7708797 0.3838412
vt 0.7708797 0.3838412
vt 0.7742016 0.3993555
vt 0.7742016 0.3993555
vt 0.7788299 0.4204475
vt 0.7788299 0.4204475
vt 0.7829296 0.4368613
vt 0.7829296 0.4368613
vt 0.7483774 0.280655
vt 0.7568097 0.2853365
vt 0.7568097 0.2853365
vt 0.7483774 0.280655
vt 0.7473112 0.2807515
vt 0.7473112 0.2807515
vt 0.7334108 0.2819974
vt 0.7334108 0.2819974
vt 0.7064266 0.2853514
vt 0.7064266 0.2853514
vt 0.7015505 0.285864
vt 0.7015505 0.285864
vt 0.6773943 0.2902471
vt 0.6773943 0.2902471
vt 0.6646892 0.4940157
vt 0.6431059 0.4966204
vt 0.6431059 0.4966204
vt 0.6646892 0.4940157
vt 0.6943574 0.4890202
vt 0.6943574 0.4890202
vt 0.7169997 0.4860727
vt 0.7169997 0.4860727
vt 0.7302087 0.4839755
vt 0.7302087 0.4839755
vt 0.7477819 0.4664082
vt 0.7477819 0.4664082
vt 0.7527118 0.4620239
vt 0.7527118 0.4620239
vt 0.7586135 0.4568551
vt 0.7586135 0.4568551
vt 0.7759537 0.4424418
vt 0.7759537 0.4424418
vt 0.7829296 0.4368613
vt 0.7829296 0.4368613
vt 0.647648 0.4738752
vt 0.6431059 0.4966204
vt 0.6431059 0.4966204
vt 0.647648 0.4738752
vt 0.6507084 0.4573271
vt 0.6507084 0.4573271
vt 0.6563455 0.4258551
vt 0.6563455 0.4258551
vt 0.6617364 0.3918987
vt 0.6617364 0.3918987
vt 0.665244 0.3709502
vt 0.665244 0.3709502
vt 0.6684841 0.3491364
vt 0.6684841 0.3491364
vt 0.6735399 0.3179666
vt 0.6735399 0.3179666
vt 0.6755501 0.3042811
vt 0.6755501 0.3042811
vt 0.6773943 0.2902471
vt 0.6773943 0.2902471
vn 0.09195577 -0.9099499 0.4043949
vn 0.09196132 -0.9099534 0.4043859
vn 0.1550101 -0.9017913 0.4034158
vn 0.1705208 -0.935009 0.3109355
vn 0.09111769 -0.9452837 0.3132671
vn 0.2402779 -0.8907999 0.3856708
vn 0.3300973 -0.8916218 0.3099136
vn 0.3028523 -0.8733208 0.3815642
vn 0.417136 -0.846222 0.3315204
vn 0.4312797 -0.8460579 0.3133429
vn 0.4131629 -0.8706773 0.2668663
vn 0.4338369 -0.8837774 0.1752802
vn 0.3607277 -0.9214715 0.1441039
vn 0.4702487 -0.8791375 0.0773529
vn 0.4860302 -0.8738404 -0.01332683
vn 0.1849441 -0.9741038 0.1300672
vn 0.08633206 -0.9709035 0.223368
vn 0.09411986 -0.9895183 0.1095211
vn 0.395845 -0.9178166 -0.03032067
vn 0.5065491 -0.8551331 -0.1102516
vn 0.4202734 -0.8821216 -0.2126779
vn 0.518867 -0.8184011 -0.2469749
vn 0.5393569 -0.792865 -0.2836533
vn 0.5243472 -0.7564608 -0.390931
vn 0.202476 -0.977988 -0.05042801
vn 0.2108176 -0.9541503 -0.212493
vn 0.09897501 -0.9947076 0.02757954
vn 0.1002094 -0.9920204 -0.07650893
vn 0.1049924 -0.9845943 -0.1398232
vn 0.09820612 -0.9704214 -0.2205399
vn 0.4273546 -0.8261976 -0.3671042
vn 0.1017023 -0.9541382 -0.2815618
vn 0.09719477 -0.9563351 -0.2756381
vn 0.2113588 -0.9120082 -0.3515229
vn 0.1052074 -0.9439075 -0.3130014
vn 0.09175879 -0.9096306 -0.4051573
vn 0.2611977 -0.8761326 -0.4051758
vn 0.3010375 -0.8489017 -0.4344451
vn 0.3293644 -0.8539799 -0.4027871
vn 0.4104981 -0.7959153 -0.4449834
vn 0.5102745 -0.7296848 -0.4551702
vn 0.5067586 -0.7297196 -0.4590262
vn -0.08144009 0.903603 -0.4205582
vn -0.08994206 0.9090112 -0.4069509
vn -0.152057 0.900263 -0.4079282
vn -0.1696994 0.9347968 -0.3120209
vn -0.2402673 0.8897758 -0.3880345
vn -0.3303955 0.8908272 -0.3118745
vn -0.3050967 0.8710465 -0.3849598
vn -0.4176957 0.8438435 -0.336836
vn -0.4321651 0.8452285 -0.31436
vn -0.4141276 0.8700168 -0.2675241
vn -0.4345931 0.8833786 -0.1754168
vn -0.08941814 0.9449936 -0.3146292
vn -0.361187 0.9212675 -0.1442574
vn -0.471845 0.8782216 -0.07803371
vn -0.4870642 0.873264 0.01335669
vn -0.1840816 0.9742474 -0.1302156
vn -0.08353791 0.9710716 -0.223699
vn -0.09263162 0.9895955 -0.1100917
vn -0.3963711 0.9175915 0.03026277
vn -0.5074632 0.8546226 0.1100054
vn -0.4207572 0.881928 0.2125238
vn -0.5198765 0.8180492 0.2460161
vn -0.5426603 0.7917165 0.2805436
vn -0.5251379 0.755738 0.3912677
vn -0.2017892 0.9781316 0.05039709
vn -0.2101515 0.9542808 0.2125666
vn -0.0972629 0.9948714 -0.02776533
vn -0.0990136 0.9921598 0.07625693
vn -0.1036845 0.9847494 0.1397075
vn -0.09737039 0.9705032 0.2205507
vn -0.4273244 0.825925 0.3677522
vn -0.1006075 0.9541058 0.2820644
vn -0.09686744 0.9562631 0.2760029
vn -0.2099555 0.9118693 0.3527223
vn -0.101996 0.9430258 0.3167004
vn -0.08540483 0.9094101 0.4070373
vn -0.2587042 0.8761795 0.4066715
vn -0.3002135 0.8484181 0.4359572
vn -0.3288901 0.853642 0.4038893
vn -0.4100201 0.7957906 0.4456466
vn -0.5107031 0.7288884 0.4559649
vn -0.5066324 0.7294413 0.4596075
vn -0.9929643 -0.0614107 0.1012459
vn -0.9945362 -0.06617291 0.08074076
vn -0.9947035 -0.065212 0.07944956
vn -0.9928493 -0.06215948 0.1019133
vn -0.9906269 -0.0595706 0.1229214
vn -0.9903983 -0.06140727 0.1238563
vn -0.9861708 -0.07562131 0.1474745
vn -0.9858289 -0.07839389 0.1483104
vn -0.9817564 -0.0919877 0.1664111
vn -0.9814496 -0.09429172 0.1669301
vn -0.9773521 -0.1113 0.1799869
vn -0.9769611 -0.1141429 0.1803288
vn -0.9732535 -0.1291554 0.1899908
vn -0.9728914 -0.1314677 0.1902592
vn -0.9702715 -0.1419958 0.1959862
vn -0.9700277 -0.1437259 0.195931
vn -0.9670135 -0.1545027 0.202519
vn -0.9666844 -0.1566044 0.2024751
vn -0.2120755 0.3788932 0.9008129
vn -0.5170994 0.3034225 0.8003393
vn -0.5171009 0.3034247 0.8003375
vn -0.2304606 0.3787754 0.8963354
vn 0.09057486 0.4156353 0.9050102
vn 0.07153314 0.416965 0.9061034
vn 0.07169164 0.4130715 0.9078724
vn 0.07184229 0.4129607 0.9079109
vn 0.05283477 0.4147231 0.9084125
vn 0.06335447 0.4111136 0.90938
vn 0.06398902 0.3989403 0.9147415
vn 0.07436857 0.3943424 0.9159495
vn 0.08060996 0.3840138 0.9198018
vn 0.08177598 0.3825308 0.9203168
vn -0.1934996 0.4185706 -0.8873312
vn -0.1953186 0.4208479 -0.8858542
vn -0.1954983 0.421313 -0.8855934
vn -0.1930695 0.4176416 -0.8878624
vn -0.1799587 0.4085004 -0.894842
vn -0.1795404 0.4070697 -0.8955777
vn -0.1669631 0.4023703 -0.9001231
vn -0.1668177 0.3980969 -0.902048
vn -0.4449507 0.2399454 -0.8628123
vn -0.445267 0.2386487 -0.8630087
vn -0.7015938 0.1132524 -0.7035198
vn -0.6936669 0.1442627 -0.7057013
vn -0.6606199 0.2273174 -0.7154775
vn -0.6560544 0.2374162 -0.7163981
vn -0.6465119 0.1882061 -0.7393246
vn -0.6505101 0.1712635 -0.7399361
vn -0.6394808 0.155557 -0.7529053
vn -0.6396307 0.1537654 -0.7531459
vn -0.637691 0.15337 -0.7548695
vn -0.6378617 0.1527385 -0.7548532
vn 0.8418825 0.3850518 0.3781123
vn 0.8486441 0.3412252 0.4041889
vn 0.8510509 0.3385251 0.401389
vn 0.8391854 0.3893526 0.3797004
vn 0.828231 0.4319274 0.3570323
vn 0.8269276 0.4334534 0.3582023
vn 0.8420135 0.441023 0.3106639
vn 0.8424255 0.4412397 0.3092359
vn 0.8466561 0.468537 0.2522825
vn 0.8465323 0.4686809 0.2524308
vn 0.8588672 0.4750144 0.1915941
vn 0.8590959 0.4746524 0.1914667
vn 0.8677183 0.4767719 0.1405468
vn 0.8683559 0.4756447 0.1404286
vn 0.8855227 0.4547752 0.09502151
vn 0.8863013 0.4531203 0.09566566
vn 0.8983139 0.4379643 0.03491808
vn 0.8973317 0.4399928 0.03467058
vn 0.8909169 0.4537752 0.018843
vn 0.8878897 0.4596615 0.01905585
g baseball_Explode_Thin_03_0
f 3/3/3 2/2/2 1/1/1
f 4/4/4 3/3/3 1/1/1
f 5/5/5 4/4/4 1/1/1
f 4/4/4 6/6/6 3/3/3
f 4/4/4 7/7/7 6/6/6
f 8/8/8 6/6/6 7/7/7
f 7/7/7 9/9/9 8/8/8
f 9/9/9 7/7/7 10/10/10
f 11/11/11 10/10/10 7/7/7
f 11/11/11 7/7/7 12/12/12
f 13/13/13 12/12/12 7/7/7
f 13/13/13 7/7/7 4/4/4
f 14/14/14 12/12/12 13/13/13
f 14/14/14 13/13/13 15/15/15
f 4/4/4 5/5/5 16/16/16
f 16/16/16 13/13/13 4/4/4
f 17/17/17 16/16/16 5/5/5
f 17/17/17 18/18/18 16/16/16
f 19/19/19 15/15/15 13/13/13
f 19/19/19 13/13/13 16/16/16
f 15/15/15 19/19/19 20/20/20
f 21/21/21 20/20/20 19/19/19
f 21/21/21 22/22/22 20/20/20
f 23/23/23 22/22/22 21/21/21
f 23/23/23 21/21/21 24/24/24
f 16/16/16 18/18/18 25/25/25
f 16/16/16 25/25/25 19/19/19
f 21/21/21 19/19/19 25/25/25
f 25/25/25 26/26/26 21/21/21
f 27/27/27 25/25/25 18/18/18
f 27/27/27 28/28/28 25/25/25
f 25/25/25 28/28/28 26/26/26
f 29/29/29 26/26/26 28/28/28
f 29/29/29 30/30/30 26/26/26
f 31/31/31 24/24/24 21/21/21
f 31/31/31 21/21/21 26/26/26
f 26/26/26 30/30/30 32/32/32
f 33/33/33 32/32/32 30/30/30
f 26/26/26 32/32/32 34/34/34
f 26/26/26 34/34/34 31/31/31
f 35/35/35 34/34/34 32/32/32
f 34/34/34 35/35/35 36/36/36
f 36/36/36 37/37/37 34/34/34
f 34/34/34 37/37/37 38/38/38
f 34/34/34 38/38/38 31/31/31
f 39/39/39 38/38/38 37/37/37
f 40/40/40 31/31/31 38/38/38
f 31/31/31 40/40/40 41/41/41
f 31/31/31 41/41/41 24/24/24
f 42/42/42 24/24/24 41/41/41
f 45/45/45 44/44/44 43/43/43
f 46/46/46 44/44/44 45/45/45
f 46/46/46 45/45/45 47/47/47
f 46/46/46 47/47/47 48/48/48
f 49/49/49 48/48/48 47/47/47
f 48/48/48 49/49/49 50/50/50
f 50/50/50 51/51/51 48/48/48
f 52/52/52 48/48/48 51/51/51
f 52/52/52 53/53/53 48/48/48
f 54/54/54 44/44/44 46/46/46
f 55/55/55 48/48/48 53/53/53
f 55/55/55 46/46/46 48/48/48
f 56/56/56 55/55/55 53/53/53
f 56/56/56 57/57/57 55/55/55
f 46/46/46 58/58/58 54/54/54
f 58/58/58 46/46/46 55/55/55
f 59/59/59 54/54/54 58/58/58
f 59/59/59 58/58/58 60/60/60
f 61/61/61 55/55/55 57/57/57
f 61/61/61 58/58/58 55/55/55
f 57/57/57 62/62/62 61/61/61
f 63/63/63 61/61/61 62/62/62
f 63/63/63 62/62/62 64/64/64
f 65/65/65 63/63/63 64/64/64
f 65/65/65 66/66/66 63/63/63
f 58/58/58 67/67/67 60/60/60
f 58/58/58 61/61/61 67/67/67
f 63/63/63 67/67/67 61/61/61
f 67/67/67 63/63/63 68/68/68
f 69/69/69 60/60/60 67/67/67
f 69/69/69 67/67/67 70/70/70
f 67/67/67 68/68/68 70/70/70
f 71/71/71 70/70/70 68/68/68
f 71/71/71 68/68/68 72/72/72
f 73/73/73 63/63/63 66/66/66
f 73/73/73 68/68/68 63/63/63
f 68/68/68 74/74/74 72/72/72
f 75/75/75 72/72/72 74/74/74
f 68/68/68 76/76/76 74/74/74
f 68/68/68 73/73/73 76/76/76
f 77/77/77 74/74/74 76/76/76
f 76/76/76 78/78/78 77/77/77
f 78/78/78 76/76/76 79/79/79
f 76/76/76 80/80/80 79/79/79
f 76/76/76 73/73/73 80/80/80
f 81/81/81 79/79/79 80/80/80
f 82/82/82 80/80/80 73/73/73
f 73/73/73 83/83/83 82/82/82
f 73/73/73 66/66/66 83/83/83
f 84/84/84 83/83/83 66/66/66
f 87/87/87 86/86/86 85/85/85
f 88/88/88 85/85/85 86/86/86
f 85/85/85 88/88/88 89/89/89
f 90/90/90 89/89/89 88/88/88
f 89/89/89 90/90/90 91/91/91
f 92/92/92 91/91/91 90/90/90
f 91/91/91 92/92/92 93/93/93
f 94/94/94 93/93/93 92/92/92
f 93/93/93 94/94/94 95/95/95
f 96/96/96 95/95/95 94/94/94
f 95/95/95 96/96/96 97/97/97
f 98/98/98 97/97/97 96/96/96
f 97/97/97 98/98/98 99/99/99
f 100/100/100 99/99/99 98/98/98
f 99/99/99 100/100/100 101/101/101
f 102/102/102 101/101/101 100/100/100
f 105/105/105 104/104/104 103/103/103
f 106/106/106 103/103/103 104/104/104
f 103/103/103 106/106/106 107/107/107
f 108/108/108 107/107/107 106/106/106
f 107/107/107 108/108/108 109/109/109
f 110/110/110 109/109/109 108/108/108
f 109/109/109 110/110/110 111/111/111
f 112/112/112 111/111/111 110/110/110
f 111/111/111 112/112/112 113/113/113
f 114/114/114 113/113/113 112/112/112
f 113/113/113 114/114/114 115/115/115
f 116/116/116 115/115/115 114/114/114
f 119/119/119 118/118/118 117/117/117
f 120/120/120 117/117/117 118/118/118
f 117/117/117 120/120/120 121/121/121
f 122/122/122 121/121/121 120/120/120
f 121/121/121 122/122/122 123/123/123
f 124/124/124 123/123/123 122/122/122
f 123/123/123 124/124/124 125/125/125
f 126/126/126 125/125/125 124/124/124
f 125/125/125 126/126/126 127/127/127
f 128/128/128 127/127/127 126/126/126
f 127/127/127 128/128/128 129/129/129
f 130/130/130 129/129/129 128/128/128
f 129/129/129 130/130/130 131/131/131
f 132/132/132 131/131/131 130/130/130
f 131/131/131 132/132/132 133/133/133
f 134/134/134 133/133/133 132/132/132
f 133/133/133 134/134/134 135/135/135
f 136/136/136 135/135/135 134/134/134
f 139/139/139 138/138/138 137/137/137
f 140/140/140 137/137/137 138/138/138
f 137/137/137 140/140/140 141/141/141
f 142/142/142 141/141/141 140/140/140
f 141/141/141 142/142/142 143/143/143
f 144/144/144 143/143/143 142/142/142
f 143/143/143 144/144/144 145/145/145
f 146/146/146 145/145/145 144/144/144
f 145/145/145 146/146/146 147/147/147
f 148/148/148 147/147/147 146/146/146
f 147/147/147 148/148/148 149/149/149
f 150/150/150 149/149/149 148/148/148
f 149/149/149 150/150/150 151/151/151
f 152/152/152 151/151/151 150/150/150
f 151/151/151 152/152/152 153/153/153
f 154/154/154 153/153/153 152/152/152
f 153/153/153 154/154/154 155/155/155
f 156/156/156 155/155/155 154/154/154
