g baseball_Explode_Thin_03_Hull
v 0.02065507 -0.1612679 -0.2092111
v 0.1843538 -0.07477677 -0.202359
v -0.08817282 -0.2166651 -0.1212606
v -0.03462793 -0.2014021 0.2019556
v -0.08817282 -0.2166651 -0.1212606
v 0.1843538 -0.07477677 -0.202359
v -0.06857581 -0.2415231 -0.04203165
v -0.04530277 -0.2414057 0.09089036
v -0.00719841 -0.2405472 -4.980542E-05
v -0.08720051 -0.226232 -0.124018
v -0.009930596 -0.2048385 -0.1666801
v -0.01168326 -0.1976454 -0.183364
v 0.1894232 -0.08207669 -0.206951
v 0.1240092 -0.1662569 0.1869155
v 0.1843538 -0.07477677 -0.202359
v 0.1894232 -0.08207669 -0.206951
v 0.1843538 -0.07477677 -0.202359
v 0.02065507 -0.1612679 -0.2092111
v 0.02394994 -0.1698108 -0.2132405
v -0.08720051 -0.226232 -0.124018
v -0.01168326 -0.1976454 -0.183364
v 0.1196948 -0.1577931 0.1837809
v 0.1843538 -0.07477677 -0.202359
v 0.1240092 -0.1662569 0.1869155
v 0.07016957 -0.1916119 0.1925582
v 0.1327365 -0.1796221 0.13228
v 0.08352437 -0.2078997 0.1115077
v 0.07016957 -0.1916119 0.1925582
v 0.1240092 -0.1662569 0.1869155
v 0.1327365 -0.1796221 0.13228
v 0.07016957 -0.1916119 0.1925582
v -0.03452851 -0.2178221 0.189723
v -0.0162207 -0.2046954 0.215097
v -0.006505632 -0.2283413 -0.08824602
v -0.08720051 -0.226232 -0.124018
v -0.06857581 -0.2415231 -0.04203165
v -0.006505632 -0.2283413 -0.08824602
v -0.009930596 -0.2048385 -0.1666801
v -0.08720051 -0.226232 -0.124018
v -0.006505632 -0.2283413 -0.08824602
v -0.06857581 -0.2415231 -0.04203165
v -0.00719841 -0.2405472 -4.980542E-05
v -0.03370805 -0.210505 0.206001
v -0.0162207 -0.2046954 0.215097
v -0.03452851 -0.2178221 0.189723
v -0.03370805 -0.210505 0.206001
v -0.08720051 -0.226232 -0.124018
v -0.08817282 -0.2166651 -0.1212606
v -0.03370805 -0.210505 0.206001
v -0.08817282 -0.2166651 -0.1212606
v -0.03462793 -0.2014021 0.2019556
v -0.01714065 -0.1955925 0.2110517
v -0.03462793 -0.2014021 0.2019556
v 0.1843538 -0.07477677 -0.202359
v -0.01714065 -0.1955925 0.2110517
v 0.1843538 -0.07477677 -0.202359
v 0.1196948 -0.1577931 0.1837809
v 0.06895728 -0.1883517 0.2009824
v 0.07016957 -0.1916119 0.1925582
v -0.0162207 -0.2046954 0.215097
v 0.06895728 -0.1883517 0.2009824
v 0.1240092 -0.1662569 0.1869155
v 0.07016957 -0.1916119 0.1925582
v -0.01063162 -0.2375883 0.09558434
v -0.04530277 -0.2414057 0.09089036
v -0.03452851 -0.2178221 0.189723
v -0.01063162 -0.2375883 0.09558434
v -0.00719841 -0.2405472 -4.980542E-05
v -0.04530277 -0.2414057 0.09089036
v -0.08720051 -0.226232 -0.124018
v 0.02065507 -0.1612679 -0.2092111
v -0.08817282 -0.2166651 -0.1212606
v 0.02394994 -0.1698108 -0.2132405
v -0.08720051 -0.226232 -0.124018
v -0.04530277 -0.2414057 0.09089036
v -0.06857581 -0.2415231 -0.04203165
v -0.03452851 -0.2178221 0.189723
v -0.03370805 -0.210505 0.206001
v 0.1894232 -0.08207669 -0.206951
v 0.09701556 -0.1424602 -0.2150962
v 0.182916 -0.1101889 -0.1694445
v 0.1070795 -0.1623028 -0.170321
v 0.1894232 -0.08207669 -0.206951
v 0.182916 -0.1101889 -0.1694445
v 0.1240092 -0.1662569 0.1869155
v 0.1573079 -0.1704742 -0.01757305
v 0.1680329 -0.1538334 -0.0819099
v 0.1327365 -0.1796221 0.13228
v 0.1501048 -0.1797907 0.02579289
v 0.1894232 -0.08207669 -0.206951
v 0.02065507 -0.1612679 -0.2092111
v 0.09701556 -0.1424602 -0.2150962
v 0.02394994 -0.1698108 -0.2132405
v -0.006505632 -0.2283413 -0.08824602
v 0.09967753 -0.2076737 0.01499307
v 0.1085544 -0.1906982 -0.0847088
v -0.00719841 -0.2405472 -4.980542E-05
v -0.006505632 -0.2283413 -0.08824602
v 0.1085544 -0.1906982 -0.0847088
v -0.009930596 -0.2048385 -0.1666801
v 0.1070795 -0.1623028 -0.170321
v 0.1680329 -0.1538334 -0.0819099
v 0.1085544 -0.1906982 -0.0847088
v 0.1573079 -0.1704742 -0.01757305
v 0.09967753 -0.2076737 0.01499307
v 0.1501048 -0.1797907 0.02579289
v -0.03370805 -0.210505 0.206001
v -0.03462793 -0.2014021 0.2019556
v -0.0162207 -0.2046954 0.215097
v -0.01714065 -0.1955925 0.2110517
v -0.01714065 -0.1955925 0.2110517
v 0.1196948 -0.1577931 0.1837809
v -0.0162207 -0.2046954 0.215097
v 0.06895728 -0.1883517 0.2009824
v 0.1240092 -0.1662569 0.1869155
v 0.1070795 -0.1623028 -0.170321
v 0.1680329 -0.1538334 -0.0819099
v 0.182916 -0.1101889 -0.1694445
v 0.1085544 -0.1906982 -0.0847088
v 0.1070795 -0.1623028 -0.170321
v 0.09701556 -0.1424602 -0.2150962
v 0.02394994 -0.1698108 -0.2132405
v -0.01168326 -0.1976454 -0.183364
v -0.009930596 -0.2048385 -0.1666801
v 0.1501048 -0.1797907 0.02579289
v 0.08352437 -0.2078997 0.1115077
v 0.1327365 -0.1796221 0.13228
v 0.09967753 -0.2076737 0.01499307
v -0.01063162 -0.2375883 0.09558434
v 0.07016957 -0.1916119 0.1925582
v 0.08352437 -0.2078997 0.1115077
v -0.03452851 -0.2178221 0.189723
v -0.01063162 -0.2375883 0.09558434
v 0.09967753 -0.2076737 0.01499307
v -0.00719841 -0.2405472 -4.980542E-05
v 0.08352437 -0.2078997 0.1115077
vn -0.466406 0.8843424 -0.02010071
vn -0.4664059 0.8843424 -0.02010071
vn -0.466406 0.8843424 -0.02010071
vn -0.4537742 0.890501 0.03312198
vn -0.4537742 0.890501 0.03312198
vn -0.4537742 0.8905008 0.03312198
vn 0.01737336 -0.9998467 -0.002158653
vn 0.01737336 -0.9998467 -0.002158653
vn 0.01737336 -0.9998467 -0.002158653
vn 0.03363305 -0.9164796 -0.398665
vn 0.03363305 -0.9164796 -0.398665
vn 0.03363306 -0.9164796 -0.398665
vn 0.8615171 0.4480434 0.2388415
vn 0.8615171 0.4480434 0.2388415
vn 0.8615171 0.4480435 0.2388415
vn -0.1880676 0.426056 -0.8849332
vn -0.1880676 0.426056 -0.8849332
vn -0.1880676 0.426056 -0.8849332
vn -0.5897259 -0.1045927 -0.8008019
vn -0.5897259 -0.1045927 -0.8008019
vn -0.5897259 -0.1045927 -0.8008019
vn 0.8229592 0.5112478 0.2477175
vn 0.8229592 0.5112477 0.2477175
vn 0.8229592 0.5112478 0.2477175
vn 0.4037969 -0.8817827 0.2437359
vn 0.4037968 -0.8817828 0.2437359
vn 0.4037969 -0.8817827 0.2437359
vn 0.4329199 -0.8572178 0.2788509
vn 0.4329199 -0.857218 0.2788509
vn 0.4329199 -0.8572178 0.2788509
vn 0.2222703 -0.9221259 0.3166699
vn 0.2222703 -0.9221259 0.3166699
vn 0.2222703 -0.9221259 0.3166699
vn 0.06152439 -0.9785742 -0.1964878
vn 0.06152438 -0.9785742 -0.1964878
vn 0.06152438 -0.9785742 -0.1964877
vn 0.1035273 -0.9515193 -0.2896432
vn 0.1035273 -0.9515193 -0.2896432
vn 0.1035273 -0.9515193 -0.2896432
vn 0.108304 -0.9848472 -0.1354477
vn 0.108304 -0.9848472 -0.1354477
vn 0.108304 -0.9848472 -0.1354477
vn 0.09195576 -0.9099499 0.4043951
vn 0.09195576 -0.9099499 0.4043951
vn 0.09195575 -0.9099499 0.4043951
vn -0.9753091 -0.1467023 0.165078
vn -0.9753091 -0.1467023 0.1650779
vn -0.9753091 -0.1467023 0.165078
vn -0.9860053 -0.02649198 0.1645954
vn -0.9860053 -0.02649198 0.1645954
vn -0.9860053 -0.02649198 0.1645954
vn -0.3586616 0.9284637 0.09652565
vn -0.3586615 0.9284637 0.09652565
vn -0.3586615 0.9284637 0.09652565
vn -0.2313982 0.9583675 0.1672922
vn -0.2313982 0.9583675 0.1672922
vn -0.2313982 0.9583675 0.1672922
vn 0.2346489 -0.8947177 0.3800266
vn 0.2346489 -0.8947177 0.3800266
vn 0.2346489 -0.8947177 0.3800266
vn 0.4264673 -0.8211895 0.3791749
vn 0.4264673 -0.8211894 0.3791749
vn 0.4264673 -0.8211894 0.379175
vn 0.07672478 -0.9716796 0.2234993
vn 0.07672478 -0.9716796 0.2234993
vn 0.07672479 -0.9716796 0.2234993
vn 0.1047574 -0.9938987 0.03451182
vn 0.1047574 -0.9938987 0.03451183
vn 0.1047574 -0.9938987 0.03451182
vn -0.6652286 0.1435738 -0.7327055
vn -0.6652286 0.1435738 -0.7327055
vn -0.6652286 0.1435738 -0.7327055
vn -0.6536129 0.1016447 -0.7499724
vn -0.9500214 -0.2640336 0.1665705
vn -0.9500214 -0.2640336 0.1665705
vn -0.9500214 -0.2640336 0.1665705
vn -0.9500216 -0.2640328 0.1665706
vn -0.9500206 -0.2640358 0.1665706
vn 0.51483 -0.726467 -0.4551876
vn 0.5148299 -0.7264671 -0.4551876
vn 0.51483 -0.726467 -0.4551876
vn 0.5115951 -0.7370498 -0.4416199
vn 0.986863 -0.01365686 0.1609811
vn 0.986863 -0.0136558 0.1609812
vn 0.986863 -0.0136558 0.1609812
vn 0.986863 -0.0136558 0.1609812
vn 0.9868639 -0.01367152 0.1609751
vn 0.9868628 -0.01366644 0.1609814
vn 0.9868628 -0.01366837 0.1609813
vn -0.161862 0.371049 -0.9143978
vn -0.161862 0.371049 -0.9143978
vn -0.161862 0.371049 -0.9143978
vn -0.1615016 0.3693506 -0.9151488
vn 0.3118791 -0.9408483 -0.1324233
vn 0.3118791 -0.9408483 -0.1324233
vn 0.3118791 -0.9408483 -0.1324233
vn 0.3079941 -0.9427315 -0.1280506
vn 0.3059169 -0.9082388 -0.2855119
vn 0.3059169 -0.9082389 -0.2855119
vn 0.3059169 -0.9082389 -0.2855119
vn 0.3171811 -0.8984987 -0.3034739
vn 0.5267772 -0.8400846 -0.1294749
vn 0.4980362 -0.8611042 -0.1022715
vn 0.4980362 -0.8611042 -0.1022715
vn 0.4980363 -0.8611042 -0.1022715
vn 0.4980367 -0.861104 -0.1022703
vn -0.5170974 0.3034256 0.8003395
vn -0.5170973 0.3034256 0.8003394
vn -0.5170973 0.3034256 0.8003394
vn -0.5171002 0.3034164 0.8003411
vn 0.06769272 0.4108817 0.9091722
vn 0.06769272 0.4108817 0.9091722
vn 0.06769272 0.4108817 0.9091722
vn 0.08166005 0.3824819 0.9203473
vn 0.08166005 0.3824819 0.9203473
vn 0.5427846 -0.7848352 -0.2990295
vn 0.5427846 -0.7848352 -0.2990295
vn 0.5427846 -0.7848352 -0.2990295
vn 0.5154979 -0.8106288 -0.2777462
vn 0.3004482 -0.8497013 -0.4332881
vn 0.3045444 -0.8435816 -0.4422926
vn 0.3004482 -0.8497013 -0.4332881
vn 0.3004482 -0.8497013 -0.4332881
vn 0.3013915 -0.8636705 -0.4040251
vn 0.4716273 -0.8783135 0.07831391
vn 0.4716273 -0.8783135 0.07831391
vn 0.4716274 -0.8783135 0.07831391
vn 0.4698577 -0.8794142 0.07657836
vn 0.2568567 -0.938458 0.2309138
vn 0.2568567 -0.938458 0.2309138
vn 0.2568567 -0.938458 0.2309138
vn 0.2282943 -0.9395429 0.2552271
vn 0.2886158 -0.9566108 0.03995855
vn 0.2886158 -0.9566108 0.03995855
vn 0.2886158 -0.9566108 0.03995854
vn 0.293176 -0.9549108 0.04683128
g baseball_Explode_Thin_03_Hull_0
f 3/3/3 2/2/2 1/1/1
f 6/6/6 5/5/5 4/4/4
f 9/9/9 8/8/8 7/7/7
f 12/12/12 11/11/11 10/10/10
f 15/15/15 14/14/14 13/13/13
f 18/18/18 17/17/17 16/16/16
f 21/21/21 20/20/20 19/19/19
f 24/24/24 23/23/23 22/22/22
f 27/27/27 26/26/26 25/25/25
f 30/30/30 29/29/29 28/28/28
f 33/33/33 32/32/32 31/31/31
f 36/36/36 35/35/35 34/34/34
f 39/39/39 38/38/38 37/37/37
f 42/42/42 41/41/41 40/40/40
f 45/45/45 44/44/44 43/43/43
f 48/48/48 47/47/47 46/46/46
f 51/51/51 50/50/50 49/49/49
f 54/54/54 53/53/53 52/52/52
f 57/57/57 56/56/56 55/55/55
f 60/60/60 59/59/59 58/58/58
f 63/63/63 62/62/62 61/61/61
f 66/66/66 65/65/65 64/64/64
f 69/69/69 68/68/68 67/67/67
f 72/72/72 71/71/71 70/70/70
f 70/70/70 71/71/71 73/73/73
f 76/76/76 75/75/75 74/74/74
f 74/74/74 75/75/75 77/77/77
f 74/74/74 77/77/77 78/78/78
f 81/81/81 80/80/80 79/79/79
f 80/80/80 81/81/81 82/82/82
f 85/85/85 84/84/84 83/83/83
f 85/85/85 86/86/86 84/84/84
f 84/84/84 86/86/86 87/87/87
f 86/86/86 85/85/85 88/88/88
f 86/86/86 88/88/88 89/89/89
f 92/92/92 91/91/91 90/90/90
f 91/91/91 92/92/92 93/93/93
f 96/96/96 95/95/95 94/94/94
f 95/95/95 97/97/97 94/94/94
f 100/100/100 99/99/99 98/98/98
f 99/99/99 100/100/100 101/101/101
f 104/104/104 103/103/103 102/102/102
f 103/103/103 104/104/104 105/105/105
f 105/105/105 104/104/104 106/106/106
f 109/109/109 108/108/108 107/107/107
f 108/108/108 109/109/109 110/110/110
f 113/113/113 112/112/112 111/111/111
f 112/112/112 113/113/113 114/114/114
f 115/115/115 112/112/112 114/114/114
f 118/118/118 117/117/117 116/116/116
f 117/117/117 119/119/119 116/116/116
f 122/122/122 121/121/121 120/120/120
f 123/123/123 122/122/122 120/120/120
f 124/124/124 123/123/123 120/120/120
f 127/127/127 126/126/126 125/125/125
f 126/126/126 128/128/128 125/125/125
f 131/131/131 130/130/130 129/129/129
f 130/130/130 132/132/132 129/129/129
f 135/135/135 134/134/134 133/133/133
f 134/134/134 136/136/136 133/133/133
