g baseball_Explode_Thin_00_Hull
v -0.1835334 -0.1149046 -0.01699535
v -0.0329119 -0.1831033 -0.1538661
v -0.206781 -0.06584797 -0.1637478
v -0.03258106 -0.1751045 -0.1786211
v -0.206781 -0.06584797 -0.1637478
v -0.0329119 -0.1831033 -0.1538661
v -0.2280678 -0.05225342 -0.1188128
v -0.1835334 -0.1149046 -0.01699535
v -0.206781 -0.06584797 -0.1637478
v 0.08359843 -0.2109161 -0.1866343
v -0.0329119 -0.1831033 -0.1538661
v 0.08278337 -0.2329428 -0.06924845
v 0.08359843 -0.2109161 -0.1866343
v -0.03258106 -0.1751045 -0.1786211
v -0.0329119 -0.1831033 -0.1538661
v -0.0240808 -0.2001633 -0.05421257
v 0.08278337 -0.2329428 -0.06924845
v -0.0329119 -0.1831033 -0.1538661
v -0.0240808 -0.2001633 -0.05421257
v -0.1835334 -0.1149046 -0.01699535
v -0.1185043 -0.1445443 0.08396337
v -0.0240808 -0.2001633 -0.05421257
v -0.0329119 -0.1831033 -0.1538661
v -0.1835334 -0.1149046 -0.01699535
v -0.1214727 -0.100226 0.1824646
v -0.2445183 0.04356414 -0.1540369
v -0.09611628 -0.1064711 0.1932248
v -0.1214727 -0.100226 0.1824646
v -0.1185043 -0.1445443 0.08396337
v -0.1723289 -0.09257226 0.09718034
v 0.181642 -0.2419285 -0.08381486
v 0.08359843 -0.2109161 -0.1866343
v 0.08278337 -0.2329428 -0.06924845
v 0.181642 -0.2419285 -0.08381486
v 0.199848 -0.2188174 -0.1932154
v 0.08359843 -0.2109161 -0.1866343
v 0.181642 -0.2419285 -0.08381486
v 0.2334072 -0.2366664 -0.03010562
v 0.199848 -0.2188174 -0.1932154
v -0.2289068 -0.03552064 -0.1610125
v -0.2280678 -0.05225342 -0.1188128
v -0.206781 -0.06584797 -0.1637478
v 0.005628365 -0.1835395 0.1230894
v -0.09611628 -0.1064711 0.1932248
v 0.09078278 -0.1841127 0.1748414
v -0.2533331 0.03920585 -0.1558708
v -0.2445183 0.04356414 -0.1540369
v -0.1214727 -0.100226 0.1824646
v 0.1816421 -0.240607 0.01353886
v 0.08622111 -0.2299408 0.02633762
v 0.1816422 -0.2162706 0.1234251
v 0.2417423 -0.2339898 0.02167558
v 0.1816422 -0.2162706 0.1234251
v 0.2533361 -0.2030914 0.1367775
v 0.2417423 -0.2339898 0.02167558
v 0.1816421 -0.240607 0.01353886
v 0.1816422 -0.2162706 0.1234251
v 0.2524163 -0.1939893 0.1327323
v 0.2417423 -0.2339898 0.02167558
v 0.2533361 -0.2030914 0.1367775
v 0.2524163 -0.1939893 0.1327323
v -0.09611628 -0.1064711 0.1932248
v -0.2445183 0.04356414 -0.1540369
v -0.2067843 -0.09058426 -0.006265858
v -0.1835334 -0.1149046 -0.01699535
v -0.2280678 -0.05225342 -0.1188128
v -0.2067843 -0.09058426 -0.006265858
v -0.2146782 -0.06260689 0.00303907
v -0.1723289 -0.09257226 0.09718034
v 0.1988758 -0.2092513 -0.1904582
v 0.2524163 -0.1939893 0.1327323
v -0.2445183 0.04356414 -0.1540369
v 0.1988758 -0.2092513 -0.1904582
v 0.199848 -0.2188174 -0.1932154
v 0.2334072 -0.2366664 -0.03010562
v -0.007781323 -0.2000035 0.04220926
v 0.005628365 -0.1835395 0.1230894
v 0.08622111 -0.2299408 0.02633762
v -0.007781323 -0.2000035 0.04220926
v -0.1185043 -0.1445443 0.08396337
v 0.005628365 -0.1835395 0.1230894
v -0.007781323 -0.2000035 0.04220926
v -0.0240808 -0.2001633 -0.05421257
v -0.1185043 -0.1445443 0.08396337
v 0.1816423 -0.2012573 0.1565376
v 0.1816422 -0.2162706 0.1234251
v 0.09078278 -0.1841127 0.1748414
v 0.1816423 -0.2012573 0.1565376
v 0.2533361 -0.2030914 0.1367775
v 0.1816422 -0.2162706 0.1234251
v -0.1723289 -0.09257226 0.09718034
v -0.1185043 -0.1445443 0.08396337
v -0.1835334 -0.1149046 -0.01699535
v -0.2067843 -0.09058426 -0.006265858
v 0.08359843 -0.2109161 -0.1866343
v 0.199848 -0.2188174 -0.1932154
v -0.03258106 -0.1751045 -0.1786211
v -0.206781 -0.06584797 -0.1637478
v -0.2289068 -0.03552064 -0.1610125
v -0.2533331 0.03920585 -0.1558708
v -0.0240808 -0.2001633 -0.05421257
v 0.08622111 -0.2299408 0.02633762
v 0.08278337 -0.2329428 -0.06924845
v -0.007781323 -0.2000035 0.04220926
v -0.1214727 -0.100226 0.1824646
v -0.1723289 -0.09257226 0.09718034
v -0.2146782 -0.06260689 0.00303907
v -0.2455337 0.003815784 -0.1092555
v -0.2533331 0.03920585 -0.1558708
v 0.1816422 -0.2162706 0.1234251
v 0.08622111 -0.2299408 0.02633762
v 0.09078278 -0.1841127 0.1748414
v 0.005628365 -0.1835395 0.1230894
v 0.005628365 -0.1835395 0.1230894
v -0.1214727 -0.100226 0.1824646
v -0.09611628 -0.1064711 0.1932248
v -0.1185043 -0.1445443 0.08396337
v -0.2533331 0.03920585 -0.1558708
v 0.199848 -0.2188174 -0.1932154
v -0.2445183 0.04356414 -0.1540369
v 0.1988758 -0.2092513 -0.1904582
v -0.2533331 0.03920585 -0.1558708
v -0.2455337 0.003815784 -0.1092555
v -0.2280678 -0.05225342 -0.1188128
v -0.2289068 -0.03552064 -0.1610125
v 0.1816421 -0.240607 0.01353886
v 0.08278337 -0.2329428 -0.06924845
v 0.08622111 -0.2299408 0.02633762
v 0.181642 -0.2419285 -0.08381486
v 0.1816421 -0.240607 0.01353886
v 0.2334072 -0.2366664 -0.03010562
v 0.181642 -0.2419285 -0.08381486
v 0.2417423 -0.2339898 0.02167558
v 0.2524163 -0.1939893 0.1327323
v 0.2334072 -0.2366664 -0.03010562
v 0.2417423 -0.2339898 0.02167558
v 0.1988758 -0.2092513 -0.1904582
v 0.2524163 -0.1939893 0.1327323
v 0.2533361 -0.2030914 0.1367775
v -0.09611628 -0.1064711 0.1932248
v 0.09078278 -0.1841127 0.1748414
v 0.1816423 -0.2012573 0.1565376
v -0.2067843 -0.09058426 -0.006265858
v -0.2455337 0.003815784 -0.1092555
v -0.2146782 -0.06260689 0.00303907
v -0.2280678 -0.05225342 -0.1188128
vn -0.5417847 -0.8192171 -0.188023
vn -0.5417847 -0.8192171 -0.188023
vn -0.5417847 -0.8192171 -0.188023
vn -0.5282623 -0.8058595 -0.26745
vn -0.5282623 -0.8058595 -0.26745
vn -0.5282623 -0.8058595 -0.2674499
vn -0.7043952 -0.6992187 -0.1221501
vn -0.7043952 -0.6992187 -0.1221501
vn -0.7043952 -0.6992188 -0.1221501
vn -0.2758135 -0.9443742 -0.1791208
vn -0.2758135 -0.9443742 -0.1791208
vn -0.2758135 -0.9443742 -0.1791208
vn -0.2999257 -0.906571 -0.2969404
vn -0.2999257 -0.906571 -0.2969404
vn -0.2999257 -0.906571 -0.2969404
vn -0.3077916 -0.9419728 -0.1339836
vn -0.3077915 -0.9419728 -0.1339836
vn -0.3077916 -0.9419728 -0.1339836
vn -0.4640514 -0.884945 0.03909811
vn -0.4640514 -0.884945 0.0390981
vn -0.4640514 -0.884945 0.0390981
vn -0.4878803 -0.8665586 -0.1051141
vn -0.4878802 -0.8665587 -0.1051141
vn -0.4878802 -0.8665586 -0.1051141
vn 0.07123047 0.9263759 0.3698026
vn 0.07123048 0.9263759 0.3698026
vn 0.07123047 0.9263759 0.3698026
vn -0.6214101 -0.721334 0.305821
vn -0.6214103 -0.721334 0.3058211
vn -0.6214102 -0.721334 0.3058211
vn -0.1158274 -0.9760853 -0.1839603
vn -0.1158274 -0.9760853 -0.1839603
vn -0.1158274 -0.9760853 -0.1839603
vn -0.07848277 -0.972667 -0.2185393
vn -0.07848277 -0.972667 -0.2185393
vn -0.07848276 -0.972667 -0.2185393
vn 0.2605924 -0.9524585 -0.1578426
vn 0.2605924 -0.9524585 -0.1578426
vn 0.2605924 -0.9524585 -0.1578426
vn -0.7990443 -0.5642108 -0.2078327
vn -0.7990443 -0.5642108 -0.2078326
vn -0.7990443 -0.5642108 -0.2078326
vn -0.2963317 -0.8266107 0.4784373
vn -0.2963317 -0.8266107 0.4784373
vn -0.2963318 -0.8266107 0.4784373
vn -0.4664873 0.7388545 0.4862957
vn -0.4664873 0.7388545 0.4862957
vn -0.4664873 0.7388545 0.4862957
vn -0.07987735 -0.9732228 0.2155388
vn -0.07987735 -0.9732228 0.2155388
vn -0.07987735 -0.9732228 0.2155388
vn 0.1310288 -0.9607055 0.2446969
vn 0.1310288 -0.9607055 0.2446969
vn 0.1310288 -0.9607055 0.2446969
vn 0.07798518 -0.9733691 0.2155711
vn 0.07798519 -0.9733691 0.2155711
vn 0.07798517 -0.9733691 0.2155711
vn 0.9923011 0.04990568 -0.1133481
vn 0.9923011 0.04990567 -0.1133481
vn 0.9923011 0.04990567 -0.1133481
vn 0.2790447 0.9191908 0.2778891
vn 0.2790447 0.9191908 0.2778891
vn 0.2790446 0.9191908 0.2778891
vn -0.7390776 -0.6678869 -0.08770076
vn -0.7390776 -0.6678869 -0.08770076
vn -0.7390776 -0.6678869 -0.08770075
vn -0.8914239 -0.3480438 0.2902223
vn -0.8914239 -0.3480438 0.2902224
vn -0.8914239 -0.3480438 0.2902223
vn 0.4841483 0.8665615 -0.1211265
vn 0.4841483 0.8665615 -0.1211265
vn 0.4841483 0.8665615 -0.1211266
vn 0.9713146 0.1515359 -0.1832617
vn 0.9713146 0.1515359 -0.1832617
vn 0.9713146 0.1515359 -0.1832617
vn -0.259004 -0.9371739 0.2337137
vn -0.259004 -0.9371739 0.2337137
vn -0.259004 -0.9371739 0.2337137
vn -0.3596067 -0.9009045 0.2430103
vn -0.3596067 -0.9009045 0.2430103
vn -0.3596067 -0.9009045 0.2430103
vn -0.4244243 -0.9024963 0.07324234
vn -0.4244242 -0.9024963 0.07324233
vn -0.4244243 -0.9024963 0.07324234
vn -0.08831993 -0.9071993 0.4113259
vn -0.08831993 -0.9071993 0.4113259
vn -0.08831993 -0.9071993 0.4113259
vn 0.09014525 -0.9070505 0.411258
vn 0.09014525 -0.9070505 0.411258
vn 0.09014525 -0.9070506 0.411258
vn -0.6529036 -0.7287186 0.2066062
vn -0.6529035 -0.7287186 0.2066062
vn -0.6529035 -0.7287186 0.2066062
vn -0.6603063 -0.7221758 0.2060529
vn -0.05297057 0.05130461 -0.9972773
vn -0.05297075 0.05130349 -0.9972773
vn -0.05297076 0.05130349 -0.9972773
vn -0.05297076 0.05130349 -0.9972773
vn -0.05297076 0.05130348 -0.9972773
vn -0.05297059 0.051304 -0.9972773
vn -0.2878138 -0.9568338 0.04040188
vn -0.2878138 -0.9568338 0.04040188
vn -0.2878138 -0.9568338 0.04040188
vn -0.2951522 -0.9540626 0.05147528
vn -0.7375809 0.4726631 0.482249
vn -0.7375809 0.4726631 0.482249
vn -0.7375809 0.4726631 0.482249
vn -0.7375812 0.4726626 0.4822491
vn -0.7375809 0.4726629 0.4822491
vn -0.1658116 -0.9408617 0.2954416
vn -0.1658116 -0.9408617 0.2954416
vn -0.1658116 -0.9408617 0.2954415
vn -0.1855669 -0.9373187 0.2949551
vn -0.3720807 -0.8435831 0.3871994
vn -0.3720807 -0.8435832 0.3871994
vn -0.3720807 -0.8435831 0.3871994
vn -0.3824966 -0.8468578 0.3694975
vn 0.07029989 0.2627485 -0.9622999
vn 0.07029989 0.2627485 -0.9622999
vn 0.07029989 0.2627486 -0.9622999
vn 0.08334994 0.283798 -0.9552547
vn -0.9559025 -0.2877885 -0.0585525
vn -0.9559025 -0.2877885 -0.0585525
vn -0.9559025 -0.2877885 -0.0585525
vn -0.9476622 -0.302803 -0.1012262
vn -0.1063781 -0.9937084 0.03503467
vn -0.1063781 -0.9937084 0.03503467
vn -0.1063781 -0.9937084 0.03503467
vn -0.0885378 -0.9959811 0.01352065
vn 0.08722831 -0.9960966 0.01352193
vn 0.08722831 -0.9960966 0.01352193
vn 0.08722831 -0.9960966 0.01352193
vn 0.1047584 -0.9938986 0.03451214
vn 0.9650583 0.2028861 -0.1658303
vn 0.9650583 0.2028862 -0.1658303
vn 0.9650583 0.2028862 -0.1658303
vn 0.960928 0.218814 -0.1695226
vn 0.2556048 0.4140778 0.8736165
vn 0.2529823 0.4004539 0.8807024
vn 0.2529823 0.4004538 0.8807024
vn 0.2529823 0.4004538 0.8807024
vn 0.2529824 0.4004574 0.8807007
vn -0.9510644 -0.2968608 0.08573238
vn -0.9510644 -0.2968608 0.08573239
vn -0.9510644 -0.2968608 0.08573239
vn -0.9484306 -0.3081261 0.07441565
g baseball_Explode_Thin_00_Hull_0
f 3/3/3 2/2/2 1/1/1
f 6/6/6 5/5/5 4/4/4
f 9/9/9 8/8/8 7/7/7
f 12/12/12 11/11/11 10/10/10
f 15/15/15 14/14/14 13/13/13
f 18/18/18 17/17/17 16/16/16
f 21/21/21 20/20/20 19/19/19
f 24/24/24 23/23/23 22/22/22
f 27/27/27 26/26/26 25/25/25
f 30/30/30 29/29/29 28/28/28
f 33/33/33 32/32/32 31/31/31
f 36/36/36 35/35/35 34/34/34
f 39/39/39 38/38/38 37/37/37
f 42/42/42 41/41/41 40/40/40
f 45/45/45 44/44/44 43/43/43
f 48/48/48 47/47/47 46/46/46
f 51/51/51 50/50/50 49/49/49
f 54/54/54 53/53/53 52/52/52
f 57/57/57 56/56/56 55/55/55
f 60/60/60 59/59/59 58/58/58
f 63/63/63 62/62/62 61/61/61
f 66/66/66 65/65/65 64/64/64
f 69/69/69 68/68/68 67/67/67
f 72/72/72 71/71/71 70/70/70
f 75/75/75 74/74/74 73/73/73
f 78/78/78 77/77/77 76/76/76
f 81/81/81 80/80/80 79/79/79
f 84/84/84 83/83/83 82/82/82
f 87/87/87 86/86/86 85/85/85
f 90/90/90 89/89/89 88/88/88
f 93/93/93 92/92/92 91/91/91
f 93/93/93 91/91/91 94/94/94
f 97/97/97 96/96/96 95/95/95
f 98/98/98 96/96/96 97/97/97
f 96/96/96 98/98/98 99/99/99
f 96/96/96 99/99/99 100/100/100
f 103/103/103 102/102/102 101/101/101
f 101/101/101 102/102/102 104/104/104
f 107/107/107 106/106/106 105/105/105
f 107/107/107 105/105/105 108/108/108
f 108/108/108 105/105/105 109/109/109
f 112/112/112 111/111/111 110/110/110
f 111/111/111 112/112/112 113/113/113
f 116/116/116 115/115/115 114/114/114
f 115/115/115 117/117/117 114/114/114
f 120/120/120 119/119/119 118/118/118
f 119/119/119 120/120/120 121/121/121
f 124/124/124 123/123/123 122/122/122
f 125/125/125 124/124/124 122/122/122
f 128/128/128 127/127/127 126/126/126
f 127/127/127 129/129/129 126/126/126
f 132/132/132 131/131/131 130/130/130
f 130/130/130 131/131/131 133/133/133
f 136/136/136 135/135/135 134/134/134
f 134/134/134 135/135/135 137/137/137
f 140/140/140 139/139/139 138/138/138
f 139/139/139 140/140/140 141/141/141
f 139/139/139 141/141/141 142/142/142
f 145/145/145 144/144/144 143/143/143
f 144/144/144 146/146/146 143/143/143
