g baseball_Explode_Thin_11_Hull
v 0.08994499 0.1936091 0.06474552
v 0.05955274 0.2022773 0.1002588
v 0.1324545 0.1547544 -0.07330888
v 0.06903723 -0.1050129 0.01288337
v -0.05632459 -0.2033851 0.1486378
v 0.04788495 -0.1011744 0.07191636
v 0.1185494 -0.004582598 -0.0255533
v 0.1077032 -0.05269351 -0.06633495
v 0.06903723 -0.1050129 0.01288337
v 0.1185494 -0.004582598 -0.0255533
v 0.1304153 -0.002877643 -0.12415
v 0.1077032 -0.05269351 -0.06633495
v 0.1337756 0.1093871 -0.03884285
v 0.08994499 0.1936091 0.06474552
v 0.1324545 0.1547544 -0.07330888
v 0.1337756 0.1093871 -0.03884285
v 0.1009213 0.1093871 0.05728005
v 0.08994499 0.1936091 0.06474552
v -0.06460338 -0.200222 0.1439987
v -0.05632459 -0.2033851 0.1486378
v 0.1192987 0.07203364 -0.2753763
v 0.0683209 0.2033594 0.1049508
v 0.05955274 0.2022773 0.1002588
v 0.08994499 0.1936091 0.06474552
v -0.08541778 0.01107791 0.2680713
v 0.1128253 0.0885388 -0.2668043
v 0.05955274 0.2022773 0.1002588
v -0.06516935 -0.1076837 0.2168062
v -0.02426632 -0.06602561 0.1964586
v -0.05632459 -0.2033851 0.1486378
v -0.06516935 -0.1076837 0.2168062
v -0.08541778 0.01107791 0.2680713
v -0.07892327 0.008927748 0.2753696
v -0.06516935 -0.1076837 0.2168062
v -0.06460338 -0.200222 0.1439987
v -0.08541778 0.01107791 0.2680713
v -0.06516935 -0.1076837 0.2168062
v -0.05632459 -0.2033851 0.1486378
v -0.06460338 -0.200222 0.1439987
v 0.1291423 -0.001767933 -0.1475006
v 0.1077032 -0.05269351 -0.06633495
v 0.1304153 -0.002877643 -0.12415
v 0.08643125 -0.001821892 0.067139
v 0.04788495 -0.1011744 0.07191636
v 0.04099532 0.003175752 0.1519366
v 0.05422889 0.109387 0.1529584
v 0.08643125 -0.001821892 0.067139
v 0.04099532 0.003175752 0.1519366
v 0.05422889 0.109387 0.1529584
v 0.1009213 0.1093871 0.05728005
v 0.08643125 -0.001821892 0.067139
v 0.05422889 0.109387 0.1529584
v 0.01425786 0.109387 0.1999056
v 0.0481861 0.1597721 0.1526308
v 0.1224248 0.0876225 -0.2694642
v 0.1364425 0.1093871 -0.2113339
v 0.1128253 0.0885388 -0.2668043
v 0.1096991 0.07294994 -0.2727165
v -0.08541778 0.01107791 0.2680713
v -0.06460338 -0.200222 0.1439987
v 0.1096991 0.07294994 -0.2727165
v 0.1128253 0.0885388 -0.2668043
v -0.08541778 0.01107791 0.2680713
v 0.1096991 0.07294994 -0.2727165
v -0.06460338 -0.200222 0.1439987
v 0.1192987 0.07203364 -0.2753763
v 0.128875 0.04596319 -0.2286761
v 0.1224248 0.0876225 -0.2694642
v 0.1192987 0.07203364 -0.2753763
v 0.128875 0.04596319 -0.2286761
v 0.1364425 0.1093871 -0.2113339
v 0.1224248 0.0876225 -0.2694642
v 0.1398593 0.1361415 -0.1328646
v 0.1364425 0.1093871 -0.2113339
v 0.1427851 0.1093871 -0.1355916
v -0.01450007 0.00113338 0.2157445
v 0.04099532 0.003175752 0.1519366
v -0.02426632 -0.06602561 0.1964586
v -0.01450007 0.00113338 0.2157445
v -0.07892327 0.008927748 0.2753696
v 0.01425786 0.109387 0.1999056
v 0.04788495 -0.1011744 0.07191636
v -0.05632459 -0.2033851 0.1486378
v 0.04099532 0.003175752 0.1519366
v -0.02426632 -0.06602561 0.1964586
v 0.06903723 -0.1050129 0.01288337
v 0.1077032 -0.05269351 -0.06633495
v -0.05632459 -0.2033851 0.1486378
v 0.1192987 0.07203364 -0.2753763
v 0.1291423 -0.001767933 -0.1475006
v 0.128875 0.04596319 -0.2286761
v 0.1128253 0.0885388 -0.2668043
v 0.1324545 0.1547544 -0.07330888
v 0.05955274 0.2022773 0.1002588
v 0.1398593 0.1361415 -0.1328646
v 0.1364425 0.1093871 -0.2113339
v 0.1337756 0.1093871 -0.03884285
v 0.1324545 0.1547544 -0.07330888
v 0.1427851 0.1093871 -0.1355916
v 0.1398593 0.1361415 -0.1328646
v 0.1337756 0.1093871 -0.03884285
v 0.1185494 -0.004582598 -0.0255533
v 0.1009213 0.1093871 0.05728005
v 0.08643125 -0.001821892 0.067139
v 0.1337756 0.1093871 -0.03884285
v 0.1427851 0.1093871 -0.1355916
v 0.1304153 -0.002877643 -0.12415
v 0.1185494 -0.004582598 -0.0255533
v 0.0683209 0.2033594 0.1049508
v 0.0481861 0.1597721 0.1526308
v 0.05955274 0.2022773 0.1002588
v -0.08541778 0.01107791 0.2680713
v 0.01425786 0.109387 0.1999056
v -0.07892327 0.008927748 0.2753696
v 0.1291423 -0.001767933 -0.1475006
v 0.1304153 -0.002877643 -0.12415
v 0.1427851 0.1093871 -0.1355916
v 0.128875 0.04596319 -0.2286761
v 0.1364425 0.1093871 -0.2113339
v 0.08643125 -0.001821892 0.067139
v 0.06903723 -0.1050129 0.01288337
v 0.04788495 -0.1011744 0.07191636
v 0.1185494 -0.004582598 -0.0255533
v 0.05422889 0.109387 0.1529584
v 0.0481861 0.1597721 0.1526308
v 0.0683209 0.2033594 0.1049508
v 0.08994499 0.1936091 0.06474552
v 0.1009213 0.1093871 0.05728005
v 0.05422889 0.109387 0.1529584
v 0.04099532 0.003175752 0.1519366
v 0.01425786 0.109387 0.1999056
v -0.01450007 0.00113338 0.2157445
v 0.1224248 0.0876225 -0.2694642
v 0.1128253 0.0885388 -0.2668043
v 0.1192987 0.07203364 -0.2753763
v 0.1096991 0.07294994 -0.2727165
v -0.01450007 0.00113338 0.2157445
v -0.06516935 -0.1076837 0.2168062
v -0.07892327 0.008927748 0.2753696
v -0.02426632 -0.06602561 0.1964586
vn -0.0651332 0.955148 -0.2888772
vn -0.0651332 0.955148 -0.2888772
vn -0.0651332 0.955148 -0.2888772
vn 0.7724178 -0.5527945 0.3127123
vn 0.7724178 -0.5527946 0.3127123
vn 0.7724178 -0.5527946 0.3127123
vn 0.9071425 -0.3717228 0.1972679
vn 0.9071425 -0.3717227 0.1972679
vn 0.9071425 -0.3717227 0.1972679
vn 0.9460426 -0.3053109 0.1085749
vn 0.9460426 -0.3053109 0.1085749
vn 0.9460426 -0.3053109 0.1085749
vn 0.9500413 0.2058858 0.23459
vn 0.9500413 0.2058858 0.23459
vn 0.9500413 0.2058858 0.23459
vn 0.9420434 0.09423225 0.3219852
vn 0.9420434 0.09423227 0.3219852
vn 0.9420434 0.09423226 0.3219852
vn -0.01227745 -0.8362213 -0.5482547
vn -0.01227745 -0.8362213 -0.5482547
vn -0.01227745 -0.8362213 -0.5482547
vn 0.00480088 0.9724072 -0.2332405
vn 0.004800881 0.9724072 -0.2332405
vn 0.004800881 0.9724072 -0.2332405
vn -0.8654005 0.4292009 -0.2585898
vn -0.8654004 0.4292009 -0.2585898
vn -0.8654004 0.4292009 -0.2585898
vn 0.6905007 -0.376233 0.6177844
vn 0.6905007 -0.376233 0.6177844
vn 0.6905007 -0.376233 0.6177844
vn -0.7459776 -0.3670563 0.5556862
vn -0.7459776 -0.3670563 0.5556862
vn -0.7459776 -0.3670563 0.5556862
vn -0.8602188 -0.3185467 0.3981856
vn -0.8602188 -0.3185467 0.3981856
vn -0.8602188 -0.3185467 0.3981856
vn -0.5603249 -0.5142687 0.6492794
vn -0.5603249 -0.5142687 0.6492794
vn -0.5603249 -0.5142686 0.6492794
vn 0.8742215 -0.4803832 -0.07048893
vn 0.8742215 -0.4803833 -0.07048893
vn 0.8742215 -0.4803833 -0.07048894
vn 0.8330961 -0.3009035 0.4641207
vn 0.8330961 -0.3009035 0.4641207
vn 0.8330961 -0.3009035 0.4641207
vn 0.8729674 -0.1133332 0.4744297
vn 0.8729674 -0.1133332 0.4744297
vn 0.8729674 -0.1133332 0.4744297
vn 0.8959576 -0.07797731 0.4372405
vn 0.8959576 -0.07797731 0.4372405
vn 0.8959576 -0.07797732 0.4372405
vn 0.7579608 0.09509955 0.6453306
vn 0.7579609 0.09509955 0.6453306
vn 0.7579609 0.09509954 0.6453305
vn -0.007282638 0.9370611 -0.3490897
vn -0.007282638 0.9370611 -0.3490897
vn -0.007282638 0.9370611 -0.3490897
vn -0.9395418 0.09979426 -0.3275703
vn -0.9395418 0.09979427 -0.3275704
vn -0.9395418 0.09979425 -0.3275703
vn -0.9093147 0.2940248 -0.2944424
vn -0.9093147 0.2940248 -0.2944423
vn -0.9093147 0.2940248 -0.2944424
vn -0.2391838 -0.7631551 -0.600321
vn -0.2391839 -0.7631551 -0.600321
vn -0.2391839 -0.7631551 -0.600321
vn 0.9628251 -0.09755203 -0.2518957
vn 0.9628251 -0.09755205 -0.2518957
vn 0.9628251 -0.09755205 -0.2518957
vn 0.9752299 -0.05799497 -0.2134554
vn 0.9752299 -0.05799497 -0.2134553
vn 0.9752299 -0.05799497 -0.2134554
vn 0.9897058 0.1166783 -0.08287664
vn 0.9897058 0.1166783 -0.08287665
vn 0.9897058 0.1166783 -0.08287664
vn 0.7277566 -0.2849732 0.6238275
vn 0.7277566 -0.2849731 0.6238275
vn 0.7277566 -0.2849731 0.6238273
vn 0.6728912 -0.07102247 0.7363241
vn 0.6728912 -0.07102247 0.7363241
vn 0.6728912 -0.07102246 0.7363241
vn 0.7570857 -0.3653458 0.541612
vn 0.7570857 -0.3653458 0.5416121
vn 0.7570857 -0.3653458 0.541612
vn 0.7569716 -0.3652952 0.5418056
vn 0.1260536 -0.8549663 -0.5031332
vn 0.1260525 -0.854966 -0.503134
vn 0.1260525 -0.854966 -0.503134
vn 0.1260525 -0.854966 -0.503134
vn 0.1260523 -0.854966 -0.503134
vn 0.1260521 -0.854966 -0.503134
vn -0.1236585 0.9426484 -0.3100366
vn -0.1236585 0.9426484 -0.3100366
vn -0.1236585 0.9426484 -0.3100366
vn -0.08618758 0.9441158 -0.3181464
vn -0.08618759 0.9441158 -0.3181464
vn 0.9908059 0.09894782 0.09226605
vn 0.9908059 0.09894781 0.09226605
vn 0.9908059 0.09894781 0.09226605
vn 0.9908059 0.09894649 0.09226702
vn 0.9425529 -0.08835863 0.3221594
vn 0.9425529 -0.08835862 0.3221594
vn 0.9425529 -0.08835862 0.3221594
vn 0.9398952 -0.09334619 0.3284562
vn 0.9907252 -0.09975962 0.09225848
vn 0.9907252 -0.09975962 0.09225847
vn 0.9907252 -0.09975961 0.09225847
vn 0.9861227 -0.1181449 0.1166349
vn -0.3783604 0.7572055 0.5324314
vn -0.3783604 0.7572055 0.5324314
vn -0.3783604 0.7572055 0.5324314
vn -0.3821861 0.7559844 0.5314333
vn -0.3821861 0.7559844 0.5314333
vn -0.3668122 0.7518239 0.5479139
vn 0.9915427 -0.1153199 -0.05953564
vn 0.9915427 -0.1153199 -0.05953564
vn 0.9915427 -0.1153199 -0.05953564
vn 0.991944 -0.09564252 -0.08306409
vn 0.991944 -0.09564254 -0.08306409
vn 0.8829235 -0.3263199 0.3375816
vn 0.8829235 -0.3263199 0.3375816
vn 0.8829235 -0.3263199 0.3375816
vn 0.8928221 -0.3181346 0.3188402
vn 0.8861842 0.09841075 0.4527615
vn 0.8765287 0.1081735 0.4690373
vn 0.8861842 0.09841076 0.4527614
vn 0.8861842 0.09841076 0.4527615
vn 0.8959554 0.07800961 0.4372394
vn 0.7575495 -0.1005934 0.6449805
vn 0.7575495 -0.1005934 0.6449805
vn 0.7575495 -0.1005934 0.6449805
vn 0.7520632 -0.1045766 0.6507416
vn -0.2124389 0.3834729 -0.8987871
vn -0.2124389 0.3834729 -0.8987871
vn -0.2124389 0.3834729 -0.8987871
vn -0.2124334 0.3834752 -0.8987874
vn 0.6317071 -0.2871206 0.720075
vn 0.6317071 -0.2871206 0.720075
vn 0.6317071 -0.2871206 0.720075
vn 0.6495453 -0.2956177 0.7005006
g baseball_Explode_Thin_11_Hull_0
f 3/3/3 2/2/2 1/1/1
f 6/6/6 5/5/5 4/4/4
f 9/9/9 8/8/8 7/7/7
f 12/12/12 11/11/11 10/10/10
f 15/15/15 14/14/14 13/13/13
f 18/18/18 17/17/17 16/16/16
f 21/21/21 20/20/20 19/19/19
f 24/24/24 23/23/23 22/22/22
f 27/27/27 26/26/26 25/25/25
f 30/30/30 29/29/29 28/28/28
f 33/33/33 32/32/32 31/31/31
f 36/36/36 35/35/35 34/34/34
f 39/39/39 38/38/38 37/37/37
f 42/42/42 41/41/41 40/40/40
f 45/45/45 44/44/44 43/43/43
f 48/48/48 47/47/47 46/46/46
f 51/51/51 50/50/50 49/49/49
f 54/54/54 53/53/53 52/52/52
f 57/57/57 56/56/56 55/55/55
f 60/60/60 59/59/59 58/58/58
f 63/63/63 62/62/62 61/61/61
f 66/66/66 65/65/65 64/64/64
f 69/69/69 68/68/68 67/67/67
f 72/72/72 71/71/71 70/70/70
f 75/75/75 74/74/74 73/73/73
f 78/78/78 77/77/77 76/76/76
f 81/81/81 80/80/80 79/79/79
f 84/84/84 83/83/83 82/82/82
f 83/83/83 84/84/84 85/85/85
f 88/88/88 87/87/87 86/86/86
f 88/88/88 89/89/89 87/87/87
f 87/87/87 89/89/89 90/90/90
f 90/90/90 89/89/89 91/91/91
f 94/94/94 93/93/93 92/92/92
f 92/92/92 93/93/93 95/95/95
f 96/96/96 92/92/92 95/95/95
f 99/99/99 98/98/98 97/97/97
f 98/98/98 99/99/99 100/100/100
f 103/103/103 102/102/102 101/101/101
f 102/102/102 103/103/103 104/104/104
f 107/107/107 106/106/106 105/105/105
f 108/108/108 107/107/107 105/105/105
f 111/111/111 110/110/110 109/109/109
f 110/110/110 111/111/111 112/112/112
f 113/113/113 110/110/110 112/112/112
f 114/114/114 113/113/113 112/112/112
f 117/117/117 116/116/116 115/115/115
f 117/117/117 115/115/115 118/118/118
f 119/119/119 117/117/117 118/118/118
f 122/122/122 121/121/121 120/120/120
f 121/121/121 123/123/123 120/120/120
f 126/126/126 125/125/125 124/124/124
f 127/127/127 126/126/126 124/124/124
f 128/128/128 127/127/127 124/124/124
f 131/131/131 130/130/130 129/129/129
f 130/130/130 131/131/131 132/132/132
f 135/135/135 134/134/134 133/133/133
f 134/134/134 135/135/135 136/136/136
f 139/139/139 138/138/138 137/137/137
f 138/138/138 140/140/140 137/137/137
