g basketball_Explode_Thin_02_Hull
v -0.06865969 0.2586924 0.1358672
v -0.08433172 0.2257322 0.214301
v -0.1347252 0.1946253 0.1589785
v -0.07775368 0.2188697 0.211183
v -0.1875525 0.1093629 0.1232833
v -0.08433172 0.2257322 0.214301
v -0.07775368 0.2188697 0.211183
v -0.07044136 0.1011071 -0.2069012
v -0.1875525 0.1093629 0.1232833
v -0.07775368 0.2188697 0.211183
v -0.08433172 0.2257322 0.214301
v 0.09011257 0.3089217 -0.06209661
v -0.06077902 0.2260104 -0.0968108
v -0.0369175 0.1934779 -0.1696445
v -0.001581621 0.2433516 -0.1330503
v -0.06077902 0.2260104 -0.0968108
v -0.1040117 0.1516515 -0.147669
v -0.0369175 0.1934779 -0.1696445
v -0.1422517 0.1798107 0.1717187
v -0.1347252 0.1946253 0.1589785
v -0.08433172 0.2257322 0.214301
v -0.05696321 0.2669687 0.1342012
v -0.08433172 0.2257322 0.214301
v -0.06865969 0.2586924 0.1358672
v -0.06865998 0.2586922 0.03069693
v -0.1347251 0.1946255 0.007585431
v -0.09110336 0.2274707 -0.02962598
v 0.08619289 0.3076951 -0.07201936
v -0.0369175 0.1934779 -0.1696445
v -0.0763332 0.1064717 -0.2129324
v 0.08619289 0.3076951 -0.07201936
v 0.07730046 0.3114479 -0.06938733
v -0.001581621 0.2433516 -0.1330503
v 0.08619289 0.3076951 -0.07201936
v -0.001581621 0.2433516 -0.1330503
v -0.0369175 0.1934779 -0.1696445
v 0.08619289 0.3076951 -0.07201936
v -0.07044136 0.1011071 -0.2069012
v 0.09011257 0.3089217 -0.06209661
v 0.08619289 0.3076951 -0.07201936
v -0.0763332 0.1064717 -0.2129324
v -0.07044136 0.1011071 -0.2069012
v -0.1219684 0.1740204 -0.08214439
v -0.06077902 0.2260104 -0.0968108
v -0.09110336 0.2274707 -0.02962598
v -0.1219684 0.1740204 -0.08214439
v -0.1040117 0.1516515 -0.147669
v -0.06077902 0.2260104 -0.0968108
v -0.1219684 0.1740204 -0.08214439
v -0.09110336 0.2274707 -0.02962598
v -0.1347251 0.1946255 0.007585431
v 0.0830677 0.315461 -0.06459757
v 0.08619289 0.3076951 -0.07201936
v 0.09011257 0.3089217 -0.06209661
v 0.0830677 0.315461 -0.06459757
v 0.07730046 0.3114479 -0.06938733
v 0.08619289 0.3076951 -0.07201936
v 0.003728127 0.2890555 -0.05160194
v -0.06077902 0.2260104 -0.0968108
v -0.001581621 0.2433516 -0.1330503
v 0.003728127 0.2890555 -0.05160194
v -0.001581621 0.2433516 -0.1330503
v 0.07730046 0.3114479 -0.06938733
v -0.07874627 0.1160593 -0.2088604
v -0.0369175 0.1934779 -0.1696445
v -0.1040117 0.1516515 -0.147669
v -0.07874627 0.1160593 -0.2088604
v -0.0763332 0.1064717 -0.2129324
v -0.0369175 0.1934779 -0.1696445
v -0.1749725 0.1445601 0.05485463
v -0.1506218 0.1633358 -0.0193231
v -0.1347251 0.1946255 0.007585431
v -0.196306 0.1140614 0.123865
v -0.08433172 0.2257322 0.214301
v -0.1875525 0.1093629 0.1232833
v -0.196306 0.1140614 0.123865
v -0.1422517 0.1798107 0.1717187
v -0.08433172 0.2257322 0.214301
v -0.196306 0.1140614 0.123865
v -0.19534 0.1160796 0.1205577
v -0.1347252 0.1946253 0.1589785
v -0.196306 0.1140614 0.123865
v -0.1347252 0.1946253 0.1589785
v -0.1422517 0.1798107 0.1717187
v -0.196306 0.1140614 0.123865
v -0.07044136 0.1011071 -0.2069012
v -0.0763332 0.1064717 -0.2129324
v -0.196306 0.1140614 0.123865
v -0.1875525 0.1093629 0.1232833
v -0.07044136 0.1011071 -0.2069012
v -0.02236846 0.2857361 -0.007360627
v 0.03173221 0.3152696 -0.01455673
v -0.001224031 0.3051604 0.03053779
v -0.02236846 0.2857361 -0.007360627
v 0.003728127 0.2890555 -0.05160194
v 0.03173221 0.3152696 -0.01455673
v -0.02236846 0.2857361 -0.007360627
v -0.001224031 0.3051604 0.03053779
v -0.06865998 0.2586922 0.03069693
v -0.02236846 0.2857361 -0.007360627
v -0.06865998 0.2586922 0.03069693
v -0.09110336 0.2274707 -0.02962598
v -0.1295802 0.1654627 -0.07938316
v -0.1040117 0.1516515 -0.147669
v -0.1219684 0.1740204 -0.08214439
v 0.08715136 0.3033904 -0.05585912
v 0.09011257 0.3089217 -0.06209661
v -0.07044136 0.1011071 -0.2069012
v 0.08715136 0.3033904 -0.05585912
v -0.07775368 0.2188697 0.211183
v 0.09011257 0.3089217 -0.06209661
v 0.08715136 0.3033904 -0.05585912
v -0.07044136 0.1011071 -0.2069012
v -0.07775368 0.2188697 0.211183
v -0.1347251 0.1946255 0.007585431
v -0.06865969 0.2586924 0.1358672
v -0.1347252 0.1946253 0.1589785
v -0.06865998 0.2586922 0.03069693
v -0.05696321 0.2669687 0.1342012
v 0.09011257 0.3089217 -0.06209661
v -0.08433172 0.2257322 0.214301
v -0.001224031 0.3051604 0.03053779
v 0.03173221 0.3152696 -0.01455673
v 0.0830677 0.315461 -0.06459757
v -0.06865998 0.2586922 0.03069693
v -0.05696321 0.2669687 0.1342012
v -0.06865969 0.2586924 0.1358672
v -0.001224031 0.3051604 0.03053779
v -0.1219684 0.1740204 -0.08214439
v -0.1347251 0.1946255 0.007585431
v -0.1506218 0.1633358 -0.0193231
v -0.1295802 0.1654627 -0.07938316
v 0.0830677 0.315461 -0.06459757
v 0.03173221 0.3152696 -0.01455673
v 0.07730046 0.3114479 -0.06938733
v 0.003728127 0.2890555 -0.05160194
v -0.07874627 0.1160593 -0.2088604
v -0.1040117 0.1516515 -0.147669
v -0.0763332 0.1064717 -0.2129324
v -0.1506218 0.1633358 -0.0193231
v -0.1295802 0.1654627 -0.07938316
v -0.19534 0.1160796 0.1205577
v -0.1749725 0.1445601 0.05485463
v -0.196306 0.1140614 0.123865
v -0.1749725 0.1445601 0.05485463
v -0.1347252 0.1946253 0.1589785
v -0.19534 0.1160796 0.1205577
v -0.1347251 0.1946255 0.007585431
v -0.02236846 0.2857361 -0.007360627
v -0.09110336 0.2274707 -0.02962598
v -0.06077902 0.2260104 -0.0968108
v 0.003728127 0.2890555 -0.05160194
vn -0.6518068 0.7368581 0.1794101
vn -0.6518068 0.7368581 0.1794101
vn -0.6518068 0.7368581 0.1794101
vn -0.148961 -0.5238455 0.8386874
vn -0.1489611 -0.5238456 0.8386873
vn -0.148961 -0.5238456 0.8386874
vn 0.5896574 -0.7746528 0.2285112
vn 0.5896573 -0.7746528 0.2285112
vn 0.5896574 -0.7746528 0.2285112
vn 0.7064455 0.417494 0.5715187
vn 0.7064455 0.417494 0.5715187
vn 0.7064455 0.417494 0.5715187
vn -0.5057075 0.7138 -0.4845095
vn -0.5057074 0.7138 -0.4845095
vn -0.5057075 0.7138 -0.4845095
vn -0.5716349 0.6629839 -0.4834106
vn -0.5716349 0.662984 -0.4834106
vn -0.5716349 0.6629839 -0.4834106
vn -0.7188187 0.6257197 0.3029429
vn -0.7188187 0.6257197 0.302943
vn -0.7188187 0.6257197 0.3029429
vn -0.5395565 0.8092767 0.2322715
vn -0.5395565 0.8092767 0.2322715
vn -0.5395565 0.8092767 0.2322715
vn -0.6657948 0.734304 -0.1323445
vn -0.6657948 0.734304 -0.1323445
vn -0.6657948 0.734304 -0.1323445
vn 0.4859873 0.2027915 -0.8501129
vn 0.4859873 0.2027915 -0.8501129
vn 0.4859873 0.2027915 -0.8501129
vn 0.05016929 0.650441 -0.7578981
vn 0.0501693 0.6504411 -0.7578981
vn 0.05016929 0.650441 -0.7578981
vn 0.2810109 0.4303178 -0.8578225
vn 0.2810108 0.4303178 -0.8578225
vn 0.2810109 0.4303178 -0.8578225
vn 0.8440751 -0.4593529 -0.2766442
vn 0.8440753 -0.4593529 -0.2766442
vn 0.8440751 -0.4593529 -0.2766442
vn 0.6905524 -0.05259141 -0.7213678
vn 0.6905524 -0.05259141 -0.7213678
vn 0.6905523 -0.05259141 -0.7213678
vn -0.6575229 0.6859409 -0.3116871
vn -0.6575228 0.6859409 -0.3116871
vn -0.6575228 0.6859409 -0.3116871
vn -0.6473725 0.6493406 -0.3990811
vn -0.6473725 0.6493406 -0.3990811
vn -0.6473725 0.6493406 -0.3990812
vn -0.7100303 0.6575578 -0.2519417
vn -0.7100303 0.6575578 -0.2519417
vn -0.7100303 0.6575578 -0.2519418
vn 0.7007276 0.6197442 -0.3534092
vn 0.7007276 0.6197442 -0.3534093
vn 0.7007276 0.6197442 -0.3534092
vn 0.09069481 0.7068975 -0.7014772
vn 0.09069482 0.7068975 -0.7014772
vn 0.09069481 0.7068975 -0.7014772
vn -0.4770054 0.7793792 -0.4062437
vn -0.4770054 0.7793792 -0.4062436
vn -0.4770054 0.7793792 -0.4062436
vn -0.3570842 0.8243297 -0.439285
vn -0.3570842 0.8243297 -0.439285
vn -0.3570842 0.8243297 -0.439285
vn -0.5597511 0.5947267 -0.5770432
vn -0.559751 0.5947267 -0.5770432
vn -0.5597511 0.5947267 -0.5770432
vn 0.09376684 0.4091056 -0.9076566
vn 0.09376685 0.4091056 -0.9076566
vn 0.09376685 0.4091056 -0.9076566
vn -0.830975 0.5393624 -0.1362668
vn -0.8309751 0.5393624 -0.1362668
vn -0.8309751 0.5393624 -0.1362668
vn -0.203634 -0.4847026 0.8506449
vn -0.203634 -0.4847026 0.8506449
vn -0.203634 -0.4847026 0.8506449
vn -0.3935585 -0.307094 0.8664899
vn -0.3935586 -0.307094 0.8664899
vn -0.3935585 -0.307094 0.8664899
vn -0.8124271 0.5722237 0.1119029
vn -0.8124271 0.5722237 0.1119029
vn -0.8124271 0.5722237 0.1119029
vn -0.8167617 0.5538936 0.1615613
vn -0.8167617 0.5538936 0.1615613
vn -0.8167617 0.5538936 0.1615613
vn -0.555459 -0.8119242 -0.1795672
vn -0.555459 -0.8119242 -0.1795672
vn -0.555459 -0.8119242 -0.1795672
vn -0.4753658 -0.8674347 -0.1469157
vn -0.4753658 -0.8674348 -0.1469157
vn -0.4753658 -0.8674348 -0.1469157
vn -0.4894199 0.8561512 -0.1657505
vn -0.4894199 0.8561512 -0.1657505
vn -0.4894199 0.8561512 -0.1657505
vn -0.4897476 0.8421441 -0.2257004
vn -0.4897476 0.8421441 -0.2257004
vn -0.4897476 0.8421441 -0.2257004
vn -0.5644538 0.8187926 -0.1047396
vn -0.5644539 0.8187927 -0.1047397
vn -0.5644539 0.8187927 -0.1047397
vn -0.6018152 0.7783318 -0.178936
vn -0.6018154 0.7783318 -0.178936
vn -0.6018154 0.7783318 -0.178936
vn -0.7471305 0.5391098 -0.3887886
vn -0.7471305 0.5391098 -0.3887886
vn -0.7471305 0.5391098 -0.3887886
vn 0.8214391 -0.5602049 -0.1068093
vn 0.8214391 -0.5602049 -0.1068093
vn 0.8214391 -0.5602049 -0.1068093
vn 0.8036931 0.2012221 0.5599884
vn 0.8036932 0.201222 0.5599883
vn 0.8036932 0.201222 0.5599883
vn 0.690685 -0.6928275 0.2072303
vn 0.690685 -0.6928275 0.2072303
vn 0.690685 -0.6928275 0.2072303
vn -0.6961656 0.7178812 4.220425E-07
vn -0.6961656 0.7178812 4.220425E-07
vn -0.6961656 0.7178811 4.220424E-07
vn -0.6961664 0.7178804 1.182411E-06
vn 0.5056648 0.6844807 0.5251563
vn 0.4988363 0.6933698 0.5200006
vn 0.5056649 0.6844807 0.5251563
vn 0.4988363 0.6933698 0.5200006
vn 0.4988363 0.6933698 0.5200006
vn 0.4862031 0.7156017 0.5015182
vn -0.5776158 0.8163088 7.61631E-07
vn -0.5776158 0.8163088 7.616309E-07
vn -0.5776158 0.8163088 7.61631E-07
vn -0.5674092 0.8234342 -0.001722437
vn -0.7622932 0.5987168 -0.24586
vn -0.7622932 0.5987168 -0.24586
vn -0.7622933 0.5987169 -0.24586
vn -0.7622944 0.5987151 -0.2458607
vn -0.3323895 0.880641 -0.337622
vn -0.3323895 0.880641 -0.3376221
vn -0.3323895 0.880641 -0.3376221
vn -0.3492565 0.8688759 -0.3508197
vn -0.9384216 -0.0951211 -0.33214
vn -0.9384221 -0.09512595 -0.3321368
vn -0.9384221 -0.09512595 -0.3321368
vn -0.9384221 -0.09512596 -0.3321368
vn -0.9384223 -0.09512478 -0.3321371
vn -0.9384223 -0.09512264 -0.3321378
vn -0.9384204 -0.09513178 -0.3321401
vn -0.9384223 -0.09512191 -0.3321379
vn -0.7953625 0.6059203 0.01609328
vn -0.7953625 0.6059203 0.01609328
vn -0.7953625 0.6059203 0.01609328
vn -0.7793848 0.6265456 2.493071E-07
vn -0.568837 0.7756052 -0.2736072
vn -0.568837 0.7756052 -0.2736072
vn -0.568837 0.7756052 -0.2736071
vn -0.5661029 0.7768861 -0.2756364
g basketball_Explode_Thin_02_Hull_0
f 3/3/3 2/2/2 1/1/1
f 6/6/6 5/5/5 4/4/4
f 9/9/9 8/8/8 7/7/7
f 12/12/12 11/11/11 10/10/10
f 15/15/15 14/14/14 13/13/13
f 18/18/18 17/17/17 16/16/16
f 21/21/21 20/20/20 19/19/19
f 24/24/24 23/23/23 22/22/22
f 27/27/27 26/26/26 25/25/25
f 30/30/30 29/29/29 28/28/28
f 33/33/33 32/32/32 31/31/31
f 36/36/36 35/35/35 34/34/34
f 39/39/39 38/38/38 37/37/37
f 42/42/42 41/41/41 40/40/40
f 45/45/45 44/44/44 43/43/43
f 48/48/48 47/47/47 46/46/46
f 51/51/51 50/50/50 49/49/49
f 54/54/54 53/53/53 52/52/52
f 57/57/57 56/56/56 55/55/55
f 60/60/60 59/59/59 58/58/58
f 63/63/63 62/62/62 61/61/61
f 66/66/66 65/65/65 64/64/64
f 69/69/69 68/68/68 67/67/67
f 72/72/72 71/71/71 70/70/70
f 75/75/75 74/74/74 73/73/73
f 78/78/78 77/77/77 76/76/76
f 81/81/81 80/80/80 79/79/79
f 84/84/84 83/83/83 82/82/82
f 87/87/87 86/86/86 85/85/85
f 90/90/90 89/89/89 88/88/88
f 93/93/93 92/92/92 91/91/91
f 96/96/96 95/95/95 94/94/94
f 99/99/99 98/98/98 97/97/97
f 102/102/102 101/101/101 100/100/100
f 105/105/105 104/104/104 103/103/103
f 108/108/108 107/107/107 106/106/106
f 111/111/111 110/110/110 109/109/109
f 114/114/114 113/113/113 112/112/112
f 117/117/117 116/116/116 115/115/115
f 115/115/115 116/116/116 118/118/118
f 121/121/121 120/120/120 119/119/119
f 120/120/120 122/122/122 119/119/119
f 122/122/122 120/120/120 123/123/123
f 123/123/123 120/120/120 124/124/124
f 127/127/127 126/126/126 125/125/125
f 126/126/126 128/128/128 125/125/125
f 131/131/131 130/130/130 129/129/129
f 131/131/131 129/129/129 132/132/132
f 135/135/135 134/134/134 133/133/133
f 134/134/134 135/135/135 136/136/136
f 139/139/139 138/138/138 137/137/137
f 139/139/139 140/140/140 138/138/138
f 138/138/138 140/140/140 141/141/141
f 140/140/140 139/139/139 142/142/142
f 140/140/140 142/142/142 143/143/143
f 142/142/142 139/139/139 144/144/144
f 147/147/147 146/146/146 145/145/145
f 146/146/146 148/148/148 145/145/145
f 151/151/151 150/150/150 149/149/149
f 152/152/152 151/151/151 149/149/149
