g basketball_Explode_Thin_06_Hull
v 0.2855751 -0.004271655 0.07488619
v -0.2144846 0.1816355 -0.04641012
v -0.2769249 -0.1647092 0.02068795
v -0.1189548 -0.2107556 0.1238255
v 0.1272337 -0.1960735 0.1356583
v -0.2769249 -0.1647092 0.02068795
v 0.05251421 0.1964484 0.03604859
v -0.2144846 0.1816355 -0.04641012
v 0.2855751 -0.004271655 0.07488619
v 0.1454965 0.01177065 0.1368547
v 0.008903678 0.01470566 0.142985
v 0.1446818 0.1516725 0.07860825
v 0.1454965 0.01177065 0.1368547
v 0.2217307 -0.1089275 0.1308317
v 0.08861452 -0.1138223 0.158416
v 0.1454965 0.01177065 0.1368547
v 0.08861452 -0.1138223 0.158416
v 0.008903678 0.01470566 0.142985
v 0.01856536 -0.2115755 0.1479951
v 0.1272337 -0.1960735 0.1356583
v -0.1189548 -0.2107556 0.1238255
v -0.04377821 -0.08401831 0.1528353
v 0.01856536 -0.2115755 0.1479951
v -0.1189548 -0.2107556 0.1238255
v -0.04377821 -0.08401831 0.1528353
v 0.008903678 0.01470566 0.142985
v 0.08861452 -0.1138223 0.158416
v -0.04377821 -0.08401831 0.1528353
v 0.08861452 -0.1138223 0.158416
v 0.01856536 -0.2115755 0.1479951
v -0.04377821 -0.08401831 0.1528353
v -0.1189548 -0.2107556 0.1238255
v -0.1931835 -0.08874162 0.09989119
v -0.04377821 -0.08401831 0.1528353
v -0.1931835 -0.08874162 0.09989119
v -0.1145985 0.03632703 0.1119543
v -0.04377821 -0.08401831 0.1528353
v -0.1145985 0.03632703 0.1119543
v 0.008903678 0.01470566 0.142985
v -0.2401737 -0.1842088 0.06389964
v -0.1189548 -0.2107556 0.1238255
v -0.2769249 -0.1647092 0.02068795
v -0.2401737 -0.1842088 0.06389964
v -0.1931835 -0.08874162 0.09989119
v -0.1189548 -0.2107556 0.1238255
v 0.2494877 0.05178652 0.08928294
v 0.1454965 0.01177065 0.1368547
v 0.1446818 0.1516725 0.07860825
v 0.08004616 0.1941385 0.05890661
v 0.05251421 0.1964484 0.03604859
v 0.1446818 0.1516725 0.07860825
v 0.08004616 0.1941385 0.05890661
v -0.04464526 0.2141846 0.03578182
v 0.05251421 0.1964484 0.03604859
v -0.2903384 -0.08812121 0.02673873
v -0.1931835 -0.08874162 0.09989119
v -0.2401737 -0.1842088 0.06389964
v -0.03843298 0.1516062 0.08139332
v -0.04464526 0.2141846 0.03578182
v 0.08004616 0.1941385 0.05890661
v -0.03843298 0.1516062 0.08139332
v -0.1145985 0.03632703 0.1119543
v -0.208935 0.1301424 0.0194107
v -0.03843298 0.1516062 0.08139332
v 0.008903678 0.01470566 0.142985
v -0.1145985 0.03632703 0.1119543
v 0.2722389 -0.03409771 0.1016865
v 0.2217307 -0.1089275 0.1308317
v 0.1454965 0.01177065 0.1368547
v 0.2722389 -0.03409771 0.1016865
v 0.1454965 0.01177065 0.1368547
v 0.2494877 0.05178652 0.08928294
v 0.1425665 -0.1909194 0.1449453
v 0.01856536 -0.2115755 0.1479951
v 0.08861452 -0.1138223 0.158416
v 0.1425665 -0.1909194 0.1449453
v 0.1272337 -0.1960735 0.1356583
v 0.01856536 -0.2115755 0.1479951
v 0.1425665 -0.1909194 0.1449453
v 0.08861452 -0.1138223 0.158416
v 0.2217307 -0.1089275 0.1308317
v -0.2350093 0.0122691 0.056428
v -0.2903384 -0.08812121 0.02673873
v -0.2829092 0.009413529 0.01450506
v -0.2350093 0.0122691 0.056428
v -0.1931835 -0.08874162 0.09989119
v -0.2903384 -0.08812121 0.02673873
v -0.2350093 0.0122691 0.056428
v -0.208935 0.1301424 0.0194107
v -0.1145985 0.03632703 0.1119543
v -0.2350093 0.0122691 0.056428
v -0.1145985 0.03632703 0.1119543
v -0.1931835 -0.08874162 0.09989119
v -0.2836924 -0.1650891 0.02804457
v -0.2401737 -0.1842088 0.06389964
v -0.2769249 -0.1647092 0.02068795
v -0.2836924 -0.1650891 0.02804457
v -0.2903384 -0.08812121 0.02673873
v -0.2401737 -0.1842088 0.06389964
v -0.2836924 -0.1650891 0.02804457
v -0.2769249 -0.1647092 0.02068795
v -0.2903384 -0.08812121 0.02673873
v -0.2202362 0.1873988 -0.04059922
v -0.2428549 0.1452569 -0.02236009
v -0.2144846 0.1816355 -0.04641012
v 0.2903568 -0.001896962 0.08334541
v 0.2494877 0.05178652 0.08928294
v 0.2855751 -0.004271655 0.07488619
v 0.2903568 -0.001896962 0.08334541
v 0.2722389 -0.03409771 0.1016865
v 0.2494877 0.05178652 0.08928294
v 0.2903568 -0.001896962 0.08334541
v 0.2855751 -0.004271655 0.07488619
v 0.2722389 -0.03409771 0.1016865
v 0.1603427 -0.178972 0.1318859
v 0.1425665 -0.1909194 0.1449453
v 0.2217307 -0.1089275 0.1308317
v 0.1603427 -0.178972 0.1318859
v 0.1272337 -0.1960735 0.1356583
v 0.1425665 -0.1909194 0.1449453
v 0.1603427 -0.178972 0.1318859
v 0.2855751 -0.004271655 0.07488619
v -0.2769249 -0.1647092 0.02068795
v 0.1603427 -0.178972 0.1318859
v -0.2769249 -0.1647092 0.02068795
v 0.1272337 -0.1960735 0.1356583
v 0.05251421 0.1964484 0.03604859
v 0.2855751 -0.004271655 0.07488619
v 0.1446818 0.1516725 0.07860825
v 0.2494877 0.05178652 0.08928294
v -0.1740651 0.2015169 -0.01196764
v 0.05251421 0.1964484 0.03604859
v -0.04464526 0.2141846 0.03578182
v -0.2144846 0.1816355 -0.04641012
v -0.2202362 0.1873988 -0.04059922
v -0.2428549 0.1452569 -0.02236009
v -0.1740651 0.2015169 -0.01196764
v -0.208935 0.1301424 0.0194107
v -0.2202362 0.1873988 -0.04059922
v -0.2428549 0.1452569 -0.02236009
v -0.2829092 0.009413529 0.01450506
v -0.2144846 0.1816355 -0.04641012
v -0.2769249 -0.1647092 0.02068795
v -0.2903384 -0.08812121 0.02673873
v -0.2428549 0.1452569 -0.02236009
v -0.208935 0.1301424 0.0194107
v -0.2829092 0.009413529 0.01450506
v -0.2350093 0.0122691 0.056428
v -0.03843298 0.1516062 0.08139332
v 0.1446818 0.1516725 0.07860825
v 0.008903678 0.01470566 0.142985
v 0.08004616 0.1941385 0.05890661
v -0.03843298 0.1516062 0.08139332
v -0.1740651 0.2015169 -0.01196764
v -0.04464526 0.2141846 0.03578182
v -0.208935 0.1301424 0.0194107
v 0.2722389 -0.03409771 0.1016865
v 0.2855751 -0.004271655 0.07488619
v 0.2217307 -0.1089275 0.1308317
v 0.1603427 -0.178972 0.1318859
vn 0.1541463 -0.2146356 -0.9644535
vn 0.1541463 -0.2146356 -0.9644535
vn 0.1541463 -0.2146356 -0.9644535
vn 0.07549161 -0.8623616 -0.500633
vn 0.07549161 -0.8623616 -0.500633
vn 0.07549161 -0.8623616 -0.500633
vn 0.2844283 0.1469489 -0.9473682
vn 0.2844282 0.1469489 -0.9473682
vn 0.2844283 0.1469489 -0.9473682
vn 0.04963093 0.3841293 0.9219444
vn 0.04963093 0.3841294 0.9219443
vn 0.04963094 0.3841293 0.9219444
vn 0.1995752 0.07730924 0.9768281
vn 0.1995752 0.07730924 0.9768281
vn 0.1995752 0.07730924 0.9768281
vn 0.0475158 0.1480677 0.9878351
vn 0.04751581 0.1480678 0.9878351
vn 0.04751581 0.1480678 0.9878351
vn 0.07480022 -0.8869919 -0.4556866
vn 0.07480022 -0.8869919 -0.4556866
vn 0.07480022 -0.8869919 -0.4556866
vn -0.1725218 -0.1214113 0.9774945
vn -0.1725218 -0.1214113 0.9774945
vn -0.1725218 -0.1214113 0.9774945
vn -0.01747327 0.108496 0.9939433
vn -0.01747327 0.108496 0.9939433
vn -0.01747327 0.108496 0.9939433
vn -0.05674807 -0.06553795 0.9962351
vn -0.05674807 -0.06553795 0.9962351
vn -0.05674808 -0.06553795 0.9962351
vn -0.3334553 -0.01796212 0.9425949
vn -0.3334553 -0.01796212 0.9425949
vn -0.3334553 -0.01796212 0.9425949
vn -0.3349642 0.1203343 0.9345152
vn -0.3349642 0.1203343 0.9345152
vn -0.3349642 0.1203343 0.9345152
vn -0.2046598 0.2047165 0.9571862
vn -0.2046598 0.2047165 0.9571862
vn -0.2046598 0.2047165 0.9571862
vn 0.006410739 -0.9094179 -0.4158341
vn 0.006410739 -0.9094179 -0.4158341
vn 0.006410738 -0.9094179 -0.4158341
vn -0.4592786 -0.1064152 0.8818951
vn -0.4592786 -0.1064152 0.8818951
vn -0.4592786 -0.1064152 0.8818951
vn 0.2639343 0.3720372 0.8899028
vn 0.2639343 0.3720372 0.8899028
vn 0.2639343 0.3720372 0.8899029
vn 0.5558512 0.5617632 -0.6127411
vn 0.5558512 0.5617632 -0.6127411
vn 0.5558512 0.5617632 -0.6127411
vn 0.1786672 0.9769916 -0.1164708
vn 0.1786673 0.9769916 -0.1164708
vn 0.1786672 0.9769916 -0.1164708
vn -0.6015182 -0.005091937 0.7988428
vn -0.6015183 -0.005091937 0.7988428
vn -0.6015182 -0.005091937 0.7988428
vn -0.05616746 0.5844383 0.8094919
vn -0.05616746 0.5844383 0.8094919
vn -0.05616746 0.5844383 0.8094919
vn -0.3545161 0.4513278 0.8189149
vn -0.3545161 0.4513278 0.8189148
vn -0.3545161 0.4513278 0.8189148
vn -0.168808 0.3552676 0.9193959
vn -0.168808 0.3552676 0.9193959
vn -0.168808 0.3552675 0.9193959
vn 0.3150317 0.1522306 0.9367929
vn 0.3150317 0.1522306 0.9367929
vn 0.3150317 0.1522306 0.9367929
vn 0.3341722 0.2208536 0.916271
vn 0.3341722 0.2208536 0.916271
vn 0.3341722 0.2208536 0.916271
vn 0.04756814 -0.1395268 0.9890751
vn 0.04756814 -0.1395268 0.9890751
vn 0.04756814 -0.1395268 0.9890751
vn 0.1649583 -0.9524356 0.2562328
vn 0.1649583 -0.9524356 0.2562328
vn 0.1649583 -0.9524356 0.2562328
vn 0.2038267 -0.0283473 0.9785964
vn 0.2038267 -0.0283473 0.9785964
vn 0.2038267 -0.0283473 0.9785964
vn -0.6566494 0.1429015 0.7405341
vn -0.6566494 0.1429014 0.7405341
vn -0.6566494 0.1429014 0.7405341
vn -0.5984263 0.09453282 0.7955813
vn -0.5984263 0.09453282 0.7955813
vn -0.5984263 0.09453282 0.7955813
vn -0.4490442 0.3566142 0.8192592
vn -0.4490442 0.3566141 0.8192592
vn -0.4490442 0.3566142 0.8192592
vn -0.4424686 0.1935611 0.8756458
vn -0.4424686 0.1935611 0.8756458
vn -0.4424686 0.1935611 0.8756458
vn -0.2134624 -0.9456807 -0.2451976
vn -0.2134624 -0.9456807 -0.2451976
vn -0.2134624 -0.9456807 -0.2451976
vn -0.6464517 -0.04289652 0.7617481
vn -0.6464517 -0.04289651 0.761748
vn -0.6464517 -0.04289652 0.7617481
vn -0.7319832 -0.07469543 -0.6772158
vn -0.7319832 -0.07469542 -0.6772158
vn -0.7319832 -0.07469542 -0.6772158
vn -0.6836009 0.05182138 -0.7280141
vn -0.6836009 0.05182138 -0.7280141
vn -0.6836009 0.05182138 -0.7280141
vn 0.6496822 0.5523692 -0.5223039
vn 0.6496822 0.5523692 -0.5223039
vn 0.6496822 0.5523692 -0.5223039
vn 0.4433821 0.2420932 0.8630198
vn 0.4433821 0.2420932 0.8630198
vn 0.4433821 0.2420932 0.8630198
vn 0.7658432 -0.5840868 -0.2689366
vn 0.7658431 -0.5840868 -0.2689366
vn 0.7658431 -0.5840869 -0.2689366
vn 0.6942235 -0.6025018 0.3937579
vn 0.6942235 -0.6025018 0.3937579
vn 0.6942236 -0.6025018 0.3937579
vn 0.4278192 -0.8767437 -0.2197527
vn 0.4278192 -0.8767437 -0.2197527
vn 0.4278192 -0.8767437 -0.2197527
vn 0.2085289 -0.4352407 -0.8758318
vn 0.2085289 -0.4352407 -0.8758318
vn 0.2085289 -0.4352407 -0.8758318
vn 0.1895441 -0.5468502 -0.8154925
vn 0.189544 -0.5468502 -0.8154925
vn 0.189544 -0.5468501 -0.8154925
vn 0.5527331 0.5150236 -0.6551617
vn 0.552733 0.5150236 -0.6551617
vn 0.5527331 0.5150236 -0.6551617
vn 0.5672049 0.527556 -0.6324266
vn 0.1450525 0.7855532 -0.6015531
vn 0.1450525 0.7855532 -0.601553
vn 0.1450525 0.7855532 -0.601553
vn 0.1484869 0.7709888 -0.6192964
vn 0.1478468 0.7714847 -0.6188316
vn -0.5428265 0.545813 0.6383005
vn -0.5428265 0.545813 0.6383006
vn -0.5428265 0.545813 0.6383005
vn -0.5530565 0.5627419 0.6143698
vn -0.6261532 -0.02684415 -0.7792379
vn -0.5926316 -0.04891622 -0.803987
vn -0.5926316 -0.04891622 -0.8039869
vn -0.5926316 -0.04891622 -0.803987
vn -0.6302844 -0.04917407 -0.7748054
vn -0.6503471 0.3715649 0.6625618
vn -0.6503471 0.3715649 0.6625618
vn -0.650347 0.3715649 0.6625619
vn -0.6273257 0.3562427 0.6924981
vn 0.01369201 0.4141846 0.9100899
vn 0.01369201 0.4141846 0.9100899
vn 0.01369201 0.4141845 0.9100899
vn 0.01351537 0.4376687 0.8990347
vn -0.3384276 0.5320879 0.7761115
vn -0.3384276 0.532088 0.7761115
vn -0.3384276 0.5320879 0.7761115
vn -0.3493998 0.5148588 0.782841
vn 0.7213832 -0.6126681 -0.3228685
vn 0.7213833 -0.6126681 -0.3228685
vn 0.7213833 -0.6126681 -0.3228686
vn 0.699355 -0.6183214 -0.3585822
g basketball_Explode_Thin_06_Hull_0
f 3/3/3 2/2/2 1/1/1
f 6/6/6 5/5/5 4/4/4
f 9/9/9 8/8/8 7/7/7
f 12/12/12 11/11/11 10/10/10
f 15/15/15 14/14/14 13/13/13
f 18/18/18 17/17/17 16/16/16
f 21/21/21 20/20/20 19/19/19
f 24/24/24 23/23/23 22/22/22
f 27/27/27 26/26/26 25/25/25
f 30/30/30 29/29/29 28/28/28
f 33/33/33 32/32/32 31/31/31
f 36/36/36 35/35/35 34/34/34
f 39/39/39 38/38/38 37/37/37
f 42/42/42 41/41/41 40/40/40
f 45/45/45 44/44/44 43/43/43
f 48/48/48 47/47/47 46/46/46
f 51/51/51 50/50/50 49/49/49
f 54/54/54 53/53/53 52/52/52
f 57/57/57 56/56/56 55/55/55
f 60/60/60 59/59/59 58/58/58
f 63/63/63 62/62/62 61/61/61
f 66/66/66 65/65/65 64/64/64
f 69/69/69 68/68/68 67/67/67
f 72/72/72 71/71/71 70/70/70
f 75/75/75 74/74/74 73/73/73
f 78/78/78 77/77/77 76/76/76
f 81/81/81 80/80/80 79/79/79
f 84/84/84 83/83/83 82/82/82
f 87/87/87 86/86/86 85/85/85
f 90/90/90 89/89/89 88/88/88
f 93/93/93 92/92/92 91/91/91
f 96/96/96 95/95/95 94/94/94
f 99/99/99 98/98/98 97/97/97
f 102/102/102 101/101/101 100/100/100
f 105/105/105 104/104/104 103/103/103
f 108/108/108 107/107/107 106/106/106
f 111/111/111 110/110/110 109/109/109
f 114/114/114 113/113/113 112/112/112
f 117/117/117 116/116/116 115/115/115
f 120/120/120 119/119/119 118/118/118
f 123/123/123 122/122/122 121/121/121
f 126/126/126 125/125/125 124/124/124
f 129/129/129 128/128/128 127/127/127
f 128/128/128 129/129/129 130/130/130
f 133/133/133 132/132/132 131/131/131
f 132/132/132 134/134/134 131/131/131
f 131/131/131 134/134/134 135/135/135
f 138/138/138 137/137/137 136/136/136
f 136/136/136 137/137/137 139/139/139
f 142/142/142 141/141/141 140/140/140
f 142/142/142 143/143/143 141/141/141
f 141/141/141 143/143/143 144/144/144
f 147/147/147 146/146/146 145/145/145
f 146/146/146 147/147/147 148/148/148
f 151/151/151 150/150/150 149/149/149
f 150/150/150 152/152/152 149/149/149
f 155/155/155 154/154/154 153/153/153
f 154/154/154 156/156/156 153/153/153
f 159/159/159 158/158/158 157/157/157
f 158/158/158 159/159/159 160/160/160
