g basketball_Explode_Thin_16_Hull
v 0.08037978 0.1111426 -0.1020544
v 0.04174945 0.1785093 -0.1934047
v 0.02990889 0.06099463 -0.2386538
v 0.06812055 0.202054 -0.09613702
v 0.04174945 0.1785093 -0.1934047
v 0.08037978 0.1111426 -0.1020544
v 0.05455739 0.1770189 0.1699725
v 0.005145771 0.1209464 0.2801536
v -0.003222275 0.119539 0.2748572
v 0.0727082 -0.04244251 0.0445857
v 0.06005885 0.03542295 0.1720115
v 0.08820122 0.06103728 0.04584945
v 0.03192653 0.01366388 0.2289191
v 0.06005885 0.03542295 0.1720115
v 0.03581956 -0.08550458 0.1630305
v 0.03192653 0.01366388 0.2289191
v -0.003222275 0.119539 0.2748572
v 0.005145771 0.1209464 0.2801536
v -0.00733248 -0.03993165 -0.2704832
v 0.01911142 -0.03958919 -0.2279928
v 0.02990889 0.06099463 -0.2386538
v -0.00733248 -0.03993165 -0.2704832
v 0.02990889 0.06099463 -0.2386538
v 0.04174945 0.1785093 -0.1934047
v -0.003406794 -0.2058899 -0.04687084
v 0.01551053 -0.1813472 -0.03518626
v -0.01733581 -0.1939866 -0.1478787
v -0.003406794 -0.2058899 -0.04687084
v 0.004169083 -0.1942029 0.05890935
v 0.01551053 -0.1813472 -0.03518626
v 0.05320064 -0.01480027 -0.1644927
v 0.02990889 0.06099463 -0.2386538
v 0.01911142 -0.03958919 -0.2279928
v 0.07632267 0.01038883 -0.09745036
v 0.0727082 -0.04244251 0.0445857
v 0.08820122 0.06103728 0.04584945
v 0.07632267 0.01038883 -0.09745036
v 0.05270688 -0.08819884 -0.09264626
v 0.0727082 -0.04244251 0.0445857
v -0.02171894 -0.1126535 -0.2516681
v -0.00733248 -0.03993165 -0.2704832
v -0.05222406 -0.1210416 -0.2801292
v -0.02171894 -0.1126535 -0.2516681
v 0.01911142 -0.03958919 -0.2279928
v -0.00733248 -0.03993165 -0.2704832
v -0.02975927 -0.1722065 -0.2067167
v -0.02171894 -0.1126535 -0.2516681
v -0.05222406 -0.1210416 -0.2801292
v 0.04352379 -0.1112657 0.09595665
v 0.01551053 -0.1813472 -0.03518626
v 0.004169083 -0.1942029 0.05890935
v 0.04352379 -0.1112657 0.09595665
v 0.004169083 -0.1942029 0.05890935
v 0.03581956 -0.08550458 0.1630305
v 0.03509211 -0.08846433 -0.1577836
v -0.02171894 -0.1126535 -0.2516681
v -0.02975927 -0.1722065 -0.2067167
v 0.03509211 -0.08846433 -0.1577836
v -0.02975927 -0.1722065 -0.2067167
v -0.01733581 -0.1939866 -0.1478787
v 0.03509211 -0.08846433 -0.1577836
v 0.01911142 -0.03958919 -0.2279928
v -0.02171894 -0.1126535 -0.2516681
v 0.03509211 -0.08846433 -0.1577836
v 0.05320064 -0.01480027 -0.1644927
v 0.01911142 -0.03958919 -0.2279928
v -0.05898401 -0.1167158 -0.2741586
v -0.02975927 -0.1722065 -0.2067167
v -0.05222406 -0.1210416 -0.2801292
v -0.05898401 -0.1167158 -0.2741586
v -0.01733581 -0.1939866 -0.1478787
v -0.02975927 -0.1722065 -0.2067167
v -0.003926644 -0.1884 0.05799092
v -0.003406794 -0.2058899 -0.04687084
v -0.05898401 -0.1167158 -0.2741586
v -0.05222406 -0.1210416 -0.2801292
v -0.00733248 -0.03993165 -0.2704832
v 0.03297191 0.176137 -0.1892352
v 0.04174945 0.1785093 -0.1934047
v -0.05898401 -0.1167158 -0.2741586
v -0.00733248 -0.03993165 -0.2704832
v 0.07632267 0.1617638 0.1024277
v 0.08820122 0.06103728 0.04584945
v 0.06005885 0.03542295 0.1720115
v 0.07632267 0.1617638 0.1024277
v 0.06005885 0.03542295 0.1720115
v 0.05455739 0.1770189 0.1699725
v 0.07632267 0.1617638 0.1024277
v 0.05455739 0.1770189 0.1699725
v 0.07360826 0.2014387 0.05899007
v 0.03297191 0.176137 -0.1892352
v -0.003222275 0.119539 0.2748572
v -0.05898401 -0.1167158 -0.2741586
v 0.03297191 0.176137 -0.1892352
v 0.06812055 0.202054 -0.09613702
v 0.07360826 0.2014387 0.05899007
v 0.05455739 0.1770189 0.1699725
v -0.003222275 0.119539 0.2748572
v 0.03297191 0.176137 -0.1892352
v 0.03297191 0.176137 -0.1892352
v 0.04174945 0.1785093 -0.1934047
v 0.06812055 0.202054 -0.09613702
v -0.003926644 -0.1884 0.05799092
v -0.05898401 -0.1167158 -0.2741586
v -0.003222275 0.119539 0.2748572
v -0.003926644 -0.1884 0.05799092
v 0.004169083 -0.1942029 0.05890935
v -0.003406794 -0.2058899 -0.04687084
v -0.003926644 -0.1884 0.05799092
v -0.01733581 -0.1939866 -0.1478787
v -0.05898401 -0.1167158 -0.2741586
v -0.003926644 -0.1884 0.05799092
v 0.03581956 -0.08550458 0.1630305
v 0.004169083 -0.1942029 0.05890935
v 0.08820122 0.1111149 -0.04087267
v 0.07632267 0.01038883 -0.09745036
v 0.08820122 0.06103728 0.04584945
v 0.08820122 0.1111149 -0.04087267
v 0.08037978 0.1111426 -0.1020544
v 0.07632267 0.01038883 -0.09745036
v 0.08820122 0.1111149 -0.04087267
v 0.06812055 0.202054 -0.09613702
v 0.08037978 0.1111426 -0.1020544
v 0.08820122 0.1111149 -0.04087267
v 0.07360826 0.2014387 0.05899007
v 0.06812055 0.202054 -0.09613702
v 0.05455739 0.1770189 0.1699725
v 0.06005885 0.03542295 0.1720115
v 0.005145771 0.1209464 0.2801536
v 0.03192653 0.01366388 0.2289191
v 0.0727082 -0.04244251 0.0445857
v 0.03581956 -0.08550458 0.1630305
v 0.06005885 0.03542295 0.1720115
v 0.04352379 -0.1112657 0.09595665
v 0.03192653 0.01366388 0.2289191
v 0.03581956 -0.08550458 0.1630305
v -0.003222275 0.119539 0.2748572
v -0.003926644 -0.1884 0.05799092
v 0.01551053 -0.1813472 -0.03518626
v 0.0727082 -0.04244251 0.0445857
v 0.05270688 -0.08819884 -0.09264626
v 0.04352379 -0.1112657 0.09595665
v 0.01551053 -0.1813472 -0.03518626
v 0.05270688 -0.08819884 -0.09264626
v -0.01733581 -0.1939866 -0.1478787
v 0.03509211 -0.08846433 -0.1577836
v 0.05320064 -0.01480027 -0.1644927
v 0.08037978 0.1111426 -0.1020544
v 0.02990889 0.06099463 -0.2386538
v 0.07632267 0.01038883 -0.09745036
v 0.07632267 0.01038883 -0.09745036
v 0.05320064 -0.01480027 -0.1644927
v 0.05270688 -0.08819884 -0.09264626
v 0.03509211 -0.08846433 -0.1577836
v 0.08820122 0.1111149 -0.04087267
v 0.07632267 0.1617638 0.1024277
v 0.07360826 0.2014387 0.05899007
v 0.08820122 0.06103728 0.04584945
vn 0.9315804 0.04503708 -0.3607351
vn 0.9315804 0.04503708 -0.3607351
vn 0.9315804 0.04503708 -0.3607351
vn 0.9452264 0.1464498 -0.2917185
vn 0.9452264 0.1464498 -0.2917185
vn 0.9452264 0.1464498 -0.2917185
vn -0.3402458 0.8909225 0.300815
vn -0.3402459 0.8909225 0.300815
vn -0.3402459 0.8909225 0.300815
vn 0.9712574 -0.1476967 0.1866674
vn 0.9712574 -0.1476967 0.1866674
vn 0.9712574 -0.1476967 0.1866674
vn 0.9060412 -0.2089425 0.3680115
vn 0.9060412 -0.2089424 0.3680114
vn 0.9060412 -0.2089424 0.3680114
vn -0.412456 -0.4743737 0.7777207
vn -0.4124559 -0.4743738 0.7777208
vn -0.4124559 -0.4743738 0.7777207
vn 0.8404933 -0.1455427 -0.5219085
vn 0.8404933 -0.1455427 -0.5219085
vn 0.8404933 -0.1455427 -0.5219085
vn -0.2335953 0.3698001 -0.899267
vn -0.2335953 0.3698001 -0.899267
vn -0.2335953 0.3698001 -0.899267
vn 0.8184902 -0.5464875 -0.1772714
vn 0.8184902 -0.5464875 -0.1772714
vn 0.8184902 -0.5464875 -0.1772714
vn 0.7893716 -0.6138119 0.01128265
vn 0.7893716 -0.6138119 0.01128265
vn 0.7893716 -0.6138119 0.01128265
vn 0.8941575 -0.1410281 -0.4249628
vn 0.8941575 -0.1410281 -0.4249628
vn 0.8941575 -0.1410281 -0.4249628
vn 0.988592 -0.1476489 -0.02976179
vn 0.988592 -0.1476489 -0.02976179
vn 0.988592 -0.1476489 -0.02976179
vn 0.969866 -0.2353864 -0.06287293
vn 0.969866 -0.2353865 -0.06287294
vn 0.969866 -0.2353864 -0.06287294
vn 0.6930906 -0.305981 -0.6526876
vn 0.6930906 -0.305981 -0.6526876
vn 0.6930906 -0.305981 -0.6526876
vn 0.8132575 -0.2912281 -0.503784
vn 0.8132575 -0.2912281 -0.503784
vn 0.8132575 -0.2912281 -0.5037841
vn 0.6580848 -0.5081995 -0.5555697
vn 0.6580848 -0.5081996 -0.5555696
vn 0.6580848 -0.5081995 -0.5555696
vn 0.8941687 -0.4452626 0.04694179
vn 0.8941688 -0.4452625 0.04694179
vn 0.8941688 -0.4452625 0.04694179
vn 0.8080618 -0.5128862 0.2897999
vn 0.8080618 -0.5128862 0.2897999
vn 0.8080618 -0.5128862 0.2897999
vn 0.8238293 -0.4081368 -0.3933569
vn 0.8238293 -0.4081368 -0.3933569
vn 0.8238293 -0.4081368 -0.3933569
vn 0.8293071 -0.4438949 -0.3394217
vn 0.8293071 -0.4438949 -0.3394218
vn 0.8293071 -0.4438949 -0.3394217
vn 0.8422107 -0.3333414 -0.4237507
vn 0.8422107 -0.3333414 -0.4237506
vn 0.8422107 -0.3333414 -0.4237506
vn 0.8900769 -0.2533166 -0.3789376
vn 0.890077 -0.2533166 -0.3789376
vn 0.890077 -0.2533166 -0.3789376
vn -0.6768152 -0.6847901 -0.270155
vn -0.6768152 -0.6847901 -0.270155
vn -0.6768152 -0.6847901 -0.270155
vn -0.8973635 -0.4405009 0.0264153
vn -0.8973635 -0.4405009 0.0264153
vn -0.8973635 -0.4405009 0.0264153
vn -0.8915424 -0.447462 0.07021246
vn -0.8915425 -0.447462 0.07021247
vn -0.4777168 0.3597179 -0.8014922
vn -0.4777168 0.3597178 -0.8014922
vn -0.4777168 0.3597178 -0.8014922
vn -0.4788576 0.3858433 -0.7885558
vn -0.4788576 0.3858433 -0.7885558
vn -0.5165642 0.3841155 -0.7652559
vn -0.5165642 0.3841155 -0.7652559
vn 0.9762699 -0.006456185 0.2164612
vn 0.9762699 -0.006456185 0.2164612
vn 0.9762699 -0.006456185 0.2164612
vn 0.9536793 0.04134432 0.2979707
vn 0.9536792 0.04134432 0.2979707
vn 0.9536793 0.04134433 0.2979707
vn 0.9227105 0.3116053 0.2269528
vn 0.9227105 0.3116053 0.2269527
vn 0.9227105 0.3116052 0.2269527
vn -0.9503695 0.3089826 -0.03643678
vn -0.9503695 0.3089826 -0.03643677
vn -0.9503695 0.3089826 -0.03643678
vn -0.6362565 0.7710539 0.02556616
vn -0.6362565 0.7710539 0.02556616
vn -0.6532116 0.7552438 0.05405021
vn -0.6532116 0.7552438 0.05405021
vn -0.6532116 0.7552438 0.05405021
vn -0.6791058 0.733135 0.036446
vn -0.319817 0.9370615 -0.1401173
vn -0.319817 0.9370615 -0.1401173
vn -0.319817 0.9370615 -0.1401173
vn -0.9849954 -0.09785888 0.1421538
vn -0.9849954 -0.09785888 0.1421538
vn -0.9849954 -0.09785888 0.1421538
vn -0.5873348 -0.7987835 0.1303175
vn -0.5873348 -0.7987835 0.1303175
vn -0.5873349 -0.7987835 0.1303175
vn -0.9216002 -0.3817052 0.07038585
vn -0.9216002 -0.3817052 0.07038584
vn -0.9216002 -0.3817052 0.07038584
vn -0.4652978 -0.5378893 0.7029744
vn -0.4652978 -0.5378893 0.7029744
vn -0.4652977 -0.5378893 0.7029744
vn 0.9947549 -0.08857968 -0.05115031
vn 0.9947549 -0.08857968 -0.05115031
vn 0.9947549 -0.08857968 -0.0511503
vn 0.9908888 -0.04569018 -0.1266955
vn 0.9908888 -0.04569018 -0.1266954
vn 0.9908888 -0.04569017 -0.1266954
vn 0.9820821 0.1405997 -0.1254855
vn 0.9820821 0.1405997 -0.1254855
vn 0.9820821 0.1405997 -0.1254855
vn 0.9800553 0.1958134 -0.03389343
vn 0.9800553 0.1958134 -0.03389343
vn 0.9800553 0.1958134 -0.03389344
vn 0.9036654 0.04124832 0.426248
vn 0.9036654 0.04124831 0.4262479
vn 0.9036654 0.04124832 0.426248
vn 0.8948345 0.0102476 0.4462804
vn 0.9528768 -0.2074381 0.2213487
vn 0.9528768 -0.2074382 0.2213487
vn 0.9528768 -0.2074381 0.2213487
vn 0.9467194 -0.2489267 0.2043473
vn -0.5429538 -0.4794064 0.6894712
vn -0.5429538 -0.4794064 0.6894712
vn -0.5429538 -0.4794064 0.6894713
vn -0.5592908 -0.4764602 0.6783653
vn 0.9265773 -0.3759797 -0.009686609
vn 0.9265773 -0.3759797 -0.009686609
vn 0.9265773 -0.3759797 -0.009686609
vn 0.9228966 -0.3849522 0.008576055
vn 0.8617449 -0.466761 -0.1988208
vn 0.8617451 -0.466761 -0.1988208
vn 0.8617451 -0.466761 -0.1988208
vn 0.8624231 -0.4502076 -0.2313859
vn 0.941763 -0.03756572 -0.3341725
vn 0.941763 -0.03756572 -0.3341725
vn 0.941763 -0.03756572 -0.3341725
vn 0.9499567 -0.05232533 -0.307968
vn 0.9423801 -0.237233 -0.2358816
vn 0.9423801 -0.237233 -0.2358816
vn 0.9423801 -0.237233 -0.2358816
vn 0.934283 -0.2525882 -0.251624
vn 0.9926018 0.1139126 0.04201757
vn 0.9926018 0.1139126 0.04201757
vn 0.9926018 0.1139126 0.04201757
vn 0.9947549 0.08857916 0.05115002
g basketball_Explode_Thin_16_Hull_0
f 3/3/3 2/2/2 1/1/1
f 6/6/6 5/5/5 4/4/4
f 9/9/9 8/8/8 7/7/7
f 12/12/12 11/11/11 10/10/10
f 15/15/15 14/14/14 13/13/13
f 18/18/18 17/17/17 16/16/16
f 21/21/21 20/20/20 19/19/19
f 24/24/24 23/23/23 22/22/22
f 27/27/27 26/26/26 25/25/25
f 30/30/30 29/29/29 28/28/28
f 33/33/33 32/32/32 31/31/31
f 36/36/36 35/35/35 34/34/34
f 39/39/39 38/38/38 37/37/37
f 42/42/42 41/41/41 40/40/40
f 45/45/45 44/44/44 43/43/43
f 48/48/48 47/47/47 46/46/46
f 51/51/51 50/50/50 49/49/49
f 54/54/54 53/53/53 52/52/52
f 57/57/57 56/56/56 55/55/55
f 60/60/60 59/59/59 58/58/58
f 63/63/63 62/62/62 61/61/61
f 66/66/66 65/65/65 64/64/64
f 69/69/69 68/68/68 67/67/67
f 72/72/72 71/71/71 70/70/70
f 71/71/71 74/74/74 73/73/73
f 77/77/77 76/76/76 75/75/75
f 79/79/79 77/77/77 78/78/78
f 81/81/81 80/80/80 78/78/78
f 84/84/84 83/83/83 82/82/82
f 87/87/87 86/86/86 85/85/85
f 90/90/90 89/89/89 88/88/88
f 93/93/93 92/92/92 91/91/91
f 96/96/96 95/95/95 94/94/94
f 96/96/96 98/98/98 97/97/97
f 98/98/98 96/96/96 99/99/99
f 102/102/102 101/101/101 100/100/100
f 105/105/105 104/104/104 103/103/103
f 108/108/108 107/107/107 106/106/106
f 111/111/111 110/110/110 109/109/109
f 114/114/114 113/113/113 112/112/112
f 117/117/117 116/116/116 115/115/115
f 120/120/120 119/119/119 118/118/118
f 123/123/123 122/122/122 121/121/121
f 126/126/126 125/125/125 124/124/124
f 129/129/129 128/128/128 127/127/127
f 128/128/128 129/129/129 130/130/130
f 133/133/133 132/132/132 131/131/131
f 131/131/131 132/132/132 134/134/134
f 137/137/137 136/136/136 135/135/135
f 136/136/136 137/137/137 138/138/138
f 141/141/141 140/140/140 139/139/139
f 139/139/139 140/140/140 142/142/142
f 145/145/145 144/144/144 143/143/143
f 144/144/144 145/145/145 146/146/146
f 149/149/149 148/148/148 147/147/147
f 147/147/147 148/148/148 150/150/150
f 153/153/153 152/152/152 151/151/151
f 152/152/152 153/153/153 154/154/154
f 157/157/157 156/156/156 155/155/155
f 156/156/156 158/158/158 155/155/155
