g basketball_Explode_Thin_01_Hull
v -0.1477915 0.1325325 -0.1209526
v -0.1941877 -0.2374408 -0.1531704
v -0.02925079 0.2373303 -0.03364361
v -0.2082499 -0.243013 -0.1191166
v -0.192309 -0.1848448 0.00799799
v -0.1765947 -0.2415099 0.02195307
v -0.03387282 0.06079203 0.1786769
v -0.05822511 -0.1084875 0.2075566
v -0.06214859 0.03703368 0.1645775
v -0.08322397 0.2082534 -0.06478977
v -0.1477915 0.1325325 -0.1209526
v -0.02925079 0.2373303 -0.03364361
v -0.05157901 -0.1854558 0.2088625
v -0.06291208 -0.2028534 0.1975864
v -0.05822511 -0.1084875 0.2075566
v -0.05157901 -0.1854558 0.2088625
v -0.05244853 -0.2034979 0.1878095
v -0.06291208 -0.2028534 0.1975864
v -0.05157901 -0.1854558 0.2088625
v 0.01762965 0.1612734 0.1344067
v -0.05244853 -0.2034979 0.1878095
v -0.2085735 -0.05849856 -0.06158851
v -0.202926 -0.00101433 -0.114042
v -0.1673411 0.04035898 -0.001252747
v -0.2085735 -0.05849856 -0.06158851
v -0.2202003 -0.1091887 -0.1227356
v -0.202926 -0.00101433 -0.114042
v -0.2085735 -0.05849856 -0.06158851
v -0.192309 -0.1848448 0.00799799
v -0.2202003 -0.1091887 -0.1227356
v -0.2085735 -0.05849856 -0.06158851
v -0.1598854 -0.05845581 0.07358633
v -0.192309 -0.1848448 0.00799799
v -0.2085735 -0.05849856 -0.06158851
v -0.1673411 0.04035898 -0.001252747
v -0.1598854 -0.05845581 0.07358633
v -0.1276157 0.1316022 -0.01576644
v -0.09142319 0.08690433 0.1023549
v -0.1673411 0.04035898 -0.001252747
v -0.1276157 0.1316022 -0.01576644
v -0.05594507 0.1697752 0.06929672
v -0.09142319 0.08690433 0.1023549
v -0.1276157 0.1316022 -0.01576644
v -0.1477915 0.1325325 -0.1209526
v -0.08322397 0.2082534 -0.06478977
v -0.006379166 0.1340506 0.154863
v -0.09142319 0.08690433 0.1023549
v -0.05594507 0.1697752 0.06929672
v -0.1282733 -0.1592983 0.1331483
v -0.05822511 -0.1084875 0.2075566
v -0.06291208 -0.2028534 0.1975864
v -0.1282733 -0.1592983 0.1331483
v -0.192309 -0.1848448 0.00799799
v -0.1598854 -0.05845581 0.07358633
v -0.0358282 0.244192 -0.0305257
v -0.08322397 0.2082534 -0.06478977
v -0.02925079 0.2373303 -0.03364361
v -0.0358282 0.244192 -0.0305257
v -0.01435925 0.2023381 0.07868215
v -0.05594507 0.1697752 0.06929672
v 0.01187804 0.1670368 0.1402177
v -0.01435925 0.2023381 0.07868215
v -0.0358282 0.244192 -0.0305257
v 0.01187804 0.1670368 0.1402177
v 0.01762965 0.1612734 0.1344067
v -0.05157901 -0.1854558 0.2088625
v -0.07602509 -0.2193433 0.1784404
v -0.06291208 -0.2028534 0.1975864
v -0.05244853 -0.2034979 0.1878095
v -0.07602509 -0.2193433 0.1784404
v -0.05244853 -0.2034979 0.1878095
v -0.1941877 -0.2374408 -0.1531704
v -0.2039238 -0.2396625 -0.1525886
v -0.1941877 -0.2374408 -0.1531704
v -0.1477915 0.1325325 -0.1209526
v -0.2039238 -0.2396625 -0.1525886
v -0.2082499 -0.243013 -0.1191166
v -0.1941877 -0.2374408 -0.1531704
v -0.2039238 -0.2396625 -0.1525886
v -0.2140862 -0.2107281 -0.1425486
v -0.2082499 -0.243013 -0.1191166
v -0.1186936 -0.008095504 0.1214478
v -0.1282733 -0.1592983 0.1331483
v -0.1598854 -0.05845581 0.07358633
v -0.1186936 -0.008095504 0.1214478
v -0.05822511 -0.1084875 0.2075566
v -0.1282733 -0.1592983 0.1331483
v -0.1186936 -0.008095504 0.1214478
v -0.09142319 0.08690433 0.1023549
v -0.06214859 0.03703368 0.1645775
v -0.1186936 -0.008095504 0.1214478
v -0.1598854 -0.05845581 0.07358633
v -0.1673411 0.04035898 -0.001252747
v -0.1186936 -0.008095504 0.1214478
v -0.1673411 0.04035898 -0.001252747
v -0.09142319 0.08690433 0.1023549
v -0.1186936 -0.008095504 0.1214478
v -0.06214859 0.03703368 0.1645775
v -0.05822511 -0.1084875 0.2075566
v 0.01762965 0.1612734 0.1344067
v -0.1941877 -0.2374408 -0.1531704
v -0.05244853 -0.2034979 0.1878095
v -0.02925079 0.2373303 -0.03364361
v -0.2082499 -0.243013 -0.1191166
v -0.2202003 -0.1091887 -0.1227356
v -0.192309 -0.1848448 0.00799799
v -0.2140862 -0.2107281 -0.1425486
v -0.2082499 -0.243013 -0.1191166
v -0.1765947 -0.2415099 0.02195307
v -0.1941877 -0.2374408 -0.1531704
v -0.1215282 -0.2304025 0.1249098
v -0.07602509 -0.2193433 0.1784404
v -0.202926 -0.00101433 -0.114042
v -0.1477915 0.1325325 -0.1209526
v -0.1673411 0.04035898 -0.001252747
v -0.1276157 0.1316022 -0.01576644
v -0.202926 -0.00101433 -0.114042
v -0.2202003 -0.1091887 -0.1227356
v -0.1477915 0.1325325 -0.1209526
v -0.2140862 -0.2107281 -0.1425486
v -0.2039238 -0.2396625 -0.1525886
v -0.05157901 -0.1854558 0.2088625
v -0.05822511 -0.1084875 0.2075566
v -0.03387282 0.06079203 0.1786769
v -0.006379166 0.1340506 0.154863
v 0.01187804 0.1670368 0.1402177
v -0.09142319 0.08690433 0.1023549
v -0.03387282 0.06079203 0.1786769
v -0.06214859 0.03703368 0.1645775
v -0.006379166 0.1340506 0.154863
v -0.1276157 0.1316022 -0.01576644
v -0.08322397 0.2082534 -0.06478977
v -0.05594507 0.1697752 0.06929672
v -0.0358282 0.244192 -0.0305257
v -0.006379166 0.1340506 0.154863
v -0.05594507 0.1697752 0.06929672
v -0.01435925 0.2023381 0.07868215
v 0.01187804 0.1670368 0.1402177
v -0.1282733 -0.1592983 0.1331483
v -0.06291208 -0.2028534 0.1975864
v -0.1215282 -0.2304025 0.1249098
v -0.07602509 -0.2193433 0.1784404
v -0.1282733 -0.1592983 0.1331483
v -0.1765947 -0.2415099 0.02195307
v -0.192309 -0.1848448 0.00799799
v -0.1215282 -0.2304025 0.1249098
v 0.01187804 0.1670368 0.1402177
v -0.02925079 0.2373303 -0.03364361
v 0.01762965 0.1612734 0.1344067
v -0.0358282 0.244192 -0.0305257
vn 0.5957624 -0.004772204 -0.8031465
vn 0.5957624 -0.004772204 -0.8031465
vn 0.5957624 -0.004772204 -0.8031465
vn -0.9532597 -0.2111228 0.2161554
vn -0.9532597 -0.2111228 0.2161554
vn -0.9532597 -0.2111228 0.2161554
vn -0.5756538 0.2172983 0.7882919
vn -0.5756538 0.2172983 0.7882919
vn -0.5756538 0.2172983 0.7882919
vn 0.2856407 0.4017613 -0.8700559
vn 0.2856408 0.4017613 -0.8700559
vn 0.2856408 0.4017613 -0.8700559
vn -0.6689005 -0.04517031 0.7419782
vn -0.6689005 -0.04517031 0.7419782
vn -0.6689005 -0.04517031 0.7419782
vn 0.480763 -0.6755174 0.5590556
vn 0.480763 -0.6755174 0.5590556
vn 0.480763 -0.6755174 0.5590556
vn 0.9791642 -0.1724028 0.1073063
vn 0.9791642 -0.1724028 0.1073063
vn 0.9791642 -0.1724028 0.1073064
vn -0.9417494 0.2724478 0.1971811
vn -0.9417494 0.2724477 0.1971811
vn -0.9417494 0.2724477 0.1971811
vn -0.9863991 0.1526119 0.06104472
vn -0.9863991 0.1526119 0.06104472
vn -0.9863991 0.1526119 0.06104472
vn -0.979729 -0.01614727 0.1996756
vn -0.979729 -0.01614727 0.1996756
vn -0.979729 -0.01614727 0.1996756
vn -0.9388254 0.06537438 0.3381317
vn -0.9388254 0.06537437 0.3381317
vn -0.9388254 0.06537438 0.3381317
vn -0.9250482 0.1825067 0.3331323
vn -0.9250482 0.1825067 0.3331323
vn -0.9250482 0.1825067 0.3331323
vn -0.811994 0.4182772 0.4070747
vn -0.811994 0.4182772 0.4070747
vn -0.811994 0.4182773 0.4070747
vn -0.7614993 0.4935916 0.4201025
vn -0.7614993 0.4935916 0.4201024
vn -0.7614993 0.4935916 0.4201024
vn -0.8065073 0.569238 0.1597306
vn -0.8065073 0.569238 0.1597306
vn -0.8065073 0.569238 0.1597306
vn -0.6385237 0.505019 0.5807266
vn -0.6385237 0.5050189 0.5807266
vn -0.6385237 0.5050189 0.5807266
vn -0.7143837 -0.03833904 0.6987032
vn -0.7143837 -0.03833904 0.6987032
vn -0.7143837 -0.03833904 0.6987032
vn -0.8894562 -0.008941494 0.456933
vn -0.8894562 -0.008941496 0.456933
vn -0.8894561 -0.008941496 0.4569331
vn 0.1795397 0.5444192 -0.8193737
vn 0.1795397 0.5444192 -0.8193737
vn 0.1795397 0.5444192 -0.8193736
vn -0.6214252 0.6829661 0.3839115
vn -0.6214252 0.6829661 0.3839115
vn -0.6214252 0.6829661 0.3839115
vn 0.6290824 0.7591293 0.1672664
vn 0.6290823 0.7591293 0.1672663
vn 0.6290824 0.7591293 0.1672664
vn 0.7144789 0.007620614 0.6996155
vn 0.7144789 0.007620613 0.6996155
vn 0.7144789 0.007620613 0.6996155
vn 0.3689167 -0.8140996 0.4484889
vn 0.3689168 -0.8140996 0.4484889
vn 0.3689168 -0.8140996 0.4484889
vn 0.5952047 -0.7855551 -0.1692177
vn 0.5952046 -0.7855551 -0.1692177
vn 0.5952047 -0.7855551 -0.1692177
vn -0.0813202 0.09658226 -0.9919974
vn -0.0813202 0.09658226 -0.9919974
vn -0.0813202 0.09658226 -0.9919974
vn 0.2180061 -0.9734861 -0.06926809
vn 0.2180061 -0.9734861 -0.06926809
vn 0.2180061 -0.9734861 -0.06926809
vn -0.947915 -0.2806678 -0.150608
vn -0.947915 -0.2806678 -0.150608
vn -0.947915 -0.2806678 -0.150608
vn -0.8023162 0.09641543 0.5890609
vn -0.8023162 0.09641544 0.5890609
vn -0.8023162 0.09641543 0.5890608
vn -0.7571305 0.09794931 0.6458787
vn -0.7571305 0.09794931 0.6458787
vn -0.7571305 0.09794931 0.6458787
vn -0.7246638 0.3296408 0.6051441
vn -0.7246638 0.3296407 0.6051441
vn -0.7246638 0.3296408 0.6051441
vn -0.8523188 0.273388 0.4458831
vn -0.8523188 0.273388 0.4458831
vn -0.8523188 0.273388 0.445883
vn -0.8260896 0.3290776 0.4574757
vn -0.8260896 0.3290776 0.4574757
vn -0.8260896 0.3290776 0.4574757
vn -0.6864082 0.1889011 0.7022536
vn -0.6864083 0.1889011 0.7022535
vn -0.6864083 0.1889011 0.7022535
vn 0.90724 -0.2262094 -0.3546053
vn 0.90724 -0.2262094 -0.3546053
vn 0.90724 -0.2262094 -0.3546053
vn 0.9071266 -0.2257117 -0.3552119
vn -0.9833385 -0.08344358 0.161501
vn -0.9833385 -0.08344359 0.161501
vn -0.9833385 -0.08344357 0.161501
vn -0.987974 -0.08472729 0.1293389
vn 0.2634592 -0.9634327 -0.04885356
vn 0.2885918 -0.9560819 -0.05120759
vn 0.2885919 -0.9560819 -0.05120758
vn 0.2885918 -0.9560819 -0.05120758
vn 0.2938738 -0.9543941 -0.05263044
vn -0.9116134 0.3839523 0.1467712
vn -0.9116134 0.3839523 0.1467711
vn -0.9116133 0.3839523 0.1467711
vn -0.8922682 0.4162844 0.1748275
vn -0.4578544 0.143624 -0.8773491
vn -0.4578544 0.143624 -0.8773491
vn -0.4578544 0.143624 -0.8773491
vn -0.4578548 0.1436241 -0.877349
vn -0.457856 0.1436244 -0.8773482
vn 0.5540521 0.06192617 0.8301756
vn 0.5540521 0.06192617 0.8301755
vn 0.5540521 0.06192617 0.8301756
vn 0.5540556 0.06192566 0.8301733
vn 0.5540552 0.06192574 0.8301736
vn -0.6575553 0.4059179 0.634706
vn -0.6575553 0.4059179 0.634706
vn -0.6575553 0.4059179 0.634706
vn -0.6358911 0.4438801 0.6313582
vn -0.7143632 0.6205571 0.3234102
vn -0.7143632 0.6205571 0.3234102
vn -0.7143632 0.6205571 0.3234102
vn -0.7090974 0.6262733 0.3239793
vn -0.5804668 0.5751813 0.5763894
vn -0.5804669 0.5751813 0.5763894
vn -0.5804669 0.5751813 0.5763894
vn -0.5783633 0.5764129 0.577273
vn -0.7422087 -0.1461865 0.6540303
vn -0.7422087 -0.1461865 0.6540303
vn -0.7422088 -0.1461865 0.6540303
vn -0.7298067 -0.1840998 0.6583992
vn -0.8725328 -0.1257016 0.4721077
vn -0.8725328 -0.1257016 0.4721077
vn -0.8725328 -0.1257016 0.4721077
vn -0.8671393 -0.1377171 0.4786475
vn 0.7483484 0.6573433 0.08873901
vn 0.7483484 0.6573432 0.088739
vn 0.7483484 0.6573433 0.088739
vn 0.7397544 0.6662275 0.09436392
g basketball_Explode_Thin_01_Hull_0
f 3/3/3 2/2/2 1/1/1
f 6/6/6 5/5/5 4/4/4
f 9/9/9 8/8/8 7/7/7
f 12/12/12 11/11/11 10/10/10
f 15/15/15 14/14/14 13/13/13
f 18/18/18 17/17/17 16/16/16
f 21/21/21 20/20/20 19/19/19
f 24/24/24 23/23/23 22/22/22
f 27/27/27 26/26/26 25/25/25
f 30/30/30 29/29/29 28/28/28
f 33/33/33 32/32/32 31/31/31
f 36/36/36 35/35/35 34/34/34
f 39/39/39 38/38/38 37/37/37
f 42/42/42 41/41/41 40/40/40
f 45/45/45 44/44/44 43/43/43
f 48/48/48 47/47/47 46/46/46
f 51/51/51 50/50/50 49/49/49
f 54/54/54 53/53/53 52/52/52
f 57/57/57 56/56/56 55/55/55
f 60/60/60 59/59/59 58/58/58
f 63/63/63 62/62/62 61/61/61
f 66/66/66 65/65/65 64/64/64
f 69/69/69 68/68/68 67/67/67
f 72/72/72 71/71/71 70/70/70
f 75/75/75 74/74/74 73/73/73
f 78/78/78 77/77/77 76/76/76
f 81/81/81 80/80/80 79/79/79
f 84/84/84 83/83/83 82/82/82
f 87/87/87 86/86/86 85/85/85
f 90/90/90 89/89/89 88/88/88
f 93/93/93 92/92/92 91/91/91
f 96/96/96 95/95/95 94/94/94
f 99/99/99 98/98/98 97/97/97
f 102/102/102 101/101/101 100/100/100
f 101/101/101 103/103/103 100/100/100
f 106/106/106 105/105/105 104/104/104
f 104/104/104 105/105/105 107/107/107
f 110/110/110 109/109/109 108/108/108
f 109/109/109 110/110/110 111/111/111
f 111/111/111 110/110/110 112/112/112
f 115/115/115 114/114/114 113/113/113
f 114/114/114 115/115/115 116/116/116
f 119/119/119 118/118/118 117/117/117
f 118/118/118 119/119/119 120/120/120
f 120/120/120 119/119/119 121/121/121
f 124/124/124 123/123/123 122/122/122
f 124/124/124 122/122/122 125/125/125
f 125/125/125 122/122/122 126/126/126
f 129/129/129 128/128/128 127/127/127
f 127/127/127 128/128/128 130/130/130
f 133/133/133 132/132/132 131/131/131
f 132/132/132 133/133/133 134/134/134
f 137/137/137 136/136/136 135/135/135
f 137/137/137 135/135/135 138/138/138
f 141/141/141 140/140/140 139/139/139
f 140/140/140 141/141/141 142/142/142
f 145/145/145 144/144/144 143/143/143
f 144/144/144 146/146/146 143/143/143
f 149/149/149 148/148/148 147/147/147
f 148/148/148 150/150/150 147/147/147
