g basketball_Explode_Thin_07_Hull
v -0.03167926 0.1023311 -0.2572977
v -0.2041813 0.02388144 0.01394946
v -0.1507231 -0.05903762 0.1788833
v -0.03167926 0.1023311 -0.2572977
v -0.1507231 -0.05903762 0.1788833
v 0.1162807 -0.04422426 0.2613441
v 0.1509008 0.01474268 0.2307788
v 0.1863811 0.08127403 0.142601
v 0.1162807 -0.04422426 0.2613441
v 0.04747519 0.1541756 -0.1589553
v -0.06852729 0.1340659 -0.1534559
v 0.03039589 0.1301498 -0.2710372
v -0.182712 -0.01797306 0.1231591
v -0.2041813 0.02388144 0.01394946
v -0.1806311 0.02415881 0.06301945
v -0.182712 -0.01797306 0.1231591
v -0.1507231 -0.05903762 0.1788833
v -0.2041813 0.02388144 0.01394946
v -0.182712 -0.01797306 0.1231591
v -0.1806311 0.02415881 0.06301945
v -0.0413143 0.04445039 0.1648556
v -0.03679802 0.1136008 -0.2649214
v -0.03167926 0.1023311 -0.2572977
v 0.03039589 0.1301498 -0.2710372
v 0.1285056 0.1510334 -0.1922707
v 0.03039589 0.1301498 -0.2710372
v 0.1878894 0.1424813 -0.1390358
v 0.1285056 0.1510334 -0.1922707
v 0.04747519 0.1541756 -0.1589553
v 0.03039589 0.1301498 -0.2710372
v 0.04387283 0.1005849 0.111911
v -0.0413143 0.04445039 0.1648556
v 0.003378735 0.1293979 0.02981056
v 0.155128 0.1293062 0.05428463
v 0.1863811 0.08127403 0.142601
v 0.04387283 0.1005849 0.111911
v -0.1216731 -0.04159619 0.2075581
v -0.0413143 0.04445039 0.1648556
v -0.05521886 -0.03028525 0.2376205
v -0.1216731 -0.04159619 0.2075581
v -0.182712 -0.01797306 0.1231591
v -0.0413143 0.04445039 0.1648556
v 0.01616392 0.02777884 0.2092219
v -0.0413143 0.04445039 0.1648556
v 0.04387283 0.1005849 0.111911
v 0.01616392 0.02777884 0.2092219
v 0.1509008 0.01474268 0.2307788
v 0.08648907 -0.0309801 0.2710231
v 0.01616392 0.02777884 0.2092219
v -0.05521886 -0.03028525 0.2376205
v -0.0413143 0.04445039 0.1648556
v 0.01616392 0.02777884 0.2092219
v 0.08648907 -0.0309801 0.2710231
v -0.05521886 -0.03028525 0.2376205
v 0.1304602 -0.01834087 0.2600394
v 0.1162807 -0.04422426 0.2613441
v 0.08648907 -0.0309801 0.2710231
v 0.1304602 -0.01834087 0.2600394
v 0.1509008 0.01474268 0.2307788
v 0.1162807 -0.04422426 0.2613441
v 0.1304602 -0.01834087 0.2600394
v 0.08648907 -0.0309801 0.2710231
v 0.1509008 0.01474268 0.2307788
v -0.1564747 -0.05327427 0.1846944
v -0.1507231 -0.05903762 0.1788833
v -0.182712 -0.01797306 0.1231591
v -0.1564747 -0.05327427 0.1846944
v -0.182712 -0.01797306 0.1231591
v -0.1216731 -0.04159619 0.2075581
v 0.1701256 0.1543057 -0.1560726
v 0.04747519 0.1541756 -0.1589553
v 0.1285056 0.1510334 -0.1922707
v 0.1701256 0.1543057 -0.1560726
v 0.1878894 0.1424813 -0.1390358
v 0.2041761 0.1454438 -0.0280945
v 0.1701256 0.1543057 -0.1560726
v 0.1285056 0.1510334 -0.1922707
v 0.1878894 0.1424813 -0.1390358
v 0.2038042 0.1293748 0.03594553
v 0.1863811 0.08127403 0.142601
v 0.155128 0.1293062 0.05428463
v 0.2038042 0.1293748 0.03594553
v 0.2041761 0.1454438 -0.0280945
v 0.1878894 0.1424813 -0.1390358
v -0.1266864 0.1005844 -0.1608302
v -0.08812879 0.1134095 -0.2148851
v -0.06852729 0.1340659 -0.1534559
v -0.08812879 0.1134095 -0.2148851
v 0.03039589 0.1301498 -0.2710372
v -0.06852729 0.1340659 -0.1534559
v -0.03679802 0.1136008 -0.2649214
v 0.1162807 -0.04422426 0.2613441
v -0.1507231 -0.05903762 0.1788833
v 0.08648907 -0.0309801 0.2710231
v -0.1564747 -0.05327427 0.1846944
v -0.1216731 -0.04159619 0.2075581
v -0.05521886 -0.03028525 0.2376205
v 0.1878894 0.1424813 -0.1390358
v 0.03039589 0.1301498 -0.2710372
v 0.1162807 -0.04422426 0.2613441
v -0.03167926 0.1023311 -0.2572977
v 0.1878894 0.1424813 -0.1390358
v 0.1162807 -0.04422426 0.2613441
v 0.1863811 0.08127403 0.142601
v 0.2038042 0.1293748 0.03594553
v -0.03167926 0.1023311 -0.2572977
v -0.1805035 0.0615158 -0.05789251
v -0.2041813 0.02388144 0.01394946
v -0.1266864 0.1005844 -0.1608302
v -0.03167926 0.1023311 -0.2572977
v -0.08812879 0.1134095 -0.2148851
v -0.03679802 0.1136008 -0.2649214
v -0.07768356 0.1231873 -0.03304459
v -0.06852729 0.1340659 -0.1534559
v 0.04747519 0.1541756 -0.1589553
v 0.0830089 0.1489818 -0.01658603
v 0.003378735 0.1293979 0.02981056
v -0.07768356 0.1231873 -0.03304459
v -0.2041813 0.02388144 0.01394946
v -0.1805035 0.0615158 -0.05789251
v -0.1806311 0.02415881 0.06301945
v -0.07768356 0.1231873 -0.03304459
v 0.003378735 0.1293979 0.02981056
v -0.0413143 0.04445039 0.1648556
v -0.1806311 0.02415881 0.06301945
v 0.155128 0.1293062 0.05428463
v 0.04387283 0.1005849 0.111911
v 0.003378735 0.1293979 0.02981056
v 0.0830089 0.1489818 -0.01658603
v 0.01616392 0.02777884 0.2092219
v 0.1863811 0.08127403 0.142601
v 0.1509008 0.01474268 0.2307788
v 0.04387283 0.1005849 0.111911
v 0.0830089 0.1489818 -0.01658603
v 0.2041761 0.1454438 -0.0280945
v 0.155128 0.1293062 0.05428463
v 0.2038042 0.1293748 0.03594553
v 0.1701256 0.1543057 -0.1560726
v 0.0830089 0.1489818 -0.01658603
v 0.04747519 0.1541756 -0.1589553
v 0.2041761 0.1454438 -0.0280945
v -0.1266864 0.1005844 -0.1608302
v -0.07768356 0.1231873 -0.03304459
v -0.1805035 0.0615158 -0.05789251
v -0.06852729 0.1340659 -0.1534559
vn -0.2001323 -0.899869 -0.3875346
vn -0.2001323 -0.899869 -0.3875346
vn -0.2001323 -0.899869 -0.3875346
vn 0.1471591 -0.9400607 -0.30762
vn 0.1471591 -0.9400607 -0.30762
vn 0.147159 -0.9400607 -0.30762
vn 0.8479038 -0.5271255 -0.05655044
vn 0.8479037 -0.5271255 -0.05655043
vn 0.8479037 -0.5271255 -0.05655043
vn -0.1763048 0.9676344 -0.1805561
vn -0.1763048 0.9676344 -0.1805561
vn -0.1763048 0.9676344 -0.1805561
vn -0.7543757 0.5496168 0.358941
vn -0.7543757 0.5496168 0.358941
vn -0.7543757 0.5496168 0.358941
vn -0.6766313 -0.7221543 -0.1437477
vn -0.6766313 -0.7221543 -0.1437477
vn -0.6766313 -0.7221543 -0.1437477
vn -0.4689074 0.7309342 0.4958438
vn -0.4689074 0.7309342 0.4958438
vn -0.4689074 0.7309342 0.4958438
vn 0.05702443 -0.5415063 -0.8387604
vn 0.05702443 -0.5415064 -0.8387605
vn 0.05702443 -0.5415063 -0.8387604
vn 0.6389325 -0.1951825 -0.7440894
vn 0.6389325 -0.1951824 -0.7440895
vn 0.6389325 -0.1951825 -0.7440894
vn -0.04543092 0.9781743 -0.2027583
vn -0.04543092 0.9781743 -0.2027583
vn -0.04543093 0.9781743 -0.2027583
vn -0.2870633 0.8507909 0.4401699
vn -0.2870633 0.8507909 0.4401699
vn -0.2870633 0.8507909 0.4401699
vn 0.01752996 0.8809375 0.4729079
vn 0.01752995 0.8809373 0.472908
vn 0.01752996 0.8809375 0.472908
vn -0.3958056 0.6773724 0.6200844
vn -0.3958056 0.6773724 0.6200844
vn -0.3958056 0.6773724 0.6200844
vn -0.4682137 0.7029564 0.5353768
vn -0.4682137 0.7029564 0.5353767
vn -0.4682137 0.7029564 0.5353768
vn -0.1911823 0.8112668 0.5525355
vn -0.1911823 0.8112668 0.5525354
vn -0.1911824 0.8112668 0.5525355
vn -0.04714916 0.6965732 0.7159349
vn -0.04714916 0.6965732 0.7159349
vn -0.04714916 0.6965731 0.7159349
vn -0.3036397 0.6930618 0.6538105
vn -0.3036398 0.6930619 0.6538106
vn -0.3036397 0.6930618 0.6538105
vn -0.1803741 0.6021391 0.7777492
vn -0.1803741 0.6021391 0.7777492
vn -0.180374 0.6021389 0.7777492
vn 0.2676855 -0.09833265 0.9584755
vn 0.2676855 -0.09833264 0.9584755
vn 0.2676855 -0.09833265 0.9584755
vn 0.876203 -0.4762942 0.07356764
vn 0.876203 -0.4762942 0.07356765
vn 0.876203 -0.4762942 0.07356766
vn -0.00403343 0.6638947 0.7478152
vn -0.00403343 0.6638948 0.7478152
vn -0.00403343 0.6638947 0.7478152
vn -0.7398451 -0.6692814 -0.06849585
vn -0.739845 -0.6692814 -0.06849585
vn -0.7398451 -0.6692814 -0.06849585
vn -0.5741926 0.5801838 0.5776588
vn -0.5741926 0.5801838 0.5776588
vn -0.5741926 0.5801837 0.5776588
vn 0.001089058 0.9958251 -0.09127611
vn 0.001089058 0.9958251 -0.0912761
vn 0.001089058 0.9958251 -0.09127612
vn 0.6228954 0.7742292 -0.1121188
vn 0.6228953 0.7742292 -0.1121187
vn 0.6228953 0.7742292 -0.1121187
vn 0.6576071 -0.08979496 -0.7479905
vn 0.6576071 -0.08979496 -0.7479905
vn 0.6576071 -0.08979496 -0.7479904
vn 0.1597746 0.889829 0.4274067
vn 0.1597746 0.889829 0.4274067
vn 0.1597746 0.889829 0.4274067
vn 0.8705099 -0.4785224 -0.1150165
vn 0.8705099 -0.4785224 -0.1150165
vn 0.8705099 -0.4785225 -0.1150165
vn -0.4810006 0.8658439 -0.1376688
vn -0.4810006 0.8658439 -0.1376688
vn -0.4810006 0.8658439 -0.1376688
vn -0.245369 0.9398277 -0.2377348
vn -0.2453689 0.9398277 -0.2377349
vn -0.245369 0.9398277 -0.2377349
vn -0.2530785 0.932944 -0.2560601
vn -0.1461638 -0.776616 0.6127836
vn -0.1461638 -0.776616 0.6127836
vn -0.1461638 -0.776616 0.6127836
vn -0.148826 -0.771821 0.6181772
vn -0.1502538 -0.7689144 0.6214454
vn -0.1502538 -0.7689144 0.6214455
vn 0.354945 -0.8700009 -0.3422171
vn 0.354945 -0.8700009 -0.3422171
vn 0.354945 -0.8700009 -0.3422171
vn 0.3205105 -0.8836823 -0.3411432
vn 0.8146378 -0.5676308 -0.1189987
vn 0.8146378 -0.5676307 -0.1189987
vn 0.8146378 -0.5676308 -0.1189987
vn 0.8227484 -0.5563385 -0.1165011
vn -0.5176078 -0.6758839 -0.5246553
vn -0.5176078 -0.6758839 -0.5246552
vn -0.5176077 -0.6758839 -0.5246552
vn -0.5307418 -0.6576468 -0.5346155
vn -0.5433949 -0.6255378 -0.5598433
vn -0.5433947 -0.6255378 -0.5598432
vn -0.5433947 -0.6255378 -0.5598432
vn -0.1668077 0.9830461 0.07612967
vn -0.1668077 0.9830461 0.07612967
vn -0.1668077 0.9830461 0.07612967
vn -0.1657252 0.9831434 0.07722967
vn -0.1694722 0.9779629 0.1219328
vn -0.5414729 0.8047945 0.2431315
vn -0.5414729 0.8047945 0.2431316
vn -0.5414729 0.8047945 0.2431315
vn -0.537364 0.8043963 0.2533503
vn -0.3752402 0.835517 0.4013801
vn -0.3752403 0.835517 0.4013802
vn -0.3752402 0.835517 0.4013802
vn -0.4123939 0.8179053 0.401201
vn -0.05675908 0.9329811 0.3554221
vn -0.05675907 0.9329811 0.3554221
vn -0.05675907 0.9329811 0.3554221
vn -0.05009881 0.9480399 0.3141822
vn -0.01804808 0.8016155 0.5975673
vn -0.01804808 0.8016155 0.5975674
vn -0.01804808 0.8016155 0.5975674
vn -0.01938702 0.8031884 0.5954095
vn 0.04936314 0.974198 0.2202303
vn 0.04936315 0.974198 0.2202303
vn 0.04936314 0.974198 0.2202303
vn 0.09014516 0.9658592 0.2428781
vn -0.001928098 0.9993157 0.03693783
vn -0.001928098 0.9993157 0.03693783
vn -0.001928098 0.9993157 0.03693783
vn 0.03481053 0.9976022 0.05981762
vn -0.5225613 0.8511438 0.04983881
vn -0.5225613 0.8511438 0.04983881
vn -0.5225613 0.8511438 0.04983881
vn -0.5023127 0.8637677 0.03984103
g basketball_Explode_Thin_07_Hull_0
f 3/3/3 2/2/2 1/1/1
f 6/6/6 5/5/5 4/4/4
f 9/9/9 8/8/8 7/7/7
f 12/12/12 11/11/11 10/10/10
f 15/15/15 14/14/14 13/13/13
f 18/18/18 17/17/17 16/16/16
f 21/21/21 20/20/20 19/19/19
f 24/24/24 23/23/23 22/22/22
f 27/27/27 26/26/26 25/25/25
f 30/30/30 29/29/29 28/28/28
f 33/33/33 32/32/32 31/31/31
f 36/36/36 35/35/35 34/34/34
f 39/39/39 38/38/38 37/37/37
f 42/42/42 41/41/41 40/40/40
f 45/45/45 44/44/44 43/43/43
f 48/48/48 47/47/47 46/46/46
f 51/51/51 50/50/50 49/49/49
f 54/54/54 53/53/53 52/52/52
f 57/57/57 56/56/56 55/55/55
f 60/60/60 59/59/59 58/58/58
f 63/63/63 62/62/62 61/61/61
f 66/66/66 65/65/65 64/64/64
f 69/69/69 68/68/68 67/67/67
f 72/72/72 71/71/71 70/70/70
f 75/75/75 74/74/74 73/73/73
f 78/78/78 77/77/77 76/76/76
f 81/81/81 80/80/80 79/79/79
f 84/84/84 83/83/83 82/82/82
f 87/87/87 86/86/86 85/85/85
f 90/90/90 89/89/89 88/88/88
f 88/88/88 89/89/89 91/91/91
f 94/94/94 93/93/93 92/92/92
f 93/93/93 94/94/94 95/95/95
f 94/94/94 96/96/96 95/95/95
f 94/94/94 97/97/97 96/96/96
f 100/100/100 99/99/99 98/98/98
f 99/99/99 100/100/100 101/101/101
f 104/104/104 103/103/103 102/102/102
f 104/104/104 102/102/102 105/105/105
f 108/108/108 107/107/107 106/106/106
f 106/106/106 107/107/107 109/109/109
f 111/111/111 110/110/110 109/109/109
f 110/110/110 111/111/111 112/112/112
f 115/115/115 114/114/114 113/113/113
f 115/115/115 113/113/113 116/116/116
f 113/113/113 117/117/117 116/116/116
f 120/120/120 119/119/119 118/118/118
f 119/119/119 121/121/121 118/118/118
f 124/124/124 123/123/123 122/122/122
f 125/125/125 124/124/124 122/122/122
f 128/128/128 127/127/127 126/126/126
f 128/128/128 126/126/126 129/129/129
f 132/132/132 131/131/131 130/130/130
f 131/131/131 133/133/133 130/130/130
f 136/136/136 135/135/135 134/134/134
f 135/135/135 136/136/136 137/137/137
f 140/140/140 139/139/139 138/138/138
f 139/139/139 141/141/141 138/138/138
f 144/144/144 143/143/143 142/142/142
f 143/143/143 145/145/145 142/142/142
