g basketball_Explode_Thin_05_Hull
v 0.10169 -0.124578 -0.2771228
v 0.236896 -0.144793 0.1015164
v 0.1854988 -0.2128312 0.07350909
v 0.1818309 -0.07309851 -0.2306797
v 0.236896 -0.144793 0.1015164
v 0.1342806 -0.1001683 -0.2554861
v 0.12143 -0.1114179 -0.2732362
v 0.1885918 -0.07742483 -0.2366511
v 0.1818309 -0.07309851 -0.2306797
v 0.12143 -0.1114179 -0.2732362
v 0.10169 -0.124578 -0.2771228
v 0.107261 -0.1296261 -0.2837234
v 0.1412749 -0.1319912 -0.2506906
v 0.1684101 -0.1651859 -0.1887939
v 0.1902466 -0.1142709 -0.2109233
v 0.2084492 -0.2030323 0.08026879
v 0.1927872 -0.2196843 0.07350442
v 0.2449929 -0.1505967 0.102435
v 0.2084492 -0.2030323 0.08026879
v 0.2449929 -0.1505967 0.102435
v 0.2134623 -0.1976902 0.06506328
v 0.1507708 -0.1040499 -0.2601828
v 0.1885918 -0.07742483 -0.2366511
v 0.12143 -0.1114179 -0.2732362
v 0.122324 -0.1070984 -0.2648934
v 0.10169 -0.124578 -0.2771228
v 0.12143 -0.1114179 -0.2732362
v 0.122324 -0.1070984 -0.2648934
v 0.1818309 -0.07309851 -0.2306797
v 0.1342806 -0.1001683 -0.2554861
v 0.122324 -0.1070984 -0.2648934
v 0.12143 -0.1114179 -0.2732362
v 0.1818309 -0.07309851 -0.2306797
v 0.122324 -0.1070984 -0.2648934
v 0.1342806 -0.1001683 -0.2554861
v 0.236896 -0.144793 0.1015164
v 0.122324 -0.1070984 -0.2648934
v 0.236896 -0.144793 0.1015164
v 0.10169 -0.124578 -0.2771228
v 0.1191117 -0.1358668 -0.2689483
v 0.1684101 -0.1651859 -0.1887939
v 0.1412749 -0.1319912 -0.2506906
v 0.1187238 -0.1240362 -0.2783237
v 0.1412749 -0.1319912 -0.2506906
v 0.1507708 -0.1040499 -0.2601828
v 0.1507708 -0.1040499 -0.2601828
v 0.1902466 -0.1142709 -0.2109233
v 0.1885918 -0.07742483 -0.2366511
v 0.1983484 -0.1015698 -0.2101548
v 0.1187238 -0.1240362 -0.2783237
v 0.1191117 -0.1358668 -0.2689483
v 0.1412749 -0.1319912 -0.2506906
v 0.1187238 -0.1240362 -0.2783237
v 0.107261 -0.1296261 -0.2837234
v 0.1191117 -0.1358668 -0.2689483
v 0.1187238 -0.1240362 -0.2783237
v 0.12143 -0.1114179 -0.2732362
v 0.107261 -0.1296261 -0.2837234
v 0.1187238 -0.1240362 -0.2783237
v 0.1507708 -0.1040499 -0.2601828
v 0.12143 -0.1114179 -0.2732362
v 0.1721469 -0.1678429 -0.1802992
v 0.1922276 -0.1855214 -0.1157204
v 0.2100738 -0.1359004 -0.1577156
v 0.2148638 -0.1359361 -0.1470886
v 0.2110599 -0.128597 -0.1632283
v 0.2100738 -0.1359004 -0.1577156
v 0.1927872 -0.2196843 0.07350442
v 0.2030666 -0.2087677 -0.004579887
v 0.107261 -0.1296261 -0.2837234
v 0.1922276 -0.1855214 -0.1157204
v 0.2041396 -0.2042542 -0.03151186
v 0.1684101 -0.1651859 -0.1887939
v 0.1191117 -0.1358668 -0.2689483
v 0.1721469 -0.1678429 -0.1802992
v 0.1927872 -0.2196843 0.07350442
v 0.1854988 -0.2128312 0.07350909
v 0.2449929 -0.1505967 0.102435
v 0.236896 -0.144793 0.1015164
v 0.10169 -0.124578 -0.2771228
v 0.1927872 -0.2196843 0.07350442
v 0.107261 -0.1296261 -0.2837234
v 0.1854988 -0.2128312 0.07350909
v 0.1818309 -0.07309851 -0.2306797
v 0.1885918 -0.07742483 -0.2366511
v 0.2449929 -0.1505967 0.102435
v 0.236896 -0.144793 0.1015164
v 0.2041396 -0.2042542 -0.03151186
v 0.2234851 -0.1503802 -0.1043818
v 0.1922276 -0.1855214 -0.1157204
v 0.233802 -0.1619563 -0.03729281
v 0.1983484 -0.1015698 -0.2101548
v 0.2110599 -0.128597 -0.1632283
v 0.1885918 -0.07742483 -0.2366511
v 0.2234851 -0.1503802 -0.1043818
v 0.2148638 -0.1359361 -0.1470886
v 0.2449929 -0.1505967 0.102435
v 0.2374161 -0.1622853 -0.003359451
v 0.233802 -0.1619563 -0.03729281
v 0.2392206 -0.1616719 0.0157616
v 0.1983484 -0.1015698 -0.2101548
v 0.1902466 -0.1142709 -0.2109233
v 0.2110599 -0.128597 -0.1632283
v 0.2100738 -0.1359004 -0.1577156
v 0.233802 -0.1619563 -0.03729281
v 0.2041396 -0.2042542 -0.03151186
v 0.2374161 -0.1622853 -0.003359451
v 0.2030666 -0.2087677 -0.004579887
v 0.2392206 -0.1616719 0.0157616
v 0.2134625 -0.1976901 0.02695077
v 0.2084492 -0.2030323 0.08026879
v 0.2030666 -0.2087677 -0.004579887
v 0.1927872 -0.2196843 0.07350442
v 0.2134623 -0.1976902 0.06506328
v 0.2134625 -0.1976901 0.02695077
v 0.2100738 -0.1359004 -0.1577156
v 0.1902466 -0.1142709 -0.2109233
v 0.1684101 -0.1651859 -0.1887939
v 0.1721469 -0.1678429 -0.1802992
v 0.2100738 -0.1359004 -0.1577156
v 0.1922276 -0.1855214 -0.1157204
v 0.2234851 -0.1503802 -0.1043818
v 0.2148638 -0.1359361 -0.1470886
v 0.2392206 -0.1616719 0.0157616
v 0.2134623 -0.1976902 0.06506328
v 0.2449929 -0.1505967 0.102435
v 0.2134625 -0.1976901 0.02695077
vn -0.8149627 0.4851821 0.3169133
vn -0.8149627 0.4851821 0.3169133
vn -0.8149627 0.485182 0.3169132
vn -0.57718 0.7732571 0.2625581
vn -0.57718 0.7732571 0.2625581
vn -0.57718 0.7732571 0.2625582
vn -0.05369826 0.7787648 -0.6250135
vn -0.05369826 0.7787648 -0.6250135
vn -0.05369826 0.7787648 -0.6250136
vn -0.2803633 0.6335203 -0.7211438
vn -0.2803633 0.6335202 -0.7211438
vn -0.2803633 0.6335203 -0.7211438
vn 0.6438942 -0.5200655 -0.5611882
vn 0.6438942 -0.5200654 -0.5611881
vn 0.6438943 -0.5200655 -0.5611881
vn 0.06123571 -0.4245454 0.9033334
vn 0.06123572 -0.4245454 0.9033335
vn 0.06123572 -0.4245454 0.9033335
vn 0.8069585 -0.5875918 0.05961437
vn 0.8069585 -0.5875917 0.05961436
vn 0.8069585 -0.5875918 0.05961436
vn 0.30712 0.3469504 -0.8861731
vn 0.30712 0.3469504 -0.8861731
vn 0.30712 0.3469504 -0.8861731
vn -0.4647758 0.8056406 -0.3673235
vn -0.4647759 0.8056406 -0.3673235
vn -0.4647759 0.8056406 -0.3673235
vn -0.4809652 0.8760772 -0.03407306
vn -0.4809653 0.8760772 -0.03407307
vn -0.4809653 0.8760772 -0.03407307
vn -0.2536728 0.8698139 -0.4231712
vn -0.2536728 0.8698139 -0.4231712
vn -0.2536728 0.8698139 -0.4231712
vn -0.6339872 0.723672 0.2726885
vn -0.6339872 0.723672 0.2726885
vn -0.6339872 0.723672 0.2726885
vn -0.7126825 0.6393598 0.288622
vn -0.7126825 0.6393598 0.288622
vn -0.7126825 0.6393598 0.288622
vn 0.5715412 -0.5921112 -0.5681065
vn 0.5715412 -0.5921112 -0.5681065
vn 0.5715412 -0.5921112 -0.5681065
vn 0.6332166 -0.4331128 -0.6414437
vn 0.6574489 -0.432943 -0.616702
vn 0.6332167 -0.4331128 -0.6414437
vn 0.6711264 -0.4039204 -0.621641
vn 0.6819683 -0.3978794 -0.6136866
vn 0.6819682 -0.3978794 -0.6136866
vn 0.6819683 -0.3978794 -0.6136866
vn 0.6058043 -0.4818514 -0.6331038
vn 0.6058043 -0.4818514 -0.6331038
vn 0.6058043 -0.4818514 -0.6331038
vn 0.5568565 -0.5045903 -0.6597723
vn 0.5568565 -0.5045903 -0.6597723
vn 0.5568565 -0.5045903 -0.6597723
vn 0.2788793 0.3070603 -0.9099122
vn 0.2788793 0.3070603 -0.9099122
vn 0.2788793 0.3070604 -0.9099122
vn 0.3264592 0.2923955 -0.8988489
vn 0.3264592 0.2923955 -0.8988489
vn 0.3264592 0.2923955 -0.8988489
vn 0.717767 -0.5818334 -0.3824665
vn 0.7177669 -0.5818334 -0.3824665
vn 0.7177669 -0.5818334 -0.3824665
vn 0.8357741 -0.3981933 -0.3780526
vn 0.8357741 -0.3981934 -0.3780527
vn 0.8357741 -0.3981934 -0.3780527
vn -0.2854755 -0.9432856 -0.1694576
vn -0.2854759 -0.9432855 -0.1694576
vn -0.2854759 -0.9432856 -0.1694576
vn -0.2854759 -0.9432855 -0.1694576
vn -0.2854711 -0.9432868 -0.1694583
vn -0.2854736 -0.9432859 -0.1694589
vn -0.285458 -0.9432887 -0.1694699
vn -0.2854855 -0.9432832 -0.1694542
vn -0.2178478 -0.2323312 0.9479265
vn -0.2178478 -0.2323312 0.9479263
vn -0.2178478 -0.2323312 0.9479263
vn -0.2509805 -0.2002512 0.9470525
vn -0.6842295 -0.7289934 -0.01996566
vn -0.6842295 -0.7289934 -0.01996566
vn -0.6842295 -0.7289934 -0.01996566
vn -0.6848913 -0.7283807 -0.01962752
vn 0.5847546 0.8075477 0.07699817
vn 0.5847546 0.8075477 0.07699817
vn 0.5847546 0.8075477 0.07699817
vn 0.5746338 0.81444 0.08052053
vn 0.7624664 -0.600309 -0.2414002
vn 0.7624664 -0.600309 -0.2414002
vn 0.7624665 -0.600309 -0.2414002
vn 0.7841247 -0.580046 -0.2206696
vn 0.9556251 0.2774242 -0.09907822
vn 0.955628 0.2774102 -0.09908871
vn 0.9556285 0.2774086 -0.09908978
vn 0.9556285 0.2774086 -0.09908978
vn 0.955635 0.277382 -0.09910068
vn 0.9556285 0.2774086 -0.09908979
vn 0.9556277 0.2774112 -0.0990897
vn 0.9556296 0.277404 -0.09909082
vn 0.9556471 0.2773464 -0.09908394
vn 0.7578636 -0.4551415 -0.4674278
vn 0.7578636 -0.4551416 -0.4674278
vn 0.7578636 -0.4551415 -0.4674279
vn 0.7578667 -0.4551367 -0.4674276
vn 0.8093398 -0.5801188 -0.09182183
vn 0.8032604 -0.5918272 -0.06718116
vn 0.8032604 -0.5918272 -0.06718116
vn 0.8032604 -0.5918272 -0.06718116
vn 0.8036476 -0.5923849 -0.05683907
vn 0.8036487 -0.5923827 -0.05684638
vn 0.7284095 -0.685142 0.0001048362
vn 0.7284095 -0.6851421 0.0001048362
vn 0.7284095 -0.6851421 0.0001048362
vn 0.7291949 -0.6843061 -1.495759E-06
vn 0.7291907 -0.6843105 -1.627813E-07
vn 0.7149457 -0.5130712 -0.4749847
vn 0.7149457 -0.5130712 -0.4749847
vn 0.7149457 -0.5130712 -0.4749847
vn 0.7149456 -0.5130748 -0.4749811
vn 0.7542433 -0.560582 -0.341855
vn 0.7542433 -0.560582 -0.341855
vn 0.7542433 -0.560582 -0.341855
vn 0.7542526 -0.5605703 -0.3418541
vn 0.8243903 -0.5657546 0.01738939
vn 0.8243903 -0.5657546 0.01738939
vn 0.8243903 -0.5657546 0.01738939
vn 0.813404 -0.5816993 6.215985E-07
g basketball_Explode_Thin_05_Hull_0
f 3/3/3 2/2/2 1/1/1
f 6/6/6 5/5/5 4/4/4
f 9/9/9 8/8/8 7/7/7
f 12/12/12 11/11/11 10/10/10
f 15/15/15 14/14/14 13/13/13
f 18/18/18 17/17/17 16/16/16
f 21/21/21 20/20/20 19/19/19
f 24/24/24 23/23/23 22/22/22
f 27/27/27 26/26/26 25/25/25
f 30/30/30 29/29/29 28/28/28
f 33/33/33 32/32/32 31/31/31
f 36/36/36 35/35/35 34/34/34
f 39/39/39 38/38/38 37/37/37
f 42/42/42 41/41/41 40/40/40
f 45/45/45 44/44/44 43/43/43
f 47/47/47 44/44/44 46/46/46
f 48/48/48 47/47/47 46/46/46
f 47/47/47 48/48/48 49/49/49
f 52/52/52 51/51/51 50/50/50
f 55/55/55 54/54/54 53/53/53
f 58/58/58 57/57/57 56/56/56
f 61/61/61 60/60/60 59/59/59
f 64/64/64 63/63/63 62/62/62
f 67/67/67 66/66/66 65/65/65
f 70/70/70 69/69/69 68/68/68
f 70/70/70 71/71/71 69/69/69
f 69/69/69 71/71/71 72/72/72
f 71/71/71 70/70/70 73/73/73
f 73/73/73 70/70/70 74/74/74
f 71/71/71 73/73/73 75/75/75
f 78/78/78 77/77/77 76/76/76
f 77/77/77 78/78/78 79/79/79
f 82/82/82 81/81/81 80/80/80
f 81/81/81 83/83/83 80/80/80
f 86/86/86 85/85/85 84/84/84
f 87/87/87 86/86/86 84/84/84
f 90/90/90 89/89/89 88/88/88
f 88/88/88 89/89/89 91/91/91
f 94/94/94 93/93/93 92/92/92
f 94/94/94 95/95/95 93/93/93
f 93/93/93 95/95/95 96/96/96
f 94/94/94 97/97/97 95/95/95
f 95/95/95 97/97/97 98/98/98
f 95/95/95 98/98/98 99/99/99
f 98/98/98 97/97/97 100/100/100
f 103/103/103 102/102/102 101/101/101
f 102/102/102 103/103/103 104/104/104
f 107/107/107 106/106/106 105/105/105
f 107/107/107 108/108/108 106/106/106
f 108/108/108 107/107/107 109/109/109
f 108/108/108 109/109/109 110/110/110
f 113/113/113 112/112/112 111/111/111
f 112/112/112 114/114/114 111/111/111
f 114/114/114 112/112/112 115/115/115
f 118/118/118 117/117/117 116/116/116
f 118/118/118 116/116/116 119/119/119
f 122/122/122 121/121/121 120/120/120
f 122/122/122 120/120/120 123/123/123
f 126/126/126 125/125/125 124/124/124
f 124/124/124 125/125/125 127/127/127
