g basketball_Explode_Thin_08_Hull
v -0.04139031 0.205885 0.210097
v 0.07581711 0.1982887 -0.1191765
v 0.1084116 -0.2544187 -0.192812
v -0.1091517 -0.1370076 0.1957129
v -0.08520872 0.1339551 0.2167214
v -0.04139031 0.205885 0.210097
v -0.01240304 0.257052 0.09017266
v -0.04623796 0.2088041 0.0835785
v 0.0418648 0.2476772 -0.06047087
v -0.1228246 -0.03162302 0.2092462
v -0.08520872 0.1339551 0.2167214
v -0.1091517 -0.1370076 0.1957129
v -0.1228246 -0.03162302 0.2092462
v -0.1202246 -0.003774438 0.1271347
v -0.08520872 0.1339551 0.2167214
v -0.1228246 -0.03162302 0.2092462
v -0.1091517 -0.1370076 0.1957129
v -0.105882 -0.1903228 0.1313641
v -0.03089988 -0.08173099 -0.124222
v -0.02132059 0.06946783 -0.1125216
v -0.08807592 0.04425545 0.003466824
v -0.09493402 -0.1072772 0.000925138
v -0.03089988 -0.08173099 -0.124222
v -0.08807592 0.04425545 0.003466824
v -0.09493402 -0.1072772 0.000925138
v -0.04130756 -0.2310055 -0.05318054
v -0.03089988 -0.08173099 -0.124222
v 0.03522307 -0.227842 -0.1556502
v -0.03089988 -0.08173099 -0.124222
v -0.04130756 -0.2310055 -0.05318054
v 0.01553454 -0.2613821 -0.1138027
v -0.04130756 -0.2310055 -0.05318054
v -0.03263855 -0.2522725 -0.04853233
v 0.01553454 -0.2613821 -0.1138027
v 0.03522307 -0.227842 -0.1556502
v -0.04130756 -0.2310055 -0.05318054
v 0.06466182 0.2050578 -0.1262098
v 0.07581711 0.1982887 -0.1191765
v 0.0418648 0.2476772 -0.06047087
v -0.08758195 0.1176553 0.07531432
v -0.1202246 -0.003774438 0.1271347
v -0.08807592 0.04425545 0.003466824
v -0.08758195 0.1176553 0.07531432
v -0.08520872 0.1339551 0.2167214
v -0.1202246 -0.003774438 0.1271347
v -0.09681278 -0.1598715 0.1788123
v -0.04139031 0.205885 0.210097
v 0.1084116 -0.2544187 -0.192812
v -0.09681278 -0.1598715 0.1788123
v -0.1091517 -0.1370076 0.1957129
v -0.04139031 0.205885 0.210097
v -0.09681278 -0.1598715 0.1788123
v -0.105882 -0.1903228 0.1313641
v -0.1091517 -0.1370076 0.1957129
v -0.07127586 -0.2344303 0.02148554
v -0.105882 -0.1903228 0.1313641
v -0.09681278 -0.1598715 0.1788123
v -0.07127586 -0.2344303 0.02148554
v -0.04130756 -0.2310055 -0.05318054
v -0.09493402 -0.1072772 0.000925138
v -0.07127586 -0.2344303 0.02148554
v -0.03263855 -0.2522725 -0.04853233
v -0.04130756 -0.2310055 -0.05318054
v -0.0131548 0.1421103 -0.08371034
v 0.0418648 0.2476772 -0.06047087
v -0.04623796 0.2088041 0.0835785
v -0.0131548 0.1421103 -0.08371034
v -0.04623796 0.2088041 0.0835785
v -0.08758195 0.1176553 0.07531432
v -0.0131548 0.1421103 -0.08371034
v -0.08807592 0.04425545 0.003466824
v -0.02132059 0.06946783 -0.1125216
v -0.0131548 0.1421103 -0.08371034
v -0.08758195 0.1176553 0.07531432
v -0.08807592 0.04425545 0.003466824
v -0.0131548 0.1421103 -0.08371034
v -0.02132059 0.06946783 -0.1125216
v 0.05403671 0.1117811 -0.1753007
v -0.0131548 0.1421103 -0.08371034
v 0.05403671 0.1117811 -0.1753007
v 0.06466182 0.2050578 -0.1262098
v -0.0131548 0.1421103 -0.08371034
v 0.06466182 0.2050578 -0.1262098
v 0.0418648 0.2476772 -0.06047087
v -0.05038511 0.2108049 0.2081274
v -0.01240304 0.257052 0.09017266
v -0.04139031 0.205885 0.210097
v -0.05038511 0.2108049 0.2081274
v -0.04623796 0.2088041 0.0835785
v -0.01240304 0.257052 0.09017266
v -0.05038511 0.2108049 0.2081274
v -0.04139031 0.205885 0.210097
v -0.08520872 0.1339551 0.2167214
v 0.1024409 -0.2587445 -0.1995721
v 0.01553454 -0.2613821 -0.1138027
v 0.1084116 -0.2544187 -0.192812
v 0.1024409 -0.2587445 -0.1995721
v 0.03522307 -0.227842 -0.1556502
v 0.01553454 -0.2613821 -0.1138027
v 0.1024409 -0.2587445 -0.1995721
v 0.07945361 -0.1818183 -0.2151702
v 0.03522307 -0.227842 -0.1556502
v 0.1024409 -0.2587445 -0.1995721
v 0.1084116 -0.2544187 -0.192812
v 0.07945361 -0.1818183 -0.2151702
v 0.03461162 0.0168176 -0.1885043
v -0.03089988 -0.08173099 -0.124222
v 0.06059037 -0.08203302 -0.2179293
v 0.03461162 0.0168176 -0.1885043
v -0.02132059 0.06946783 -0.1125216
v -0.03089988 -0.08173099 -0.124222
v 0.03461162 0.0168176 -0.1885043
v 0.05403671 0.1117811 -0.1753007
v -0.02132059 0.06946783 -0.1125216
v 0.03461162 0.0168176 -0.1885043
v 0.06059037 -0.08203302 -0.2179293
v 0.05403671 0.1117811 -0.1753007
v -0.1152555 -0.08168966 0.06590623
v -0.08807592 0.04425545 0.003466824
v -0.1202246 -0.003774438 0.1271347
v -0.1152555 -0.08168966 0.06590623
v -0.09493402 -0.1072772 0.000925138
v -0.08807592 0.04425545 0.003466824
v -0.1152555 -0.08168966 0.06590623
v -0.1228246 -0.03162302 0.2092462
v -0.105882 -0.1903228 0.1313641
v -0.1152555 -0.08168966 0.06590623
v -0.1202246 -0.003774438 0.1271347
v -0.1228246 -0.03162302 0.2092462
v 0.06618176 0.1285287 -0.1687231
v 0.06466182 0.2050578 -0.1262098
v 0.05403671 0.1117811 -0.1753007
v 0.06618176 0.1285287 -0.1687231
v 0.07581711 0.1982887 -0.1191765
v 0.06466182 0.2050578 -0.1262098
v 0.06618176 0.1285287 -0.1687231
v 0.05403671 0.1117811 -0.1753007
v 0.06059037 -0.08203302 -0.2179293
v 0.06618176 0.1285287 -0.1687231
v 0.1084116 -0.2544187 -0.192812
v 0.07581711 0.1982887 -0.1191765
v -0.01240304 0.257052 0.09017266
v 0.0418648 0.2476772 -0.06047087
v 0.07581711 0.1982887 -0.1191765
v -0.04139031 0.205885 0.210097
v 0.07945361 -0.1818183 -0.2151702
v 0.06059037 -0.08203302 -0.2179293
v -0.03089988 -0.08173099 -0.124222
v 0.03522307 -0.227842 -0.1556502
v 0.01553454 -0.2613821 -0.1138027
v -0.03263855 -0.2522725 -0.04853233
v 0.1084116 -0.2544187 -0.192812
v -0.09681278 -0.1598715 0.1788123
v -0.07127586 -0.2344303 0.02148554
v -0.07127586 -0.2344303 0.02148554
v -0.09493402 -0.1072772 0.000925138
v -0.105882 -0.1903228 0.1313641
v -0.1152555 -0.08168966 0.06590623
v -0.05038511 0.2108049 0.2081274
v -0.08758195 0.1176553 0.07531432
v -0.04623796 0.2088041 0.0835785
v -0.08520872 0.1339551 0.2167214
v 0.06618176 0.1285287 -0.1687231
v 0.07945361 -0.1818183 -0.2151702
v 0.1084116 -0.2544187 -0.192812
v 0.06059037 -0.08203302 -0.2179293
vn 0.9421085 0.01333407 0.3350431
vn 0.9421085 0.01333407 0.3350431
vn 0.9421085 0.01333407 0.3350431
vn 0.3081129 -0.1005732 0.9460187
vn 0.3081129 -0.1005732 0.9460187
vn 0.3081129 -0.1005732 0.9460187
vn -0.7583383 0.5740208 -0.3089063
vn -0.7583383 0.5740208 -0.3089063
vn -0.7583383 0.5740208 -0.3089063
vn 0.2261725 -0.09514784 0.9694291
vn 0.2261725 -0.09514783 0.9694291
vn 0.2261725 -0.09514784 0.9694291
vn -0.9746498 0.2194532 0.04356699
vn -0.9746498 0.2194532 0.04356699
vn -0.9746498 0.2194532 0.04356699
vn -0.9886768 -0.1363273 0.06271417
vn -0.9886768 -0.1363273 0.06271417
vn -0.9886768 -0.1363273 0.06271417
vn -0.8715506 0.09247836 -0.4815054
vn -0.8715506 0.09247836 -0.4815054
vn -0.8715506 0.09247836 -0.4815054
vn -0.8931429 0.0479232 -0.4472127
vn -0.8931428 0.04792321 -0.4472127
vn -0.8931428 0.0479232 -0.4472127
vn -0.8636711 -0.1662462 -0.4758512
vn -0.8636711 -0.1662462 -0.4758511
vn -0.8636711 -0.1662462 -0.4758511
vn -0.7772418 -0.2253833 -0.58745
vn -0.7772418 -0.2253833 -0.58745
vn -0.7772418 -0.2253833 -0.58745
vn -0.7577202 -0.418338 -0.5008526
vn -0.7577202 -0.418338 -0.5008526
vn -0.7577202 -0.418338 -0.5008526
vn -0.7662681 -0.2748221 -0.5807804
vn -0.7662681 -0.2748222 -0.5807806
vn -0.7662681 -0.2748222 -0.5807806
vn 0.6171144 0.7405195 -0.2660844
vn 0.6171144 0.7405194 -0.2660844
vn 0.6171144 0.7405194 -0.2660844
vn -0.9664737 0.1829021 -0.1802092
vn -0.9664737 0.1829021 -0.1802092
vn -0.9664737 0.1829021 -0.1802092
vn -0.9670193 0.2543667 -0.01309106
vn -0.9670193 0.2543667 -0.01309106
vn -0.9670193 0.2543667 -0.01309106
vn 0.8433445 -0.1713549 0.5093207
vn 0.8433445 -0.171355 0.5093206
vn 0.8433445 -0.1713549 0.5093206
vn 0.677792 -0.1640095 0.7167278
vn 0.677792 -0.1640095 0.7167278
vn 0.6777921 -0.1640095 0.7167278
vn -0.5181854 -0.6713377 0.5298958
vn -0.5181854 -0.6713378 0.5298957
vn -0.5181854 -0.6713378 0.5298957
vn 0.3840662 -0.8086732 0.4455792
vn 0.3840662 -0.8086732 0.4455792
vn 0.3840662 -0.8086732 0.4455793
vn -0.9000383 -0.2275615 -0.3716809
vn -0.9000384 -0.2275615 -0.3716809
vn -0.9000383 -0.2275615 -0.3716809
vn -0.8361213 -0.4183699 -0.3547787
vn -0.8361211 -0.4183699 -0.3547787
vn -0.8361211 -0.4183698 -0.3547787
vn -0.7953426 0.492355 -0.353577
vn -0.7953426 0.492355 -0.353577
vn -0.7953426 0.492355 -0.353577
vn -0.8470916 0.414398 -0.3327314
vn -0.8470916 0.414398 -0.3327314
vn -0.8470916 0.414398 -0.3327314
vn -0.8588257 0.2693602 -0.4357331
vn -0.8588257 0.2693602 -0.4357331
vn -0.8588257 0.2693602 -0.4357331
vn -0.8677657 0.3506078 -0.352217
vn -0.8677657 0.3506079 -0.352217
vn -0.8677657 0.3506079 -0.3522171
vn -0.7065649 0.3281003 -0.6269898
vn -0.7065649 0.3281003 -0.6269898
vn -0.7065649 0.3281003 -0.6269898
vn -0.6682633 0.4046556 -0.6242419
vn -0.6682633 0.4046556 -0.6242419
vn -0.6682633 0.4046557 -0.6242419
vn -0.6862116 0.4782882 -0.5480456
vn -0.6862116 0.4782882 -0.5480456
vn -0.6862116 0.4782882 -0.5480456
vn 0.3556017 0.8255549 0.4381856
vn 0.3556017 0.8255549 0.4381856
vn 0.3556017 0.8255548 0.4381856
vn -0.8158508 0.5771134 -0.03643623
vn -0.8158507 0.5771135 -0.03643624
vn -0.8158507 0.5771134 -0.03643624
vn -0.1237335 0.165484 0.9784197
vn -0.1237335 0.1654841 0.9784197
vn -0.1237335 0.1654841 0.9784197
vn 0.3185537 -0.9008076 0.2950748
vn 0.3185536 -0.9008077 0.2950748
vn 0.3185537 -0.9008076 0.2950748
vn -0.6241491 -0.4395457 -0.6459392
vn -0.6241491 -0.4395457 -0.6459392
vn -0.6241491 -0.4395457 -0.6459392
vn -0.6179246 -0.3294056 -0.7139056
vn -0.6179246 -0.3294056 -0.7139056
vn -0.6179246 -0.3294056 -0.7139056
vn 0.7224958 0.07657259 -0.6871219
vn 0.7224957 0.07657258 -0.687122
vn 0.7224957 0.07657258 -0.687122
vn -0.7153468 0.01992027 -0.6984857
vn -0.7153468 0.01992027 -0.6984857
vn -0.7153468 0.01992027 -0.6984857
vn -0.7679842 0.09763878 -0.6329827
vn -0.7679842 0.09763878 -0.6329826
vn -0.7679842 0.09763878 -0.6329826
vn -0.6968921 0.2366807 -0.676996
vn -0.6968921 0.2366807 -0.676996
vn -0.6968921 0.2366807 -0.676996
vn -0.3153256 0.19367 -0.9290111
vn -0.3153256 0.19367 -0.9290112
vn -0.3153256 0.19367 -0.9290111
vn -0.9716625 0.1046028 -0.2119678
vn -0.9716625 0.1046028 -0.2119678
vn -0.9716625 0.1046028 -0.2119678
vn -0.9477477 0.04818294 -0.3153611
vn -0.9477477 0.04818294 -0.315361
vn -0.9477477 0.04818294 -0.3153611
vn -0.995101 -0.09709135 -0.01863417
vn -0.995101 -0.09709136 -0.01863417
vn -0.995101 -0.09709135 -0.01863417
vn -0.998646 -0.03066691 -0.04202249
vn -0.998646 -0.03066691 -0.0420225
vn -0.998646 -0.03066691 -0.04202249
vn -0.1879263 0.4741111 -0.8601758
vn -0.1879263 0.4741111 -0.8601758
vn -0.1879262 0.4741111 -0.8601758
vn 0.647226 0.3799687 -0.6608496
vn 0.647226 0.3799687 -0.6608496
vn 0.647226 0.3799687 -0.6608496
vn 0.2167148 0.2166909 -0.9518822
vn 0.2167148 0.2166909 -0.9518822
vn 0.2167148 0.2166909 -0.9518822
vn 0.9263598 0.124515 -0.3554623
vn 0.9263598 0.124515 -0.3554623
vn 0.9263598 0.124515 -0.3554624
vn 0.914433 0.2560085 0.3134835
vn 0.914433 0.2560085 0.3134835
vn 0.914433 0.2560085 0.3134835
vn 0.917818 0.2331525 0.3213256
vn -0.7073644 -0.1528019 -0.6901355
vn -0.7073644 -0.1528019 -0.6901355
vn -0.7073644 -0.1528019 -0.6901355
vn -0.7177191 -0.1801234 -0.6726327
vn 0.4187235 -0.8044639 0.4213176
vn 0.4187235 -0.8044639 0.4213176
vn 0.4187235 -0.8044639 0.4213176
vn 0.4401571 -0.781638 0.4419318
vn 0.4397792 -0.7818599 0.4419154
vn -0.9532775 -0.2121442 -0.2150744
vn -0.9532775 -0.2121442 -0.2150744
vn -0.9532775 -0.2121442 -0.2150744
vn -0.9534364 -0.2117013 -0.2148058
vn -0.9088092 0.4155736 -0.03693658
vn -0.9088092 0.4155736 -0.03693658
vn -0.9088092 0.4155736 -0.03693658
vn -0.9117213 0.4095681 -0.03190904
vn 0.783049 0.1246809 -0.6093348
vn 0.783049 0.1246808 -0.6093348
vn 0.783049 0.1246809 -0.6093348
vn 0.7651286 0.1271855 -0.631191
g basketball_Explode_Thin_08_Hull_0
f 3/3/3 2/2/2 1/1/1
f 6/6/6 5/5/5 4/4/4
f 9/9/9 8/8/8 7/7/7
f 12/12/12 11/11/11 10/10/10
f 15/15/15 14/14/14 13/13/13
f 18/18/18 17/17/17 16/16/16
f 21/21/21 20/20/20 19/19/19
f 24/24/24 23/23/23 22/22/22
f 27/27/27 26/26/26 25/25/25
f 30/30/30 29/29/29 28/28/28
f 33/33/33 32/32/32 31/31/31
f 36/36/36 35/35/35 34/34/34
f 39/39/39 38/38/38 37/37/37
f 42/42/42 41/41/41 40/40/40
f 45/45/45 44/44/44 43/43/43
f 48/48/48 47/47/47 46/46/46
f 51/51/51 50/50/50 49/49/49
f 54/54/54 53/53/53 52/52/52
f 57/57/57 56/56/56 55/55/55
f 60/60/60 59/59/59 58/58/58
f 63/63/63 62/62/62 61/61/61
f 66/66/66 65/65/65 64/64/64
f 69/69/69 68/68/68 67/67/67
f 72/72/72 71/71/71 70/70/70
f 75/75/75 74/74/74 73/73/73
f 78/78/78 77/77/77 76/76/76
f 81/81/81 80/80/80 79/79/79
f 84/84/84 83/83/83 82/82/82
f 87/87/87 86/86/86 85/85/85
f 90/90/90 89/89/89 88/88/88
f 93/93/93 92/92/92 91/91/91
f 96/96/96 95/95/95 94/94/94
f 99/99/99 98/98/98 97/97/97
f 102/102/102 101/101/101 100/100/100
f 105/105/105 104/104/104 103/103/103
f 108/108/108 107/107/107 106/106/106
f 111/111/111 110/110/110 109/109/109
f 114/114/114 113/113/113 112/112/112
f 117/117/117 116/116/116 115/115/115
f 120/120/120 119/119/119 118/118/118
f 123/123/123 122/122/122 121/121/121
f 126/126/126 125/125/125 124/124/124
f 129/129/129 128/128/128 127/127/127
f 132/132/132 131/131/131 130/130/130
f 135/135/135 134/134/134 133/133/133
f 138/138/138 137/137/137 136/136/136
f 141/141/141 140/140/140 139/139/139
f 144/144/144 143/143/143 142/142/142
f 145/145/145 144/144/144 142/142/142
f 148/148/148 147/147/147 146/146/146
f 149/149/149 148/148/148 146/146/146
f 152/152/152 151/151/151 150/150/150
f 151/151/151 152/152/152 153/153/153
f 151/151/151 153/153/153 154/154/154
f 157/157/157 156/156/156 155/155/155
f 156/156/156 157/157/157 158/158/158
f 161/161/161 160/160/160 159/159/159
f 160/160/160 162/162/162 159/159/159
f 165/165/165 164/164/164 163/163/163
f 164/164/164 166/166/166 163/163/163
