g BeachBalls_Explode_Thin_11_Hull
v 0.05092125 0.1346361 0.01952473
v -0.1550843 -0.1301758 -0.0102293
v 0.1484456 0.06622735 -0.04595882
v -0.1377526 -0.09567981 0.008104592
v -0.1550843 -0.1301758 -0.0102293
v 0.05092125 0.1346361 0.01952473
v -0.1370329 -0.09989575 0.01714863
v -0.1541447 -0.1352407 -0.001653137
v -0.1550843 -0.1301758 -0.0102293
v -0.1370329 -0.09989575 0.01714863
v -0.1550843 -0.1301758 -0.0102293
v -0.1377526 -0.09567981 0.008104592
v 0.05513491 0.1352214 0.02857956
v 0.07802673 0.1201638 0.01773411
v 0.05133458 0.1291838 0.03073826
v -0.09663085 -0.09087799 0.01814541
v -0.1541447 -0.1352407 -0.001653137
v -0.1370329 -0.09989575 0.01714863
v -0.09663085 -0.09087799 0.01814541
v -0.1370329 -0.09989575 0.01714863
v -0.1037315 -0.06531744 0.03091984
v 0.1550737 0.06530688 -0.0385219
v 0.1328216 0.05428952 -0.02297954
v 0.1527107 0.06711711 -0.03619188
v 0.0490852 0.002644453 0.01039265
v 0.1550737 0.06530688 -0.0385219
v -0.1541447 -0.1352407 -0.001653137
v 0.0490852 0.002644453 0.01039265
v 0.1328216 0.05428952 -0.02297954
v 0.1550737 0.06530688 -0.0385219
v -2.71225E-05 -0.02363099 0.02396679
v 0.0490852 0.002644453 0.01039265
v -0.047475 -0.05556001 0.02525997
v -2.71225E-05 -0.02363099 0.02396679
v 0.05476296 0.01127859 0.01507362
v 0.0490852 0.002644453 0.01039265
v 0.1062269 0.0402297 -0.007772178
v 0.0490852 0.002644453 0.01039265
v 0.05476296 0.01127859 0.01507362
v 0.1062269 0.0402297 -0.007772178
v 0.1328216 0.05428952 -0.02297954
v 0.0490852 0.002644453 0.01039265
v 0.1120004 0.05967074 -0.007241669
v 0.1328216 0.05428952 -0.02297954
v 0.1062269 0.0402297 -0.007772178
v -0.006015758 0.05600947 0.04260967
v -0.03686766 0.01190355 0.04585659
v -0.06645192 -0.02385626 0.04184643
v -0.006015758 0.05600947 0.04260967
v -0.01031007 0.04629549 0.04571972
v -0.03686766 0.01190355 0.04585659
v -0.006015758 0.05600947 0.04260967
v -0.1377526 -0.09567981 0.008104592
v 0.05092125 0.1346361 0.01952473
v -0.006015758 0.05600947 0.04260967
v 0.01738631 0.08412372 0.04237694
v -0.01031007 0.04629549 0.04571972
v -0.006015758 0.05600947 0.04260967
v -0.1370329 -0.09989575 0.01714863
v -0.1377526 -0.09567981 0.008104592
v -0.06171666 -0.03176723 0.03851467
v -0.1037315 -0.06531744 0.03091984
v -0.06645192 -0.02385626 0.04184643
v 0.03077318 0.1014614 0.0385146
v 0.05513491 0.1352214 0.02857956
v 0.05133458 0.1291838 0.03073826
v 0.03077318 0.1014614 0.0385146
v 0.01738631 0.08412372 0.04237694
v 0.05513491 0.1352214 0.02857956
v 0.03077318 0.1014614 0.0385146
v 0.02798457 0.08138461 0.0385146
v 0.01738631 0.08412372 0.04237694
v -0.1541447 -0.1352407 -0.001653137
v 0.1484456 0.06622735 -0.04595882
v -0.1550843 -0.1301758 -0.0102293
v 0.1550737 0.06530688 -0.0385219
v -0.09663085 -0.09087799 0.01814541
v -0.1037315 -0.06531744 0.03091984
v -0.047475 -0.05556001 0.02525997
v -0.06171666 -0.03176723 0.03851467
v 0.01738631 0.08412372 0.04237694
v 0.05092125 0.1346361 0.01952473
v 0.05513491 0.1352214 0.02857956
v -0.006015758 0.05600947 0.04260967
v 0.1550737 0.06530688 -0.0385219
v 0.05513491 0.1352214 0.02857956
v 0.05092125 0.1346361 0.01952473
v 0.1484456 0.06622735 -0.04595882
v 0.1550737 0.06530688 -0.0385219
v 0.1527107 0.06711711 -0.03619188
v 0.05513491 0.1352214 0.02857956
v 0.07802673 0.1201638 0.01773411
v 0.1166759 0.09333197 -0.007241707
v 0.07109287 0.07024327 0.01773411
v 0.02798457 0.08138461 0.0385146
v 0.07802673 0.1201638 0.01773411
v 0.05133458 0.1291838 0.03073826
v 0.03077318 0.1014614 0.0385146
v 0.07109287 0.07024327 0.01773411
v 0.05476296 0.01127859 0.01507362
v 0.02798457 0.08138461 0.0385146
v 0.01389388 0.03403782 0.03643436
v 0.0490852 0.002644453 0.01039265
v -0.09663085 -0.09087799 0.01814541
v -0.047475 -0.05556001 0.02525997
v -0.1541447 -0.1352407 -0.001653137
v -2.71225E-05 -0.02363099 0.02396679
v -0.02211957 -0.00232173 0.0385146
v 0.05476296 0.01127859 0.01507362
v 0.01389388 0.03403782 0.03643436
v -2.71225E-05 -0.02363099 0.02396679
v -0.047475 -0.05556001 0.02525997
v -0.02211957 -0.00232173 0.0385146
v -0.06171666 -0.03176723 0.03851467
v 0.1166759 0.09333197 -0.007241707
v 0.07109287 0.07024327 0.01773411
v 0.07802673 0.1201638 0.01773411
v 0.1120004 0.05967074 -0.007241669
v 0.1166759 0.09333197 -0.007241707
v 0.1527107 0.06711711 -0.03619188
v 0.1328216 0.05428952 -0.02297954
v 0.1120004 0.05967074 -0.007241669
v -0.03686766 0.01190355 0.04585659
v -0.02211957 -0.00232173 0.0385146
v -0.06645192 -0.02385626 0.04184643
v -0.06171666 -0.03176723 0.03851467
v 0.01389388 0.03403782 0.03643436
v -0.03686766 0.01190355 0.04585659
v -0.01031007 0.04629549 0.04571972
v -0.02211957 -0.00232173 0.0385146
v 0.01389388 0.03403782 0.03643436
v 0.01738631 0.08412372 0.04237694
v 0.02798457 0.08138461 0.0385146
v -0.01031007 0.04629549 0.04571972
v 0.1062269 0.0402297 -0.007772178
v 0.05476296 0.01127859 0.01507362
v 0.07109287 0.07024327 0.01773411
v 0.1120004 0.05967074 -0.007241669
v -0.006015758 0.05600947 0.04260967
v -0.06645192 -0.02385626 0.04184643
v -0.1037315 -0.06531744 0.03091984
v -0.1370329 -0.09989575 0.01714863
vn -0.3342772 0.3580033 -0.8718327
vn -0.3342773 0.3580033 -0.8718328
vn -0.3342773 0.3580033 -0.8718327
vn -0.6807857 0.5798864 -0.4475072
vn -0.6807857 0.5798864 -0.4475072
vn -0.6807857 0.5798863 -0.4475072
vn -0.9145585 0.2963611 0.2752323
vn -0.9145585 0.2963611 0.2752323
vn -0.9145585 0.2963611 0.2752323
vn -0.9131621 0.3367457 0.2296461
vn -0.9131621 0.3367457 0.2296461
vn -0.9131621 0.3367457 0.2296461
vn 0.4478775 0.03748251 0.8933089
vn 0.4478775 0.03748251 0.8933089
vn 0.4478775 0.03748251 0.8933089
vn 0.0907276 -0.5015821 0.8603393
vn 0.0907276 -0.5015821 0.8603393
vn 0.0907276 -0.501582 0.8603394
vn 0.073634 -0.4293942 0.9001104
vn 0.073634 -0.4293942 0.9001104
vn 0.07363399 -0.4293942 0.9001104
vn 0.6204125 -0.1743668 0.7646466
vn 0.6204125 -0.1743668 0.7646466
vn 0.6204125 -0.1743668 0.7646466
vn 0.5504639 -0.8233834 0.1379469
vn 0.5504639 -0.8233834 0.1379469
vn 0.5504639 -0.8233834 0.1379469
vn 0.5850128 -0.7515649 0.3048118
vn 0.5850129 -0.7515649 0.3048118
vn 0.5850128 -0.7515648 0.3048118
vn 0.5157135 -0.7495656 0.414959
vn 0.5157136 -0.7495656 0.414959
vn 0.5157135 -0.7495656 0.414959
vn 0.5036232 -0.6436185 0.5762976
vn 0.5036232 -0.6436185 0.5762976
vn 0.5036232 -0.6436185 0.5762975
vn 0.5824022 -0.64863 0.4899867
vn 0.5824021 -0.6486298 0.4899867
vn 0.5824022 -0.64863 0.4899867
vn 0.5898209 -0.7198594 0.3659423
vn 0.589821 -0.7198594 0.3659423
vn 0.5898209 -0.7198594 0.3659423
vn 0.5607048 -0.1885181 0.8062699
vn 0.5607048 -0.1885181 0.8062699
vn 0.5607048 -0.1885181 0.8062699
vn -0.7008066 0.5257079 0.482184
vn -0.7008066 0.5257079 0.482184
vn -0.7008066 0.5257078 0.482184
vn -0.6093824 0.4730997 0.6362624
vn -0.6093823 0.4730997 0.6362623
vn -0.6093823 0.4730997 0.6362623
vn -0.7612809 0.6131833 0.2108499
vn -0.7612809 0.6131833 0.21085
vn -0.7612809 0.6131833 0.2108499
vn -0.5524576 0.4655847 0.691391
vn -0.5524576 0.4655847 0.6913911
vn -0.5524576 0.4655847 0.6913911
vn -0.7489142 0.5757931 0.3280086
vn -0.7489143 0.5757931 0.3280086
vn -0.7489142 0.5757931 0.3280087
vn 0.09859373 -0.3355454 0.9368504
vn 0.09859373 -0.3355454 0.9368504
vn 0.09859373 -0.3355454 0.9368504
vn -0.4742237 0.545557 0.690999
vn -0.4742237 0.545557 0.6909989
vn -0.4742237 0.545557 0.690999
vn -0.6505501 0.6046741 0.4595147
vn -0.6505501 0.6046741 0.4595147
vn -0.6505501 0.6046741 0.4595147
vn 0.3315131 -0.04604635 0.9423262
vn 0.331513 -0.04604634 0.9423262
vn 0.331513 -0.04604634 0.9423262
vn 0.4308261 -0.7555834 -0.4934395
vn 0.4308261 -0.7555834 -0.4934395
vn 0.4308262 -0.7555835 -0.4934395
vn 0.4355001 -0.7601356 -0.4822173
vn 0.1608151 -0.405124 0.9000072
vn 0.1608151 -0.405124 0.9000072
vn 0.1608151 -0.405124 0.9000072
vn 0.1608152 -0.4051248 0.9000068
vn -0.7273471 0.6179386 0.2985265
vn -0.7273471 0.6179386 0.2985264
vn -0.7273471 0.6179386 0.2985264
vn -0.7368 0.6156204 0.2795306
vn 0.4321671 0.8644021 -0.2569838
vn 0.4321671 0.8644021 -0.2569838
vn 0.4321671 0.8644021 -0.2569838
vn 0.4241225 0.8640912 -0.271047
vn 0.4789273 0.8588715 -0.1815721
vn 0.4788821 0.8588792 -0.1816545
vn 0.4788822 0.8588792 -0.1816545
vn 0.4788821 0.8588792 -0.1816545
vn 0.4788723 0.8588814 -0.1816704
vn 0.4211808 -0.05850113 0.905088
vn 0.4211809 -0.05850122 0.905088
vn 0.4211809 -0.05850122 0.905088
vn 0.4211809 -0.05850122 0.905088
vn 0.4211803 -0.0585009 0.9050883
vn 0.397348 -0.1508847 0.9051787
vn 0.397348 -0.1508847 0.9051787
vn 0.397348 -0.1508847 0.9051786
vn 0.3882069 -0.1554428 0.9083682
vn 0.5255234 -0.7933349 0.3073189
vn 0.5255234 -0.7933349 0.3073188
vn 0.5255234 -0.7933349 0.3073188
vn 0.5310405 -0.8056415 0.2625597
vn 0.3249401 -0.2798539 0.9033802
vn 0.3249401 -0.2798539 0.9033802
vn 0.3249401 -0.2798539 0.9033802
vn 0.3241256 -0.269153 0.9069175
vn 0.2583958 -0.3474796 0.901382
vn 0.2583958 -0.3474796 0.901382
vn 0.2583958 -0.3474796 0.901382
vn 0.2583978 -0.3474804 0.9013811
vn 0.5064976 -0.07035145 0.8593665
vn 0.5064977 -0.07035147 0.8593666
vn 0.5064976 -0.07035147 0.8593665
vn 0.5064974 -0.07035059 0.8593668
vn 0.5874692 -0.08159843 0.8051223
vn 0.5874692 -0.08159843 0.8051223
vn 0.5874692 -0.08159843 0.8051223
vn 0.5874703 -0.08159763 0.8051215
vn 0.2037031 -0.2739297 0.9399295
vn 0.2037031 -0.2739297 0.9399295
vn 0.2037031 -0.2739297 0.9399295
vn 0.2037022 -0.2739278 0.9399303
vn 0.2618405 -0.1984355 0.9444908
vn 0.2618405 -0.1984355 0.9444908
vn 0.2618405 -0.1984355 0.9444908
vn 0.26609 -0.2097282 0.9408561
vn 0.3087634 -0.1332669 0.9417564
vn 0.3087634 -0.1332669 0.9417564
vn 0.3087634 -0.1332669 0.9417564
vn 0.295637 -0.1328571 0.9460168
vn 0.478687 -0.1714217 0.8610885
vn 0.4786869 -0.1714217 0.8610885
vn 0.478687 -0.1714217 0.8610885
vn 0.4820802 -0.1666382 0.8601339
vn -0.7295201 0.5481346 0.409083
vn -0.7295201 0.5481346 0.409083
vn -0.7295201 0.5481346 0.409083
vn -0.7366294 0.5562077 0.3847207
g BeachBalls_Explode_Thin_11_Hull_0
f 3/3/3 2/2/2 1/1/1
f 6/6/6 5/5/5 4/4/4
f 9/9/9 8/8/8 7/7/7
f 12/12/12 11/11/11 10/10/10
f 15/15/15 14/14/14 13/13/13
f 18/18/18 17/17/17 16/16/16
f 21/21/21 20/20/20 19/19/19
f 24/24/24 23/23/23 22/22/22
f 27/27/27 26/26/26 25/25/25
f 30/30/30 29/29/29 28/28/28
f 33/33/33 32/32/32 31/31/31
f 36/36/36 35/35/35 34/34/34
f 39/39/39 38/38/38 37/37/37
f 42/42/42 41/41/41 40/40/40
f 45/45/45 44/44/44 43/43/43
f 48/48/48 47/47/47 46/46/46
f 51/51/51 50/50/50 49/49/49
f 54/54/54 53/53/53 52/52/52
f 57/57/57 56/56/56 55/55/55
f 60/60/60 59/59/59 58/58/58
f 63/63/63 62/62/62 61/61/61
f 66/66/66 65/65/65 64/64/64
f 69/69/69 68/68/68 67/67/67
f 72/72/72 71/71/71 70/70/70
f 75/75/75 74/74/74 73/73/73
f 73/73/73 74/74/74 76/76/76
f 79/79/79 78/78/78 77/77/77
f 78/78/78 79/79/79 80/80/80
f 83/83/83 82/82/82 81/81/81
f 81/81/81 82/82/82 84/84/84
f 87/87/87 86/86/86 85/85/85
f 88/88/88 87/87/87 85/85/85
f 91/91/91 90/90/90 89/89/89
f 92/92/92 90/90/90 91/91/91
f 90/90/90 92/92/92 93/93/93
f 96/96/96 95/95/95 94/94/94
f 96/96/96 97/97/97 95/95/95
f 95/95/95 97/97/97 98/98/98
f 101/101/101 100/100/100 99/99/99
f 100/100/100 101/101/101 102/102/102
f 105/105/105 104/104/104 103/103/103
f 104/104/104 106/106/106 103/103/103
f 109/109/109 108/108/108 107/107/107
f 108/108/108 109/109/109 110/110/110
f 113/113/113 112/112/112 111/111/111
f 112/112/112 113/113/113 114/114/114
f 117/117/117 116/116/116 115/115/115
f 115/115/115 116/116/116 118/118/118
f 121/121/121 120/120/120 119/119/119
f 121/121/121 119/119/119 122/122/122
f 125/125/125 124/124/124 123/123/123
f 124/124/124 125/125/125 126/126/126
f 129/129/129 128/128/128 127/127/127
f 128/128/128 130/130/130 127/127/127
f 133/133/133 132/132/132 131/131/131
f 132/132/132 134/134/134 131/131/131
f 137/137/137 136/136/136 135/135/135
f 137/137/137 135/135/135 138/138/138
f 141/141/141 140/140/140 139/139/139
f 142/142/142 141/141/141 139/139/139
