g BeachBalls_Explode_Thin_08_Hull
v -0.1487867 0.01298158 0.3010447
v -0.1380645 -0.03517737 0.2702555
v -0.2507435 -0.106286 0.1643632
v -0.1487867 0.01298158 0.3010447
v -0.0280516 0.09716209 0.3334424
v -0.1380645 -0.03517737 0.2702555
v 0.1625636 -0.1017715 -0.1106714
v 0.2410875 -0.007143936 0.03274071
v 0.2658546 0.06820736 0.1062029
v -0.2623396 -0.166894 0.03260089
v -0.1380645 -0.2179823 -0.1106714
v -0.2618511 -0.1884384 -0.1106714
v -0.2623396 -0.166894 0.03260089
v -0.1380645 -0.1799225 0.07791088
v -0.1380645 -0.2179823 -0.1106714
v -0.2623396 -0.166894 0.03260089
v -0.2507435 -0.106286 0.1643632
v -0.1380645 -0.1799225 0.07791088
v -0.2623396 -0.166894 0.03260089
v -0.2618511 -0.1884384 -0.1106714
v -0.2507435 -0.106286 0.1643632
v -0.04189568 -0.1425495 -0.3059805
v 0.2658546 0.06820736 0.1062029
v 0.2228394 0.2112892 0.2079044
v -0.04189568 -0.1425495 -0.3059805
v -0.1391606 -0.1635027 -0.3334598
v 0.0300213 -0.1491358 -0.254375
v -0.01065289 -0.1776944 -0.01409209
v 0.1130592 -0.1385842 -0.1106714
v -0.1380645 -0.2179823 -0.1106714
v -0.01065289 -0.1776944 -0.01409209
v 0.09390327 -0.1065815 0.07877571
v 0.1130592 -0.1385842 -0.1106714
v -0.01065289 -0.1776944 -0.01409209
v -0.1380645 -0.2179823 -0.1106714
v -0.1380645 -0.1799225 0.07791088
v -0.01065289 -0.1776944 -0.01409209
v -0.1380645 -0.1799225 0.07791088
v 0.09390327 -0.1065815 0.07877571
v 0.0868239 0.06403901 0.2720024
v 0.1256207 0.1929334 0.3004166
v 0.2080042 0.08823528 0.2019472
v 0.0868239 0.06403901 0.2720024
v -0.0280516 0.09716209 0.3334424
v 0.1256207 0.1929334 0.3004166
v 0.0868239 0.06403901 0.2720024
v 0.2080042 0.08823528 0.2019472
v 0.05593428 -0.04314867 0.2033809
v 0.1678326 0.2189262 0.2622359
v -0.0280516 0.09716209 0.3334424
v -0.1487867 0.01298158 0.3010447
v 0.1678326 0.2189262 0.2622359
v 0.1256207 0.1929334 0.3004166
v -0.0280516 0.09716209 0.3334424
v -0.1391606 -0.1337181 0.1631076
v 0.09390327 -0.1065815 0.07877571
v -0.1380645 -0.1799225 0.07791088
v -0.1391606 -0.1337181 0.1631076
v 0.05593428 -0.04314867 0.2033809
v 0.09390327 -0.1065815 0.07877571
v -0.1391606 -0.1337181 0.1631076
v -0.1380645 -0.03517737 0.2702555
v 0.05593428 -0.04314867 0.2033809
v -0.1391606 -0.1337181 0.1631076
v -0.1380645 -0.1799225 0.07791088
v -0.2507435 -0.106286 0.1643632
v -0.1391606 -0.1337181 0.1631076
v -0.2507435 -0.106286 0.1643632
v -0.1380645 -0.03517737 0.2702555
v -0.2541656 -0.1778223 -0.1542282
v -0.2507435 -0.106286 0.1643632
v -0.2618511 -0.1884384 -0.1106714
v -0.2541656 -0.1778223 -0.1542282
v -0.1487867 0.01298158 0.3010447
v -0.2507435 -0.106286 0.1643632
v -0.2333715 -0.1856891 -0.2071358
v -0.2541656 -0.1778223 -0.1542282
v -0.2618511 -0.1884384 -0.1106714
v 0.110337 -0.1340363 -0.1792033
v 0.1130592 -0.1385842 -0.1106714
v 0.1625636 -0.1017715 -0.1106714
v 0.110337 -0.1340363 -0.1792033
v -0.1380645 -0.2179823 -0.1106714
v 0.1130592 -0.1385842 -0.1106714
v -0.1391606 -0.208375 -0.2068098
v 0.110337 -0.1340363 -0.1792033
v 0.0300213 -0.1491358 -0.254375
v -0.1391606 -0.208375 -0.2068098
v -0.1391606 -0.1635027 -0.3334598
v -0.2333715 -0.1856891 -0.2071358
v -0.1391606 -0.208375 -0.2068098
v 0.0300213 -0.1491358 -0.254375
v -0.1391606 -0.1635027 -0.3334598
v 0.2398995 0.1843272 0.199447
v 0.2658546 0.06820736 0.1062029
v 0.2080042 0.08823528 0.2019472
v 0.2398995 0.1843272 0.199447
v 0.2228394 0.2112892 0.2079044
v 0.2658546 0.06820736 0.1062029
v 0.1748632 -0.02087904 0.1226904
v 0.2658546 0.06820736 0.1062029
v 0.2410875 -0.007143936 0.03274071
v 0.1748632 -0.02087904 0.1226904
v 0.2410875 -0.007143936 0.03274071
v 0.09390327 -0.1065815 0.07877571
v 0.1748632 -0.02087904 0.1226904
v 0.2080042 0.08823528 0.2019472
v 0.2658546 0.06820736 0.1062029
v 0.1748632 -0.02087904 0.1226904
v 0.05593428 -0.04314867 0.2033809
v 0.2080042 0.08823528 0.2019472
v 0.1748632 -0.02087904 0.1226904
v 0.09390327 -0.1065815 0.07877571
v 0.05593428 -0.04314867 0.2033809
v 0.2078917 0.2140208 0.2393812
v 0.2080042 0.08823528 0.2019472
v 0.1256207 0.1929334 0.3004166
v 0.2078917 0.2140208 0.2393812
v 0.2398995 0.1843272 0.199447
v 0.2080042 0.08823528 0.2019472
v 0.2078917 0.2140208 0.2393812
v 0.1256207 0.1929334 0.3004166
v 0.1678326 0.2189262 0.2622359
v 0.2078917 0.2140208 0.2393812
v 0.1678326 0.2189262 0.2622359
v 0.2228394 0.2112892 0.2079044
v 0.2078917 0.2140208 0.2393812
v 0.2228394 0.2112892 0.2079044
v 0.2398995 0.1843272 0.199447
v -0.1474072 -0.1529128 -0.3278283
v -0.2333715 -0.1856891 -0.2071358
v -0.1391606 -0.1635027 -0.3334598
v -0.1474072 -0.1529128 -0.3278283
v -0.2541656 -0.1778223 -0.1542282
v -0.2333715 -0.1856891 -0.2071358
v -0.1474072 -0.1529128 -0.3278283
v 0.2228394 0.2112892 0.2079044
v 0.1678326 0.2189262 0.2622359
v -0.1474072 -0.1529128 -0.3278283
v -0.04189568 -0.1425495 -0.3059805
v 0.2228394 0.2112892 0.2079044
v -0.1474072 -0.1529128 -0.3278283
v -0.1391606 -0.1635027 -0.3334598
v -0.04189568 -0.1425495 -0.3059805
v -0.1380645 -0.03517737 0.2702555
v -0.0280516 0.09716209 0.3334424
v 0.05593428 -0.04314867 0.2033809
v 0.0868239 0.06403901 0.2720024
v 0.09390327 -0.1065815 0.07877571
v 0.1625636 -0.1017715 -0.1106714
v 0.1130592 -0.1385842 -0.1106714
v 0.2410875 -0.007143936 0.03274071
v -0.2541656 -0.1778223 -0.1542282
v 0.1678326 0.2189262 0.2622359
v -0.1487867 0.01298158 0.3010447
v -0.1474072 -0.1529128 -0.3278283
v 0.110337 -0.1340363 -0.1792033
v -0.04189568 -0.1425495 -0.3059805
v 0.0300213 -0.1491358 -0.254375
v 0.2658546 0.06820736 0.1062029
v 0.1625636 -0.1017715 -0.1106714
v -0.1391606 -0.208375 -0.2068098
v -0.2618511 -0.1884384 -0.1106714
v -0.1380645 -0.2179823 -0.1106714
v -0.2333715 -0.1856891 -0.2071358
vn -0.3529865 -0.5584996 0.7506521
vn -0.3529865 -0.5584996 0.7506522
vn -0.3529866 -0.5584996 0.7506521
vn 0.130276 -0.5133076 0.848259
vn 0.1302761 -0.5133076 0.848259
vn 0.130276 -0.5133076 0.848259
vn 0.6757474 0.38858 -0.6263952
vn 0.6757475 0.3885801 -0.6263952
vn 0.6757474 0.38858 -0.6263952
vn -0.2297295 -0.9625488 0.1439589
vn -0.2297295 -0.9625488 0.1439589
vn -0.2297295 -0.9625488 0.1439589
vn -0.1722776 -0.9655799 0.1948738
vn -0.1722776 -0.9655799 0.1948738
vn -0.1722776 -0.9655799 0.1948738
vn -0.2456143 -0.8722808 0.4228473
vn -0.2456143 -0.8722808 0.4228473
vn -0.2456143 -0.8722808 0.4228473
vn -0.9580595 0.2828848 -0.04580486
vn -0.9580595 0.2828848 -0.04580486
vn -0.9580595 0.2828848 -0.04580486
vn 0.4609642 0.6020123 -0.6519916
vn 0.4609642 0.6020123 -0.6519916
vn 0.4609642 0.6020123 -0.6519916
vn 0.3209721 -0.7738159 -0.546064
vn 0.3209722 -0.7738159 -0.5460639
vn 0.3209721 -0.7738159 -0.546064
vn 0.3014624 -0.9534781 3.962157E-05
vn 0.3014624 -0.9534781 3.962157E-05
vn 0.3014624 -0.9534781 3.962157E-05
vn 0.4292339 -0.8824472 0.1924711
vn 0.4292338 -0.8824472 0.1924711
vn 0.4292339 -0.8824472 0.1924711
vn 0.1579855 -0.9679257 0.1953472
vn 0.1579855 -0.9679257 0.1953472
vn 0.1579855 -0.9679257 0.1953472
vn 0.2793767 -0.887939 0.3653946
vn 0.2793766 -0.887939 0.3653945
vn 0.2793766 -0.887939 0.3653946
vn 0.5209675 -0.3303161 0.7870731
vn 0.5209675 -0.3303161 0.7870731
vn 0.5209676 -0.3303161 0.7870731
vn 0.378697 -0.3065006 0.8732961
vn 0.378697 -0.3065005 0.8732961
vn 0.378697 -0.3065005 0.8732961
vn 0.4945578 -0.5652197 0.660257
vn 0.4945578 -0.5652197 0.660257
vn 0.4945578 -0.5652197 0.660257
vn -0.551078 0.828541 -0.09916089
vn -0.551078 0.828541 -0.09916089
vn -0.551078 0.828541 -0.09916089
vn -0.5303051 0.8477574 -0.009156058
vn -0.5303051 0.8477574 -0.009156058
vn -0.5303051 0.8477574 -0.009156058
vn 0.2657564 -0.8460017 0.4622278
vn 0.2657564 -0.8460017 0.4622278
vn 0.2657564 -0.8460017 0.4622278
vn 0.2769277 -0.819575 0.5016053
vn 0.2769277 -0.819575 0.5016052
vn 0.2769277 -0.819575 0.5016053
vn 0.1986352 -0.7223966 0.6623347
vn 0.1986352 -0.7223966 0.6623347
vn 0.1986352 -0.7223966 0.6623347
vn -0.2064997 -0.8612138 0.4644015
vn -0.2064997 -0.8612138 0.4644015
vn -0.2064997 -0.8612138 0.4644015
vn -0.1705732 -0.724395 0.6679497
vn -0.1705732 -0.724395 0.6679497
vn -0.1705732 -0.724395 0.6679497
vn -0.9260681 0.3701935 -0.07317583
vn -0.9260681 0.3701935 -0.07317583
vn -0.9260679 0.3701935 -0.07317582
vn -0.652805 0.7405913 -0.1592799
vn -0.652805 0.7405913 -0.1592799
vn -0.652805 0.7405913 -0.1592799
vn -0.8447621 -0.46623 -0.2626907
vn -0.8447621 -0.4662301 -0.2626908
vn -0.8447621 -0.4662301 -0.2626907
vn 0.5949618 -0.8000833 -0.07672781
vn 0.5949618 -0.8000833 -0.07672781
vn 0.5949618 -0.8000833 -0.0767278
vn 0.3006125 -0.95079 -0.07503682
vn 0.3006125 -0.95079 -0.07503682
vn 0.3006125 -0.95079 -0.07503682
vn 0.2960606 -0.9468037 -0.1261381
vn 0.2960606 -0.9468037 -0.1261381
vn 0.2960606 -0.9468037 -0.1261381
vn -0.2202722 -0.9194357 -0.3257577
vn -0.2202723 -0.9194357 -0.3257577
vn -0.2202722 -0.9194357 -0.3257577
vn 0.2298335 -0.9173541 -0.3250202
vn 0.2298335 -0.9173541 -0.3250202
vn 0.2298335 -0.9173541 -0.3250202
vn 0.8037874 -0.2527843 0.5385405
vn 0.8037875 -0.2527843 0.5385405
vn 0.8037875 -0.2527843 0.5385405
vn 0.6323811 0.5660315 -0.528869
vn 0.632381 0.5660314 -0.5288691
vn 0.6323811 0.5660315 -0.528869
vn 0.6763141 -0.6160324 0.4038605
vn 0.6763141 -0.6160324 0.4038605
vn 0.6763141 -0.6160324 0.4038605
vn 0.5971357 -0.7320834 0.3278457
vn 0.5971356 -0.7320835 0.3278457
vn 0.5971357 -0.7320835 0.3278457
vn 0.6472851 -0.5668009 0.5096653
vn 0.6472851 -0.5668009 0.5096653
vn 0.647285 -0.5668009 0.5096653
vn 0.5233228 -0.599106 0.6059747
vn 0.5233228 -0.599106 0.6059747
vn 0.5233228 -0.599106 0.6059747
vn 0.4795925 -0.7142504 0.5097426
vn 0.4795925 -0.7142504 0.5097426
vn 0.4795924 -0.7142504 0.5097426
vn 0.6170601 -0.2239518 0.7543756
vn 0.6170601 -0.2239518 0.7543756
vn 0.6170601 -0.2239518 0.7543756
vn 0.6818713 -0.2080838 0.7012508
vn 0.6818714 -0.2080838 0.7012507
vn 0.6818713 -0.2080838 0.7012508
vn 0.4953856 0.3580551 0.7914479
vn 0.4953856 0.3580551 0.7914479
vn 0.4953856 0.358055 0.7914479
vn 0.0994767 0.9942735 -0.03904574
vn 0.0994767 0.9942735 -0.03904573
vn 0.0994767 0.9942735 -0.03904573
vn 0.8351585 0.4153428 0.3605559
vn 0.8351585 0.4153428 0.3605559
vn 0.8351585 0.4153428 0.3605559
vn -0.7508667 -0.2624281 -0.6060781
vn -0.7508667 -0.2624281 -0.6060781
vn -0.7508667 -0.2624281 -0.6060781
vn -0.7386128 0.5610585 -0.3737172
vn -0.7386127 0.5610585 -0.3737172
vn -0.7386128 0.5610585 -0.3737172
vn -0.2762804 0.872781 -0.4023959
vn -0.2762804 0.872781 -0.4023958
vn -0.2762804 0.872781 -0.4023958
vn 0.04037489 0.8131275 -0.5806836
vn 0.04037489 0.8131275 -0.5806836
vn 0.04037489 0.8131275 -0.5806836
vn 0.1200643 0.5373911 -0.8347428
vn 0.1200643 0.537391 -0.8347428
vn 0.1200643 0.5373911 -0.8347428
vn 0.2451289 -0.5760829 0.7797694
vn 0.2451289 -0.5760829 0.7797694
vn 0.2451289 -0.5760829 0.7797694
vn 0.2523256 -0.5722579 0.7802901
vn 0.5855909 -0.7874818 0.1922389
vn 0.5855909 -0.7874818 0.1922389
vn 0.5855909 -0.7874818 0.1922389
vn 0.5901159 -0.7836688 0.1939756
vn -0.5510248 0.8074136 -0.2108433
vn -0.5510249 0.8074136 -0.2108433
vn -0.5510248 0.8074136 -0.2108433
vn -0.5448981 0.8094105 -0.2189537
vn 0.5280942 0.5227291 -0.6692315
vn 0.5280942 0.5227291 -0.6692314
vn 0.5280942 0.5227291 -0.6692314
vn 0.5229242 0.5346823 -0.663826
vn 0.5542845 0.5061819 -0.6607181
vn -0.2311168 -0.9683613 -0.09413502
vn -0.2311168 -0.9683613 -0.09413503
vn -0.2311168 -0.9683613 -0.09413505
vn -0.2327051 -0.9677694 -0.0962847
g BeachBalls_Explode_Thin_08_Hull_0
f 3/3/3 2/2/2 1/1/1
f 6/6/6 5/5/5 4/4/4
f 9/9/9 8/8/8 7/7/7
f 12/12/12 11/11/11 10/10/10
f 15/15/15 14/14/14 13/13/13
f 18/18/18 17/17/17 16/16/16
f 21/21/21 20/20/20 19/19/19
f 24/24/24 23/23/23 22/22/22
f 27/27/27 26/26/26 25/25/25
f 30/30/30 29/29/29 28/28/28
f 33/33/33 32/32/32 31/31/31
f 36/36/36 35/35/35 34/34/34
f 39/39/39 38/38/38 37/37/37
f 42/42/42 41/41/41 40/40/40
f 45/45/45 44/44/44 43/43/43
f 48/48/48 47/47/47 46/46/46
f 51/51/51 50/50/50 49/49/49
f 54/54/54 53/53/53 52/52/52
f 57/57/57 56/56/56 55/55/55
f 60/60/60 59/59/59 58/58/58
f 63/63/63 62/62/62 61/61/61
f 66/66/66 65/65/65 64/64/64
f 69/69/69 68/68/68 67/67/67
f 72/72/72 71/71/71 70/70/70
f 75/75/75 74/74/74 73/73/73
f 78/78/78 77/77/77 76/76/76
f 81/81/81 80/80/80 79/79/79
f 84/84/84 83/83/83 82/82/82
f 86/86/86 83/83/83 85/85/85
f 87/87/87 86/86/86 85/85/85
f 90/90/90 89/89/89 88/88/88
f 93/93/93 92/92/92 91/91/91
f 96/96/96 95/95/95 94/94/94
f 99/99/99 98/98/98 97/97/97
f 102/102/102 101/101/101 100/100/100
f 105/105/105 104/104/104 103/103/103
f 108/108/108 107/107/107 106/106/106
f 111/111/111 110/110/110 109/109/109
f 114/114/114 113/113/113 112/112/112
f 117/117/117 116/116/116 115/115/115
f 120/120/120 119/119/119 118/118/118
f 123/123/123 122/122/122 121/121/121
f 126/126/126 125/125/125 124/124/124
f 129/129/129 128/128/128 127/127/127
f 132/132/132 131/131/131 130/130/130
f 135/135/135 134/134/134 133/133/133
f 138/138/138 137/137/137 136/136/136
f 141/141/141 140/140/140 139/139/139
f 144/144/144 143/143/143 142/142/142
f 147/147/147 146/146/146 145/145/145
f 146/146/146 147/147/147 148/148/148
f 151/151/151 150/150/150 149/149/149
f 150/150/150 152/152/152 149/149/149
f 155/155/155 154/154/154 153/153/153
f 153/153/153 154/154/154 156/156/156
f 159/159/159 158/158/158 157/157/157
f 158/158/158 160/160/160 157/157/157
f 160/160/160 161/161/161 157/157/157
f 164/164/164 163/163/163 162/162/162
f 163/163/163 165/165/165 162/162/162
