g BeachBalls_Explode_Thin_14_Hull
v 0.192912 -0.005516214 0.2401804
v 0.04265963 -0.1119197 0.2492638
v 0.03765779 -0.1907908 0.2162777
v 0.04291471 -0.1152449 0.258699
v 0.04246211 -0.1512246 0.2456469
v 0.03837804 -0.1950082 0.2253243
v 0.04291471 -0.1152449 0.258699
v 0.03765779 -0.1907908 0.2162777
v 0.04265963 -0.1119197 0.2492638
v 0.04291471 -0.1152449 0.258699
v 0.03837804 -0.1950082 0.2253243
v 0.03765779 -0.1907908 0.2162777
v 0.1962297 -0.005977058 0.2496105
v 0.04265963 -0.1119197 0.2492638
v 0.192912 -0.005516214 0.2401804
v 0.1962297 -0.005977058 0.2496105
v 0.04291471 -0.1152449 0.258699
v 0.04265963 -0.1119197 0.2492638
v 0.1604542 -0.03392175 0.254874
v 0.1242623 -0.06937353 0.2611645
v 0.09198817 -0.09055975 0.2619846
v 0.1604542 -0.03392175 0.254874
v 0.04291471 -0.1152449 0.258699
v 0.1962297 -0.005977058 0.2496105
v 0.1595318 -0.05645489 0.2505139
v 0.1089797 -0.1189464 0.2500294
v 0.1385725 -0.0831763 0.2540406
v 0.1595318 -0.05645489 0.2505139
v 0.1962297 -0.005977058 0.2496105
v 0.192912 -0.005516214 0.2401804
v 0.1595318 -0.05645489 0.2505139
v 0.192912 -0.005516214 0.2401804
v 0.03765779 -0.1907908 0.2162777
v 0.1651377 -0.04877443 0.2539037
v 0.1595318 -0.05645489 0.2505139
v 0.1385725 -0.0831763 0.2540406
v 0.09575295 -0.1339903 0.2466966
v 0.07168936 -0.1604196 0.2390995
v 0.06746656 -0.1452187 0.2466965
v 0.1919623 -0.0107079 0.2508806
v 0.1604542 -0.03392175 0.254874
v 0.1962297 -0.005977058 0.2496105
v 0.1928421 -0.01093527 0.25056
v 0.1919623 -0.0107079 0.2508806
v 0.1962297 -0.005977058 0.2496105
v 0.1928421 -0.01093527 0.25056
v 0.1962297 -0.005977058 0.2496105
v 0.1595318 -0.05645489 0.2505139
v 0.1385725 -0.0831763 0.2540406
v 0.1089797 -0.1189464 0.2500294
v 0.09198817 -0.09055975 0.2619846
v 0.1242623 -0.06937353 0.2611645
v 0.06746656 -0.1452187 0.2466965
v 0.03837804 -0.1950082 0.2253243
v 0.04246211 -0.1512246 0.2456469
v 0.07168936 -0.1604196 0.2390995
v 0.1604542 -0.03392175 0.254874
v 0.1560496 -0.04371344 0.2574709
v 0.1242623 -0.06937353 0.2611645
v 0.1725592 -0.02891349 0.2546659
v 0.1919623 -0.0107079 0.2508806
v 0.1595318 -0.05645489 0.2505139
v 0.03765779 -0.1907908 0.2162777
v 0.03837804 -0.1950082 0.2253243
v 0.07168936 -0.1604196 0.2390995
v 0.09575295 -0.1339903 0.2466966
v 0.1595318 -0.05645489 0.2505139
v 0.1089797 -0.1189464 0.2500294
v 0.05742656 -0.1090768 0.260352
v 0.1604542 -0.03392175 0.254874
v 0.09198817 -0.09055975 0.2619846
v 0.04291471 -0.1152449 0.258699
v 0.05742656 -0.1090768 0.260352
v 0.09198817 -0.09055975 0.2619846
v 0.06746656 -0.1452187 0.2466965
v 0.1089797 -0.1189464 0.2500294
v 0.09575295 -0.1339903 0.2466966
v 0.05742656 -0.1090768 0.260352
v 0.04246211 -0.1512246 0.2456469
v 0.04291471 -0.1152449 0.258699
v 0.06746656 -0.1452187 0.2466965
v 0.1651377 -0.04877443 0.2539037
v 0.1755661 -0.03466647 0.2528659
v 0.1595318 -0.05645489 0.2505139
v 0.1928421 -0.01093527 0.25056
v 0.1651377 -0.04877443 0.2539037
v 0.1242623 -0.06937353 0.2611645
v 0.1560496 -0.04371344 0.2574709
v 0.1385725 -0.0831763 0.2540406
v 0.1651377 -0.04877443 0.2539037
v 0.1560496 -0.04371344 0.2574709
v 0.1755661 -0.03466647 0.2528659
v 0.1725592 -0.02891349 0.2546659
v 0.1919623 -0.0107079 0.2508806
v 0.1928421 -0.01093527 0.25056
vn -0.3232056 0.3825064 -0.8655791
vn -0.3232056 0.3825064 -0.8655791
vn -0.3232056 0.3825064 -0.8655791
vn -0.7647914 -0.2111874 0.6086822
vn -0.7647914 -0.2111874 0.608682
vn -0.7647914 -0.2111874 0.6086822
vn -0.9980481 0.04532802 0.04295773
vn -0.9980481 0.04532802 0.04295773
vn -0.9980481 0.04532802 0.04295773
vn -0.9958877 0.01963612 0.08844341
vn -0.9958877 0.01963612 0.0884434
vn -0.9958877 0.01963612 0.08844341
vn -0.5525122 0.8001345 0.2334851
vn -0.5525121 0.8001345 0.2334851
vn -0.5525122 0.8001345 0.2334851
vn -0.5435435 0.7869423 0.2920314
vn -0.5435435 0.7869423 0.2920314
vn -0.5435435 0.7869423 0.2920314
vn -0.2433502 0.4048275 0.8814167
vn -0.2433502 0.4048276 0.8814167
vn -0.2433502 0.4048275 0.8814167
vn -0.4654442 0.6983028 0.5438151
vn -0.4654442 0.6983028 0.5438151
vn -0.4654442 0.6983028 0.5438151
vn 0.7708006 -0.6224826 -0.13558
vn 0.7708006 -0.6224827 -0.13558
vn 0.7708006 -0.6224827 -0.13558
vn 0.7694635 -0.5647459 -0.2983086
vn 0.7694635 -0.5647458 -0.2983086
vn 0.7694635 -0.5647458 -0.2983086
vn 0.7271664 -0.5577065 -0.4002404
vn 0.7271664 -0.5577065 -0.4002404
vn 0.7271664 -0.5577065 -0.4002404
vn 0.7894009 -0.6092802 0.07499182
vn 0.7894009 -0.6092802 0.07499182
vn 0.7894009 -0.6092802 0.07499181
vn 0.1608117 -0.4051236 0.9000081
vn 0.1608117 -0.4051236 0.9000081
vn 0.1608117 -0.4051236 0.9000081
vn -0.1890164 0.4100455 0.8922642
vn -0.1890164 0.4100455 0.8922642
vn -0.1890164 0.4100455 0.8922642
vn 0.3315172 -0.0460462 0.9423248
vn 0.3315172 -0.0460462 0.9423248
vn 0.3315172 -0.04604619 0.9423248
vn 0.7908739 -0.5785434 -0.1995138
vn 0.7908739 -0.5785434 -0.1995138
vn 0.7908739 -0.5785435 -0.1995138
vn 0.2037023 -0.2739277 0.9399303
vn 0.2037023 -0.2739277 0.9399303
vn 0.2037023 -0.2739277 0.9399303
vn 0.2037024 -0.2739284 0.9399301
vn 0.06419887 -0.4250698 0.902881
vn 0.06419887 -0.4250699 0.902881
vn 0.06419887 -0.4250699 0.902881
vn 0.07363368 -0.4293929 0.9001109
vn -0.1442533 0.3137858 0.9384719
vn -0.1442533 0.3137858 0.9384719
vn -0.1442533 0.3137858 0.9384719
vn -0.1077647 0.2998658 0.9478751
vn -0.1158057 0.3190009 0.9406527
vn 0.7391741 -0.5859836 -0.3320314
vn 0.7391741 -0.5859836 -0.3320314
vn 0.7391741 -0.5859836 -0.3320314
vn 0.7437719 -0.5949876 -0.3046198
vn 0.7488448 -0.6023767 -0.2763581
vn 0.7488448 -0.6023767 -0.2763581
vn 0.7541404 -0.6081349 -0.2478792
vn -0.2772063 0.4421878 0.8530104
vn -0.2772064 0.4421879 0.8530103
vn -0.2772064 0.4421879 0.8530103
vn -0.2911579 0.4602688 0.8386773
vn 0.1268505 -0.3195579 0.9390376
vn 0.1268462 -0.3195563 0.9390388
vn 0.1268462 -0.3195563 0.9390388
vn 0.1268462 -0.3195563 0.9390388
vn 0.1268443 -0.3195534 0.93904
vn 0.03804115 -0.3411949 0.9392225
vn 0.03804115 -0.3411949 0.9392225
vn 0.03804115 -0.3411949 0.9392225
vn 0.04291128 -0.3426641 0.9384775
vn 0.8045812 -0.5936656 0.01450899
vn 0.8045812 -0.5936656 0.01450899
vn 0.8045812 -0.5936655 0.01450899
vn 0.8066257 -0.5902409 -0.03115401
vn 0.2643899 -0.1914624 0.9452196
vn 0.2643899 -0.1914624 0.9452196
vn 0.2643898 -0.1914624 0.9452196
vn 0.2704459 -0.2050955 0.9406354
vn 0.2904393 -0.1451124 0.9458263
vn 0.2904393 -0.1451124 0.9458263
vn 0.2904392 -0.1451124 0.9458263
vn 0.2901331 -0.1443445 0.9460378
vn 0.3087671 -0.1332697 0.9417548
vn 0.3087671 -0.1332697 0.9417548
g BeachBalls_Explode_Thin_14_Hull_0
f 3/3/3 2/2/2 1/1/1
f 6/6/6 5/5/5 4/4/4
f 9/9/9 8/8/8 7/7/7
f 12/12/12 11/11/11 10/10/10
f 15/15/15 14/14/14 13/13/13
f 18/18/18 17/17/17 16/16/16
f 21/21/21 20/20/20 19/19/19
f 24/24/24 23/23/23 22/22/22
f 27/27/27 26/26/26 25/25/25
f 30/30/30 29/29/29 28/28/28
f 33/33/33 32/32/32 31/31/31
f 36/36/36 35/35/35 34/34/34
f 39/39/39 38/38/38 37/37/37
f 42/42/42 41/41/41 40/40/40
f 45/45/45 44/44/44 43/43/43
f 48/48/48 47/47/47 46/46/46
f 51/51/51 50/50/50 49/49/49
f 51/51/51 49/49/49 52/52/52
f 55/55/55 54/54/54 53/53/53
f 54/54/54 56/56/56 53/53/53
f 59/59/59 58/58/58 57/57/57
f 57/57/57 58/58/58 60/60/60
f 61/61/61 57/57/57 60/60/60
f 64/64/64 63/63/63 62/62/62
f 65/65/65 64/64/64 62/62/62
f 65/65/65 67/67/67 66/66/66
f 67/67/67 68/68/68 66/66/66
f 71/71/71 70/70/70 69/69/69
f 70/70/70 72/72/72 69/69/69
f 75/75/75 74/74/74 73/73/73
f 76/76/76 74/74/74 75/75/75
f 76/76/76 75/75/75 77/77/77
f 80/80/80 79/79/79 78/78/78
f 79/79/79 81/81/81 78/78/78
f 84/84/84 83/83/83 82/82/82
f 83/83/83 84/84/84 85/85/85
f 88/88/88 87/87/87 86/86/86
f 87/87/87 89/89/89 86/86/86
f 92/92/92 91/91/91 90/90/90
f 91/91/91 92/92/92 93/93/93
f 92/92/92 94/94/94 93/93/93
f 94/94/94 92/92/92 95/95/95
