g BeachBalls_Explode_Thin_00_Hull
v -0.226967 -0.07627996 0.1682896
v -0.07393233 0.3288872 0.2408918
v 0.07932784 -0.3515829 -0.05490542
v -0.1298178 -0.2335766 0.01042885
v -0.226967 -0.07627996 0.1682896
v 0.07932784 -0.3515829 -0.05490542
v -0.1359312 0.2029112 0.02162812
v 0.00882374 0.2257442 -0.09612786
v 0.03161901 0.3435191 0.0132469
v 0.2215104 0.1424849 -0.2005189
v -0.07393233 0.3288872 0.2408918
v 0.03161901 0.3435191 0.0132469
v -0.08350639 0.07149332 -0.09612786
v -0.1359312 0.2029112 0.02162812
v -0.1837829 -0.01703487 0.0205628
v -0.05690977 -0.1941962 -0.09452991
v -0.1298178 -0.2335766 0.01042885
v 0.07932784 -0.3515829 -0.05490542
v 0.1482542 -0.2617384 -0.1576936
v -0.05690977 -0.1941962 -0.09452991
v 0.07932784 -0.3515829 -0.05490542
v 0.1482542 -0.2617384 -0.1576936
v 0.1414795 -0.2152494 -0.1826646
v -0.05690977 -0.1941962 -0.09452991
v 0.1482542 -0.2617384 -0.1576936
v 0.07932784 -0.3515829 -0.05490542
v 0.2034791 -0.1573421 -0.2051633
v 0.09938639 0.2871175 -0.09612789
v 0.03161901 0.3435191 0.0132469
v 0.00882374 0.2257442 -0.09612786
v -0.08851743 0.3196345 0.1573452
v -0.1359312 0.2029112 0.02162812
v 0.03161901 0.3435191 0.0132469
v -0.08851743 0.3196345 0.1573452
v -0.1867769 0.2312264 0.2056232
v -0.1359312 0.2029112 0.02162812
v -0.08851743 0.3196345 0.1573452
v -0.07393233 0.3288872 0.2408918
v -0.1867769 0.2312264 0.2056232
v -0.2164769 0.1058595 0.1573452
v -0.1359312 0.2029112 0.02162812
v -0.1867769 0.2312264 0.2056232
v -0.0484874 0.3494019 0.1573452
v 0.03161901 0.3435191 0.0132469
v -0.07393233 0.3288872 0.2408918
v -0.0484874 0.3494019 0.1573452
v -0.08851743 0.3196345 0.1573452
v 0.03161901 0.3435191 0.0132469
v -0.0484874 0.3494019 0.1573452
v -0.07393233 0.3288872 0.2408918
v -0.08851743 0.3196345 0.1573452
v -0.2214599 0.1071473 0.1916003
v -0.2164769 0.1058595 0.1573452
v -0.1867769 0.2312264 0.2056232
v -0.2214599 0.1071473 0.1916003
v -0.07393233 0.3288872 0.2408918
v -0.226967 -0.07627996 0.1682896
v -0.2214599 0.1071473 0.1916003
v -0.1867769 0.2312264 0.2056232
v -0.07393233 0.3288872 0.2408918
v -0.0958029 -0.01703488 -0.09612786
v -0.05690977 -0.1941962 -0.09452991
v -0.009880273 -0.08653443 -0.1576936
v -0.0958029 -0.01703488 -0.09612786
v -0.08350639 0.07149332 -0.09612786
v -0.1837829 -0.01703487 0.0205628
v -0.05745776 0.1592108 -0.09452987
v 0.04836012 0.1002827 -0.1806714
v 0.00882374 0.2257442 -0.09612786
v -0.05745776 0.1592108 -0.09452987
v -0.08350639 0.07149332 -0.09612786
v 0.04836012 0.1002827 -0.1806714
v -0.05745776 0.1592108 -0.09452987
v 0.00882374 0.2257442 -0.09612786
v -0.1359312 0.2029112 0.02162812
v -0.05745776 0.1592108 -0.09452987
v -0.1359312 0.2029112 0.02162812
v -0.08350639 0.07149332 -0.09612786
v 0.2116706 0.07191753 -0.2346374
v 0.2215104 0.1424849 -0.2005189
v 0.1812466 0.1969652 -0.1826644
v 0.2116706 0.07191753 -0.2346374
v 0.1812466 0.1969652 -0.1826644
v 0.04836012 0.1002827 -0.1806714
v 0.08820732 -0.1121623 -0.2013612
v -0.05690977 -0.1941962 -0.09452991
v 0.1414795 -0.2152494 -0.1826646
v 0.08820732 -0.1121623 -0.2013612
v -0.009880273 -0.08653443 -0.1576936
v -0.05690977 -0.1941962 -0.09452991
v 0.201594 -0.1007325 -0.2345584
v 0.08820732 -0.1121623 -0.2013612
v 0.1414795 -0.2152494 -0.1826646
v -0.1888286 -0.1327836 0.06447746
v -0.226967 -0.07627996 0.1682896
v -0.1298178 -0.2335766 0.01042885
v -0.22154 -0.01703488 0.110221
v -0.1888286 -0.1327836 0.06447746
v -0.1837829 -0.01703487 0.0205628
v -0.22154 -0.01703488 0.110221
v -0.226967 -0.07627996 0.1682896
v -0.1888286 -0.1327836 0.06447746
v -0.22154 -0.01703488 0.110221
v -0.2214599 0.1071473 0.1916003
v -0.226967 -0.07627996 0.1682896
v -0.22154 -0.01703488 0.110221
v -0.2164769 0.1058595 0.1573452
v -0.2214599 0.1071473 0.1916003
v 0.06748141 -0.01703488 -0.203441
v -0.009880273 -0.08653443 -0.1576936
v 0.08820732 -0.1121623 -0.2013612
v 0.2034791 -0.1573421 -0.2051633
v 0.07932784 -0.3515829 -0.05490542
v -0.07393233 0.3288872 0.2408918
v 0.2215104 0.1424849 -0.2005189
v 0.04836012 0.1002827 -0.1806714
v 0.1812466 0.1969652 -0.1826644
v 0.00882374 0.2257442 -0.09612786
v 0.09938639 0.2871175 -0.09612789
v 0.1482542 -0.2617384 -0.1576936
v 0.2034791 -0.1573421 -0.2051633
v 0.1414795 -0.2152494 -0.1826646
v 0.201594 -0.1007325 -0.2345584
v 0.09938639 0.2871175 -0.09612789
v 0.2215104 0.1424849 -0.2005189
v 0.03161901 0.3435191 0.0132469
v 0.1812466 0.1969652 -0.1826644
v -0.2164769 0.1058595 0.1573452
v -0.1837829 -0.01703487 0.0205628
v -0.1359312 0.2029112 0.02162812
v -0.22154 -0.01703488 0.110221
v -0.0958029 -0.01703488 -0.09612786
v -0.1298178 -0.2335766 0.01042885
v -0.05690977 -0.1941962 -0.09452991
v -0.1837829 -0.01703487 0.0205628
v -0.1888286 -0.1327836 0.06447746
v -0.0958029 -0.01703488 -0.09612786
v 0.04836012 0.1002827 -0.1806714
v -0.08350639 0.07149332 -0.09612786
v 0.06748141 -0.01703488 -0.203441
v -0.009880273 -0.08653443 -0.1576936
v 0.2116706 0.07191753 -0.2346374
v 0.2034791 -0.1573421 -0.2051633
v 0.2215104 0.1424849 -0.2005189
v 0.201594 -0.1007325 -0.2345584
v 0.2049144 -0.01703488 -0.2422058
v 0.06748141 -0.01703488 -0.203441
v 0.201594 -0.1007325 -0.2345584
v 0.2049144 -0.01703488 -0.2422058
v 0.08820732 -0.1121623 -0.2013612
v 0.06748141 -0.01703488 -0.203441
v 0.2116706 0.07191753 -0.2346374
v 0.04836012 0.1002827 -0.1806714
v 0.2049144 -0.01703488 -0.2422058
vn 0.3724336 -0.2981548 0.8788611
vn 0.3724336 -0.2981548 0.8788611
vn 0.3724336 -0.2981548 0.8788611
vn -0.2371369 -0.7572265 0.6085838
vn -0.2371369 -0.7572265 0.6085838
vn -0.2371369 -0.7572265 0.6085838
vn -0.5504825 0.6228248 -0.55593
vn -0.5504826 0.6228248 -0.55593
vn -0.5504826 0.6228248 -0.5559301
vn 0.8393132 0.3547399 0.4119625
vn 0.8393131 0.3547398 0.4119624
vn 0.8393132 0.3547399 0.4119625
vn -0.8091647 0.178754 -0.5597316
vn -0.8091647 0.178754 -0.5597317
vn -0.8091647 0.178754 -0.5597317
vn -0.5279532 -0.6066444 -0.5943466
vn -0.5279532 -0.6066444 -0.5943466
vn -0.5279532 -0.6066444 -0.5943466
vn -0.4046377 -0.5366795 -0.7404346
vn -0.4046377 -0.5366795 -0.7404346
vn -0.4046377 -0.5366795 -0.7404346
vn -0.3984198 -0.4784011 -0.7825561
vn -0.3984198 -0.4784011 -0.7825561
vn -0.3984198 -0.4784011 -0.7825561
vn 0.891693 -0.3316075 0.308091
vn 0.891693 -0.3316075 0.308091
vn 0.891693 -0.3316075 0.308091
vn -0.4435367 0.654485 -0.6123108
vn -0.4435367 0.654485 -0.6123109
vn -0.4435367 0.654485 -0.6123108
vn -0.6037919 0.6963609 -0.3879651
vn -0.603792 0.6963608 -0.3879651
vn -0.6037919 0.6963609 -0.3879651
vn -0.7151201 0.6336414 -0.29513
vn -0.7151201 0.6336414 -0.29513
vn -0.7151201 0.6336414 -0.29513
vn -0.6597724 0.7507826 0.03203095
vn -0.6597724 0.7507826 0.03203095
vn -0.6597724 0.7507825 0.03203095
vn -0.896672 0.3272411 -0.2981485
vn -0.896672 0.3272411 -0.2981485
vn -0.896672 0.3272412 -0.2981485
vn 0.6999884 0.6143962 0.3640516
vn 0.6999884 0.6143962 0.3640516
vn 0.6999884 0.6143962 0.3640516
vn -0.5606419 0.7539297 -0.3424482
vn -0.5606418 0.7539297 -0.3424482
vn -0.5606419 0.7539297 -0.3424482
vn -0.5966517 0.8023544 0.0153002
vn -0.5966517 0.8023544 0.0153002
vn -0.5966517 0.8023544 0.0153002
vn -0.9479294 0.281749 -0.1484832
vn -0.9479294 0.281749 -0.1484832
vn -0.9479294 0.281749 -0.1484832
vn -0.1471349 -0.1203498 0.9817675
vn -0.1471349 -0.1203498 0.9817675
vn -0.1471349 -0.1203498 0.9817675
vn -0.2723895 -0.03254061 0.9616366
vn -0.2723895 -0.03254061 0.9616366
vn -0.2723895 -0.03254062 0.9616367
vn -0.6531878 -0.1500919 -0.7421712
vn -0.6531878 -0.1500919 -0.7421713
vn -0.6531878 -0.1500919 -0.7421713
vn -0.7936139 0.1102325 -0.5983526
vn -0.7936139 0.1102325 -0.5983526
vn -0.7936139 0.1102325 -0.5983526
vn -0.4289299 0.4079479 -0.8059763
vn -0.4289299 0.4079479 -0.8059763
vn -0.4289299 0.4079479 -0.8059763
vn -0.558494 0.1805997 -0.8096098
vn -0.5584941 0.1805997 -0.8096098
vn -0.5584941 0.1805997 -0.8096098
vn -0.5747839 0.5582368 -0.5983269
vn -0.574784 0.5582368 -0.5983269
vn -0.5747839 0.5582368 -0.598327
vn -0.7613009 0.2370706 -0.6035053
vn -0.7613009 0.2370706 -0.6035053
vn -0.7613009 0.2370706 -0.6035053
vn 0.1591069 0.411667 -0.8973379
vn 0.1591069 0.411667 -0.8973379
vn 0.1591069 0.411667 -0.8973379
vn -0.246652 0.3201589 -0.9146917
vn -0.2466521 0.3201589 -0.9146917
vn -0.2466521 0.3201589 -0.9146917
vn -0.4101541 -0.3636473 -0.8363817
vn -0.410154 -0.3636473 -0.8363817
vn -0.410154 -0.3636473 -0.8363817
vn -0.4519806 -0.2962077 -0.8414122
vn -0.4519807 -0.2962077 -0.8414122
vn -0.4519806 -0.2962077 -0.8414122
vn -0.2414075 -0.292566 -0.9252716
vn -0.2414075 -0.292566 -0.9252716
vn -0.2414075 -0.292566 -0.9252716
vn -0.8751529 -0.480086 -0.06020828
vn -0.8751529 -0.480086 -0.06020828
vn -0.8751529 -0.480086 -0.06020828
vn -0.9163744 -0.1064651 -0.3859055
vn -0.9163744 -0.1064651 -0.3859055
vn -0.9163744 -0.1064651 -0.3859055
vn -0.9514393 -0.1665774 -0.2588731
vn -0.9514393 -0.1665774 -0.2588731
vn -0.9514393 -0.1665774 -0.2588731
vn -0.997773 0.03700882 -0.05549233
vn -0.997773 0.03700882 -0.05549233
vn -0.997773 0.03700883 -0.05549233
vn -0.9844066 0.09686121 -0.1468383
vn -0.9844066 0.09686121 -0.1468383
vn -0.9844066 0.09686121 -0.1468383
vn -0.4285903 -0.112977 -0.8964077
vn -0.4285903 -0.112977 -0.8964075
vn -0.4285903 -0.112977 -0.8964075
vn 0.8113341 -0.06957497 0.5804276
vn 0.8113341 -0.06957497 0.5804276
vn 0.8113341 -0.06957498 0.5804277
vn 0.8181245 -0.05806335 0.5721022
vn -0.3395624 0.4496863 -0.8261232
vn -0.3395624 0.4496863 -0.8261232
vn -0.3395624 0.4496864 -0.8261232
vn -0.3271436 0.4827345 -0.8123696
vn 0.1077901 -0.4582023 -0.8822879
vn 0.1077901 -0.4582022 -0.8822879
vn 0.1077901 -0.4582023 -0.8822879
vn 0.1046853 -0.4555551 -0.8840308
vn 0.8202532 0.5189272 0.2406226
vn 0.8202532 0.5189272 0.2406226
vn 0.8202532 0.5189272 0.2406226
vn 0.817632 0.5326511 0.2185419
vn -0.8984991 0.1973777 -0.3920986
vn -0.8984991 0.1973777 -0.3920986
vn -0.8984991 0.1973778 -0.3920986
vn -0.9059435 0.1836152 -0.3815128
vn -0.7870795 -0.1683792 -0.5934259
vn -0.7870796 -0.1683792 -0.5934259
vn -0.7763435 -0.1758941 -0.6052703
vn -0.7870796 -0.1683792 -0.5934259
vn -0.8113439 -0.1761117 -0.5574099
vn -0.5499164 0.07638306 -0.8317196
vn -0.5499164 0.07638307 -0.8317196
vn -0.5499164 0.07638306 -0.8317196
vn -0.5481926 0.06116009 -0.8341129
vn -0.5481926 0.0611601 -0.8341129
vn 0.9843651 -0.0566151 -0.1667933
vn 0.9843651 -0.05661511 -0.1667933
vn 0.9843651 -0.05661511 -0.1667933
vn 0.9779077 -0.05716738 -0.2010679
vn 0.9779077 -0.05716738 -0.2010679
vn -0.2706661 -0.07693954 -0.9595938
vn -0.2706661 -0.07693953 -0.9595938
vn -0.2706661 -0.07693952 -0.9595937
vn -0.2726052 -0.08035503 -0.9587646
vn -0.2893267 0.1367223 -0.947416
vn -0.2893267 0.1367223 -0.947416
vn -0.2893267 0.1367223 -0.947416
vn -0.2700557 0.1019727 -0.9574296
g BeachBalls_Explode_Thin_00_Hull_0
f 3/3/3 2/2/2 1/1/1
f 6/6/6 5/5/5 4/4/4
f 9/9/9 8/8/8 7/7/7
f 12/12/12 11/11/11 10/10/10
f 15/15/15 14/14/14 13/13/13
f 18/18/18 17/17/17 16/16/16
f 21/21/21 20/20/20 19/19/19
f 24/24/24 23/23/23 22/22/22
f 27/27/27 26/26/26 25/25/25
f 30/30/30 29/29/29 28/28/28
f 33/33/33 32/32/32 31/31/31
f 36/36/36 35/35/35 34/34/34
f 39/39/39 38/38/38 37/37/37
f 42/42/42 41/41/41 40/40/40
f 45/45/45 44/44/44 43/43/43
f 48/48/48 47/47/47 46/46/46
f 51/51/51 50/50/50 49/49/49
f 54/54/54 53/53/53 52/52/52
f 57/57/57 56/56/56 55/55/55
f 60/60/60 59/59/59 58/58/58
f 63/63/63 62/62/62 61/61/61
f 66/66/66 65/65/65 64/64/64
f 69/69/69 68/68/68 67/67/67
f 72/72/72 71/71/71 70/70/70
f 75/75/75 74/74/74 73/73/73
f 78/78/78 77/77/77 76/76/76
f 81/81/81 80/80/80 79/79/79
f 84/84/84 83/83/83 82/82/82
f 87/87/87 86/86/86 85/85/85
f 90/90/90 89/89/89 88/88/88
f 93/93/93 92/92/92 91/91/91
f 96/96/96 95/95/95 94/94/94
f 99/99/99 98/98/98 97/97/97
f 102/102/102 101/101/101 100/100/100
f 105/105/105 104/104/104 103/103/103
f 108/108/108 107/107/107 106/106/106
f 111/111/111 110/110/110 109/109/109
f 114/114/114 113/113/113 112/112/112
f 114/114/114 112/112/112 115/115/115
f 118/118/118 117/117/117 116/116/116
f 117/117/117 118/118/118 119/119/119
f 122/122/122 121/121/121 120/120/120
f 121/121/121 122/122/122 123/123/123
f 126/126/126 125/125/125 124/124/124
f 125/125/125 127/127/127 124/124/124
f 130/130/130 129/129/129 128/128/128
f 128/128/128 129/129/129 131/131/131
f 134/134/134 133/133/133 132/132/132
f 133/133/133 135/135/135 132/132/132
f 135/135/135 133/133/133 136/136/136
f 139/139/139 138/138/138 137/137/137
f 137/137/137 138/138/138 140/140/140
f 141/141/141 137/137/137 140/140/140
f 144/144/144 143/143/143 142/142/142
f 142/142/142 143/143/143 145/145/145
f 146/146/146 142/142/142 145/145/145
f 149/149/149 148/148/148 147/147/147
f 148/148/148 150/150/150 147/147/147
f 153/153/153 152/152/152 151/151/151
f 152/152/152 154/154/154 151/151/151
