g BeachBalls_Explode_Thin_16_Hull
v 0.2299203 -0.1423958 -0.03703123
v 0.009749293 0.2456139 -0.166872
v 0.06894066 -0.2277063 0.1910533
v -0.02435599 -0.1587227 0.2655801
v 0.06894066 -0.2277063 0.1910533
v 0.009749293 0.2456139 -0.166872
v -0.1176018 0.1881479 0.1340366
v -0.02435599 -0.1587227 0.2655801
v 0.009749293 0.2456139 -0.166872
v 0.1312726 -0.2363614 0.143458
v 0.2299203 -0.1423958 -0.03703123
v 0.06894066 -0.2277063 0.1910533
v 0.2181272 -0.16476 0.02714598
v 0.1810249 -0.16476 0.09317287
v 0.2114597 -0.04900528 0.007581115
v 0.2181272 -0.16476 0.02714598
v 0.1312726 -0.2363614 0.143458
v 0.1810249 -0.16476 0.09317287
v 0.07953392 0.01241057 0.1665966
v 0.03723558 0.1006393 0.1321925
v 0.135366 0.04350246 0.09191728
v 0.01295248 0.2536861 -0.1333503
v -0.004989719 0.2237112 0.007581057
v -0.02130608 0.2473852 -0.03816481
v 0.0909023 0.1524034 0.007581057
v 0.1141916 0.1748669 -0.113916
v 0.1986479 0.078743 -0.06929515
v -0.05954401 0.1325702 0.1681947
v -0.0384072 0.02767819 0.2280119
v -0.1176018 0.1881479 0.1340366
v 0.08182646 -0.16476 0.2008175
v 0.1810249 -0.16476 0.09317287
v 0.1312726 -0.2363614 0.143458
v -0.02363931 -0.04626565 0.25136
v 0.07953392 0.01241057 0.1665966
v 0.07079783 -0.0853593 0.2008175
v -0.02363931 -0.04626565 0.25136
v -0.0384072 0.02767819 0.2280119
v 0.07953392 0.01241057 0.1665966
v 0.2392419 -0.141101 -0.03364148
v 0.2181272 -0.16476 0.02714598
v 0.2114597 -0.04900528 0.007581115
v 0.2392419 -0.141101 -0.03364148
v 0.2114597 -0.04900528 0.007581115
v 0.2300346 -0.04420458 -0.04839601
v 0.2392419 -0.141101 -0.03364148
v 0.2299203 -0.1423958 -0.03703123
v 0.1312726 -0.2363614 0.143458
v 0.2392419 -0.141101 -0.03364148
v 0.1312726 -0.2363614 0.143458
v 0.2181272 -0.16476 0.02714598
v 0.01571124 0.2536313 -0.1663874
v 0.009749293 0.2456139 -0.166872
v 0.2299203 -0.1423958 -0.03703123
v 0.01571124 0.2536313 -0.1663874
v 0.1141916 0.1748669 -0.113916
v 0.01295248 0.2536861 -0.1333503
v 0.01571124 0.2536313 -0.1663874
v 0.01295248 0.2536861 -0.1333503
v -0.02130608 0.2473852 -0.03816481
v 0.01571124 0.2536313 -0.1663874
v 0.2300346 -0.04420458 -0.04839601
v 0.1986479 0.078743 -0.06929515
v 0.01571124 0.2536313 -0.1663874
v 0.1986479 0.078743 -0.06929515
v 0.1141916 0.1748669 -0.113916
v 0.01571124 0.2536313 -0.1663874
v -0.1176018 0.1881479 0.1340366
v 0.009749293 0.2456139 -0.166872
v -0.02824613 0.1848578 0.09317283
v 0.03723558 0.1006393 0.1321925
v -0.05954401 0.1325702 0.1681947
v -0.02824613 0.1848578 0.09317283
v -0.05954401 0.1325702 0.1681947
v -0.1176018 0.1881479 0.1340366
v -0.02824613 0.1848578 0.09317283
v -0.004989719 0.2237112 0.007581057
v 0.0909023 0.1524034 0.007581057
v 0.07556791 -0.2286268 0.1984891
v 0.08182646 -0.16476 0.2008175
v 0.1312726 -0.2363614 0.143458
v 0.07556791 -0.2286268 0.1984891
v 0.03717697 -0.2006066 0.2297636
v 0.08182646 -0.16476 0.2008175
v 0.07556791 -0.2286268 0.1984891
v 0.1312726 -0.2363614 0.143458
v 0.06894066 -0.2277063 0.1910533
v -0.06357786 0.2251298 0.05149798
v -0.02824613 0.1848578 0.09317283
v -0.1176018 0.1881479 0.1340366
v -0.06357786 0.2251298 0.05149798
v -0.004989719 0.2237112 0.007581057
v -0.02824613 0.1848578 0.09317283
v -0.06357786 0.2251298 0.05149798
v -0.02130608 0.2473852 -0.03816481
v -0.004989719 0.2237112 0.007581057
v 0.1381496 -0.06795224 0.1321925
v 0.08182646 -0.16476 0.2008175
v 0.07079783 -0.0853593 0.2008175
v 0.1381496 -0.06795224 0.1321925
v 0.1810249 -0.16476 0.09317287
v 0.08182646 -0.16476 0.2008175
v 0.1381496 -0.06795224 0.1321925
v 0.07079783 -0.0853593 0.2008175
v 0.07953392 0.01241057 0.1665966
v 0.1381496 -0.06795224 0.1321925
v 0.07953392 0.01241057 0.1665966
v 0.135366 0.04350246 0.09191728
v 0.1774011 0.06569012 0.006716223
v 0.0909023 0.1524034 0.007581057
v 0.1986479 0.078743 -0.06929515
v 0.1774011 0.06569012 0.006716223
v 0.135366 0.04350246 0.09191728
v 0.0909023 0.1524034 0.007581057
v 0.1774011 0.06569012 0.006716223
v 0.2114597 -0.04900528 0.007581115
v 0.135366 0.04350246 0.09191728
v -0.0384072 0.02767819 0.2280119
v -0.02435599 -0.1587227 0.2655801
v -0.1176018 0.1881479 0.1340366
v -0.02363931 -0.04626565 0.25136
v 0.07953392 0.01241057 0.1665966
v -0.0384072 0.02767819 0.2280119
v 0.03723558 0.1006393 0.1321925
v -0.05954401 0.1325702 0.1681947
v 0.01295248 0.2536861 -0.1333503
v 0.1141916 0.1748669 -0.113916
v -0.004989719 0.2237112 0.007581057
v 0.0909023 0.1524034 0.007581057
v 0.0909023 0.1524034 0.007581057
v 0.135366 0.04350246 0.09191728
v 0.03723558 0.1006393 0.1321925
v -0.02824613 0.1848578 0.09317283
v -0.02363931 -0.04626565 0.25136
v 0.07079783 -0.0853593 0.2008175
v -0.02435599 -0.1587227 0.2655801
v 0.08182646 -0.16476 0.2008175
v 0.03717697 -0.2006066 0.2297636
v 0.03717697 -0.2006066 0.2297636
v 0.06894066 -0.2277063 0.1910533
v -0.02435599 -0.1587227 0.2655801
v 0.07556791 -0.2286268 0.1984891
v 0.01571124 0.2536313 -0.1663874
v 0.2392419 -0.141101 -0.03364148
v 0.2300346 -0.04420458 -0.04839601
v 0.2299203 -0.1423958 -0.03703123
v 0.01571124 0.2536313 -0.1663874
v -0.02130608 0.2473852 -0.03816481
v -0.1176018 0.1881479 0.1340366
v -0.06357786 0.2251298 0.05149798
v 0.1381496 -0.06795224 0.1321925
v 0.2114597 -0.04900528 0.007581115
v 0.1810249 -0.16476 0.09317287
v 0.135366 0.04350246 0.09191728
v 0.1774011 0.06569012 0.006716223
v 0.2300346 -0.04420458 -0.04839601
v 0.2114597 -0.04900528 0.007581115
v 0.1986479 0.078743 -0.06929515
vn -0.582718 -0.5352791 -0.6114868
vn -0.582718 -0.5352791 -0.6114868
vn -0.582718 -0.5352791 -0.6114868
vn -0.7363924 -0.4642465 -0.4921396
vn -0.7363924 -0.4642465 -0.4921396
vn -0.7363924 -0.4642465 -0.4921396
vn -0.8231173 -0.3809703 -0.421117
vn -0.8231173 -0.3809703 -0.421117
vn -0.8231173 -0.3809703 -0.421117
vn -0.5409968 -0.5876701 -0.6016363
vn -0.5409968 -0.5876701 -0.6016363
vn -0.5409969 -0.5876701 -0.6016363
vn 0.8641776 0.1318535 0.4856046
vn 0.8641776 0.1318535 0.4856046
vn 0.8641776 0.1318535 0.4856046
vn 0.8433821 -0.2531948 0.4739189
vn 0.843382 -0.2531947 0.4739189
vn 0.8433821 -0.2531948 0.4739189
vn 0.5656125 0.5205713 0.6395999
vn 0.5656125 0.5205713 0.6395999
vn 0.5656125 0.5205713 0.6395999
vn 0.517276 0.8213188 0.2405429
vn 0.517276 0.8213188 0.2405429
vn 0.517276 0.8213188 0.2405429
vn 0.6636704 0.7024561 0.2570937
vn 0.6636704 0.7024561 0.2570937
vn 0.6636704 0.7024561 0.2570937
vn -0.04583011 0.4878772 0.8717083
vn -0.04583012 0.4878773 0.8717083
vn -0.0458301 0.4878773 0.8717083
vn 0.7349167 -0.03502801 0.6772521
vn 0.7349167 -0.03502801 0.6772522
vn 0.7349167 -0.03502801 0.6772521
vn 0.5328206 0.2367545 0.8124343
vn 0.5328206 0.2367545 0.8124343
vn 0.5328206 0.2367545 0.8124343
vn 0.4679129 0.3497275 0.8116331
vn 0.4679129 0.3497275 0.8116331
vn 0.4679129 0.3497275 0.8116331
vn 0.923646 0.1149936 0.3655879
vn 0.923646 0.1149936 0.3655879
vn 0.923646 0.1149936 0.3655879
vn 0.9364157 0.1380987 0.322575
vn 0.9364157 0.1380987 0.3225749
vn 0.9364157 0.1380987 0.322575
vn 0.2486461 -0.9081216 -0.3368832
vn 0.2486461 -0.9081216 -0.3368831
vn 0.2486462 -0.9081216 -0.3368832
vn 0.4863724 -0.8580292 -0.1650083
vn 0.4863724 -0.8580292 -0.1650083
vn 0.4863724 -0.8580292 -0.1650083
vn 0.2850452 -0.1547952 -0.9459322
vn 0.2850452 -0.1547951 -0.9459322
vn 0.2850452 -0.1547951 -0.9459322
vn 0.6076418 0.7926717 0.0494273
vn 0.6076419 0.7926717 0.0494273
vn 0.6076418 0.7926717 0.0494273
vn -0.2383502 0.9709409 -0.02151281
vn -0.2383502 0.9709409 -0.02151281
vn -0.2383502 0.9709409 -0.02151281
vn 0.4375586 -0.04098675 -0.8982553
vn 0.4375586 -0.04098676 -0.8982553
vn 0.4375586 -0.04098675 -0.8982553
vn 0.4774291 0.01163436 -0.8785933
vn 0.4774291 0.01163436 -0.8785933
vn 0.4774291 0.01163436 -0.8785933
vn -0.777196 0.5910031 -0.2160595
vn -0.777196 0.5910031 -0.2160595
vn -0.777196 0.5910031 -0.2160595
vn 0.4444555 0.637262 0.6295686
vn 0.4444555 0.637262 0.6295686
vn 0.4444554 0.637262 0.6295686
vn 0.3132108 0.7128459 0.6274949
vn 0.3132108 0.7128459 0.6274949
vn 0.3132108 0.7128459 0.6274949
vn 0.5280317 0.7100769 0.4658039
vn 0.5280317 0.7100769 0.4658039
vn 0.5280317 0.7100769 0.4658039
vn 0.6930484 -0.09397237 0.7147399
vn 0.6930484 -0.09397237 0.7147399
vn 0.6930484 -0.09397237 0.7147399
vn 0.5902069 -0.08709555 0.8025399
vn 0.5902069 -0.08709555 0.8025399
vn 0.5902068 -0.08709554 0.8025398
vn -0.1375532 -0.9904944 -2.354209E-05
vn -0.1375532 -0.9904944 -2.354209E-05
vn -0.1375532 -0.9904944 -2.354209E-05
vn 0.2750582 0.7972994 0.5372679
vn 0.2750582 0.7972994 0.5372679
vn 0.2750582 0.7972994 0.5372679
vn 0.3683573 0.8047986 0.4654161
vn 0.3683573 0.8047986 0.4654161
vn 0.3683573 0.8047986 0.4654161
vn 0.2889053 0.8884166 0.3567207
vn 0.2889054 0.8884166 0.3567207
vn 0.2889054 0.8884166 0.3567207
vn 0.6979318 0.09694202 0.7095726
vn 0.6979318 0.09694203 0.7095727
vn 0.6979318 0.09694202 0.7095726
vn 0.734355 0.05247255 0.6767343
vn 0.734355 0.05247255 0.6767343
vn 0.734355 0.05247255 0.6767344
vn 0.6765217 0.1887032 0.7118353
vn 0.6765216 0.1887031 0.7118353
vn 0.6765217 0.1887032 0.7118353
vn 0.7222864 0.2509238 0.6444685
vn 0.7222864 0.2509238 0.6444685
vn 0.7222864 0.2509238 0.6444685
vn 0.6759429 0.6712373 0.3042069
vn 0.6759429 0.6712373 0.3042069
vn 0.6759428 0.6712373 0.3042069
vn 0.6269073 0.6206604 0.4709225
vn 0.6269073 0.6206604 0.4709225
vn 0.6269073 0.6206604 0.4709225
vn 0.8398526 0.2530142 0.4802411
vn 0.8398526 0.2530142 0.480241
vn 0.8398526 0.2530142 0.4802411
vn -0.673292 0.09697664 0.7329894
vn -0.673292 0.09697663 0.7329894
vn -0.6732921 0.09697664 0.7329894
vn -0.6732917 0.09697669 0.7329897
vn 0.4494655 0.5032729 0.7380359
vn 0.4494655 0.5032729 0.7380359
vn 0.4494655 0.5032729 0.738036
vn 0.4426266 0.5098566 0.7376503
vn 0.5673179 0.7878149 0.2397878
vn 0.5673179 0.7878149 0.2397878
vn 0.5673179 0.7878148 0.2397878
vn 0.5771324 0.7761056 0.2541226
vn 0.5793564 0.6336135 0.5127183
vn 0.5793564 0.6336135 0.5127183
vn 0.5793564 0.6336135 0.5127183
vn 0.5475919 0.6625442 0.5110561
vn 0.5027745 0.1052868 0.8579817
vn 0.5223391 0.07255252 0.8496458
vn 0.522339 0.07255252 0.8496458
vn 0.5223391 0.07255252 0.8496458
vn 0.5219065 0.03804019 0.852154
vn -0.4506144 -0.8616515 0.2334597
vn -0.4506144 -0.8616515 0.2334597
vn -0.4506144 -0.8616515 0.2334597
vn -0.4181484 -0.8688277 0.2651231
vn 0.3616647 -0.1066654 -0.9261864
vn 0.3616647 -0.1066654 -0.9261864
vn 0.3616647 -0.1066654 -0.9261864
vn 0.3533243 -0.112248 -0.9287423
vn -0.7257083 0.6648117 -0.1771238
vn -0.7257083 0.6648117 -0.1771238
vn -0.7257083 0.6648117 -0.1771238
vn -0.7257056 0.6648154 -0.1771207
vn 0.8394018 0.1627457 0.5185735
vn 0.8394018 0.1627457 0.5185736
vn 0.8394018 0.1627457 0.5185736
vn 0.8288181 0.2083466 0.5192806
vn 0.9062443 0.271551 0.3240083
vn 0.9062443 0.271551 0.3240082
vn 0.9062443 0.271551 0.3240083
vn 0.9097573 0.2837572 0.3030238
g BeachBalls_Explode_Thin_16_Hull_0
f 3/3/3 2/2/2 1/1/1
f 6/6/6 5/5/5 4/4/4
f 9/9/9 8/8/8 7/7/7
f 12/12/12 11/11/11 10/10/10
f 15/15/15 14/14/14 13/13/13
f 18/18/18 17/17/17 16/16/16
f 21/21/21 20/20/20 19/19/19
f 24/24/24 23/23/23 22/22/22
f 27/27/27 26/26/26 25/25/25
f 30/30/30 29/29/29 28/28/28
f 33/33/33 32/32/32 31/31/31
f 36/36/36 35/35/35 34/34/34
f 39/39/39 38/38/38 37/37/37
f 42/42/42 41/41/41 40/40/40
f 45/45/45 44/44/44 43/43/43
f 48/48/48 47/47/47 46/46/46
f 51/51/51 50/50/50 49/49/49
f 54/54/54 53/53/53 52/52/52
f 57/57/57 56/56/56 55/55/55
f 60/60/60 59/59/59 58/58/58
f 63/63/63 62/62/62 61/61/61
f 66/66/66 65/65/65 64/64/64
f 69/69/69 68/68/68 67/67/67
f 72/72/72 71/71/71 70/70/70
f 75/75/75 74/74/74 73/73/73
f 78/78/78 77/77/77 76/76/76
f 81/81/81 80/80/80 79/79/79
f 84/84/84 83/83/83 82/82/82
f 87/87/87 86/86/86 85/85/85
f 90/90/90 89/89/89 88/88/88
f 93/93/93 92/92/92 91/91/91
f 96/96/96 95/95/95 94/94/94
f 99/99/99 98/98/98 97/97/97
f 102/102/102 101/101/101 100/100/100
f 105/105/105 104/104/104 103/103/103
f 108/108/108 107/107/107 106/106/106
f 111/111/111 110/110/110 109/109/109
f 114/114/114 113/113/113 112/112/112
f 117/117/117 116/116/116 115/115/115
f 120/120/120 119/119/119 118/118/118
f 118/118/118 119/119/119 121/121/121
f 124/124/124 123/123/123 122/122/122
f 123/123/123 124/124/124 125/125/125
f 128/128/128 127/127/127 126/126/126
f 127/127/127 128/128/128 129/129/129
f 132/132/132 131/131/131 130/130/130
f 132/132/132 130/130/130 133/133/133
f 136/136/136 135/135/135 134/134/134
f 135/135/135 136/136/136 137/137/137
f 137/137/137 136/136/136 138/138/138
f 141/141/141 140/140/140 139/139/139
f 139/139/139 140/140/140 142/142/142
f 145/145/145 144/144/144 143/143/143
f 144/144/144 146/146/146 143/143/143
f 149/149/149 148/148/148 147/147/147
f 148/148/148 149/149/149 150/150/150
f 153/153/153 152/152/152 151/151/151
f 152/152/152 154/154/154 151/151/151
f 157/157/157 156/156/156 155/155/155
f 156/156/156 158/158/158 155/155/155
