g BeachBalls_Explode_Thin_01_Hull
v -0.114456 0.1350192 0.2399126
v -0.1830667 0.2207501 0.05739686
v 0.1946868 -0.1294023 0.2818048
v 0.1800289 -0.1975576 0.1563326
v 0.17326 -0.2176179 0.01220357
v 0.0568798 -0.1614222 0.108787
v -0.1613051 0.1310676 0.1559132
v -0.114456 0.1350192 0.2399126
v -0.07292009 0.04183428 0.2800988
v -0.1260259 0.01226058 0.1552572
v -0.1613051 0.1310676 0.1559132
v -0.07292009 0.04183428 0.2800988
v -0.1675072 0.1757195 0.1559132
v -0.1830667 0.2207501 0.05739686
v -0.114456 0.1350192 0.2399126
v -0.1675072 0.1757195 0.1559132
v -0.114456 0.1350192 0.2399126
v -0.1613051 0.1310676 0.1559132
v -0.1588343 0.1317062 -0.1385447
v -0.09699535 0.04666948 -0.2202553
v -0.1735882 0.1930867 -0.07195643
v -0.1588343 0.1317062 -0.1385447
v -0.1254778 0.01134491 -0.13085
v -0.09699535 0.04666948 -0.2202553
v -0.009762347 -0.05179067 -0.2211683
v -0.09699535 0.04666948 -0.2202553
v -0.1254778 0.01134491 -0.13085
v -0.05176586 -0.09230495 0.01220357
v -0.1453622 0.001492546 0.01220357
v -0.1260259 0.01226058 0.1552572
v -0.02469025 -0.06618933 0.2016588
v -0.07292009 0.04183428 0.2800988
v 0.09799545 -0.09273229 0.2966329
v -0.02469025 -0.06618933 0.2016588
v -0.1260259 0.01226058 0.1552572
v -0.07292009 0.04183428 0.2800988
v 0.01320137 -0.02964097 -0.2722655
v -0.009762347 -0.05179067 -0.2211683
v 0.1229214 -0.08359115 -0.2966398
v 0.01320137 -0.02964097 -0.2722655
v -0.09699535 0.04666948 -0.2202553
v -0.009762347 -0.05179067 -0.2211683
v -0.1940615 0.2108218 0.01220356
v -0.1735882 0.1930867 -0.07195643
v -0.1830667 0.2207501 0.05739686
v -0.1940615 0.2108218 0.01220356
v -0.1830667 0.2207501 0.05739686
v -0.1675072 0.1757195 0.1559132
v -0.1940615 0.2108218 0.01220356
v -0.1588343 0.1317062 -0.1385447
v -0.1735882 0.1930867 -0.07195643
v -0.1940615 0.2108218 0.01220356
v -0.1822326 0.1256589 0.01220356
v -0.1588343 0.1317062 -0.1385447
v 0.0520442 -0.1695008 0.01220357
v -0.05176586 -0.09230495 0.01220357
v 0.0568798 -0.1614222 0.108787
v 0.0520442 -0.1695008 0.01220357
v 0.0568798 -0.1614222 0.108787
v 0.17326 -0.2176179 0.01220357
v 0.1406335 -0.09096088 -0.2791588
v -0.1735882 0.1930867 -0.07195643
v 0.1229214 -0.08359115 -0.2966398
v 0.1406335 -0.09096088 -0.2791588
v -0.1830667 0.2207501 0.05739686
v -0.1735882 0.1930867 -0.07195643
v 0.1406335 -0.09096088 -0.2791588
v 0.1946868 -0.1294023 0.2818048
v -0.1830667 0.2207501 0.05739686
v 0.1521267 -0.1477824 -0.2211683
v 0.1406335 -0.09096088 -0.2791588
v 0.1229214 -0.08359115 -0.2966398
v 0.1521267 -0.1477824 -0.2211683
v 0.06288356 -0.1513921 -0.1315061
v 0.1682362 -0.1932122 -0.1315061
v 0.1848197 -0.2084217 -0.02155176
v 0.1946868 -0.1294023 0.2818048
v 0.1406335 -0.09096088 -0.2791588
v 0.1848197 -0.2084217 -0.02155176
v 0.17326 -0.2176179 0.01220357
v 0.1800289 -0.1975576 0.1563326
v 0.1848197 -0.2084217 -0.02155176
v 0.1682362 -0.1932122 -0.1315061
v 0.17326 -0.2176179 0.01220357
v 0.1864377 -0.1614023 0.2455754
v 0.09799545 -0.09273229 0.2966329
v 0.1946868 -0.1294023 0.2818048
v 0.07120097 -0.1374966 0.2016588
v 0.1800289 -0.1975576 0.1563326
v 0.0568798 -0.1614222 0.108787
v 0.07120097 -0.1374966 0.2016588
v 0.1864377 -0.1614023 0.2455754
v 0.1800289 -0.1975576 0.1563326
v 0.07120097 -0.1374966 0.2016588
v 0.09799545 -0.09273229 0.2966329
v 0.1864377 -0.1614023 0.2455754
v 0.07120097 -0.1374966 0.2016588
v -0.02469025 -0.06618933 0.2016588
v 0.09799545 -0.09273229 0.2966329
v 0.07120097 -0.1374966 0.2016588
v 0.0568798 -0.1614222 0.108787
v -0.02469025 -0.06618933 0.2016588
v -0.04493133 -0.08571272 -0.08437986
v 0.0520442 -0.1695008 0.01220357
v 0.06288356 -0.1513921 -0.1315061
v -0.04493133 -0.08571272 -0.08437986
v -0.05176586 -0.09230495 0.01220357
v 0.0520442 -0.1695008 0.01220357
v -0.04493133 -0.08571272 -0.08437986
v -0.1254778 0.01134491 -0.13085
v -0.1453622 0.001492546 0.01220357
v -0.04493133 -0.08571272 -0.08437986
v -0.1453622 0.001492546 0.01220357
v -0.05176586 -0.09230495 0.01220357
v -0.04493133 -0.08571272 -0.08437986
v -0.009762347 -0.05179067 -0.2211683
v -0.1254778 0.01134491 -0.13085
v -0.04493133 -0.08571272 -0.08437986
v 0.06288356 -0.1513921 -0.1315061
v -0.009762347 -0.05179067 -0.2211683
v -0.114456 0.1350192 0.2399126
v 0.1946868 -0.1294023 0.2818048
v 0.09799545 -0.09273229 0.2966329
v -0.07292009 0.04183428 0.2800988
v 0.1682362 -0.1932122 -0.1315061
v 0.06288356 -0.1513921 -0.1315061
v 0.17326 -0.2176179 0.01220357
v 0.0520442 -0.1695008 0.01220357
v -0.1260259 0.01226058 0.1552572
v -0.1453622 0.001492546 0.01220357
v -0.1613051 0.1310676 0.1559132
v -0.1822326 0.1256589 0.01220356
v -0.009762347 -0.05179067 -0.2211683
v 0.06288356 -0.1513921 -0.1315061
v 0.1229214 -0.08359115 -0.2966398
v 0.1521267 -0.1477824 -0.2211683
v -0.1822326 0.1256589 0.01220356
v -0.1453622 0.001492546 0.01220357
v -0.1254778 0.01134491 -0.13085
v -0.1588343 0.1317062 -0.1385447
v -0.1822326 0.1256589 0.01220356
v -0.1675072 0.1757195 0.1559132
v -0.1613051 0.1310676 0.1559132
v -0.1940615 0.2108218 0.01220356
v -0.02469025 -0.06618933 0.2016588
v -0.05176586 -0.09230495 0.01220357
v -0.1260259 0.01226058 0.1552572
v 0.0568798 -0.1614222 0.108787
v 0.01320137 -0.02964097 -0.2722655
v -0.1735882 0.1930867 -0.07195643
v -0.09699535 0.04666948 -0.2202553
v 0.1229214 -0.08359115 -0.2966398
v 0.1521267 -0.1477824 -0.2211683
v 0.1682362 -0.1932122 -0.1315061
v 0.1406335 -0.09096088 -0.2791588
v 0.1848197 -0.2084217 -0.02155176
v 0.1848197 -0.2084217 -0.02155176
v 0.1800289 -0.1975576 0.1563326
v 0.1946868 -0.1294023 0.2818048
v 0.1864377 -0.1614023 0.2455754
vn 0.6360127 0.762441 0.1190445
vn 0.6360127 0.762441 0.1190445
vn 0.6360128 0.762441 0.1190445
vn -0.3298126 -0.9327948 0.1453186
vn -0.3298127 -0.9327948 0.1453186
vn -0.3298127 -0.9327948 0.1453186
vn -0.8568119 -0.1723329 0.4859782
vn -0.8568119 -0.1723329 0.4859782
vn -0.8568119 -0.1723329 0.4859781
vn -0.8650949 -0.2592572 0.4294142
vn -0.8650949 -0.2592571 0.4294142
vn -0.8650949 -0.2592572 0.4294142
vn 0.05280313 0.9113513 0.4082287
vn 0.05280313 0.9113513 0.4082286
vn 0.05280313 0.9113513 0.4082286
vn -0.8646144 -0.1200938 0.4878724
vn -0.8646144 -0.1200938 0.4878724
vn -0.8646144 -0.1200938 0.4878724
vn 0.1651042 0.7431438 -0.6484426
vn 0.1651042 0.7431438 -0.6484426
vn 0.1651042 0.7431439 -0.6484426
vn -0.8818111 -0.2691396 -0.3872637
vn -0.8818111 -0.2691396 -0.3872637
vn -0.8818111 -0.2691396 -0.3872637
vn -0.6714816 -0.5907662 -0.4473341
vn -0.6714816 -0.5907662 -0.4473341
vn -0.6714816 -0.5907661 -0.4473341
vn -0.7001518 -0.6986498 0.1472274
vn -0.7001518 -0.6986499 0.1472274
vn -0.7001518 -0.6986498 0.1472275
vn -0.55336 -0.636873 0.5368292
vn -0.55336 -0.636873 0.5368292
vn -0.55336 -0.636873 0.5368292
vn -0.6675881 -0.6090342 0.4282563
vn -0.6675881 -0.6090342 0.4282563
vn -0.6675881 -0.6090342 0.4282563
vn -0.4671476 -0.7151443 -0.5199441
vn -0.4671476 -0.7151443 -0.5199441
vn -0.4671476 -0.7151443 -0.519944
vn -0.6375144 -0.5599129 -0.5292191
vn -0.6375145 -0.5599129 -0.5292191
vn -0.6375145 -0.5599129 -0.5292191
vn -0.01799054 0.9774591 -0.210357
vn -0.01799054 0.9774591 -0.210357
vn -0.01799054 0.9774591 -0.210357
vn -0.970198 0.1223503 0.2091561
vn -0.970198 0.1223503 0.2091561
vn -0.970198 0.1223503 0.2091561
vn -0.9697868 0.02959275 -0.242153
vn -0.9697868 0.02959275 -0.242153
vn -0.9697868 0.02959275 -0.242153
vn -0.9781643 -0.1358646 -0.1572753
vn -0.9781643 -0.1358646 -0.1572754
vn -0.9781642 -0.1358646 -0.1572754
vn -0.5939342 -0.7987 0.09654257
vn -0.5939341 -0.7987001 0.09654256
vn -0.5939341 -0.7987001 0.09654256
vn -0.3672526 -0.9251773 0.09577246
vn -0.3672526 -0.9251773 0.09577245
vn -0.3672526 -0.9251773 0.09577245
vn 0.5619466 0.7930827 -0.2350236
vn 0.5619465 0.7930827 -0.2350236
vn 0.5619465 0.7930827 -0.2350236
vn 0.6209662 0.7745744 -0.1201481
vn 0.6209662 0.7745744 -0.1201481
vn 0.6209663 0.7745744 -0.1201481
vn 0.6848348 0.7285212 -0.01606552
vn 0.6848347 0.7285212 -0.01606551
vn 0.6848347 0.7285212 -0.01606552
vn 0.4157953 -0.6070412 -0.6772115
vn 0.4157953 -0.6070412 -0.6772115
vn 0.4157954 -0.6070412 -0.6772115
vn -0.3420096 -0.8615866 -0.3750972
vn -0.3420096 -0.8615866 -0.3750972
vn -0.3420096 -0.8615866 -0.3750972
vn 0.9784476 0.189829 -0.08127272
vn 0.9784476 0.189829 -0.08127274
vn 0.9784476 0.189829 -0.08127273
vn 0.7250485 -0.6859535 0.06142115
vn 0.7250484 -0.6859535 0.06142114
vn 0.7250484 -0.6859535 0.06142114
vn 0.2585055 -0.9508415 -0.1705146
vn 0.2585055 -0.9508415 -0.1705146
vn 0.2585055 -0.9508415 -0.1705146
vn -0.1694239 -0.7192069 0.6738228
vn -0.1694239 -0.7192069 0.6738228
vn -0.1694239 -0.7192069 0.6738228
vn -0.3695073 -0.8844936 0.2848427
vn -0.3695073 -0.8844936 0.2848427
vn -0.3695074 -0.8844936 0.2848427
vn -0.3232083 -0.8687779 0.3751819
vn -0.3232083 -0.8687779 0.3751819
vn -0.3232083 -0.8687779 0.3751819
vn -0.3494238 -0.805675 0.4783209
vn -0.3494238 -0.805675 0.4783209
vn -0.3494238 -0.805675 0.4783209
vn -0.5236139 -0.7041358 0.4796054
vn -0.5236139 -0.7041357 0.4796053
vn -0.5236139 -0.7041358 0.4796054
vn -0.5717531 -0.7688714 0.2862432
vn -0.571753 -0.7688715 0.2862432
vn -0.5717531 -0.7688714 0.2862432
vn -0.5602142 -0.8155543 -0.1450215
vn -0.5602142 -0.8155543 -0.1450215
vn -0.5602142 -0.8155543 -0.1450215
vn -0.593934 -0.7987001 -0.09654331
vn -0.593934 -0.7987001 -0.09654331
vn -0.593934 -0.7987001 -0.09654331
vn -0.7253848 -0.6724334 -0.1471397
vn -0.7253848 -0.6724334 -0.1471397
vn -0.7253848 -0.6724335 -0.1471397
vn -0.70447 -0.7029589 -0.09783039
vn -0.70447 -0.7029589 -0.09783039
vn -0.70447 -0.7029589 -0.09783039
vn -0.6394908 -0.6915323 -0.3359087
vn -0.6394907 -0.6915322 -0.3359087
vn -0.6394907 -0.6915322 -0.3359087
vn -0.5925577 -0.7329673 -0.3341174
vn -0.5925577 -0.7329673 -0.3341174
vn -0.5925577 -0.7329673 -0.3341174
vn 0.3115228 0.4929178 0.8123949
vn 0.3115228 0.4929178 0.8123949
vn 0.3115228 0.4929178 0.8123949
vn 0.3056845 0.4886609 0.8171705
vn -0.3651325 -0.9198374 -0.1434483
vn -0.3651325 -0.9198374 -0.1434483
vn -0.3651325 -0.9198374 -0.1434483
vn -0.3651328 -0.9198373 -0.143448
vn -0.9476535 -0.2822261 0.1493364
vn -0.9476535 -0.2822261 0.1493364
vn -0.9476535 -0.2822261 0.1493364
vn -0.9479794 -0.2814967 0.1486426
vn -0.4510235 -0.7560033 -0.4743805
vn -0.4510235 -0.7560033 -0.4743805
vn -0.4510235 -0.7560033 -0.4743805
vn -0.4453301 -0.7597123 -0.4738335
vn -0.9476226 -0.2813907 -0.1510987
vn -0.9476226 -0.2813907 -0.1510987
vn -0.9476226 -0.2813907 -0.1510987
vn -0.9488863 -0.2730868 -0.1582357
vn -0.9796162 -0.1360674 0.1477762
vn -0.9796162 -0.1360674 0.1477762
vn -0.9796162 -0.1360674 0.1477762
vn -0.9796164 -0.1360663 0.1477758
vn -0.6545674 -0.7306197 0.1942591
vn -0.6545674 -0.7306197 0.1942591
vn -0.6545674 -0.7306197 0.1942591
vn -0.643526 -0.7404227 0.1940325
vn 0.2243103 0.7489083 -0.6235554
vn 0.2243103 0.7489083 -0.6235554
vn 0.2243103 0.7489083 -0.6235554
vn 0.23169 0.7507076 -0.6186745
vn 0.9867291 0.03862526 -0.1577138
vn 0.9867291 0.03862526 -0.1577138
vn 0.9867291 0.03862526 -0.1577138
vn 0.9880394 0.06439881 -0.1401103
vn 0.9574114 -0.2854739 0.04322014
vn 0.9574114 -0.2854739 0.04322014
vn 0.9574114 -0.2854739 0.04322013
vn 0.9491917 -0.3094551 0.05720679
g BeachBalls_Explode_Thin_01_Hull_0
f 3/3/3 2/2/2 1/1/1
f 6/6/6 5/5/5 4/4/4
f 9/9/9 8/8/8 7/7/7
f 12/12/12 11/11/11 10/10/10
f 15/15/15 14/14/14 13/13/13
f 18/18/18 17/17/17 16/16/16
f 21/21/21 20/20/20 19/19/19
f 24/24/24 23/23/23 22/22/22
f 27/27/27 26/26/26 25/25/25
f 30/30/30 29/29/29 28/28/28
f 33/33/33 32/32/32 31/31/31
f 36/36/36 35/35/35 34/34/34
f 39/39/39 38/38/38 37/37/37
f 42/42/42 41/41/41 40/40/40
f 45/45/45 44/44/44 43/43/43
f 48/48/48 47/47/47 46/46/46
f 51/51/51 50/50/50 49/49/49
f 54/54/54 53/53/53 52/52/52
f 57/57/57 56/56/56 55/55/55
f 60/60/60 59/59/59 58/58/58
f 63/63/63 62/62/62 61/61/61
f 66/66/66 65/65/65 64/64/64
f 69/69/69 68/68/68 67/67/67
f 72/72/72 71/71/71 70/70/70
f 75/75/75 74/74/74 73/73/73
f 78/78/78 77/77/77 76/76/76
f 81/81/81 80/80/80 79/79/79
f 84/84/84 83/83/83 82/82/82
f 87/87/87 86/86/86 85/85/85
f 90/90/90 89/89/89 88/88/88
f 93/93/93 92/92/92 91/91/91
f 96/96/96 95/95/95 94/94/94
f 99/99/99 98/98/98 97/97/97
f 102/102/102 101/101/101 100/100/100
f 105/105/105 104/104/104 103/103/103
f 108/108/108 107/107/107 106/106/106
f 111/111/111 110/110/110 109/109/109
f 114/114/114 113/113/113 112/112/112
f 117/117/117 116/116/116 115/115/115
f 120/120/120 119/119/119 118/118/118
f 123/123/123 122/122/122 121/121/121
f 124/124/124 123/123/123 121/121/121
f 127/127/127 126/126/126 125/125/125
f 126/126/126 127/127/127 128/128/128
f 131/131/131 130/130/130 129/129/129
f 130/130/130 131/131/131 132/132/132
f 135/135/135 134/134/134 133/133/133
f 134/134/134 135/135/135 136/136/136
f 139/139/139 138/138/138 137/137/137
f 140/140/140 139/139/139 137/137/137
f 143/143/143 142/142/142 141/141/141
f 141/141/141 142/142/142 144/144/144
f 147/147/147 146/146/146 145/145/145
f 146/146/146 148/148/148 145/145/145
f 151/151/151 150/150/150 149/149/149
f 150/150/150 152/152/152 149/149/149
f 155/155/155 154/154/154 153/153/153
f 154/154/154 155/155/155 156/156/156
f 159/159/159 158/158/158 157/157/157
f 158/158/158 159/159/159 160/160/160
