g BeachBalls_Explode_Thin_13_Hull
v -0.02594838 0.1189202 -0.191186
v -0.003151929 0.1196388 -0.1659161
v -0.07507424 0.2127347 -0.135606
v -0.03002557 0.225909 0.01790845
v -0.107905 0.2399389 -0.1031885
v -0.08501834 0.2474933 -0.07731634
v -0.03002557 0.225909 0.01790845
v 0.03486562 0.1527754 0.1468071
v -0.107905 0.2399389 -0.1031885
v 0.06582817 -0.1003242 -0.1230634
v 0.1017133 -0.1003242 0.01787153
v 0.07740015 0.02257959 -0.03018863
v 0.04123827 0.144359 -0.02974769
v 0.04986483 0.1491629 0.06639792
v -0.03002557 0.225909 0.01790845
v 0.04123827 0.144359 -0.02974769
v -0.03002557 0.225909 0.01790845
v -0.08501834 0.2474933 -0.07731634
v 0.003601777 0.003506433 -0.2103684
v -0.02594838 0.1189202 -0.191186
v 0.01481308 -0.1003242 -0.2146252
v 0.003601777 0.003506433 -0.2103684
v -0.003151929 0.1196388 -0.1659161
v -0.02594838 0.1189202 -0.191186
v 0.04974959 0.01543334 -0.1230634
v -0.003151929 0.1196388 -0.1659161
v 0.003601777 0.003506433 -0.2103684
v 0.04974959 0.01543334 -0.1230634
v 0.06582817 -0.1003242 -0.1230634
v 0.07740015 0.02257959 -0.03018863
v -0.102275 0.24751 -0.1065119
v -0.07507424 0.2127347 -0.135606
v -0.08501834 0.2474933 -0.07731634
v -0.102275 0.24751 -0.1065119
v -0.08501834 0.2474933 -0.07731634
v -0.107905 0.2399389 -0.1031885
v -0.004115369 -0.2450261 -0.1840304
v 0.05577583 -0.2176393 -0.1058966
v 0.004065029 -0.2475184 -0.18922
v -0.004115369 -0.2450261 -0.1840304
v -0.02594838 0.1189202 -0.191186
v -0.107905 0.2399389 -0.1031885
v -0.004115369 -0.2450261 -0.1840304
v 0.004065029 -0.2475184 -0.18922
v 0.01481308 -0.1003242 -0.2146252
v -0.004115369 -0.2450261 -0.1840304
v 0.01481308 -0.1003242 -0.2146252
v -0.02594838 0.1189202 -0.191186
v 0.06821048 -0.07795946 0.2112458
v -0.004115369 -0.2450261 -0.1840304
v -0.107905 0.2399389 -0.1031885
v 0.06821048 -0.07795946 0.2112458
v 0.07753233 -0.07666465 0.2146356
v 0.09834538 -0.124572 0.1149243
v 0.06821048 -0.07795946 0.2112458
v 0.06832498 0.02023413 0.1998808
v 0.07753233 -0.07666465 0.2146356
v 0.05258669 0.0467429 0.1888293
v -0.107905 0.2399389 -0.1031885
v 0.03486562 0.1527754 0.1468071
v 0.05258669 0.0467429 0.1888293
v 0.06821048 -0.07795946 0.2112458
v -0.107905 0.2399389 -0.1031885
v 0.05258669 0.0467429 0.1888293
v 0.03486562 0.1527754 0.1468071
v 0.06832498 0.02023413 0.1998808
v 0.05258669 0.0467429 0.1888293
v 0.06832498 0.02023413 0.1998808
v 0.06821048 -0.07795946 0.2112458
v 0.09447132 -0.1003242 0.1629845
v 0.06832498 0.02023413 0.1998808
v 0.0843912 0.02438643 0.1149243
v 0.09447132 -0.1003242 0.1629845
v 0.07753233 -0.07666465 0.2146356
v 0.06832498 0.02023413 0.1998808
v 0.09447132 -0.1003242 0.1629845
v 0.09834538 -0.124572 0.1149243
v 0.07753233 -0.07666465 0.2146356
v 0.0429855 0.1453319 0.149603
v 0.06832498 0.02023413 0.1998808
v 0.03486562 0.1527754 0.1468071
v 0.0429855 0.1453319 0.149603
v 0.0843912 0.02438643 0.1149243
v 0.06832498 0.02023413 0.1998808
v 0.0293569 -0.2108113 -0.1669815
v 0.06582817 -0.1003242 -0.1230634
v 0.01481308 -0.1003242 -0.2146252
v 0.0293569 -0.2108113 -0.1669815
v 0.05577583 -0.2176393 -0.1058966
v 0.06582817 -0.1003242 -0.1230634
v 0.0293569 -0.2108113 -0.1669815
v 0.01481308 -0.1003242 -0.2146252
v 0.004065029 -0.2475184 -0.18922
v 0.0293569 -0.2108113 -0.1669815
v 0.004065029 -0.2475184 -0.18922
v 0.05577583 -0.2176393 -0.1058966
v 0.01514201 0.1310474 -0.1221985
v -0.003151929 0.1196388 -0.1659161
v 0.04974959 0.01543334 -0.1230634
v 0.01514201 0.1310474 -0.1221985
v -0.07507424 0.2127347 -0.135606
v -0.003151929 0.1196388 -0.1659161
v 0.1041428 -0.1003242 0.06639792
v 0.09834538 -0.124572 0.1149243
v 0.09447132 -0.1003242 0.1629845
v 0.1041428 -0.1003242 0.06639792
v 0.09447132 -0.1003242 0.1629845
v 0.0843912 0.02438643 0.1149243
v 0.1041428 -0.1003242 0.06639792
v 0.1017133 -0.1003242 0.01787153
v 0.09240324 -0.1673521 0.01787153
v 0.1041428 -0.1003242 0.06639792
v 0.09240324 -0.1673521 0.01787153
v 0.09834538 -0.124572 0.1149243
v 0.08673662 0.0249926 0.06639792
v 0.1041428 -0.1003242 0.06639792
v 0.0843912 0.02438643 0.1149243
v 0.08673662 0.0249926 0.06639792
v 0.1017133 -0.1003242 0.01787153
v 0.1041428 -0.1003242 0.06639792
v 0.08673662 0.0249926 0.06639792
v 0.07740015 0.02257959 -0.03018863
v 0.1017133 -0.1003242 0.01787153
v -0.107905 0.2399389 -0.1031885
v -0.02594838 0.1189202 -0.191186
v -0.07507424 0.2127347 -0.135606
v -0.102275 0.24751 -0.1065119
v 0.05577583 -0.2176393 -0.1058966
v 0.09240324 -0.1673521 0.01787153
v 0.1017133 -0.1003242 0.01787153
v 0.06582817 -0.1003242 -0.1230634
v 0.04123827 0.144359 -0.02974769
v 0.07740015 0.02257959 -0.03018863
v 0.04986483 0.1491629 0.06639792
v 0.08673662 0.0249926 0.06639792
v 0.003601777 0.003506433 -0.2103684
v 0.01481308 -0.1003242 -0.2146252
v 0.06582817 -0.1003242 -0.1230634
v 0.04974959 0.01543334 -0.1230634
v 0.04974959 0.01543334 -0.1230634
v 0.07740015 0.02257959 -0.03018863
v 0.04123827 0.144359 -0.02974769
v 0.01514201 0.1310474 -0.1221985
v -0.004115369 -0.2450261 -0.1840304
v 0.09240324 -0.1673521 0.01787153
v 0.05577583 -0.2176393 -0.1058966
v 0.06821048 -0.07795946 0.2112458
v 0.09834538 -0.124572 0.1149243
v 0.0429855 0.1453319 0.149603
v 0.04986483 0.1491629 0.06639792
v 0.0843912 0.02438643 0.1149243
v 0.08673662 0.0249926 0.06639792
v 0.0429855 0.1453319 0.149603
v -0.03002557 0.225909 0.01790845
v 0.04986483 0.1491629 0.06639792
v 0.03486562 0.1527754 0.1468071
v 0.01514201 0.1310474 -0.1221985
v -0.08501834 0.2474933 -0.07731634
v -0.07507424 0.2127347 -0.135606
v 0.04123827 0.144359 -0.02974769
vn 0.5746502 0.6184597 -0.5359895
vn 0.5746502 0.6184597 -0.5359895
vn 0.5746502 0.6184597 -0.5359895
vn -0.7337999 0.4344931 0.522258
vn -0.7337999 0.4344931 0.522258
vn -0.7337999 0.4344931 0.522258
vn -0.8014886 0.2479624 0.5441788
vn -0.8014886 0.2479624 0.5441788
vn -0.8014886 0.2479624 0.5441788
vn 0.9647161 0.09478875 -0.2456379
vn 0.9647161 0.09478875 -0.2456379
vn 0.9647161 0.09478875 -0.2456379
vn 0.7199466 0.6869438 -0.09891985
vn 0.7199466 0.6869438 -0.09891985
vn 0.7199466 0.6869438 -0.09891985
vn 0.6657156 0.7120904 -0.2230472
vn 0.6657156 0.7120904 -0.2230472
vn 0.6657156 0.7120904 -0.2230472
vn -0.645242 -0.03838908 -0.7630131
vn -0.645242 -0.03838908 -0.7630131
vn -0.645242 -0.03838908 -0.7630131
vn 0.7068838 0.2883386 -0.6458918
vn 0.7068838 0.2883386 -0.6458918
vn 0.7068838 0.2883386 -0.6458918
vn 0.8463495 0.2326228 -0.4791441
vn 0.8463495 0.2326228 -0.479144
vn 0.8463495 0.2326228 -0.479144
vn 0.9472793 0.1315759 -0.2921468
vn 0.9472793 0.1315759 -0.2921468
vn 0.9472793 0.1315759 -0.2921469
vn 0.5795876 0.739601 -0.3421528
vn 0.5795876 0.739601 -0.3421528
vn 0.5795876 0.739601 -0.3421528
vn -0.6513964 0.653569 0.3853961
vn -0.6513964 0.6535691 0.3853961
vn -0.6513964 0.6535691 0.3853961
vn -0.0514727 -0.929485 0.3652506
vn -0.0514727 -0.929485 0.3652506
vn -0.05147271 -0.929485 0.3652507
vn -0.7694769 -0.05866478 -0.6359746
vn -0.7694769 -0.05866477 -0.6359746
vn -0.7694769 -0.05866477 -0.6359746
vn -0.5548751 -0.1019889 -0.8256584
vn -0.5548751 -0.1019889 -0.8256584
vn -0.5548751 -0.1019889 -0.8256584
vn -0.707778 -0.05630462 -0.7041876
vn -0.707778 -0.05630462 -0.7041875
vn -0.707778 -0.05630462 -0.7041876
vn -0.9301933 -0.2446867 0.2736214
vn -0.9301933 -0.2446867 0.2736214
vn -0.9301933 -0.2446867 0.2736214
vn -0.0300705 -0.9033891 0.4277662
vn -0.03007051 -0.9033891 0.4277662
vn -0.03007051 -0.9033891 0.4277663
vn -0.3529574 0.1079802 0.9293876
vn -0.3529574 0.1079802 0.9293876
vn -0.3529574 0.1079802 0.9293876
vn -0.8578726 0.058932 0.5104719
vn -0.8578726 0.058932 0.5104719
vn -0.8578726 0.058932 0.5104719
vn -0.88337 -0.02656222 0.467923
vn -0.88337 -0.02656221 0.467923
vn -0.88337 -0.02656221 0.467923
vn -0.04494025 0.3615623 0.9312643
vn -0.04494024 0.3615623 0.9312643
vn -0.04494024 0.3615623 0.9312643
vn -0.4492628 0.1032346 0.8874151
vn -0.4492628 0.1032346 0.8874151
vn -0.4492628 0.1032346 0.8874151
vn 0.9697962 0.1519255 0.1908247
vn 0.9697962 0.1519255 0.1908247
vn 0.9697962 0.1519255 0.1908247
vn 0.9582422 0.1298474 0.254777
vn 0.9582422 0.1298474 0.254777
vn 0.9582422 0.1298474 0.254777
vn 0.1644209 -0.8752595 0.454848
vn 0.1644209 -0.8752595 0.454848
vn 0.1644209 -0.8752595 0.454848
vn 0.0273921 0.3775479 0.9255847
vn 0.0273921 0.3775479 0.9255847
vn 0.0273921 0.377548 0.9255847
vn 0.9440912 0.268258 0.1916494
vn 0.9440912 0.268258 0.1916494
vn 0.9440912 0.268258 0.1916494
vn 0.869653 -0.09446583 -0.4845407
vn 0.869653 -0.09446582 -0.4845407
vn 0.869653 -0.09446582 -0.4845407
vn 0.9035375 -0.1368419 -0.4060719
vn 0.9035375 -0.1368419 -0.4060719
vn 0.9035375 -0.1368419 -0.4060719
vn 0.7737917 -0.162187 -0.6123251
vn 0.7737917 -0.162187 -0.6123251
vn 0.7737916 -0.162187 -0.6123251
vn 0.8489073 -0.3394903 -0.4050961
vn 0.8489073 -0.3394903 -0.4050961
vn 0.8489073 -0.3394903 -0.4050961
vn 0.8640636 0.2618625 -0.4299094
vn 0.8640636 0.2618625 -0.4299094
vn 0.8640636 0.2618625 -0.4299094
vn 0.639449 0.6350924 -0.4333158
vn 0.639449 0.6350924 -0.4333158
vn 0.6394489 0.6350924 -0.4333158
vn 0.9942872 -0.03847709 0.09956089
vn 0.9942872 -0.03847709 0.09956089
vn 0.9942872 -0.03847709 0.09956089
vn 0.9880733 0.1179924 0.0989387
vn 0.9880733 0.1179924 0.0989387
vn 0.9880733 0.1179924 0.09893869
vn 0.9892754 -0.1374089 -0.0495287
vn 0.9892754 -0.1374089 -0.0495287
vn 0.9892754 -0.1374089 -0.0495287
vn 0.9817777 -0.1886314 0.02303694
vn 0.9817777 -0.1886314 0.02303694
vn 0.9817777 -0.1886314 0.02303695
vn 0.9892754 0.1374079 0.04953097
vn 0.9892754 0.1374079 0.04953096
vn 0.9892754 0.1374079 0.04953097
vn 0.9892755 0.1374079 -0.0495287
vn 0.9892755 0.1374079 -0.0495287
vn 0.9892755 0.1374079 -0.0495287
vn 0.9828327 0.1557544 -0.09889603
vn 0.9828327 0.1557544 -0.09889602
vn 0.9828327 0.1557544 -0.09889602
vn -0.6561006 0.09962443 -0.7480689
vn -0.6561006 0.09962444 -0.7480689
vn -0.6561006 0.09962444 -0.7480689
vn -0.635183 0.1388266 -0.7597827
vn 0.9637448 -0.1338628 -0.2308178
vn 0.9637448 -0.1338628 -0.2308178
vn 0.9637448 -0.1338628 -0.2308178
vn 0.9622735 -0.1183074 -0.2450161
vn 0.9537492 0.283573 -0.09974294
vn 0.9537492 0.283573 -0.09974295
vn 0.9537492 0.283573 -0.09974295
vn 0.9538921 0.2832537 -0.09928381
vn 0.8679106 0.1135396 -0.4835699
vn 0.8679106 0.1135396 -0.4835699
vn 0.8679106 0.1135396 -0.48357
vn 0.8706813 0.1209365 -0.4767477
vn 0.9160489 0.2730805 -0.2937371
vn 0.9160489 0.2730805 -0.2937371
vn 0.9160489 0.2730805 -0.2937371
vn 0.9139519 0.2758069 -0.2976952
vn -0.1078253 -0.9095135 0.4014459
vn -0.1078253 -0.9095135 0.4014459
vn -0.1078253 -0.9095135 0.4014459
vn -0.1046581 -0.9076417 0.406489
vn -0.1046581 -0.9076417 0.406489
vn 0.9498665 0.298725 0.09228826
vn 0.9498665 0.2987251 0.09228826
vn 0.9498665 0.2987251 0.09228826
vn 0.9574378 0.2843066 0.04982718
vn 0.6614126 0.7447262 0.08897421
vn 0.6614125 0.7447261 0.0889742
vn 0.6614125 0.7447261 0.0889742
vn 0.6544338 0.7499919 0.09606557
vn 0.6649759 0.6858945 -0.2955602
vn 0.664976 0.6858945 -0.2955602
vn 0.664976 0.6858945 -0.2955602
vn 0.6685554 0.6858543 -0.2874675
g BeachBalls_Explode_Thin_13_Hull_0
f 3/3/3 2/2/2 1/1/1
f 6/6/6 5/5/5 4/4/4
f 9/9/9 8/8/8 7/7/7
f 12/12/12 11/11/11 10/10/10
f 15/15/15 14/14/14 13/13/13
f 18/18/18 17/17/17 16/16/16
f 21/21/21 20/20/20 19/19/19
f 24/24/24 23/23/23 22/22/22
f 27/27/27 26/26/26 25/25/25
f 30/30/30 29/29/29 28/28/28
f 33/33/33 32/32/32 31/31/31
f 36/36/36 35/35/35 34/34/34
f 39/39/39 38/38/38 37/37/37
f 42/42/42 41/41/41 40/40/40
f 45/45/45 44/44/44 43/43/43
f 48/48/48 47/47/47 46/46/46
f 51/51/51 50/50/50 49/49/49
f 54/54/54 53/53/53 52/52/52
f 57/57/57 56/56/56 55/55/55
f 60/60/60 59/59/59 58/58/58
f 63/63/63 62/62/62 61/61/61
f 66/66/66 65/65/65 64/64/64
f 69/69/69 68/68/68 67/67/67
f 72/72/72 71/71/71 70/70/70
f 75/75/75 74/74/74 73/73/73
f 78/78/78 77/77/77 76/76/76
f 81/81/81 80/80/80 79/79/79
f 84/84/84 83/83/83 82/82/82
f 87/87/87 86/86/86 85/85/85
f 90/90/90 89/89/89 88/88/88
f 93/93/93 92/92/92 91/91/91
f 96/96/96 95/95/95 94/94/94
f 99/99/99 98/98/98 97/97/97
f 102/102/102 101/101/101 100/100/100
f 105/105/105 104/104/104 103/103/103
f 108/108/108 107/107/107 106/106/106
f 111/111/111 110/110/110 109/109/109
f 114/114/114 113/113/113 112/112/112
f 117/117/117 116/116/116 115/115/115
f 120/120/120 119/119/119 118/118/118
f 123/123/123 122/122/122 121/121/121
f 126/126/126 125/125/125 124/124/124
f 126/126/126 124/124/124 127/127/127
f 130/130/130 129/129/129 128/128/128
f 131/131/131 130/130/130 128/128/128
f 134/134/134 133/133/133 132/132/132
f 133/133/133 134/134/134 135/135/135
f 138/138/138 137/137/137 136/136/136
f 138/138/138 136/136/136 139/139/139
f 142/142/142 141/141/141 140/140/140
f 142/142/142 140/140/140 143/143/143
f 146/146/146 145/145/145 144/144/144
f 144/144/144 145/145/145 147/147/147
f 145/145/145 148/148/148 147/147/147
f 151/151/151 150/150/150 149/149/149
f 150/150/150 151/151/151 152/152/152
f 155/155/155 154/154/154 153/153/153
f 154/154/154 156/156/156 153/153/153
f 159/159/159 158/158/158 157/157/157
f 158/158/158 160/160/160 157/157/157
