g Bomb_Explode_Thin_09_Hull
v 0.2181998 0.08689713 -0.06305172
v 0.1233239 0.08079322 0.1434593
v 0.2051894 0.09282621 -0.02689442
v -0.1626467 0.02167673 -0.1189276
v -0.08191851 0.07424543 -0.02714458
v -0.1930336 0.008042431 -0.02714458
v 0.1600847 0.09759209 0.07240461
v 0.1144908 0.1018434 0.07329915
v 0.1144909 0.1125641 -0.02714458
v 0.1600847 0.09759209 0.07240461
v 0.1233239 0.08079322 0.1434593
v 0.1144908 0.1018434 0.07329915
v 0.1600847 0.09759209 0.07240461
v 0.2051894 0.09282621 -0.02689442
v 0.1233239 0.08079322 0.1434593
v -0.1566522 0.02477978 0.06489392
v -0.1930336 0.008042431 -0.02714458
v -0.08191851 0.07424543 -0.02714458
v -0.1566522 0.02477978 0.06489392
v -0.2148222 -0.05011364 -0.1714187
v -0.1930336 0.008042431 -0.02714458
v -0.07129446 0.04207046 -0.2129214
v -0.1428534 -0.01197355 -0.2450368
v 0.01907022 0.06556591 -0.2191344
v -0.07129446 0.04207046 -0.2129214
v -0.1626467 0.02167673 -0.1189276
v -0.1428534 -0.01197355 -0.2450368
v -0.2136176 -0.01921631 -0.1172515
v -0.1930336 0.008042431 -0.02714458
v -0.2148222 -0.05011364 -0.1714187
v -0.2136176 -0.01921631 -0.1172515
v -0.1626467 0.02167673 -0.1189276
v -0.1930336 0.008042431 -0.02714458
v 0.2145335 0.09995171 -0.04743309
v 0.1600847 0.09759209 0.07240461
v 0.1144909 0.1125641 -0.02714458
v 0.2145335 0.09995171 -0.04743309
v 0.2051894 0.09282621 -0.02689442
v 0.1600847 0.09759209 0.07240461
v 0.2145335 0.09995171 -0.04743309
v 0.2181998 0.08689713 -0.06305172
v 0.2051894 0.09282621 -0.02689442
v 0.2145335 0.09995171 -0.04743309
v 0.2032173 0.0935703 -0.1258477
v 0.2181998 0.08689713 -0.06305172
v -0.2209573 -0.04256188 -0.1737425
v -0.1428534 -0.01197355 -0.2450368
v -0.1626467 0.02167673 -0.1189276
v -0.2209573 -0.04256188 -0.1737425
v -0.1626467 0.02167673 -0.1189276
v -0.2136176 -0.01921631 -0.1172515
v -0.2209573 -0.04256188 -0.1737425
v -0.2136176 -0.01921631 -0.1172515
v -0.2148222 -0.05011364 -0.1714187
v 0.01909724 0.06532939 0.1656603
v 0.01393831 0.02173061 0.2450683
v -0.0838587 0.03596989 0.1574014
v 0.01909724 0.06532939 0.1656603
v 0.1233239 0.08079322 0.1434593
v 0.01393831 0.02173061 0.2450683
v 0.01637054 0.0130976 0.2406384
v -0.2148222 -0.05011364 -0.1714187
v -0.1566522 0.02477978 0.06489392
v 0.01637054 0.0130976 0.2406384
v -0.0838587 0.03596989 0.1574014
v 0.01393831 0.02173061 0.2450683
v 0.01637054 0.0130976 0.2406384
v -0.1566522 0.02477978 0.06489392
v -0.0838587 0.03596989 0.1574014
v 0.01637054 0.0130976 0.2406384
v 0.2181998 0.08689713 -0.06305172
v 0.1877691 0.07252643 -0.1675695
v 0.01637054 0.0130976 0.2406384
v 0.01393831 0.02173061 0.2450683
v 0.1233239 0.08079322 0.1434593
v 0.01637054 0.0130976 0.2406384
v 0.1233239 0.08079322 0.1434593
v 0.2181998 0.08689713 -0.06305172
v 0.01637054 0.0130976 0.2406384
v 0.1877691 0.07252643 -0.1675695
v -0.2148222 -0.05011364 -0.1714187
v -0.07831894 0.06532939 0.06824413
v -0.1566522 0.02477978 0.06489392
v -0.08191851 0.07424543 -0.02714458
v -0.07831894 0.06532939 0.06824413
v -0.0838587 0.03596989 0.1574014
v -0.1566522 0.02477978 0.06489392
v -0.1385335 -0.02006528 -0.2410455
v -0.2148222 -0.05011364 -0.1714187
v 0.1877691 0.07252643 -0.1675695
v -0.07831894 0.06532943 -0.1225342
v -0.08191851 0.07424543 -0.02714458
v -0.1626467 0.02167673 -0.1189276
v -0.07831894 0.06532943 -0.1225342
v -0.1626467 0.02167673 -0.1189276
v -0.07129446 0.04207046 -0.2129214
v 0.2181998 0.08689713 -0.06305172
v 0.2032173 0.0935703 -0.1258477
v 0.1877691 0.07252643 -0.1675695
v 0.1887677 0.08207758 -0.1703707
v 0.01597842 0.09265812 0.07136644
v 0.1144909 0.1125641 -0.02714458
v 0.1144908 0.1018434 0.07329915
v 0.01404745 0.1018434 -0.02714458
v 0.01597842 0.09265815 -0.1256556
v 0.01907022 0.06556591 -0.2191344
v 0.1144909 0.08265302 -0.1943197
v 0.1144908 0.1018434 -0.1275892
v -0.07129446 0.04207046 -0.2129214
v 0.01907022 0.06556591 -0.2191344
v 0.01597842 0.09265815 -0.1256556
v -0.07831894 0.06532943 -0.1225342
v 0.2145335 0.09995171 -0.04743309
v 0.1144909 0.1125641 -0.02714458
v 0.2032173 0.0935703 -0.1258477
v 0.1144908 0.1018434 -0.1275892
v -0.2209573 -0.04256188 -0.1737425
v -0.2148222 -0.05011364 -0.1714187
v -0.1428534 -0.01197355 -0.2450368
v -0.1385335 -0.02006528 -0.2410455
v 0.01909724 0.06532939 0.1656603
v 0.1144908 0.1018434 0.07329915
v 0.1233239 0.08079322 0.1434593
v 0.01597842 0.09265812 0.07136644
v 0.1887677 0.08207758 -0.1703707
v 0.1144909 0.08265302 -0.1943197
v 0.1877691 0.07252643 -0.1675695
v 0.01907022 0.06556591 -0.2191344
v -0.1385335 -0.02006528 -0.2410455
v -0.1428534 -0.01197355 -0.2450368
v 0.1887677 0.08207758 -0.1703707
v 0.2032173 0.0935703 -0.1258477
v 0.1144909 0.08265302 -0.1943197
v 0.1144908 0.1018434 -0.1275892
v 0.01404745 0.1018434 -0.02714458
v 0.01597842 0.09265815 -0.1256556
v 0.1144909 0.1125641 -0.02714458
v 0.1144908 0.1018434 -0.1275892
v 0.01404745 0.1018434 -0.02714458
v -0.08191851 0.07424543 -0.02714458
v 0.01597842 0.09265815 -0.1256556
v -0.07831894 0.06532943 -0.1225342
v 0.01404745 0.1018434 -0.02714458
v 0.01597842 0.09265812 0.07136644
v -0.08191851 0.07424543 -0.02714458
v -0.07831894 0.06532939 0.06824413
v -0.07831894 0.06532939 0.06824413
v 0.01909724 0.06532939 0.1656603
v -0.0838587 0.03596989 0.1574014
v 0.01597842 0.09265812 0.07136644
vn 0.8269987 -0.4255792 0.3673629
vn 0.8269987 -0.4255792 0.3673629
vn 0.8269987 -0.4255792 0.3673629
vn -0.5113964 0.8583274 -0.04180548
vn -0.5113964 0.8583275 -0.04180548
vn -0.5113964 0.8583274 -0.04180548
vn 0.0943758 0.9899141 0.1056568
vn 0.09437579 0.9899141 0.1056568
vn 0.09437579 0.9899141 0.1056568
vn 0.09460755 0.9567381 0.2751395
vn 0.09460755 0.9567381 0.2751395
vn 0.09460755 0.9567381 0.2751394
vn 0.8889743 -0.1973142 0.4132696
vn 0.8889743 -0.1973142 0.4132696
vn 0.8889743 -0.1973141 0.4132695
vn -0.5113009 0.8581671 0.04604992
vn -0.5113009 0.8581671 0.04604992
vn -0.5113009 0.8581671 0.04604992
vn -0.6232745 -0.6881219 0.3715065
vn -0.6232745 -0.688122 0.3715065
vn -0.6232745 -0.688122 0.3715065
vn -0.2291298 0.7032924 -0.6729631
vn -0.2291298 0.7032924 -0.6729631
vn -0.2291298 0.7032924 -0.6729631
vn -0.4876526 0.8214269 -0.295724
vn -0.4876527 0.8214269 -0.2957239
vn -0.4876527 0.8214269 -0.295724
vn -0.7442688 -0.5728799 0.3433259
vn -0.7442688 -0.5728798 0.3433259
vn -0.7442688 -0.5728799 0.3433259
vn -0.6249741 0.7752348 -0.09175128
vn -0.6249742 0.7752348 -0.09175128
vn -0.6249741 0.7752348 -0.09175128
vn 0.1413191 0.9864252 0.0836319
vn 0.1413191 0.9864252 0.0836319
vn 0.1413191 0.9864252 0.08363189
vn 0.910443 -0.001664004 0.4136311
vn 0.910443 -0.001664004 0.4136311
vn 0.910443 -0.001664004 0.4136311
vn 0.9178386 -0.1708906 0.3582857
vn 0.9178386 -0.1708906 0.3582857
vn 0.9178386 -0.1708906 0.3582857
vn 0.8815731 0.4429143 -0.1632662
vn 0.8815731 0.4429143 -0.1632662
vn 0.8815731 0.4429142 -0.1632662
vn -0.5692271 0.7677406 -0.2942019
vn -0.5692272 0.7677406 -0.294202
vn -0.5692271 0.7677406 -0.2942019
vn -0.6132976 0.7549202 -0.2322963
vn -0.6132976 0.7549202 -0.2322963
vn -0.6132975 0.7549202 -0.2322963
vn -0.7808016 -0.5350677 0.32257
vn -0.7808016 -0.5350677 0.3225701
vn -0.7808017 -0.5350677 0.3225701
vn -0.2782044 0.8494733 0.4483274
vn -0.2782044 0.8494734 0.4483274
vn -0.2782044 0.8494734 0.4483274
vn -0.02793858 0.8769905 0.4796948
vn -0.02793858 0.8769905 0.4796947
vn -0.02793859 0.8769906 0.4796947
vn -0.4286525 -0.825509 0.3671403
vn -0.4286525 -0.825509 0.3671403
vn -0.4286525 -0.825509 0.3671403
vn -0.620558 -0.4892757 0.6127946
vn -0.620558 -0.4892757 0.6127946
vn -0.6205579 -0.4892757 0.6127946
vn -0.5824412 -0.6140832 0.5326013
vn -0.5824412 -0.6140832 0.5326013
vn -0.5824412 -0.6140832 0.5326013
vn 0.3698139 -0.9288895 0.02004555
vn 0.3698139 -0.9288895 0.02004555
vn 0.3698139 -0.9288895 0.02004556
vn 0.7149865 -0.1490608 0.6830631
vn 0.7149866 -0.1490608 0.683063
vn 0.7149865 -0.1490608 0.6830631
vn 0.6884862 -0.6617618 0.2967462
vn 0.6884861 -0.6617617 0.2967462
vn 0.6884861 -0.6617617 0.2967462
vn 0.2915118 -0.9564191 -0.01683985
vn 0.2915118 -0.9564191 -0.01683985
vn 0.2915118 -0.9564191 -0.01683985
vn -0.4607801 0.8818833 0.09981809
vn -0.4607801 0.8818832 0.09981807
vn -0.4607801 0.8818832 0.09981807
vn -0.4532444 0.8546474 0.2532732
vn -0.4532444 0.8546474 0.2532732
vn -0.4532444 0.8546474 0.2532732
vn 0.2909719 -0.9522826 -0.09215821
vn 0.2909719 -0.9522826 -0.0921582
vn 0.2909719 -0.9522826 -0.09215821
vn -0.4607803 0.8818833 -0.09981676
vn -0.4607803 0.8818833 -0.09981678
vn -0.4607803 0.8818833 -0.09981676
vn -0.4530921 0.854208 -0.2550221
vn -0.4530921 0.854208 -0.2550221
vn -0.4530921 0.854208 -0.2550221
vn 0.9470773 -0.2042229 -0.2476644
vn 0.9470773 -0.2042229 -0.2476644
vn 0.9470773 -0.2042229 -0.2476644
vn 0.9487342 -0.1761625 -0.2624311
vn -0.0943724 0.9899144 0.1056565
vn -0.09437241 0.9899144 0.1056565
vn -0.09437241 0.9899144 0.1056565
vn -0.1056565 0.9899144 0.09437224
vn -0.09818633 0.9549607 -0.2800167
vn -0.09818633 0.9549607 -0.2800167
vn -0.09818634 0.9549607 -0.2800168
vn -0.09460661 0.956738 -0.2751399
vn -0.2595901 0.9252192 -0.2767354
vn -0.2595901 0.9252192 -0.2767354
vn -0.2595901 0.9252192 -0.2767354
vn -0.2767348 0.9252195 -0.2595895
vn 0.1053663 0.9898123 -0.09575704
vn 0.1053663 0.9898123 -0.09575704
vn 0.1053663 0.9898123 -0.09575704
vn 0.09437664 0.9899141 -0.1056554
vn -0.4255572 -0.5635854 -0.7080061
vn -0.4255572 -0.5635854 -0.7080061
vn -0.4255572 -0.5635854 -0.7080061
vn -0.4188152 -0.5716227 -0.7055787
vn -0.07831477 0.9521197 0.2955246
vn -0.07831478 0.9521197 0.2955246
vn -0.07831477 0.9521197 0.2955246
vn -0.09456822 0.9553289 0.2800062
vn 0.2909251 -0.2971398 -0.9094341
vn 0.2901102 -0.3006636 -0.9085359
vn 0.2901102 -0.3006636 -0.9085359
vn 0.2901102 -0.3006636 -0.9085359
vn 0.2874162 -0.2958953 -0.9109545
vn 0.2874162 -0.2958953 -0.9109545
vn 0.09709733 0.9556079 -0.2781827
vn 0.09709734 0.9556079 -0.2781827
vn 0.09709733 0.9556079 -0.2781827
vn 0.09460988 0.9567378 -0.2751396
vn -0.1056565 0.9899144 -0.09437189
vn -0.1056565 0.9899144 -0.09437189
vn -0.1056565 0.9899144 -0.09437189
vn -0.09437341 0.9899144 -0.1056552
vn -0.2751401 0.9567385 -0.09460066
vn -0.2751402 0.9567385 -0.09460068
vn -0.2751402 0.9567385 -0.09460068
vn -0.2800165 0.9547924 -0.09981032
vn -0.2751401 0.9567384 0.09460098
vn -0.2751402 0.9567384 0.09460098
vn -0.2751402 0.9567384 0.09460099
vn -0.2800174 0.954792 0.0998117
vn -0.2839419 0.9158352 0.2839419
vn -0.2839419 0.9158351 0.2839419
vn -0.2839419 0.9158351 0.2839419
vn -0.2759689 0.9206966 0.2759688
g Bomb_Explode_Thin_09_Hull_0
f 3/3/3 2/2/2 1/1/1
f 6/6/6 5/5/5 4/4/4
f 9/9/9 8/8/8 7/7/7
f 12/12/12 11/11/11 10/10/10
f 15/15/15 14/14/14 13/13/13
f 18/18/18 17/17/17 16/16/16
f 21/21/21 20/20/20 19/19/19
f 24/24/24 23/23/23 22/22/22
f 27/27/27 26/26/26 25/25/25
f 30/30/30 29/29/29 28/28/28
f 33/33/33 32/32/32 31/31/31
f 36/36/36 35/35/35 34/34/34
f 39/39/39 38/38/38 37/37/37
f 42/42/42 41/41/41 40/40/40
f 45/45/45 44/44/44 43/43/43
f 48/48/48 47/47/47 46/46/46
f 51/51/51 50/50/50 49/49/49
f 54/54/54 53/53/53 52/52/52
f 57/57/57 56/56/56 55/55/55
f 60/60/60 59/59/59 58/58/58
f 63/63/63 62/62/62 61/61/61
f 66/66/66 65/65/65 64/64/64
f 69/69/69 68/68/68 67/67/67
f 72/72/72 71/71/71 70/70/70
f 75/75/75 74/74/74 73/73/73
f 78/78/78 77/77/77 76/76/76
f 81/81/81 80/80/80 79/79/79
f 84/84/84 83/83/83 82/82/82
f 87/87/87 86/86/86 85/85/85
f 90/90/90 89/89/89 88/88/88
f 93/93/93 92/92/92 91/91/91
f 96/96/96 95/95/95 94/94/94
f 99/99/99 98/98/98 97/97/97
f 98/98/98 99/99/99 100/100/100
f 103/103/103 102/102/102 101/101/101
f 101/101/101 102/102/102 104/104/104
f 107/107/107 106/106/106 105/105/105
f 107/107/107 105/105/105 108/108/108
f 111/111/111 110/110/110 109/109/109
f 111/111/111 109/109/109 112/112/112
f 115/115/115 114/114/114 113/113/113
f 114/114/114 115/115/115 116/116/116
f 119/119/119 118/118/118 117/117/117
f 118/118/118 119/119/119 120/120/120
f 123/123/123 122/122/122 121/121/121
f 122/122/122 124/124/124 121/121/121
f 127/127/127 126/126/126 125/125/125
f 127/127/127 128/128/128 126/126/126
f 128/128/128 127/127/127 129/129/129
f 130/130/130 128/128/128 129/129/129
f 133/133/133 132/132/132 131/131/131
f 132/132/132 133/133/133 134/134/134
f 137/137/137 136/136/136 135/135/135
f 136/136/136 137/137/137 138/138/138
f 141/141/141 140/140/140 139/139/139
f 140/140/140 141/141/141 142/142/142
f 145/145/145 144/144/144 143/143/143
f 144/144/144 145/145/145 146/146/146
f 149/149/149 148/148/148 147/147/147
f 148/148/148 150/150/150 147/147/147
