g Bomb_Explode_Thin_03
v 0.06767669 -0.1908159 -0.2285406
v 0.04497131 -0.1600926 -0.2384121
v 0.05914406 -0.1902396 -0.2311036
v 0.0697792 -0.1351282 -0.2337458
v 0.0331163 -0.1351282 -0.2442898
v -0.01988907 -0.0448943 -0.2506122
v 0.1228262 -0.19544 -0.1992028
v -0.0246759 -0.03676345 -0.2511662
v 0.1377373 -0.1351282 -0.1976736
v 0.1397769 -0.1968706 -0.1900539
v 0.1357542 -0.06011773 -0.1907835
v 0.06617904 -0.03977111 -0.2248328
v 0.1352986 -0.04272723 -0.1890531
v 0.05915695 0.05058533 -0.2015818
v -0.02610764 -0.03467749 -0.2510092
v 0.1349861 -0.02743574 -0.1846537
v 0.1335043 0.04330229 -0.1654845
v 0.1330018 0.07825386 -0.1485134
v 0.1247355 0.116163 -0.1342281
v 0.1326167 0.108919 -0.1317966
v 0.1325369 0.1148204 -0.1287681
v 0.1324993 0.1239268 -0.1213005
v 0.1323241 0.1731808 -0.07999321
v 0.1134721 0.1816109 -0.08842327
v 0.04658951 0.2011855 -0.1079979
v -0.02824669 -0.0316399 -0.2507008
v 0.05116218 0.1322068 -0.1619527
v -0.01727119 0.139931 -0.1772713
v 0.01504188 0.1782106 -0.1363689
v 0.03594375 0.2029927 -0.1098051
v -0.02453056 0.1319249 -0.1834248
v -0.03119949 0.05761185 -0.2248328
v -0.03393051 0.1214844 -0.1917692
v -0.09157883 0.05989305 -0.2304765
v -0.09604187 0.0553595 -0.2322727
v 0.04658951 0.2011855 -0.1079979
v 0.03942482 0.2076287 -0.1027801
v 0.03594375 0.2029927 -0.1098051
v 0.04812347 0.2192852 -0.08485826
v 0.07583854 0.2110031 -0.07617535
v 0.05154686 0.224096 -0.07666281
v 0.1155672 0.1901309 -0.07624965
v 0.1134721 0.1816109 -0.08842327
v 0.1323241 0.1731808 -0.07999321
v 0.1323682 0.1791669 -0.07283733
v 0.04219057 -0.1591154 -0.2288563
v 0.06391515 -0.1898129 -0.2193295
v 0.05634363 -0.1892414 -0.2215557
v 0.06603601 -0.1351282 -0.2244728
v 0.03035364 -0.1354276 -0.2346836
v -0.0226853 -0.04588802 -0.2410627
v 0.1181714 -0.1944941 -0.1904029
v -0.02746195 -0.03885461 -0.2417926
v 0.1330489 -0.135109 -0.1888408
v 0.1351088 -0.1959395 -0.1812595
v 0.1311314 -0.06109922 -0.1819707
v 0.06247995 -0.04156347 -0.2157166
v 0.1307157 -0.04452091 -0.180348
v 0.05568841 0.04711689 -0.1928674
v -0.02880008 -0.0373489 -0.2417564
v 0.130483 -0.02995369 -0.1760873
v 0.1291179 0.04005388 -0.1571056
v 0.1285671 0.0742627 -0.1404882
v 0.1199293 0.1113568 -0.1268931
v 0.1268245 0.10502 -0.1246379
v 0.1269417 0.1101481 -0.1219224
v 0.1271468 0.1185005 -0.1148271
v 0.1269792 0.1672041 -0.07401726
v 0.1089692 0.1752973 -0.08210962
v 0.04349257 0.1944621 -0.1012744
v -0.03053252 -0.03441963 -0.2413709
v 0.04797461 0.1270004 -0.1540323
v -0.01969741 0.134976 -0.1689309
v 0.01266412 0.1721261 -0.1287977
v 0.03361034 0.1963276 -0.1027247
v -0.02701757 0.1274487 -0.1748353
v -0.032992 0.05391281 -0.2157167
v -0.03613783 0.1169264 -0.1831464
v -0.09258091 0.05657814 -0.2210952
v -0.09704006 0.05255922 -0.2227248
v 0.03706465 0.2000644 -0.09668005
v 0.04349257 0.1944621 -0.1012744
v 0.03361034 0.1963276 -0.1027247
v 0.04434115 0.212117 -0.07900064
v 0.07198685 0.2037959 -0.07041163
v 0.04759894 0.216988 -0.07084125
v 0.1110302 0.1832155 -0.07062891
v 0.1089692 0.1752973 -0.08210962
v 0.1269792 0.1672041 -0.07401726
v 0.1270373 0.1726937 -0.06738944
v 0.1324993 0.1239268 -0.1213005
v 0.1269792 0.1672041 -0.07401726
v 0.1323241 0.1731808 -0.07999321
v 0.1271468 0.1185005 -0.1148271
v 0.1325369 0.1148204 -0.1287681
v 0.1269417 0.1101481 -0.1219224
v 0.1326167 0.108919 -0.1317966
v 0.1268245 0.10502 -0.1246379
v 0.1330018 0.07825386 -0.1485134
v 0.1285671 0.0742627 -0.1404882
v 0.1335043 0.04330229 -0.1654845
v 0.1291179 0.04005388 -0.1571056
v 0.1349861 -0.02743574 -0.1846537
v 0.130483 -0.02995369 -0.1760873
v 0.1352986 -0.04272723 -0.1890531
v 0.1307157 -0.04452091 -0.180348
v 0.1357542 -0.06011773 -0.1907835
v 0.1311314 -0.06109922 -0.1819707
v 0.1377373 -0.1351282 -0.1976736
v 0.1330489 -0.135109 -0.1888408
v 0.1397769 -0.1968706 -0.1900539
v 0.1351088 -0.1959395 -0.1812595
v 0.06391515 -0.1898129 -0.2193295
v 0.05914406 -0.1902396 -0.2311036
v 0.05634363 -0.1892414 -0.2215557
v 0.06767669 -0.1908159 -0.2285406
v 0.1181714 -0.1944941 -0.1904029
v 0.1228262 -0.19544 -0.1992028
v 0.1351088 -0.1959395 -0.1812595
v 0.1397769 -0.1968706 -0.1900539
v 0.04497131 -0.1600926 -0.2384121
v 0.05634363 -0.1892414 -0.2215557
v 0.05914406 -0.1902396 -0.2311036
v 0.04219057 -0.1591154 -0.2288563
v 0.0331163 -0.1351282 -0.2442898
v 0.03035364 -0.1354276 -0.2346836
v -0.01988907 -0.0448943 -0.2506122
v -0.0226853 -0.04588802 -0.2410627
v -0.0246759 -0.03676345 -0.2511662
v -0.02746195 -0.03885461 -0.2417926
v -0.02610764 -0.03467749 -0.2510092
v -0.02880008 -0.0373489 -0.2417564
v -0.02824669 -0.0316399 -0.2507008
v -0.03053252 -0.03441963 -0.2413709
v -0.09604187 0.0553595 -0.2322727
v -0.09704006 0.05255922 -0.2227248
v 0.03942482 0.2076287 -0.1027801
v 0.03361034 0.1963276 -0.1027247
v 0.03594375 0.2029927 -0.1098051
v 0.03706465 0.2000644 -0.09668005
v 0.04812347 0.2192852 -0.08485826
v 0.04434115 0.212117 -0.07900064
v 0.05154686 0.224096 -0.07666281
v 0.04759894 0.216988 -0.07084125
v 0.01266412 0.1721261 -0.1287977
v 0.03594375 0.2029927 -0.1098051
v 0.03361034 0.1963276 -0.1027247
v 0.01504188 0.1782106 -0.1363689
v -0.01969741 0.134976 -0.1689309
v -0.01727119 0.139931 -0.1772713
v -0.02701757 0.1274487 -0.1748353
v -0.02453056 0.1319249 -0.1834248
v -0.03613783 0.1169264 -0.1831464
v -0.03393051 0.1214844 -0.1917692
v -0.09258091 0.05657814 -0.2210952
v -0.09157883 0.05989305 -0.2304765
v -0.09704006 0.05255922 -0.2227248
v -0.09604187 0.0553595 -0.2322727
v 0.07583854 0.2110031 -0.07617535
v 0.04759894 0.216988 -0.07084125
v 0.05154686 0.224096 -0.07666281
v 0.07198685 0.2037959 -0.07041163
v 0.1155672 0.1901309 -0.07624965
v 0.1110302 0.1832155 -0.07062891
v 0.1323682 0.1791669 -0.07283733
v 0.1270373 0.1726937 -0.06738944
v 0.1323241 0.1731808 -0.07999321
v 0.1270373 0.1726937 -0.06738944
v 0.1323682 0.1791669 -0.07283733
v 0.1269792 0.1672041 -0.07401726
vt 0.1985818 0.4161938
vt 0.1845582 0.4263189
vt 0.1983143 0.4198631
vt 0.173187 0.41598
vt 0.173187 0.4319768
vt 0.1320859 0.4533527
vt 0.2028973 0.3889667
vt 0.1283806 0.4553069
vt 0.173187 0.3840763
vt 0.203602 0.380959
vt 0.1362359 0.3823841
vt 0.129703 0.416348
vt 0.1282976 0.3823523
vt 0.087451 0.415863
vt 0.1274063 0.4558417
vt 0.1211117 0.3818378
vt 0.08699765 0.3786117
vt 0.06199606 0.370963
vt 0.0354678 0.366707
vt 0.04025147 0.363979
vt 0.03625217 0.3632069
vt 0.03080314 0.361253
vt 0.010387 0.3616375
vt 0.010387 0.375025
vt 0.010387 0.412668
vt 0.1261544 0.4568167
vt 0.0427446 0.41385
vt 0.04211039 0.4457302
vt 0.02261982 0.4286485
vt 0.010387 0.4182845
vt 0.04692303 0.4497394
vt 0.0873857 0.457702
vt 0.05295756 0.4548197
vt 0.08695595 0.4851833
vt 0.08896814 0.4872389
vt 0.593162 0.989285
vt 0.5895753 0.9865911
vt 0.587667 0.989285
vt 0.5931077 0.9786733
vt 0.612482 0.9803556
vt 0.5951466 0.9755161
vt 0.6338106 0.9848474
vt 0.631304 0.989285
vt 0.644869 0.989285
vt 0.6455353 0.9864668
vt 0.1845582 0.4263189
vt 0.1985818 0.4161938
vt 0.1983143 0.4198631
vt 0.173187 0.41598
vt 0.173187 0.4319768
vt 0.1320859 0.4533527
vt 0.2028973 0.3889667
vt 0.1283806 0.4553069
vt 0.173187 0.3840763
vt 0.203602 0.380959
vt 0.1362359 0.3823841
vt 0.129703 0.416348
vt 0.1282976 0.3823523
vt 0.087451 0.415863
vt 0.1274063 0.4558417
vt 0.1211117 0.3818378
vt 0.08699765 0.3786117
vt 0.06199606 0.370963
vt 0.0354678 0.366707
vt 0.04025147 0.363979
vt 0.03625217 0.3632069
vt 0.03080314 0.361253
vt 0.010387 0.3616375
vt 0.010387 0.375025
vt 0.010387 0.412668
vt 0.1261544 0.4568167
vt 0.0427446 0.41385
vt 0.04211039 0.4457302
vt 0.02261982 0.4286485
vt 0.010387 0.4182845
vt 0.04692303 0.4497394
vt 0.0873857 0.457702
vt 0.05295756 0.4548197
vt 0.08695595 0.4851833
vt 0.08896814 0.4872389
vt 0.5895753 0.9865911
vt 0.593162 0.989285
vt 0.587667 0.989285
vt 0.5931077 0.9786733
vt 0.612482 0.9803556
vt 0.5951466 0.9755161
vt 0.6338106 0.9848474
vt 0.631304 0.989285
vt 0.644869 0.989285
vt 0.6455353 0.9864668
vt 0.03080314 0.361253
vt 0.010387 0.3616375
vt 0.010387 0.3616375
vt 0.03080314 0.361253
vt 0.03625217 0.3632069
vt 0.03625217 0.3632069
vt 0.04025147 0.363979
vt 0.04025147 0.363979
vt 0.06199606 0.370963
vt 0.06199606 0.370963
vt 0.08699765 0.3786117
vt 0.08699765 0.3786117
vt 0.1211117 0.3818378
vt 0.1211117 0.3818378
vt 0.1282976 0.3823523
vt 0.1282976 0.3823523
vt 0.1362359 0.3823841
vt 0.1362359 0.3823841
vt 0.173187 0.3840763
vt 0.173187 0.3840763
vt 0.203602 0.380959
vt 0.203602 0.380959
vt 0.1985818 0.4161938
vt 0.1983143 0.4198631
vt 0.1983143 0.4198631
vt 0.1985818 0.4161938
vt 0.2028973 0.3889667
vt 0.2028973 0.3889667
vt 0.203602 0.380959
vt 0.203602 0.380959
vt 0.1845582 0.4263189
vt 0.1983143 0.4198631
vt 0.1983143 0.4198631
vt 0.1845582 0.4263189
vt 0.173187 0.4319768
vt 0.173187 0.4319768
vt 0.1320859 0.4533527
vt 0.1320859 0.4533527
vt 0.1283806 0.4553069
vt 0.1283806 0.4553069
vt 0.1274063 0.4558417
vt 0.1274063 0.4558417
vt 0.1261544 0.4568167
vt 0.1261544 0.4568167
vt 0.08896814 0.4872389
vt 0.08896814 0.4872389
vt 0.5895753 0.9865911
vt 0.587667 0.989285
vt 0.587667 0.989285
vt 0.5895753 0.9865911
vt 0.5931077 0.9786733
vt 0.5931077 0.9786733
vt 0.5951466 0.9755161
vt 0.5951466 0.9755161
vt 0.02261982 0.4286485
vt 0.010387 0.4182845
vt 0.010387 0.4182845
vt 0.02261982 0.4286485
vt 0.04211039 0.4457302
vt 0.04211039 0.4457302
vt 0.04692303 0.4497394
vt 0.04692303 0.4497394
vt 0.05295756 0.4548197
vt 0.05295756 0.4548197
vt 0.08695595 0.4851833
vt 0.08695595 0.4851833
vt 0.08896814 0.4872389
vt 0.08896814 0.4872389
vt 0.612482 0.9803556
vt 0.5951466 0.9755161
vt 0.5951466 0.9755161
vt 0.612482 0.9803556
vt 0.6338106 0.9848474
vt 0.6338106 0.9848474
vt 0.6455353 0.9864668
vt 0.6455353 0.9864668
vt 0.644869 0.989285
vt 0.6455353 0.9864668
vt 0.6455353 0.9864668
vt 0.644869 0.989285
vn 0.3761546 -0.1002976 -0.9211125
vn 0.2780743 -0.09771518 -0.9555764
vn 0.2800421 -0.0998148 -0.9547845
vn 0.3743196 9.547476E-07 -0.9272998
vn 0.2762665 0.02993977 -0.9606146
vn 0.2796235 0.09937157 -0.9549533
vn 0.4654818 -0.09459072 -0.8799883
vn 0.2786047 0.2091163 -0.9373633
vn 0.4688444 -0.001919247 -0.8832787
vn 0.4668076 -0.09311184 -0.8794435
vn 0.4622869 0.0981498 -0.8812817
vn 0.3699091 0.1792365 -0.9116148
vn 0.4582916 0.179368 -0.8705148
vn 0.3468539 0.3468432 -0.8714312
vn 0.2692442 0.2671414 -0.9252799
vn 0.4503077 0.2517949 -0.8566343
vn 0.4386391 0.324841 -0.8378986
vn 0.443467 0.3991157 -0.8025234
vn 0.4806196 0.4806163 -0.7334935
vn 0.5792253 0.3898985 -0.7158751
vn 0.5595181 0.4672266 -0.6845719
vn 0.5352531 0.5426348 -0.6473418
vn 0.5344872 0.5976652 -0.597595
vn 0.4502923 0.6313596 -0.6313651
vn 0.3096934 0.6723432 -0.6723427
vn 0.2285834 0.2779726 -0.9329957
vn 0.3187572 0.5206482 -0.7920349
vn 0.2426222 0.4955023 -0.8340335
vn 0.237776 0.6084584 -0.7571267
vn 0.2333418 0.6665112 -0.7080355
vn 0.2487008 0.4476171 -0.8589452
vn 0.1792505 0.3699037 -0.9116143
vn 0.2207323 0.4557971 -0.8622797
vn 0.1002082 0.3314911 -0.9381214
vn 0.09981878 0.2800274 -0.9547883
vn 0.3096934 0.6723432 -0.6723427
vn 0.2360172 0.756431 -0.6100065
vn 0.2333418 0.6665112 -0.7080355
vn 0.3782319 0.7168145 -0.5857625
vn 0.385169 0.7207221 -0.5763718
vn 0.3947916 0.7107987 -0.5821552
vn 0.453701 0.6915397 -0.562075
vn 0.4502923 0.6313596 -0.6313651
vn 0.5344872 0.5976652 -0.597595
vn 0.5330814 0.6473245 -0.5447893
vn -0.2757463 0.09975328 0.9560404
vn -0.3743091 0.1019492 0.9216828
vn -0.2733851 0.1033207 0.9563395
vn -0.3739514 0.0005943158 0.9274482
vn -0.2747843 -0.0284937 0.9610837
vn -0.253339 -0.07253511 0.9646543
vn -0.4657647 0.09539448 0.8797517
vn -0.2744943 -0.2138292 0.9375126
vn -0.4694091 0.002050418 0.8829784
vn -0.466733 0.09379551 0.8794104
vn -0.4629626 -0.0975356 0.8809952
vn -0.3700425 -0.1792891 0.9115503
vn -0.4593666 -0.1788638 0.8700517
vn -0.3469324 -0.3467747 0.8714271
vn -0.2665925 -0.2690192 0.9255037
vn -0.4523468 -0.2527762 0.8552698
vn -0.4391692 -0.3250325 0.8375465
vn -0.4439629 -0.3984536 0.8025782
vn -0.4836761 -0.479485 0.7322237
vn -0.5880323 -0.3870932 0.7101949
vn -0.5638368 -0.4654218 0.682254
vn -0.5420014 -0.5400065 0.6439158
vn -0.5367637 -0.5977127 0.5955034
vn -0.4509536 -0.6322726 0.6299779
vn -0.3078842 -0.6740071 0.671507
vn -0.229524 -0.2771038 0.9330231
vn -0.3185841 -0.5204965 0.7922043
vn -0.2414249 -0.495054 0.834647
vn -0.2249567 -0.6178823 0.7534029
vn -0.2300815 -0.6704163 0.7054108
vn -0.2476469 -0.4479113 0.8590963
vn -0.1792764 -0.369717 0.9116849
vn -0.2201025 -0.4565564 0.8620389
vn -0.09894042 -0.3307168 0.9385293
vn -0.0974017 -0.2792616 0.9552622
vn -0.2280998 -0.7603965 0.6080852
vn -0.3078842 -0.6740071 0.671507
vn -0.2300815 -0.6704163 0.7054108
vn -0.3786575 -0.7175992 0.5845254
vn -0.3851874 -0.722323 0.5743518
vn -0.3947997 -0.7109029 0.5820225
vn -0.4549287 -0.6928238 0.5594952
vn -0.4509536 -0.6322726 0.6299779
vn -0.5367637 -0.5977127 0.5955034
vn -0.5355666 -0.6480654 0.5414606
vn 0.8446527 -0.3397408 0.4136885
vn 0.8451977 -0.3803075 0.3755088
vn 0.8457198 -0.3788103 0.375847
vn 0.8407355 -0.348424 0.4144449
vn 0.8328272 -0.3042777 0.4624003
vn 0.8247728 -0.3243358 0.463202
vn 0.8188958 -0.2651028 0.5090483
vn 0.8233152 -0.2681889 0.5002267
vn 0.8896991 -0.1828513 0.4183311
vn 0.8961314 -0.1726144 0.4088431
vn 0.8982894 -0.1395978 0.4166397
vn 0.8982952 -0.1393173 0.4167213
vn 0.8928177 -0.1045239 0.4381224
vn 0.8919046 -0.1061179 0.4395967
vn 0.8892879 -0.06782249 0.452291
vn 0.8885199 -0.06928492 0.4535769
vn 0.8863555 -0.02100893 0.4625283
vn 0.886191 -0.02111851 0.4628386
vn 0.8829649 0.03322278 0.4682619
vn 0.8830098 0.0330375 0.4681904
vn 0.8833349 0.08717963 0.4605639
vn 0.883709 0.08723471 0.4598352
vn -0.1053053 -0.9921877 0.06688985
vn -0.09227511 -0.9930261 0.07337777
vn -0.09704231 -0.9924286 0.07528786
vn -0.1027146 -0.992562 0.06534941
vn -0.110398 -0.9926745 0.049087
vn -0.1097636 -0.9927797 0.04837925
vn -0.1096844 -0.9928335 0.04744565
vn -0.109239 -0.9928972 0.04713899
vn -0.8651609 -0.4576581 -0.2050504
vn -0.865445 -0.4567303 -0.2059183
vn -0.8653788 -0.4567895 -0.2060653
vn -0.8624976 -0.4601865 -0.2105381
vn -0.8353568 -0.490157 -0.2488475
vn -0.8319886 -0.4923021 -0.2557997
vn -0.8152419 -0.5014806 -0.2896513
vn -0.8007296 -0.5150653 -0.3058427
vn -0.7879587 -0.5181103 -0.3326901
vn -0.7353986 -0.573261 -0.3613321
vn -0.7753907 -0.5171637 -0.3623687
vn -0.7608925 -0.5376019 -0.3633548
vn -0.7811944 -0.5124575 -0.3565427
vn -0.8028517 -0.4900512 -0.3395277
vn -0.7937722 -0.5536852 -0.2517108
vn -0.7947141 -0.5549665 -0.2458488
vn -0.885715 0.4323385 0.1690927
vn -0.8567908 0.4788834 0.1912598
vn -0.8593306 0.4833607 0.167073
vn -0.8805309 0.4405043 0.1749891
vn -0.8712996 0.4865108 0.06437646
vn -0.8673173 0.4961513 0.03993376
vn -0.8601598 0.5074773 0.05091146
vn -0.8596095 0.5094545 0.03908378
vn -0.830503 0.5305151 0.1697601
vn -0.8593306 0.4833607 0.167073
vn -0.8567908 0.4788834 0.1912598
vn -0.8295149 0.5339823 0.1636091
vn -0.7905554 0.5984406 0.1299658
vn -0.7908518 0.6007624 0.1167815
vn -0.7788345 0.6181617 0.1062679
vn -0.7802038 0.6172845 0.1012019
vn -0.7749427 0.619763 0.1239268
vn -0.7747265 0.6189928 0.1290219
vn -0.7311987 0.6639945 0.1563957
vn -0.7415875 0.6561149 0.1398619
vn -0.7078424 0.6894658 0.1536102
vn -0.7308981 0.6717463 0.1206024
vn 0.2662148 0.5119773 0.8167061
vn 0.2634877 0.5179283 0.8138332
vn 0.2636105 0.5193519 0.8128857
vn 0.2659653 0.5103583 0.8178001
vn 0.227628 0.52095 0.8226765
vn 0.2270313 0.5194954 0.8237604
vn 0.1872839 0.5391744 0.8211064
vn 0.1871158 0.5377632 0.8220696
vn 0.8457198 -0.3788103 0.375847
vn 0.8449122 -0.4142647 0.3383905
vn 0.8460507 -0.4114521 0.3389768
vn 0.8451977 -0.3803075 0.3755088
g Bomb_Explode_Thin_03_0
f 3/3/3 2/2/2 1/1/1
f 4/4/4 1/1/1 2/2/2
f 4/4/4 2/2/2 5/5/5
f 5/5/5 6/6/6 4/4/4
f 4/4/4 7/7/7 1/1/1
f 6/6/6 8/8/8 4/4/4
f 4/4/4 9/9/9 7/7/7
f 10/10/10 7/7/7 9/9/9
f 4/4/4 11/11/11 9/9/9
f 4/4/4 12/12/12 11/11/11
f 12/12/12 4/4/4 8/8/8
f 13/13/13 11/11/11 12/12/12
f 12/12/12 8/8/8 14/14/14
f 12/12/12 14/14/14 13/13/13
f 15/15/15 14/14/14 8/8/8
f 16/16/16 13/13/13 14/14/14
f 17/17/17 16/16/16 14/14/14
f 17/17/17 14/14/14 18/18/18
f 19/19/19 18/18/18 14/14/14
f 19/19/19 20/20/20 18/18/18
f 21/21/21 20/20/20 19/19/19
f 19/19/19 22/22/22 21/21/21
f 22/22/22 19/19/19 23/23/23
f 24/24/24 23/23/23 19/19/19
f 24/24/24 19/19/19 25/25/25
f 15/15/15 26/26/26 14/14/14
f 27/27/27 25/25/25 19/19/19
f 27/27/27 19/19/19 14/14/14
f 27/27/27 28/28/28 25/25/25
f 27/27/27 14/14/14 28/28/28
f 29/29/29 25/25/25 28/28/28
f 25/25/25 29/29/29 30/30/30
f 31/31/31 28/28/28 14/14/14
f 14/14/14 32/32/32 31/31/31
f 32/32/32 14/14/14 26/26/26
f 33/33/33 31/31/31 32/32/32
f 32/32/32 34/34/34 33/33/33
f 32/32/32 26/26/26 34/34/34
f 35/35/35 34/34/34 26/26/26
f 38/38/38 37/37/37 36/36/36
f 36/36/36 37/37/37 39/39/39
f 36/36/36 39/39/39 40/40/40
f 41/41/41 40/40/40 39/39/39
f 40/40/40 42/42/42 36/36/36
f 43/43/43 36/36/36 42/42/42
f 43/43/43 42/42/42 44/44/44
f 45/45/45 44/44/44 42/42/42
f 48/48/48 47/47/47 46/46/46
f 49/49/49 46/46/46 47/47/47
f 49/49/49 50/50/50 46/46/46
f 50/50/50 49/49/49 51/51/51
f 49/49/49 47/47/47 52/52/52
f 51/51/51 49/49/49 53/53/53
f 49/49/49 52/52/52 54/54/54
f 55/55/55 54/54/54 52/52/52
f 49/49/49 54/54/54 56/56/56
f 49/49/49 56/56/56 57/57/57
f 57/57/57 53/53/53 49/49/49
f 58/58/58 57/57/57 56/56/56
f 57/57/57 59/59/59 53/53/53
f 57/57/57 58/58/58 59/59/59
f 60/60/60 53/53/53 59/59/59
f 61/61/61 59/59/59 58/58/58
f 62/62/62 59/59/59 61/61/61
f 62/62/62 63/63/63 59/59/59
f 64/64/64 59/59/59 63/63/63
f 64/64/64 63/63/63 65/65/65
f 66/66/66 64/64/64 65/65/65
f 64/64/64 66/66/66 67/67/67
f 67/67/67 68/68/68 64/64/64
f 69/69/69 64/64/64 68/68/68
f 69/69/69 70/70/70 64/64/64
f 60/60/60 59/59/59 71/71/71
f 72/72/72 59/59/59 64/64/64
f 72/72/72 64/64/64 70/70/70
f 72/72/72 70/70/70 73/73/73
f 72/72/72 73/73/73 59/59/59
f 74/74/74 73/73/73 70/70/70
f 70/70/70 75/75/75 74/74/74
f 76/76/76 59/59/59 73/73/73
f 59/59/59 76/76/76 77/77/77
f 77/77/77 71/71/71 59/59/59
f 78/78/78 77/77/77 76/76/76
f 77/77/77 78/78/78 79/79/79
f 77/77/77 79/79/79 71/71/71
f 80/80/80 71/71/71 79/79/79
f 83/83/83 82/82/82 81/81/81
f 82/82/82 84/84/84 81/81/81
f 82/82/82 85/85/85 84/84/84
f 86/86/86 84/84/84 85/85/85
f 85/85/85 82/82/82 87/87/87
f 88/88/88 87/87/87 82/82/82
f 88/88/88 89/89/89 87/87/87
f 90/90/90 87/87/87 89/89/89
f 93/93/93 92/92/92 91/91/91
f 94/94/94 91/91/91 92/92/92
f 91/91/91 94/94/94 95/95/95
f 96/96/96 95/95/95 94/94/94
f 95/95/95 96/96/96 97/97/97
f 98/98/98 97/97/97 96/96/96
f 97/97/97 98/98/98 99/99/99
f 100/100/100 99/99/99 98/98/98
f 99/99/99 100/100/100 101/101/101
f 102/102/102 101/101/101 100/100/100
f 101/101/101 102/102/102 103/103/103
f 104/104/104 103/103/103 102/102/102
f 103/103/103 104/104/104 105/105/105
f 106/106/106 105/105/105 104/104/104
f 105/105/105 106/106/106 107/107/107
f 108/108/108 107/107/107 106/106/106
f 107/107/107 108/108/108 109/109/109
f 110/110/110 109/109/109 108/108/108
f 109/109/109 110/110/110 111/111/111
f 112/112/112 111/111/111 110/110/110
f 115/115/115 114/114/114 113/113/113
f 116/116/116 113/113/113 114/114/114
f 113/113/113 116/116/116 117/117/117
f 118/118/118 117/117/117 116/116/116
f 117/117/117 118/118/118 119/119/119
f 120/120/120 119/119/119 118/118/118
f 123/123/123 122/122/122 121/121/121
f 124/124/124 121/121/121 122/122/122
f 121/121/121 124/124/124 125/125/125
f 126/126/126 125/125/125 124/124/124
f 125/125/125 126/126/126 127/127/127
f 128/128/128 127/127/127 126/126/126
f 127/127/127 128/128/128 129/129/129
f 130/130/130 129/129/129 128/128/128
f 129/129/129 130/130/130 131/131/131
f 132/132/132 131/131/131 130/130/130
f 131/131/131 132/132/132 133/133/133
f 134/134/134 133/133/133 132/132/132
f 133/133/133 134/134/134 135/135/135
f 136/136/136 135/135/135 134/134/134
f 139/139/139 138/138/138 137/137/137
f 140/140/140 137/137/137 138/138/138
f 137/137/137 140/140/140 141/141/141
f 142/142/142 141/141/141 140/140/140
f 141/141/141 142/142/142 143/143/143
f 144/144/144 143/143/143 142/142/142
f 147/147/147 146/146/146 145/145/145
f 148/148/148 145/145/145 146/146/146
f 145/145/145 148/148/148 149/149/149
f 150/150/150 149/149/149 148/148/148
f 149/149/149 150/150/150 151/151/151
f 152/152/152 151/151/151 150/150/150
f 151/151/151 152/152/152 153/153/153
f 154/154/154 153/153/153 152/152/152
f 153/153/153 154/154/154 155/155/155
f 156/156/156 155/155/155 154/154/154
f 155/155/155 156/156/156 157/157/157
f 158/158/158 157/157/157 156/156/156
f 161/161/161 160/160/160 159/159/159
f 162/162/162 159/159/159 160/160/160
f 159/159/159 162/162/162 163/163/163
f 164/164/164 163/163/163 162/162/162
f 163/163/163 164/164/164 165/165/165
f 166/166/166 165/165/165 164/164/164
f 169/169/169 168/168/168 167/167/167
f 170/170/170 167/167/167 168/168/168
