g Bomb_Explode_Thin_03_Hull
v 0.04759368 0.2170586 -0.07080265
v 0.05634187 -0.1893328 -0.2215773
v -0.09710303 0.05256428 -0.2227468
v 0.04759368 0.2170586 -0.07080265
v 0.1351385 -0.1960336 -0.181265
v 0.05634187 -0.1893328 -0.2215773
v 0.04759368 0.2170586 -0.07080265
v 0.1270638 0.1727466 -0.06734946
v 0.1351385 -0.1960336 -0.181265
v 0.05154317 0.2241694 -0.07662652
v 0.04759368 0.2170586 -0.07080265
v -0.09710303 0.05256428 -0.2227468
v 0.1323967 0.1792224 -0.07279952
v 0.05154317 0.2241694 -0.07662652
v 0.1155891 0.1901908 -0.0762132
v 0.1323967 0.1792224 -0.07279952
v 0.1351385 -0.1960336 -0.181265
v 0.1270638 0.1727466 -0.06734946
v 0.1323967 0.1792224 -0.07279952
v 0.1398084 -0.1969651 -0.1900629
v 0.1351385 -0.1960336 -0.181265
v 0.05914341 -0.1903314 -0.2311289
v 0.1398084 -0.1969651 -0.1900629
v 0.06767945 -0.1909079 -0.228565
v 0.05914341 -0.1903314 -0.2311289
v -0.09710303 0.05256428 -0.2227468
v 0.05634187 -0.1893328 -0.2215773
v -0.09610444 0.05536567 -0.2322985
v -0.09710303 0.05256428 -0.2227468
v 0.05914341 -0.1903314 -0.2311289
v -0.09610444 0.05536567 -0.2322985
v 0.05154317 0.2241694 -0.07662652
v -0.09710303 0.05256428 -0.2227468
v 0.03593385 0.2030578 -0.109782
v 0.04658384 0.2012498 -0.1079741
v 0.05154317 0.2241694 -0.07662652
v -0.0339683 0.1215169 -0.1917788
v -0.09163962 0.05990103 -0.2305015
v -0.03123619 0.05761892 -0.2248556
v 0.1330306 0.07826917 -0.1485058
v 0.1325656 0.1148503 -0.1287526
v 0.124761 0.1161934 -0.1342148
v 0.03310526 -0.135198 -0.2443204
v 0.06978279 -0.135198 -0.2337722
v -0.02471 -0.03679403 -0.2511996
v 0.0661812 -0.0398029 -0.2248556
v -0.03123619 0.05761892 -0.2248556
v -0.02471 -0.03679403 -0.2511996
v 0.0591563 0.05058959 -0.2015953
v 0.0661812 -0.0398029 -0.2248556
v 0.1398084 -0.1969651 -0.1900629
v 0.137768 -0.135198 -0.1976856
v 0.06978279 -0.135198 -0.2337722
v 0.06767945 -0.1909079 -0.228565
v 0.0661812 -0.0398029 -0.2248556
v 0.1335333 0.04330365 -0.1654837
v 0.0591563 0.05058959 -0.2015953
v 0.1353284 -0.04276019 -0.1890617
v 0.1353284 -0.04276019 -0.1890617
v 0.06978279 -0.135198 -0.2337722
v 0.137768 -0.135198 -0.1976856
v 0.0661812 -0.0398029 -0.2248556
v 0.1353284 -0.04276019 -0.1890617
v 0.137768 -0.135198 -0.1976856
v 0.1335333 0.04330365 -0.1654837
v 0.1398084 -0.1969651 -0.1900629
v 0.1323526 0.173234 -0.07995825
v 0.1323967 0.1792224 -0.07279952
v 0.1325656 0.1148503 -0.1287526
v 0.1330306 0.07826917 -0.1485058
v 0.05115835 0.1322437 -0.1619505
v -0.03123619 0.05761892 -0.2248556
v 0.0591563 0.05058959 -0.2015953
v -0.01730234 0.1399709 -0.1772751
v -0.0339683 0.1215169 -0.1917788
v 0.05115835 0.1322437 -0.1619505
v 0.0591563 0.05058959 -0.2015953
v 0.124761 0.1161934 -0.1342148
v 0.1335333 0.04330365 -0.1654837
v 0.1330306 0.07826917 -0.1485058
v 0.05115835 0.1322437 -0.1619505
v 0.04658384 0.2012498 -0.1079741
v -0.01730234 0.1399709 -0.1772751
v 0.03593385 0.2030578 -0.109782
v 0.1323967 0.1792224 -0.07279952
v 0.1155891 0.1901908 -0.0762132
v 0.1323526 0.173234 -0.07995825
v 0.1134932 0.1816674 -0.08839168
v 0.1323967 0.1792224 -0.07279952
v 0.1270638 0.1727466 -0.06734946
v 0.04759368 0.2170586 -0.07080265
v 0.05154317 0.2241694 -0.07662652
v 0.05914341 -0.1903314 -0.2311289
v 0.1351385 -0.1960336 -0.181265
v 0.1398084 -0.1969651 -0.1900629
v 0.05634187 -0.1893328 -0.2215773
v 0.05914341 -0.1903314 -0.2311289
v 0.06978279 -0.135198 -0.2337722
v 0.03310526 -0.135198 -0.2443204
v 0.06767945 -0.1909079 -0.228565
v 0.05914341 -0.1903314 -0.2311289
v 0.03310526 -0.135198 -0.2443204
v -0.02471 -0.03679403 -0.2511996
v -0.09610444 0.05536567 -0.2322985
v -0.09610444 0.05536567 -0.2322985
v -0.09163962 0.05990103 -0.2305015
v 0.05154317 0.2241694 -0.07662652
v -0.01730234 0.1399709 -0.1772751
v 0.03593385 0.2030578 -0.109782
v -0.0339683 0.1215169 -0.1917788
v -0.09610444 0.05536567 -0.2322985
v -0.02471 -0.03679403 -0.2511996
v -0.03123619 0.05761892 -0.2248556
v -0.09163962 0.05990103 -0.2305015
v 0.1325656 0.1148503 -0.1287526
v 0.1323526 0.173234 -0.07995825
v 0.124761 0.1161934 -0.1342148
v 0.1134932 0.1816674 -0.08839168
v 0.1134932 0.1816674 -0.08839168
v 0.05115835 0.1322437 -0.1619505
v 0.124761 0.1161934 -0.1342148
v 0.04658384 0.2012498 -0.1079741
v 0.1134932 0.1816674 -0.08839168
v 0.05154317 0.2241694 -0.07662652
v 0.04658384 0.2012498 -0.1079741
v 0.1155891 0.1901908 -0.0762132
vn -0.4968436 -0.3112508 0.8101045
vn -0.4968436 -0.3112508 0.8101045
vn -0.4968437 -0.3112509 0.8101045
vn -0.4530505 -0.3186506 0.8325906
vn -0.4530505 -0.3186507 0.8325906
vn -0.4530505 -0.3186507 0.8325906
vn -0.2039684 -0.2930078 0.9341003
vn -0.2039684 -0.2930078 0.9341003
vn -0.2039684 -0.2930078 0.9341003
vn -0.8069801 0.5711764 0.1501349
vn -0.8069801 0.5711765 0.1501349
vn -0.8069801 0.5711764 0.1501349
vn 0.4083683 0.7755842 0.481357
vn 0.4083683 0.7755842 0.481357
vn 0.4083682 0.7755842 0.4813569
vn 0.7950482 -0.1630558 0.5842184
vn 0.7950482 -0.1630558 0.5842184
vn 0.7950482 -0.1630558 0.5842184
vn 0.8698403 -0.1311115 0.4755918
vn 0.8698403 -0.1311115 0.4755918
vn 0.8698403 -0.1311115 0.4755918
vn -0.04622914 -0.9964641 -0.07015953
vn -0.04622914 -0.9964641 -0.07015954
vn -0.04622914 -0.9964641 -0.07015954
vn -0.8289551 -0.5267482 -0.1880688
vn -0.8289551 -0.5267482 -0.1880688
vn -0.8289551 -0.5267482 -0.1880688
vn -0.820538 -0.5196046 -0.238177
vn -0.8205381 -0.5196046 -0.238177
vn -0.820538 -0.5196046 -0.238177
vn -0.7909303 0.6045468 0.09461692
vn -0.7909303 0.6045468 0.09461693
vn -0.7909303 0.6045468 0.09461694
vn 0.2317574 0.7674357 -0.5977717
vn 0.2317573 0.7674357 -0.5977716
vn 0.2317574 0.7674357 -0.5977717
vn 0.09983823 0.4607759 -0.8818831
vn 0.09983823 0.4607759 -0.8818832
vn 0.09983823 0.4607759 -0.8818831
vn 0.5713449 0.3955618 -0.7190938
vn 0.5713449 0.3955618 -0.7190938
vn 0.5713449 0.3955618 -0.7190938
vn 0.2751465 0.09477465 -0.9567195
vn 0.2751465 0.09477465 -0.9567195
vn 0.2751465 0.09477466 -0.9567195
vn 0.2800396 0.09981582 -0.9547852
vn 0.2596017 0.276155 -0.9253893
vn 0.2596017 0.276155 -0.9253893
vn 0.2596017 0.276155 -0.9253893
vn 0.2767574 0.2595895 -0.9252127
vn 0.4668087 -0.09311149 -0.8794429
vn 0.4668086 -0.09311149 -0.8794429
vn 0.4668086 -0.09311148 -0.8794429
vn 0.4620175 -0.09981233 -0.8812363
vn 0.4424036 0.2555854 -0.859625
vn 0.4424036 0.2555854 -0.859625
vn 0.4424036 0.2555854 -0.859625
vn 0.4540052 0.244219 -0.8568758
vn 0.4667538 0.09435539 -0.8793395
vn 0.4667538 0.09435539 -0.8793395
vn 0.4667538 0.09435539 -0.8793395
vn 0.4607756 0.09982547 -0.8818848
vn 0.999104 0.02922485 -0.03061019
vn 0.9991038 0.02922584 -0.03061574
vn 0.9991038 0.02922584 -0.03061575
vn 0.9991038 0.02922584 -0.03061575
vn 0.9991042 0.02922485 -0.03060601
vn 0.9991042 0.02922419 -0.03060393
vn 0.9991037 0.02923108 -0.03061549
vn 0.9991074 0.02918856 -0.03053261
vn 0.2556056 0.4424012 -0.8596203
vn 0.2556056 0.4424012 -0.8596203
vn 0.2556056 0.4424011 -0.8596203
vn 0.243122 0.4540943 -0.8571407
vn 0.243122 0.4540944 -0.8571406
vn 0.398988 0.4318246 -0.8089105
vn 0.4318279 0.3989843 -0.8089105
vn 0.4318279 0.3989843 -0.8089105
vn 0.4318279 0.3989843 -0.8089105
vn 0.4318227 0.3989847 -0.8089131
vn 0.2381533 0.6081257 -0.7572755
vn 0.2381534 0.6081257 -0.7572755
vn 0.2381534 0.6081256 -0.7572756
vn 0.2322437 0.6124339 -0.7556371
vn 0.5330818 0.6473246 -0.5447885
vn 0.5330818 0.6473246 -0.5447886
vn 0.5330819 0.6473246 -0.5447885
vn 0.5330799 0.6473233 -0.544792
vn 0.2426189 0.4999083 0.8314011
vn 0.2426189 0.4999082 0.8314011
vn 0.2426189 0.4999083 0.8314011
vn 0.2533091 0.5248594 0.8126236
vn -0.10644 -0.9931283 0.04865022
vn -0.10644 -0.9931283 0.04865022
vn -0.10644 -0.9931283 0.04865022
vn -0.1193032 -0.9904882 0.06855629
vn 0.2750349 -0.09892476 -0.9563314
vn 0.2750349 -0.09892476 -0.9563314
vn 0.2750349 -0.09892476 -0.9563314
vn 0.2800387 -0.09981626 -0.9547853
vn -0.7319599 -0.464871 -0.498126
vn -0.7319599 -0.464871 -0.498126
vn -0.73196 -0.464871 -0.498126
vn -0.731955 -0.4648695 -0.4981348
vn -0.6769247 0.7223681 -0.1412705
vn -0.6769188 0.7223714 -0.1412814
vn -0.6769188 0.7223714 -0.1412813
vn -0.6769189 0.7223714 -0.1412813
vn -0.6769226 0.7223687 -0.1412767
vn -0.6769122 0.7223747 -0.1412959
vn 0.1002398 0.2738311 -0.9565399
vn 0.1002398 0.2738311 -0.9565399
vn 0.1002398 0.2738311 -0.9565399
vn 0.0998237 0.2800245 -0.9547887
vn 0.5430983 0.5396279 -0.6433085
vn 0.5430983 0.5396279 -0.6433085
vn 0.5430983 0.5396279 -0.6433085
vn 0.5330796 0.5447856 -0.647329
vn 0.3955662 0.5713445 -0.7190917
vn 0.3955662 0.5713445 -0.7190917
vn 0.3955662 0.5713445 -0.7190917
vn 0.3807995 0.5852177 -0.7158995
vn 0.3807548 0.716709 -0.5842552
vn 0.3807547 0.716709 -0.5842552
vn 0.3807548 0.716709 -0.5842552
vn 0.3871464 0.7227646 -0.5724763
g Bomb_Explode_Thin_03_Hull_0
f 3/3/3 2/2/2 1/1/1
f 6/6/6 5/5/5 4/4/4
f 9/9/9 8/8/8 7/7/7
f 12/12/12 11/11/11 10/10/10
f 15/15/15 14/14/14 13/13/13
f 18/18/18 17/17/17 16/16/16
f 21/21/21 20/20/20 19/19/19
f 24/24/24 23/23/23 22/22/22
f 27/27/27 26/26/26 25/25/25
f 30/30/30 29/29/29 28/28/28
f 33/33/33 32/32/32 31/31/31
f 36/36/36 35/35/35 34/34/34
f 39/39/39 38/38/38 37/37/37
f 42/42/42 41/41/41 40/40/40
f 45/45/45 44/44/44 43/43/43
f 44/44/44 45/45/45 46/46/46
f 49/49/49 48/48/48 47/47/47
f 48/48/48 49/49/49 50/50/50
f 53/53/53 52/52/52 51/51/51
f 54/54/54 53/53/53 51/51/51
f 57/57/57 56/56/56 55/55/55
f 55/55/55 56/56/56 58/58/58
f 61/61/61 60/60/60 59/59/59
f 60/60/60 62/62/62 59/59/59
f 65/65/65 64/64/64 63/63/63
f 64/64/64 65/65/65 66/66/66
f 66/66/66 65/65/65 67/67/67
f 66/66/66 67/67/67 68/68/68
f 67/67/67 65/65/65 69/69/69
f 69/69/69 65/65/65 70/70/70
f 73/73/73 72/72/72 71/71/71
f 72/72/72 74/74/74 71/71/71
f 74/74/74 72/72/72 75/75/75
f 78/78/78 77/77/77 76/76/76
f 78/78/78 79/79/79 77/77/77
f 79/79/79 78/78/78 80/80/80
f 83/83/83 82/82/82 81/81/81
f 82/82/82 83/83/83 84/84/84
f 87/87/87 86/86/86 85/85/85
f 86/86/86 87/87/87 88/88/88
f 91/91/91 90/90/90 89/89/89
f 92/92/92 91/91/91 89/89/89
f 95/95/95 94/94/94 93/93/93
f 94/94/94 96/96/96 93/93/93
f 99/99/99 98/98/98 97/97/97
f 98/98/98 100/100/100 97/97/97
f 103/103/103 102/102/102 101/101/101
f 103/103/103 101/101/101 104/104/104
f 107/107/107 106/106/106 105/105/105
f 108/108/108 106/106/106 107/107/107
f 108/108/108 107/107/107 109/109/109
f 106/106/106 108/108/108 110/110/110
f 113/113/113 112/112/112 111/111/111
f 114/114/114 113/113/113 111/111/111
f 117/117/117 116/116/116 115/115/115
f 116/116/116 117/117/117 118/118/118
f 121/121/121 120/120/120 119/119/119
f 120/120/120 122/122/122 119/119/119
f 125/125/125 124/124/124 123/123/123
f 124/124/124 126/126/126 123/123/123
