g Bomb_Explode_Thin_08_Hull
v 0.0691146 -0.1285124 -0.1617236
v -0.05369695 -0.1044642 -0.1428038
v -0.2134522 0.05165639 0.07558481
v 0.0691146 -0.1285124 -0.1617236
v 0.05081508 -0.1202774 -0.1716993
v -0.05369695 -0.1044642 -0.1428038
v 0.0691146 -0.1285124 -0.1617236
v -0.2134522 0.05165639 0.07558481
v 0.1128694 0.1442533 0.149065
v 0.03958704 0.1543806 0.1223134
v -0.05583946 0.1372924 0.09749719
v 0.03958727 0.1005063 0.007423631
v 0.03958704 0.1543806 0.1223134
v 0.03958727 0.1005063 0.007423631
v 0.1349819 0.1370559 0.09668116
v -0.05469574 -0.09985474 -0.1516262
v -0.1365255 -0.02349935 -0.08111148
v -0.05369695 -0.1044642 -0.1428038
v -0.05469574 -0.09985474 -0.1516262
v -0.05369695 -0.1044642 -0.1428038
v 0.05081508 -0.1202774 -0.1716993
v 0.1138681 0.1538051 0.1462637
v 0.03958704 0.1543806 0.1223134
v 0.1349819 0.1370559 0.09668116
v -0.2177723 0.05974862 0.07159325
v -0.2134522 0.05165639 0.07558481
v -0.2076394 0.04798558 0.03719662
v 0.07457831 -0.1211753 -0.1694782
v 0.0691146 -0.1285124 -0.1617236
v 0.1489159 -0.04110508 -0.1162516
v 0.07457831 -0.1211753 -0.1694782
v 0.05081508 -0.1202774 -0.1716993
v 0.0691146 -0.1285124 -0.1617236
v 0.1313761 0.09340055 0.01234909
v 0.1349819 0.1370559 0.09668116
v 0.03958727 0.1005063 0.007423631
v 0.2138123 0.03598309 -0.00977837
v 0.1128694 0.1442533 0.149065
v 0.2177618 0.04309398 -0.01560228
v 0.2138123 0.03598309 -0.00977837
v 0.0691146 -0.1285124 -0.1617236
v 0.1128694 0.1442533 0.149065
v 0.2138123 0.03598309 -0.00977837
v 0.1489159 -0.04110508 -0.1162516
v 0.0691146 -0.1285124 -0.1617236
v -0.05220397 -0.03912533 -0.1201768
v -0.1365255 -0.02349935 -0.08111148
v -0.05469574 -0.09985474 -0.1516262
v -0.05220397 0.09340055 0.01234909
v 0.03958727 0.1005063 0.007423631
v -0.05583946 0.1372924 0.09749719
v -0.1703046 0.009439724 -0.03621599
v -0.1365255 -0.02349935 -0.08111148
v -0.1336276 0.02017406 -0.04695028
v -0.1703046 0.009439724 -0.03621599
v -0.2076394 0.04798558 0.03719662
v -0.2134522 0.05165639 0.07558481
v 0.2021522 0.021982 -0.04875822
v 0.2138123 0.03598309 -0.00977837
v 0.2177618 0.04309398 -0.01560228
v 0.2021522 0.021982 -0.04875822
v 0.1489159 -0.04110508 -0.1162516
v 0.2138123 0.03598309 -0.00977837
v 0.2021522 0.021982 -0.04875822
v 0.1289581 0.03440735 -0.06118361
v 0.1489159 -0.04110508 -0.1162516
v 0.1440454 0.1347237 0.09738596
v 0.1138681 0.1538051 0.1462637
v 0.1349819 0.1370559 0.09668116
v 0.03958727 -0.03419987 -0.1272825
v 0.1489159 -0.04110508 -0.1162516
v 0.1289581 0.03440735 -0.06118361
v 0.03958711 0.04003645 -0.06681271
v -0.1439699 0.1027003 0.08085839
v -0.05583946 0.1372924 0.09749719
v 0.03958704 0.1543806 0.1223134
v 0.1138681 0.1538051 0.1462637
v -0.2177723 0.05974862 0.07159325
v 0.1128694 0.1442533 0.149065
v -0.2134522 0.05165639 0.07558481
v -0.1439699 0.1027003 0.08085839
v -0.1382064 0.07415055 0.02205614
v -0.05583946 0.1372924 0.09749719
v -0.05220397 0.09340055 0.01234909
v -0.1439699 0.1027003 0.08085839
v -0.2076394 0.04798558 0.03719662
v -0.1382064 0.07415055 0.02205614
v -0.2177723 0.05974862 0.07159325
v -0.05469574 -0.09985474 -0.1516262
v 0.05081508 -0.1202774 -0.1716993
v 0.03958727 -0.03419987 -0.1272825
v -0.05220397 -0.03912533 -0.1201768
v 0.1138681 0.1538051 0.1462637
v 0.2177618 0.04309398 -0.01560228
v 0.1128694 0.1442533 0.149065
v 0.1942453 0.07932823 0.01944524
v 0.1440454 0.1347237 0.09738596
v 0.07457831 -0.1211753 -0.1694782
v 0.03958727 -0.03419987 -0.1272825
v 0.05081508 -0.1202774 -0.1716993
v 0.1489159 -0.04110508 -0.1162516
v 0.1313761 0.09340055 0.01234909
v 0.03958727 0.1005063 0.007423631
v 0.1289581 0.03440735 -0.06118361
v 0.03958711 0.04003645 -0.06681271
v 0.03958711 0.04003645 -0.06681271
v -0.04978333 0.03440735 -0.06118361
v 0.03958727 -0.03419987 -0.1272825
v -0.05220397 -0.03912533 -0.1201768
v 0.03958711 0.04003645 -0.06681271
v 0.03958727 0.1005063 0.007423631
v -0.04978333 0.03440735 -0.06118361
v -0.05220397 0.09340055 0.01234909
v -0.1336276 0.02017406 -0.04695028
v -0.05220397 0.09340055 0.01234909
v -0.1382064 0.07415055 0.02205614
v -0.04978333 0.03440735 -0.06118361
v -0.1336276 0.02017406 -0.04695028
v -0.05220397 -0.03912533 -0.1201768
v -0.04978333 0.03440735 -0.06118361
v -0.1365255 -0.02349935 -0.08111148
v -0.1703046 0.009439724 -0.03621599
v -0.1382064 0.07415055 0.02205614
v -0.2076394 0.04798558 0.03719662
v -0.1336276 0.02017406 -0.04695028
v -0.1703046 0.009439724 -0.03621599
v -0.05369695 -0.1044642 -0.1428038
v -0.1365255 -0.02349935 -0.08111148
v -0.2134522 0.05165639 0.07558481
v 0.1942453 0.07932823 0.01944524
v 0.1349819 0.1370559 0.09668116
v 0.1313761 0.09340055 0.01234909
v 0.1440454 0.1347237 0.09738596
v 0.2021522 0.021982 -0.04875822
v 0.1313761 0.09340055 0.01234909
v 0.1289581 0.03440735 -0.06118361
v 0.1942453 0.07932823 0.01944524
v 0.2177618 0.04309398 -0.01560228
vn -0.08091125 -0.8378944 0.5398022
vn -0.08091123 -0.8378944 0.5398021
vn -0.08091123 -0.8378944 0.5398021
vn -0.2303038 -0.9145551 -0.3324893
vn -0.2303038 -0.9145551 -0.3324893
vn -0.2303038 -0.9145551 -0.3324893
vn 0.06711885 -0.7545573 0.6527928
vn 0.06711884 -0.7545574 0.6527928
vn 0.06711885 -0.7545573 0.6527928
vn -0.05165246 0.9041907 -0.4239945
vn -0.05165246 0.9041907 -0.4239945
vn -0.05165246 0.9041907 -0.4239945
vn 0.05028781 0.9042537 -0.4240239
vn 0.05028781 0.9042537 -0.4240239
vn 0.05028781 0.9042537 -0.424024
vn -0.7624245 -0.60492 -0.2297405
vn -0.7624245 -0.60492 -0.2297405
vn -0.7624245 -0.60492 -0.2297405
vn -0.2493904 -0.8696138 -0.4261175
vn -0.2493904 -0.8696138 -0.4261176
vn -0.2493904 -0.8696138 -0.4261175
vn 0.09793895 0.9547521 -0.2808135
vn 0.09793895 0.9547521 -0.2808135
vn 0.09793894 0.9547521 -0.2808135
vn -0.8616491 -0.5007392 -0.08259023
vn -0.8616491 -0.5007392 -0.08259022
vn -0.8616491 -0.5007392 -0.08259024
vn 0.7566575 -0.6488057 -0.08075073
vn 0.7566575 -0.6488057 -0.08075073
vn 0.7566575 -0.6488057 -0.08075073
vn 0.03508245 -0.7381667 -0.6737055
vn 0.03508245 -0.7381667 -0.6737055
vn 0.03508245 -0.7381667 -0.6737056
vn 0.09305395 0.8825827 -0.4608566
vn 0.09305394 0.8825827 -0.4608566
vn 0.09305393 0.8825826 -0.4608566
vn 0.8380014 -0.01878713 0.5453446
vn 0.8380014 -0.01878713 0.5453446
vn 0.8380014 -0.01878713 0.5453446
vn 0.189665 -0.7510282 0.6324427
vn 0.189665 -0.7510282 0.6324427
vn 0.189665 -0.7510282 0.6324427
vn 0.7215573 -0.6897833 0.05961699
vn 0.7215573 -0.6897833 0.05961699
vn 0.7215573 -0.6897833 0.05961699
vn -0.3062711 0.4476368 -0.8401305
vn -0.3062711 0.4476368 -0.8401305
vn -0.3062712 0.4476368 -0.8401305
vn -0.09303138 0.8833789 -0.4593332
vn -0.09303138 0.8833789 -0.4593332
vn -0.09303138 0.8833789 -0.4593332
vn -0.3808001 0.5852321 -0.7158873
vn -0.3808 0.5852321 -0.7158872
vn -0.3808 0.5852321 -0.7158872
vn -0.7676862 -0.6384447 -0.0551943
vn -0.7676862 -0.6384447 -0.0551943
vn -0.7676862 -0.6384446 -0.05519429
vn 0.8486713 -0.5248697 -0.06533743
vn 0.8486713 -0.5248697 -0.06533743
vn 0.8486713 -0.5248697 -0.06533743
vn 0.7616461 -0.6479746 0.004912311
vn 0.7616461 -0.6479746 0.004912311
vn 0.7616461 -0.6479746 0.004912311
vn 0.2322426 0.6124347 -0.7556369
vn 0.2322426 0.6124347 -0.7556369
vn 0.2322426 0.6124346 -0.7556369
vn 0.2589 0.943164 -0.2083565
vn 0.2589 0.943164 -0.2083565
vn 0.2589 0.943164 -0.2083566
vn 0.1176632 0.605241 -0.7872983
vn 0.1176632 0.605241 -0.7872984
vn 0.1176632 0.605241 -0.7872983
vn 0.08826786 0.6290885 -0.772306
vn -0.2903135 0.3030379 0.9076817
vn -0.2903135 0.3030379 0.9076817
vn -0.2903135 0.3030379 0.9076817
vn -0.2903139 0.3030396 0.9076811
vn -0.290314 0.3030398 0.907681
vn -0.2888148 0.2950643 0.9107816
vn -0.2888148 0.2950643 0.9107816
vn -0.2540405 0.8600482 -0.442471
vn -0.2540405 0.8600482 -0.442471
vn -0.2540405 0.8600482 -0.442471
vn -0.2431162 0.8579223 -0.452619
vn -0.3989914 0.8088984 -0.4318438
vn -0.3989914 0.8088984 -0.4318438
vn -0.3989914 0.8088984 -0.4318438
vn -0.4222785 0.812348 -0.4022082
vn -0.08250924 0.4484751 -0.8899789
vn -0.08250924 0.4484751 -0.8899789
vn -0.08250924 0.4484751 -0.8899789
vn -0.09305131 0.4608692 -0.8825764
vn 0.8581551 0.05981713 0.5098938
vn 0.8581551 0.05981713 0.5098938
vn 0.8581551 0.05981713 0.5098938
vn 0.8609714 0.07169968 0.5035746
vn 0.8609706 0.07169445 0.5035768
vn 0.09977413 0.4665177 -0.8788666
vn 0.09977411 0.4665177 -0.8788664
vn 0.09977411 0.4665177 -0.8788664
vn 0.1179578 0.4714555 -0.8739656
vn 0.09353459 0.7750807 -0.624901
vn 0.09353458 0.7750807 -0.624901
vn 0.09353458 0.7750807 -0.624901
vn 0.0882679 0.772306 -0.6290883
vn -0.08826835 0.6290882 -0.7723061
vn -0.08826835 0.6290882 -0.7723061
vn -0.08826835 0.6290882 -0.7723061
vn -0.09353179 0.6249034 -0.7750791
vn -0.08826839 0.7723061 -0.6290881
vn -0.08826838 0.7723061 -0.6290881
vn -0.08826839 0.7723062 -0.6290881
vn -0.09353211 0.7750793 -0.6249031
vn -0.2381405 0.7572714 -0.6081358
vn -0.2381405 0.7572714 -0.6081358
vn -0.2381405 0.7572714 -0.6081357
vn -0.2322688 0.7549255 -0.6133015
vn -0.2322688 0.6133017 -0.7549253
vn -0.2322688 0.6133016 -0.7549253
vn -0.2322688 0.6133017 -0.7549253
vn -0.2381402 0.6081364 -0.757271
vn -0.3952118 0.7151668 -0.5764928
vn -0.3952118 0.7151668 -0.5764928
vn -0.3952118 0.7151667 -0.5764929
vn -0.3808002 0.7158876 -0.5852317
vn -0.7001156 -0.7140237 -0.002896381
vn -0.7001156 -0.7140237 -0.002896381
vn -0.7001156 -0.7140237 -0.002896381
vn -0.6984429 -0.7156655 0.0006878641
vn 0.2431128 0.8571393 -0.4541018
vn 0.2431128 0.8571393 -0.4541018
vn 0.2431128 0.8571393 -0.4541018
vn 0.2554499 0.8581293 -0.4453754
vn 0.2322688 0.7549296 -0.6132963
vn 0.2322688 0.7549296 -0.6132963
vn 0.2322688 0.7549296 -0.6132963
vn 0.2381076 0.7568065 -0.6087271
vn 0.2620353 0.7534038 -0.6030922
g Bomb_Explode_Thin_08_Hull_0
f 3/3/3 2/2/2 1/1/1
f 6/6/6 5/5/5 4/4/4
f 9/9/9 8/8/8 7/7/7
f 12/12/12 11/11/11 10/10/10
f 15/15/15 14/14/14 13/13/13
f 18/18/18 17/17/17 16/16/16
f 21/21/21 20/20/20 19/19/19
f 24/24/24 23/23/23 22/22/22
f 27/27/27 26/26/26 25/25/25
f 30/30/30 29/29/29 28/28/28
f 33/33/33 32/32/32 31/31/31
f 36/36/36 35/35/35 34/34/34
f 39/39/39 38/38/38 37/37/37
f 42/42/42 41/41/41 40/40/40
f 45/45/45 44/44/44 43/43/43
f 48/48/48 47/47/47 46/46/46
f 51/51/51 50/50/50 49/49/49
f 54/54/54 53/53/53 52/52/52
f 57/57/57 56/56/56 55/55/55
f 60/60/60 59/59/59 58/58/58
f 63/63/63 62/62/62 61/61/61
f 66/66/66 65/65/65 64/64/64
f 69/69/69 68/68/68 67/67/67
f 72/72/72 71/71/71 70/70/70
f 72/72/72 70/70/70 73/73/73
f 76/76/76 75/75/75 74/74/74
f 76/76/76 74/74/74 77/77/77
f 77/77/77 74/74/74 78/78/78
f 79/79/79 77/77/77 78/78/78
f 80/80/80 79/79/79 78/78/78
f 83/83/83 82/82/82 81/81/81
f 82/82/82 83/83/83 84/84/84
f 87/87/87 86/86/86 85/85/85
f 85/85/85 86/86/86 88/88/88
f 91/91/91 90/90/90 89/89/89
f 91/91/91 89/89/89 92/92/92
f 95/95/95 94/94/94 93/93/93
f 93/93/93 94/94/94 96/96/96
f 93/93/93 96/96/96 97/97/97
f 100/100/100 99/99/99 98/98/98
f 99/99/99 101/101/101 98/98/98
f 104/104/104 103/103/103 102/102/102
f 103/103/103 104/104/104 105/105/105
f 108/108/108 107/107/107 106/106/106
f 107/107/107 108/108/108 109/109/109
f 112/112/112 111/111/111 110/110/110
f 111/111/111 112/112/112 113/113/113
f 116/116/116 115/115/115 114/114/114
f 115/115/115 117/117/117 114/114/114
f 120/120/120 119/119/119 118/118/118
f 119/119/119 121/121/121 118/118/118
f 124/124/124 123/123/123 122/122/122
f 123/123/123 125/125/125 122/122/122
f 128/128/128 127/127/127 126/126/126
f 127/127/127 129/129/129 126/126/126
f 132/132/132 131/131/131 130/130/130
f 130/130/130 131/131/131 133/133/133
f 136/136/136 135/135/135 134/134/134
f 135/135/135 137/137/137 134/134/134
f 137/137/137 138/138/138 134/134/134
