g Bomb_Explode_Thin_04_Hull
v -0.05033933 0.01902992 0.1748226
v -0.07418193 -0.1636096 0.1984228
v -0.08915649 -0.06821919 0.1498077
v -0.08915649 0.02919783 0.05239066
v -0.05033933 0.01902992 0.1748226
v -0.08915649 -0.06821919 0.1498077
v -0.08915649 0.02919783 0.05239066
v -0.02625357 0.1038189 0.1347812
v -0.05033933 0.01902992 0.1748226
v -0.08915649 0.02919783 0.05239066
v -0.05261226 0.1184506 -0.04299886
v -0.02625357 0.1038189 0.1347812
v -0.1084063 -0.1083302 -0.184475
v -0.07371126 0.02453031 -0.1984113
v -0.1164881 -0.06509769 -0.1415108
v -0.06442926 -0.1776324 0.1925688
v -0.07418193 -0.1636096 0.1984228
v -0.05033933 0.01902992 0.1748226
v -0.09401666 -0.2070021 0.1517727
v -0.06442926 -0.1776324 0.1925688
v -0.1187336 -0.2380433 0.05598535
v -0.09401666 -0.2070021 0.1517727
v -0.07418193 -0.1636096 0.1984228
v -0.06442926 -0.1776324 0.1925688
v -0.1364003 -0.1636096 -0.0429989
v -0.1164881 -0.06509769 -0.1415108
v -0.1256752 -0.06316413 -0.0429989
v -0.03128512 0.1063557 -0.1983048
v 0.01348231 0.1870543 -0.1323648
v -0.05261226 0.1184506 -0.04299886
v 0.01348231 0.1870542 0.04636624
v -0.02625357 0.1038189 0.1347812
v -0.05261226 0.1184506 -0.04299886
v 0.02235237 0.1781869 0.0986019
v 0.01348231 0.1870542 0.04636624
v 0.083548 0.2450494 0.03371488
v 0.02235237 0.1781869 0.0986019
v -0.02625357 0.1038189 0.1347812
v 0.01348231 0.1870542 0.04636624
v -0.1277045 -0.2450493 -0.0429989
v -0.1186104 -0.2243836 -0.1471088
v -0.1364003 -0.1636096 -0.0429989
v -0.1277045 -0.2450493 -0.0429989
v -0.1051993 -0.2084926 -0.1628473
v -0.1186104 -0.2243836 -0.1471088
v -0.1256752 -0.1636096 0.05744569
v -0.09401666 -0.2070021 0.1517727
v -0.1187336 -0.2380433 0.05598535
v 0.02340338 0.1771362 -0.1907899
v 0.03603886 0.205151 -0.1331066
v 0.01348231 0.1870543 -0.1323648
v 0.02340338 0.1771362 -0.1907899
v 0.03483423 0.1742535 -0.1872738
v 0.03603886 0.205151 -0.1331066
v 0.02340338 0.1771362 -0.1907899
v -0.03128512 0.1063557 -0.1983048
v 0.03483423 0.1742535 -0.1872738
v 0.02340338 0.1771362 -0.1907899
v 0.01348231 0.1870543 -0.1323648
v -0.03128512 0.1063557 -0.1983048
v -0.09807254 0.03280183 -0.04299886
v -0.1164881 -0.06509769 -0.1415108
v -0.07371126 0.02453031 -0.1984113
v -0.09807254 0.03280183 -0.04299886
v -0.1256752 -0.06316413 -0.0429989
v -0.1164881 -0.06509769 -0.1415108
v -0.09807254 0.03280183 -0.04299886
v -0.05261226 0.1184506 -0.04299886
v -0.08915649 0.02919783 0.05239066
v -0.1164881 -0.06509772 0.05551298
v -0.08915649 -0.06821919 0.1498077
v -0.1256752 -0.1636096 0.05744569
v -0.1164881 -0.06509772 0.05551298
v -0.08915649 0.02919783 0.05239066
v -0.08915649 -0.06821919 0.1498077
v -0.02219934 0.1014728 0.14554
v -0.05033933 0.01902992 0.1748226
v -0.02625357 0.1038189 0.1347812
v -0.02219934 0.1014728 0.14554
v -0.02625357 0.1038189 0.1347812
v 0.02235237 0.1781869 0.0986019
v -0.116316 -0.1636096 -0.1759837
v -0.1364003 -0.1636096 -0.0429989
v -0.1186104 -0.2243836 -0.1471088
v -0.116316 -0.1636096 -0.1759837
v -0.1164881 -0.06509769 -0.1415108
v -0.1364003 -0.1636096 -0.0429989
v -0.116316 -0.1636096 -0.1759837
v -0.1186104 -0.2243836 -0.1471088
v -0.1051993 -0.2084926 -0.1628473
v -0.116316 -0.1636096 -0.1759837
v -0.1084063 -0.1083302 -0.184475
v -0.1164881 -0.06509769 -0.1415108
v 0.08983789 0.2373273 0.03277957
v -0.02219934 0.1014728 0.14554
v 0.02235237 0.1781869 0.0986019
v 0.08983789 0.2373273 0.03277957
v 0.02235237 0.1781869 0.0986019
v 0.083548 0.2450494 0.03371488
v 0.08983789 0.2373273 0.03277957
v -0.1051993 -0.2084926 -0.1628473
v -0.06442926 -0.1776324 0.1925688
v 0.08983789 0.2373273 0.03277957
v 0.03483423 0.1742535 -0.1872738
v -0.1051993 -0.2084926 -0.1628473
v 0.007849082 0.1926831 -0.04299883
v -0.05261226 0.1184506 -0.04299886
v 0.01348231 0.1870543 -0.1323648
v 0.007849082 0.1926831 -0.04299883
v 0.01348231 0.1870542 0.04636624
v -0.05261226 0.1184506 -0.04299886
v 0.007849082 0.1926831 -0.04299883
v 0.083548 0.2450494 0.03371488
v 0.01348231 0.1870542 0.04636624
v 0.007849082 0.1926831 -0.04299883
v 0.03603886 0.205151 -0.1331066
v 0.083548 0.2450494 0.03371488
v 0.007849082 0.1926831 -0.04299883
v 0.01348231 0.1870543 -0.1323648
v 0.03603886 0.205151 -0.1331066
v -0.09401666 -0.2070021 0.1517727
v -0.08915649 -0.06821919 0.1498077
v -0.07418193 -0.1636096 0.1984228
v -0.1256752 -0.1636096 0.05744569
v -0.03128512 0.1063557 -0.1983048
v -0.07371126 0.02453031 -0.1984113
v 0.03483423 0.1742535 -0.1872738
v -0.1051993 -0.2084926 -0.1628473
v -0.1084063 -0.1083302 -0.184475
v -0.116316 -0.1636096 -0.1759837
v -0.1277045 -0.2450493 -0.0429989
v -0.1364003 -0.1636096 -0.0429989
v -0.1187336 -0.2380433 0.05598535
v -0.1256752 -0.1636096 0.05744569
v -0.1277045 -0.2450493 -0.0429989
v -0.1187336 -0.2380433 0.05598535
v -0.06442926 -0.1776324 0.1925688
v -0.1051993 -0.2084926 -0.1628473
v -0.09807254 0.03280183 -0.04299886
v -0.03128512 0.1063557 -0.1983048
v -0.05261226 0.1184506 -0.04299886
v -0.07371126 0.02453031 -0.1984113
v -0.1164881 -0.06509772 0.05551298
v -0.09807254 0.03280183 -0.04299886
v -0.08915649 0.02919783 0.05239066
v -0.1256752 -0.06316413 -0.0429989
v -0.1164881 -0.06509772 0.05551298
v -0.1364003 -0.1636096 -0.0429989
v -0.1256752 -0.06316413 -0.0429989
v -0.1256752 -0.1636096 0.05744569
v -0.02219934 0.1014728 0.14554
v -0.06442926 -0.1776324 0.1925688
v -0.05033933 0.01902992 0.1748226
v 0.08983789 0.2373273 0.03277957
v 0.08983789 0.2373273 0.03277957
v 0.03603886 0.205151 -0.1331066
v 0.03483423 0.1742535 -0.1872738
v 0.083548 0.2450494 0.03371488
vn -0.7848724 0.1791133 0.5932063
vn -0.7848724 0.1791133 0.5932063
vn -0.7848724 0.1791133 0.5932063
vn -0.8983493 0.3106191 0.3106192
vn -0.8983493 0.3106191 0.3106192
vn -0.8983493 0.3106191 0.3106192
vn -0.8672541 0.3915667 0.307483
vn -0.8672541 0.3915667 0.307483
vn -0.8672541 0.3915667 0.3074831
vn -0.8369641 0.5211591 0.1669858
vn -0.8369641 0.5211591 0.1669858
vn -0.8369641 0.5211591 0.1669858
vn -0.9075902 0.1981815 -0.3701409
vn -0.9075902 0.1981815 -0.3701408
vn -0.9075902 0.1981815 -0.3701409
vn 0.5515457 0.03568598 0.833381
vn 0.5515457 0.03568597 0.833381
vn 0.5515457 0.03568597 0.833381
vn 0.6443546 -0.7605114 0.08018493
vn 0.6443546 -0.7605114 0.08018493
vn 0.6443546 -0.7605114 0.08018493
vn -0.4045969 -0.5774322 0.7091357
vn -0.4045969 -0.5774323 0.7091357
vn -0.4045968 -0.5774322 0.7091357
vn -0.989908 0.1056978 -0.09439303
vn -0.989908 0.1056978 -0.09439303
vn -0.989908 0.1056978 -0.09439303
vn -0.8046434 0.5731345 -0.155131
vn -0.8046434 0.5731345 -0.155131
vn -0.8046434 0.5731345 -0.155131
vn -0.8094457 0.5631356 0.1663605
vn -0.8094457 0.5631356 0.1663605
vn -0.8094457 0.5631357 0.1663606
vn -0.5951159 0.7695183 0.2316867
vn -0.595116 0.7695183 0.2316867
vn -0.595116 0.7695183 0.2316867
vn -0.7586187 0.6087678 0.2321624
vn -0.7586187 0.6087678 0.2321623
vn -0.7586187 0.6087678 0.2321623
vn -0.988606 -0.1055592 -0.1073097
vn -0.988606 -0.1055592 -0.1073097
vn -0.988606 -0.1055592 -0.1073097
vn 0.7257099 -0.684179 -0.07241681
vn 0.7257099 -0.6841791 -0.0724168
vn 0.7257099 -0.6841791 -0.07241681
vn -0.9560943 -0.09460656 0.2773687
vn -0.9560942 -0.09460656 0.2773687
vn -0.9560942 -0.09460656 0.2773687
vn -0.6132965 0.7549211 -0.2322962
vn -0.6132966 0.7549211 -0.2322963
vn -0.6132965 0.7549211 -0.2322962
vn 0.349048 0.8106304 -0.470153
vn 0.349048 0.8106304 -0.470153
vn 0.349048 0.8106304 -0.470153
vn 0.2679903 -0.1053875 -0.9576402
vn 0.2679903 -0.1053876 -0.9576402
vn 0.2679903 -0.1053876 -0.9576402
vn -0.7576038 0.6100153 -0.232202
vn -0.7576038 0.6100154 -0.232202
vn -0.7576038 0.6100154 -0.232202
vn -0.9266529 0.3386075 -0.1632769
vn -0.9266529 0.3386075 -0.1632769
vn -0.9266529 0.3386074 -0.1632769
vn -0.9567239 0.2751826 -0.0946249
vn -0.9567239 0.2751826 -0.0946249
vn -0.9567239 0.2751826 -0.09462491
vn -0.8788819 0.4664888 0.09977385
vn -0.8788819 0.4664889 0.09977385
vn -0.8788818 0.4664888 0.09977385
vn -0.9553193 0.09458669 0.2800329
vn -0.9553193 0.0945867 0.2800329
vn -0.9553193 0.09458669 0.2800329
vn -0.9206794 0.2759977 0.2759978
vn -0.9206794 0.2759977 0.2759978
vn -0.9206794 0.2759977 0.2759978
vn -0.8152595 0.4199119 0.3987805
vn -0.8152595 0.4199119 0.3987805
vn -0.8152595 0.4199118 0.3987805
vn -0.6720531 0.6291975 0.3904548
vn -0.6720531 0.6291975 0.3904548
vn -0.6720531 0.6291975 0.3904549
vn -0.9882284 -0.03360334 -0.1492493
vn -0.9882284 -0.03360334 -0.1492493
vn -0.9882284 -0.03360334 -0.1492493
vn -0.987527 0.05046621 -0.1491434
vn -0.987527 0.05046622 -0.1491434
vn -0.987527 0.05046621 -0.1491434
vn -0.5034265 -0.3552182 -0.7876432
vn -0.5034265 -0.3552181 -0.7876432
vn -0.5034265 -0.3552181 -0.7876433
vn -0.9567248 0.09462466 -0.2751796
vn -0.9567248 0.09462466 -0.2751796
vn -0.9567248 0.09462466 -0.2751797
vn 0.6650344 0.06878261 0.7436386
vn 0.6650343 0.06878261 0.7436386
vn 0.6650344 0.06878261 0.7436386
vn 0.5064506 0.3153113 0.8025501
vn 0.5064506 0.3153113 0.8025501
vn 0.5064506 0.3153113 0.8025501
vn 0.9251522 -0.3723544 -0.07379381
vn 0.9251522 -0.3723545 -0.07379382
vn 0.9251522 -0.3723544 -0.07379382
vn 0.9281187 -0.3480058 -0.1322402
vn 0.9281187 -0.3480058 -0.1322402
vn 0.9281187 -0.3480058 -0.1322402
vn -0.7723305 0.6290531 -0.0883055
vn -0.7723304 0.6290531 -0.0883055
vn -0.7723304 0.6290531 -0.0883055
vn -0.7723304 0.6290529 0.08830684
vn -0.7723304 0.629053 0.08830684
vn -0.7723304 0.6290531 0.08830684
vn -0.6256379 0.7751048 0.08825928
vn -0.6256379 0.7751048 0.08825929
vn -0.6256379 0.7751048 0.08825927
vn -0.533406 0.8443779 -0.05003989
vn -0.533406 0.8443779 -0.05003989
vn -0.5334061 0.8443779 -0.05003989
vn -0.6251011 0.7755387 -0.08825134
vn -0.6251011 0.7755387 -0.08825134
vn -0.6251011 0.7755387 -0.08825134
vn -0.9317763 0.03774304 0.3610657
vn -0.9317762 0.03774304 0.3610657
vn -0.9317762 0.03774304 0.3610657
vn -0.9419938 0.03771063 0.3335051
vn 0.328862 -0.1693051 -0.9290778
vn 0.3528007 -0.1875807 -0.9167034
vn 0.3528007 -0.1875807 -0.9167034
vn 0.3528007 -0.1875807 -0.9167034
vn 0.3479292 -0.1872176 -0.9186375
vn 0.3292388 -0.1892104 -0.9250952
vn -0.9896422 -0.1056698 0.09717064
vn -0.9896422 -0.1056698 0.09717064
vn -0.9896422 -0.1056698 0.09717064
vn -0.989908 -0.09439196 0.1056988
vn 0.7706722 -0.63675 -0.02477741
vn 0.7706721 -0.63675 -0.02477741
vn 0.7706721 -0.63675 -0.02477741
vn 0.7910185 -0.6106284 -0.03771832
vn -0.8724923 0.4630973 -0.1558787
vn -0.8724923 0.4630973 -0.1558787
vn -0.8724923 0.4630973 -0.1558787
vn -0.8760223 0.4544241 -0.1615045
vn -0.9547816 0.2800487 0.09982414
vn -0.9547816 0.2800487 0.09982415
vn -0.9547816 0.2800487 0.09982415
vn -0.9567239 0.2751825 0.09462501
vn -0.989908 0.1056978 0.0943931
vn -0.989908 0.1056978 0.0943931
vn -0.989908 0.1056978 0.0943931
vn -0.989908 0.09439218 0.1056988
vn 0.7007506 0.01415732 0.7132658
vn 0.7007506 0.01415732 0.7132658
vn 0.7007506 0.01415732 0.7132658
vn 0.700721 0.01416669 0.7132947
vn 0.7304376 0.5861349 -0.3505807
vn 0.7304376 0.5861349 -0.3505806
vn 0.7304376 0.5861349 -0.3505807
vn 0.7056232 0.6169567 -0.3485115
g Bomb_Explode_Thin_04_Hull_0
f 3/3/3 2/2/2 1/1/1
f 6/6/6 5/5/5 4/4/4
f 9/9/9 8/8/8 7/7/7
f 12/12/12 11/11/11 10/10/10
f 15/15/15 14/14/14 13/13/13
f 18/18/18 17/17/17 16/16/16
f 21/21/21 20/20/20 19/19/19
f 24/24/24 23/23/23 22/22/22
f 27/27/27 26/26/26 25/25/25
f 30/30/30 29/29/29 28/28/28
f 33/33/33 32/32/32 31/31/31
f 36/36/36 35/35/35 34/34/34
f 39/39/39 38/38/38 37/37/37
f 42/42/42 41/41/41 40/40/40
f 45/45/45 44/44/44 43/43/43
f 48/48/48 47/47/47 46/46/46
f 51/51/51 50/50/50 49/49/49
f 54/54/54 53/53/53 52/52/52
f 57/57/57 56/56/56 55/55/55
f 60/60/60 59/59/59 58/58/58
f 63/63/63 62/62/62 61/61/61
f 66/66/66 65/65/65 64/64/64
f 69/69/69 68/68/68 67/67/67
f 72/72/72 71/71/71 70/70/70
f 75/75/75 74/74/74 73/73/73
f 78/78/78 77/77/77 76/76/76
f 81/81/81 80/80/80 79/79/79
f 84/84/84 83/83/83 82/82/82
f 87/87/87 86/86/86 85/85/85
f 90/90/90 89/89/89 88/88/88
f 93/93/93 92/92/92 91/91/91
f 96/96/96 95/95/95 94/94/94
f 99/99/99 98/98/98 97/97/97
f 102/102/102 101/101/101 100/100/100
f 105/105/105 104/104/104 103/103/103
f 108/108/108 107/107/107 106/106/106
f 111/111/111 110/110/110 109/109/109
f 114/114/114 113/113/113 112/112/112
f 117/117/117 116/116/116 115/115/115
f 120/120/120 119/119/119 118/118/118
f 123/123/123 122/122/122 121/121/121
f 121/121/121 122/122/122 124/124/124
f 127/127/127 126/126/126 125/125/125
f 126/126/126 127/127/127 128/128/128
f 129/129/129 126/126/126 128/128/128
f 129/129/129 128/128/128 130/130/130
f 133/133/133 132/132/132 131/131/131
f 132/132/132 133/133/133 134/134/134
f 137/137/137 136/136/136 135/135/135
f 138/138/138 137/137/137 135/135/135
f 141/141/141 140/140/140 139/139/139
f 140/140/140 142/142/142 139/139/139
f 145/145/145 144/144/144 143/143/143
f 144/144/144 146/146/146 143/143/143
f 149/149/149 148/148/148 147/147/147
f 148/148/148 150/150/150 147/147/147
f 153/153/153 152/152/152 151/151/151
f 151/151/151 152/152/152 154/154/154
f 157/157/157 156/156/156 155/155/155
f 156/156/156 158/158/158 155/155/155
