g Bomb_Explode_Thin_14
v 0.09415413 0.0425325 0.1350781
v 0.1075315 0.02268825 0.1580875
v 0.0928553 0.04123386 0.1556953
v 0.1545995 -0.03167398 0.1350781
v 0.1522503 -0.03330238 0.1654242
v 0.180955 -0.0879759 0.1684116
v 0.1474969 -0.03659744 0.04332636
v 0.08852638 0.03690567 0.04574339
v 0.07429893 0.02267811 -0.03806803
v 0.1890699 -0.09661358 0.1350781
v 0.1918572 -0.1047172 0.1493766
v 0.1956663 -0.1164544 0.1699005
v 0.1706515 -0.0721538 0.0837544
v 0.1557903 -0.05261896 0.04264113
v 0.1500834 -0.04818477 0.03140443
v 0.1403995 -0.04017628 0.01161873
v 0.1091553 -0.02188349 -0.04102205
v 0.0856324 -0.01405691 -0.07183195
v 0.06024589 -0.004784851 -0.1063074
v 0.05472511 0.003103485 -0.1049498
v 0.04867546 -0.00294611 -0.1184783
v 0.01906212 -0.0006866645 -0.1459983
v -0.01989105 0.01162354 -0.1694873
v -0.003090439 0.0006598282 -0.166075
v -0.01072281 0.04890835 -0.1162139
v 0.04867546 -0.00294611 -0.1184783
v 0.05472511 0.003103485 -0.1049498
v -0.05961975 0.03249576 -0.169413
v 0.07429893 0.02267811 -0.03806803
v -0.08429611 0.07663292 -0.1322569
v -0.07630134 0.1162619 -0.05063536
v 0.005320129 0.07663288 -0.04264063
v 0.01502068 0.09587513 0.0433264
v 0.08852638 0.03690567 0.04574339
v 0.09415413 0.0425325 0.1350781
v -0.08653732 0.05018829 -0.1660651
v -0.08391098 0.04558834 -0.1699005
v -0.1074183 0.08180851 -0.1348667
v -0.1287751 0.1048766 -0.1016369
v -0.157598 0.1371817 -0.05695736
v -0.1635392 0.1668323 0.03660066
v -0.1661797 0.1437005 -0.04321318
v -0.1877629 0.1562553 -0.008099613
v -0.1778722 0.1641533 0.02235625
v -0.1733182 0.1677442 0.03640872
v -0.1710618 0.1683525 0.04412349
v -0.1628352 0.1701799 0.07250278
v -0.1555892 0.1706407 0.09823705
v -0.08419571 0.1519087 0.1164447
v -0.06620964 0.1471123 0.1210246
v -0.06927925 0.1395129 0.03972101
v -0.05551521 0.1418073 0.1235223
v 0.0199424 0.102978 0.1350781
v -0.005839004 0.1166628 0.1350781
v 0.01963066 0.1025281 0.1408888
v 0.07882759 0.05286392 0.1528485
v 0.0928553 0.04123386 0.1556953
v 0.09980445 0.01640819 0.1571637
v 0.08708315 0.03546133 0.1350781
v 0.08574995 0.03425341 0.154808
v 0.1462673 -0.03720338 0.1350781
v 0.1439273 -0.0387658 0.1644866
v 0.1721542 -0.09262845 0.1674629
v 0.1392554 -0.04200568 0.04500827
v 0.08154599 0.0299251 0.04733895
v 0.06757554 0.01595462 -0.03497115
v 0.1802415 -0.1012997 0.1347619
v 0.1830523 -0.1093597 0.1484168
v 0.1868474 -0.1210622 0.1689021
v 0.1618549 -0.07681659 0.08469161
v 0.1470427 -0.05721302 0.04418184
v 0.1414884 -0.05265446 0.03388395
v 0.1326339 -0.04600327 0.01401466
v 0.1017178 -0.02789499 -0.03809901
v 0.07843775 -0.01982809 -0.06796794
v 0.05325785 -0.01043135 -0.1019161
v 0.04841148 -0.003210136 -0.1004469
v 0.04302369 -0.009234798 -0.1131389
v -0.02452432 0.004757516 -0.1638846
v 0.01367011 -0.007160128 -0.1406112
v -0.008421248 -0.005813465 -0.1606272
v -0.01552899 0.04157341 -0.1114077
v 0.04302369 -0.009234798 -0.1131389
v 0.04841148 -0.003210136 -0.1004469
v -0.06351837 0.02533662 -0.163621
v 0.06757554 0.01595462 -0.03497115
v -0.08748361 0.06871254 -0.1270504
v -0.07976985 0.1075476 -0.04716693
v 0.0001136357 0.06871247 -0.03945322
v 0.009612512 0.08763357 0.0450082
v 0.08154599 0.0299251 0.04733895
v 0.08708315 0.03546133 0.1350781
v -0.09023909 0.04299188 -0.1601907
v -0.08785889 0.03848035 -0.1640789
v -0.1098433 0.07350151 -0.1298554
v -0.1312568 0.09628326 -0.09716532
v -0.1601895 0.1281254 -0.05360039
v -0.1654047 0.1571866 0.0384661
v -0.168495 0.1343775 -0.04043455
v -0.1887612 0.1467074 -0.005299392
v -0.1788625 0.1546024 0.02514904
v -0.1742668 0.1580071 0.03848001
v -0.1720802 0.158453 0.04510548
v -0.1654473 0.1605736 0.0734497
v -0.1583407 0.1610733 0.09918309
v -0.08698763 0.1423574 0.1174339
v -0.07006334 0.1379393 0.1220275
v -0.0729783 0.1303968 0.04151338
v -0.06014167 0.1329959 0.1244999
v 0.01441317 0.09464566 0.1350781
v -0.01051189 0.1078593 0.1358927
v 0.0140362 0.09429267 0.139951
v 0.07255077 0.04513371 0.1519291
v 0.08574995 0.03425341 0.154808
v 0.1075315 0.02268825 0.1580875
v 0.08574995 0.03425341 0.154808
v 0.0928553 0.04123386 0.1556953
v 0.09980445 0.01640819 0.1571637
v 0.1522503 -0.03330238 0.1654242
v 0.1439273 -0.0387658 0.1644866
v 0.180955 -0.0879759 0.1684116
v 0.1721542 -0.09262845 0.1674629
v 0.1956663 -0.1164544 0.1699005
v 0.1868474 -0.1210622 0.1689021
v 0.01906212 -0.0006866645 -0.1459983
v 0.04302369 -0.009234798 -0.1131389
v 0.04867546 -0.00294611 -0.1184783
v 0.01367011 -0.007160128 -0.1406112
v -0.003090439 0.0006598282 -0.166075
v -0.008421248 -0.005813465 -0.1606272
v -0.01989105 0.01162354 -0.1694873
v -0.02452432 0.004757516 -0.1638846
v -0.05961975 0.03249576 -0.169413
v -0.06351837 0.02533662 -0.163621
v -0.08391098 0.04558834 -0.1699005
v -0.08785889 0.03848035 -0.1640789
v -0.08653732 0.05018829 -0.1660651
v -0.08785889 0.03848035 -0.1640789
v -0.08391098 0.04558834 -0.1699005
v -0.09023909 0.04299188 -0.1601907
v -0.1074183 0.08180851 -0.1348667
v -0.1098433 0.07350151 -0.1298554
v -0.1287751 0.1048766 -0.1016369
v -0.1312568 0.09628326 -0.09716532
v -0.157598 0.1371817 -0.05695736
v -0.1601895 0.1281254 -0.05360039
v -0.1661797 0.1437005 -0.04321318
v -0.168495 0.1343775 -0.04043455
v -0.1877629 0.1562553 -0.008099613
v -0.1887612 0.1467074 -0.005299392
v -0.1654473 0.1605736 0.0734497
v -0.1555892 0.1706407 0.09823705
v -0.1583407 0.1610733 0.09918309
v -0.1628352 0.1701799 0.07250278
v -0.1720802 0.158453 0.04510548
v -0.1710618 0.1683525 0.04412349
v -0.1742668 0.1580071 0.03848001
v -0.1733182 0.1677442 0.03640872
v -0.1788625 0.1546024 0.02514904
v -0.1778722 0.1641533 0.02235625
v -0.1887612 0.1467074 -0.005299392
v -0.1877629 0.1562553 -0.008099613
v -0.08419571 0.1519087 0.1164447
v -0.1583407 0.1610733 0.09918309
v -0.1555892 0.1706407 0.09823705
v -0.08698763 0.1423574 0.1174339
v -0.06620964 0.1471123 0.1210246
v -0.07006334 0.1379393 0.1220275
v -0.05551521 0.1418073 0.1235223
v -0.06014167 0.1329959 0.1244999
v -0.005839004 0.1166628 0.1350781
v -0.01051189 0.1078593 0.1358927
v 0.01963066 0.1025281 0.1408888
v 0.0140362 0.09429267 0.139951
v 0.07882759 0.05286392 0.1528485
v 0.07255077 0.04513371 0.1519291
v 0.0928553 0.04123386 0.1556953
v 0.08574995 0.03425341 0.154808
v 0.05325785 -0.01043135 -0.1019161
v 0.04867546 -0.00294611 -0.1184783
v 0.04302369 -0.009234798 -0.1131389
v 0.06024589 -0.004784851 -0.1063074
v 0.07843775 -0.01982809 -0.06796794
v 0.0856324 -0.01405691 -0.07183195
v 0.1017178 -0.02789499 -0.03809901
v 0.1091553 -0.02188349 -0.04102205
v 0.1326339 -0.04600327 0.01401466
v 0.1403995 -0.04017628 0.01161873
v 0.1414884 -0.05265446 0.03388395
v 0.1500834 -0.04818477 0.03140443
v 0.1470427 -0.05721302 0.04418184
v 0.1557903 -0.05261896 0.04264113
v 0.1618549 -0.07681659 0.08469161
v 0.1706515 -0.0721538 0.0837544
v 0.1802415 -0.1012997 0.1347619
v 0.1890699 -0.09661358 0.1350781
v 0.1830523 -0.1093597 0.1484168
v 0.1918572 -0.1047172 0.1493766
v 0.1868474 -0.1210622 0.1689021
v 0.1956663 -0.1164544 0.1699005
vt 0.010387 0.17516
vt 0.01831535 0.1637101
vt 0.010387 0.1652936
vt 0.0429683 0.175024
vt 0.0426486 0.1599682
vt 0.0705698 0.158225
vt 0.0420479 0.221341
vt 0.010387 0.218816
vt 0.010387 0.262473
vt 0.07626731 0.174713
vt 0.07987852 0.1675839
vt 0.0860167 0.1588649
vt 0.06179804 0.200752
vt 0.05068564 0.2206021
vt 0.04781768 0.2261165
vt 0.04232213 0.2360313
vt 0.0313209 0.2616313
vt 0.02124014 0.2821504
vt 0.0134146 0.3009019
vt 0.010387 0.299927
vt 0.010387 0.3094862
vt 0.6623794 0.9824502
vt 0.6338106 0.9848474
vt 0.645535 0.9864668
vt 0.64478 0.965428
vt 0.669446 0.961498
vt 0.669446 0.951976
vt 0.612482 0.9803556
vt 0.669446 0.914667
vt 0.593 0.957652
vt 0.591915 0.913901
vt 0.636823 0.914707
vt 0.637831 0.874827
vt 0.669446 0.871917
vt 0.669446 0.829167
vt 0.5930794 0.9731561
vt 0.595147 0.9755162
vt 0.5820842 0.957929
vt 0.5698562 0.9389096
vt 0.5541199 0.9141547
vt 0.5511 0.873972
vt 0.5500907 0.9080194
vt 0.5402134 0.8928788
vt 0.5446296 0.8799499
vt 0.5466856 0.8739125
vt 0.5477041 0.8706205
vt 0.5508988 0.8579487
vt 0.553735 0.8464421
vt 0.5850394 0.8380924
vt 0.5928328 0.8360347
vt 0.592097 0.872572
vt 0.5986114 0.8354002
vt 0.636864 0.829306
vt 0.6236441 0.8294303
vt 0.6369223 0.8263727
vt 0.6633139 0.8202235
vt 0.6694459 0.8190917
vt 0.01831535 0.1637101
vt 0.010387 0.17516
vt 0.010387 0.1652936
vt 0.0429683 0.175024
vt 0.0426486 0.1599682
vt 0.0705698 0.158225
vt 0.0420479 0.221341
vt 0.010387 0.218816
vt 0.010387 0.262473
vt 0.07626731 0.174713
vt 0.07987852 0.1675839
vt 0.0860167 0.1588649
vt 0.06179804 0.200752
vt 0.05068564 0.2206021
vt 0.04781768 0.2261165
vt 0.04232213 0.2360313
vt 0.0313209 0.2616313
vt 0.02124014 0.2821504
vt 0.0134146 0.3009019
vt 0.010387 0.299927
vt 0.010387 0.3094862
vt 0.6338106 0.9848474
vt 0.6623794 0.9824502
vt 0.645535 0.9864668
vt 0.64478 0.965428
vt 0.669446 0.961498
vt 0.669446 0.951976
vt 0.612482 0.9803556
vt 0.669446 0.914667
vt 0.593 0.957652
vt 0.591915 0.913901
vt 0.636823 0.914707
vt 0.637831 0.874827
vt 0.669446 0.871917
vt 0.669446 0.829167
vt 0.5930794 0.9731561
vt 0.595147 0.9755162
vt 0.5820842 0.957929
vt 0.5698562 0.9389096
vt 0.5541199 0.9141547
vt 0.5511 0.873972
vt 0.5500907 0.9080194
vt 0.5402134 0.8928788
vt 0.5446296 0.8799499
vt 0.5466856 0.8739125
vt 0.5477041 0.8706205
vt 0.5508988 0.8579487
vt 0.553735 0.8464421
vt 0.5850394 0.8380924
vt 0.5928328 0.8360347
vt 0.592097 0.872572
vt 0.5986114 0.8354002
vt 0.636864 0.829306
vt 0.6236441 0.8294303
vt 0.6369223 0.8263727
vt 0.6633139 0.8202235
vt 0.6694459 0.8190917
vt 0.01831535 0.1637101
vt 0.010387 0.1652936
vt 0.010387 0.1652936
vt 0.01831535 0.1637101
vt 0.0426486 0.1599682
vt 0.0426486 0.1599682
vt 0.0705698 0.158225
vt 0.0705698 0.158225
vt 0.0860167 0.1588649
vt 0.0860167 0.1588649
vt 0.6623794 0.9824502
vt 0.669446 0.961498
vt 0.669446 0.961498
vt 0.6623794 0.9824502
vt 0.645535 0.9864668
vt 0.645535 0.9864668
vt 0.6338106 0.9848474
vt 0.6338106 0.9848474
vt 0.612482 0.9803556
vt 0.612482 0.9803556
vt 0.595147 0.9755162
vt 0.595147 0.9755162
vt 0.5930794 0.9731561
vt 0.595147 0.9755162
vt 0.595147 0.9755162
vt 0.5930794 0.9731561
vt 0.5820842 0.957929
vt 0.5820842 0.957929
vt 0.5698562 0.9389096
vt 0.5698562 0.9389096
vt 0.5541199 0.9141547
vt 0.5541199 0.9141547
vt 0.5500907 0.9080194
vt 0.5500907 0.9080194
vt 0.5402134 0.8928788
vt 0.5402134 0.8928788
vt 0.5508988 0.8579487
vt 0.553735 0.8464421
vt 0.553735 0.8464421
vt 0.5508988 0.8579487
vt 0.5477041 0.8706205
vt 0.5477041 0.8706205
vt 0.5466856 0.8739125
vt 0.5466856 0.8739125
vt 0.5446296 0.8799499
vt 0.5446296 0.8799499
vt 0.5402134 0.8928788
vt 0.5402134 0.8928788
vt 0.5850394 0.8380924
vt 0.553735 0.8464421
vt 0.553735 0.8464421
vt 0.5850394 0.8380924
vt 0.5928328 0.8360347
vt 0.5928328 0.8360347
vt 0.5986114 0.8354002
vt 0.5986114 0.8354002
vt 0.6236441 0.8294303
vt 0.6236441 0.8294303
vt 0.6369223 0.8263727
vt 0.6369223 0.8263727
vt 0.6633139 0.8202235
vt 0.6633139 0.8202235
vt 0.6694459 0.8190917
vt 0.6694459 0.8190917
vt 0.0134146 0.3009019
vt 0.010387 0.3094862
vt 0.010387 0.3094862
vt 0.0134146 0.3009019
vt 0.02124014 0.2821504
vt 0.02124014 0.2821504
vt 0.0313209 0.2616313
vt 0.0313209 0.2616313
vt 0.04232213 0.2360313
vt 0.04232213 0.2360313
vt 0.04781768 0.2261165
vt 0.04781768 0.2261165
vt 0.05068564 0.2206021
vt 0.05068564 0.2206021
vt 0.06179804 0.200752
vt 0.06179804 0.200752
vt 0.07626731 0.174713
vt 0.07626731 0.174713
vt 0.07987852 0.1675839
vt 0.07987852 0.1675839
vt 0.0860167 0.1588649
vt 0.0860167 0.1588649
vn 0.7070966 0.707117 3.22715E-07
vn 0.7727057 0.6280065 0.09237792
vn 0.7105347 0.6980454 0.08873038
vn 0.8332211 0.55294 1.322893E-06
vn 0.8322989 0.546342 0.09374977
vn 0.8800782 0.4652552 0.09486847
vn 0.8241488 0.5408239 -0.1681909
vn 0.6980388 0.6980571 -0.1595561
vn 0.6723399 0.6723484 -0.3096879
vn 0.8828359 0.4686161 0.03161832
vn 0.8804874 0.46425 0.09598883
vn 0.8818814 0.4607788 0.09984012
vn 0.8796589 0.4662795 -0.09372097
vn 0.874762 0.4594057 -0.1540711
vn 0.8594988 0.4469691 -0.2479524
vn 0.7765667 0.5827001 -0.2395931
vn 0.7437584 0.6011502 -0.2923046
vn 0.7194642 0.5771182 -0.3864013
vn 0.6988049 0.5646501 -0.4391378
vn 0.631363 0.6313621 -0.4502917
vn 0.5651768 0.6288689 -0.5339468
vn 0.5392004 0.6473463 -0.5387074
vn 0.463327 0.6866019 -0.5602731
vn 0.5330809 0.6473293 -0.5447839
vn 0.480618 0.7334931 -0.4806186
vn 0.5651768 0.6288689 -0.5339468
vn 0.631363 0.6313621 -0.4502917
vn 0.3898614 0.7159141 -0.5792021
vn 0.6723399 0.6723484 -0.3096879
vn 0.3187506 0.7920377 -0.5206479
vn 0.346851 0.8714326 -0.3468421
vn 0.5206494 0.7920405 -0.3187412
vn 0.5408163 0.824156 -0.1681798
vn 0.6980388 0.6980571 -0.1595561
vn 0.7070966 0.707117 3.22715E-07
vn 0.3701764 0.7196415 -0.5874398
vn 0.3947912 0.7107987 -0.5821555
vn 0.2425044 0.8306999 -0.501128
vn 0.248166 0.8593368 -0.447162
vn 0.2591449 0.9056223 -0.3356966
vn 0.1865528 0.9645721 -0.1865439
vn 0.2315274 0.9323023 -0.2778622
vn 0.09982703 0.9547891 -0.2800221
vn 0.09903105 0.9550897 -0.2792786
vn 0.09485731 0.9737042 -0.2071285
vn 0.1018397 0.9899422 -0.09819877
vn 0.2612167 0.9606245 -0.09469207
vn 0.2751514 0.9567351 -0.09460332
vn 0.2791915 0.9551269 -0.09891827
vn 0.3853698 0.9172961 -0.100289
vn 0.369905 0.9116163 -0.1792367
vn 0.4626455 0.8811375 -0.0977541
vn 0.5529231 0.8332323 4.675251E-06
vn 0.4672883 0.8803447 -0.08145497
vn 0.5594466 0.8235447 0.09377396
vn 0.6276827 0.773021 0.09193994
vn 0.7105347 0.6980454 0.08873038
vn -0.7726441 -0.6275622 -0.09584759
vn -0.7070028 -0.7072089 -0.001639299
vn -0.709927 -0.6984064 -0.09073039
vn -0.8332952 -0.5528278 -0.0008700438
vn -0.8321066 -0.5463773 -0.09523819
vn -0.8803229 -0.4646336 -0.09564114
vn -0.8249111 -0.5393971 0.1690339
vn -0.6980296 -0.6980481 0.1596361
vn -0.6726184 -0.6719334 0.3099841
vn -0.883278 -0.4677254 -0.03245253
vn -0.8806741 -0.4637898 -0.09649887
vn -0.8818848 -0.4607718 -0.09984281
vn -0.8825375 -0.4596116 0.09942227
vn -0.8756992 -0.4569116 0.15615
vn -0.8622323 -0.4410284 0.2490971
vn -0.7778227 -0.5804242 0.2410384
vn -0.7441266 -0.6001351 0.2934508
vn -0.7198287 -0.5758904 0.3875524
vn -0.6999546 -0.5611271 0.4418143
vn -0.6328621 -0.6297301 0.4504726
vn -0.5649486 -0.6272195 0.5361238
vn -0.4635387 -0.6859208 0.5609319
vn -0.5397878 -0.6463966 0.5392593
vn -0.5341229 -0.6453717 0.5460845
vn -0.480604 -0.7331878 0.4810981
vn -0.5649486 -0.6272195 0.5361238
vn -0.6328621 -0.6297301 0.4504726
vn -0.3892272 -0.7153562 0.5803167
vn -0.6726184 -0.6719334 0.3099841
vn -0.3185763 -0.792142 0.520596
vn -0.3465451 -0.8714792 0.347031
vn -0.5206594 -0.7920406 0.3187246
vn -0.5407335 -0.8242267 0.1681001
vn -0.6980296 -0.6980481 0.1596361
vn -0.7070028 -0.7072089 -0.001639299
vn -0.369871 -0.7189785 0.5884432
vn -0.3945862 -0.7104203 0.5827562
vn -0.2408795 -0.8301508 0.5028188
vn -0.2469523 -0.8592117 0.4480733
vn -0.2582687 -0.9056416 0.3363193
vn -0.1834759 -0.9652867 0.1858981
vn -0.229221 -0.9326532 0.278596
vn -0.09553508 -0.9553147 0.2797261
vn -0.09060451 -0.9565359 0.2771825
vn -0.0899367 -0.9748378 0.2039669
vn -0.09232429 -0.9910698 0.09621348
vn -0.2548029 -0.9625222 0.09287858
vn -0.2742977 -0.9571198 0.09318092
vn -0.2751231 -0.9568498 0.09351945
vn -0.3861668 -0.9171899 0.09817295
vn -0.3699355 -0.9116527 0.1789889
vn -0.4638886 -0.8807673 0.09516463
vn -0.5534582 -0.8328691 -0.003620503
vn -0.4654806 -0.8823243 0.06950934
vn -0.5566772 -0.8243464 -0.1027798
vn -0.6264085 -0.7735168 -0.09635528
vn -0.709927 -0.6984064 -0.09073039
vn -0.1367841 0.02131237 0.9903716
vn -0.1561643 0.03462989 0.9871238
vn -0.1571458 0.0296623 0.9871297
vn -0.1361088 0.02238146 0.9904411
vn -0.1200732 0.01185162 0.9926943
vn -0.1197046 0.01235853 0.9927327
vn -0.1063891 -0.001930602 0.9943227
vn -0.1065662 -0.002148329 0.9943033
vn -0.1086282 -0.005496677 0.9940672
vn -0.1093063 -0.006173869 0.993989
vn 0.4107717 -0.7617503 -0.5010021
vn 0.4113907 -0.7747235 -0.4801677
vn 0.3986584 -0.7817345 -0.4795442
vn 0.411988 -0.7606868 -0.5016189
vn 0.1201983 -0.6952646 -0.7086321
vn 0.1196576 -0.6957262 -0.7082705
vn -0.2254889 -0.5194197 -0.8242317
vn -0.2271969 -0.5204059 -0.8231398
vn -0.267572 -0.5124381 -0.8159733
vn -0.2686715 -0.5135624 -0.8149044
vn -0.2642134 -0.5182599 -0.8133867
vn -0.2648049 -0.5187073 -0.812909
vn -0.8363611 -0.006739912 -0.5481374
vn -0.8411737 0.003214509 -0.5407555
vn -0.8263509 -0.002257935 -0.5631511
vn -0.8452533 -0.006677615 -0.534324
vn -0.8582116 -0.05268342 -0.5105852
vn -0.8591349 -0.05349711 -0.5089452
vn -0.8486326 -0.03240012 -0.5279895
vn -0.8466294 -0.02786669 -0.5314528
vn -0.8332347 0.02967652 -0.5521226
vn -0.8308901 0.03319451 -0.5554456
vn -0.8397317 0.04594445 -0.5410544
vn -0.8417376 0.03971643 -0.5384241
vn -0.8691035 -0.03634733 -0.493293
vn -0.8727575 -0.05112908 -0.485469
vn -0.9334918 0.2778276 0.2267269
vn -0.9243768 0.2873293 0.2509368
vn -0.9238234 0.2903556 0.2494876
vn -0.9362011 0.2608047 0.2356021
vn -0.9496943 0.1418707 0.2792016
vn -0.9522493 0.1328692 0.2748947
vn -0.9468315 0.1448783 0.2872636
vn -0.9495671 0.1556716 0.272192
vn -0.9482754 0.171176 0.2673437
vn -0.9487875 0.1753224 0.2628011
vn -0.9487388 0.1759923 0.2625291
vn -0.9487371 0.1761581 0.2624238
vn -0.20427 0.1595075 0.9658319
vn -0.2057641 0.155175 0.9662204
vn -0.2058304 0.1547424 0.9662756
vn -0.2052205 0.1648185 0.964738
vn -0.1760386 0.1747242 0.9687527
vn -0.178606 0.1844317 0.9664806
vn -0.1415206 0.178485 0.973712
vn -0.1428067 0.181963 0.9728801
vn -0.1368214 0.1639799 0.9769291
vn -0.1402972 0.1466216 0.979193
vn -0.1719011 0.02487909 0.9848
vn -0.1746014 0.007215162 0.9846127
vn -0.1780421 0.02677258 0.9836586
vn -0.176998 0.0310452 0.9837214
vn -0.1571458 0.0296623 0.9871297
vn -0.1561643 0.03462989 0.9871238
vn 0.3651016 -0.8015136 -0.4735786
vn 0.3986584 -0.7817345 -0.4795442
vn 0.4113907 -0.7747235 -0.4801677
vn 0.3562147 -0.8054816 -0.4736144
vn 0.3668519 -0.7898773 -0.4914404
vn 0.3724264 -0.7864578 -0.4927297
vn 0.4086611 -0.7592072 -0.5065575
vn 0.412254 -0.7567765 -0.5072831
vn 0.4264089 -0.7660108 -0.4810435
vn 0.4068028 -0.7737219 -0.4856602
vn 0.3041094 -0.8157993 -0.4919238
vn 0.2975146 -0.819532 -0.4897473
vn 0.3207997 -0.8032978 -0.501797
vn 0.3352717 -0.8001245 -0.4973869
vn 0.3582917 -0.7829754 -0.5085042
vn 0.3636128 -0.7807509 -0.5081474
vn 0.412865 -0.7500265 -0.5167231
vn 0.4214463 -0.7475658 -0.5133502
vn 0.4396494 -0.7403151 -0.5085685
vn 0.4447929 -0.7394318 -0.5053712
vn 0.4441282 -0.7398326 -0.5053691
vn 0.4438314 -0.7399128 -0.5055124
g Bomb_Explode_Thin_14_0
f 3/3/3 2/2/2 1/1/1
f 1/1/1 2/2/2 4/4/4
f 5/5/5 4/4/4 2/2/2
f 4/4/4 5/5/5 6/6/6
f 4/4/4 7/7/7 1/1/1
f 8/8/8 1/1/1 7/7/7
f 8/8/8 7/7/7 9/9/9
f 10/10/10 4/4/4 6/6/6
f 4/4/4 10/10/10 7/7/7
f 11/11/11 10/10/10 6/6/6
f 6/6/6 12/12/12 11/11/11
f 13/13/13 7/7/7 10/10/10
f 7/7/7 13/13/13 14/14/14
f 14/14/14 15/15/15 7/7/7
f 7/7/7 15/15/15 16/16/16
f 16/16/16 17/17/17 7/7/7
f 9/9/9 7/7/7 17/17/17
f 17/17/17 18/18/18 9/9/9
f 18/18/18 19/19/19 9/9/9
f 20/20/20 9/9/9 19/19/19
f 20/20/20 19/19/19 21/21/21
f 24/24/24 23/23/23 22/22/22
f 25/25/25 22/22/22 23/23/23
f 22/22/22 25/25/25 26/26/26
f 27/27/27 26/26/26 25/25/25
f 23/23/23 28/28/28 25/25/25
f 27/27/27 25/25/25 29/29/29
f 30/30/30 25/25/25 28/28/28
f 30/30/30 31/31/31 25/25/25
f 32/32/32 29/29/29 25/25/25
f 32/32/32 25/25/25 31/31/31
f 32/32/32 33/33/33 29/29/29
f 32/32/32 31/31/31 33/33/33
f 34/34/34 29/29/29 33/33/33
f 34/34/34 33/33/33 35/35/35
f 36/36/36 30/30/30 28/28/28
f 37/37/37 36/36/36 28/28/28
f 30/30/30 36/36/36 38/38/38
f 38/38/38 39/39/39 30/30/30
f 31/31/31 30/30/30 39/39/39
f 31/31/31 39/39/39 40/40/40
f 31/31/31 40/40/40 41/41/41
f 42/42/42 41/41/41 40/40/40
f 42/42/42 43/43/43 41/41/41
f 44/44/44 41/41/41 43/43/43
f 41/41/41 44/44/44 45/45/45
f 45/45/45 46/46/46 41/41/41
f 41/41/41 46/46/46 47/47/47
f 47/47/47 48/48/48 41/41/41
f 49/49/49 41/41/41 48/48/48
f 49/49/49 50/50/50 41/41/41
f 51/51/51 31/31/31 41/41/41
f 51/51/51 41/41/41 50/50/50
f 51/51/51 33/33/33 31/31/31
f 51/51/51 50/50/50 33/33/33
f 52/52/52 33/33/33 50/50/50
f 33/33/33 52/52/52 53/53/53
f 54/54/54 53/53/53 52/52/52
f 53/53/53 54/54/54 55/55/55
f 53/53/53 35/35/35 33/33/33
f 55/55/55 56/56/56 53/53/53
f 35/35/35 53/53/53 56/56/56
f 35/35/35 56/56/56 57/57/57
f 60/60/60 59/59/59 58/58/58
f 59/59/59 61/61/61 58/58/58
f 62/62/62 58/58/58 61/61/61
f 61/61/61 63/63/63 62/62/62
f 61/61/61 59/59/59 64/64/64
f 65/65/65 64/64/64 59/59/59
f 65/65/65 66/66/66 64/64/64
f 67/67/67 63/63/63 61/61/61
f 61/61/61 64/64/64 67/67/67
f 68/68/68 63/63/63 67/67/67
f 63/63/63 68/68/68 69/69/69
f 70/70/70 67/67/67 64/64/64
f 64/64/64 71/71/71 70/70/70
f 71/71/71 64/64/64 72/72/72
f 64/64/64 73/73/73 72/72/72
f 73/73/73 64/64/64 74/74/74
f 66/66/66 74/74/74 64/64/64
f 74/74/74 66/66/66 75/75/75
f 75/75/75 66/66/66 76/76/76
f 77/77/77 76/76/76 66/66/66
f 77/77/77 78/78/78 76/76/76
f 81/81/81 80/80/80 79/79/79
f 82/82/82 79/79/79 80/80/80
f 80/80/80 83/83/83 82/82/82
f 84/84/84 82/82/82 83/83/83
f 79/79/79 82/82/82 85/85/85
f 84/84/84 86/86/86 82/82/82
f 87/87/87 85/85/85 82/82/82
f 87/87/87 82/82/82 88/88/88
f 89/89/89 82/82/82 86/86/86
f 89/89/89 88/88/88 82/82/82
f 89/89/89 86/86/86 90/90/90
f 89/89/89 90/90/90 88/88/88
f 91/91/91 90/90/90 86/86/86
f 91/91/91 92/92/92 90/90/90
f 93/93/93 85/85/85 87/87/87
f 94/94/94 85/85/85 93/93/93
f 87/87/87 95/95/95 93/93/93
f 95/95/95 87/87/87 96/96/96
f 88/88/88 96/96/96 87/87/87
f 88/88/88 97/97/97 96/96/96
f 88/88/88 98/98/98 97/97/97
f 99/99/99 97/97/97 98/98/98
f 99/99/99 98/98/98 100/100/100
f 101/101/101 100/100/100 98/98/98
f 98/98/98 102/102/102 101/101/101
f 102/102/102 98/98/98 103/103/103
f 98/98/98 104/104/104 103/103/103
f 104/104/104 98/98/98 105/105/105
f 106/106/106 105/105/105 98/98/98
f 106/106/106 98/98/98 107/107/107
f 108/108/108 98/98/98 88/88/88
f 108/108/108 107/107/107 98/98/98
f 108/108/108 88/88/88 90/90/90
f 108/108/108 90/90/90 107/107/107
f 109/109/109 107/107/107 90/90/90
f 90/90/90 110/110/110 109/109/109
f 111/111/111 109/109/109 110/110/110
f 110/110/110 112/112/112 111/111/111
f 110/110/110 90/90/90 92/92/92
f 112/112/112 110/110/110 113/113/113
f 92/92/92 113/113/113 110/110/110
f 92/92/92 114/114/114 113/113/113
f 117/117/117 116/116/116 115/115/115
f 118/118/118 115/115/115 116/116/116
f 115/115/115 118/118/118 119/119/119
f 120/120/120 119/119/119 118/118/118
f 119/119/119 120/120/120 121/121/121
f 122/122/122 121/121/121 120/120/120
f 121/121/121 122/122/122 123/123/123
f 124/124/124 123/123/123 122/122/122
f 127/127/127 126/126/126 125/125/125
f 128/128/128 125/125/125 126/126/126
f 125/125/125 128/128/128 129/129/129
f 130/130/130 129/129/129 128/128/128
f 129/129/129 130/130/130 131/131/131
f 132/132/132 131/131/131 130/130/130
f 131/131/131 132/132/132 133/133/133
f 134/134/134 133/133/133 132/132/132
f 133/133/133 134/134/134 135/135/135
f 136/136/136 135/135/135 134/134/134
f 139/139/139 138/138/138 137/137/137
f 140/140/140 137/137/137 138/138/138
f 137/137/137 140/140/140 141/141/141
f 142/142/142 141/141/141 140/140/140
f 141/141/141 142/142/142 143/143/143
f 144/144/144 143/143/143 142/142/142
f 143/143/143 144/144/144 145/145/145
f 146/146/146 145/145/145 144/144/144
f 145/145/145 146/146/146 147/147/147
f 148/148/148 147/147/147 146/146/146
f 147/147/147 148/148/148 149/149/149
f 150/150/150 149/149/149 148/148/148
f 153/153/153 152/152/152 151/151/151
f 154/154/154 151/151/151 152/152/152
f 151/151/151 154/154/154 155/155/155
f 156/156/156 155/155/155 154/154/154
f 155/155/155 156/156/156 157/157/157
f 158/158/158 157/157/157 156/156/156
f 157/157/157 158/158/158 159/159/159
f 160/160/160 159/159/159 158/158/158
f 159/159/159 160/160/160 161/161/161
f 162/162/162 161/161/161 160/160/160
f 165/165/165 164/164/164 163/163/163
f 166/166/166 163/163/163 164/164/164
f 163/163/163 166/166/166 167/167/167
f 168/168/168 167/167/167 166/166/166
f 167/167/167 168/168/168 169/169/169
f 170/170/170 169/169/169 168/168/168
f 169/169/169 170/170/170 171/171/171
f 172/172/172 171/171/171 170/170/170
f 171/171/171 172/172/172 173/173/173
f 174/174/174 173/173/173 172/172/172
f 173/173/173 174/174/174 175/175/175
f 176/176/176 175/175/175 174/174/174
f 175/175/175 176/176/176 177/177/177
f 178/178/178 177/177/177 176/176/176
f 181/181/181 180/180/180 179/179/179
f 182/182/182 179/179/179 180/180/180
f 179/179/179 182/182/182 183/183/183
f 184/184/184 183/183/183 182/182/182
f 183/183/183 184/184/184 185/185/185
f 186/186/186 185/185/185 184/184/184
f 185/185/185 186/186/186 187/187/187
f 188/188/188 187/187/187 186/186/186
f 187/187/187 188/188/188 189/189/189
f 190/190/190 189/189/189 188/188/188
f 189/189/189 190/190/190 191/191/191
f 192/192/192 191/191/191 190/190/190
f 191/191/191 192/192/192 193/193/193
f 194/194/194 193/193/193 192/192/192
f 193/193/193 194/194/194 195/195/195
f 196/196/196 195/195/195 194/194/194
f 195/195/195 196/196/196 197/197/197
f 198/198/198 197/197/197 196/196/196
f 197/197/197 198/198/198 199/199/199
f 200/200/200 199/199/199 198/198/198
