g Cp_Floor
v 0.3568712 -4.775068E-10 -0.02123665
v 0.3568712 -4.775068E-10 0.02123665
v 0.2887149 0.2097637 0.02123665
v 0.2887149 0.2097637 -0.02123665
v -0.1102794 0.3394047 -0.02123665
v -0.1102794 0.3394047 0.02123665
v -0.2887151 0.2097636 0.02123665
v -0.2887151 0.2097636 -0.02123665
v 0.1102794 -0.3394047 -0.02123665
v 0.1102794 -0.3394047 0.02123665
v 0.2887149 -0.2097636 0.02123665
v 0.2887149 -0.2097636 -0.02123665
v -0.2887149 -0.2097637 -0.02123665
v -0.2887149 -0.2097637 0.02123665
v -0.1102794 -0.3394047 0.02123665
v -0.1102794 -0.3394047 -0.02123665
v 0.1102794 0.3394048 -0.02123665
v 0.1102794 0.3394048 0.02123665
v -0.1102794 0.3394047 0.02123665
v -0.1102794 0.3394047 -0.02123665
v 0.2887149 -0.2097636 -0.02123665
v 0.2887149 -0.2097636 0.02123665
v 0.3568712 -4.775068E-10 0.02123665
v 0.3568712 -4.775068E-10 -0.02123665
v -0.3568713 -2.174869E-08 -0.02123665
v -0.3568713 -2.174869E-08 0.02123665
v -0.2887149 -0.2097637 0.02123665
v -0.2887149 -0.2097637 -0.02123665
v -0.1102794 -0.3394047 -0.02123665
v -0.1102794 -0.3394047 0.02123665
v 0.1102794 -0.3394047 0.02123665
v 0.1102794 -0.3394047 -0.02123665
v -0.2887151 0.2097636 -0.02123665
v -0.2887151 0.2097636 0.02123665
v -0.3568713 -2.174869E-08 0.02123665
v -0.3568713 -2.174869E-08 -0.02123665
v 0.2887149 0.2097637 -0.02123665
v 0.2887149 0.2097637 0.02123665
v 0.1102794 0.3394048 0.02123665
v 0.1102794 0.3394048 -0.02123665
v 0.1623988 0.1179897 0.02123665
v 0.1378612 0.100162 0.02123665
v 0.05265823 0.1620655 0.02123665
v 0.06203079 0.1909114 0.02123665
v 0.2007361 8.786861E-09 0.02123665
v -0.05265839 0.1620655 0.02123665
v 0.1704057 1.059469E-08 0.02123665
v -0.06203094 0.1909113 0.02123665
v 0.1623988 -0.1179896 0.02123665
v -0.1378613 0.100162 0.02123665
v 0.1378612 -0.1001619 0.02123665
v -0.162399 0.1179897 0.02123665
v 0.06203079 -0.1909113 0.02123665
v -0.1704059 4.377076E-10 0.02123665
v 0.05265823 -0.1620655 0.02123665
v -0.2007361 -3.17794E-09 0.02123665
v -0.06203094 -0.1909113 0.02123665
v -0.1378613 -0.100162 0.02123665
v -0.05265839 -0.1620655 0.02123665
v -0.162399 -0.1179897 0.02123665
v 0.1704057 1.059469E-08 0.02123665
v 0.05393539 1.753686E-08 0.02123665
v 0.04363479 0.03170227 0.02123665
v 0.1378612 0.100162 0.02123665
v 0.1378612 -0.1001619 0.02123665
v 0.01666702 0.05129547 0.02123665
v 0.04363479 -0.03170222 0.02123665
v 0.05265823 0.1620655 0.02123665
v 0.05265823 -0.1620655 0.02123665
v -0.01666702 0.05129547 0.02123665
v 0.01666702 -0.05129542 0.02123665
v -0.05265839 0.1620655 0.02123665
v -0.05265839 -0.1620655 0.02123665
v -0.04363479 0.03170227 0.02123665
v -0.01666702 -0.05129542 0.02123665
v -0.1378613 0.100162 0.02123665
v -0.1378613 -0.100162 0.02123665
v -0.05393539 1.432206E-08 0.02123665
v -0.04363479 -0.03170222 0.02123665
v -0.1704059 4.377076E-10 0.02123665
v -0.05393539 1.432206E-08 0.02123665
v -0.02785171 1.868595E-08 0.02123665
v -0.0225325 -0.01637069 0.02123665
v -0.04363479 -0.03170222 0.02123665
v -0.04363479 0.03170227 0.02123665
v 0 2.060958E-08 0.02123665
v -0.0225325 0.01637074 0.02123665
v -0.00860672 -0.02648839 0.02123665
v -0.01666702 0.05129547 0.02123665
v -0.01666702 -0.05129542 0.02123665
v -0.00860672 0.02648843 0.02123665
v 0.01666702 0.05129547 0.02123665
v 0.00860672 -0.02648839 0.02123665
v 0.01666702 -0.05129542 0.02123665
v 0.00860672 0.02648843 0.02123665
v 0.04363479 0.03170227 0.02123665
v 0.0225325 -0.01637069 0.02123665
v 0.04363479 -0.03170222 0.02123665
v 0.0225325 0.01637074 0.02123665
v 0.05393539 1.753686E-08 0.02123665
v 0.02785171 2.034604E-08 0.02123665
v 0.2215321 0.1609525 0.02123665
v 0.1623988 0.1179897 0.02123665
v 0.06203079 0.1909114 0.02123665
v 0.08461776 0.2604266 0.02123665
v 0.2738286 4.430203E-09 0.02123665
v -0.06203094 0.1909113 0.02123665
v 0.2007361 8.786861E-09 0.02123665
v -0.08461776 0.2604265 0.02123665
v 0.2215321 -0.1609524 0.02123665
v -0.162399 0.1179897 0.02123665
v 0.1623988 -0.1179896 0.02123665
v -0.2215321 0.1609524 0.02123665
v 0.08461776 -0.2604265 0.02123665
v -0.2007361 -3.17794E-09 0.02123665
v 0.06203079 -0.1909113 0.02123665
v -0.2738287 -1.189125E-08 0.02123665
v -0.08461776 -0.2604265 0.02123665
v -0.162399 -0.1179897 0.02123665
v -0.06203094 -0.1909113 0.02123665
v -0.2215321 -0.1609524 0.02123665
v -0.09476425 0.2916543 0.02123665
v -0.08461776 0.2604265 0.02123665
v -0.2215321 0.1609524 0.02123665
v -0.248096 0.1802523 0.02123665
v 0.09476425 0.2916544 0.02123665
v -0.2738287 -1.189125E-08 0.02123665
v 0.08461776 0.2604266 0.02123665
v -0.3066635 -1.580547E-08 0.02123665
v 0.248096 0.1802523 0.02123665
v -0.2215321 -0.1609524 0.02123665
v 0.2215321 0.1609525 0.02123665
v -0.248096 -0.1802523 0.02123665
v 0.3066635 2.473095E-09 0.02123665
v -0.08461776 -0.2604265 0.02123665
v 0.2738286 4.430203E-09 0.02123665
v -0.09476425 -0.2916543 0.02123665
v 0.248096 -0.1802523 0.02123665
v 0.08461776 -0.2604265 0.02123665
v 0.2215321 -0.1609524 0.02123665
v 0.09476425 -0.2916543 0.02123665
v 0.248096 0.1802523 0.02123665
v 0.2887149 0.2097637 0.02123665
v 0.3568712 -4.775068E-10 0.02123665
v 0.3066635 2.473095E-09 0.02123665
v 0.09476425 0.2916544 0.02123665
v 0.2887149 -0.2097636 0.02123665
v 0.1102794 0.3394048 0.02123665
v 0.248096 -0.1802523 0.02123665
v -0.09476425 0.2916543 0.02123665
v 0.1102794 -0.3394047 0.02123665
v -0.1102794 0.3394047 0.02123665
v 0.09476425 -0.2916543 0.02123665
v -0.248096 0.1802523 0.02123665
v -0.1102794 -0.3394047 0.02123665
v -0.2887151 0.2097636 0.02123665
v -0.09476425 -0.2916543 0.02123665
v -0.3066635 -1.580547E-08 0.02123665
v -0.2887149 -0.2097637 0.02123665
v -0.3568713 -2.174869E-08 0.02123665
v -0.248096 -0.1802523 0.02123665
vn 0.9510565 0.3090168 0
vn 0.9510565 0.3090168 0
vn 0.9510565 0.3090168 0
vn 0.9510565 0.3090168 0
vn -0.5877852 0.809017 0
vn -0.5877852 0.809017 0
vn -0.5877852 0.809017 0
vn -0.5877852 0.809017 0
vn 0.5877856 -0.8090168 0
vn 0.5877856 -0.8090168 0
vn 0.5877856 -0.8090168 0
vn 0.5877856 -0.8090168 0
vn -0.5877854 -0.8090169 0
vn -0.5877854 -0.8090169 0
vn -0.5877854 -0.8090169 0
vn -0.5877854 -0.8090169 0
vn -1.72956E-07 1 0
vn -1.72956E-07 1 0
vn -1.72956E-07 1 0
vn -1.72956E-07 1 0
vn 0.9510565 -0.3090169 0
vn 0.9510565 -0.3090169 0
vn 0.9510565 -0.3090169 0
vn 0.9510565 -0.3090169 0
vn -0.9510564 -0.3090174 0
vn -0.9510564 -0.3090174 0
vn -0.9510564 -0.3090174 0
vn -0.9510564 -0.3090174 0
vn 0 -1 0
vn 0 -1 0
vn 0 -1 0
vn 0 -1 0
vn -0.9510565 0.3090168 0
vn -0.9510565 0.3090168 0
vn -0.9510565 0.3090168 0
vn -0.9510565 0.3090168 0
vn 0.5877855 0.8090168 0
vn 0.5877855 0.8090168 0
vn 0.5877855 0.8090168 0
vn 0.5877855 0.8090168 0
vn 0 0 1
vn 0 0 1
vn 0 0 1
vn 0 0 1
vn 0 0 1
vn 0 0 1
vn 0 0 1
vn 0 0 1
vn 0 0 1
vn 0 0 1
vn 0 0 1
vn 0 0 1
vn 0 0 1
vn 0 0 1
vn 0 0 1
vn 0 0 1
vn 0 0 1
vn 0 0 1
vn 0 0 1
vn 0 0 1
vn 0 0 1
vn 0 0 1
vn 0 0 1
vn 0 0 1
vn 0 0 1
vn 0 0 1
vn 0 0 1
vn 0 0 1
vn 0 0 1
vn 0 0 1
vn 0 0 1
vn 0 0 1
vn 0 0 1
vn 0 0 1
vn 0 0 1
vn 0 0 1
vn 0 0 1
vn 0 0 1
vn 0 0 1
vn 0 0 1
vn 0 0 1
vn 0 0 1
vn 0 0 1
vn 0 0 1
vn 0 0 1
vn 0 0 1
vn 0 0 1
vn 0 0 1
vn 0 0 1
vn 0 0 1
vn 0 0 1
vn 0 0 1
vn 0 0 1
vn 0 0 1
vn 0 0 1
vn 0 0 1
vn 0 0 1
vn 0 0 1
vn 0 0 1
vn 0 0 1
vn 0 0 1
vn 0 0 1
vn 0 0 1
vn 0 0 1
vn 0 0 1
vn 0 0 1
vn 0 0 1
vn 0 0 1
vn 0 0 1
vn 0 0 1
vn 0 0 1
vn 0 0 1
vn 0 0 1
vn 0 0 1
vn 0 0 1
vn 0 0 1
vn 0 0 1
vn 0 0 1
vn 0 0 1
vn 0 0 1
vn 0 0 1
vn 0 0 1
vn 0 0 1
vn 0 0 1
vn 0 0 1
vn 0 0 1
vn 0 0 1
vn 0 0 1
vn 0 0 1
vn 0 0 1
vn 0 0 1
vn 0 0 1
vn 0 0 1
vn 0 0 1
vn 0 0 1
vn 0 0 1
vn 0 0 1
vn 0 0 1
vn 0 0 1
vn 0 0 1
vn 0 0 1
vn 0 0 1
vn 0 0 1
vn 0 0 1
vn 0 0 1
vn 0 0 1
vn 0 0 1
vn 0 0 1
vn 0 0 1
vn 0 0 1
vn 0 0 1
vn 0 0 1
vn 0 0 1
vn 0 0 1
vn 0 0 1
vn 0 0 1
vn 0 0 1
vn 0 0 1
vn 0 0 1
vn 0 0 1
vn 0 0 1
g Cp_Floor_0
f 3/3/3 2/2/2 1/1/1
f 4/4/4 3/3/3 1/1/1
f 7/7/7 6/6/6 5/5/5
f 8/8/8 7/7/7 5/5/5
f 11/11/11 10/10/10 9/9/9
f 12/12/12 11/11/11 9/9/9
f 15/15/15 14/14/14 13/13/13
f 16/16/16 15/15/15 13/13/13
f 19/19/19 18/18/18 17/17/17
f 20/20/20 19/19/19 17/17/17
f 23/23/23 22/22/22 21/21/21
f 24/24/24 23/23/23 21/21/21
f 27/27/27 26/26/26 25/25/25
f 28/28/28 27/27/27 25/25/25
f 31/31/31 30/30/30 29/29/29
f 32/32/32 31/31/31 29/29/29
f 35/35/35 34/34/34 33/33/33
f 36/36/36 35/35/35 33/33/33
f 39/39/39 38/38/38 37/37/37
f 40/40/40 39/39/39 37/37/37
f 43/43/43 42/42/42 41/41/41
f 44/44/44 43/43/43 41/41/41
f 41/41/41 42/42/42 45/45/45
f 46/46/46 43/43/43 44/44/44
f 42/42/42 47/47/47 45/45/45
f 48/48/48 46/46/46 44/44/44
f 45/45/45 47/47/47 49/49/49
f 50/50/50 46/46/46 48/48/48
f 47/47/47 51/51/51 49/49/49
f 52/52/52 50/50/50 48/48/48
f 49/49/49 51/51/51 53/53/53
f 54/54/54 50/50/50 52/52/52
f 51/51/51 55/55/55 53/53/53
f 56/56/56 54/54/54 52/52/52
f 53/53/53 55/55/55 57/57/57
f 58/58/58 54/54/54 56/56/56
f 55/55/55 59/59/59 57/57/57
f 60/60/60 58/58/58 56/56/56
f 57/57/57 59/59/59 60/60/60
f 59/59/59 58/58/58 60/60/60
f 63/63/63 62/62/62 61/61/61
f 64/64/64 63/63/63 61/61/61
f 61/61/61 62/62/62 65/65/65
f 66/66/66 63/63/63 64/64/64
f 62/62/62 67/67/67 65/65/65
f 68/68/68 66/66/66 64/64/64
f 65/65/65 67/67/67 69/69/69
f 70/70/70 66/66/66 68/68/68
f 67/67/67 71/71/71 69/69/69
f 72/72/72 70/70/70 68/68/68
f 69/69/69 71/71/71 73/73/73
f 74/74/74 70/70/70 72/72/72
f 71/71/71 75/75/75 73/73/73
f 76/76/76 74/74/74 72/72/72
f 73/73/73 75/75/75 77/77/77
f 78/78/78 74/74/74 76/76/76
f 75/75/75 79/79/79 77/77/77
f 80/80/80 78/78/78 76/76/76
f 77/77/77 79/79/79 80/80/80
f 79/79/79 78/78/78 80/80/80
f 83/83/83 82/82/82 81/81/81
f 84/84/84 83/83/83 81/81/81
f 81/81/81 82/82/82 85/85/85
f 83/83/83 86/86/86 82/82/82
f 82/82/82 86/86/86 87/87/87
f 82/82/82 87/87/87 85/85/85
f 88/88/88 86/86/86 83/83/83
f 83/83/83 84/84/84 88/88/88
f 85/85/85 87/87/87 89/89/89
f 84/84/84 90/90/90 88/88/88
f 87/87/87 91/91/91 89/89/89
f 87/87/87 86/86/86 91/91/91
f 89/89/89 91/91/91 92/92/92
f 88/88/88 90/90/90 93/93/93
f 93/93/93 86/86/86 88/88/88
f 90/90/90 94/94/94 93/93/93
f 91/91/91 95/95/95 92/92/92
f 91/91/91 86/86/86 95/95/95
f 92/92/92 95/95/95 96/96/96
f 93/93/93 94/94/94 97/97/97
f 97/97/97 86/86/86 93/93/93
f 94/94/94 98/98/98 97/97/97
f 95/95/95 99/99/99 96/96/96
f 95/95/95 86/86/86 99/99/99
f 100/100/100 96/96/96 99/99/99
f 101/101/101 86/86/86 97/97/97
f 97/97/97 98/98/98 101/101/101
f 99/99/99 86/86/86 101/101/101
f 98/98/98 100/100/100 101/101/101
f 101/101/101 100/100/100 99/99/99
f 104/104/104 103/103/103 102/102/102
f 105/105/105 104/104/104 102/102/102
f 102/102/102 103/103/103 106/106/106
f 107/107/107 104/104/104 105/105/105
f 103/103/103 108/108/108 106/106/106
f 109/109/109 107/107/107 105/105/105
f 106/106/106 108/108/108 110/110/110
f 111/111/111 107/107/107 109/109/109
f 108/108/108 112/112/112 110/110/110
f 113/113/113 111/111/111 109/109/109
f 110/110/110 112/112/112 114/114/114
f 115/115/115 111/111/111 113/113/113
f 112/112/112 116/116/116 114/114/114
f 117/117/117 115/115/115 113/113/113
f 114/114/114 116/116/116 118/118/118
f 119/119/119 115/115/115 117/117/117
f 116/116/116 120/120/120 118/118/118
f 121/121/121 119/119/119 117/117/117
f 118/118/118 120/120/120 121/121/121
f 120/120/120 119/119/119 121/121/121
f 124/124/124 123/123/123 122/122/122
f 125/125/125 124/124/124 122/122/122
f 122/122/122 123/123/123 126/126/126
f 127/127/127 124/124/124 125/125/125
f 123/123/123 128/128/128 126/126/126
f 129/129/129 127/127/127 125/125/125
f 126/126/126 128/128/128 130/130/130
f 131/131/131 127/127/127 129/129/129
f 128/128/128 132/132/132 130/130/130
f 133/133/133 131/131/131 129/129/129
f 130/130/130 132/132/132 134/134/134
f 135/135/135 131/131/131 133/133/133
f 132/132/132 136/136/136 134/134/134
f 137/137/137 135/135/135 133/133/133
f 134/134/134 136/136/136 138/138/138
f 139/139/139 135/135/135 137/137/137
f 136/136/136 140/140/140 138/138/138
f 141/141/141 139/139/139 137/137/137
f 138/138/138 140/140/140 141/141/141
f 140/140/140 139/139/139 141/141/141
f 144/144/144 143/143/143 142/142/142
f 145/145/145 144/144/144 142/142/142
f 146/146/146 142/142/142 143/143/143
f 147/147/147 144/144/144 145/145/145
f 148/148/148 146/146/146 143/143/143
f 149/149/149 147/147/147 145/145/145
f 150/150/150 146/146/146 148/148/148
f 151/151/151 147/147/147 149/149/149
f 152/152/152 150/150/150 148/148/148
f 153/153/153 151/151/151 149/149/149
f 154/154/154 150/150/150 152/152/152
f 155/155/155 151/151/151 153/153/153
f 156/156/156 154/154/154 152/152/152
f 157/157/157 155/155/155 153/153/153
f 158/158/158 154/154/154 156/156/156
f 159/159/159 155/155/155 157/157/157
f 160/160/160 158/158/158 156/156/156
f 161/161/161 159/159/159 157/157/157
f 161/161/161 158/158/158 160/160/160
f 159/159/159 161/161/161 160/160/160
