g Dispenser_Prop_0
v 0.3000001 1.989155E-08 0.2937492
v 0.3000003 -0.7163754 0.2937491
v -0.2999997 -0.7163745 0.2937494
v -0.2999999 -9.693269E-08 0.2937495
v -0.3000001 -1.98913E-08 -0.2937511
v -0.3 -0.7163744 -0.2937512
v 0.3 -0.7163743 -0.2937514
v 0.2999999 9.693295E-08 -0.2937514
v 0.2999999 9.693295E-08 -0.2937514
v 0.3 -0.7163743 -0.2937514
v 0.3000003 -0.7163754 0.2937491
v 0.3000001 1.989155E-08 0.2937492
v -0.2999999 -9.693269E-08 0.2937495
v -0.2999997 -0.7163745 0.2937494
v -0.3 -0.7163744 -0.2937512
v -0.3000001 -1.98913E-08 -0.2937511
v 0.3000003 -0.7163754 0.2937491
v 0.3 -0.7163743 -0.2937514
v -0.3 -0.7163744 -0.2937512
v -0.2999997 -0.7163745 0.2937494
v -0.2508207 -14.37662 -4.645624E-06
v -0.2460012 -14.37662 -0.04893767
v -0.1366688 -0.4055682 -0.02718735
v -0.1393463 -0.4055682 -2.381444E-06
v -0.2460012 -14.37662 -0.04893767
v -0.2317279 -14.37662 -0.09599007
v -0.1287392 -0.4055681 -0.05332756
v -0.1366688 -0.4055682 -0.02718735
v -0.2317279 -14.37662 -0.09599007
v -0.2085493 -14.37662 -0.1393541
v -0.1158622 -0.4055682 -0.07741882
v -0.1287392 -0.4055681 -0.05332756
v -0.2085493 -14.37662 -0.1393541
v -0.1773562 -14.37662 -0.1773623
v -0.09853268 -0.4055681 -0.09853461
v -0.1158622 -0.4055682 -0.07741882
v -0.1773562 -14.37662 -0.1773623
v -0.1393473 -14.37662 -0.2085561
v -0.07741662 -0.4055681 -0.1158643
v -0.09853268 -0.4055681 -0.09853461
v -0.1393473 -14.37662 -0.2085561
v -0.09598321 -14.37662 -0.2317347
v -0.05332548 -0.4055681 -0.1287413
v -0.07741662 -0.4055681 -0.1158643
v -0.09598321 -14.37662 -0.2317347
v -0.04893047 -14.37662 -0.2460084
v -0.02718506 -0.4055681 -0.1366711
v -0.05332548 -0.4055681 -0.1287413
v -0.04893047 -14.37662 -0.2460084
v 2.769225E-06 -14.37662 -0.2508278
v 7.202502E-08 -0.4055681 -0.1393486
v -0.02718506 -0.4055681 -0.1366711
v 2.769225E-06 -14.37662 -0.2508278
v 0.048936 -14.37662 -0.2460084
v 0.0271852 -0.4055681 -0.1366711
v 7.202502E-08 -0.4055681 -0.1393486
v 0.048936 -14.37662 -0.2460084
v 0.09598877 -14.37662 -0.2317348
v 0.05332562 -0.4055681 -0.1287414
v 0.0271852 -0.4055681 -0.1366711
v 0.09598877 -14.37662 -0.2317348
v 0.1393529 -14.37662 -0.2085562
v 0.0774168 -0.4055681 -0.1158644
v 0.05332562 -0.4055681 -0.1287414
v 0.1393529 -14.37662 -0.2085562
v 0.1773618 -14.37662 -0.1773625
v 0.09853286 -0.4055681 -0.09853468
v 0.0774168 -0.4055681 -0.1158644
v 0.1773618 -14.37662 -0.1773625
v 0.2085549 -14.37662 -0.1393543
v 0.1158624 -0.4055681 -0.07741891
v 0.09853286 -0.4055681 -0.09853468
v 0.2085549 -14.37662 -0.1393543
v 0.2317336 -14.37662 -0.09599026
v 0.1287394 -0.4055681 -0.05332766
v 0.1158624 -0.4055681 -0.07741891
v 0.2317336 -14.37662 -0.09599026
v 0.2460069 -14.37662 -0.04893692
v 0.136669 -0.4055681 -0.02718698
v 0.1287394 -0.4055681 -0.05332766
v 0.2460069 -14.37662 -0.04893692
v 0.2508264 -14.37662 -3.893281E-06
v 0.1393465 -0.4055681 -2.016458E-06
v 0.136669 -0.4055681 -0.02718698
v 0.2508264 -14.37662 -3.893281E-06
v 0.2460069 -14.37662 0.04893009
v 0.136669 -0.4055681 0.02718342
v 0.1393465 -0.4055681 -2.016458E-06
v 0.2460069 -14.37662 0.04893009
v 0.2317336 -14.37662 0.09598248
v 0.1287394 -0.4055681 0.05332364
v 0.136669 -0.4055681 0.02718342
v 0.2317336 -14.37662 0.09598248
v 0.208555 -14.37662 0.1393465
v 0.1158624 -0.4055681 0.07741489
v 0.1287394 -0.4055681 0.05332364
v 0.208555 -14.37662 0.1393465
v 0.1773619 -14.37662 0.1773548
v 0.09853293 -0.4055681 0.09853067
v 0.1158624 -0.4055681 0.07741489
v 0.1773619 -14.37662 0.1773548
v 0.1393529 -14.37662 0.2085476
v 0.07741681 -0.4055681 0.1158599
v 0.09853293 -0.4055681 0.09853067
v 0.1393529 -14.37662 0.2085476
v 0.09598883 -14.37662 0.2317262
v 0.05332566 -0.4055681 0.1287369
v 0.07741681 -0.4055681 0.1158599
v 0.09598883 -14.37662 0.2317262
v 0.04893597 -14.37662 0.2459998
v 0.02718518 -0.4055681 0.1366667
v 0.05332566 -0.4055681 0.1287369
v 0.04893597 -14.37662 0.2459998
v 2.731351E-06 -14.37662 0.2508192
v 5.098428E-08 -0.4055682 0.1393442
v 0.02718518 -0.4055681 0.1366667
v 2.731351E-06 -14.37662 0.2508192
v -0.04893051 -14.37662 0.2459999
v -0.02718508 -0.4055681 0.1366667
v 5.098428E-08 -0.4055682 0.1393442
v -0.04893051 -14.37662 0.2459999
v -0.09598339 -14.37662 0.2317262
v -0.05332557 -0.4055681 0.1287369
v -0.02718508 -0.4055681 0.1366667
v -0.09598339 -14.37662 0.2317262
v -0.1393473 -14.37662 0.2085477
v -0.07741665 -0.4055682 0.11586
v -0.05332557 -0.4055681 0.1287369
v -0.1393473 -14.37662 0.2085477
v -0.1773562 -14.37662 0.1773549
v -0.09853269 -0.4055682 0.09853075
v -0.07741665 -0.4055682 0.11586
v -0.1773562 -14.37662 0.1773549
v -0.2085495 -14.37662 0.1393458
v -0.1158623 -0.4055682 0.0774145
v -0.09853269 -0.4055682 0.09853075
v -0.2085495 -14.37662 0.1393458
v -0.231728 -14.37662 0.09598171
v -0.1287392 -0.4055682 0.05332327
v -0.1158623 -0.4055682 0.0774145
v -0.231728 -14.37662 0.09598171
v -0.2460011 -14.37662 0.04892934
v -0.1366688 -0.4055682 0.02718306
v -0.1287392 -0.4055682 0.05332327
v -0.2460011 -14.37662 0.04892934
v -0.2508207 -14.37662 -4.645624E-06
v -0.1393463 -0.4055682 -2.381444E-06
v -0.1366688 -0.4055682 0.02718306
v 0.3000001 1.989155E-08 0.2937492
v -0.2999999 -9.693269E-08 0.2937495
v -0.3000001 -1.98913E-08 -0.2937511
v 0.2999999 9.693295E-08 -0.2937514
v -0.2999972 -15.27662 -0.2937531
v -0.2999969 -15.27662 0.2937475
v 0.3000031 -15.27662 0.2937472
v 0.3000029 -15.27662 -0.2937534
v 0.3000027 -14.33686 -0.2937533
v 0.3000029 -15.27662 -0.2937534
v 0.3000031 -15.27662 0.2937472
v 0.3000029 -14.33686 0.2937473
v -0.2999971 -14.33686 0.2937476
v -0.2999969 -15.27662 0.2937475
v -0.2999972 -15.27662 -0.2937531
v -0.2999973 -14.33686 -0.293753
v -0.2999973 -14.33686 -0.293753
v -0.2999972 -15.27662 -0.2937531
v 0.3000029 -15.27662 -0.2937534
v 0.3000027 -14.33686 -0.2937533
v 0.3000029 -14.33686 0.2937473
v 0.3000031 -15.27662 0.2937472
v -0.2999969 -15.27662 0.2937475
v -0.2999971 -14.33686 0.2937476
v -0.2999973 -14.33686 -0.293753
v 0.3000027 -14.33686 -0.2937533
v 0.3000029 -14.33686 0.2937473
v -0.2999971 -14.33686 0.2937476
vt 0.6856889 0.5802156
vt 0.6856889 0.5802156
vt 0.6856889 0.5802156
vt 0.6856889 0.5802156
vt 0.6856889 0.5802156
vt 0.6856889 0.5802156
vt 0.6856889 0.5802156
vt 0.6856889 0.5802156
vt 0.6856889 0.5802156
vt 0.6856889 0.5802156
vt 0.6856889 0.5802156
vt 0.6856889 0.5802156
vt 0.6856889 0.5802156
vt 0.6856889 0.5802156
vt 0.6856889 0.5802156
vt 0.6856889 0.5802156
vt 0.6856889 0.5802156
vt 0.6856889 0.5802156
vt 0.6856889 0.5802156
vt 0.6856889 0.5802156
vt 0.6872306 0.7966391
vt 0.686581 0.7970763
vt 0.6910711 0.8021327
vt 0.6906484 0.8024752
vt 0.686581 0.7970763
vt 0.6860297 0.7976322
vt 0.6914189 0.8017145
vt 0.6910711 0.8021327
vt 0.6860297 0.7976322
vt 0.685598 0.7982852
vt 0.6916783 0.8012367
vt 0.6914189 0.8017145
vt 0.685598 0.7982852
vt 0.6853023 0.7990097
vt 0.6918409 0.8007182
vt 0.6916783 0.8012367
vt 0.6853023 0.7990097
vt 0.685153 0.7997779
vt 0.6918977 0.8001779
vt 0.6918409 0.8007182
vt 0.685153 0.7997779
vt 0.6851557 0.8005602
vt 0.6918467 0.7996373
vt 0.6918977 0.8001779
vt 0.6851557 0.8005602
vt 0.6853095 0.8013272
vt 0.6916889 0.7991179
vt 0.6918467 0.7996373
vt 0.6853095 0.8013272
vt 0.6856083 0.8020498
vt 0.6914302 0.798641
vt 0.6916889 0.7991179
vt 0.6856083 0.8020498
vt 0.6860408 0.8027006
vt 0.6910813 0.7982258
vt 0.6914302 0.798641
vt 0.6860408 0.8027006
vt 0.6865907 0.8032549
vt 0.690657 0.7978886
vt 0.6910813 0.7982258
vt 0.6865907 0.8032549
vt 0.6872371 0.8036911
vt 0.6901745 0.7976429
vt 0.690657 0.7978886
vt 0.6872371 0.8036911
vt 0.6879554 0.8039923
vt 0.6896538 0.7974961
vt 0.6901745 0.7976429
vt 0.6879554 0.8039923
vt 0.6887177 0.8041461
vt 0.6891152 0.7974542
vt 0.6896538 0.7974961
vt 0.6887177 0.8041461
vt 0.6894939 0.8041461
vt 0.6885762 0.797491
vt 0.6891152 0.7974542
vt 0.6894939 0.8041461
vt 0.6902565 0.803993
vt 0.6880544 0.7976341
vt 0.6885762 0.797491
vt 0.6902565 0.803993
vt 0.6909756 0.803693
vt 0.687571 0.7978785
vt 0.6880544 0.7976341
vt 0.6909756 0.803693
vt 0.6916234 0.8032581
vt 0.6871458 0.7982147
vt 0.687571 0.7978785
vt 0.6916234 0.8032581
vt 0.6921749 0.8027052
vt 0.6867962 0.7986294
vt 0.6871458 0.7982147
vt 0.6921749 0.8027052
vt 0.6926094 0.8020554
vt 0.6865366 0.7991059
vt 0.6867962 0.7986294
vt 0.6926094 0.8020554
vt 0.6929103 0.8013336
vt 0.6863778 0.799625
vt 0.6865366 0.7991059
vt 0.6929103 0.8013336
vt 0.6930662 0.8005672
vt 0.6863234 0.8001656
vt 0.6863778 0.799625
vt 0.6930662 0.8005672
vt 0.6930704 0.7997845
vt 0.6863766 0.8007065
vt 0.6863234 0.8001656
vt 0.6930704 0.7997845
vt 0.6929221 0.7990159
vt 0.6865353 0.8012266
vt 0.6863766 0.8007065
vt 0.6929221 0.7990159
vt 0.6926269 0.7982907
vt 0.6867929 0.8017057
vt 0.6865353 0.8012266
vt 0.6926269 0.7982907
vt 0.6921957 0.797637
vt 0.6871392 0.8021253
vt 0.6867929 0.8017057
vt 0.6921957 0.797637
vt 0.6916448 0.7970801
vt 0.6875607 0.8024696
vt 0.6871392 0.8021253
vt 0.6916448 0.7970801
vt 0.6909956 0.7966419
vt 0.6880412 0.8027253
vt 0.6875607 0.8024696
vt 0.6909956 0.7966419
vt 0.6902729 0.7963396
vt 0.6885621 0.8028831
vt 0.6880412 0.8027253
vt 0.6902729 0.7963396
vt 0.689505 0.7961851
vt 0.6891038 0.802937
vt 0.6885621 0.8028831
vt 0.689505 0.7961851
vt 0.6887217 0.7961845
vt 0.6896456 0.8028851
vt 0.6891038 0.802937
vt 0.6887217 0.7961845
vt 0.6879536 0.7963378
vt 0.6901671 0.8027291
vt 0.6896456 0.8028851
vt 0.6879536 0.7963378
vt 0.6872306 0.7966391
vt 0.6906484 0.8024752
vt 0.6901671 0.8027291
vt 0.6856889 0.5802156
vt 0.6856889 0.5802156
vt 0.6856889 0.5802156
vt 0.6856889 0.5802156
vt 0.680387 0.5750118
vt 0.680387 0.5746737
vt 0.6800489 0.5746737
vt 0.6800489 0.5750118
vt 0.680387 0.5750118
vt 0.680387 0.5746737
vt 0.6800489 0.5746737
vt 0.6800489 0.5750118
vt 0.680387 0.5750118
vt 0.680387 0.5746737
vt 0.6800489 0.5746737
vt 0.6800489 0.5750118
vt 0.680387 0.5750118
vt 0.680387 0.5746737
vt 0.6800489 0.5746737
vt 0.6800489 0.5750118
vt 0.680387 0.5750118
vt 0.680387 0.5746737
vt 0.6800489 0.5746737
vt 0.6800489 0.5750118
vt 0.680387 0.5750118
vt 0.680387 0.5746737
vt 0.6800489 0.5746737
vt 0.6800489 0.5750118
vn 0 0 1
vn 0 0 1
vn 0 0 1
vn 0 0 1
vn 0 0 -1
vn 0 0 -1
vn 0 0 -1
vn 0 0 -1
vn 1 0 0
vn 1 0 0
vn 1 0 0
vn 1 0 0
vn -1 0 0
vn -1 0 0
vn -1 0 0
vn -1 0 0
vn 0 -1 0
vn 0 -1 0
vn 0 -1 0
vn 0 -1 0
vn -0.9951532 0.007940304 -0.09801481
vn -0.9951532 0.007940304 -0.09801481
vn -0.9951532 0.007940304 -0.09801481
vn -0.9951532 0.007940304 -0.09801481
vn -0.9569095 0.007940334 -0.2902777
vn -0.9569095 0.007940334 -0.2902777
vn -0.9569095 0.007940334 -0.2902777
vn -0.9569095 0.007940334 -0.2902777
vn -0.8818939 0.007940376 -0.4713812
vn -0.8818939 0.007940376 -0.4713812
vn -0.8818939 0.007940376 -0.4713812
vn -0.8818939 0.007940376 -0.4713812
vn -0.772981 0.00794041 -0.6343796
vn -0.772981 0.00794041 -0.6343796
vn -0.772981 0.00794041 -0.6343796
vn -0.772981 0.00794041 -0.6343796
vn -0.6343799 0.007940452 -0.7729807
vn -0.6343799 0.007940452 -0.7729807
vn -0.6343799 0.007940452 -0.7729807
vn -0.6343799 0.007940452 -0.7729807
vn -0.4713826 0.00794051 -0.881893
vn -0.4713826 0.00794051 -0.881893
vn -0.4713826 0.00794051 -0.881893
vn -0.4713826 0.00794051 -0.881893
vn -0.2902821 0.007940565 -0.9569083
vn -0.2902821 0.007940565 -0.9569083
vn -0.2902821 0.007940565 -0.9569083
vn -0.2902821 0.007940565 -0.9569083
vn -0.09801235 0.007940608 -0.9951535
vn -0.09801235 0.007940608 -0.9951535
vn -0.09801235 0.007940608 -0.9951535
vn -0.09801235 0.007940608 -0.9951535
vn 0.09801147 0.007940648 -0.9951535
vn 0.09801147 0.007940648 -0.9951535
vn 0.09801147 0.007940648 -0.9951535
vn 0.09801147 0.007940648 -0.9951535
vn 0.2902815 0.007940676 -0.9569083
vn 0.2902815 0.007940676 -0.9569083
vn 0.2902815 0.007940676 -0.9569083
vn 0.2902815 0.007940676 -0.9569083
vn 0.4713812 0.007940695 -0.8818938
vn 0.4713812 0.007940695 -0.8818938
vn 0.4713812 0.007940695 -0.8818938
vn 0.4713812 0.007940695 -0.8818938
vn 0.6343796 0.007940699 -0.7729809
vn 0.6343796 0.007940699 -0.7729809
vn 0.6343796 0.007940699 -0.7729809
vn 0.6343796 0.007940699 -0.7729809
vn 0.7729806 0.007940711 -0.6343799
vn 0.7729806 0.007940711 -0.6343799
vn 0.7729806 0.007940711 -0.6343799
vn 0.7729806 0.007940711 -0.6343799
vn 0.8818927 0.007940722 -0.4713834
vn 0.8818927 0.007940722 -0.4713834
vn 0.8818927 0.007940722 -0.4713834
vn 0.8818927 0.007940722 -0.4713834
vn 0.9569113 0.007940709 -0.2902716
vn 0.9569113 0.007940709 -0.2902716
vn 0.9569113 0.007940709 -0.2902716
vn 0.9569113 0.007940709 -0.2902716
vn 0.9951532 0.007940688 -0.09801549
vn 0.9951532 0.007940688 -0.09801549
vn 0.9951532 0.007940688 -0.09801549
vn 0.9951532 0.007940688 -0.09801549
vn 0.9951534 0.007940663 0.09801287
vn 0.9951534 0.007940663 0.09801287
vn 0.9951534 0.007940663 0.09801287
vn 0.9951534 0.007940663 0.09801287
vn 0.9569095 0.007940634 0.2902777
vn 0.9569095 0.007940634 0.2902777
vn 0.9569095 0.007940634 0.2902777
vn 0.9569095 0.007940634 0.2902777
vn 0.8818938 0.007940601 0.4713812
vn 0.8818938 0.007940601 0.4713812
vn 0.8818938 0.007940601 0.4713812
vn 0.8818938 0.007940601 0.4713812
vn 0.7729811 0.007940543 0.6343794
vn 0.7729811 0.007940543 0.6343794
vn 0.7729811 0.007940543 0.6343794
vn 0.7729811 0.007940543 0.6343794
vn 0.6343676 0.007940488 0.7729908
vn 0.6343676 0.007940488 0.7729908
vn 0.6343676 0.007940488 0.7729908
vn 0.6343676 0.007940488 0.7729908
vn 0.4713821 0.007940434 0.8818933
vn 0.4713821 0.007940434 0.8818933
vn 0.4713821 0.007940434 0.8818933
vn 0.4713821 0.007940434 0.8818933
vn 0.2902818 0.007940393 0.9569083
vn 0.2902818 0.007940393 0.9569083
vn 0.2902818 0.007940393 0.9569083
vn 0.2902818 0.007940393 0.9569083
vn 0.09801235 0.007940356 0.9951535
vn 0.09801235 0.007940356 0.9951535
vn 0.09801235 0.007940356 0.9951535
vn 0.09801235 0.007940356 0.9951535
vn -0.09801146 0.007940318 0.9951535
vn -0.09801146 0.007940318 0.9951535
vn -0.09801146 0.007940318 0.9951535
vn -0.09801146 0.007940318 0.9951535
vn -0.2902813 0.007940283 0.9569085
vn -0.2902813 0.007940283 0.9569085
vn -0.2902813 0.007940283 0.9569085
vn -0.2902813 0.007940283 0.9569085
vn -0.4713822 0.007940257 0.8818933
vn -0.4713822 0.007940257 0.8818933
vn -0.4713822 0.007940257 0.8818933
vn -0.4713822 0.007940257 0.8818933
vn -0.6343687 0.007940242 0.7729898
vn -0.6343687 0.007940242 0.7729898
vn -0.6343687 0.007940242 0.7729898
vn -0.6343687 0.007940242 0.7729898
vn -0.7729871 0.007940235 0.6343721
vn -0.7729871 0.007940235 0.6343721
vn -0.7729871 0.007940235 0.6343721
vn -0.7729871 0.007940235 0.6343721
vn -0.8818941 0.007940243 0.4713807
vn -0.8818941 0.007940243 0.4713807
vn -0.8818941 0.007940243 0.4713807
vn -0.8818941 0.007940243 0.4713807
vn -0.9569102 0.007940254 0.2902752
vn -0.9569102 0.007940254 0.2902752
vn -0.9569102 0.007940254 0.2902752
vn -0.9569102 0.007940254 0.2902752
vn -0.9951533 0.007940267 0.09801374
vn -0.9951533 0.007940267 0.09801374
vn -0.9951533 0.007940267 0.09801374
vn -0.9951533 0.007940267 0.09801374
vn 0 1 0
vn 0 1 0
vn 0 1 0
vn 0 1 0
vn 0 -1 0
vn 0 -1 0
vn 0 -1 0
vn 0 -1 0
vn 1 0 0
vn 1 0 0
vn 1 0 0
vn 1 0 0
vn -1 0 0
vn -1 0 0
vn -1 0 0
vn -1 0 0
vn 0 0 -1
vn 0 0 -1
vn 0 0 -1
vn 0 0 -1
vn 0 0 1
vn 0 0 1
vn 0 0 1
vn 0 0 1
vn 0 1 0
vn 0 1 0
vn 0 1 0
vn 0 1 0
g Dispenser_Prop_0_0
f 3/3/3 2/2/2 1/1/1
f 4/4/4 3/3/3 1/1/1
f 7/7/7 6/6/6 5/5/5
f 8/8/8 7/7/7 5/5/5
f 11/11/11 10/10/10 9/9/9
f 12/12/12 11/11/11 9/9/9
f 15/15/15 14/14/14 13/13/13
f 16/16/16 15/15/15 13/13/13
f 19/19/19 18/18/18 17/17/17
f 20/20/20 19/19/19 17/17/17
f 23/23/23 22/22/22 21/21/21
f 24/24/24 23/23/23 21/21/21
f 27/27/27 26/26/26 25/25/25
f 28/28/28 27/27/27 25/25/25
f 31/31/31 30/30/30 29/29/29
f 32/32/32 31/31/31 29/29/29
f 35/35/35 34/34/34 33/33/33
f 36/36/36 35/35/35 33/33/33
f 39/39/39 38/38/38 37/37/37
f 40/40/40 39/39/39 37/37/37
f 43/43/43 42/42/42 41/41/41
f 44/44/44 43/43/43 41/41/41
f 47/47/47 46/46/46 45/45/45
f 48/48/48 47/47/47 45/45/45
f 51/51/51 50/50/50 49/49/49
f 52/52/52 51/51/51 49/49/49
f 55/55/55 54/54/54 53/53/53
f 56/56/56 55/55/55 53/53/53
f 59/59/59 58/58/58 57/57/57
f 60/60/60 59/59/59 57/57/57
f 63/63/63 62/62/62 61/61/61
f 64/64/64 63/63/63 61/61/61
f 67/67/67 66/66/66 65/65/65
f 68/68/68 67/67/67 65/65/65
f 71/71/71 70/70/70 69/69/69
f 72/72/72 71/71/71 69/69/69
f 75/75/75 74/74/74 73/73/73
f 76/76/76 75/75/75 73/73/73
f 79/79/79 78/78/78 77/77/77
f 80/80/80 79/79/79 77/77/77
f 83/83/83 82/82/82 81/81/81
f 84/84/84 83/83/83 81/81/81
f 87/87/87 86/86/86 85/85/85
f 88/88/88 87/87/87 85/85/85
f 91/91/91 90/90/90 89/89/89
f 92/92/92 91/91/91 89/89/89
f 95/95/95 94/94/94 93/93/93
f 96/96/96 95/95/95 93/93/93
f 99/99/99 98/98/98 97/97/97
f 100/100/100 99/99/99 97/97/97
f 103/103/103 102/102/102 101/101/101
f 104/104/104 103/103/103 101/101/101
f 107/107/107 106/106/106 105/105/105
f 108/108/108 107/107/107 105/105/105
f 111/111/111 110/110/110 109/109/109
f 112/112/112 111/111/111 109/109/109
f 115/115/115 114/114/114 113/113/113
f 116/116/116 115/115/115 113/113/113
f 119/119/119 118/118/118 117/117/117
f 120/120/120 119/119/119 117/117/117
f 123/123/123 122/122/122 121/121/121
f 124/124/124 123/123/123 121/121/121
f 127/127/127 126/126/126 125/125/125
f 128/128/128 127/127/127 125/125/125
f 131/131/131 130/130/130 129/129/129
f 132/132/132 131/131/131 129/129/129
f 135/135/135 134/134/134 133/133/133
f 136/136/136 135/135/135 133/133/133
f 139/139/139 138/138/138 137/137/137
f 140/140/140 139/139/139 137/137/137
f 143/143/143 142/142/142 141/141/141
f 144/144/144 143/143/143 141/141/141
f 147/147/147 146/146/146 145/145/145
f 148/148/148 147/147/147 145/145/145
f 151/151/151 150/150/150 149/149/149
f 152/152/152 151/151/151 149/149/149
f 155/155/155 154/154/154 153/153/153
f 156/156/156 155/155/155 153/153/153
f 159/159/159 158/158/158 157/157/157
f 160/160/160 159/159/159 157/157/157
f 163/163/163 162/162/162 161/161/161
f 164/164/164 163/163/163 161/161/161
f 167/167/167 166/166/166 165/165/165
f 168/168/168 167/167/167 165/165/165
f 171/171/171 170/170/170 169/169/169
f 172/172/172 171/171/171 169/169/169
f 175/175/175 174/174/174 173/173/173
f 176/176/176 175/175/175 173/173/173
