g guardrail_200_02
v -1 0.9755881 0.8674452
v -0.7340516 1.024819 0.8674452
v -1 1.024819 0.8674452
v -0.7340516 0.9755882 0.8674452
v -0.5041106 1.024819 0.8674452
v -0.5041106 0.9755883 0.8674451
v -0.2659476 1.024819 0.8674451
v -0.2659476 0.9755883 0.8674451
v 7.629394E-08 1.024819 0.8674451
v 7.629394E-08 0.9755883 0.8674451
v -1 1.024819 0.8674452
v -0.7340516 1.024819 0.9472521
v -1 1.024819 0.9472521
v -0.7340516 1.024819 0.8674452
v -0.5041106 1.024819 0.9472521
v -0.5041106 1.024819 0.8674452
v -0.2659476 1.024819 0.9472521
v -0.2659476 1.024819 0.8674451
v 7.629394E-08 1.024819 0.9472521
v 7.629394E-08 1.024819 0.8674451
v -1 1.024819 0.9472521
v -0.7340516 0.9755881 0.9472521
v -1 0.9755881 0.9472521
v -0.7340516 1.024819 0.9472521
v -0.5041106 0.9755882 0.9472521
v -0.5041106 1.024819 0.9472521
v -0.2659476 0.9755883 0.9472521
v -0.2659476 1.024819 0.9472521
v 7.629394E-08 0.9755883 0.9472521
v 7.629394E-08 1.024819 0.9472521
v -1 0.9755881 0.9472521
v -0.7340516 0.9755882 0.8674452
v -1 0.9755881 0.8674452
v -0.7340516 0.9755881 0.9472521
v -0.5041106 0.9755883 0.8674451
v -0.5041106 0.9755882 0.9472521
v -0.2659476 0.9755883 0.8674451
v -0.2659476 0.9755883 0.9472521
v 7.629394E-08 0.9755883 0.8674451
v 7.629394E-08 0.9755883 0.9472521
v -1 0.5610392 0.89376
v -0.7340516 0.6102712 0.89376
v -1 0.6102712 0.89376
v -0.7340516 0.5610393 0.89376
v -0.5041106 0.6102712 0.89376
v -0.5041106 0.5610393 0.89376
v -0.2659476 0.6102712 0.89376
v -0.2659476 0.5610393 0.89376
v -4.547473E-15 0.6102712 0.89376
v -4.121148E-15 0.5610393 0.89376
v -1 0.6102712 0.89376
v -0.7340516 0.6102712 0.920937
v -1 0.6102712 0.920937
v -0.7340516 0.6102712 0.89376
v -0.5041106 0.6102712 0.920937
v -0.5041106 0.6102712 0.89376
v -0.2659476 0.6102712 0.920937
v -0.2659476 0.6102712 0.89376
v -4.547473E-15 0.6102712 0.920937
v -4.547473E-15 0.6102712 0.89376
v -1 0.6102712 0.920937
v -0.7340516 0.5610393 0.920937
v -1 0.5610392 0.920937
v -0.7340516 0.6102712 0.920937
v -0.5041106 0.5610393 0.920937
v -0.5041106 0.6102712 0.920937
v -0.2659476 0.5610393 0.920937
v -0.2659476 0.6102712 0.920937
v -4.121148E-15 0.5610393 0.920937
v -4.547473E-15 0.6102712 0.920937
v -1 0.5610392 0.920937
v -0.7340516 0.5610393 0.89376
v -1 0.5610392 0.89376
v -0.7340516 0.5610393 0.920937
v -0.5041106 0.5610393 0.89376
v -0.5041106 0.5610393 0.920937
v -0.2659476 0.5610393 0.89376
v -0.2659476 0.5610393 0.920937
v -4.121148E-15 0.5610393 0.89376
v -4.121148E-15 0.5610393 0.920937
v -1 0.9755883 -0.8674447
v -1 1.024819 -0.8674447
v -0.7340516 1.024819 -0.8674447
v -0.7340516 0.9755884 -0.8674447
v -0.5041106 1.024819 -0.8674447
v -0.5041106 0.9755884 -0.8674446
v -0.2659476 1.024819 -0.8674446
v -0.2659476 0.9755884 -0.8674446
v 7.629394E-08 1.024819 -0.8674446
v 7.629394E-08 0.9755884 -0.8674446
v -1 1.024819 -0.8674447
v -1 1.024819 -0.9472516
v -0.7340516 1.024819 -0.9472516
v -0.7340516 1.024819 -0.8674447
v -0.5041106 1.024819 -0.9472516
v -0.5041106 1.024819 -0.8674447
v -0.2659476 1.024819 -0.9472516
v -0.2659476 1.024819 -0.8674446
v 7.629394E-08 1.024819 -0.9472516
v 7.629394E-08 1.024819 -0.8674446
v -1 1.024819 -0.9472516
v -1 0.9755883 -0.9472516
v -0.7340516 0.9755883 -0.9472516
v -0.7340516 1.024819 -0.9472516
v -0.5041106 0.9755884 -0.9472516
v -0.5041106 1.024819 -0.9472516
v -0.2659476 0.9755884 -0.9472516
v -0.2659476 1.024819 -0.9472516
v 7.629394E-08 0.9755884 -0.9472516
v 7.629394E-08 1.024819 -0.9472516
v -1 0.9755883 -0.9472516
v -1 0.9755883 -0.8674447
v -0.7340516 0.9755884 -0.8674447
v -0.7340516 0.9755883 -0.9472516
v -0.5041106 0.9755884 -0.8674446
v -0.5041106 0.9755884 -0.9472516
v -0.2659476 0.9755884 -0.8674446
v -0.2659476 0.9755884 -0.9472516
v 7.629394E-08 0.9755884 -0.8674446
v 7.629394E-08 0.9755884 -0.9472516
v -1 0.5610393 -0.8937595
v -1 0.6102713 -0.8937595
v -0.7340516 0.6102713 -0.8937595
v -0.7340516 0.5610394 -0.8937595
v -0.5041106 0.6102713 -0.8937595
v -0.5041106 0.5610394 -0.8937595
v -0.2659476 0.6102713 -0.8937595
v -0.2659476 0.5610394 -0.8937595
v -4.263256E-15 0.6102713 -0.8937595
v -3.836931E-15 0.5610394 -0.8937595
v -1 0.6102713 -0.8937595
v -1 0.6102713 -0.9209366
v -0.7340516 0.6102713 -0.9209366
v -0.7340516 0.6102713 -0.8937595
v -0.5041106 0.6102713 -0.9209366
v -0.5041106 0.6102713 -0.8937595
v -0.2659476 0.6102713 -0.9209366
v -0.2659476 0.6102713 -0.8937595
v -4.263256E-15 0.6102713 -0.9209366
v -4.263256E-15 0.6102713 -0.8937595
v -1 0.6102713 -0.9209366
v -1 0.5610393 -0.9209366
v -0.7340516 0.5610394 -0.9209366
v -0.7340516 0.6102713 -0.9209366
v -0.5041106 0.5610394 -0.9209366
v -0.5041106 0.6102713 -0.9209366
v -0.2659476 0.5610394 -0.9209366
v -0.2659476 0.6102713 -0.9209366
v -3.836931E-15 0.5610394 -0.9209366
v -4.263256E-15 0.6102713 -0.9209366
v -1 0.5610393 -0.9209366
v -1 0.5610393 -0.8937595
v -0.7340516 0.5610394 -0.8937595
v -0.7340516 0.5610394 -0.9209366
v -0.5041106 0.5610394 -0.8937595
v -0.5041106 0.5610394 -0.9209366
v -0.2659476 0.5610394 -0.8937595
v -0.2659476 0.5610394 -0.9209366
v -3.836931E-15 0.5610394 -0.8937595
v -3.836931E-15 0.5610394 -0.9209366
vt 0.3783167 0.791037
vt 0.4009391 0.7741016
vt 0.3783167 0.7741015
vt 0.4009391 0.7910371
vt 0.4204987 0.7741017
vt 0.4204987 0.7910371
vt 0.4407576 0.7741019
vt 0.4407576 0.791037
vt 0.46338 0.774102
vt 0.46338 0.791037
vt 0.3783167 0.7741015
vt 0.4009391 0.7466476
vt 0.3783167 0.7466475
vt 0.4009391 0.7741016
vt 0.4204987 0.7466478
vt 0.4204987 0.7741017
vt 0.4407576 0.7466479
vt 0.4407576 0.7741019
vt 0.46338 0.746648
vt 0.46338 0.774102
vt 0.3783167 0.7466475
vt 0.4009391 0.7297122
vt 0.3783167 0.7297121
vt 0.4009391 0.7466476
vt 0.4204987 0.7297125
vt 0.4204987 0.7466478
vt 0.4407576 0.7297127
vt 0.4407576 0.7466479
vt 0.46338 0.729713
vt 0.46338 0.746648
vt 0.3783167 0.818491
vt 0.4009391 0.7910371
vt 0.3783167 0.791037
vt 0.4009391 0.818491
vt 0.4204987 0.7910371
vt 0.4204987 0.818491
vt 0.4407576 0.791037
vt 0.4407576 0.818491
vt 0.46338 0.791037
vt 0.46338 0.818491
vt 0.4528855 0.935323
vt 0.492922 0.9235929
vt 0.4528855 0.923593
vt 0.492922 0.935323
vt 0.5275379 0.9235929
vt 0.5275379 0.935323
vt 0.5633916 0.9235929
vt 0.5633916 0.935323
vt 0.603428 0.923593
vt 0.603428 0.935323
vt 0.4528855 0.923593
vt 0.492954 0.915282
vt 0.4529175 0.915282
vt 0.492922 0.9235929
vt 0.5275699 0.915282
vt 0.5275379 0.9235929
vt 0.5634236 0.915282
vt 0.5633916 0.9235929
vt 0.60346 0.915282
vt 0.603428 0.923593
vt 0.4529175 0.915282
vt 0.492954 0.903551
vt 0.4529175 0.903551
vt 0.492954 0.915282
vt 0.5275699 0.903551
vt 0.5275699 0.915282
vt 0.5634236 0.903551
vt 0.5634236 0.915282
vt 0.60346 0.903551
vt 0.60346 0.915282
vt 0.4528535 0.943634
vt 0.492922 0.935323
vt 0.4528855 0.935323
vt 0.49289 0.943634
vt 0.5275379 0.935323
vt 0.5275059 0.9436339
vt 0.5633916 0.935323
vt 0.5633596 0.9436339
vt 0.603428 0.935323
vt 0.603396 0.943634
vt 0.3783167 0.791037
vt 0.3783167 0.7741015
vt 0.4009391 0.7741016
vt 0.4009391 0.7910371
vt 0.4204987 0.7741017
vt 0.4204987 0.7910371
vt 0.4407576 0.7741019
vt 0.4407576 0.791037
vt 0.46338 0.774102
vt 0.46338 0.791037
vt 0.3783167 0.7741015
vt 0.3783167 0.7466475
vt 0.4009391 0.7466476
vt 0.4009391 0.7741016
vt 0.4204987 0.7466478
vt 0.4204987 0.7741017
vt 0.4407576 0.7466479
vt 0.4407576 0.7741019
vt 0.46338 0.746648
vt 0.46338 0.774102
vt 0.3783167 0.7466475
vt 0.3783167 0.7297121
vt 0.4009391 0.7297122
vt 0.4009391 0.7466476
vt 0.4204987 0.7297125
vt 0.4204987 0.7466478
vt 0.4407576 0.7297127
vt 0.4407576 0.7466479
vt 0.46338 0.729713
vt 0.46338 0.746648
vt 0.3783167 0.818491
vt 0.3783167 0.791037
vt 0.4009391 0.7910371
vt 0.4009391 0.818491
vt 0.4204987 0.7910371
vt 0.4204987 0.818491
vt 0.4407576 0.791037
vt 0.4407576 0.818491
vt 0.46338 0.791037
vt 0.46338 0.818491
vt 0.4528855 0.935323
vt 0.4528855 0.923593
vt 0.492922 0.9235929
vt 0.492922 0.935323
vt 0.5275379 0.9235929
vt 0.5275379 0.935323
vt 0.5633916 0.9235929
vt 0.5633916 0.935323
vt 0.603428 0.923593
vt 0.603428 0.935323
vt 0.4528855 0.923593
vt 0.4529175 0.915282
vt 0.492954 0.915282
vt 0.492922 0.9235929
vt 0.5275699 0.915282
vt 0.5275379 0.9235929
vt 0.5634236 0.915282
vt 0.5633916 0.9235929
vt 0.60346 0.915282
vt 0.603428 0.923593
vt 0.4529175 0.915282
vt 0.4529175 0.903551
vt 0.492954 0.903551
vt 0.492954 0.915282
vt 0.5275699 0.903551
vt 0.5275699 0.915282
vt 0.5634236 0.903551
vt 0.5634236 0.915282
vt 0.60346 0.903551
vt 0.60346 0.915282
vt 0.4528535 0.943634
vt 0.4528855 0.935323
vt 0.492922 0.935323
vt 0.49289 0.943634
vt 0.5275379 0.935323
vt 0.5275059 0.9436339
vt 0.5633916 0.935323
vt 0.5633596 0.9436339
vt 0.603428 0.935323
vt 0.603396 0.943634
vn 0 0 -1
vn 0 0 -1
vn 0 0 -1
vn 0 0 -1
vn -3.203434E-07 1.549715E-06 -1
vn 0 0 -1
vn 0 0 -1
vn 0 0 -1
vn 0 0 -1
vn 0 0 -1
vn -2.868749E-07 1 0
vn -2.868749E-07 1 0
vn -2.868749E-07 1 0
vn -2.868749E-07 1 0
vn 0 1 0
vn 0 1 0
vn 0 1 0
vn 0 1 0
vn 0 1 0
vn 0 1 0
vn 0 0 1
vn 0 0 1
vn 0 0 1
vn 0 0 1
vn 0 0 1
vn 0 0 1
vn 0 0 1
vn 0 0 1
vn 0 0 1
vn 0 0 1
vn 0 -1 -9.559819E-07
vn 0 -1 -9.559819E-07
vn 2.868749E-07 -1 0
vn 0 -1 -9.559819E-07
vn 0 -1 -9.55981E-07
vn 3.203434E-07 -1 0
vn 0 -1 0
vn 0 -1 0
vn 0 -1 0
vn 0 -1 0
vn 0 0 -1
vn 0 0 -1
vn 0 0 -1
vn 0 0 -1
vn 0 0 -1
vn 0 0 -1
vn 0 0 -1
vn 0 0 -1
vn 0 0 -1
vn 0 0 -1
vn 0 1 0
vn 0 1 0
vn 0 1 0
vn 0 1 0
vn 0 1 0
vn 0 1 0
vn 0 1 0
vn 0 1 0
vn 0 1 0
vn 0 1 0
vn 0 0 1
vn 0 0 1
vn 0 0 1
vn 0 0 1
vn 0 0 1
vn 0 0 1
vn 0 0 1
vn 0 0 1
vn 0 0 1
vn 0 0 1
vn 2.868749E-07 -1 0
vn 2.868749E-07 -1 0
vn 2.868749E-07 -1 0
vn 2.868749E-07 -1 0
vn 0 -1 0
vn 0 -1 0
vn 0 -1 0
vn 0 -1 0
vn 0 -1 0
vn 0 -1 0
vn 0 0 1
vn 0 0 1
vn 0 0 1
vn 0 0 1
vn -3.203434E-07 1.549715E-06 1
vn 0 0 1
vn 0 0 1
vn 0 0 1
vn 0 0 1
vn 0 0 1
vn -2.868749E-07 1 0
vn -2.868749E-07 1 0
vn -2.868749E-07 1 0
vn -2.868749E-07 1 0
vn 0 1 0
vn 0 1 0
vn 0 1 0
vn 0 1 0
vn 0 1 0
vn 0 1 0
vn 0 0 -1
vn 0 0 -1
vn 0 0 -1
vn 0 0 -1
vn 0 0 -1
vn 0 0 -1
vn 0 0 -1
vn 0 0 -1
vn 0 0 -1
vn 0 0 -1
vn 0 -1 9.559819E-07
vn 2.868749E-07 -1 0
vn 0 -1 9.559819E-07
vn 0 -1 9.559819E-07
vn 0 -1 9.55981E-07
vn 3.203434E-07 -1 0
vn 0 -1 0
vn 0 -1 0
vn 0 -1 0
vn 0 -1 0
vn 0 0 1
vn 0 0 1
vn 0 0 1
vn 0 0 1
vn 0 0 1
vn 0 0 1
vn 0 0 1
vn 0 0 1
vn 0 0 1
vn 0 0 1
vn 0 1 0
vn 0 1 0
vn 0 1 0
vn 0 1 0
vn 0 1 0
vn 0 1 0
vn 0 1 0
vn 0 1 0
vn 0 1 0
vn 0 1 0
vn 0 0 -1
vn 0 0 -1
vn 0 0 -1
vn 0 0 -1
vn 0 0 -1
vn 0 0 -1
vn 0 0 -1
vn 0 0 -1
vn 0 0 -1
vn 0 0 -1
vn 2.868749E-07 -1 0
vn 2.868749E-07 -1 0
vn 2.868749E-07 -1 0
vn 2.868749E-07 -1 0
vn 0 -1 0
vn 0 -1 0
vn 0 -1 0
vn 0 -1 0
vn 0 -1 0
vn 0 -1 0
g guardrail_200_02_0
f 3/3/3 2/2/2 1/1/1
f 4/4/4 1/1/1 2/2/2
f 2/2/2 5/5/5 4/4/4
f 6/6/6 4/4/4 5/5/5
f 5/5/5 7/7/7 6/6/6
f 8/8/8 6/6/6 7/7/7
f 7/7/7 9/9/9 8/8/8
f 10/10/10 8/8/8 9/9/9
f 13/13/13 12/12/12 11/11/11
f 14/14/14 11/11/11 12/12/12
f 12/12/12 15/15/15 14/14/14
f 16/16/16 14/14/14 15/15/15
f 15/15/15 17/17/17 16/16/16
f 18/18/18 16/16/16 17/17/17
f 17/17/17 19/19/19 18/18/18
f 20/20/20 18/18/18 19/19/19
f 23/23/23 22/22/22 21/21/21
f 24/24/24 21/21/21 22/22/22
f 22/22/22 25/25/25 24/24/24
f 26/26/26 24/24/24 25/25/25
f 25/25/25 27/27/27 26/26/26
f 28/28/28 26/26/26 27/27/27
f 27/27/27 29/29/29 28/28/28
f 30/30/30 28/28/28 29/29/29
f 33/33/33 32/32/32 31/31/31
f 34/34/34 31/31/31 32/32/32
f 32/32/32 35/35/35 34/34/34
f 36/36/36 34/34/34 35/35/35
f 35/35/35 37/37/37 36/36/36
f 38/38/38 36/36/36 37/37/37
f 37/37/37 39/39/39 38/38/38
f 40/40/40 38/38/38 39/39/39
f 43/43/43 42/42/42 41/41/41
f 44/44/44 41/41/41 42/42/42
f 42/42/42 45/45/45 44/44/44
f 46/46/46 44/44/44 45/45/45
f 45/45/45 47/47/47 46/46/46
f 48/48/48 46/46/46 47/47/47
f 47/47/47 49/49/49 48/48/48
f 50/50/50 48/48/48 49/49/49
f 53/53/53 52/52/52 51/51/51
f 54/54/54 51/51/51 52/52/52
f 52/52/52 55/55/55 54/54/54
f 56/56/56 54/54/54 55/55/55
f 55/55/55 57/57/57 56/56/56
f 58/58/58 56/56/56 57/57/57
f 57/57/57 59/59/59 58/58/58
f 60/60/60 58/58/58 59/59/59
f 63/63/63 62/62/62 61/61/61
f 64/64/64 61/61/61 62/62/62
f 62/62/62 65/65/65 64/64/64
f 66/66/66 64/64/64 65/65/65
f 65/65/65 67/67/67 66/66/66
f 68/68/68 66/66/66 67/67/67
f 67/67/67 69/69/69 68/68/68
f 70/70/70 68/68/68 69/69/69
f 73/73/73 72/72/72 71/71/71
f 74/74/74 71/71/71 72/72/72
f 72/72/72 75/75/75 74/74/74
f 76/76/76 74/74/74 75/75/75
f 75/75/75 77/77/77 76/76/76
f 78/78/78 76/76/76 77/77/77
f 77/77/77 79/79/79 78/78/78
f 80/80/80 78/78/78 79/79/79
f 83/83/83 82/82/82 81/81/81
f 81/81/81 84/84/84 83/83/83
f 85/85/85 83/83/83 84/84/84
f 84/84/84 86/86/86 85/85/85
f 87/87/87 85/85/85 86/86/86
f 86/86/86 88/88/88 87/87/87
f 89/89/89 87/87/87 88/88/88
f 88/88/88 90/90/90 89/89/89
f 93/93/93 92/92/92 91/91/91
f 91/91/91 94/94/94 93/93/93
f 95/95/95 93/93/93 94/94/94
f 94/94/94 96/96/96 95/95/95
f 97/97/97 95/95/95 96/96/96
f 96/96/96 98/98/98 97/97/97
f 99/99/99 97/97/97 98/98/98
f 98/98/98 100/100/100 99/99/99
f 103/103/103 102/102/102 101/101/101
f 101/101/101 104/104/104 103/103/103
f 105/105/105 103/103/103 104/104/104
f 104/104/104 106/106/106 105/105/105
f 107/107/107 105/105/105 106/106/106
f 106/106/106 108/108/108 107/107/107
f 109/109/109 107/107/107 108/108/108
f 108/108/108 110/110/110 109/109/109
f 113/113/113 112/112/112 111/111/111
f 111/111/111 114/114/114 113/113/113
f 115/115/115 113/113/113 114/114/114
f 114/114/114 116/116/116 115/115/115
f 117/117/117 115/115/115 116/116/116
f 116/116/116 118/118/118 117/117/117
f 119/119/119 117/117/117 118/118/118
f 118/118/118 120/120/120 119/119/119
f 123/123/123 122/122/122 121/121/121
f 121/121/121 124/124/124 123/123/123
f 125/125/125 123/123/123 124/124/124
f 124/124/124 126/126/126 125/125/125
f 127/127/127 125/125/125 126/126/126
f 126/126/126 128/128/128 127/127/127
f 129/129/129 127/127/127 128/128/128
f 128/128/128 130/130/130 129/129/129
f 133/133/133 132/132/132 131/131/131
f 131/131/131 134/134/134 133/133/133
f 135/135/135 133/133/133 134/134/134
f 134/134/134 136/136/136 135/135/135
f 137/137/137 135/135/135 136/136/136
f 136/136/136 138/138/138 137/137/137
f 139/139/139 137/137/137 138/138/138
f 138/138/138 140/140/140 139/139/139
f 143/143/143 142/142/142 141/141/141
f 141/141/141 144/144/144 143/143/143
f 145/145/145 143/143/143 144/144/144
f 144/144/144 146/146/146 145/145/145
f 147/147/147 145/145/145 146/146/146
f 146/146/146 148/148/148 147/147/147
f 149/149/149 147/147/147 148/148/148
f 148/148/148 150/150/150 149/149/149
f 153/153/153 152/152/152 151/151/151
f 151/151/151 154/154/154 153/153/153
f 155/155/155 153/153/153 154/154/154
f 154/154/154 156/156/156 155/155/155
f 157/157/157 155/155/155 156/156/156
f 156/156/156 158/158/158 157/157/157
f 159/159/159 157/157/157 158/158/158
f 158/158/158 160/160/160 159/159/159
