g guardrail_0_02
v -1 0.9755884 -0.03255479
v -0.7340516 1.024819 -0.0325548
v -1 1.024819 -0.03255478
v -0.7340516 0.9755884 -0.03255481
v -0.5041106 1.024819 -0.03255481
v -0.5041106 0.9755885 -0.03255483
v -0.2659476 1.024819 -0.03255483
v -0.2659476 0.9755885 -0.03255484
v 7.629394E-08 1.024819 -0.03255485
v 7.629394E-08 0.9755885 -0.03255486
v -1 1.024819 -0.03255478
v -0.7340516 1.024819 0.04725213
v -1 1.024819 0.04725215
v -0.7340516 1.024819 -0.0325548
v -0.5041106 1.024819 0.04725212
v -0.5041106 1.024819 -0.03255481
v -0.2659476 1.024819 0.04725211
v -0.2659476 1.024819 -0.03255483
v 7.629394E-08 1.024819 0.0472521
v 7.629394E-08 1.024819 -0.03255485
v -1 1.024819 0.04725215
v -0.7340516 0.9755884 0.04725213
v -1 0.9755884 0.04725214
v -0.7340516 1.024819 0.04725213
v -0.5041106 0.9755884 0.04725212
v -0.5041106 1.024819 0.04725212
v -0.2659476 0.9755885 0.04725211
v -0.2659476 1.024819 0.04725211
v 7.629394E-08 0.9755885 0.0472521
v 7.629394E-08 1.024819 0.0472521
v -1 0.9755884 0.04725214
v -0.7340516 0.9755884 -0.03255481
v -1 0.9755884 -0.03255479
v -0.7340516 0.9755884 0.04725213
v -0.5041106 0.9755885 -0.03255483
v -0.5041106 0.9755884 0.04725212
v -0.2659476 0.9755885 -0.03255484
v -0.2659476 0.9755885 0.04725211
v 7.629394E-08 0.9755885 -0.03255486
v 7.629394E-08 0.9755885 0.0472521
v -1 0.5610394 -0.006239934
v -0.7340516 0.6102713 -0.00623993
v -1 0.6102713 -0.006239932
v -0.7340516 0.5610395 -0.006239932
v -0.5041106 0.6102715 -0.00623993
v -0.5041106 0.5610395 -0.006239932
v -0.2659476 0.6102715 -0.00623993
v -0.2659476 0.5610395 -0.006239929
v -4.405365E-15 0.6102715 -0.006239929
v -3.979039E-15 0.5610395 -0.006239928
v -1 0.6102713 -0.006239932
v -0.7340516 0.6102713 0.02093706
v -1 0.6102713 0.02093706
v -0.7340516 0.6102713 -0.00623993
v -0.5041106 0.6102715 0.02093706
v -0.5041106 0.6102715 -0.00623993
v -0.2659476 0.6102715 0.02093706
v -0.2659476 0.6102715 -0.00623993
v -4.405365E-15 0.6102715 0.02093706
v -4.405365E-15 0.6102715 -0.006239929
v -1 0.6102713 0.02093706
v -0.7340516 0.5610395 0.02093705
v -1 0.5610394 0.02093705
v -0.7340516 0.6102713 0.02093706
v -0.5041106 0.5610395 0.02093705
v -0.5041106 0.6102715 0.02093706
v -0.2659476 0.5610395 0.02093705
v -0.2659476 0.6102715 0.02093706
v -3.979039E-15 0.5610395 0.02093705
v -4.405365E-15 0.6102715 0.02093706
v -1 0.5610394 0.02093705
v -0.7340516 0.5610395 -0.006239932
v -1 0.5610394 -0.006239934
v -0.7340516 0.5610395 0.02093705
v -0.5041106 0.5610395 -0.006239932
v -0.5041106 0.5610395 0.02093705
v -0.2659476 0.5610395 -0.006239929
v -0.2659476 0.5610395 0.02093705
v -3.979039E-15 0.5610395 -0.006239928
v -3.979039E-15 0.5610395 0.02093705
vt 0.3783167 0.791037
vt 0.4009391 0.7741016
vt 0.3783167 0.7741015
vt 0.4009391 0.7910371
vt 0.4204987 0.7741017
vt 0.4204987 0.7910371
vt 0.4407576 0.7741019
vt 0.4407576 0.791037
vt 0.46338 0.774102
vt 0.46338 0.791037
vt 0.3783167 0.7741015
vt 0.4009391 0.7466476
vt 0.3783167 0.7466475
vt 0.4009391 0.7741016
vt 0.4204987 0.7466478
vt 0.4204987 0.7741017
vt 0.4407576 0.7466479
vt 0.4407576 0.7741019
vt 0.46338 0.746648
vt 0.46338 0.774102
vt 0.3783167 0.7466475
vt 0.4009391 0.7297122
vt 0.3783167 0.7297121
vt 0.4009391 0.7466476
vt 0.4204987 0.7297125
vt 0.4204987 0.7466478
vt 0.4407576 0.7297127
vt 0.4407576 0.7466479
vt 0.46338 0.729713
vt 0.46338 0.746648
vt 0.3783167 0.818491
vt 0.4009391 0.7910371
vt 0.3783167 0.791037
vt 0.4009391 0.818491
vt 0.4204987 0.7910371
vt 0.4204987 0.818491
vt 0.4407576 0.791037
vt 0.4407576 0.818491
vt 0.46338 0.791037
vt 0.46338 0.818491
vt 0.4528855 0.935323
vt 0.492922 0.9235929
vt 0.4528855 0.923593
vt 0.492922 0.935323
vt 0.5275379 0.9235929
vt 0.5275379 0.935323
vt 0.5633916 0.9235929
vt 0.5633916 0.935323
vt 0.603428 0.923593
vt 0.603428 0.935323
vt 0.4528855 0.923593
vt 0.492954 0.915282
vt 0.4529175 0.915282
vt 0.492922 0.9235929
vt 0.5275699 0.915282
vt 0.5275379 0.9235929
vt 0.5634236 0.915282
vt 0.5633916 0.9235929
vt 0.60346 0.915282
vt 0.603428 0.923593
vt 0.4529175 0.915282
vt 0.492954 0.903551
vt 0.4529175 0.903551
vt 0.492954 0.915282
vt 0.5275699 0.903551
vt 0.5275699 0.915282
vt 0.5634236 0.903551
vt 0.5634236 0.915282
vt 0.60346 0.903551
vt 0.60346 0.915282
vt 0.4528535 0.943634
vt 0.492922 0.935323
vt 0.4528855 0.935323
vt 0.49289 0.943634
vt 0.5275379 0.935323
vt 0.5275059 0.9436339
vt 0.5633916 0.935323
vt 0.5633596 0.9436339
vt 0.603428 0.935323
vt 0.603396 0.943634
vn 0 2.905711E-07 -1
vn 0 2.905711E-07 -1
vn 0 2.421426E-07 -1
vn 0 2.905711E-07 -1
vn 0 2.905715E-07 -1
vn 0 2.905716E-07 -1
vn 0 2.905715E-07 -1
vn 0 2.42143E-07 -1
vn 0 2.42143E-07 -1
vn 0 2.42143E-07 -1
vn -2.868749E-07 1 0
vn -2.868749E-07 1 0
vn -2.868749E-07 1 0
vn -2.868749E-07 1 0
vn 0 1 0
vn 0 1 0
vn 0 1 0
vn 0 1 0
vn 0 1 0
vn 0 1 0
vn 0 0 1
vn 0 0 1
vn 0 0 1
vn 0 0 1
vn 0 0 1
vn 0 0 1
vn 0 0 1
vn 0 0 1
vn 0 0 1
vn 0 0 1
vn 0 -1 -9.559814E-07
vn 0 -1 -9.559814E-07
vn 2.868749E-07 -1 0
vn 0 -1 -9.559814E-07
vn 0 -1 -9.559812E-07
vn 3.203434E-07 -1 0
vn 0 -1 0
vn 0 -1 0
vn 0 -1 0
vn 0 -1 0
vn 0 0 -1
vn 0 0 -1
vn 0 0 -1
vn 0 0 -1
vn 0 0 -1
vn 0 0 -1
vn 0 0 -1
vn 0 0 -1
vn 0 0 -1
vn 0 0 -1
vn 0 1 0
vn 0 1 0
vn 0 1 0
vn 0 1 0
vn 0 1 0
vn 0 1 0
vn 0 1 0
vn 0 1 0
vn 0 1 0
vn 0 1 0
vn 0 -1.937107E-07 1
vn 0 -1.937107E-07 1
vn 0 -1.452828E-07 1
vn 0 -1.937107E-07 1
vn 0 -1.937105E-07 1
vn 0 -1.937105E-07 1
vn 0 -1.937105E-07 1
vn 0 -1.937104E-07 1
vn 0 -1.937105E-07 1
vn 0 -1.937105E-07 1
vn 2.868749E-07 -1 0
vn 2.868749E-07 -1 0
vn 2.868749E-07 -1 0
vn 2.868749E-07 -1 0
vn 0 -1 0
vn 0 -1 0
vn 0 -1 0
vn 0 -1 0
vn 0 -1 0
vn 0 -1 0
g guardrail_0_02_0
f 3/3/3 2/2/2 1/1/1
f 4/4/4 1/1/1 2/2/2
f 2/2/2 5/5/5 4/4/4
f 6/6/6 4/4/4 5/5/5
f 5/5/5 7/7/7 6/6/6
f 8/8/8 6/6/6 7/7/7
f 7/7/7 9/9/9 8/8/8
f 10/10/10 8/8/8 9/9/9
f 13/13/13 12/12/12 11/11/11
f 14/14/14 11/11/11 12/12/12
f 12/12/12 15/15/15 14/14/14
f 16/16/16 14/14/14 15/15/15
f 15/15/15 17/17/17 16/16/16
f 18/18/18 16/16/16 17/17/17
f 17/17/17 19/19/19 18/18/18
f 20/20/20 18/18/18 19/19/19
f 23/23/23 22/22/22 21/21/21
f 24/24/24 21/21/21 22/22/22
f 22/22/22 25/25/25 24/24/24
f 26/26/26 24/24/24 25/25/25
f 25/25/25 27/27/27 26/26/26
f 28/28/28 26/26/26 27/27/27
f 27/27/27 29/29/29 28/28/28
f 30/30/30 28/28/28 29/29/29
f 33/33/33 32/32/32 31/31/31
f 34/34/34 31/31/31 32/32/32
f 32/32/32 35/35/35 34/34/34
f 36/36/36 34/34/34 35/35/35
f 35/35/35 37/37/37 36/36/36
f 38/38/38 36/36/36 37/37/37
f 37/37/37 39/39/39 38/38/38
f 40/40/40 38/38/38 39/39/39
f 43/43/43 42/42/42 41/41/41
f 44/44/44 41/41/41 42/42/42
f 42/42/42 45/45/45 44/44/44
f 46/46/46 44/44/44 45/45/45
f 45/45/45 47/47/47 46/46/46
f 48/48/48 46/46/46 47/47/47
f 47/47/47 49/49/49 48/48/48
f 50/50/50 48/48/48 49/49/49
f 53/53/53 52/52/52 51/51/51
f 54/54/54 51/51/51 52/52/52
f 52/52/52 55/55/55 54/54/54
f 56/56/56 54/54/54 55/55/55
f 55/55/55 57/57/57 56/56/56
f 58/58/58 56/56/56 57/57/57
f 57/57/57 59/59/59 58/58/58
f 60/60/60 58/58/58 59/59/59
f 63/63/63 62/62/62 61/61/61
f 64/64/64 61/61/61 62/62/62
f 62/62/62 65/65/65 64/64/64
f 66/66/66 64/64/64 65/65/65
f 65/65/65 67/67/67 66/66/66
f 68/68/68 66/66/66 67/67/67
f 67/67/67 69/69/69 68/68/68
f 70/70/70 68/68/68 69/69/69
f 73/73/73 72/72/72 71/71/71
f 74/74/74 71/71/71 72/72/72
f 72/72/72 75/75/75 74/74/74
f 76/76/76 74/74/74 75/75/75
f 75/75/75 77/77/77 76/76/76
f 78/78/78 76/76/76 77/77/77
f 77/77/77 79/79/79 78/78/78
f 80/80/80 78/78/78 79/79/79
