g hummer_02_col_03
v 0.08403764 -0.01481798 -15.9318
v 0.08403764 0.01481799 0.4148633
v 0.08403764 0.01481799 -15.9318
v 0.08403764 -0.01481798 0.4148633
v 0.07390154 -0.04266667 -15.9318
v 0.07390154 -0.04266667 0.4148633
v 0.05485191 -0.06536913 -15.9318
v 0.05485191 -0.06536913 0.4148633
v 0.02918641 -0.08018711 -15.9318
v 0.02918641 -0.08018711 0.4148633
v 6.926713E-07 -0.08533335 -15.9318
v 6.926713E-07 -0.08533335 0.4148633
v -0.02918508 -0.08018709 -15.9318
v -0.02918508 -0.08018709 0.4148633
v -0.05485057 -0.06536909 -15.9318
v -0.05485057 -0.06536909 0.4148633
v -0.07390017 -0.04266662 -15.9318
v -0.07390017 -0.04266662 0.4148633
v -0.08403625 -0.01481793 -15.9318
v -0.08403625 -0.01481793 0.4148633
v -0.08403623 0.01481802 -15.9318
v -0.08403623 0.01481802 0.4148633
v -0.07390013 0.0426667 -15.9318
v -0.07390013 0.0426667 0.4148633
v -0.0548505 0.06536915 -15.9318
v -0.0548505 0.06536915 0.4148633
v -0.02918501 0.08018712 -15.9318
v -0.02918501 0.08018712 0.4148633
v 7.130163E-07 0.08533335 -15.9318
v 7.130163E-07 0.08533335 0.4148633
v 0.02918643 0.08018711 -15.9318
v 0.02918643 0.08018711 0.4148633
v 0.05485192 0.06536912 -15.9318
v 0.05485192 0.06536912 0.4148633
v 0.07390153 0.04266667 -15.9318
v 0.07390153 0.04266667 0.4148633
v 0.08403764 0.01481799 -15.9318
v 0.08403764 0.01481799 0.4148633
v 0.05485191 -0.06536913 -15.9318
v 6.926713E-07 -0.08533335 -15.9318
v 0.02918641 -0.08018711 -15.9318
v -0.08403625 -0.01481793 -15.9318
v -0.05485057 -0.06536909 -15.9318
v -0.02918508 -0.08018709 -15.9318
v -0.07390017 -0.04266662 -15.9318
v -0.02918501 0.08018712 -15.9318
v -0.07390013 0.0426667 -15.9318
v -0.08403623 0.01481802 -15.9318
v -0.0548505 0.06536915 -15.9318
v 0.07390153 0.04266667 -15.9318
v 0.08403764 -0.01481798 -15.9318
v 0.07390154 -0.04266667 -15.9318
v 0.08403764 0.01481799 -15.9318
v 0.02918643 0.08018711 -15.9318
v 7.130163E-07 0.08533335 -15.9318
v 0.05485192 0.06536912 -15.9318
v -0.07390017 -0.04266662 0.4148633
v -0.02918508 -0.08018709 0.4148633
v -0.05485057 -0.06536909 0.4148633
v 0.07390154 -0.04266667 0.4148633
v 0.02918641 -0.08018711 0.4148633
v 6.926713E-07 -0.08533335 0.4148633
v 0.05485191 -0.06536913 0.4148633
v 0.05485192 0.06536912 0.4148633
v 0.08403764 0.01481799 0.4148633
v 0.08403764 -0.01481798 0.4148633
v 0.07390153 0.04266667 0.4148633
v -0.0548505 0.06536915 0.4148633
v -0.08403623 0.01481802 0.4148633
v -0.08403625 -0.01481793 0.4148633
v -0.07390013 0.0426667 0.4148633
v 7.130163E-07 0.08533335 0.4148633
v 0.02918643 0.08018711 0.4148633
v -0.02918501 0.08018712 0.4148633
vt 0.9722222 0
vt 1.027778 1
vt 1.027778 0
vt 0.9722222 1
vt 0.9166667 0
vt 0.9166667 1
vt 0.861111 0
vt 0.861111 1
vt 0.8055555 0
vt 0.8055555 1
vt 0.75 0
vt 0.75 1
vt 0.6944443 0
vt 0.6944443 1
vt 0.6388888 0
vt 0.6388888 1
vt 0.5833333 0
vt 0.5833333 1
vt 0.5277777 0
vt 0.5277777 1
vt 0.4722221 0
vt 0.4722221 1
vt 0.4166666 0
vt 0.4166666 1
vt 0.3611111 0
vt 0.3611111 1
vt 0.3055555 0
vt 0.3055555 1
vt 0.25 0
vt 0.25 1
vt 0.1944444 0
vt 0.1944444 1
vt 0.1388889 0
vt 0.1388889 1
vt 0.08333335 0
vt 0.08333335 1
vt 0.02777781 0
vt 0.02777781 1
vt 0.1786062 0.8830222
vt 0.5 1
vt 0.3289899 0.9698463
vt 0.9924039 0.5868239
vt 0.821394 0.883022
vt 0.6710104 0.9698462
vt 0.9330128 0.7499998
vt 0.67101 0.03015366
vt 0.9330126 0.2499999
vt 0.9924039 0.4131757
vt 0.8213937 0.1169777
vt 0.06698731 0.2499999
vt 0.007596105 0.586824
vt 0.06698728 0.75
vt 0.007596135 0.4131758
vt 0.3289899 0.03015369
vt 0.4999999 0
vt 0.1786062 0.1169778
vt 0.9330128 0.7499998
vt 0.6710104 0.9698462
vt 0.821394 0.883022
vt 0.06698728 0.75
vt 0.3289899 0.9698463
vt 0.5 1
vt 0.1786062 0.8830222
vt 0.1786062 0.1169778
vt 0.007596135 0.4131758
vt 0.007596105 0.586824
vt 0.06698731 0.2499999
vt 0.8213937 0.1169777
vt 0.9924039 0.4131757
vt 0.9924039 0.5868239
vt 0.9330126 0.2499999
vt 0.4999999 0
vt 0.3289899 0.03015369
vt 0.67101 0.03015366
vn 0.9848082 -0.1736456 0
vn 0.9848082 0.1736457 0
vn 0.9848073 0.1736508 0
vn 0.9848073 -0.1736507 0
vn 0.8660267 -0.4999979 0
vn 0.8660241 -0.5000024 0
vn 0.6427895 -0.7660429 0
vn 0.6427855 -0.7660462 0
vn 0.3420227 -0.9396917 0
vn 0.3420177 -0.9396935 0
vn 2.456307E-06 -1 0
vn -2.742067E-06 -1 0
vn -0.3420183 -0.9396934 0
vn -0.3420231 -0.9396916 0
vn -0.6427863 -0.7660456 0
vn -0.6427902 -0.7660423 0
vn -0.8660246 -0.5000016 0
vn -0.8660271 -0.499997 0
vn -0.9848074 -0.1736503 0
vn -0.9848083 -0.1736452 0
vn -0.9848082 0.173646 0
vn -0.9848073 0.1736511 0
vn -0.8660265 0.4999981 0
vn -0.8660239 0.5000026 0
vn -0.6427894 0.7660431 0
vn -0.6427853 0.7660463 0
vn -0.3420223 0.9396918 0
vn -0.3420175 0.9396936 0
vn -2.417776E-06 1 0
vn 2.783814E-06 1 0
vn 0.3420179 0.9396934 0
vn 0.3420228 0.9396917 0
vn 0.6427857 0.766046 0
vn 0.6427897 0.7660427 0
vn 0.8660241 0.5000024 0
vn 0.8660267 0.4999979 0
vn 0.9848073 0.1736508 0
vn 0.9848082 0.1736457 0
vn 0 0 -1
vn 0 0 -1
vn 0 0 -1
vn 0 0 -1
vn 0 0 -1
vn 0 0 -1
vn 0 0 -1
vn 0 0 -1
vn 0 0 -1
vn 0 0 -1
vn 0 0 -1
vn 0 0 -1
vn 0 0 -1
vn 0 0 -1
vn 0 0 -1
vn 0 0 -1
vn 0 0 -1
vn 0 0 -1
vn 0 0 1
vn 0 0 1
vn 0 0 1
vn 0 0 1
vn 0 0 1
vn 0 0 1
vn 0 0 1
vn 0 0 1
vn 0 0 1
vn 0 0 1
vn 0 0 1
vn 0 0 1
vn 0 0 1
vn 0 0 1
vn 0 0 1
vn 0 0 1
vn 0 0 1
vn 0 0 1
g hummer_02_col_03_0
f 3/3/3 2/2/2 1/1/1
f 4/4/4 1/1/1 2/2/2
f 1/1/1 4/4/4 5/5/5
f 6/6/6 5/5/5 4/4/4
f 5/5/5 6/6/6 7/7/7
f 8/8/8 7/7/7 6/6/6
f 7/7/7 8/8/8 9/9/9
f 10/10/10 9/9/9 8/8/8
f 9/9/9 10/10/10 11/11/11
f 12/12/12 11/11/11 10/10/10
f 11/11/11 12/12/12 13/13/13
f 14/14/14 13/13/13 12/12/12
f 13/13/13 14/14/14 15/15/15
f 16/16/16 15/15/15 14/14/14
f 15/15/15 16/16/16 17/17/17
f 18/18/18 17/17/17 16/16/16
f 17/17/17 18/18/18 19/19/19
f 20/20/20 19/19/19 18/18/18
f 19/19/19 20/20/20 21/21/21
f 22/22/22 21/21/21 20/20/20
f 21/21/21 22/22/22 23/23/23
f 24/24/24 23/23/23 22/22/22
f 23/23/23 24/24/24 25/25/25
f 26/26/26 25/25/25 24/24/24
f 25/25/25 26/26/26 27/27/27
f 28/28/28 27/27/27 26/26/26
f 27/27/27 28/28/28 29/29/29
f 30/30/30 29/29/29 28/28/28
f 29/29/29 30/30/30 31/31/31
f 32/32/32 31/31/31 30/30/30
f 31/31/31 32/32/32 33/33/33
f 34/34/34 33/33/33 32/32/32
f 33/33/33 34/34/34 35/35/35
f 36/36/36 35/35/35 34/34/34
f 35/35/35 36/36/36 37/37/37
f 38/38/38 37/37/37 36/36/36
f 41/41/41 40/40/40 39/39/39
f 40/40/40 42/42/42 39/39/39
f 43/43/43 42/42/42 40/40/40
f 44/44/44 43/43/43 40/40/40
f 45/45/45 42/42/42 43/43/43
f 42/42/42 46/46/46 39/39/39
f 47/47/47 46/46/46 42/42/42
f 48/48/48 47/47/47 42/42/42
f 49/49/49 46/46/46 47/47/47
f 46/46/46 50/50/50 39/39/39
f 50/50/50 51/51/51 39/39/39
f 51/51/51 52/52/52 39/39/39
f 53/53/53 51/51/51 50/50/50
f 54/54/54 50/50/50 46/46/46
f 55/55/55 54/54/54 46/46/46
f 56/56/56 50/50/50 54/54/54
f 59/59/59 58/58/58 57/57/57
f 58/58/58 60/60/60 57/57/57
f 61/61/61 60/60/60 58/58/58
f 62/62/62 61/61/61 58/58/58
f 63/63/63 60/60/60 61/61/61
f 60/60/60 64/64/64 57/57/57
f 65/65/65 64/64/64 60/60/60
f 66/66/66 65/65/65 60/60/60
f 67/67/67 64/64/64 65/65/65
f 64/64/64 68/68/68 57/57/57
f 68/68/68 69/69/69 57/57/57
f 69/69/69 70/70/70 57/57/57
f 71/71/71 69/69/69 68/68/68
f 72/72/72 68/68/68 64/64/64
f 73/73/73 72/72/72 64/64/64
f 74/74/74 68/68/68 72/72/72
