g Line001
v 11.99156 4.002658 2.441406E-06
v 23.99176 20.00178 2.441406E-06
v 23.99887 4.008243 2.441406E-06
v -12.00262 19.99153 2.441406E-06
v 0.002617187 -19.99155 2.441406E-06
v 11.99887 -19.97937 2.441406E-06
v 3.991562 -19.99734 2.441406E-06
v 3.998867 -27.99177 2.441406E-06
v 0.008203125 -27.99887 2.441406E-06
v -15.99156 19.99733 2.441406E-06
v -15.99887 27.99177 0
v -12.0082 27.99887 0
v -23.99887 19.97936 2.441406E-06
v -23.99176 -19.99887 2.441406E-06
vt 4.497187 1.834219
vt 8.497253 7.167258
vt 8.499622 1.83608
vt -3.500872 7.163846
vt 0.50087 -6.16385
vt 4.49962 -6.159791
vt 1.830518 -6.165781
vt 1.832953 -8.830591
vt 0.5027314 -8.832958
vt -4.83052 7.165777
vt -4.832954 9.830591
vt -3.502733 9.832958
vt -7.499622 7.159788
vt -7.497255 -6.166289
vn 0 0 1
vn 0 0 1
vn 0 0 1
vn 0 1.016174E-07 1
vn 0 0 1
vn 0 0 1
vn 0 0 1
vn 0 0 1
vn 0 0 1
vn 0 1.019782E-07 1
vn 0 3.050407E-07 1
vn 0 3.048959E-07 1
vn 0 0 1
vn 0 0 1
g Line001_0
f 3/3/3 2/2/2 1/1/1
f 2/2/2 4/4/4 1/1/1
f 4/4/4 5/5/5 1/1/1
f 5/5/5 6/6/6 1/1/1
f 7/7/7 6/6/6 5/5/5
f 8/8/8 7/7/7 5/5/5
f 9/9/9 8/8/8 5/5/5
f 10/10/10 5/5/5 4/4/4
f 11/11/11 10/10/10 4/4/4
f 12/12/12 11/11/11 4/4/4
f 13/13/13 5/5/5 10/10/10
f 14/14/14 5/5/5 13/13/13
