g Mesh1
v 0.4784108 0.01653543 -1.736278
v 0.2886704 0.01653543 -1.505176
v 0.2350279 0.01653543 -1.637945
v 0.5114061 0.01653543 -1.543249
v 0.6917 0.01653543 -1.179723
v 0.4377031 0.01653543 -1.136307
v 1.236766 0.01653543 -1.33039
v 0.7028211 0.01653543 -1.114662
v 0.989369 0.01653543 -1.942719
v 1.899785 0.01653543 -0.7737713
v 1.875334 0.01653543 -0.7695919
v 1.856165 0.01653543 -0.8817333
v 1.813021 0.01653543 -1.134139
v 2.109606 0.01653543 -0.8228998
v 2.111808 0.01653543 -0.8100131
v 2.322224 0.01653543 -0.8592433
v 2.262114 0.01653543 -1.210904
v 2.324427 0.01653543 -0.8463567
v 1.470798 0 -1.743166
v 1.46396 0 -1.76701
v 1.573321 0 -1.798369
v 1.819468 0 -1.86895
v 1.542654 0 -1.540003
v 1.530087 0 -1.5364
v 1.60211 0 -1.332657
v 1.94505 0 -1.430993
v 1.589542 0 -1.329053
v 0.7320371 0.01653543 -0.9437415
v 0.6828969 0.01653543 -0.80302
v 0.6609208 0.01653543 -0.9315853
v 0.7540132 0.01653543 -0.8151761
v 1.110014 0.01653543 -1.00835
v 1.081117 0.01653543 -0.6282123
v 0.723234 0.01653543 -0.5670382
v 0.9771408 0.01653543 -0.8855618
v 1.121063 0.01653543 -0.94371
v 1.172327 0.01653543 -0.6438031
v 1.236282 0 -2.540917
v 1.554258 0 -2.535833
v 1.261787 0 -2.451968
v 1.480667 0 -2.672505
v 1.491713 0 -2.991866
v 1.617295 0 -2.553909
v 1.136205 0 -2.889926
v 1.312728 0 -1.000106
v 1.60211 0 -1.332657
v 1.668236 0 -1.102046
v 1.589542 0 -1.329053
v 1.530087 0 -1.5364
v 1.187146 0 -1.438063
v 1.284894 0 -1.643067
v 1.46396 0 -1.76701
v 1.470798 0 -1.743166
v 1.261787 0 -2.451968
v 1.236282 0 -2.540917
v 0.8991837 0 -2.359408
v 1.866377 0 -1.956164
v 1.573321 0 -1.798369
v 1.554258 0 -2.535833
v 0.2426072 0.01653543 -1.102958
v 0.6828969 0.01653543 -0.80302
v 0.3049203 0.01653543 -0.7384112
v 0.4824251 0.01653543 -1.025616
v 0.6609208 0.01653543 -0.9315853
v 0.7320371 0.01653543 -0.9437415
v 0.4377031 0.01653543 -1.136307
v 0.7028211 0.01653543 -1.114662
v 0.6917 0.01653543 -1.179723
v 0 0.01653543 -1.831031
v 0.2886704 0.01653543 -1.505176
v 0.06231317 0.01653543 -1.466484
v 0.2350279 0.01653543 -1.637945
v 0.4784108 0.01653543 -1.736278
v 0.4490929 0.01653543 -1.907796
v 2.558698 0.01653543 -0.8996646
v 2.324427 0.01653543 -0.8463567
v 2.322224 0.01653543 -0.8592433
v 2.157174 0.01653543 -0.5446123
v 2.111808 0.01653543 -0.8100131
v 2.251474 0.01653543 -0.5474111
v 2.253703 0.01653543 -0.4723323
v 2.621011 0.01653543 -0.5351176
v 1.625411 0.01653543 -0.3556145
v 1.616568 0.01653543 0
v 1.608669 0.01653543 -0.2661532
v 2.187798 0.01653543 -0.2548766
v 2.143023 0.01653543 -0.01562481
v 2.171919 0.01653543 -0.4583527
v 2.253703 0.01653543 -0.4723323
v 2.260561 0.01653543 -0.2412593
v 2.157174 0.01653543 -0.5446123
v 2.251474 0.01653543 -0.5474111
v 1.875538 0.01653543 -0.5362535
v 1.60391 0.01653543 -0.4265085
v 1.605905 0.01653543 -0.3592649
v 1.875334 0.01653543 -0.7695919
v 1.731482 0.01653543 -1.190335
v 1.856165 0.01653543 -0.8817333
v 1.172327 0.01653543 -0.6438031
v 1.121063 0.01653543 -0.94371
v 1.600894 0.01653543 -0.5281023
v 1.899785 0.01653543 -0.7737713
v 1.224538 0.01653543 -0.2732324
v 1.081117 0.01653543 -0.6282123
v 1.60391 0.01653543 -0.4265085
v 1.875538 0.01653543 -0.5362535
v 1.978879 0.01653543 -0.5780059
vt -0.3049471 0
vt 1.110223E-16 -0.2173695
vt -1.110223E-16 0
vt -0.256483 -0.2904413
vt -0.2924807 -0.9046058
vt 3.330669E-16 -0.8212783
vt -0.9451531 -1.0025
vt -0.2761457 -1.0025
vt -0.9451531 0
vt -0.05145871 -1.0025
vt -2.664535E-15 -1.0025
vt -2.664535E-15 -0.6941124
vt -1.776357E-15 8.881784E-16
vt -0.4976796 -0.967062
vt -0.4976796 -1.0025
vt -0.9451531 -0.967062
vt -0.9451531 1.332268E-15
vt -0.9451531 -1.0025
vt -0.05145871 -1.0025
vt 1.332268E-14 -1.0025
vt 1.64313E-14 -0.6941124
vt 1.376677E-14 -3.019807E-14
vt -0.4976796 -0.967062
vt -0.4976796 -1.0025
vt -0.9451531 -0.967062
vt -0.9451531 -2.753353E-14
vt -0.9451531 -1.0025
vt -0.1496702 -4.440892E-16
vt 0 -0.3535531
vt 2.220446E-16 -4.440892E-16
vt -0.1496702 -0.3535531
vt -0.9451531 0
vt -0.7531941 -1.0025
vt -4.440892E-16 -1.0025
vt -0.6305317 -0.267395
vt -0.9451531 -0.1777596
vt -0.9451531 -1.0025
vt -0.7531941 -1.0025
vt -0.9451531 -0.1777596
vt -0.9451531 -1.0025
vt -0.6305317 -0.267395
vt 1.776357E-14 -3.019807E-14
vt -0.9451531 -2.309264E-14
vt 9.769963E-15 -1.0025
vt -0.9451531 -1.0025
vt -0.4474735 -3.819167E-14
vt -0.9451531 -3.28626E-14
vt -0.4474735 -0.03543802
vt 2.353673E-14 -0.03543802
vt 2.264855E-14 -1.0025
vt -0.9451531 -1.0025
vt -0.9169977 -0.6739733
vt -0.9451531 -0.6819947
vt -0.1050295 -0.451253
vt 1.310063E-14 -0.4213302
vt 4.218847E-15 -1.0025
vt -0.9451531 -1.199041E-14
vt -0.9451531 -0.5052404
vt -0.1803273 -1.24345E-14
vt 0 -4.440892E-16
vt -0.7954829 -1.0025
vt 2.220446E-16 -1.0025
vt -0.4633549 -0.316182
vt -0.7954829 -0.6489468
vt -0.9451531 -0.6489468
vt -0.4105957 4.440892E-16
vt -0.9451531 -0.178918
vt -0.9451531 -4.440892E-16
vt 0 -8.881784E-16
vt -0.4763875 -1.0025
vt 1.110223E-16 -1.0025
vt -0.4131045 -0.6232502
vt -0.9451531 -0.4716699
vt -0.9451531 -1.776357E-15
vt -0.9451531 4.440892E-16
vt -0.4474735 -0.03543802
vt -0.4474735 4.440892E-16
vt -3.552714E-15 -0.7652871
vt -3.552714E-15 -0.03543802
vt -0.1938071 -0.8008779
vt -0.1721212 -1.0025
vt -0.9451531 -1.0025
vt -0.9169977 -0.6739733
vt -0.9451531 7.21645E-16
vt -0.9451531 -0.5052404
vt -0.1050295 -0.451253
vt -0.1803273 -5.634382E-15
vt -0.1193123 -0.838067
vt -1.110223E-14 -0.8599775
vt -9.769963E-15 -0.4213302
vt -0.1369982 -1.0025
vt -1.065814E-14 -1.0025
vt -0.5461544 -1.0025
vt -0.9451531 -0.8096437
vt -0.9451531 -0.6819947
vt -0.9169977 -0.6739733
vt -0.9451531 1.221245E-15
vt -0.9451531 -0.5052404
vt -0.1050295 -0.451253
vt -0.1803273 8.881784E-16
vt -0.5162989 -0.8577978
vt -0.9451531 -0.6819947
vt 1.110223E-15 -1.0025
vt 6.661338E-16 -0.4213302
vt -0.4753344 -1.0025
vt -0.8156721 -1.0025
vt -0.9451531 -1.0025
vn 0 1 0
vn 0 1 0
vn 0 1 0
vn 0 1 0
vn 0 1 0
vn 0 1 0
vn 0 1 0
vn 0 1 0
vn 0 1 0
vn 0 1 0
vn 0 1 0
vn 0 1 0
vn 0 1 0
vn 0 1 0
vn 0 1 0
vn 0 1 0
vn 0 1 0
vn 0 1 0
vn 0 1 0
vn 0 1 0
vn 0 1 0
vn 0 1 0
vn 0 1 0
vn 0 1 0
vn 0 1 0
vn 0 1 0
vn 0 1 0
vn 0 1 0
vn 0 1 0
vn 0 1 0
vn 0 1 0
vn 0 1 0
vn 0 1 0
vn 0 1 0
vn 0 1 0
vn 0 1 0
vn 0 1 0
vn 0 1 0
vn 0 1 0
vn 0 1 0
vn 0 1 0
vn 0 1 0
vn 0 1 0
vn 0 1 0
vn 0 1 0
vn 0 1 0
vn 0 1 0
vn 0 1 0
vn 0 1 0
vn 0 1 0
vn 0 1 0
vn 0 1 0
vn 0 1 0
vn 0 1 0
vn 0 1 0
vn 0 1 0
vn 0 1 0
vn 0 1 0
vn 0 1 0
vn 0 1 0
vn 0 1 0
vn 0 1 0
vn 0 1 0
vn 0 1 0
vn 0 1 0
vn 0 1 0
vn 0 1 0
vn 0 1 0
vn 0 1 0
vn 0 1 0
vn 0 1 0
vn 0 1 0
vn 0 1 0
vn 0 1 0
vn 0 1 0
vn 0 1 0
vn 0 1 0
vn 0 1 0
vn 0 1 0
vn 0 1 0
vn 0 1 0
vn 0 1 0
vn 0 1 0
vn 0 1 0
vn 0 1 0
vn 0 1 0
vn 0 1 0
vn 0 1 0
vn 0 1 0
vn 0 1 0
vn 0 1 0
vn 0 1 0
vn 0 1 0
vn 0 1 0
vn 0 1 0
vn 0 1 0
vn 0 1 0
vn 0 1 0
vn 0 1 0
vn 0 1 0
vn 0 1 0
vn 0 1 0
vn 0 1 0
vn 0 1 0
vn 0 1 0
vn 0 1 0
vn 0 1 0
g Mesh1_0
f 3/3/3 2/2/2 1/1/1
f 4/4/4 1/1/1 2/2/2
f 4/4/4 2/2/2 5/5/5
f 1/1/1 4/4/4 5/5/5
f 2/2/2 6/6/6 5/5/5
f 7/7/7 1/1/1 5/5/5
f 8/8/8 7/7/7 5/5/5
f 9/9/9 1/1/1 7/7/7
f 12/12/12 11/11/11 10/10/10
f 12/12/12 10/10/10 13/13/13
f 10/10/10 14/14/14 13/13/13
f 15/15/15 14/14/14 10/10/10
f 14/14/14 16/16/16 13/13/13
f 14/14/14 15/15/15 16/16/16
f 16/16/16 17/17/17 13/13/13
f 18/18/18 16/16/16 15/15/15
f 21/21/21 20/20/20 19/19/19
f 21/21/21 19/19/19 22/22/22
f 19/19/19 23/23/23 22/22/22
f 24/24/24 23/23/23 19/19/19
f 23/23/23 25/25/25 22/22/22
f 23/23/23 24/24/24 25/25/25
f 25/25/25 26/26/26 22/22/22
f 27/27/27 25/25/25 24/24/24
f 30/30/30 29/29/29 28/28/28
f 31/31/31 28/28/28 29/29/29
f 28/28/28 31/31/31 32/32/32
f 31/31/31 29/29/29 33/33/33
f 29/29/29 34/34/34 33/33/33
f 32/32/32 31/31/31 35/35/35
f 35/35/35 31/31/31 33/33/33
f 36/36/36 32/32/32 35/35/35
f 35/35/35 33/33/33 36/36/36
f 37/37/37 36/36/36 33/33/33
f 40/40/40 39/39/39 38/38/38
f 41/41/41 38/38/38 39/39/39
f 41/41/41 39/39/39 42/42/42
f 38/38/38 41/41/41 42/42/42
f 39/39/39 43/43/43 42/42/42
f 44/44/44 38/38/38 42/42/42
f 47/47/47 46/46/46 45/45/45
f 46/46/46 48/48/48 45/45/45
f 48/48/48 49/49/49 45/45/45
f 49/49/49 50/50/50 45/45/45
f 53/53/53 52/52/52 51/51/51
f 52/52/52 54/54/54 51/51/51
f 54/54/54 55/55/55 51/51/51
f 55/55/55 56/56/56 51/51/51
f 57/57/57 54/54/54 52/52/52
f 58/58/58 57/57/57 52/52/52
f 59/59/59 54/54/54 57/57/57
f 62/62/62 61/61/61 60/60/60
f 60/60/60 61/61/61 63/63/63
f 61/61/61 64/64/64 63/63/63
f 64/64/64 65/65/65 63/63/63
f 66/66/66 60/60/60 63/63/63
f 65/65/65 67/67/67 63/63/63
f 63/63/63 67/67/67 66/66/66
f 68/68/68 66/66/66 67/67/67
f 71/71/71 70/70/70 69/69/69
f 70/70/70 72/72/72 69/69/69
f 72/72/72 73/73/73 69/69/69
f 73/73/73 74/74/74 69/69/69
f 77/77/77 76/76/76 75/75/75
f 76/76/76 78/78/78 75/75/75
f 79/79/79 78/78/78 76/76/76
f 78/78/78 80/80/80 75/75/75
f 80/80/80 81/81/81 75/75/75
f 81/81/81 82/82/82 75/75/75
f 85/85/85 84/84/84 83/83/83
f 84/84/84 86/86/86 83/83/83
f 87/87/87 86/86/86 84/84/84
f 86/86/86 88/88/88 83/83/83
f 89/89/89 88/88/88 86/86/86
f 90/90/90 89/89/89 86/86/86
f 88/88/88 89/89/89 91/91/91
f 92/92/92 91/91/91 89/89/89
f 91/91/91 93/93/93 88/88/88
f 88/88/88 93/93/93 83/83/83
f 93/93/93 94/94/94 83/83/83
f 94/94/94 95/95/95 83/83/83
f 98/98/98 97/97/97 96/96/96
f 97/97/97 99/99/99 96/96/96
f 100/100/100 99/99/99 97/97/97
f 99/99/99 101/101/101 96/96/96
f 96/96/96 101/101/101 102/102/102
f 103/103/103 101/101/101 99/99/99
f 104/104/104 103/103/103 99/99/99
f 105/105/105 101/101/101 103/103/103
f 105/105/105 106/106/106 101/101/101
f 101/101/101 106/106/106 102/102/102
f 106/106/106 107/107/107 102/102/102
