g paperBall_Explode_Thin_11_Hull
v -0.2101594 -0.05666098 -0.08464133
v 0.03730886 -0.3274136 -0.05196171
v -0.05503588 0.06658726 -0.1341069
v -0.2101594 -0.05666098 -0.08464133
v -0.05503588 0.06658726 -0.1341069
v -0.1319558 0.2669865 -0.1020326
v -0.03001533 0.2678376 0.09786209
v 0.009158645 0.2180087 0.1341142
v -0.05390666 -0.1817403 0.1117231
v 0.1377634 0.264326 -0.05610596
v 0.07662553 0.3684396 -0.008004712
v 0.03794226 0.359499 -0.03432326
v 0.1377634 0.264326 -0.05610596
v 0.03794226 0.359499 -0.03432326
v 0.08550714 0.2324349 -0.09327771
v 0.1394925 -0.3069602 0.02679449
v 0.03730886 -0.3274136 -0.05196171
v 0.07047322 -0.3651923 0.05987465
v 0.008271949 0.2808012 0.1142461
v 0.009158645 0.2180087 0.1341142
v -0.03001533 0.2678376 0.09786209
v 0.0930386 -0.223692 0.1260327
v 0.009158645 0.2180087 0.1341142
v 0.1189004 -0.170924 0.1155782
v 0.0930386 -0.223692 0.1260327
v -0.05390666 -0.1817403 0.1117231
v 0.009158645 0.2180087 0.1341142
v 0.2101516 -0.08590856 -0.03689315
v 0.1903452 0.08977219 -0.0689471
v 0.1254634 0.01482693 -0.1000413
v -0.1043342 0.2721861 -0.003265556
v -0.03001533 0.2678376 0.09786209
v -0.2101594 -0.05666098 -0.08464133
v -0.05159594 0.1806021 -0.128659
v -0.1319558 0.2669865 -0.1020326
v -0.05503588 0.06658726 -0.1341069
v -0.05442674 0.2725599 -0.106809
v -0.05159594 0.1806021 -0.128659
v 0.08550714 0.2324349 -0.09327771
v -0.05442674 0.2725599 -0.106809
v -0.1190479 0.3006101 -0.08803377
v -0.1319558 0.2669865 -0.1020326
v -0.05442674 0.2725599 -0.106809
v -0.1319558 0.2669865 -0.1020326
v -0.05159594 0.1806021 -0.128659
v -0.05442674 0.2725599 -0.106809
v 0.08550714 0.2324349 -0.09327771
v 0.03794226 0.359499 -0.03432326
v -0.05442674 0.2725599 -0.106809
v 0.03794226 0.359499 -0.03432326
v -0.1190479 0.3006101 -0.08803377
v -0.004993462 -0.3656622 0.04300781
v 0.07047322 -0.3651923 0.05987465
v 0.03730886 -0.3274136 -0.05196171
v -0.1275621 -0.3106885 -0.0118753
v -0.145175 -0.3297848 0.01772769
v 0.03730886 -0.3274136 -0.05196171
v -0.1275621 -0.3106885 -0.0118753
v -0.2101594 -0.05666098 -0.08464133
v -0.145175 -0.3297848 0.01772769
v -0.1275621 -0.3106885 -0.0118753
v 0.03730886 -0.3274136 -0.05196171
v -0.2101594 -0.05666098 -0.08464133
v 0.09768446 0.1272689 -0.1103015
v 0.08550714 0.2324349 -0.09327771
v -0.05159594 0.1806021 -0.128659
v 0.09768446 0.1272689 -0.1103015
v 0.1254634 0.01482693 -0.1000413
v 0.1903452 0.08977219 -0.0689471
v 0.01739052 0.003613612 -0.1229233
v 0.1254634 0.01482693 -0.1000413
v 0.09768446 0.1272689 -0.1103015
v 0.01739052 0.003613612 -0.1229233
v -0.05503588 0.06658726 -0.1341069
v 0.03730886 -0.3274136 -0.05196171
v 0.01739052 0.003613612 -0.1229233
v 0.03730886 -0.3274136 -0.05196171
v 0.1254634 0.01482693 -0.1000413
v 0.0920008 -0.3057999 0.09030551
v 0.1394925 -0.3069602 0.02679449
v 0.07047322 -0.3651923 0.05987465
v -0.1386684 -0.3366017 0.02605516
v 0.03730886 -0.3274136 -0.05196171
v -0.145175 -0.3297848 0.01772769
v -0.1386684 -0.3366017 0.02605516
v -0.004993462 -0.3656622 0.04300781
v 0.03730886 -0.3274136 -0.05196171
v 0.1543356 -0.1128426 -0.06253575
v 0.1254634 0.01482693 -0.1000413
v 0.03730886 -0.3274136 -0.05196171
v 0.1543356 -0.1128426 -0.06253575
v 0.2101516 -0.08590856 -0.03689315
v 0.1254634 0.01482693 -0.1000413
v 0.1543356 -0.1128426 -0.06253575
v 0.03730886 -0.3274136 -0.05196171
v 0.2101516 -0.08590856 -0.03689315
v -0.03001533 0.2678376 0.09786209
v -0.05390666 -0.1817403 0.1117231
v -0.2101594 -0.05666098 -0.08464133
v -0.145175 -0.3297848 0.01772769
v -0.1386684 -0.3366017 0.02605516
v 0.1377634 0.264326 -0.05610596
v 0.1903452 0.08977219 -0.0689471
v 0.07662553 0.3684396 -0.008004712
v 0.009158645 0.2180087 0.1341142
v 0.008271949 0.2808012 0.1142461
v 0.1189004 -0.170924 0.1155782
v 0.2006544 -0.1742433 0.005650226
v 0.2101516 -0.08590856 -0.03689315
v 0.1377634 0.264326 -0.05610596
v 0.08550714 0.2324349 -0.09327771
v 0.1903452 0.08977219 -0.0689471
v 0.09768446 0.1272689 -0.1103015
v 0.1394925 -0.3069602 0.02679449
v 0.1189004 -0.170924 0.1155782
v 0.2006544 -0.1742433 0.005650226
v 0.0930386 -0.223692 0.1260327
v 0.0920008 -0.3057999 0.09030551
v 0.008271949 0.2808012 0.1142461
v -0.03001533 0.2678376 0.09786209
v 0.07662553 0.3684396 -0.008004712
v 0.03794226 0.359499 -0.03432326
v -0.1190479 0.3006101 -0.08803377
v -0.1043342 0.2721861 -0.003265556
v 0.2101516 -0.08590856 -0.03689315
v 0.1394925 -0.3069602 0.02679449
v 0.2006544 -0.1742433 0.005650226
v 0.03730886 -0.3274136 -0.05196171
v -0.1043342 0.2721861 -0.003265556
v -0.2101594 -0.05666098 -0.08464133
v -0.1319558 0.2669865 -0.1020326
v -0.1190479 0.3006101 -0.08803377
v 0.09768446 0.1272689 -0.1103015
v -0.05159594 0.1806021 -0.128659
v -0.05503588 0.06658726 -0.1341069
v 0.01739052 0.003613612 -0.1229233
v 0.0920008 -0.3057999 0.09030551
v 0.07047322 -0.3651923 0.05987465
v 0.0930386 -0.223692 0.1260327
v -0.05390666 -0.1817403 0.1117231
v -0.004993462 -0.3656622 0.04300781
v -0.1386684 -0.3366017 0.02605516
vn -0.1246633 -0.2304258 -0.9650715
vn -0.1246633 -0.2304258 -0.9650715
vn -0.1246633 -0.2304259 -0.9650715
vn -0.3233129 0.02729485 -0.9458984
vn -0.3233129 0.02729485 -0.9458984
vn -0.3233129 0.02729485 -0.9458984
vn -0.6376488 0.05756943 0.768173
vn -0.6376488 0.05756943 0.768173
vn -0.6376488 0.05756943 0.768173
vn 0.3732825 0.5606792 -0.7391205
vn 0.3732824 0.5606792 -0.7391205
vn 0.3732824 0.5606792 -0.7391205
vn 0.2870073 0.4894859 -0.823426
vn 0.2870072 0.4894859 -0.823426
vn 0.2870073 0.4894859 -0.823426
vn 0.4688107 -0.7853335 -0.4043115
vn 0.4688107 -0.7853335 -0.4043115
vn 0.4688107 -0.7853335 -0.4043115
vn -0.4534698 0.2630406 0.8515719
vn -0.4534698 0.2630406 0.851572
vn -0.4534698 0.2630406 0.851572
vn 0.303027 0.04012492 0.9521369
vn 0.303027 0.04012492 0.9521369
vn 0.303027 0.04012492 0.9521369
vn -0.1077719 -0.03864211 0.9934244
vn -0.1077719 -0.0386421 0.9934244
vn -0.1077719 -0.03864211 0.9934244
vn 0.5186341 -0.09653008 -0.8495296
vn 0.5186341 -0.09653007 -0.8495296
vn 0.5186341 -0.09653007 -0.8495296
vn -0.7985848 0.1105851 0.591636
vn -0.7985849 0.1105851 0.591636
vn -0.7985848 0.1105851 0.591636
vn -0.2613461 0.05393489 -0.9637371
vn -0.2613461 0.05393489 -0.9637371
vn -0.2613461 0.05393489 -0.9637371
vn 0.159536 0.2328573 -0.959336
vn 0.159536 0.2328573 -0.959336
vn 0.159536 0.2328573 -0.959336
vn -0.08545187 0.410732 -0.907743
vn -0.08545187 0.410732 -0.907743
vn -0.08545187 0.410732 -0.907743
vn -0.07620868 0.2282787 -0.9706086
vn -0.07620869 0.2282787 -0.9706086
vn -0.07620869 0.2282787 -0.9706086
vn 0.219068 0.4769392 -0.8511981
vn 0.219068 0.4769392 -0.8511981
vn 0.219068 0.4769391 -0.8511981
vn 0.03844765 0.6154882 -0.7872077
vn 0.03844765 0.6154882 -0.7872077
vn 0.03844765 0.6154882 -0.7872077
vn 0.08197755 -0.9365932 -0.3406946
vn 0.08197757 -0.9365932 -0.3406947
vn 0.08197757 -0.9365932 -0.3406947
vn -0.2268858 -0.7513511 -0.6196728
vn -0.2268858 -0.7513511 -0.6196728
vn -0.2268858 -0.7513511 -0.6196728
vn -0.6531671 -0.3970678 -0.6447557
vn -0.6531671 -0.3970678 -0.6447557
vn -0.6531671 -0.3970678 -0.6447557
vn -0.2546223 -0.3419074 -0.904581
vn -0.2546224 -0.3419074 -0.9045811
vn -0.2546224 -0.3419074 -0.904581
vn 0.1823923 0.17766 -0.9670418
vn 0.1823923 0.17766 -0.9670419
vn 0.1823923 0.17766 -0.9670419
vn 0.4139535 0.01922225 -0.910095
vn 0.4139536 0.01922225 -0.910095
vn 0.4139536 0.01922225 -0.910095
vn 0.2106746 -0.03708956 -0.9768524
vn 0.2106746 -0.03708956 -0.9768524
vn 0.2106746 -0.03708956 -0.9768524
vn -0.03295983 -0.2113876 -0.9768464
vn -0.03295982 -0.2113876 -0.9768464
vn -0.03295982 -0.2113876 -0.9768464
vn 0.2222822 -0.1915562 -0.9559795
vn 0.2222822 -0.1915561 -0.9559795
vn 0.2222822 -0.1915562 -0.9559795
vn 0.6825683 -0.5137303 0.5197902
vn 0.6825683 -0.5137302 0.5197902
vn 0.6825683 -0.5137302 0.5197902
vn -0.1909394 -0.8274154 -0.5281344
vn -0.1909394 -0.8274154 -0.5281344
vn -0.1909394 -0.8274154 -0.5281344
vn -0.1408985 -0.895004 -0.4232205
vn -0.1408985 -0.895004 -0.4232205
vn -0.1408985 -0.895004 -0.4232205
vn 0.2955278 -0.2071393 -0.9326074
vn 0.2955277 -0.2071393 -0.9326074
vn 0.2955278 -0.2071393 -0.9326074
vn 0.4712179 -0.1488298 -0.8693695
vn 0.4712179 -0.1488298 -0.8693695
vn 0.4712178 -0.1488298 -0.8693696
vn 0.5191483 -0.3221552 -0.7916445
vn 0.5191483 -0.3221552 -0.7916445
vn 0.5191483 -0.3221552 -0.7916445
vn -0.7619779 0.06037217 0.6447829
vn -0.7619778 0.06037234 0.644783
vn -0.7619778 0.06037234 0.644783
vn -0.7619778 0.06037234 0.644783
vn -0.7619787 0.06037398 0.6447816
vn 0.7898051 0.1951398 0.581488
vn 0.7898044 0.1951393 0.5814893
vn 0.7898045 0.1951392 0.5814892
vn 0.7898044 0.1951392 0.5814893
vn 0.789803 0.195141 0.5814905
vn 0.7898043 0.1951392 0.5814893
vn 0.7898043 0.1951393 0.5814893
vn 0.7898033 0.1951396 0.5814904
vn 0.4799042 0.2072774 -0.8524835
vn 0.4799041 0.2072774 -0.8524835
vn 0.4799041 0.2072774 -0.8524835
vn 0.4641221 0.1936573 -0.8643422
vn 0.7704635 -0.2625121 0.5809246
vn 0.7704636 -0.2625121 0.5809246
vn 0.7704636 -0.2625121 0.5809246
vn 0.7704632 -0.2625125 0.580925
vn 0.7704625 -0.2625133 0.5809253
vn -0.4321056 0.829765 0.3532348
vn -0.432105 0.829765 0.3532355
vn -0.432105 0.829765 0.3532355
vn -0.432105 0.829765 0.3532355
vn -0.4321057 0.8297648 0.353235
vn -0.4321073 0.8297638 0.3532356
vn 0.6194928 -0.3936903 -0.679144
vn 0.6194928 -0.3936904 -0.679144
vn 0.6194928 -0.3936904 -0.679144
vn 0.6093753 -0.3931629 -0.6885382
vn -0.9380844 0.2400895 0.2497091
vn -0.9380844 0.2400895 0.2497091
vn -0.9380844 0.2400895 0.2497091
vn -0.9344806 0.2555337 0.2478882
vn 0.1371118 0.04314955 -0.9896153
vn 0.1371118 0.04314955 -0.9896153
vn 0.1371118 0.04314955 -0.9896153
vn 0.1535732 0.001140277 -0.9881366
vn -0.1986386 -0.3889273 0.899599
vn -0.1986388 -0.3889273 0.899599
vn -0.1986388 -0.3889273 0.899599
vn -0.1986388 -0.3889273 0.899599
vn -0.1986389 -0.3889273 0.8995988
vn -0.1986388 -0.3889273 0.899599
g paperBall_Explode_Thin_11_Hull_0
f 3/3/3 2/2/2 1/1/1
f 6/6/6 5/5/5 4/4/4
f 9/9/9 8/8/8 7/7/7
f 12/12/12 11/11/11 10/10/10
f 15/15/15 14/14/14 13/13/13
f 18/18/18 17/17/17 16/16/16
f 21/21/21 20/20/20 19/19/19
f 24/24/24 23/23/23 22/22/22
f 27/27/27 26/26/26 25/25/25
f 30/30/30 29/29/29 28/28/28
f 33/33/33 32/32/32 31/31/31
f 36/36/36 35/35/35 34/34/34
f 39/39/39 38/38/38 37/37/37
f 42/42/42 41/41/41 40/40/40
f 45/45/45 44/44/44 43/43/43
f 48/48/48 47/47/47 46/46/46
f 51/51/51 50/50/50 49/49/49
f 54/54/54 53/53/53 52/52/52
f 57/57/57 56/56/56 55/55/55
f 60/60/60 59/59/59 58/58/58
f 63/63/63 62/62/62 61/61/61
f 66/66/66 65/65/65 64/64/64
f 69/69/69 68/68/68 67/67/67
f 72/72/72 71/71/71 70/70/70
f 75/75/75 74/74/74 73/73/73
f 78/78/78 77/77/77 76/76/76
f 81/81/81 80/80/80 79/79/79
f 84/84/84 83/83/83 82/82/82
f 87/87/87 86/86/86 85/85/85
f 90/90/90 89/89/89 88/88/88
f 93/93/93 92/92/92 91/91/91
f 96/96/96 95/95/95 94/94/94
f 99/99/99 98/98/98 97/97/97
f 99/99/99 100/100/100 98/98/98
f 98/98/98 100/100/100 101/101/101
f 104/104/104 103/103/103 102/102/102
f 105/105/105 103/103/103 104/104/104
f 105/105/105 104/104/104 106/106/106
f 103/103/103 105/105/105 107/107/107
f 103/103/103 107/107/107 108/108/108
f 103/103/103 108/108/108 109/109/109
f 112/112/112 111/111/111 110/110/110
f 111/111/111 112/112/112 113/113/113
f 116/116/116 115/115/115 114/114/114
f 114/114/114 115/115/115 117/117/117
f 114/114/114 117/117/117 118/118/118
f 121/121/121 120/120/120 119/119/119
f 121/121/121 122/122/122 120/120/120
f 120/120/120 122/122/122 123/123/123
f 120/120/120 123/123/123 124/124/124
f 127/127/127 126/126/126 125/125/125
f 126/126/126 128/128/128 125/125/125
f 131/131/131 130/130/130 129/129/129
f 132/132/132 131/131/131 129/129/129
f 135/135/135 134/134/134 133/133/133
f 135/135/135 133/133/133 136/136/136
f 139/139/139 138/138/138 137/137/137
f 140/140/140 138/138/138 139/139/139
f 138/138/138 140/140/140 141/141/141
f 141/141/141 140/140/140 142/142/142
