g paperBall_Explode_Thin_13
v 0.01580307 -0.009355201 0.05752738
v 0.02419418 0.02519995 0.05369904
v 0.04167831 0.03573745 0.06083929
v -0.02302185 -0.03107281 -0.0608393
v -0.03878479 -0.03425236 -0.05339539
v -0.04167831 -0.03573745 -0.05916277
v 0.002222748 -0.02120251 -0.03494677
v -0.02397736 -0.01983013 -0.0285174
v 0.01147781 -0.01552301 -0.05348908
v 0.003942871 0.008780212 0.01742947
v 0.03096405 0.008843575 -0.02581676
v 0.02489334 0.0110397 0.01818193
v 0.02706497 0.02629894 0.00514082
v 0.02495834 0.0251078 0.001537232
v 0.01038712 0.02141941 0.002778516
v 0.02325394 0.02864912 0.007678594
v 0.02475265 0.03068634 0.01005315
vt 0.6411024 0.008802359
vt 0.6557215 0.02327788
vt 0.6602734 0.01267256
vt 0.03073885 0.9614397
vt 0.03776195 0.965232
vt 0.03872879 0.9632051
vt 0.0212 0.9698
vt 0.03365435 0.9740548
vt 0.01646784 0.9629027
vt 0.02189054 0.9917239
vt 0.0081911 0.9740337
vt 0.0121 0.9908
vt 0.7017 0.9947
vt 0.7017999 0.9932182
vt 0.6958506 0.9887118
vt 0.6987371 0.9939932
vt 0.6985601 0.9951462
vn -0.4754967 0.2101088 0.8542583
vn -0.4754967 0.2101088 0.8542583
vn -0.4754967 0.2101088 0.8542583
vn -0.2867801 0.9542912 -0.08417488
vn -0.2185641 0.9569325 -0.1910759
vn -0.2510189 0.9603453 -0.1213515
vn -0.389281 0.8881168 -0.2443542
vn -0.07187244 0.874559 -0.4795631
vn -0.5762007 0.8164464 -0.0375236
vn -0.07571945 0.8664401 -0.493506
vn -0.6961401 0.7058008 -0.1312789
vn -0.3318169 0.8625882 -0.3818889
vn 0.1318343 -0.8272497 0.546148
vn 0.2552375 -0.9525812 0.1656589
vn 0.1701113 -0.8348686 0.5235043
vn 0.03148488 -0.7093282 0.7041748
vn -0.02399964 -0.7512045 0.6596332
g paperBall_Explode_Thin_13_0
f 3/3/3 2/2/2 1/1/1
f 6/6/6 5/5/5 4/4/4
f 7/7/7 4/4/4 5/5/5
f 5/5/5 8/8/8 7/7/7
f 7/7/7 9/9/9 4/4/4
f 8/8/8 10/10/10 7/7/7
f 9/9/9 7/7/7 11/11/11
f 12/12/12 7/7/7 10/10/10
f 12/12/12 11/11/11 7/7/7
f 15/15/15 14/14/14 13/13/13
f 13/13/13 16/16/16 15/15/15
f 13/13/13 17/17/17 16/16/16
