g paperBall_Explode_Thin_16
v 0.05357055 -0.1692162 -0.07367326
v 0.04404937 -0.1618818 -0.08541979
v 0.04152283 -0.1243047 -0.0615905
v -0.01460052 -0.1199249 0.02263588
v -0.006571197 -0.1263488 0.04590677
v 0.003557587 -0.1034928 0.006322593
v 0.1782997 -0.1891087 -0.05932728
v 0.1699171 -0.2069286 -0.1058026
v 0.1690121 -0.2137591 -0.1041358
v 0.1557431 -0.1583976 -0.1135765
v 0.1514654 -0.1307861 -0.1187472
v 0.1701834 -0.1312976 -0.06786556
v 0.1138977 -0.0238414 -0.0548196
v 0.1272092 -0.09059399 -0.1227135
v 0.03377045 -0.01305954 -0.08419147
v 0.0781192 -0.06437167 -0.1187323
v 0.04472366 -0.05015159 -0.1152356
v -0.04611649 0.1405644 -0.05338943
v 0.08801346 -0.1122433 0.06078609
v 0.08315826 0.00283432 0.02700085
v -0.02141647 0.06264374 0.1024597
v 0.03008301 0.077631 0.01925762
v -0.08472923 0.1704994 -0.01228714
v -0.112814 0.1876283 -0.06787895
v -0.1484196 0.196392 -0.03240505
v -0.1574801 0.2146336 -0.07753111
v -0.1398898 0.1888431 0.003674583
v -0.137984 0.1729637 0.02117893
v -0.1328885 0.1530153 0.05300409
v -0.1171468 0.08660831 0.1440025
v -0.1207352 0.09274735 0.1373521
v -0.1108884 0.06218151 0.150799
v -0.06104721 -0.001568832 0.1505055
v -0.02079803 -0.05890743 0.1451455
v 0.009781341 -0.1101595 0.1343479
v 0.03774841 -0.1606738 0.1109076
v 0.03018341 -0.1551346 0.1177146
v 0.09253632 -0.2003919 0.03929146
v 0.04472366 -0.05015159 -0.1152356
v 0.02950867 -0.09459465 -0.07906837
v 0.03777527 -0.10738 -0.1013957
v 0.03377045 -0.01305954 -0.08419147
v -0.01438263 -0.05122032 -0.01803898
v -0.07926788 -0.0715363 0.02271717
v -0.05878906 -0.08612119 -0.01866985
v -0.09190567 -0.06235884 0.03834961
v -0.1054419 0.00736824 0.04841343
v -0.0990892 -0.0570771 0.04359398
v -0.1085406 -0.03997776 0.05052486
v -0.1388204 0.008797016 0.06362938
v -0.1391507 0.01143093 0.06374138
v -0.1446275 0.02831421 0.0562211
v -0.02775307 0.07972343 -0.0480434
v -0.04611649 0.1405644 -0.05338943
v -0.1536766 0.05416649 0.0430809
v -0.1539461 0.07904041 0.02555014
v -0.1278339 0.1706509 -0.06989998
v -0.157314 0.1461621 -0.03137001
v -0.1594766 0.179001 -0.0610931
v -0.1602344 0.1992513 -0.07732511
v 0.03266205 -0.1098162 -0.09985518
v 0.0008287048 -0.1297926 -0.07129236
v 0.008803863 -0.1354339 -0.08956277
v 0.02950867 -0.09459465 -0.07906837
v -0.05878906 -0.08612119 -0.01866985
v 0.03777527 -0.10738 -0.1013957
v 0.003557587 -0.1034928 0.006322593
v 0.01251495 -0.1392993 -0.02863266
v -0.01460052 -0.1199249 0.02263588
v 0.04152283 -0.1243047 -0.0615905
v 0.04404937 -0.1618818 -0.08541979
v -0.1602344 0.1992513 -0.07732511
v -0.112814 0.1876283 -0.06787895
v -0.1574801 0.2146336 -0.07753111
v -0.1278339 0.1706509 -0.06989998
v -0.02775307 0.07972343 -0.0480434
v -0.04611649 0.1405644 -0.05338943
v -0.06483688 -0.08062186 -0.07317827
v -0.07469559 -0.05251229 -0.09113911
v -0.0625499 -0.0820846 -0.08709494
v -0.102651 -0.05349004 -0.008013993
v -0.09647506 -0.01150753 -0.09577155
v -0.1447066 0.01027237 -0.09099205
v -0.1881134 0.01383394 -0.0554703
v -0.1845608 0.008527603 -0.04861645
v -0.1888042 0.01632458 -0.05964252
v -0.1936368 0.0284153 -0.08528223
v 0.1566867 0.01051567 -0.1475159
v 0.1499225 0.01773365 -0.150799
v 0.1539398 0.01373741 -0.1507217
v 0.1563278 0.01054323 -0.1504974
v 0.1588341 0.005620746 -0.1499199
v 0.1929094 -0.07003811 -0.1401659
v 0.1949762 -0.07270943 -0.09412262
v 0.19138 -0.1503047 -0.09829097
v 0.1912006 -0.121581 -0.1285993
v 0.1887605 -0.1547997 -0.1208804
v 0.1866589 -0.1649065 -0.1182636
v 0.08678665 -0.1937861 -0.08965664
v 0.08776718 -0.1944726 -0.09229378
v 0.08863968 -0.1923327 -0.09293231
v 0.09420151 -0.1547597 -0.1022162
v 0.06347595 -0.1237619 -0.04699123
v 0.04895996 -0.1666919 -0.0218507
v 0.01632477 -0.1430195 0.02003506
v 0.07977585 -0.108388 -0.1094701
v 0.007571564 -0.1365748 0.02592895
v 0.04349014 -0.03673616 -0.08079727
v 0.05735672 -0.03579624 -0.1208577
v 0.0001379395 -0.1311047 0.0310994
v -0.005440063 0.03067946 -0.09780983
v 0.02423477 0.005824032 -0.1233844
v -0.05166015 0.07525274 -0.1235228
v -0.06075142 0.08018903 -0.122803
v -0.1080157 0.02396963 0.004424286
v -0.07289413 0.08098686 -0.1205789
v -0.01843094 -0.03145315 -0.01165043
v -0.1012308 -0.04466312 0.05809988
v -0.08199798 -0.07012602 0.05813385
v -0.1199687 -0.02317778 0.05303419
v -0.1806786 0.07078332 -0.0662895
v -0.1660754 0.0873521 -0.1035648
v -0.1847319 0.08307896 -0.08922857
v -0.1867457 0.08752823 -0.09952134
v -0.1694365 0.03743252 -0.003167858
v -0.147513 0.006190262 0.04140379
v -0.1472569 0.005576706 0.04181698
v -0.1691161 0.03608374 -0.001103725
v -0.1620167 0.04439854 0.01921314
v -0.1421917 0.006661606 0.0536277
v -0.1428303 0.00726635 0.05326191
v -0.04818405 -0.007130966 0.01599396
v -0.1662953 0.07718571 -0.0181797
v -0.07094391 -0.07856566 0.06753784
v -0.06065056 -0.08625716 0.06692486
v 0.007266235 -0.136764 0.04931482
v -0.1687891 0.08895796 -0.03509218
v 0.006796722 0.004803886 -0.05103653
v 0.01412659 -0.1353865 0.0440398
v 0.01463715 -0.1422114 0.04548897
v 0.05379089 -0.1707449 0.002671375
v 0.08858978 -0.1319813 -0.05533398
v 0.07404373 -0.1851092 -0.04159443
v 0.1110368 -0.1601721 -0.1043617
v 0.09900466 -0.2028746 -0.09268246
v 0.09075714 -0.08082966 -0.1176425
v 0.0614032 -0.02472147 -0.1240695
v 0.01820053 0.01665474 -0.1245524
v -0.01443947 0.05171364 -0.1257447
v -0.07965141 0.1030248 -0.1172717
v -0.1715022 0.10745 -0.05727377
v -0.0743264 0.1014853 -0.1247619
v -0.1818684 0.129367 -0.1095995
v -0.08623237 0.1072147 -0.123659
vt 0.5722067 1
vt 0.5654556 0.9935014
vt 0.5577 1
vt 0.5334727 0.9938841
vt 0.5211976 1
vt 0.5364 1
vt 0.7071 0.6159
vt 0.7043059 0.6333815
vt 0.7071 0.6329684
vt 0.6835842 0.6371688
vt 0.6732826 0.6385216
vt 0.6861 0.6178
vt 0.6439 0.6109
vt 0.6553077 0.6395445
vt 0.6043 0.6495
vt 0.6295885 0.6526064
vt 0.6128293 0.6598357
vt 0.5689 0.5953
vt 0.6814 0.564
vt 0.6414 0.5803
vt 0.6185 0.543
vt 0.6109 0.5764
vt 0.5637 0.5682
vt 0.5429 0.583
vt 0.542189 0.5620239
vt 0.5260964 0.5712909
vt 0.5531549 0.5503293
vt 0.5605587 0.5428632
vt 0.5709714 0.5349557
vt 0.6033562 0.5134513
vt 0.6002805 0.5145555
vt 0.6117855 0.5113795
vt 0.6363558 0.5177844
vt 0.6581465 0.5242722
vt 0.6764994 0.5297682
vt 0.6935103 0.5381773
vt 0.6913999 0.5352777
vt 0.7071 0.5694382
vt 0.6128293 0.6598357
vt 0.6037 0.6821
vt 0.6097063 0.6840968
vt 0.6043 0.6495
vt 0.5862 0.6735
vt 0.5747315 0.6920676
vt 0.5849605 0.6913161
vt 0.5702575 0.6908182
vt 0.5568 0.6654
vt 0.56784 0.6899174
vt 0.5631475 0.6847042
vt 0.5487341 0.6685799
vt 0.5482627 0.6675624
vt 0.5445642 0.6620176
vt 0.5763 0.6244
vt 0.5689 0.5953
vt 0.5408606 0.652433
vt 0.5397431 0.6420503
vt 0.5371 0.5997
vt 0.531275 0.6141163
vt 0.5251911 0.5988996
vt 0.5249624 0.5840698
vt 0.6074905 0.6860432
vt 0.5982293 0.7019544
vt 0.6023278 0.7013842
vt 0.6037 0.6821
vt 0.5849605 0.6913161
vt 0.6097063 0.6840968
vt 0.5364 1
vt 0.5499265 0.9928387
vt 0.5334727 0.9938841
vt 0.5577 1
vt 0.5654556 0.9935014
vt 0.5249624 0.5840698
vt 0.5429 0.583
vt 0.5260964 0.5712909
vt 0.5371 0.5997
vt 0.5763 0.6244
vt 0.5689 0.5953
vt 0.5179533 0.8027955
vt 0.5247641 0.8101947
vt 0.5232203 0.799893
vt 0.4941755 0.8240829
vt 0.5267646 0.8246863
vt 0.5294129 0.8412119
vt 0.5199994 0.8551099
vt 0.5170816 0.8536677
vt 0.5216398 0.855479
vt 0.5301362 0.8564291
vt 0 0.064
vt 0 0.06773942
vt 0.0005888555 0.06580901
vt 0.0009459271 0.06445713
vt 0.001671279 0.06249836
vt 0.01336256 0.03074422
vt 0 0.0213
vt 0.0213 0
vt 0.02313609 0.01389194
vt 0.02866659 0.003343121
vt 0.0298732 0
vt 0.3512463 0.709602
vt 0.3504298 0.7085221
vt 0.3496569 0.709066
vt 0.3397558 0.718196
vt 0.3576 0.7449
vt 0.3749245 0.7388989
vt 0.3874762 0.7604262
vt 0.3316649 0.7349354
vt 0.3892685 0.7653737
vt 0.3346 0.7711
vt 0.3192108 0.7630254
vt 0.3902496 0.7695023
vt 0.3189 0.8003
vt 0.3125567 0.7827514
vt 0.3030998 0.8219714
vt 0.3026999 0.8258352
vt 0.3585 0.8374
vt 0.303503 0.8302131
vt 0.3587 0.7973
vt 0.391512 0.8232123
vt 0.3947086 0.8110802
vt 0.3864041 0.8333117
vt 0.3259789 0.8674771
vt 0.3090848 0.8628705
vt 0.3152614 0.8692475
vt 0.3110712 0.8707497
vt 0.3541916 0.860414
vt 0.3773534 0.8481039
vt 0.3776185 0.8479066
vt 0.3552599 0.8600959
vt 0.533938 0.2055934
vt 0.5448747 0.2247077
vt 0.5448299 0.2243322
vt 0.5136 0.2504
vt 0.5191728 0.1917775
vt 0.5403677 0.2701521
vt 0.5385301 0.2751123
vt 0.5198619 0.3060063
vt 0.5132766 0.1863058
vt 0.4802 0.256
vt 0.5164 0.3069
vt 0.5171436 0.3094376
vt 0.4945245 0.3263224
vt 0.4641 0.3183
vt 0.4704309 0.3379961
vt 0.4390317 0.329425
vt 0.4444413 0.3452485
vt 0.4406404 0.2972146
vt 0.443467 0.2719431
vt 0.4504762 0.2484667
vt 0.4553684 0.2303333
vt 0.4682 0.2002
vt 0.5052249 0.1787242
vt 0.4646064 0.2012693
vt 0.4859885 0.1648557
vt 0.4666188 0.1965919
vn -0.8229693 -0.3426654 0.4531027
vn -0.8229693 -0.3426654 0.4531027
vn -0.8229693 -0.3426654 0.4531027
vn 0.4160104 -0.82955 -0.3725347
vn 0.4160104 -0.82955 -0.3725347
vn 0.4160104 -0.82955 -0.3725347
vn 0.9845514 0.1260895 0.1214907
vn 0.9826303 0.01916554 -0.1845817
vn 0.9805387 -0.158264 -0.1161733
vn 0.9390752 0.1223581 -0.3211953
vn 0.8923617 0.3130223 -0.3251268
vn 0.9613546 0.2724838 0.0393682
vn 0.7470317 0.6101848 -0.2638524
vn 0.7003757 0.5728115 -0.4258648
vn 0.3408335 0.5109685 -0.7891411
vn 0.3048712 0.6989687 -0.6469128
vn 0.2070584 0.6631448 -0.7192816
vn 0.6330069 0.7662942 -0.1099791
vn 0.7615352 0.08904906 0.6419769
vn 0.7965441 0.4161228 0.438588
vn 0.5466792 0.5370444 0.6424369
vn 0.6773257 0.7002897 0.2254422
vn 0.4885856 0.828259 0.274356
vn 0.4503746 0.8853421 0.1154641
vn 0.385868 0.9080452 0.1629714
vn 0.4603179 0.8513219 0.2517112
vn 0.3862401 0.8502395 0.3576472
vn 0.423279 0.7355599 0.5289485
vn 0.4399069 0.7831412 0.4395131
vn 0.438093 0.6173816 0.653387
vn 0.4062016 0.77017 0.4917706
vn 0.4449393 0.3440554 0.8268343
vn 0.4872921 0.3100624 0.8163379
vn 0.6336802 0.2591902 0.7288826
vn 0.6760819 0.182642 0.7138312
vn 0.7116372 -0.01161555 0.702451
vn 0.6850215 0.04175635 0.7273252
vn 0.7559417 -0.1182193 0.643876
vn -0.9325063 0.02610855 -0.3602087
vn -0.8628012 0.1076865 -0.4939411
vn -0.9325066 0.02610916 -0.360208
vn -0.8149309 -0.09941164 -0.5709683
vn -0.6852789 0.08807331 -0.7229356
vn -0.541923 0.4821465 -0.6883706
vn -0.1953468 0.8906738 -0.4105359
vn -0.5939995 0.08366343 -0.8001031
vn -0.5117266 -0.248009 -0.8225737
vn -0.588459 0.002456955 -0.8085233
vn -0.5531786 -0.0009460457 -0.8330621
vn -0.4152316 -0.01338863 -0.9096172
vn -0.4249651 -0.2870852 -0.8584793
vn -0.422177 -0.5106039 -0.7490327
vn -0.6627368 -0.3545192 -0.6596182
vn -0.7651362 -0.2818076 -0.5789222
vn -0.4269467 -0.5240263 -0.736962
vn -0.4160092 -0.5573786 -0.7185161
vn -0.3782765 -0.6130083 -0.6936337
vn -0.3901797 -0.6122606 -0.6876749
vn -0.3578573 -0.6153096 -0.7023761
vn -0.3572919 -0.5922598 -0.7221987
vn -0.6186282 0.5862167 -0.5231149
vn -0.6372367 0.3698645 -0.6761136
vn -0.7318181 0.4921568 -0.4714064
vn -0.6503216 0.4257926 -0.6291124
vn -0.52963 0.2526667 -0.8097231
vn -0.4875784 0.6675077 -0.5627617
vn 0.7781251 -0.3281719 0.53556
vn 0.7785643 -0.3213232 0.5390632
vn 0.7781252 -0.3281717 0.5355599
vn 0.7794026 -0.3054303 0.547032
vn 0.779743 -0.2970712 0.5511348
vn 0.1842638 -0.04614267 -0.9817931
vn 0.1822523 -0.04181071 -0.9823624
vn 0.1842638 -0.04614267 -0.9817931
vn 0.1811467 -0.04330051 -0.9825023
vn 0.1887524 -0.03163373 -0.9815151
vn 0.1934453 -0.02778766 -0.9807175
vn 0.8723012 0.4409535 0.2113073
vn 0.8459044 0.4643303 0.2623798
vn 0.9141528 0.3903861 0.1091945
vn 0.6331691 0.6799392 0.3698371
vn 0.6052909 0.7006459 0.3777805
vn 0.4002099 0.8224846 0.4041675
vn 0.4080439 0.8120613 0.4172009
vn 0.408042 0.8120611 0.4172029
vn 0.3902273 0.8351175 0.3876873
vn 0.3615483 0.8677377 0.3410484
vn 0.863576 0.5012147 -0.05495655
vn 0.6999409 0.7057539 0.1095178
vn 0.7228345 0.6873246 0.07138094
vn 0.8448095 0.5262336 -0.09682526
vn 0.90946 0.4145761 -0.03176857
vn 0.9743674 0.2228427 -0.03080822
vn 0.9905071 0.13245 -0.03677774
vn 0.9923828 -0.09974755 -0.07229725
vn 0.9969772 -0.05336039 -0.05647324
vn 0.9841384 -0.1568347 -0.0829126
vn 0.9730111 -0.2201965 -0.06901407
vn -0.8795612 0.05671495 -0.4723933
vn -0.8864726 0.2441208 -0.3931556
vn -0.8812887 0.07039303 -0.4673062
vn -0.89519 -0.1253656 -0.4276896
vn -0.8355246 -0.23046 -0.4987854
vn -0.8364021 -0.03742319 -0.5468374
vn -0.7268974 -0.3252978 -0.6048152
vn -0.8918065 -0.3261646 -0.3135248
vn -0.6984639 -0.390089 -0.5999824
vn -0.7700733 -0.4764755 -0.4242147
vn -0.8308805 -0.4695364 -0.2986188
vn -0.6530226 -0.3980755 -0.6442806
vn -0.6204928 -0.7086679 -0.3358249
vn -0.7348111 -0.6366901 -0.2338341
vn -0.4799051 -0.7552049 -0.4464939
vn -0.3300349 -0.811987 -0.4814085
vn -0.3237287 -0.7537559 -0.5718844
vn -0.1396256 -0.8852842 -0.4435949
vn -0.5883854 -0.5173031 -0.62145
vn -0.5043656 -0.5115948 -0.6956192
vn -0.5468981 -0.4140571 -0.7276394
vn -0.4411479 -0.587556 -0.6783558
vn -0.1404603 -0.8844033 -0.4450861
vn -0.1326545 -0.889284 -0.4376948
vn -0.121882 -0.8965506 -0.4258425
vn -0.0825275 -0.9205595 -0.3817847
vn -0.1314114 -0.868778 -0.477447
vn -0.2792366 -0.7143171 -0.6416992
vn -0.3689144 -0.6201731 -0.6923058
vn -0.1184817 -0.8395523 -0.5302019
vn 0.345024 0.7249406 0.5961707
vn 0.3616384 0.6552728 0.6632007
vn 0.3450342 0.7249411 0.5961643
vn 0.4820505 0.5918354 0.6460326
vn 0.395145 0.7616627 0.5135469
vn 0.3876905 0.4549454 0.8016987
vn 0.4584142 0.4288289 0.7784356
vn 0.5213356 0.3622952 0.7726263
vn 0.4059764 0.7474278 0.525866
vn 0.6409994 0.6197988 0.4527354
vn 0.6582236 0.3142498 0.6840971
vn 0.715233 0.1959528 0.6708533
vn 0.8222593 0.1001609 0.5602298
vn 0.8657099 0.1983571 0.4595658
vn 0.8807362 -0.1228508 0.4573964
vn 0.9176477 0.04375991 0.3949783
vn 0.875311 -0.1184054 0.4688399
vn 0.8296018 0.4170626 0.3712407
vn 0.7634491 0.5416006 0.3518725
vn 0.6926394 0.6874676 0.2182632
vn 0.6468263 0.7150671 0.2651315
vn 0.4408596 0.8277588 0.3470707
vn 0.348197 0.8091179 0.4733784
vn 0.5697464 0.784848 0.2437266
vn 0.2587404 0.9081464 0.3291254
vn 0.3072478 0.909495 0.2800314
g paperBall_Explode_Thin_16_0
f 3/3/3 2/2/2 1/1/1
f 6/6/6 5/5/5 4/4/4
f 9/9/9 8/8/8 7/7/7
f 7/7/7 8/8/8 10/10/10
f 10/10/10 11/11/11 7/7/7
f 12/12/12 7/7/7 11/11/11
f 12/12/12 11/11/11 13/13/13
f 14/14/14 13/13/13 11/11/11
f 13/13/13 14/14/14 15/15/15
f 16/16/16 15/15/15 14/14/14
f 15/15/15 16/16/16 17/17/17
f 13/13/13 15/15/15 18/18/18
f 7/7/7 12/12/12 19/19/19
f 12/12/12 13/13/13 20/20/20
f 12/12/12 20/20/20 19/19/19
f 20/20/20 21/21/21 19/19/19
f 20/20/20 22/22/22 21/21/21
f 13/13/13 22/22/22 20/20/20
f 13/13/13 18/18/18 22/22/22
f 23/23/23 22/22/22 18/18/18
f 24/24/24 23/23/23 18/18/18
f 24/24/24 25/25/25 23/23/23
f 24/24/24 26/26/26 25/25/25
f 27/27/27 23/23/23 25/25/25
f 27/27/27 28/28/28 23/23/23
f 22/22/22 23/23/23 28/28/28
f 22/22/22 28/28/28 21/21/21
f 29/29/29 21/21/21 28/28/28
f 21/21/21 29/29/29 30/30/30
f 31/31/31 30/30/30 29/29/29
f 30/30/30 32/32/32 21/21/21
f 33/33/33 21/21/21 32/32/32
f 21/21/21 33/33/33 34/34/34
f 21/21/21 34/34/34 19/19/19
f 35/35/35 19/19/19 34/34/34
f 19/19/19 35/35/35 36/36/36
f 37/37/37 36/36/36 35/35/35
f 19/19/19 36/36/36 7/7/7
f 38/38/38 7/7/7 36/36/36
f 41/41/41 40/40/40 39/39/39
f 42/42/42 39/39/39 40/40/40
f 42/42/42 40/40/40 43/43/43
f 40/40/40 44/44/44 43/43/43
f 40/40/40 45/45/45 44/44/44
f 46/46/46 43/43/43 44/44/44
f 43/43/43 46/46/46 47/47/47
f 46/46/46 48/48/48 47/47/47
f 48/48/48 49/49/49 47/47/47
f 49/49/49 50/50/50 47/47/47
f 51/51/51 47/47/47 50/50/50
f 47/47/47 51/51/51 52/52/52
f 42/42/42 43/43/43 53/53/53
f 53/53/53 43/43/43 47/47/47
f 47/47/47 52/52/52 53/53/53
f 42/42/42 53/53/53 54/54/54
f 52/52/52 55/55/55 53/53/53
f 55/55/55 56/56/56 53/53/53
f 53/53/53 56/56/56 57/57/57
f 58/58/58 57/57/57 56/56/56
f 58/58/58 59/59/59 57/57/57
f 59/59/59 60/60/60 57/57/57
f 63/63/63 62/62/62 61/61/61
f 64/64/64 61/61/61 62/62/62
f 64/64/64 62/62/62 65/65/65
f 64/64/64 66/66/66 61/61/61
f 69/69/69 68/68/68 67/67/67
f 70/70/70 67/67/67 68/68/68
f 70/70/70 68/68/68 71/71/71
f 74/74/74 73/73/73 72/72/72
f 75/75/75 72/72/72 73/73/73
f 76/76/76 75/75/75 73/73/73
f 77/77/77 76/76/76 73/73/73
f 80/80/80 79/79/79 78/78/78
f 78/78/78 79/79/79 81/81/81
f 82/82/82 81/81/81 79/79/79
f 82/82/82 83/83/83 81/81/81
f 81/81/81 83/83/83 84/84/84
f 85/85/85 81/81/81 84/84/84
f 83/83/83 86/86/86 84/84/84
f 86/86/86 83/83/83 87/87/87
f 90/90/90 89/89/89 88/88/88
f 88/88/88 91/91/91 90/90/90
f 92/92/92 91/91/91 88/88/88
f 92/92/92 88/88/88 93/93/93
f 94/94/94 93/93/93 88/88/88
f 94/94/94 95/95/95 93/93/93
f 96/96/96 93/93/93 95/95/95
f 95/95/95 97/97/97 96/96/96
f 95/95/95 98/98/98 97/97/97
f 101/101/101 100/100/100 99/99/99
f 102/102/102 101/101/101 99/99/99
f 103/103/103 102/102/102 99/99/99
f 104/104/104 103/103/103 99/99/99
f 103/103/103 104/104/104 105/105/105
f 102/102/102 103/103/103 106/106/106
f 105/105/105 107/107/107 103/103/103
f 108/108/108 106/106/106 103/103/103
f 108/108/108 103/103/103 107/107/107
f 108/108/108 109/109/109 106/106/106
f 107/107/107 110/110/110 108/108/108
f 108/108/108 111/111/111 109/109/109
f 112/112/112 109/109/109 111/111/111
f 111/111/111 113/113/113 112/112/112
f 113/113/113 111/111/111 114/114/114
f 115/115/115 114/114/114 111/111/111
f 116/116/116 114/114/114 115/115/115
f 111/111/111 108/108/108 117/117/117
f 117/117/117 108/108/108 110/110/110
f 115/115/115 111/111/111 117/117/117
f 117/117/117 110/110/110 118/118/118
f 117/117/117 118/118/118 115/115/115
f 119/119/119 118/118/118 110/110/110
f 120/120/120 115/115/115 118/118/118
f 121/121/121 116/116/116 115/115/115
f 116/116/116 121/121/121 122/122/122
f 123/123/123 122/122/122 121/121/121
f 123/123/123 124/124/124 122/122/122
f 125/125/125 121/121/121 115/115/115
f 115/115/115 120/120/120 126/126/126
f 115/115/115 126/126/126 125/125/125
f 127/127/127 126/126/126 120/120/120
f 128/128/128 125/125/125 126/126/126
f 131/131/131 130/130/130 129/129/129
f 130/130/130 132/132/132 129/129/129
f 132/132/132 133/133/133 129/129/129
f 130/130/130 134/134/134 132/132/132
f 135/135/135 132/132/132 134/134/134
f 135/135/135 136/136/136 132/132/132
f 133/133/133 132/132/132 137/137/137
f 138/138/138 137/137/137 132/132/132
f 139/139/139 138/138/138 132/132/132
f 139/139/139 132/132/132 136/136/136
f 136/136/136 140/140/140 139/139/139
f 140/140/140 141/141/141 139/139/139
f 142/142/142 139/139/139 141/141/141
f 139/139/139 142/142/142 138/138/138
f 142/142/142 141/141/141 143/143/143
f 142/142/142 143/143/143 144/144/144
f 145/145/145 144/144/144 143/143/143
f 142/142/142 144/144/144 146/146/146
f 142/142/142 146/146/146 138/138/138
f 147/147/147 138/138/138 146/146/146
f 138/138/138 147/147/147 148/148/148
f 148/148/148 149/149/149 138/138/138
f 138/138/138 150/150/150 137/137/137
f 138/138/138 149/149/149 150/150/150
f 151/151/151 137/137/137 150/150/150
f 152/152/152 150/150/150 149/149/149
f 151/151/151 150/150/150 153/153/153
f 150/150/150 152/152/152 154/154/154
f 154/154/154 153/153/153 150/150/150
