g paperBall_Explode_Thin_16_Hull
v 0.1783618 -0.1891676 -0.0593462
v 0.08804435 -0.1122757 0.06080862
v 0.195044 -0.07272817 -0.09415355
v 0.09256877 -0.2004547 0.03930657
v 0.1783618 -0.1891676 -0.0593462
v 0.169071 -0.2138265 -0.1041702
v 0.09256877 -0.2004547 0.03930657
v 0.169071 -0.2138265 -0.1041702
v 0.09903935 -0.2029383 -0.09271289
v 0.08318748 0.00284164 0.02701172
v -0.02142335 0.0626717 0.1024966
v 0.0300939 0.07766412 0.01926582
v 0.08318748 0.00284164 0.02701172
v 0.195044 -0.07272817 -0.09415355
v 0.08804435 -0.1122757 0.06080862
v -0.08475797 0.1705646 -0.01228983
v 0.0300939 0.07766412 0.01926582
v -0.02142335 0.0626717 0.1024966
v -0.08475797 0.1705646 -0.01228983
v -0.1399376 0.1889147 0.003677405
v -0.1575339 0.214714 -0.07755632
v -0.08475797 0.1705646 -0.01228983
v -0.1575339 0.214714 -0.07755632
v 0.1499747 0.01774611 -0.1508495
v -0.08475797 0.1705646 -0.01228983
v 0.1499747 0.01774611 -0.1508495
v 0.0300939 0.07766412 0.01926582
v -0.07096788 -0.07858643 0.0675627
v -0.1846239 0.008536887 -0.04863167
v -0.1473072 0.005584972 0.04183296
v -0.08626162 0.107258 -0.1237001
v 0.1499747 0.01774611 -0.1508495
v -0.1575339 0.214714 -0.07755632
v -0.08626162 0.107258 -0.1237001
v -0.1575339 0.214714 -0.07755632
v -0.1819307 0.129418 -0.1096357
v 0.009785227 -0.1101912 0.1343958
v 0.08804435 -0.1122757 0.06080862
v 0.03019434 -0.1551818 0.1177567
v 0.1914466 -0.1503502 -0.09832335
v 0.1783618 -0.1891676 -0.0593462
v 0.195044 -0.07272817 -0.09415355
v 0.1914466 -0.1503502 -0.09832335
v 0.195044 -0.07272817 -0.09415355
v 0.1929765 -0.07005594 -0.1402127
v 0.1914466 -0.1503502 -0.09832335
v 0.1929765 -0.07005594 -0.1402127
v 0.1867239 -0.1649571 -0.1183028
v -0.06257097 -0.08210659 -0.08712344
v -0.1937031 0.02843144 -0.0853101
v -0.1846239 0.008536887 -0.04863167
v -0.06106777 -0.001563033 0.150559
v -0.02142335 0.0626717 0.1024966
v -0.0208047 -0.05892143 0.1451972
v -0.1388678 0.008806393 0.06365289
v -0.07096788 -0.07858643 0.0675627
v -0.1473072 0.005584972 0.04183296
v -0.1388678 0.008806393 0.06365289
v -0.1109262 0.06220931 0.1508526
v -0.07096788 -0.07858643 0.0675627
v -0.1109262 0.06220931 0.1508526
v 0.03019434 -0.1551818 0.1177567
v -0.0208047 -0.05892143 0.1451972
v 0.009785227 -0.1101912 0.1343958
v -0.06106777 -0.001563033 0.150559
v 0.1567413 0.01052564 -0.1475652
v 0.1929765 -0.07005594 -0.1402127
v 0.195044 -0.07272817 -0.09415355
v 0.1567413 0.01052564 -0.1475652
v 0.1499747 0.01774611 -0.1508495
v 0.1929765 -0.07005594 -0.1402127
v 0.1567413 0.01052564 -0.1475652
v 0.0300939 0.07766412 0.01926582
v 0.1499747 0.01774611 -0.1508495
v -0.1207764 0.09278569 0.1374011
v -0.1846239 0.008536887 -0.04863167
v -0.1937031 0.02843144 -0.0853101
v -0.1819307 0.129418 -0.1096357
v -0.1575339 0.214714 -0.07755632
v -0.1937031 0.02843144 -0.0853101
v -0.1399376 0.1889147 0.003677405
v -0.1207764 0.09278569 0.1374011
v 0.09256877 -0.2004547 0.03930657
v 0.03019434 -0.1551818 0.1177567
v 0.08804435 -0.1122757 0.06080862
v 0.1783618 -0.1891676 -0.0593462
v 0.09256877 -0.2004547 0.03930657
v 0.09903935 -0.2029383 -0.09271289
v 0.03019434 -0.1551818 0.1177567
v -0.1846239 0.008536887 -0.04863167
v -0.07096788 -0.07858643 0.0675627
v -0.06257097 -0.08210659 -0.08712344
v 0.08318748 0.00284164 0.02701172
v -0.0208047 -0.05892143 0.1451972
v -0.02142335 0.0626717 0.1024966
v 0.009785227 -0.1101912 0.1343958
v 0.08804435 -0.1122757 0.06080862
v -0.1171867 0.08664455 0.1440537
v -0.02142335 0.0626717 0.1024966
v -0.1109262 0.06220931 0.1508526
v -0.06106777 -0.001563033 0.150559
v -0.08475797 0.1705646 -0.01228983
v -0.02142335 0.0626717 0.1024966
v -0.1171867 0.08664455 0.1440537
v -0.1399376 0.1889147 0.003677405
v -0.1207764 0.09278569 0.1374011
v 0.1867239 -0.1649571 -0.1183028
v 0.1929765 -0.07005594 -0.1402127
v 0.169071 -0.2138265 -0.1041702
v 0.1499747 0.01774611 -0.1508495
v -0.1937031 0.02843144 -0.0853101
v 0.09903935 -0.2029383 -0.09271289
v -0.06257097 -0.08210659 -0.08712344
v -0.1819307 0.129418 -0.1096357
v -0.08626162 0.107258 -0.1237001
v 0.1867239 -0.1649571 -0.1183028
v 0.169071 -0.2138265 -0.1041702
v 0.1783618 -0.1891676 -0.0593462
v 0.1914466 -0.1503502 -0.09832335
v -0.1388678 0.008806393 0.06365289
v -0.1473072 0.005584972 0.04183296
v -0.1109262 0.06220931 0.1508526
v -0.1846239 0.008536887 -0.04863167
v -0.1171867 0.08664455 0.1440537
v -0.1207764 0.09278569 0.1374011
v 0.1567413 0.01052564 -0.1475652
v 0.08318748 0.00284164 0.02701172
v 0.0300939 0.07766412 0.01926582
v 0.195044 -0.07272817 -0.09415355
vn 0.8149113 0.05570198 0.5769029
vn 0.8149113 0.05570198 0.5769029
vn 0.8149113 0.05570197 0.5769029
vn 0.494205 -0.8008834 0.3381529
vn 0.494205 -0.8008834 0.3381529
vn 0.494205 -0.8008834 0.3381529
vn -0.1518393 -0.9883423 0.01115091
vn -0.1518393 -0.9883423 0.01115091
vn -0.1518393 -0.9883423 0.01115091
vn 0.6741046 0.5314461 0.5129796
vn 0.6741046 0.531446 0.5129796
vn 0.6741046 0.531446 0.5129796
vn 0.7797439 0.2064334 0.5910879
vn 0.7797439 0.2064334 0.5910879
vn 0.7797439 0.2064334 0.5910879
vn 0.4892425 0.7538301 0.4386138
vn 0.4892424 0.7538301 0.4386139
vn 0.4892424 0.7538301 0.4386139
vn 0.3626676 0.9079924 0.209814
vn 0.3626676 0.9079924 0.209814
vn 0.3626677 0.9079924 0.209814
vn 0.5349309 0.8445197 -0.02520549
vn 0.5349309 0.8445197 -0.02520549
vn 0.5349309 0.8445197 -0.02520549
vn 0.59816 0.7883604 0.1438491
vn 0.59816 0.7883604 0.1438491
vn 0.59816 0.7883604 0.1438491
vn -0.7512912 -0.5925615 0.2905724
vn -0.7512912 -0.5925615 0.2905724
vn -0.7512912 -0.5925615 0.2905724
vn 0.05763008 0.4259517 -0.9029086
vn 0.0576301 0.4259517 -0.9029086
vn 0.05763009 0.4259517 -0.9029086
vn -0.05222438 0.3645937 -0.929701
vn -0.05222438 0.3645937 -0.929701
vn -0.05222438 0.3645937 -0.929701
vn 0.6850195 0.04175481 0.7273272
vn 0.6850196 0.04175482 0.7273272
vn 0.6850195 0.04175482 0.7273272
vn 0.9625741 -0.05882305 0.2645582
vn 0.9625741 -0.05882305 0.2645582
vn 0.9625741 -0.05882305 0.2645582
vn 0.9979226 -0.04370685 -0.04733106
vn 0.9979226 -0.04370685 -0.04733106
vn 0.9979226 -0.04370685 -0.04733105
vn 0.98221 -0.1012292 -0.1581649
vn 0.98221 -0.1012292 -0.1581649
vn 0.98221 -0.1012292 -0.1581649
vn -0.6267041 -0.7394292 -0.2459399
vn -0.626704 -0.7394292 -0.2459398
vn -0.6267041 -0.7394292 -0.2459398
vn 0.5153906 0.2862756 0.8077245
vn 0.5153906 0.2862756 0.8077245
vn 0.5153906 0.2862756 0.8077245
vn -0.741716 -0.5597454 0.3695165
vn -0.741716 -0.5597454 0.3695166
vn -0.741716 -0.5597454 0.3695166
vn -0.6817359 -0.5060374 0.5283582
vn -0.6817359 -0.5060375 0.5283582
vn -0.6603285 -0.5122578 0.5491433
vn -0.6421393 -0.5046929 0.5770115
vn -0.6421394 -0.5046929 0.5770115
vn -0.6421393 -0.5046929 0.5770115
vn -0.6421396 -0.5046929 0.5770112
vn -0.6421363 -0.5046908 0.5770166
vn 0.9124858 0.4087448 -0.0172458
vn 0.9124858 0.4087448 -0.0172458
vn 0.9124858 0.4087448 -0.0172458
vn 0.5867752 0.1920803 -0.7866384
vn 0.5867751 0.1920803 -0.7866384
vn 0.5867752 0.1920803 -0.7866384
vn 0.6623631 0.7180065 0.2138733
vn 0.6623631 0.7180064 0.2138733
vn 0.6623631 0.7180065 0.2138733
vn -0.9538771 0.09169312 0.2858511
vn -0.9538771 0.09169312 0.2858511
vn -0.9538771 0.09169312 0.2858511
vn -0.949662 0.1735327 0.260823
vn -0.949662 0.1735327 0.260823
vn -0.949662 0.1735327 0.260823
vn -0.9496621 0.1735327 0.2608224
vn -0.949662 0.1735326 0.2608227
vn 0.7410234 -0.1229474 0.6601274
vn 0.7410234 -0.1229474 0.6601274
vn 0.7410234 -0.1229474 0.6601275
vn 0.7559416 -0.1182192 0.6438761
vn -0.5990632 -0.8005741 -0.01430089
vn -0.5990632 -0.8005741 -0.01430089
vn -0.5990631 -0.8005741 -0.01430089
vn -0.5990625 -0.8005745 -0.01430054
vn -0.5990626 -0.8005745 -0.01430023
vn -0.5990627 -0.8005744 -0.01430264
vn 0.6570389 0.2527556 0.7102216
vn 0.6570389 0.2527556 0.7102216
vn 0.6570389 0.2527556 0.7102216
vn 0.6691282 0.2351941 0.7049477
vn 0.6691282 0.2351941 0.7049477
vn 0.4449392 0.3440556 0.8268343
vn 0.4449392 0.3440555 0.8268343
vn 0.4449392 0.3440556 0.8268343
vn 0.4449392 0.3440553 0.8268343
vn 0.3998826 0.7704466 0.4964936
vn 0.4072472 0.7668426 0.4960867
vn 0.3998826 0.7704466 0.4964936
vn 0.3998826 0.7704466 0.4964937
vn 0.3974321 0.7711347 0.4973922
vn -0.1894545 -0.2090113 -0.9593859
vn -0.1894536 -0.2090115 -0.959386
vn -0.1894534 -0.2090115 -0.9593861
vn -0.1894534 -0.2090115 -0.9593861
vn -0.1894534 -0.2090115 -0.9593861
vn -0.1894531 -0.209011 -0.9593862
vn -0.1894556 -0.2090143 -0.9593851
vn -0.1894534 -0.2090115 -0.9593861
vn -0.1894537 -0.2090123 -0.9593859
vn 0.9398547 -0.3415043 -0.006935087
vn 0.9398547 -0.3415043 -0.006935087
vn 0.9398547 -0.3415043 -0.006935087
vn 0.949258 -0.3144504 0.005508362
vn -0.9179661 -0.1310305 0.374392
vn -0.9179693 -0.1310203 0.3743877
vn -0.9179693 -0.1310203 0.3743876
vn -0.9179693 -0.1310203 0.3743876
vn -0.9179693 -0.1310204 0.3743876
vn -0.91797 -0.131018 0.3743868
vn 0.7496957 0.5672638 0.3408345
vn 0.7496957 0.5672638 0.3408345
vn 0.7496957 0.5672638 0.3408345
vn 0.751352 0.5647146 0.3414201
g paperBall_Explode_Thin_16_Hull_0
f 3/3/3 2/2/2 1/1/1
f 6/6/6 5/5/5 4/4/4
f 9/9/9 8/8/8 7/7/7
f 12/12/12 11/11/11 10/10/10
f 15/15/15 14/14/14 13/13/13
f 18/18/18 17/17/17 16/16/16
f 21/21/21 20/20/20 19/19/19
f 24/24/24 23/23/23 22/22/22
f 27/27/27 26/26/26 25/25/25
f 30/30/30 29/29/29 28/28/28
f 33/33/33 32/32/32 31/31/31
f 36/36/36 35/35/35 34/34/34
f 39/39/39 38/38/38 37/37/37
f 42/42/42 41/41/41 40/40/40
f 45/45/45 44/44/44 43/43/43
f 48/48/48 47/47/47 46/46/46
f 51/51/51 50/50/50 49/49/49
f 54/54/54 53/53/53 52/52/52
f 57/57/57 56/56/56 55/55/55
f 60/60/60 59/59/59 58/58/58
f 62/62/62 61/61/61 60/60/60
f 61/61/61 62/62/62 63/63/63
f 63/63/63 62/62/62 64/64/64
f 61/61/61 63/63/63 65/65/65
f 68/68/68 67/67/67 66/66/66
f 71/71/71 70/70/70 69/69/69
f 74/74/74 73/73/73 72/72/72
f 77/77/77 76/76/76 75/75/75
f 80/80/80 79/79/79 78/78/78
f 79/79/79 80/80/80 81/81/81
f 81/81/81 80/80/80 82/82/82
f 85/85/85 84/84/84 83/83/83
f 86/86/86 85/85/85 83/83/83
f 89/89/89 88/88/88 87/87/87
f 88/88/88 89/89/89 90/90/90
f 90/90/90 89/89/89 91/91/91
f 88/88/88 90/90/90 92/92/92
f 95/95/95 94/94/94 93/93/93
f 93/93/93 94/94/94 96/96/96
f 97/97/97 93/93/93 96/96/96
f 100/100/100 99/99/99 98/98/98
f 99/99/99 100/100/100 101/101/101
f 104/104/104 103/103/103 102/102/102
f 105/105/105 104/104/104 102/102/102
f 104/104/104 105/105/105 106/106/106
f 109/109/109 108/108/108 107/107/107
f 109/109/109 110/110/110 108/108/108
f 111/111/111 110/110/110 109/109/109
f 111/111/111 109/109/109 112/112/112
f 111/111/111 112/112/112 113/113/113
f 110/110/110 111/111/111 114/114/114
f 110/110/110 114/114/114 115/115/115
f 118/118/118 117/117/117 116/116/116
f 118/118/118 116/116/116 119/119/119
f 122/122/122 121/121/121 120/120/120
f 121/121/121 122/122/122 123/123/123
f 123/123/123 122/122/122 124/124/124
f 123/123/123 124/124/124 125/125/125
f 128/128/128 127/127/127 126/126/126
f 127/127/127 129/129/129 126/126/126
