g paperBall_Explode_Thin_10
v 0.05457916 -0.07261568 0.08064035
v 0.02983078 -0.08520821 0.05869687
v 0.03372589 -0.08658715 0.06728763
v -0.01525528 -0.07466639 -0.04206057
v 0.0312619 -0.0401983 -0.02041939
v -0.048302 0.003220496 -0.09878868
v -0.0554953 0.01998498 -0.1111833
v 0.01013336 0.005994475 -0.05556434
v -0.05477081 0.09589091 -0.09099615
v -0.07017913 0.1561952 -0.1115908
v -0.04057343 0.1912337 -0.05810144
v -0.05654022 0.20391 -0.06868681
v -0.03266296 0.1244221 -0.08786928
v -0.02041092 0.1729163 -0.04237967
v -0.08106872 0.07032287 -0.1575075
v -0.005719147 0.151333 -0.02252869
v 0.00445343 -0.1039071 -0.1133514
v 0.08048279 -0.01240892 0.09223097
v 0.04562454 -0.1914984 -0.0272867
v 0.05420898 0.05630197 0.06557117
v 0.07521225 0.02500827 0.09439684
v 0.08420227 0.008263282 0.1101501
v 0.08424103 -0.005959532 0.124642
v 0.0769603 -0.05372509 0.1743953
v -0.02968124 -0.05333535 -0.1445882
v -0.08424103 0.02829457 -0.1750361
v -0.07152145 -0.0543162 -0.1660476
v -0.06378739 -0.08692756 -0.1562816
v -0.05160354 -0.1309575 -0.1391047
v -0.02931015 -0.1742666 -0.09858194
v 0.04405624 -0.1558193 0.03623131
v 0.07601684 -0.05696861 0.1714412
v 0.0437503 -0.1849526 -0.008233757
v 0.04102417 -0.1956601 -0.03947252
v -0.007440033 -0.2030145 -0.06151354
v -0.01113815 -0.20391 -0.06416948
v -0.07450195 0.01765352 -0.1553125
v -0.07432327 0.02389525 -0.1533796
v -0.07172485 0.01650694 -0.1539388
v -0.07415527 0.01560357 -0.1550181
v -0.07295242 0.01132005 -0.153307
v -0.05114151 -0.04444216 -0.1169296
v 0.03372589 -0.08658715 0.06728763
v 0.03532531 -0.04800472 0.08036985
v 0.05457916 -0.07261568 0.08064035
v 0.05690185 -0.02617029 0.1050551
v 0.04000244 -0.01710931 0.09862999
v 0.04926575 0.01689763 0.1064598
v 0.03709595 0.02320682 0.101809
vt 0 0.5121
vt 0.009873464 0.5165511
vt 0.01146768 0.5136638
vt 0.02082681 0.5537757
vt 0 0.5548
vt 0.02087994 0.5865324
vt 0.02071395 0.5941696
vt 0 0.5761
vt 0 0.6215423
vt 0.1178931 0.1237883
vt 0.09424693 0.120695
vt 0.09627637 0.1284017
vt 0.1138 0.1053
vt 0.09162398 0.1103124
vt 0.1456319 0.1100456
vt 0.09065404 0.1006444
vt 0.1672 0.0467
vt 0.0841 0.0285
vt 0.1658819 0.001585634
vt 0.07993502 0.05411016
vt 0.07620041 0.03890206
vt 0.0742953 0.03047799
vt 0.07353052 0.02370334
vt 0.0684833 0.0003014299
vt 0.1653 0.0697
vt 0.1590788 0.1028535
vt 0.1749406 0.08117077
vt 0.1808131 0.07133564
vt 0.1868684 0.05653421
vt 0.1909151 0.03424222
vt 0.128 0
vt 0.06996144 0
vt 0.1549087 0
vt 0.1704721 0.003040253
vt 0.1941637 0.01944451
vt 0.1950558 0.02017557
vt 0.0008053126 0.7674463
vt 0 0.7650541
vt 0 0.7682
vt 0.0008811719 0.7681362
vt 0.001025674 0.7696645
vt 0 0.793888
vt 0.01146768 0.5136638
vt 0.01291224 0.5017043
vt 0 0.5121
vt 0 0.4908
vt 0.01093795 0.4873993
vt 0 0.4771512
vt 0.007904085 0.4747694
vn 0.6609554 -0.6522076 -0.3711646
vn 0.6612904 -0.6513826 -0.3720154
vn 0.673534 -0.6185419 -0.4046701
vn 0.6299655 -0.4550385 -0.6293516
vn 0.644851 -0.5212877 -0.558951
vn 0.5750704 -0.311566 -0.7564527
vn 0.6493557 0.02435589 -0.7600947
vn 0.6083912 -0.1996712 -0.7681091
vn 0.658021 0.1876604 -0.7292406
vn 0.6861128 0.3237264 -0.6514987
vn 0.7173742 0.3526432 -0.6008469
vn 0.6967682 0.3591425 -0.6209112
vn 0.7799529 0.257551 -0.5703866
vn 0.8204844 0.2669149 -0.5055311
vn 0.7027603 0.2353907 -0.6713563
vn 0.8828816 0.1882672 -0.4302039
vn 0.7505283 -0.1001427 -0.6532065
vn 0.9697263 -0.01923514 -0.2434355
vn 0.9659615 -0.01570184 -0.2582088
vn 0.8906481 0.1782721 -0.4182883
vn 0.8834798 0.1501327 -0.4437608
vn 0.9705081 0.03244285 -0.2388756
vn 0.9803213 -0.1815379 -0.07754997
vn 0.9730128 -0.2201868 -0.06902041
vn 0.6439402 0.02822664 -0.7645551
vn 0.673546 0.1830743 -0.7161142
vn 0.4563712 -0.08079229 -0.8861139
vn 0.4744416 -0.1818847 -0.8612916
vn 0.5134601 -0.2978918 -0.8047479
vn 0.5761002 -0.4232412 -0.6992679
vn 0.94243 -0.2983547 0.1510304
vn 0.9730266 -0.220106 -0.06908437
vn 0.9284619 -0.3135778 0.1990665
vn 0.8105051 -0.1357385 -0.5697864
vn 0.5119222 -0.44558 -0.7344345
vn 0.5933021 -0.4278535 -0.6818607
vn -0.4832639 -0.1339497 0.8651667
vn -0.5085102 -0.2413926 0.8265271
vn -0.5116439 0.06032543 0.8570772
vn -0.4443643 0.1380284 0.8851489
vn -0.5983089 0.2349153 0.7660556
vn -0.6268098 0.238695 0.7417102
vn -0.3750298 -0.2836961 0.8825356
vn -0.4696953 -0.3585891 0.8067219
vn -0.4219576 -0.3207889 0.8479659
vn -0.4713747 -0.2880714 0.833559
vn -0.4475612 -0.2201327 0.8667356
vn -0.4002823 -0.1006797 0.9108444
vn -0.4002819 -0.1006799 0.9108447
g paperBall_Explode_Thin_10_0
f 3/3/3 2/2/2 1/1/1
f 2/2/2 4/4/4 1/1/1
f 5/5/5 1/1/1 4/4/4
f 5/5/5 4/4/4 6/6/6
f 6/6/6 7/7/7 5/5/5
f 8/8/8 5/5/5 7/7/7
f 8/8/8 7/7/7 9/9/9
f 12/12/12 11/11/11 10/10/10
f 13/13/13 10/10/10 11/11/11
f 13/13/13 11/11/11 14/14/14
f 13/13/13 15/15/15 10/10/10
f 14/14/14 16/16/16 13/13/13
f 17/17/17 13/13/13 16/16/16
f 17/17/17 16/16/16 18/18/18
f 18/18/18 19/19/19 17/17/17
f 20/20/20 18/18/18 16/16/16
f 18/18/18 20/20/20 21/21/21
f 18/18/18 21/21/21 22/22/22
f 22/22/22 23/23/23 18/18/18
f 18/18/18 23/23/23 24/24/24
f 13/13/13 25/25/25 15/15/15
f 17/17/17 25/25/25 13/13/13
f 26/26/26 15/15/15 25/25/25
f 25/25/25 27/27/27 26/26/26
f 28/28/28 27/27/27 25/25/25
f 25/25/25 17/17/17 28/28/28
f 29/29/29 28/28/28 17/17/17
f 17/17/17 30/30/30 29/29/29
f 31/31/31 18/18/18 24/24/24
f 32/32/32 31/31/31 24/24/24
f 18/18/18 31/31/31 19/19/19
f 33/33/33 19/19/19 31/31/31
f 34/34/34 17/17/17 19/19/19
f 17/17/17 34/34/34 35/35/35
f 17/17/17 35/35/35 30/30/30
f 36/36/36 30/30/30 35/35/35
f 39/39/39 38/38/38 37/37/37
f 37/37/37 40/40/40 39/39/39
f 39/39/39 40/40/40 41/41/41
f 39/39/39 41/41/41 42/42/42
f 45/45/45 44/44/44 43/43/43
f 45/45/45 46/46/46 44/44/44
f 47/47/47 44/44/44 46/46/46
f 46/46/46 48/48/48 47/47/47
f 49/49/49 47/47/47 48/48/48
