g paperBall_Explode_Thin_07_Hull
v 0.2784735 -0.003199211 -0.1651813
v 0.1855477 -0.115206 0.08636257
v 0.3161331 0.1238919 -0.01314712
v 0.183407 0.1198066 0.231009
v 0.2880476 0.1337613 0.14393
v 0.2310878 0.02962771 0.1876852
v 0.2758294 0.1573953 0.1275192
v 0.3161331 0.1238919 -0.01314712
v 0.2880476 0.1337613 0.14393
v 0.2101212 -0.09083576 -0.04293311
v 0.1855477 -0.115206 0.08636257
v 0.2784735 -0.003199211 -0.1651813
v 0.1490487 0.1016931 -0.05375997
v 0.06752233 0.04286993 -0.1343265
v 0.1455652 0.04289145 -0.1626236
v 0.1490487 0.1016931 -0.05375997
v 0.2758294 0.1573953 0.1275192
v 0.06408283 0.1288302 0.2451998
v 0.1490487 0.1016931 -0.05375997
v -0.2539605 -0.02651569 0.08666317
v 0.06752233 0.04286993 -0.1343265
v -0.305952 -0.08942891 0.1266655
v -0.2747273 -0.07115736 0.1873683
v -0.3104972 -0.1352232 0.1625815
v -0.305952 -0.08942891 0.1266655
v -0.2539605 -0.02651569 0.08666317
v -0.2747273 -0.07115736 0.1873683
v -0.305952 -0.08942891 0.1266655
v -0.2739864 -0.08923099 -0.005174832
v -0.2539605 -0.02651569 0.08666317
v 0.08968944 -0.1077017 -0.1297037
v 0.1855477 -0.115206 0.08636257
v 0.2101212 -0.09083576 -0.04293311
v 0.08968944 -0.1077017 -0.1297037
v 0.2101212 -0.09083576 -0.04293311
v 0.08280153 -0.07102816 -0.2452099
v 0.2115964 0.002379868 -0.1926959
v 0.2784735 -0.003199211 -0.1651813
v 0.3161331 0.1238919 -0.01314712
v -0.008985272 0.1014805 0.2395909
v -0.2747273 -0.07115736 0.1873683
v -0.2539605 -0.02651569 0.08666317
v 0.1540004 0.1353032 0.240279
v 0.2880476 0.1337613 0.14393
v 0.183407 0.1198066 0.231009
v 0.1540004 0.1353032 0.240279
v 0.2758294 0.1573953 0.1275192
v 0.2880476 0.1337613 0.14393
v 0.1540004 0.1353032 0.240279
v 0.06408283 0.1288302 0.2451998
v 0.2758294 0.1573953 0.1275192
v -0.3103207 -0.117544 0.105126
v -0.305952 -0.08942891 0.1266655
v -0.3104972 -0.1352232 0.1625815
v -0.3103207 -0.117544 0.105126
v -0.2739864 -0.08923099 -0.005174832
v -0.305952 -0.08942891 0.1266655
v 0.2221677 -0.01737671 -0.2007555
v 0.2115964 0.002379868 -0.1926959
v 0.08280153 -0.07102816 -0.2452099
v 0.2221677 -0.01737671 -0.2007555
v 0.2784735 -0.003199211 -0.1651813
v 0.2115964 0.002379868 -0.1926959
v 0.2967556 0.1365314 -0.004679105
v 0.3161331 0.1238919 -0.01314712
v 0.2758294 0.1573953 0.1275192
v 0.2967556 0.1365314 -0.004679105
v 0.2758294 0.1573953 0.1275192
v 0.1490487 0.1016931 -0.05375997
v 0.2967556 0.1365314 -0.004679105
v 0.1490487 0.1016931 -0.05375997
v 0.1455652 0.04289145 -0.1626236
v 0.07754372 -0.00168318 -0.2067778
v 0.2115964 0.002379868 -0.1926959
v 0.1455652 0.04289145 -0.1626236
v 0.07754372 -0.00168318 -0.2067778
v 0.08280153 -0.07102816 -0.2452099
v 0.2115964 0.002379868 -0.1926959
v 0.07754372 -0.00168318 -0.2067778
v 0.06752233 0.04286993 -0.1343265
v -0.03456885 -0.04864885 -0.2268294
v 0.07754372 -0.00168318 -0.2067778
v 0.1455652 0.04289145 -0.1626236
v 0.06752233 0.04286993 -0.1343265
v 0.07754372 -0.00168318 -0.2067778
v -0.03456885 -0.04864885 -0.2268294
v 0.08280153 -0.07102816 -0.2452099
v -0.2572568 -0.07082636 -0.01622953
v -0.2539605 -0.02651569 0.08666317
v -0.2739864 -0.08923099 -0.005174832
v -0.1583579 -0.06616112 -0.1272807
v -0.2572568 -0.07082636 -0.01622953
v -0.2739864 -0.08923099 -0.005174832
v -0.1583579 -0.06616112 -0.1272807
v -0.2739864 -0.08923099 -0.005174832
v 0.08280153 -0.07102816 -0.2452099
v -0.1583579 -0.06616112 -0.1272807
v 0.08280153 -0.07102816 -0.2452099
v -0.03456885 -0.04864885 -0.2268294
v 0.01723124 -0.140312 0.1321721
v 0.1890406 -0.08216587 0.1426801
v 0.1855477 -0.115206 0.08636257
v 0.2880476 0.1337613 0.14393
v 0.3161331 0.1238919 -0.01314712
v 0.2310878 0.02962771 0.1876852
v 0.1855477 -0.115206 0.08636257
v 0.1890406 -0.08216587 0.1426801
v -0.3104972 -0.1352232 0.1625815
v -0.2747273 -0.07115736 0.1873683
v -0.102213 -0.1555307 0.1358294
v 0.06408283 0.1288302 0.2451998
v -0.008985272 0.1014805 0.2395909
v 0.2310878 0.02962771 0.1876852
v 0.183407 0.1198066 0.231009
v 0.1540004 0.1353032 0.240279
v 0.1890406 -0.08216587 0.1426801
v 0.01723124 -0.140312 0.1321721
v 0.2101212 -0.09083576 -0.04293311
v 0.2784735 -0.003199211 -0.1651813
v 0.08280153 -0.07102816 -0.2452099
v 0.2221677 -0.01737671 -0.2007555
v 0.08968944 -0.1077017 -0.1297037
v -0.102213 -0.1555307 0.1358294
v 0.1855477 -0.115206 0.08636257
v 0.01723124 -0.140312 0.1321721
v 0.08968944 -0.1077017 -0.1297037
v -0.3104972 -0.1352232 0.1625815
v -0.102213 -0.1555307 0.1358294
v 0.08280153 -0.07102816 -0.2452099
v -0.2739864 -0.08923099 -0.005174832
v -0.3103207 -0.117544 0.105126
v -0.008985272 0.1014805 0.2395909
v 0.1490487 0.1016931 -0.05375997
v 0.06408283 0.1288302 0.2451998
v -0.2539605 -0.02651569 0.08666317
v 0.2967556 0.1365314 -0.004679105
v 0.2115964 0.002379868 -0.1926959
v 0.3161331 0.1238919 -0.01314712
v 0.1455652 0.04289145 -0.1626236
v -0.1583579 -0.06616112 -0.1272807
v -0.2539605 -0.02651569 0.08666317
v -0.2572568 -0.07082636 -0.01622953
v 0.06752233 0.04286993 -0.1343265
v -0.03456885 -0.04864885 -0.2268294
vn 0.8922825 -0.4297882 0.1382536
vn 0.8922825 -0.4297882 0.1382536
vn 0.8922825 -0.4297882 0.1382536
vn 0.641667 -0.02894079 0.7664372
vn 0.6416669 -0.02894078 0.7664372
vn 0.641667 -0.02894079 0.7664372
vn 0.8460447 0.5197486 0.1186165
vn 0.8460447 0.5197486 0.1186165
vn 0.8460447 0.5197486 0.1186165
vn 0.8188778 -0.5719721 0.04782496
vn 0.8188778 -0.5719721 0.04782495
vn 0.8188778 -0.5719722 0.04782495
vn -0.1685739 0.8695077 -0.464262
vn -0.1685739 0.8695077 -0.464262
vn -0.1685738 0.8695077 -0.464262
vn -0.212601 0.9658514 -0.1480943
vn -0.212601 0.9658514 -0.1480943
vn -0.212601 0.9658514 -0.1480943
vn -0.3755672 0.8872699 -0.2677711
vn -0.3755672 0.88727 -0.2677711
vn -0.3755672 0.8872699 -0.2677711
vn -0.8707078 0.3540969 0.3412967
vn -0.8707078 0.3540969 0.3412967
vn -0.8707077 0.3540968 0.3412967
vn -0.7094043 0.6868235 0.1581737
vn -0.7094042 0.6868237 0.1581737
vn -0.7094042 0.6868237 0.1581737
vn -0.8135019 0.5473891 -0.1964173
vn -0.8135018 0.5473893 -0.1964173
vn -0.8135018 0.5473893 -0.1964173
vn 0.2335588 -0.9626353 -0.1370529
vn 0.2335588 -0.9626353 -0.1370528
vn 0.2335588 -0.9626353 -0.1370528
vn 0.3427056 -0.8893079 -0.3027942
vn 0.3427056 -0.8893079 -0.3027942
vn 0.3427056 -0.8893079 -0.3027942
vn 0.3255679 0.6841991 -0.6525927
vn 0.3255678 0.684199 -0.6525927
vn 0.3255679 0.6841991 -0.6525927
vn -0.5615793 0.793119 0.2357769
vn -0.5615795 0.793119 0.235777
vn -0.5615793 0.793119 0.235777
vn 0.4972069 0.5348256 0.6831889
vn 0.4972068 0.5348256 0.6831889
vn 0.4972068 0.5348256 0.6831889
vn 0.4462246 0.6544951 0.6103441
vn 0.4462246 0.6544951 0.6103441
vn 0.4462246 0.6544951 0.610344
vn -0.06447461 0.9901439 0.1243311
vn -0.06447461 0.9901439 0.1243311
vn -0.06447461 0.9901439 0.1243311
vn -0.991312 0.12654 0.03589051
vn -0.991312 0.12654 0.0358905
vn -0.991312 0.12654 0.03589051
vn -0.9226708 0.3143952 -0.2232359
vn -0.9226708 0.3143952 -0.2232359
vn -0.9226708 0.3143952 -0.2232358
vn 0.1201814 0.4294424 -0.8950617
vn 0.1201814 0.4294425 -0.8950619
vn 0.1201814 0.4294424 -0.8950619
vn 0.3630286 0.5118699 -0.7785881
vn 0.3630286 0.5118698 -0.7785881
vn 0.3630286 0.5118699 -0.7785881
vn 0.530356 0.8463219 -0.04961674
vn 0.530356 0.8463218 -0.04961674
vn 0.530356 0.8463219 -0.04961674
vn -0.168873 0.9691216 -0.1796811
vn -0.168873 0.9691216 -0.1796811
vn -0.168873 0.9691216 -0.1796811
vn -0.05011495 0.8794179 -0.4734055
vn -0.05011495 0.8794179 -0.4734055
vn -0.05011495 0.8794179 -0.4734055
vn 0.05922681 0.6554396 -0.7529217
vn 0.05922681 0.6554397 -0.7529216
vn 0.05922681 0.6554397 -0.7529216
vn 0.07656737 0.4877591 -0.869614
vn 0.07656737 0.4877591 -0.869614
vn 0.07656736 0.4877591 -0.869614
vn -0.2443623 0.8105579 -0.5322433
vn -0.2443623 0.8105579 -0.5322433
vn -0.2443622 0.810558 -0.5322433
vn -0.1935582 0.8235468 -0.5332034
vn -0.1935582 0.8235468 -0.5332034
vn -0.1935582 0.8235468 -0.5332034
vn -0.04522718 0.4816255 -0.8752094
vn -0.04522718 0.4816254 -0.8752094
vn -0.04522718 0.4816254 -0.8752094
vn -0.7843663 0.5784482 -0.2239805
vn -0.7843663 0.5784482 -0.2239805
vn -0.7843663 0.5784482 -0.2239805
vn -0.7232097 0.2775355 -0.6324095
vn -0.7232096 0.2775355 -0.6324096
vn -0.7232097 0.2775355 -0.6324096
vn -0.1918636 -0.9151276 -0.3545839
vn -0.1918637 -0.9151276 -0.354584
vn -0.1918637 -0.9151276 -0.354584
vn -0.234409 -0.8649982 -0.443656
vn -0.234409 -0.8649982 -0.443656
vn -0.234409 -0.8649981 -0.443656
vn 0.2553421 -0.8407581 0.477416
vn 0.2553421 -0.8407582 0.4774161
vn 0.2553421 -0.8407581 0.4774161
vn 0.8928295 -0.4104535 0.1854279
vn 0.8928294 -0.4104536 0.1854278
vn 0.8928294 -0.4104536 0.1854278
vn 0.8928294 -0.4104536 0.1854278
vn 0.892829 -0.410454 0.1854287
vn 0.07865122 -0.3976058 0.9141792
vn 0.07865136 -0.3976057 0.9141793
vn 0.07865135 -0.3976057 0.9141793
vn 0.07865135 -0.3976057 0.9141793
vn 0.07865147 -0.397606 0.9141791
vn 0.07865148 -0.3976057 0.9141792
vn 0.07865139 -0.3976058 0.9141792
vn 0.07865129 -0.3976066 0.9141788
vn 0.07865134 -0.3976055 0.9141793
vn 0.07865164 -0.3976066 0.9141789
vn 0.4321057 -0.8297649 -0.3532349
vn 0.4321057 -0.8297649 -0.3532349
vn 0.4321057 -0.8297649 -0.3532349
vn 0.4321059 -0.8297644 -0.3532357
vn 0.1232072 -0.988383 -0.08898937
vn 0.1232072 -0.988383 -0.08898937
vn 0.1232072 -0.988383 -0.08898936
vn 0.1232073 -0.988383 -0.08898868
vn -0.1271376 -0.95608 -0.2640965
vn -0.1477432 -0.94516 -0.2912808
vn -0.1271376 -0.95608 -0.2640965
vn -0.1477433 -0.94516 -0.2912808
vn -0.1477432 -0.94516 -0.2912808
vn -0.1477444 -0.9451598 -0.291281
vn -0.3328555 0.9259014 -0.1786449
vn -0.3328555 0.9259014 -0.1786449
vn -0.3328555 0.9259014 -0.1786449
vn -0.3576421 0.9139068 -0.1920066
vn 0.212426 0.7474039 -0.6294941
vn 0.212426 0.7474039 -0.629494
vn 0.212426 0.7474039 -0.629494
vn 0.1817385 0.7596965 -0.6243655
vn -0.4170688 0.8419183 -0.3423845
vn -0.4170687 0.8419183 -0.3423845
vn -0.4278083 0.8350595 -0.3459126
vn -0.4170687 0.8419184 -0.3423845
vn -0.4135268 0.832945 -0.3676931
g paperBall_Explode_Thin_07_Hull_0
f 3/3/3 2/2/2 1/1/1
f 6/6/6 5/5/5 4/4/4
f 9/9/9 8/8/8 7/7/7
f 12/12/12 11/11/11 10/10/10
f 15/15/15 14/14/14 13/13/13
f 18/18/18 17/17/17 16/16/16
f 21/21/21 20/20/20 19/19/19
f 24/24/24 23/23/23 22/22/22
f 27/27/27 26/26/26 25/25/25
f 30/30/30 29/29/29 28/28/28
f 33/33/33 32/32/32 31/31/31
f 36/36/36 35/35/35 34/34/34
f 39/39/39 38/38/38 37/37/37
f 42/42/42 41/41/41 40/40/40
f 45/45/45 44/44/44 43/43/43
f 48/48/48 47/47/47 46/46/46
f 51/51/51 50/50/50 49/49/49
f 54/54/54 53/53/53 52/52/52
f 57/57/57 56/56/56 55/55/55
f 60/60/60 59/59/59 58/58/58
f 63/63/63 62/62/62 61/61/61
f 66/66/66 65/65/65 64/64/64
f 69/69/69 68/68/68 67/67/67
f 72/72/72 71/71/71 70/70/70
f 75/75/75 74/74/74 73/73/73
f 78/78/78 77/77/77 76/76/76
f 81/81/81 80/80/80 79/79/79
f 84/84/84 83/83/83 82/82/82
f 87/87/87 86/86/86 85/85/85
f 90/90/90 89/89/89 88/88/88
f 93/93/93 92/92/92 91/91/91
f 96/96/96 95/95/95 94/94/94
f 99/99/99 98/98/98 97/97/97
f 102/102/102 101/101/101 100/100/100
f 105/105/105 104/104/104 103/103/103
f 106/106/106 104/104/104 105/105/105
f 106/106/106 105/105/105 107/107/107
f 110/110/110 109/109/109 108/108/108
f 110/110/110 111/111/111 109/109/109
f 109/109/109 111/111/111 112/112/112
f 111/111/111 110/110/110 113/113/113
f 111/111/111 113/113/113 114/114/114
f 111/111/111 114/114/114 115/115/115
f 113/113/113 110/110/110 116/116/116
f 116/116/116 110/110/110 117/117/117
f 120/120/120 119/119/119 118/118/118
f 119/119/119 120/120/120 121/121/121
f 124/124/124 123/123/123 122/122/122
f 123/123/123 124/124/124 125/125/125
f 128/128/128 127/127/127 126/126/126
f 127/127/127 129/129/129 126/126/126
f 130/130/130 129/129/129 127/127/127
f 130/130/130 127/127/127 131/131/131
f 134/134/134 133/133/133 132/132/132
f 133/133/133 135/135/135 132/132/132
f 138/138/138 137/137/137 136/136/136
f 137/137/137 139/139/139 136/136/136
f 142/142/142 141/141/141 140/140/140
f 141/141/141 143/143/143 140/140/140
f 143/143/143 144/144/144 140/140/140
