g paperBall_Explode_Thin_10_Hull
v 0.004455044 -0.1039429 -0.1133846
v -0.05162592 -0.1310049 -0.1391489
v 0.04104143 -0.1957352 -0.03947406
v -0.02969424 -0.05334951 -0.1446348
v 0.004455044 -0.1039429 -0.1133846
v -0.03267723 0.124484 -0.08789154
v -0.07155235 -0.05433077 -0.1661033
v -0.02969424 -0.05334951 -0.1446348
v -0.08427737 0.02831535 -0.1750957
v 0.04376873 -0.185023 -0.008221924
v -0.01114321 -0.2039886 -0.06418159
v 0.04407481 -0.1558773 0.03626217
v -0.02932299 -0.1743325 -0.09860878
v -0.01114321 -0.2039886 -0.06418159
v 0.04104143 -0.1957352 -0.03947406
v -0.02932299 -0.1743325 -0.09860878
v 0.04104143 -0.1957352 -0.03947406
v -0.05162592 -0.1310049 -0.1391489
v 0.08427679 -0.005953413 0.1247107
v 0.04564378 -0.1915717 -0.02728302
v 0.07699294 -0.0537394 0.1744853
v -0.08110371 0.07036164 -0.1575596
v -0.03267723 0.124484 -0.08789154
v -0.07020947 0.1562707 -0.1116232
v -0.06381498 -0.08695609 -0.1563332
v -0.02969424 -0.05334951 -0.1446348
v -0.07155235 -0.05433077 -0.1661033
v -0.04059108 0.1913242 -0.05811096
v -0.03267723 0.124484 -0.08789154
v -0.02041995 0.1729989 -0.04238245
v 0.07604908 -0.05698432 0.1715299
v 0.04564378 -0.1915717 -0.02728302
v 0.04376873 -0.185023 -0.008221924
v 0.07604908 -0.05698432 0.1715299
v 0.07699294 -0.0537394 0.1744853
v 0.04564378 -0.1915717 -0.02728302
v 0.07604908 -0.05698432 0.1715299
v 0.04376873 -0.185023 -0.008221924
v 0.04407481 -0.1558773 0.03626217
v 0.07604908 -0.05698432 0.1715299
v 0.04407481 -0.1558773 0.03626217
v -0.01114321 -0.2039886 -0.06418159
v -0.07020947 0.1562707 -0.1116232
v -0.03267723 0.124484 -0.08789154
v -0.05656471 0.2040059 -0.06870086
v -0.04059108 0.1913242 -0.05811096
v -0.02969424 -0.05334951 -0.1446348
v -0.03267723 0.124484 -0.08789154
v -0.08427737 0.02831535 -0.1750957
v -0.08110371 0.07036164 -0.1575596
v -0.02969424 -0.05334951 -0.1446348
v -0.05162592 -0.1310049 -0.1391489
v 0.004455044 -0.1039429 -0.1133846
v -0.06381498 -0.08695609 -0.1563332
v 0.04376873 -0.185023 -0.008221924
v 0.04104143 -0.1957352 -0.03947406
v -0.01114321 -0.2039886 -0.06418159
v 0.04564378 -0.1915717 -0.02728302
v 0.04564378 -0.1915717 -0.02728302
v 0.004455044 -0.1039429 -0.1133846
v 0.04104143 -0.1957352 -0.03947406
v 0.08051693 -0.01240556 0.0922858
v -0.02932299 -0.1743325 -0.09860878
v -0.05162592 -0.1310049 -0.1391489
v -0.01114321 -0.2039886 -0.06418159
v 0.07604908 -0.05698432 0.1715299
v -0.06381498 -0.08695609 -0.1563332
v -0.07155235 -0.05433077 -0.1661033
v -0.08427737 0.02831535 -0.1750957
v 0.07699294 -0.0537394 0.1744853
v -0.05656471 0.2040059 -0.06870086
v -0.07020947 0.1562707 -0.1116232
v -0.08110371 0.07036164 -0.1575596
v 0.08427679 -0.005953413 0.1247107
v 0.07699294 -0.0537394 0.1744853
v 0.08423802 0.008275489 0.1102126
v -0.005721886 0.1514064 -0.02252297
v 0.07524414 0.02502764 0.09445259
v -0.05656471 0.2040059 -0.06870086
v -0.02041995 0.1729989 -0.04238245
v -0.04059108 0.1913242 -0.05811096
v 0.08051693 -0.01240556 0.0922858
v 0.08427679 -0.005953413 0.1247107
v 0.08423802 0.008275489 0.1102126
v 0.04564378 -0.1915717 -0.02728302
v 0.07524414 0.02502764 0.09445259
v 0.08051693 -0.01240556 0.0922858
v 0.08423802 0.008275489 0.1102126
v 0.004455044 -0.1039429 -0.1133846
v 0.01013741 0.006005709 -0.05557277
v -0.005721886 0.1514064 -0.02252297
v -0.02041995 0.1729989 -0.04238245
v -0.03267723 0.124484 -0.08789154
v 0.004455044 -0.1039429 -0.1133846
vn 0.5333526 -0.3912781 -0.7499576
vn 0.5333526 -0.3912781 -0.7499576
vn 0.5333526 -0.3912781 -0.7499576
vn 0.8027608 0.1934436 -0.564052
vn 0.8027608 0.1934436 -0.564052
vn 0.8027608 0.1934436 -0.5640519
vn 0.4566951 -0.02643664 -0.8892304
vn 0.456695 -0.02643664 -0.8892304
vn 0.456695 -0.02643664 -0.8892304
vn -0.2617697 -0.8064589 0.5301893
vn -0.2617697 -0.8064589 0.5301893
vn -0.2617697 -0.8064589 0.5301893
vn 0.4247492 -0.5628101 -0.7091072
vn 0.4247491 -0.5628101 -0.7091072
vn 0.4247491 -0.5628101 -0.7091072
vn 0.4925461 -0.445807 -0.7474319
vn 0.4925462 -0.445807 -0.7474319
vn 0.4925461 -0.445807 -0.7474319
vn 0.9831314 -0.1805166 -0.02943636
vn 0.9831314 -0.1805166 -0.02943636
vn 0.9831314 -0.1805166 -0.02943636
vn 0.6716315 0.2813185 -0.6853985
vn 0.6716315 0.2813186 -0.6853985
vn 0.6716315 0.2813185 -0.6853985
vn 0.453713 -0.1551866 -0.8775316
vn 0.453713 -0.1551865 -0.8775316
vn 0.4537129 -0.1551866 -0.8775316
vn 0.750838 0.3409403 -0.5656872
vn 0.750838 0.3409403 -0.5656872
vn 0.750838 0.3409403 -0.5656871
vn 0.7678965 -0.5788254 0.2744011
vn 0.7678965 -0.5788254 0.2744011
vn 0.7678965 -0.5788254 0.2744011
vn 0.9247251 -0.365564 0.1060491
vn 0.9247251 -0.365564 0.1060491
vn 0.9247251 -0.365564 0.1060491
vn 0.2668623 -0.8069587 0.5268795
vn 0.2668623 -0.8069587 0.5268795
vn 0.2668623 -0.8069587 0.5268796
vn -0.5092279 -0.6329686 0.5831275
vn -0.5092279 -0.6329686 0.5831275
vn -0.5092279 -0.6329686 0.5831275
vn 0.6967674 0.3591432 -0.6209118
vn 0.6967674 0.3591431 -0.6209118
vn 0.6967674 0.3591431 -0.6209118
vn 0.6967685 0.3591432 -0.6209105
vn 0.7094039 0.2250187 -0.6679166
vn 0.7094039 0.2250187 -0.6679166
vn 0.7094039 0.2250187 -0.6679166
vn 0.7094028 0.22502 -0.6679174
vn 0.4863316 -0.1974805 -0.8511656
vn 0.4863316 -0.1974805 -0.8511657
vn 0.4863316 -0.1974805 -0.8511657
vn 0.4863299 -0.1974801 -0.8511667
vn -0.00407395 -0.9458557 0.324562
vn -0.00407395 -0.9458556 0.324562
vn -0.00407395 -0.9458557 0.324562
vn -0.004065251 -0.9458559 0.3245613
vn 0.9253705 0.0686615 -0.3727936
vn 0.9253705 0.06866152 -0.3727936
vn 0.9253705 0.06866151 -0.3727936
vn 0.9253725 0.06866859 -0.3727874
vn -0.9122144 -0.09713975 0.3980309
vn -0.9122144 -0.09713975 0.3980309
vn -0.9122144 -0.09713975 0.3980309
vn -0.9122161 -0.09714591 0.3980256
vn -0.9122161 -0.09714592 0.3980256
vn -0.9122161 -0.09714592 0.3980256
vn -0.9122162 -0.09714734 0.398025
vn -0.9122162 -0.09714734 0.398025
vn -0.9122162 -0.09714734 0.398025
vn -0.9122121 -0.09715302 0.3980334
vn -0.9122149 -0.09714972 0.3980274
vn 0.1019219 0.7101203 0.6966643
vn 0.101914 0.7101215 0.6966643
vn 0.1019139 0.7101215 0.6966642
vn 0.1019139 0.7101215 0.6966642
vn 0.1019138 0.7101214 0.6966643
vn 0.1019124 0.710121 0.6966649
vn 0.101915 0.7101222 0.6966633
vn 0.1019229 0.7101264 0.6966579
vn 0.9908319 -0.09508678 -0.09597155
vn 0.9908319 -0.09508677 -0.09597155
vn 0.9908319 -0.09508678 -0.09597155
vn 0.9871459 -0.1334747 -0.08790542
vn 0.9035685 0.1504953 -0.4011423
vn 0.9035685 0.1504953 -0.4011423
vn 0.9189845 0.1505413 -0.3644238
vn 0.9035685 0.1504953 -0.4011423
vn 0.8914554 0.1906639 -0.4110408
vn 0.8914554 0.1906639 -0.4110408
vn 0.8747374 0.195102 -0.4435873
vn 0.8747374 0.195102 -0.4435873
vn 0.871694 0.1920171 -0.4508646
g paperBall_Explode_Thin_10_Hull_0
f 3/3/3 2/2/2 1/1/1
f 6/6/6 5/5/5 4/4/4
f 9/9/9 8/8/8 7/7/7
f 12/12/12 11/11/11 10/10/10
f 15/15/15 14/14/14 13/13/13
f 18/18/18 17/17/17 16/16/16
f 21/21/21 20/20/20 19/19/19
f 24/24/24 23/23/23 22/22/22
f 27/27/27 26/26/26 25/25/25
f 30/30/30 29/29/29 28/28/28
f 33/33/33 32/32/32 31/31/31
f 36/36/36 35/35/35 34/34/34
f 39/39/39 38/38/38 37/37/37
f 42/42/42 41/41/41 40/40/40
f 45/45/45 44/44/44 43/43/43
f 44/44/44 45/45/45 46/46/46
f 49/49/49 48/48/48 47/47/47
f 48/48/48 49/49/49 50/50/50
f 53/53/53 52/52/52 51/51/51
f 51/51/51 52/52/52 54/54/54
f 57/57/57 56/56/56 55/55/55
f 55/55/55 56/56/56 58/58/58
f 61/61/61 60/60/60 59/59/59
f 59/59/59 60/60/60 62/62/62
f 65/65/65 64/64/64 63/63/63
f 64/64/64 65/65/65 66/66/66
f 67/67/67 64/64/64 66/66/66
f 68/68/68 67/67/67 66/66/66
f 69/69/69 68/68/68 66/66/66
f 70/70/70 69/69/69 66/66/66
f 69/69/69 70/70/70 71/71/71
f 69/69/69 71/71/71 72/72/72
f 69/69/69 72/72/72 73/73/73
f 76/76/76 75/75/75 74/74/74
f 77/77/77 75/75/75 76/76/76
f 77/77/77 76/76/76 78/78/78
f 75/75/75 77/77/77 79/79/79
f 79/79/79 77/77/77 80/80/80
f 79/79/79 80/80/80 81/81/81
f 84/84/84 83/83/83 82/82/82
f 83/83/83 85/85/85 82/82/82
f 88/88/88 87/87/87 86/86/86
f 87/87/87 89/89/89 86/86/86
f 86/86/86 89/89/89 90/90/90
f 91/91/91 86/86/86 90/90/90
f 92/92/92 91/91/91 90/90/90
f 93/93/93 92/92/92 90/90/90
f 94/94/94 93/93/93 90/90/90
