g paperBall_Explode_Thin_13_Hull
v 0.01581043 -0.009367528 0.05760247
v 0.04171678 0.03577933 0.06091836
v 0.03098964 0.008853124 -0.02584185
v 0.01147998 -0.01554275 -0.05354744
v 0.01581043 -0.009367528 0.05760247
v 0.03098964 0.008853124 -0.02584185
v 0.02477077 0.03072214 0.01007117
v 0.03098964 0.008853124 -0.02584185
v 0.04171678 0.03577933 0.06091836
v 0.02421163 0.02522916 0.05376952
v -0.04174005 -0.0357815 -0.05922795
v 0.01038797 0.02144408 0.002787789
v 0.02421163 0.02522916 0.05376952
v 0.01581043 -0.009367528 0.05760247
v -0.04174005 -0.0357815 -0.05922795
v 0.02421163 0.02522916 0.05376952
v 0.04171678 0.03577933 0.06091836
v 0.01581043 -0.009367528 0.05760247
v 0.002213786 -0.02122908 -0.03498285
v 0.01147998 -0.01554275 -0.05354744
v -0.02306116 -0.03111124 -0.0609065
v 0.002213786 -0.02122908 -0.03498285
v 0.01581043 -0.009367528 0.05760247
v 0.01147998 -0.01554275 -0.05354744
v -0.04174005 -0.0357815 -0.05922795
v 0.01581043 -0.009367528 0.05760247
v -0.02306116 -0.03111124 -0.0609065
v 0.002213786 -0.02122908 -0.03498285
v -0.04174005 -0.0357815 -0.05922795
v -0.02306116 -0.03111124 -0.0609065
v 0.01038797 0.02144408 0.002787789
v 0.03098964 0.008853124 -0.02584185
v 0.02477077 0.03072214 0.01007117
v 0.01147998 -0.01554275 -0.05354744
v 0.02421163 0.02522916 0.05376952
v 0.02477077 0.03072214 0.01007117
v 0.04171678 0.03577933 0.06091836
v 0.01038797 0.02144408 0.002787789
vn 0.8648075 -0.4997863 0.04818374
vn 0.8648075 -0.4997863 0.04818374
vn 0.8648075 -0.4997863 0.04818374
vn 0.778447 -0.6276939 0.004544511
vn 0.778447 -0.6276939 0.004544511
vn 0.778447 -0.627694 0.004544512
vn 0.6780924 0.6740363 -0.2930288
vn 0.6780924 0.6740363 -0.2930288
vn 0.6780924 0.6740363 -0.2930288
vn -0.8166822 0.5480497 0.1807535
vn -0.8166822 0.5480497 0.1807535
vn -0.8166822 0.5480497 0.1807535
vn -0.8885779 0.2578117 0.3794239
vn -0.8885779 0.2578117 0.3794239
vn -0.8885779 0.2578117 0.3794239
vn -0.4754966 0.2101088 0.8542584
vn -0.4754965 0.2101088 0.8542584
vn -0.4754966 0.2101088 0.8542584
vn 0.4217408 -0.9042764 -0.06647462
vn 0.4217408 -0.9042764 -0.06647462
vn 0.4217408 -0.9042764 -0.06647462
vn 0.55787 -0.8295708 0.02435411
vn 0.55787 -0.8295708 0.02435411
vn 0.55787 -0.8295708 0.02435411
vn 0.2494901 -0.9637078 0.09498445
vn 0.2494901 -0.9637078 0.09498443
vn 0.2494901 -0.9637078 0.09498443
vn 0.2913508 -0.9533198 0.07934794
vn -0.2498783 0.8071862 -0.5348001
vn -0.2498779 0.8071862 -0.5348004
vn -0.2498779 0.8071862 -0.5348004
vn -0.2498779 0.8071862 -0.5348004
vn -0.2498791 0.8071854 -0.534801
vn -0.2498767 0.8071857 -0.5348017
vn -0.542736 0.8341767 0.09791344
vn -0.5427361 0.8341767 0.09791344
vn -0.5427361 0.8341767 0.09791345
vn -0.5731471 0.8139296 0.0949792
g paperBall_Explode_Thin_13_Hull_0
f 3/3/3 2/2/2 1/1/1
f 6/6/6 5/5/5 4/4/4
f 9/9/9 8/8/8 7/7/7
f 12/12/12 11/11/11 10/10/10
f 15/15/15 14/14/14 13/13/13
f 18/18/18 17/17/17 16/16/16
f 21/21/21 20/20/20 19/19/19
f 24/24/24 23/23/23 22/22/22
f 27/27/27 26/26/26 25/25/25
f 26/26/26 27/27/27 28/28/28
f 31/31/31 30/30/30 29/29/29
f 32/32/32 30/30/30 31/31/31
f 32/32/32 31/31/31 33/33/33
f 30/30/30 32/32/32 34/34/34
f 37/37/37 36/36/36 35/35/35
f 36/36/36 38/38/38 35/35/35
