g paperBall_Explode_Thin_00
v -0.0006066894 0.05426472 -0.04959131
v 0.009566345 0.05114712 -0.05402853
v -0.009339675 0.03693563 -0.05465342
v -0.09549285 -0.1341148 -0.05555323
v -0.09472328 -0.1190853 -0.06908299
v -0.0428862 -0.1142187 -0.06573479
v -0.1310042 -0.1012147 -0.01529102
v -0.1297556 -0.1039402 -0.01544534
v -0.1181868 -0.1072315 -0.01739391
v -0.1015891 -0.1046349 -0.06587142
v -0.1166308 -0.09113926 -0.0370624
v -0.0428862 -0.1142187 -0.06573479
v 0.06235672 0.02564527 -0.02725863
v 0.009566345 0.05114712 -0.05402853
v 0.07042664 0.04201134 -0.03094618
v -0.009339675 0.03693563 -0.05465342
v -0.04885589 -0.05770191 -0.1134969
v -0.04840637 -0.05140549 -0.1105636
v 0.06235672 0.02564527 -0.02725863
v 0.07042664 0.04201134 -0.03094618
v 0.07440445 0.04289995 -0.02168868
v 0.03678879 0.06164354 0.08738621
v 0.04656715 0.06849426 0.07944815
v 0.04145737 0.07189226 0.09123196
v 0.02772018 0.07678752 0.1007985
v -0.02026276 0.08432747 0.1200546
v -0.009988556 0.08894249 0.1203692
v -0.07060791 0.0631969 0.1160535
v -0.09921036 -0.05887138 0.02596735
v -0.1428877 0.03609119 0.1049534
v -0.1436853 0.0358703 0.1047013
v -0.0709407 -0.07012031 -0.07698919
v -0.04885589 -0.05770191 -0.1134969
v -0.05848488 -0.06355415 -0.1032615
v -0.1181868 -0.1072315 -0.01739391
v -0.1310042 -0.1012147 -0.01529102
v -0.1368165 -0.093923 -0.01023427
v -0.1620193 0.03216206 0.09663595
v -0.004677277 -0.01259338 -0.01316322
v 0.155089 -0.02096199 -0.052369
v 0.1830093 0.007648373 -0.006422138
v 0.1402815 -0.03538422 -0.077247
v 0.006235351 -0.07804191 -0.1375523
v 0.1373883 -0.03686909 -0.08301354
v 0.01794159 -0.08381084 -0.2074224
v -0.07249985 -0.02895202 -0.06394394
v -0.09285346 -0.02424038 -0.03263466
v -0.03393097 -0.07605438 -0.1448924
v -0.02354721 -0.08464443 -0.1643689
v 0.01131004 -0.08532364 -0.2138036
v -0.1322389 -0.1036438 -0.01101831
v -0.1676539 -0.08331268 0.03916835
v -0.1786654 -0.07557792 0.05904398
v -0.1433589 -0.07645283 0.06762424
v -0.1814274 -0.06789886 0.06727952
v -0.1883096 -0.0580479 0.08254253
v -0.1181868 -0.1072315 -0.01739391
v -0.1297556 -0.1039402 -0.01544534
v -0.1473312 0.0003892136 0.1606859
v -0.2073023 -0.01227556 0.1351908
v -0.07680222 -0.067052 0.06925686
v 0.03068314 -0.05190536 -0.01359449
v 0.000681839 0.006200237 0.1240684
v -0.1334352 0.004860592 0.164046
v -0.09975937 0.01822004 0.1680066
v -0.01269699 0.06088194 0.1647808
v 0.02651375 0.08302799 0.1584677
v 0.03169647 0.08659523 0.1565724
v 0.05546982 0.07575873 0.1276828
v 0.06184006 0.02391447 0.08360157
v 0.08045258 0.06517897 0.1015378
v 0.0879982 0.05570843 0.06091307
v 0.0917601 0.04407188 0.004594135
v 0.1057356 0.02033665 -0.08248062
v 0.1074646 0.02454834 -0.07898089
v 0.1035409 0.01930714 -0.08484678
v -0.03250366 -0.08982693 -0.04821317
v -0.02960785 -0.075354 -0.09100431
v -0.0709407 -0.07012031 -0.07698919
v 0.1015588 0.01847584 -0.08693651
v -0.05848488 -0.06355415 -0.1032615
v 0.04531258 0.01603062 -0.136063
v -0.05022354 -0.06172405 -0.1138503
v 0.02028801 0.01551815 -0.157643
v 0.01516899 0.01689856 -0.1613431
v -0.003229675 0.04666181 -0.09229299
v -0.0006066894 0.05426472 -0.04959131
v -0.009339675 0.03693563 -0.05465342
v -0.01926392 0.01409412 -0.1144783
v -0.04840637 -0.05140549 -0.1105636
v -0.01532852 0.02169868 -0.1157094
v 0.001564865 0.03399921 -0.1325151
v 0.004447479 0.03711887 -0.1331426
v 0.009946441 0.03372238 -0.1444663
v 0.03567528 0.06588317 0.1939873
v 0.07340523 0.07785492 0.1594598
v 0.05965088 0.08502113 0.1808506
v 0.06711715 0.008536377 0.113811
v -0.06695496 -0.01498924 0.165451
v -0.04301346 0.02710796 0.1972617
v -0.09120788 0.005208225 0.1962027
v -0.1601393 -0.01849907 0.1820653
v -0.1634618 -0.01935616 0.1809105
v 0.01434845 -0.08621345 -0.02637241
v -0.1637634 -0.01953682 0.1809762
v -0.03634476 -0.09297744 0.007609176
v -0.1039298 -0.1353847 -0.03868209
v -0.09549285 -0.1341148 -0.05555323
v -0.0428862 -0.1142187 -0.06573479
v -0.1119028 -0.1334915 -0.02522546
v -0.1392593 -0.08458767 -0.001509705
v -0.1392939 -0.09307072 -0.006265297
v -0.2092226 -0.0332164 0.1260333
v -0.1694853 -0.02009556 0.1774668
v -0.2219002 -0.0266008 0.1476196
v 0.1335512 0.0333255 -0.002885532
v 0.04207581 -0.01299522 -0.06689758
v 0.1098358 0.0377264 -0.007494068
v 0.1220212 0.0005587005 -0.03062435
v 0.1777827 0.01687298 -0.02272617
v 0.1790382 0.0198669 -0.02021557
v 0.1118068 -0.01309288 -0.09338517
v -0.01405746 -0.05053345 -0.1584047
v 0.01255867 -0.0522488 -0.1968296
v -0.0197361 -0.04589836 -0.1477889
v -0.03123779 -0.02049042 -0.1172149
v 0.08587204 0.03800583 -0.03388676
v 0.1098358 0.0377264 -0.007494068
v 0.04207581 -0.01299522 -0.06689758
v 0.06500366 0.03707027 -0.06301912
v 0.002054367 0.03956169 -0.1231831
v -0.03123779 -0.02049042 -0.1172149
v -0.001033478 0.03979034 -0.1255793
v -0.09472328 -0.1190853 -0.06908299
v -0.1015891 -0.1046349 -0.06587142
v -0.0428862 -0.1142187 -0.06573479
v -0.1018819 -0.1059435 -0.06620053
v 0.08255478 0.0812841 0.2047991
v 0.0861541 0.08352876 0.2038685
v 0.08655609 0.08336548 0.2034841
v 0.01581634 0.04078951 0.2201868
v 0.05030045 -0.08944362 0.04101299
v 0.107605 0.07264175 0.1720164
v 0.1418745 0.04722584 0.07928579
v -0.03385635 -0.01904404 0.1806355
v 0.007658386 0.03671709 0.2206132
v -0.05655296 0.007847862 0.2186906
v -0.108763 -0.009230194 0.2065268
v -0.1673921 -0.02603889 0.1889407
v -0.1300554 -0.06925072 0.1168084
v 0.1720168 -0.01892921 0.02303188
v 0.1866931 0.03095245 0.04649813
v 0.2017558 0.0242351 0.02896887
v 0.2032602 0.02406828 0.02984726
v 0.1948694 -0.01048691 0.03367579
v 0.136019 -0.1130454 0.02614319
v -0.06878585 -0.1167772 0.07914223
v -0.2014441 -0.08240562 0.1019201
v -0.241235 -0.04557472 0.1640817
v -0.2280255 -0.06253998 0.1358859
v -0.1761954 -0.1117193 0.07805454
v 0.01664123 -0.1617682 0.02610321
v -0.1526648 -0.1333739 0.05125862
v 0.06402732 -0.1702831 -0.02178516
v -0.1203924 -0.1627432 0.01424251
v -0.05835815 -0.1804819 -0.00483963
v 0.0200798 -0.1627313 -0.1044476
v -0.09916016 -0.1787957 -0.01273959
v -0.09331833 -0.1796602 -0.02301956
v 0.005621185 -0.1160789 -0.1697114
v -0.04822822 -0.1319979 -0.1460504
v -0.02182388 -0.1210572 -0.1874153
v -0.03910904 -0.1275423 -0.1667647
v -0.004664154 -0.115179 -0.208233
v -0.04464294 0.0638907 -0.05056444
v -0.1032209 0.08966324 0.04646046
v -0.09308929 0.09271479 0.04346593
v -0.09481941 0.09371927 0.04669415
v -0.1033582 0.08972826 0.04669048
vt 0.3597261 0.5709574
vt 0.3667926 0.5772995
vt 0.3665 0.57
vt 0.2567503 0.9797531
vt 0.2471461 0.9871243
vt 0.259 1
vt 0.5068053 0.5590208
vt 0.5065735 0.5572892
vt 0.502 0.5545
vt 0.2387788 0.9931701
vt 0.2223509 1
vt 0.259 1
vt 0.4143 0.6089
vt 0.3667926 0.5772995
vt 0.4070472 0.6102431
vt 0.3665 0.57
vt 0.429522 0.5508238
vt 0.42418 0.5509247
vt 0.4143 0.6089
vt 0.4070472 0.6102431
vt 0.4108993 0.6155869
vt 0.4467 0.6518
vt 0.441459 0.651603
vt 0.4453932 0.6562971
vt 0.4520776 0.6604664
vt 0.4718757 0.6674263
vt 0.4683793 0.669274
vt 0.4896815 0.6593795
vt 0.488 0.5964
vt 0.514375 0.6521558
vt 0.5149121 0.6517315
vt 0.4502 0.5586
vt 0.429522 0.5508238
vt 0.4366671 0.5521685
vt 0.502 0.5545
vt 0.5068053 0.5590208
vt 0.509101 0.5641413
vt 0.5214708 0.6499114
vt 0.1096 1
vt 0.03365435 0.9740548
vt 0.0218905 0.9917238
vt 0.03776195 0.965232
vt 0.0919 0.9503
vt 0.03872865 0.9632054
vt 0.08377668 0.9229244
vt 0.1260926 0.9868485
vt 0.1340371 1
vt 0.1042477 0.9513975
vt 0.1006383 0.9408728
vt 0.08569851 0.9206668
vt 0.5086284 0.5559717
vt 0.5379552 0.5470546
vt 0.5486538 0.5427014
vt 0.5411 0.5299
vt 0.5531365 0.5379186
vt 0.5602053 0.5331336
vt 0.502 0.5545
vt 0.5065735 0.5572892
vt 0.5783314 0.4904516
vt 0.5862325 0.5144278
vt 0.5256 0.5088
vt 0.4715 0.4945
vt 0.5312 0.4615
vt 0.5762719 0.4847269
vt 0.5706397 0.472807
vt 0.5555152 0.4407153
vt 0.5459025 0.4264703
vt 0.5443128 0.4246112
vt 0.5265991 0.4279513
vt 0.5031 0.4502
vt 0.5082164 0.4318305
vt 0.4868758 0.4402506
vt 0.4627921 0.4526792
vt 0.4256834 0.4715917
vt 0.4265858 0.4694761
vt 0.4251751 0.472967
vt 0.471 0.5287
vt 0.4476 0.5329
vt 0.4502 0.5586
vt 0.4244424 0.4741154
vt 0.4366671 0.5521685
vt 0.4013341 0.5081164
vt 0.4316445 0.5474957
vt 0.3898264 0.5222316
vt 0.3874241 0.5254569
vt 0.36359 0.55699
vt 0.3597261 0.5709574
vt 0.3665 0.57
vt 0.3765999 0.5509498
vt 0.42418 0.5509247
vt 0.3737034 0.5502145
vt 0.3709265 0.5390152
vt 0.3699393 0.5380391
vt 0.3730582 0.5334101
vt 0.3968012 0.9830695
vt 0.3934827 1
vt 0.3995456 0.9933448
vt 0.3657 1
vt 0.3647 0.9568
vt 0.3837686 0.9604154
vt 0.37483 0.9466978
vt 0.3625191 0.929587
vt 0.3618009 0.9288084
vt 0.3016 1
vt 0.3617088 0.928691
vt 0.3017 0.98
vt 0.26852 0.9698511
vt 0.2567503 0.9797531
vt 0.259 1
vt 0.271486 0.9652429
vt 0.2988715 0.9503731
vt 0.2937548 0.9516348
vt 0.3429478 0.9196376
vt 0.3605189 0.9272816
vt 0.3484183 0.9148701
vt 0.6624495 0.9742506
vt 0.6446 0.9383
vt 0.650509 0.9681107
vt 0.6722 0.9645
vt 0.6917573 0.9845213
vt 0.6909649 0.9854735
vt 0.6841768 0.9473756
vt 0.6607927 0.910996
vt 0.6783306 0.9058262
vt 0.6517261 0.9109145
vt 0.6303281 0.9202253
vt 0.638043 0.9553811
vt 0.650509 0.9681107
vt 0.6446 0.9383
vt 0.6334059 0.9455307
vt 0.5960361 0.9273826
vt 0.6303281 0.9202253
vt 0.5950432 0.9266112
vt 0.2471461 0.9871243
vt 0.2387788 0.9931701
vt 0.259 1
vt 0.2392887 0.9924396
vt 0.6590225 0.1058925
vt 0.6601806 0.105193
vt 0.6601933 0.1049988
vt 0.6374335 0.1184614
vt 0.5947 0.0508
vt 0.658626 0.09152703
vt 0.6518774 0.05603956
vt 0.6109 0.1134
vt 0.6351244 0.1200145
vt 0.6154442 0.1294507
vt 0.5990022 0.1349111
vt 0.5798175 0.1409763
vt 0.5703 0.1134
vt 0.6374 0.0262
vt 0.6549459 0.03498553
vt 0.6557824 0.02490274
vt 0.6557215 0.02327824
vt 0.6411024 0.008802368
vt 0.5975 0
vt 0.5619 0.0776
vt 0.548471 0.1245735
vt 0.5547603 0.1499618
vt 0.5506921 0.1394778
vt 0.5405213 0.1054854
vt 0.5563 0.0277
vt 0.5338686 0.08547334
vt 0.5548 0
vt 0.5250807 0.06742308
vt 0.5293 0.0441
vt 0.5121 0
vt 0.5199068 0.05569766
vt 0.5172334 0.05253681
vt 0.4694 0
vt 0.4721899 0.02046816
vt 0.4605548 0.007756538
vt 0.465954 0.01550019
vt 0.4540231 0
vt 0.5778927 0.9238429
vt 0.558593 0.9199004
vt 0.5593647 0.9211342
vt 0.5586032 0.9210976
vt 0.5585387 0.9198958
vn 0.2647081 -0.3909127 0.8815423
vn 0.2647082 -0.3909127 0.8815423
vn 0.2647082 -0.3909127 0.8815423
vn -0.1102533 0.6680864 0.7358701
vn -0.1102533 0.6680864 0.7358701
vn -0.1102533 0.6680864 0.7358701
vn -0.1724779 -0.02325353 -0.9847388
vn -0.1724779 -0.02325353 -0.9847388
vn -0.1724779 -0.02325353 -0.9847388
vn -0.1515339 -0.9231442 0.3533303
vn -0.1515339 -0.9231442 0.3533303
vn -0.1515339 -0.9231442 0.3533303
vn -0.333627 0.1424841 0.9318752
vn -0.2875848 0.3432679 0.8941265
vn -0.2875855 0.3432666 0.8941268
vn -0.3743958 -0.1623293 0.9129497
vn -0.381889 -0.3677427 0.8478951
vn -0.3818929 -0.3677407 0.8478943
vn -0.6468335 0.7236933 -0.2405712
vn -0.8238117 0.4756816 0.3083199
vn -0.7945509 0.5945603 -0.1232352
vn -0.4940888 0.6312691 -0.597809
vn -0.7180923 0.5809504 -0.3831971
vn -0.5435699 0.5004658 -0.673844
vn -0.258376 0.5491681 -0.7947681
vn -0.2057943 0.5979986 -0.7746265
vn -0.2293979 0.5647347 -0.7927492
vn -0.1670007 0.6104972 -0.7742117
vn -0.285622 0.7388343 -0.6103638
vn -0.02675392 0.6319395 -0.7745559
vn 0.1120009 0.6564543 -0.7460051
vn -0.5945587 0.7845111 -0.1761884
vn -0.5666112 0.8215498 -0.06330619
vn -0.5666072 0.8215528 -0.06330274
vn -0.395131 0.7089779 -0.584142
vn 0.188438 0.6566506 -0.7302748
vn 0.1884401 0.6566504 -0.7302743
vn 0.1884397 0.6566504 -0.7302744
vn -0.007125308 0.90155 -0.4326161
vn -0.07290198 0.8724139 -0.4833003
vn -0.07571933 0.8664401 -0.493506
vn -0.1080367 0.9088994 -0.4027777
vn -0.06554843 0.9517658 -0.2997418
vn -0.2510217 0.9603457 -0.1213435
vn -0.1640347 0.9804765 -0.1084369
vn 0.03268167 0.9377602 -0.3457424
vn -0.08435571 0.975811 -0.2016852
vn 0.1200083 0.9031824 -0.4121401
vn -0.02445194 0.9766783 -0.213311
vn -0.1263241 0.9866658 -0.1026296
vn -0.138936 -0.9619865 0.2351144
vn -0.09937528 -0.9446809 0.3125741
vn -0.1436903 -0.8514017 0.5044484
vn -0.01490789 -0.8702437 0.4923959
vn -0.1900376 -0.8242474 0.5333873
vn -0.128875 -0.7951065 0.5926186
vn 0.1068179 -0.9799754 0.1680424
vn -0.2874868 -0.952813 -0.09746075
vn 0.01723919 -0.7706281 0.6370519
vn -0.1056255 -0.7689993 0.6304628
vn 0.2514797 -0.8412685 0.4785659
vn 0.5929482 -0.7910774 0.1503629
vn 0.414632 -0.649728 0.6371294
vn 0.1459543 -0.7442104 0.6518038
vn 0.2246433 -0.6787176 0.699198
vn 0.3486396 -0.5033478 0.7906273
vn 0.5268745 -0.4885569 0.6954966
vn 0.5756112 -0.487493 0.6565229
vn 0.5576718 -0.4968492 0.6649383
vn 0.6793479 -0.6021906 0.4193484
vn 0.6441017 -0.530193 0.5513877
vn 0.822669 -0.5299441 0.2058519
vn 0.805265 -0.5529841 0.2139088
vn 0.7271821 -0.6821193 0.07693893
vn 0.7860501 -0.5527154 0.276823
vn 0.5780165 -0.7896332 -0.2058552
vn 0.276806 -0.9577462 -0.07810718
vn 0.2153364 -0.8774874 -0.4285396
vn -0.1407579 -0.8925728 -0.4283703
vn 0.5586231 -0.7672516 -0.315064
vn -0.2299278 -0.9129326 -0.3371754
vn 0.4962942 -0.6756657 -0.5451312
vn 0.08153993 -0.821822 -0.5638793
vn 0.3973749 -0.6744835 -0.6222259
vn 0.3098721 -0.6670105 -0.6775517
vn -0.8609357 0.5008498 -0.08910247
vn -0.8895578 0.45605 -0.02655646
vn -0.8953232 0.4449053 -0.02134452
vn -0.9042402 0.4268275 -0.01296251
vn -0.9137216 0.4063253 -0.003561907
vn -0.8404348 0.5267479 -0.127303
vn -0.7228243 0.5983786 -0.3456415
vn -0.7116158 0.5768806 -0.4010133
vn -0.6860231 0.5346285 -0.4935023
vn -0.5166279 0.5875204 -0.6228287
vn -0.6770188 0.4466274 -0.5849525
vn -0.6770187 0.4466281 -0.5849521
vn -0.4042087 0.7332928 -0.5467148
vn -0.229893 0.8122651 -0.5360732
vn -0.3453126 0.682862 -0.6437847
vn -0.2035529 0.7369562 -0.6445632
vn -0.1091744 0.8998961 -0.4222177
vn -0.3640006 0.7488796 -0.5537896
vn -0.3448075 0.8555678 -0.3861497
vn -0.1494989 0.8662003 -0.4768094
vn -0.3047362 0.7910555 -0.5304405
vn -0.3505178 0.9042222 -0.243966
vn -0.3709446 0.9213622 -0.1161545
vn -0.3709452 0.9213622 -0.1161524
vn -0.1178589 0.7485968 -0.6524662
vn 0.1176293 0.7925084 -0.5984093
vn 0.1163462 0.4853197 -0.8665612
vn 0.08021252 0.9492482 -0.304128
vn 0.09649873 0.9440452 -0.3153833
vn 0.03631068 0.9612514 -0.2732715
vn -0.08222771 -0.626918 0.7747338
vn -0.08388057 -0.8793799 0.4686737
vn -0.2574054 -0.5699838 0.7802954
vn 0.02228341 -0.8383656 0.5446527
vn 0.1316698 -0.7588288 0.6378416
vn 0.08804053 -0.6614702 0.7447858
vn 0.206095 -0.9626032 0.1758409
vn 0.1058927 -0.9570481 0.2698994
vn 0.1949216 -0.9645178 0.1780761
vn -0.1075308 -0.8895513 0.4439994
vn -0.2926813 -0.7866464 0.5436223
vn -0.7398288 0.2248914 0.6340957
vn -0.7250832 0.1951898 0.6604205
vn -0.6601476 0.2952034 0.6906955
vn -0.7358236 0.2895541 0.6121455
vn -0.574709 0.3530314 0.7382942
vn -0.5497244 0.3787567 0.7445445
vn -0.5497175 0.3787536 0.7445511
vn -0.04064888 -0.2351403 0.9711111
vn -0.04064623 -0.2351392 0.9711114
vn -0.04064908 -0.2351404 0.9711111
vn -0.04064194 -0.2351372 0.9711121
vn 0.5186474 -0.6362143 0.5711709
vn 0.4911324 -0.4885381 0.721193
vn 0.5137178 -0.6003339 0.6129383
vn 0.4555809 -0.6760857 0.5790975
vn 0.3473887 -0.2031163 0.9154589
vn 0.5734267 -0.6279789 0.5261409
vn 0.5699999 -0.5522834 0.6083446
vn 0.2272004 -0.7785552 0.5850057
vn 0.3646144 -0.7064073 0.6066672
vn 0.1944665 -0.7426723 0.6407968
vn 0.08519669 -0.8247215 0.559085
vn 0.06118546 -0.8419607 0.5360583
vn 0.06178315 -0.7577852 0.6495726
vn -0.0244148 -0.1349819 0.9905471
vn 0.4636643 -0.4851841 0.741358
vn -0.04016815 -0.1089388 0.9932366
vn -0.4754989 0.2101085 0.854257
vn -0.4755001 0.2101097 0.8542561
vn 0.1901171 -0.2203307 0.9567183
vn 0.1422297 -0.5632942 0.8139228
vn 0.01225678 -0.7777627 0.6284385
vn 0.04533082 -0.8464473 0.5305394
vn 0.04533059 -0.8464473 0.5305394
vn -0.04009712 -0.6976911 0.7152757
vn 0.1644629 -0.7939944 0.5852563
vn -0.04413181 -0.7969077 0.6024868
vn 0.2097952 -0.9468538 0.2438314
vn -0.06017071 -0.8210681 0.5676501
vn -0.002423767 -0.9822481 0.1875708
vn -0.2626334 -0.8928196 -0.3659192
vn -0.09654144 -0.9503671 0.2957737
vn 0.04798007 -0.9894105 -0.1369848
vn 0.09327655 -0.969014 -0.2287168
vn 0.1647127 -0.9502314 -0.2644425
vn 0.2359073 -0.9672455 -0.09372205
vn 0.2406827 -0.9652643 -0.1016688
vn 0.2301069 -0.9695255 -0.0840896
vn 0.3760787 -0.8137185 0.4432007
vn 0.3769072 -0.8092791 0.4505644
vn 0.376438 -0.811839 0.4463315
vn 0.3772372 -0.8075173 0.4534402
vn 0.3772265 -0.8074977 0.453484
g paperBall_Explode_Thin_00_0
f 3/3/3 2/2/2 1/1/1
f 6/6/6 5/5/5 4/4/4
f 9/9/9 8/8/8 7/7/7
f 12/12/12 11/11/11 10/10/10
f 15/15/15 14/14/14 13/13/13
f 16/16/16 13/13/13 14/14/14
f 13/13/13 16/16/16 17/17/17
f 18/18/18 17/17/17 16/16/16
f 21/21/21 20/20/20 19/19/19
f 19/19/19 22/22/22 21/21/21
f 23/23/23 21/21/21 22/22/22
f 22/22/22 24/24/24 23/23/23
f 22/22/22 25/25/25 24/24/24
f 22/22/22 26/26/26 25/25/25
f 27/27/27 25/25/25 26/26/26
f 26/26/26 22/22/22 28/28/28
f 29/29/29 28/28/28 22/22/22
f 19/19/19 29/29/29 22/22/22
f 29/29/29 30/30/30 28/28/28
f 30/30/30 29/29/29 31/31/31
f 19/19/19 32/32/32 29/29/29
f 19/19/19 33/33/33 32/32/32
f 34/34/34 32/32/32 33/33/33
f 29/29/29 32/32/32 35/35/35
f 35/35/35 31/31/31 29/29/29
f 35/35/35 36/36/36 31/31/31
f 36/36/36 37/37/37 31/31/31
f 37/37/37 38/38/38 31/31/31
f 41/41/41 40/40/40 39/39/39
f 40/40/40 42/42/42 39/39/39
f 43/43/43 39/39/39 42/42/42
f 42/42/42 44/44/44 43/43/43
f 45/45/45 43/43/43 44/44/44
f 39/39/39 43/43/43 46/46/46
f 39/39/39 46/46/46 47/47/47
f 48/48/48 46/46/46 43/43/43
f 43/43/43 49/49/49 48/48/48
f 43/43/43 45/45/45 49/49/49
f 50/50/50 49/49/49 45/45/45
f 53/53/53 52/52/52 51/51/51
f 54/54/54 53/53/53 51/51/51
f 54/54/54 55/55/55 53/53/53
f 56/56/56 55/55/55 54/54/54
f 57/57/57 54/54/54 51/51/51
f 57/57/57 51/51/51 58/58/58
f 54/54/54 59/59/59 56/56/56
f 60/60/60 56/56/56 59/59/59
f 54/54/54 61/61/61 59/59/59
f 61/61/61 54/54/54 57/57/57
f 61/61/61 57/57/57 62/62/62
f 61/61/61 62/62/62 63/63/63
f 64/64/64 59/59/59 61/61/61
f 64/64/64 61/61/61 65/65/65
f 63/63/63 65/65/65 61/61/61
f 63/63/63 66/66/66 65/65/65
f 63/63/63 67/67/67 66/66/66
f 68/68/68 67/67/67 63/63/63
f 69/69/69 68/68/68 63/63/63
f 70/70/70 69/69/69 63/63/63
f 62/62/62 70/70/70 63/63/63
f 70/70/70 71/71/71 69/69/69
f 70/70/70 72/72/72 71/71/71
f 72/72/72 70/70/70 73/73/73
f 62/62/62 73/73/73 70/70/70
f 62/62/62 74/74/74 73/73/73
f 75/75/75 73/73/73 74/74/74
f 74/74/74 62/62/62 76/76/76
f 77/77/77 76/76/76 62/62/62
f 77/77/77 78/78/78 76/76/76
f 77/77/77 62/62/62 57/57/57
f 79/79/79 77/77/77 57/57/57
f 79/79/79 78/78/78 77/77/77
f 80/80/80 76/76/76 78/78/78
f 79/79/79 81/81/81 78/78/78
f 82/82/82 80/80/80 78/78/78
f 83/83/83 78/78/78 81/81/81
f 78/78/78 84/84/84 82/82/82
f 78/78/78 83/83/83 84/84/84
f 85/85/85 84/84/84 83/83/83
f 88/88/88 87/87/87 86/86/86
f 89/89/89 88/88/88 86/86/86
f 88/88/88 89/89/89 90/90/90
f 91/91/91 89/89/89 86/86/86
f 91/91/91 86/86/86 92/92/92
f 93/93/93 92/92/92 86/86/86
f 93/93/93 94/94/94 92/92/92
f 97/97/97 96/96/96 95/95/95
f 98/98/98 95/95/95 96/96/96
f 98/98/98 99/99/99 95/95/95
f 100/100/100 95/95/95 99/99/99
f 99/99/99 101/101/101 100/100/100
f 102/102/102 101/101/101 99/99/99
f 102/102/102 99/99/99 103/103/103
f 104/104/104 99/99/99 98/98/98
f 104/104/104 103/103/103 99/99/99
f 103/103/103 104/104/104 105/105/105
f 106/106/106 105/105/105 104/104/104
f 104/104/104 107/107/107 106/106/106
f 107/107/107 104/104/104 108/108/108
f 109/109/109 108/108/108 104/104/104
f 110/110/110 106/106/106 107/107/107
f 106/106/106 110/110/110 111/111/111
f 106/106/106 111/111/111 105/105/105
f 112/112/112 111/111/111 110/110/110
f 111/111/111 113/113/113 105/105/105
f 113/113/113 114/114/114 105/105/105
f 113/113/113 115/115/115 114/114/114
f 118/118/118 117/117/117 116/116/116
f 119/119/119 116/116/116 117/117/117
f 119/119/119 120/120/120 116/116/116
f 121/121/121 116/116/116 120/120/120
f 119/119/119 122/122/122 120/120/120
f 119/119/119 123/123/123 122/122/122
f 119/119/119 117/117/117 123/123/123
f 124/124/124 122/122/122 123/123/123
f 125/125/125 123/123/123 117/117/117
f 117/117/117 126/126/126 125/125/125
f 129/129/129 128/128/128 127/127/127
f 129/129/129 127/127/127 130/130/130
f 129/129/129 130/130/130 131/131/131
f 129/129/129 131/131/131 132/132/132
f 133/133/133 132/132/132 131/131/131
f 136/136/136 135/135/135 134/134/134
f 137/137/137 134/134/134 135/135/135
f 140/140/140 139/139/139 138/138/138
f 138/138/138 141/141/141 140/140/140
f 141/141/141 142/142/142 140/140/140
f 142/142/142 143/143/143 140/140/140
f 142/142/142 144/144/144 143/143/143
f 142/142/142 141/141/141 145/145/145
f 146/146/146 145/145/145 141/141/141
f 145/145/145 146/146/146 147/147/147
f 145/145/145 147/147/147 148/148/148
f 148/148/148 149/149/149 145/145/145
f 150/150/150 145/145/145 149/149/149
f 142/142/142 145/145/145 150/150/150
f 142/142/142 151/151/151 144/144/144
f 152/152/152 144/144/144 151/151/151
f 151/151/151 153/153/153 152/152/152
f 154/154/154 153/153/153 151/151/151
f 155/155/155 154/154/154 151/151/151
f 156/156/156 155/155/155 151/151/151
f 156/156/156 151/151/151 142/142/142
f 156/156/156 142/142/142 157/157/157
f 157/157/157 142/142/142 150/150/150
f 150/150/150 149/149/149 158/158/158
f 149/149/149 159/159/159 158/158/158
f 159/159/159 160/160/160 158/158/158
f 158/158/158 161/161/161 150/150/150
f 157/157/157 150/150/150 161/161/161
f 162/162/162 156/156/156 157/157/157
f 157/157/157 161/161/161 162/162/162
f 163/163/163 162/162/162 161/161/161
f 156/156/156 162/162/162 164/164/164
f 163/163/163 165/165/165 162/162/162
f 162/162/162 166/166/166 164/164/164
f 166/166/166 162/162/162 165/165/165
f 167/167/167 164/164/164 166/166/166
f 165/165/165 168/168/168 166/166/166
f 168/168/168 169/169/169 166/166/166
f 166/166/166 170/170/170 167/167/167
f 166/166/166 169/169/169 170/170/170
f 171/171/171 170/170/170 169/169/169
f 170/170/170 171/171/171 172/172/172
f 173/173/173 172/172/172 171/171/171
f 170/170/170 172/172/172 174/174/174
f 177/177/177 176/176/176 175/175/175
f 177/177/177 178/178/178 176/176/176
f 179/179/179 176/176/176 178/178/178
