g paperBall_Explode_Thin_14_Hull
v -0.003542018 -0.08363974 -0.1264251
v 0.2476149 0.1867889 -0.08500473
v -0.02755135 0.08473813 -0.1910802
v -0.2397508 -0.2293165 -0.06414359
v -0.1490206 -0.2660275 0.01622432
v -0.003542018 -0.08363974 -0.1264251
v 0.3248568 0.2351482 0.1213102
v -0.0117469 -0.1713524 0.2024202
v 0.208964 0.1154025 0.2081272
v 0.3248568 0.2351482 0.1213102
v 0.208964 0.1154025 0.2081272
v 0.2852025 0.265535 0.130005
v -0.3231055 -0.0780501 -0.120703
v -0.3217207 0.02859828 -0.140619
v -0.3191288 -0.05659073 -0.08766924
v 0.2969187 0.1817515 0.03412144
v -0.0117469 -0.1713524 0.2024202
v 0.3248568 0.2351482 0.1213102
v 0.3150086 0.2657191 0.1078616
v 0.3248568 0.2351482 0.1213102
v 0.2852025 0.265535 0.130005
v -0.04700134 0.001127222 0.2082392
v -0.110614 -0.04739358 0.1867306
v -0.1153331 0.05316718 0.180239
v -0.04700134 0.001127222 0.2082392
v 0.208964 0.1154025 0.2081272
v -0.0117469 -0.1713524 0.2024202
v -0.04700134 0.001127222 0.2082392
v -0.0117469 -0.1713524 0.2024202
v -0.110614 -0.04739358 0.1867306
v -0.04700134 0.001127222 0.2082392
v 0.03947256 0.2047598 0.1767692
v 0.208964 0.1154025 0.2081272
v -0.04700134 0.001127222 0.2082392
v -0.1153331 0.05316718 0.180239
v 0.03947256 0.2047598 0.1767692
v -0.194957 0.04766272 0.1201785
v -0.110614 -0.04739358 0.1867306
v -0.2121154 -0.03746293 0.09939846
v -0.194957 0.04766272 0.1201785
v -0.1153331 0.05316718 0.180239
v -0.110614 -0.04739358 0.1867306
v -0.194957 0.04766272 0.1201785
v -0.1509173 0.1532873 0.1150307
v -0.1153331 0.05316718 0.180239
v 0.2069443 0.255542 0.1587205
v 0.2852025 0.265535 0.130005
v 0.208964 0.1154025 0.2081272
v 0.2069443 0.255542 0.1587205
v 0.208964 0.1154025 0.2081272
v 0.03947256 0.2047598 0.1767692
v -0.1112204 -0.1526785 0.1592772
v -0.110614 -0.04739358 0.1867306
v -0.0117469 -0.1713524 0.2024202
v -0.1112204 -0.1526785 0.1592772
v -0.1826627 -0.2043044 0.0620167
v -0.2121154 -0.03746293 0.09939846
v -0.1112204 -0.1526785 0.1592772
v -0.2121154 -0.03746293 0.09939846
v -0.110614 -0.04739358 0.1867306
v -0.2484374 -0.1989117 -0.02732696
v -0.2121154 -0.03746293 0.09939846
v -0.1826627 -0.2043044 0.0620167
v -0.2971394 -0.01569553 -0.033055
v -0.3191288 -0.05659073 -0.08766924
v -0.3217207 0.02859828 -0.140619
v -0.2971394 -0.01569553 -0.033055
v -0.3217207 0.02859828 -0.140619
v -0.1509173 0.1532873 0.1150307
v -0.2971394 -0.01569553 -0.033055
v -0.1509173 0.1532873 0.1150307
v -0.194957 0.04766272 0.1201785
v -0.2971394 -0.01569553 -0.033055
v -0.194957 0.04766272 0.1201785
v -0.2121154 -0.03746293 0.09939846
v -0.2022317 0.04774422 -0.172433
v -0.3217207 0.02859828 -0.140619
v -0.3231055 -0.0780501 -0.120703
v 0.2588956 0.1643417 -0.05234538
v 0.2476149 0.1867889 -0.08500473
v -0.003542018 -0.08363974 -0.1264251
v 0.2588956 0.1643417 -0.05234538
v 0.2969187 0.1817515 0.03412144
v 0.2476149 0.1867889 -0.08500473
v -0.01747182 0.2007159 0.1600925
v 0.2069443 0.255542 0.1587205
v 0.03947256 0.2047598 0.1767692
v -0.01747182 0.2007159 0.1600925
v -0.1153331 0.05316718 0.180239
v -0.1509173 0.1532873 0.1150307
v -0.01747182 0.2007159 0.1600925
v 0.03947256 0.2047598 0.1767692
v -0.1153331 0.05316718 0.180239
v -0.0465292 -0.2000347 0.1713302
v -0.1112204 -0.1526785 0.1592772
v -0.0117469 -0.1713524 0.2024202
v -0.2673956 -0.1929874 -0.07753903
v -0.2484374 -0.1989117 -0.02732696
v -0.2397508 -0.2293165 -0.06414359
v -0.2397508 -0.2293165 -0.06414359
v -0.003542018 -0.08363974 -0.1264251
v -0.02755135 0.08473813 -0.1910802
v -0.3231055 -0.0780501 -0.120703
v -0.2022317 0.04774422 -0.172433
v -0.2673956 -0.1929874 -0.07753903
v 0.2969187 0.1817515 0.03412144
v 0.3248568 0.2351482 0.1213102
v 0.2476149 0.1867889 -0.08500473
v 0.3150086 0.2657191 0.1078616
v 0.3150086 0.2657191 0.1078616
v 0.2852025 0.265535 0.130005
v 0.2476149 0.1867889 -0.08500473
v -0.1509173 0.1532873 0.1150307
v 0.2069443 0.255542 0.1587205
v -0.01747182 0.2007159 0.1600925
v -0.02755135 0.08473813 -0.1910802
v -0.3217207 0.02859828 -0.140619
v -0.2022317 0.04774422 -0.172433
v -0.1219067 -0.2526743 0.07404508
v -0.1490206 -0.2660275 0.01622432
v -0.1826627 -0.2043044 0.0620167
v -0.2484374 -0.1989117 -0.02732696
v -0.2397508 -0.2293165 -0.06414359
v -0.1112204 -0.1526785 0.1592772
v -0.1219067 -0.2526743 0.07404508
v -0.1826627 -0.2043044 0.0620167
v -0.0465292 -0.2000347 0.1713302
v -0.2484374 -0.1989117 -0.02732696
v -0.3231055 -0.0780501 -0.120703
v -0.3191288 -0.05659073 -0.08766924
v -0.2673956 -0.1929874 -0.07753903
v -0.2971394 -0.01569553 -0.033055
v -0.2484374 -0.1989117 -0.02732696
v -0.3191288 -0.05659073 -0.08766924
v -0.2121154 -0.03746293 0.09939846
v 0.2588956 0.1643417 -0.05234538
v -0.003542018 -0.08363974 -0.1264251
v 0.2969187 0.1817515 0.03412144
v -0.1490206 -0.2660275 0.01622432
v -0.1219067 -0.2526743 0.07404508
v -0.0465292 -0.2000347 0.1713302
v -0.0117469 -0.1713524 0.2024202
vn 0.4316812 -0.2690472 -0.8609675
vn 0.4316811 -0.2690472 -0.8609675
vn 0.4316811 -0.2690472 -0.8609675
vn 0.2748792 -0.7187415 -0.638633
vn 0.2748792 -0.7187415 -0.638633
vn 0.2748792 -0.7187415 -0.638633
vn 0.7735125 -0.5994555 0.2057466
vn 0.7735125 -0.5994554 0.2057466
vn 0.7735125 -0.5994554 0.2057466
vn 0.3925221 0.2597798 0.882293
vn 0.3925221 0.2597798 0.882293
vn 0.3925221 0.2597798 0.882293
vn -0.9945609 0.03145589 0.09929282
vn -0.9945609 0.03145589 0.09929282
vn -0.9945609 0.03145589 0.09929282
vn 0.7762734 -0.6170269 0.1291411
vn 0.7762734 -0.6170269 0.1291411
vn 0.7762734 -0.6170269 0.1291411
vn 0.5216736 0.4787132 0.7061801
vn 0.5216736 0.4787132 0.7061802
vn 0.5216736 0.4787132 0.7061802
vn -0.3499397 0.04398414 0.9357391
vn -0.3499397 0.04398415 0.9357391
vn -0.3499397 0.04398415 0.9357391
vn 0.01419543 -0.03081635 0.9994242
vn 0.01419543 -0.03081635 0.9994242
vn 0.01419543 -0.03081635 0.9994242
vn -0.2599351 -0.08557954 0.9618264
vn -0.2599351 -0.08557954 0.9618264
vn -0.2599351 -0.08557953 0.9618264
vn -0.08281659 0.186461 0.9789656
vn -0.08281659 0.186461 0.9789656
vn -0.08281659 0.186461 0.9789656
vn -0.2094442 0.2356051 0.9490119
vn -0.2094441 0.2356051 0.9490119
vn -0.2094441 0.235605 0.9490119
vn -0.654258 -0.05229588 0.7544611
vn -0.654258 -0.05229587 0.7544611
vn -0.654258 -0.05229588 0.7544611
vn -0.6030549 0.02317335 0.7973629
vn -0.6030549 0.02317335 0.7973629
vn -0.6030549 0.02317335 0.7973629
vn -0.589991 0.2828505 0.7562448
vn -0.589991 0.2828505 0.7562448
vn -0.589991 0.2828505 0.7562448
vn 0.2896306 0.3219535 0.9013656
vn 0.2896306 0.3219535 0.9013656
vn 0.2896306 0.3219535 0.9013656
vn 0.0008145529 0.3325051 0.9431011
vn 0.0008145531 0.3325052 0.9431011
vn 0.000814553 0.3325052 0.9431011
vn -0.423028 -0.2263463 0.8773908
vn -0.423028 -0.2263463 0.8773908
vn -0.423028 -0.2263463 0.8773908
vn -0.7012449 -0.2714895 0.6592032
vn -0.7012449 -0.2714895 0.6592032
vn -0.7012449 -0.2714895 0.6592032
vn -0.6510906 -0.1879951 0.7353494
vn -0.6510906 -0.1879951 0.7353495
vn -0.6510907 -0.1879952 0.7353495
vn -0.7842287 -0.2642254 0.5614001
vn -0.7842287 -0.2642254 0.5614001
vn -0.7842287 -0.2642254 0.5614001
vn -0.9505382 0.1425931 0.2759426
vn -0.9505382 0.1425931 0.2759426
vn -0.9505382 0.1425931 0.2759426
vn -0.8381447 0.4095921 0.3602052
vn -0.8381447 0.409592 0.3602051
vn -0.8381447 0.409592 0.3602051
vn -0.8365312 0.3685478 0.4054481
vn -0.8365312 0.3685478 0.4054481
vn -0.8365312 0.3685478 0.4054481
vn -0.8382761 0.03616025 0.5440457
vn -0.838276 0.03616025 0.5440456
vn -0.838276 0.03616025 0.5440456
vn -0.2268519 -0.1759382 -0.957906
vn -0.2268519 -0.1759382 -0.957906
vn -0.2268519 -0.1759382 -0.957906
vn 0.6428122 -0.5093724 -0.5721296
vn 0.6428123 -0.5093723 -0.5721297
vn 0.6428123 -0.5093723 -0.5721297
vn 0.9181265 -0.09746431 -0.3841153
vn 0.9181265 -0.0974643 -0.3841153
vn 0.9181265 -0.09746431 -0.3841153
vn -0.2039243 0.8469944 0.4909331
vn -0.2039243 0.8469944 0.4909331
vn -0.2039243 0.8469944 0.4909331
vn -0.4156782 0.3880152 0.8225908
vn -0.4156782 0.3880152 0.8225908
vn -0.4156782 0.3880153 0.8225908
vn -0.2873074 0.3141083 0.9048704
vn -0.2873074 0.3141083 0.9048704
vn -0.2873074 0.3141083 0.9048704
vn -0.4272271 -0.3741197 0.8231108
vn -0.4272272 -0.3741197 0.8231108
vn -0.4272272 -0.3741197 0.8231108
vn -0.8129698 -0.5284432 0.2445972
vn -0.8129698 -0.5284432 0.2445972
vn -0.8129698 -0.5284432 0.2445972
vn -0.0230103 -0.3612319 -0.932192
vn -0.0230103 -0.3612319 -0.932192
vn -0.0230103 -0.3612319 -0.932192
vn -0.02301034 -0.3612319 -0.932192
vn -0.0230102 -0.3612321 -0.932192
vn -0.02300848 -0.361231 -0.9321924
vn 0.9179688 0.1310227 -0.3743881
vn 0.9179688 0.1310227 -0.3743881
vn 0.9179688 0.1310227 -0.3743881
vn 0.9179693 0.1310202 -0.3743877
vn -0.2281643 0.9264401 -0.299416
vn -0.2281648 0.9264399 -0.2994159
vn -0.2281648 0.9264399 -0.2994158
vn -0.2281648 0.9264399 -0.2994158
vn -0.2281648 0.9264398 -0.2994167
vn -0.2281651 0.9264402 -0.2994148
vn -0.2281648 0.9264399 -0.2994158
vn -0.2281648 0.9264399 -0.2994158
vn -0.2281648 0.9264399 -0.2994157
vn -0.6112593 -0.6586782 0.438754
vn -0.6112593 -0.6586782 0.438754
vn -0.6112593 -0.6586781 0.4387539
vn -0.6267617 -0.6669529 0.4029188
vn -0.6267617 -0.666953 0.4029188
vn -0.5398316 -0.5118917 0.6682431
vn -0.5398316 -0.5118916 0.6682431
vn -0.5398316 -0.5118917 0.6682431
vn -0.5112261 -0.5252171 0.6802903
vn -0.8970274 -0.3134411 0.3116032
vn -0.8970274 -0.3134411 0.3116032
vn -0.8970274 -0.3134411 0.3116032
vn -0.8976216 -0.3220718 0.3009073
vn -0.8430896 -0.2086112 0.4956625
vn -0.8430896 -0.2086112 0.4956625
vn -0.8430896 -0.2086112 0.4956626
vn -0.8384126 -0.2071025 0.5041555
vn 0.7017149 -0.6920678 -0.1692286
vn 0.7017148 -0.692068 -0.1692282
vn 0.7017149 -0.692068 -0.1692282
vn 0.7017148 -0.692068 -0.1692281
vn 0.7017148 -0.692068 -0.1692283
vn 0.7066399 -0.69077 -0.1532871
vn 0.7066399 -0.69077 -0.1532871
g paperBall_Explode_Thin_14_Hull_0
f 3/3/3 2/2/2 1/1/1
f 6/6/6 5/5/5 4/4/4
f 9/9/9 8/8/8 7/7/7
f 12/12/12 11/11/11 10/10/10
f 15/15/15 14/14/14 13/13/13
f 18/18/18 17/17/17 16/16/16
f 21/21/21 20/20/20 19/19/19
f 24/24/24 23/23/23 22/22/22
f 27/27/27 26/26/26 25/25/25
f 30/30/30 29/29/29 28/28/28
f 33/33/33 32/32/32 31/31/31
f 36/36/36 35/35/35 34/34/34
f 39/39/39 38/38/38 37/37/37
f 42/42/42 41/41/41 40/40/40
f 45/45/45 44/44/44 43/43/43
f 48/48/48 47/47/47 46/46/46
f 51/51/51 50/50/50 49/49/49
f 54/54/54 53/53/53 52/52/52
f 57/57/57 56/56/56 55/55/55
f 60/60/60 59/59/59 58/58/58
f 63/63/63 62/62/62 61/61/61
f 66/66/66 65/65/65 64/64/64
f 69/69/69 68/68/68 67/67/67
f 72/72/72 71/71/71 70/70/70
f 75/75/75 74/74/74 73/73/73
f 78/78/78 77/77/77 76/76/76
f 81/81/81 80/80/80 79/79/79
f 84/84/84 83/83/83 82/82/82
f 87/87/87 86/86/86 85/85/85
f 90/90/90 89/89/89 88/88/88
f 93/93/93 92/92/92 91/91/91
f 96/96/96 95/95/95 94/94/94
f 99/99/99 98/98/98 97/97/97
f 102/102/102 101/101/101 100/100/100
f 102/102/102 100/100/100 103/103/103
f 102/102/102 103/103/103 104/104/104
f 103/103/103 100/100/100 105/105/105
f 108/108/108 107/107/107 106/106/106
f 107/107/107 108/108/108 109/109/109
f 112/112/112 111/111/111 110/110/110
f 112/112/112 113/113/113 111/111/111
f 111/111/111 113/113/113 114/114/114
f 114/114/114 113/113/113 115/115/115
f 112/112/112 116/116/116 113/113/113
f 113/113/113 116/116/116 117/117/117
f 117/117/117 116/116/116 118/118/118
f 121/121/121 120/120/120 119/119/119
f 120/120/120 121/121/121 122/122/122
f 123/123/123 120/120/120 122/122/122
f 126/126/126 125/125/125 124/124/124
f 124/124/124 125/125/125 127/127/127
f 130/130/130 129/129/129 128/128/128
f 128/128/128 129/129/129 131/131/131
f 134/134/134 133/133/133 132/132/132
f 133/133/133 135/135/135 132/132/132
f 138/138/138 137/137/137 136/136/136
f 139/139/139 137/137/137 138/138/138
f 139/139/139 138/138/138 140/140/140
f 140/140/140 138/138/138 141/141/141
f 138/138/138 142/142/142 141/141/141
