g pCube3
v -0.7778144 -0.001947583 0.4651069
v -0.7778144 0.9282662 0.4651069
v 0.7778143 0.9282662 0.4651069
v 0.7778143 -0.001947583 0.4651069
v -0.7778144 0.9282662 0.4651069
v -0.7778144 0.9282662 -0.4651069
v 0.7778143 0.9282662 -0.4651069
v 0.7778143 0.9282662 0.4651069
v -0.7778144 0.9282662 -0.4651069
v -0.7778144 -0.001947583 -0.4651069
v 0.7778143 -0.001947583 -0.4651069
v 0.7778143 0.9282662 -0.4651069
v 0.7778143 -0.001947583 -0.4651069
v -0.7778144 -0.001947583 -0.4651069
v -0.7778144 -0.001947583 0.4651069
v 0.7778143 -0.001947583 0.4651069
v 0.7778143 0.9282662 0.4651069
v 0.7778143 0.9282662 -0.4651069
v 0.7778143 -0.001947583 -0.4651069
v 0.7778143 -0.001947583 0.4651069
v -0.7778144 -0.001947583 -0.4651069
v -0.7778144 0.9282662 -0.4651069
v -0.7778144 0.9282662 0.4651069
v -0.7778144 -0.001947583 0.4651069
vt 0.9232586 0.2739995
vt 0.9232586 0.1919222
vt 0.785998 0.1919222
vt 0.785998 0.2739994
vt 0.9232586 0.249055
vt 0.9232586 0.1669778
vt 0.785998 0.1669777
vt 0.785998 0.249055
vt 0.9232586 0.225032
vt 0.9232586 0.1429548
vt 0.7859981 0.1429548
vt 0.785998 0.225032
vt 0.9229966 0.1665477
vt 0.7864403 0.1665477
vt 0.7864403 0.2482037
vt 0.9229966 0.2482037
vt 0.9228784 0.249055
vt 0.9228784 0.1669777
vt 0.8408012 0.1669777
vt 0.8408012 0.2490549
vt 0.8684555 0.1669778
vt 0.7863783 0.1669778
vt 0.7863783 0.249055
vt 0.8684555 0.249055
vn 0 0 1
vn 0 0 1
vn 0 0 1
vn 0 0 1
vn 0 1 0
vn 0 1 0
vn 0 1 0
vn 0 1 0
vn 0 0 -1
vn 0 0 -1
vn 0 0 -1
vn 0 0 -1
vn 0 -1 0
vn 0 -1 0
vn 0 -1 0
vn 0 -1 0
vn 1 0 0
vn 1 0 0
vn 1 0 0
vn 1 0 0
vn -1 0 0
vn -1 0 0
vn -1 0 0
vn -1 0 0
g pCube3_0
f 3/3/3 2/2/2 1/1/1
f 4/4/4 3/3/3 1/1/1
f 7/7/7 6/6/6 5/5/5
f 8/8/8 7/7/7 5/5/5
f 11/11/11 10/10/10 9/9/9
f 12/12/12 11/11/11 9/9/9
f 15/15/15 14/14/14 13/13/13
f 16/16/16 15/15/15 13/13/13
f 19/19/19 18/18/18 17/17/17
f 20/20/20 19/19/19 17/17/17
f 23/23/23 22/22/22 21/21/21
f 24/24/24 23/23/23 21/21/21
