g pCylinder17
v 0.1759581 0.3857134 0.008714318
v 0.1759581 0.3857134 3.446249
v -0.1761589 0.385585 3.446249
v -0.1761589 0.385585 0.008714318
v -0.3955998 0.1102088 3.446249
v -0.3955998 0.1102088 0.008714318
v -0.3955998 0.1102088 0.008714318
v -0.3955998 0.1102088 3.446249
v -0.3171212 -0.2330513 3.446249
v -0.3171212 -0.2330513 0.008714259
v 0.0001809597 -0.3857135 3.446249
v 0.0001809597 -0.3857134 0.008714288
v 0.0001809597 -0.3857134 0.008714288
v 0.0001809597 -0.3857135 3.446249
v 0.3173716 -0.2328199 3.446249
v 0.3173716 -0.2328199 0.008714259
v 0.3173716 -0.2328199 0.008714259
v 0.3173716 -0.2328199 3.446249
v 0.3955998 0.1104974 3.446249
v 0.3955998 0.1104974 0.008714318
v 0.1759581 0.3857134 3.446249
v 0.1759581 0.3857134 0.008714318
v 0.1759581 0.3857134 3.446249
v 0.3955998 0.1104974 3.446249
v 0.3173716 -0.2328199 3.446249
v 0.0001809597 -0.3857135 3.446249
v -0.1761589 0.385585 3.446249
v -0.3171212 -0.2330513 3.446249
v -0.3955998 0.1102088 3.446249
vt 0.4886513 0.4375916
vt 0.340188 0.4375916
vt 0.340188 0.4519647
vt 0.4886512 0.4519647
vt 0.3401879 0.4663378
vt 0.4886512 0.4663378
vt 0.4886512 0.4663378
vt 0.3401879 0.4663378
vt 0.340188 0.4807108
vt 0.4886512 0.4807109
vt 0.340188 0.4950839
vt 0.4886513 0.4950839
vt 0.4886512 0.3944725
vt 0.340188 0.3944725
vt 0.340188 0.4088455
vt 0.4886512 0.4088455
vt 0.4886512 0.4088455
vt 0.340188 0.4088455
vt 0.340188 0.4232185
vt 0.4886513 0.4232185
vt 0.340188 0.4375916
vt 0.4886513 0.4375916
vt 0.8725431 0.5111426
vt 0.890439 0.4894771
vt 0.8846581 0.4619775
vt 0.8595535 0.4493513
vt 0.8444465 0.5106592
vt 0.8340298 0.4611065
vt 0.8273065 0.4883911
vn 0.4335551 0.901127 0
vn 0.4335551 0.901127 0
vn -0.4342122 0.9008106 0
vn -0.4342122 0.9008106 0
vn -0.975009 0.2221653 0
vn -0.975009 0.2221653 0
vn -0.975009 0.2221653 0
vn -0.975009 0.2221653 0
vn -0.7816041 -0.6237748 0
vn -0.781604 -0.6237748 0
vn 0.0003647382 -1 0
vn 0.0003647382 -1 0
vn 0.0003647382 -1 0
vn 0.0003647382 -1 0
vn 0.7820588 -0.6232046 0
vn 0.7820589 -0.6232045 0
vn 0.7820589 -0.6232045 0
vn 0.7820588 -0.6232046 0
vn 0.9748467 0.2228764 0
vn 0.9748467 0.2228764 0
vn 0.4335551 0.901127 0
vn 0.4335551 0.901127 0
vn 0 0 1
vn 0 0 1
vn 0 0 1
vn 0 0 1
vn 0 0 1
vn 0 0 1
vn 0 0 1
g pCylinder17_0
f 3/3/3 2/2/2 1/1/1
f 4/4/4 3/3/3 1/1/1
f 5/5/5 3/3/3 4/4/4
f 6/6/6 5/5/5 4/4/4
f 9/9/9 8/8/8 7/7/7
f 10/10/10 9/9/9 7/7/7
f 11/11/11 9/9/9 10/10/10
f 12/12/12 11/11/11 10/10/10
f 15/15/15 14/14/14 13/13/13
f 16/16/16 15/15/15 13/13/13
f 19/19/19 18/18/18 17/17/17
f 20/20/20 19/19/19 17/17/17
f 21/21/21 19/19/19 20/20/20
f 22/22/22 21/21/21 20/20/20
f 25/25/25 24/24/24 23/23/23
f 23/23/23 26/26/26 25/25/25
f 23/23/23 27/27/27 26/26/26
f 27/27/27 28/28/28 26/26/26
f 27/27/27 29/29/29 28/28/28
