g pCylinder14
v 0.4237729 0.004110253 -0.3078891
v 0.4237729 1.375594 -0.3078891
v 0.1618668 1.375594 -0.498175
v 0.1618668 0.004110253 -0.498175
v -0.1618669 1.375594 -0.4981749
v -0.1618669 0.004110253 -0.4981749
v -0.1618669 0.004110253 -0.4981749
v -0.1618669 1.375594 -0.4981749
v -0.423773 1.375594 -0.307889
v -0.423773 0.004110253 -0.307889
v -0.5238121 1.375594 3.129244E-08
v -0.5238121 0.004110253 3.129244E-08
v -0.5238121 0.004110253 3.129244E-08
v -0.5238121 1.375594 3.129244E-08
v -0.4237729 1.375594 0.3078891
v -0.4237729 0.004110253 0.3078891
v -0.4237729 0.004110253 0.3078891
v -0.4237729 1.375594 0.3078891
v -0.1618668 1.375594 0.4981749
v -0.1618668 0.004110253 0.4981749
v 0.1618668 1.375594 0.4981749
v 0.1618668 0.004110253 0.4981749
v 0.1618668 0.004110253 0.4981749
v 0.1618668 1.375594 0.4981749
v 0.4237728 1.375594 0.307889
v 0.4237728 0.004110253 0.307889
v 0.5238121 1.375594 0
v 0.5238121 0.004110253 0
v 0.5238121 0.004110253 0
v 0.5238121 1.375594 0
v 0.4237729 1.375594 -0.3078891
v 0.4237729 0.004110253 -0.3078891
v 0.4237729 0.004110253 -0.3078891
v 0.1618668 0.004110253 -0.498175
v 0.5238121 0.004110253 0
v 0.4237728 0.004110253 0.307889
v 0.1618668 0.004110253 0.4981749
v -0.1618668 0.004110253 0.4981749
v -0.4237729 0.004110253 0.3078891
v -0.5238121 0.004110253 3.129244E-08
v -0.423773 0.004110253 -0.307889
v -0.1618669 0.004110253 -0.4981749
v 0.4237729 1.375594 -0.3078891
v 0.5238121 1.375594 0
v 0.1618668 1.375594 -0.498175
v -0.1618669 1.375594 -0.4981749
v -0.423773 1.375594 -0.307889
v -0.5238121 1.375594 3.129244E-08
v -0.4237729 1.375594 0.3078891
v -0.1618668 1.375594 0.4981749
v 0.1618668 1.375594 0.4981749
v 0.4237728 1.375594 0.307889
vt 0.6142226 0.07691205
vt 0.6142226 0.1427616
vt 0.6336204 0.1427616
vt 0.6336204 0.07691205
vt 0.6530182 0.1427616
vt 0.6530182 0.07691205
vt 0.6530182 0.07691205
vt 0.6530182 0.1427616
vt 0.6724162 0.1427616
vt 0.6724162 0.07691205
vt 0.6918142 0.1427616
vt 0.6918142 0.07691205
vt 0.6918142 0.07691205
vt 0.6918142 0.1427616
vt 0.7112119 0.1427616
vt 0.7112119 0.07691205
vt 0.6140763 0.07691205
vt 0.6140763 0.1427616
vt 0.6334741 0.1427616
vt 0.6334741 0.07691205
vt 0.652872 0.1427616
vt 0.652872 0.07691205
vt 0.652872 0.07691205
vt 0.652872 0.1427616
vt 0.6722699 0.1427616
vt 0.6722699 0.07691205
vt 0.6916677 0.1427616
vt 0.6916677 0.07691205
vt 0.6916677 0.07691205
vt 0.6916677 0.1427616
vt 0.7110656 0.1427616
vt 0.7110656 0.07691205
vt 0.7730421 0.1043887
vt 0.7581817 0.09359196
vt 0.7787182 0.1218581
vt 0.7730421 0.1393275
vt 0.7581817 0.1501243
vt 0.7398134 0.1501243
vt 0.7249528 0.1393275
vt 0.7192765 0.1218581
vt 0.7249528 0.1043887
vt 0.7398133 0.09359196
vt 0.7730228 0.1393021
vt 0.7786989 0.1218327
vt 0.7581622 0.1500988
vt 0.7397938 0.1500988
vt 0.7249334 0.1393021
vt 0.7192571 0.1218327
vt 0.7249334 0.1043632
vt 0.7397938 0.09356654
vt 0.7581623 0.09356654
vt 0.7730228 0.1043632
vn 0.809017 0 -0.5877852
vn 0.809017 0 -0.5877852
vn 0.3090169 0 -0.9510565
vn 0.3090169 0 -0.9510565
vn -0.3090172 0 -0.9510565
vn -0.3090172 0 -0.9510565
vn -0.3090172 0 -0.9510565
vn -0.3090172 0 -0.9510565
vn -0.8090171 0 -0.5877852
vn -0.8090171 0 -0.5877852
vn -1 0 0
vn -1 0 0
vn -1 0 0
vn -1 0 0
vn -0.8090169 0 0.5877854
vn -0.8090169 0 0.5877854
vn -0.8090169 0 0.5877854
vn -0.8090169 0 0.5877854
vn -0.3090169 0 0.9510565
vn -0.3090169 0 0.9510565
vn 0.3090172 0 0.9510565
vn 0.3090172 0 0.9510565
vn 0.3090172 0 0.9510565
vn 0.3090172 0 0.9510565
vn 0.809017 0 0.5877852
vn 0.809017 0 0.5877852
vn 1 0 0
vn 1 0 0
vn 1 0 0
vn 1 0 0
vn 0.809017 0 -0.5877852
vn 0.809017 0 -0.5877852
vn 0 -1 0
vn 0 -1 0
vn 0 -1 0
vn 0 -1 0
vn 0 -1 0
vn 0 -1 0
vn 0 -1 0
vn 0 -1 0
vn 0 -1 0
vn 0 -1 0
vn 0 1 0
vn 0 1 0
vn 0 1 0
vn 0 1 0
vn 0 1 0
vn 0 1 0
vn 0 1 0
vn 0 1 0
vn 0 1 0
vn 0 1 0
g pCylinder14_0
f 3/3/3 2/2/2 1/1/1
f 4/4/4 3/3/3 1/1/1
f 5/5/5 3/3/3 4/4/4
f 6/6/6 5/5/5 4/4/4
f 9/9/9 8/8/8 7/7/7
f 10/10/10 9/9/9 7/7/7
f 11/11/11 9/9/9 10/10/10
f 12/12/12 11/11/11 10/10/10
f 15/15/15 14/14/14 13/13/13
f 16/16/16 15/15/15 13/13/13
f 19/19/19 18/18/18 17/17/17
f 20/20/20 19/19/19 17/17/17
f 21/21/21 19/19/19 20/20/20
f 22/22/22 21/21/21 20/20/20
f 25/25/25 24/24/24 23/23/23
f 26/26/26 25/25/25 23/23/23
f 27/27/27 25/25/25 26/26/26
f 28/28/28 27/27/27 26/26/26
f 31/31/31 30/30/30 29/29/29
f 32/32/32 31/31/31 29/29/29
f 35/35/35 34/34/34 33/33/33
f 35/35/35 36/36/36 34/34/34
f 36/36/36 37/37/37 34/34/34
f 37/37/37 38/38/38 34/34/34
f 38/38/38 39/39/39 34/34/34
f 39/39/39 40/40/40 34/34/34
f 40/40/40 41/41/41 34/34/34
f 42/42/42 34/34/34 41/41/41
f 45/45/45 44/44/44 43/43/43
f 45/45/45 46/46/46 44/44/44
f 46/46/46 47/47/47 44/44/44
f 47/47/47 48/48/48 44/44/44
f 48/48/48 49/49/49 44/44/44
f 49/49/49 50/50/50 44/44/44
f 50/50/50 51/51/51 44/44/44
f 52/52/52 44/44/44 51/51/51
