g plank
v 0.9716809 -0.02150302 0.144887
v 0.974301 0.02150402 -0.129022
v 0.974143 -0.01230998 -0.130154
v 0.971839 0.01231098 0.146019
v 0.974143 -0.01230998 -0.130154
v -1.065679 0.02138802 -0.116528
v -1.065592 -0.009397981 -0.118004
v 0.974301 0.02150402 -0.129022
v -1.065592 -0.009397981 -0.118004
v -1.061208 0.009398977 0.133856
v -1.061121 -0.02138802 0.132381
v -1.065679 0.02138802 -0.116528
v -1.061121 -0.02138802 0.132381
v 0.971839 0.01231098 0.146019
v 0.9716809 -0.02150302 0.144887
v -1.061208 0.009398977 0.133856
v 0.971839 0.01231098 0.146019
v -1.065679 0.02138802 -0.116528
v 0.974301 0.02150402 -0.129022
v -1.061208 0.009398977 0.133856
v -1.061121 -0.02138802 0.132381
v 0.974143 -0.01230998 -0.130154
v -1.065592 -0.009397981 -0.118004
v 0.9716809 -0.02150302 0.144887
vt 0.015001 5.3E-05
vt 5.3E-05 0.121647
vt 0.015002 0.121647
vt 5.3E-05 5.3E-05
vt 0.015002 0.121647
vt 0.985031 0.138578
vt 0.984998 0.121647
vt 0.015034 0.138578
vt 0.984998 0.121647
vt 0.999947 5.3E-05
vt 0.984998 5.3E-05
vt 0.999947 0.121647
vt 0.985063 0.277103
vt 0.015034 0.260172
vt 0.015067 0.277103
vt 0.985031 0.260172
vt 0.015034 0.260172
vt 0.985031 0.138578
vt 0.015034 0.138578
vt 0.985031 0.260172
vt 0.984998 5.3E-05
vt 0.015002 0.121647
vt 0.984998 0.121647
vt 0.015001 5.3E-05
vn 0.9999491 -0.004966949 0.008784249
vn 0.9999491 -0.004966987 0.008784316
vn 0.9999491 -0.004966987 0.008784316
vn 0.9999491 -0.004967068 0.008783296
vn -0.006011968 0.04033318 -0.9991682
vn -0.006011961 0.04033326 -0.9991682
vn -0.006011961 0.04033314 -0.9991682
vn -0.006011968 0.04033306 -0.9991682
vn -0.9998369 -0.003679055 0.01767739
vn -0.9998369 -0.003679055 0.01767834
vn -0.9998369 -0.003679055 0.01767834
vn -0.9998369 -0.003678816 0.01767834
vn -0.006034853 -0.04031731 0.9991688
vn -0.006034853 -0.04031719 0.9991688
vn -0.006034847 -0.04031703 0.9991688
vn -0.006027224 -0.04031713 0.9991688
vn -0.0007400514 0.999188 0.0402832
vn -0.0007400512 0.9991879 0.04028511
vn -0.0007400511 0.9991879 0.0402851
vn -0.0007324219 0.999188 0.0402832
vn -0.0007400514 -0.9991881 -0.0402794
vn -0.0007400516 -0.9991882 -0.0402775
vn -0.0007400516 -0.9991882 -0.04027845
vn -0.0007400517 -0.9991882 -0.04027846
g plank_0
f 3/3/3 2/2/2 1/1/1
f 4/4/4 1/1/1 2/2/2
f 7/7/7 6/6/6 5/5/5
f 8/8/8 5/5/5 6/6/6
f 11/11/11 10/10/10 9/9/9
f 12/12/12 9/9/9 10/10/10
f 15/15/15 14/14/14 13/13/13
f 16/16/16 13/13/13 14/14/14
f 19/19/19 18/18/18 17/17/17
f 20/20/20 17/17/17 18/18/18
f 23/23/23 22/22/22 21/21/21
f 24/24/24 21/21/21 22/22/22
