g Plt_A_A_03
v -0.08386101 -0.2959467 0.3838597
v -0.1999999 -0.2959464 0.4999985
v -2.288818E-07 -0.2959469 0.4999987
v -2.288818E-07 -0.2959469 0.3838596
v -2.288818E-07 -0.2959469 0.4999987
v -0.1999999 -0.2959464 0.4999985
v -0.2000004 -0.242757 0.499999
v -2.288818E-07 -0.2427574 0.499999
v -2.288818E-07 -0.08318899 0.4999989
v -0.2000003 -0.08318847 0.4999989
v -0.2000002 -0.02999849 0.4999988
v -2.288818E-07 -0.02999901 0.4999989
v -2.288818E-07 -0.2427574 0.3838595
v -0.08386093 -0.2427572 0.3838596
v -0.08386101 -0.2959467 0.3838597
v -2.288818E-07 -0.2959469 0.3838596
v -2.288818E-07 -0.02999901 0.4999989
v -0.2000002 -0.02999849 0.4999988
v -0.08386085 -0.02999881 0.3838595
v -2.288818E-07 -0.02999903 0.3838595
v -2.288818E-07 -0.02999903 0.3838595
v -0.08386085 -0.02999881 0.3838595
v -0.08386085 -0.08318878 0.3838595
v -2.288818E-07 -0.083189 0.3838595
v -0.08386085 -0.08318878 0.3838595
v -0.1275339 -0.08953767 0.4275326
v -2.288818E-07 -0.089538 0.4275325
v -2.288818E-07 -0.083189 0.3838595
v -2.288818E-07 -0.089538 0.4275325
v -0.1275339 -0.08953767 0.4275326
v -0.1275339 -0.2364076 0.4275326
v -2.288818E-07 -0.2364079 0.4275325
v -2.288818E-07 -0.2364079 0.4275325
v -0.1275339 -0.2364076 0.4275326
v -0.08386093 -0.2427572 0.3838596
v -2.288818E-07 -0.2427574 0.3838595
v -0.1563279 -0.08953815 0.4563265
v -0.2000003 -0.08318847 0.4999989
v -2.288818E-07 -0.08318899 0.4999989
v -2.288818E-07 -0.08953847 0.4563265
v -2.288818E-07 -0.2364079 0.4563265
v -0.1563279 -0.2364075 0.4563265
v -0.1563279 -0.08953815 0.4563265
v -2.288818E-07 -0.08953847 0.4563265
v -2.288818E-07 -0.2427574 0.499999
v -0.2000004 -0.242757 0.499999
v -0.1563279 -0.2364075 0.4563265
v -2.288818E-07 -0.2364079 0.4563265
v -0.2000001 -0.2959477 -1.322886E-08
v -0.1999999 -0.2959464 0.4999985
v -0.08386101 -0.2959467 0.3838597
v -0.0838607 -0.2959477 -1.322886E-08
v -0.2000004 -0.242757 0.499999
v -0.1999999 -0.2959464 0.4999985
v -0.2000001 -0.2959477 -1.322886E-08
v -0.2000004 -0.242758 -1.005851E-08
v -0.2000002 -0.02999849 0.4999988
v -0.2000003 -0.08318847 0.4999989
v -0.2000002 -0.0831898 -5.475017E-10
v -0.2000002 -0.02999982 2.622868E-09
v -0.08386101 -0.2959467 0.3838597
v -0.08386093 -0.2427572 0.3838596
v -0.08386062 -0.242758 -1.005851E-08
v -0.0838607 -0.2959477 -1.322886E-08
v -0.08386085 -0.02999881 0.3838595
v -0.2000002 -0.02999849 0.4999988
v -0.2000002 -0.02999982 2.622868E-09
v -0.08386062 -0.02999983 2.622865E-09
v -0.08386085 -0.08318878 0.3838595
v -0.08386085 -0.02999881 0.3838595
v -0.08386062 -0.02999983 2.622865E-09
v -0.08386062 -0.08318981 -5.47504E-10
v -0.08386085 -0.08318878 0.3838595
v -0.08386062 -0.08318981 -5.47504E-10
v -0.1275336 -0.0895388 -9.259331E-10
v -0.1275339 -0.08953767 0.4275326
v -0.1275339 -0.2364076 0.4275326
v -0.1275339 -0.08953767 0.4275326
v -0.1275336 -0.0895388 -9.259331E-10
v -0.1275336 -0.2364087 -9.680063E-09
v -0.08386093 -0.2427572 0.3838596
v -0.1275339 -0.2364076 0.4275326
v -0.1275336 -0.2364087 -9.680063E-09
v -0.08386062 -0.242758 -1.005851E-08
v -0.1563279 -0.08953815 0.4563265
v -0.1563276 -0.0895391 -9.259499E-10
v -0.2000002 -0.0831898 -5.475017E-10
v -0.2000003 -0.08318847 0.4999989
v -0.1563279 -0.08953815 0.4563265
v -0.1563279 -0.2364075 0.4563265
v -0.1563276 -0.2364087 -9.680062E-09
v -0.1563276 -0.0895391 -9.259499E-10
v -0.1563279 -0.2364075 0.4563265
v -0.2000004 -0.242757 0.499999
v -0.2000004 -0.242758 -1.005851E-08
v -0.1563276 -0.2364087 -9.680062E-09
v -2.288818E-07 -0.295947 -0.4999987
v -0.1999999 -0.2959465 -0.4999985
v -0.08386101 -0.2959467 -0.3838597
v -2.288818E-07 -0.2959469 -0.3838596
v -0.2000004 -0.2427571 -0.499999
v -0.1999999 -0.2959465 -0.4999985
v -2.288818E-07 -0.295947 -0.4999987
v -2.288818E-07 -0.2427575 -0.499999
v -0.2000002 -0.02999855 -0.4999988
v -0.2000003 -0.08318852 -0.4999989
v -2.288818E-07 -0.08318905 -0.4999989
v -2.288818E-07 -0.02999907 -0.4999989
v -0.08386101 -0.2959467 -0.3838597
v -0.08386093 -0.2427573 -0.3838596
v -2.288818E-07 -0.2427574 -0.3838595
v -2.288818E-07 -0.2959469 -0.3838596
v -0.08386085 -0.02999886 -0.3838595
v -0.2000002 -0.02999855 -0.4999988
v -2.288818E-07 -0.02999907 -0.4999989
v -2.288818E-07 -0.02999907 -0.3838595
v -0.08386085 -0.08318882 -0.3838595
v -0.08386085 -0.02999886 -0.3838595
v -2.288818E-07 -0.02999907 -0.3838595
v -2.288818E-07 -0.08318905 -0.3838595
v -0.08386085 -0.08318882 -0.3838595
v -2.288818E-07 -0.08318905 -0.3838595
v -2.288818E-07 -0.08953805 -0.4275325
v -0.1275339 -0.08953772 -0.4275326
v -0.1275339 -0.2364076 -0.4275326
v -0.1275339 -0.08953772 -0.4275326
v -2.288818E-07 -0.08953805 -0.4275325
v -2.288818E-07 -0.236408 -0.4275325
v -0.08386093 -0.2427573 -0.3838596
v -0.1275339 -0.2364076 -0.4275326
v -2.288818E-07 -0.236408 -0.4275325
v -2.288818E-07 -0.2427574 -0.3838595
v -0.1563279 -0.08953821 -0.4563265
v -2.288818E-07 -0.08953852 -0.4563265
v -2.288818E-07 -0.08318905 -0.4999989
v -0.2000003 -0.08318852 -0.4999989
v -0.1563279 -0.08953821 -0.4563265
v -0.1563279 -0.2364076 -0.4563265
v -2.288818E-07 -0.236408 -0.4563265
v -2.288818E-07 -0.08953852 -0.4563265
v -0.1563279 -0.2364076 -0.4563265
v -0.2000004 -0.2427571 -0.499999
v -2.288818E-07 -0.2427575 -0.499999
v -2.288818E-07 -0.236408 -0.4563265
v -0.08386101 -0.2959467 -0.3838597
v -0.1999999 -0.2959465 -0.4999985
v -0.2000001 -0.2959477 -1.322886E-08
v -0.0838607 -0.2959477 -1.322886E-08
v -0.2000001 -0.2959477 -1.322886E-08
v -0.1999999 -0.2959465 -0.4999985
v -0.2000004 -0.2427571 -0.499999
v -0.2000004 -0.242758 -1.005851E-08
v -0.2000002 -0.0831898 -5.475017E-10
v -0.2000003 -0.08318852 -0.4999989
v -0.2000002 -0.02999855 -0.4999988
v -0.2000002 -0.02999982 2.622868E-09
v -0.08386062 -0.242758 -1.005851E-08
v -0.08386093 -0.2427573 -0.3838596
v -0.08386101 -0.2959467 -0.3838597
v -0.0838607 -0.2959477 -1.322886E-08
v -0.2000002 -0.02999982 2.622868E-09
v -0.2000002 -0.02999855 -0.4999988
v -0.08386085 -0.02999886 -0.3838595
v -0.08386062 -0.02999983 2.622865E-09
v -0.08386062 -0.02999983 2.622865E-09
v -0.08386085 -0.02999886 -0.3838595
v -0.08386085 -0.08318882 -0.3838595
v -0.08386062 -0.08318981 -5.47504E-10
v -0.08386085 -0.08318882 -0.3838595
v -0.1275339 -0.08953772 -0.4275326
v -0.1275336 -0.0895388 -9.259331E-10
v -0.08386062 -0.08318981 -5.47504E-10
v -0.1275336 -0.0895388 -9.259331E-10
v -0.1275339 -0.08953772 -0.4275326
v -0.1275339 -0.2364076 -0.4275326
v -0.1275336 -0.2364087 -9.680063E-09
v -0.1275336 -0.2364087 -9.680063E-09
v -0.1275339 -0.2364076 -0.4275326
v -0.08386093 -0.2427573 -0.3838596
v -0.08386062 -0.242758 -1.005851E-08
v -0.1563279 -0.08953821 -0.4563265
v -0.2000003 -0.08318852 -0.4999989
v -0.2000002 -0.0831898 -5.475017E-10
v -0.1563276 -0.0895391 -9.259499E-10
v -0.1563276 -0.2364087 -9.680062E-09
v -0.1563279 -0.2364076 -0.4563265
v -0.1563279 -0.08953821 -0.4563265
v -0.1563276 -0.0895391 -9.259499E-10
v -0.2000004 -0.242758 -1.005851E-08
v -0.2000004 -0.2427571 -0.499999
v -0.1563279 -0.2364076 -0.4563265
v -0.1563276 -0.2364087 -9.680062E-09
vt 0.8838613 0.9820465
vt 1 0.9946949
vt 0.8000003 0.9946951
vt 0.8000005 0.9820465
vt 0.8000003 0.8590898
vt 1 0.8590899
vt 1 0.8700938
vt 0.7999999 0.8700938
vt 0.8 0.9050754
vt 1 0.9050755
vt 1 0.915176
vt 0.8 0.9151759
vt 0.8000005 0.9719462
vt 0.8838613 0.9719462
vt 0.8838613 0.9820465
vt 0.8000005 0.9820465
vt 0.8 0.9151759
vt 1 0.915176
vt 0.8838611 0.9268641
vt 0.8000004 0.9268641
vt 0.8000004 0.9268641
vt 0.8838611 0.9268641
vt 0.8838611 0.9369644
vt 0.8000004 0.9369644
vt 0.8838611 0.9369644
vt 0.9275342 0.9470647
vt 0.8000004 0.9470648
vt 0.8000004 0.9369644
vt 0.8000004 0.9470648
vt 0.9275342 0.9470647
vt 0.9275342 0.9618458
vt 0.8000004 0.9618458
vt 0.8000004 0.9618458
vt 0.9275342 0.9618458
vt 0.8838613 0.9719462
vt 0.8000005 0.9719462
vt 0.9563283 0.8949752
vt 1 0.9050755
vt 0.8 0.9050754
vt 0.8000005 0.8949752
vt 0.8000005 0.8801941
vt 0.9563283 0.8801941
vt 0.9563283 0.8949752
vt 0.8000005 0.8949752
vt 0.7999999 0.8700938
vt 1 0.8700938
vt 0.9563283 0.8801941
vt 0.8000005 0.8801941
vt 0.5000014 0.9946951
vt 1 0.9946949
vt 0.8838613 0.9820465
vt 0.5000015 0.9820465
vt 1 0.8700938
vt 1 0.8590899
vt 0.5000014 0.8590897
vt 0.5000013 0.8700937
vt 1 0.915176
vt 1 0.9050755
vt 0.5000013 0.9050754
vt 0.5000013 0.9151758
vt 0.8838613 0.9820465
vt 0.8838613 0.9719462
vt 0.5000016 0.9719462
vt 0.5000015 0.9820465
vt 0.8838611 0.9268641
vt 1 0.915176
vt 0.5000013 0.9151758
vt 0.5000015 0.9268641
vt 0.8838611 0.9369644
vt 0.8838611 0.9268641
vt 0.5000015 0.9268641
vt 0.5000015 0.9369645
vt 0.8838611 0.9369644
vt 0.5000015 0.9369645
vt 0.5000015 0.9470648
vt 0.9275342 0.9470647
vt 0.9275342 0.9618458
vt 0.9275342 0.9470647
vt 0.5000015 0.9470648
vt 0.5000015 0.9618459
vt 0.8838613 0.9719462
vt 0.9275342 0.9618458
vt 0.5000015 0.9618459
vt 0.5000016 0.9719462
vt 0.9563283 0.8949752
vt 0.5000017 0.8949751
vt 0.5000013 0.9050754
vt 1 0.9050755
vt 0.9563283 0.8949752
vt 0.9563283 0.8801941
vt 0.5000017 0.8801939
vt 0.5000017 0.8949751
vt 0.9563283 0.8801941
vt 1 0.8700938
vt 0.5000013 0.8700937
vt 0.5000017 0.8801939
vt 0.8000003 0.9946951
vt 1 0.9946949
vt 0.8838613 0.9820465
vt 0.8000005 0.9820466
vt 1 0.8700938
vt 1 0.8590899
vt 0.8000003 0.8590899
vt 0.7999999 0.8700938
vt 1 0.915176
vt 1 0.9050755
vt 0.8 0.9050754
vt 0.8 0.9151759
vt 0.8838613 0.9820465
vt 0.8838613 0.9719462
vt 0.8000005 0.9719462
vt 0.8000005 0.9820466
vt 0.8838611 0.9268641
vt 1 0.915176
vt 0.8 0.9151759
vt 0.8000004 0.9268641
vt 0.8838611 0.9369644
vt 0.8838611 0.9268641
vt 0.8000004 0.9268641
vt 0.8000004 0.9369644
vt 0.8838611 0.9369644
vt 0.8000004 0.9369644
vt 0.8000004 0.9470648
vt 0.9275342 0.9470647
vt 0.9275342 0.9618458
vt 0.9275342 0.9470647
vt 0.8000004 0.9470648
vt 0.8000004 0.9618458
vt 0.8838613 0.9719462
vt 0.9275342 0.9618458
vt 0.8000004 0.9618458
vt 0.8000005 0.9719462
vt 0.9563283 0.8949752
vt 0.8000005 0.8949752
vt 0.8 0.9050754
vt 1 0.9050755
vt 0.9563283 0.8949752
vt 0.9563283 0.8801941
vt 0.8000005 0.8801941
vt 0.8000005 0.8949752
vt 0.9563283 0.8801941
vt 1 0.8700938
vt 0.7999999 0.8700938
vt 0.8000005 0.8801941
vt 0.8838613 0.9820465
vt 1 0.9946949
vt 0.5000014 0.9946951
vt 0.5000015 0.9820465
vt 0.5000014 0.8590897
vt 1 0.8590899
vt 1 0.8700938
vt 0.5000013 0.8700937
vt 0.5000013 0.9050754
vt 1 0.9050755
vt 1 0.915176
vt 0.5000013 0.9151758
vt 0.5000016 0.9719462
vt 0.8838613 0.9719462
vt 0.8838613 0.9820465
vt 0.5000015 0.9820465
vt 0.5000013 0.9151758
vt 1 0.915176
vt 0.8838611 0.9268641
vt 0.5000015 0.9268641
vt 0.5000015 0.9268641
vt 0.8838611 0.9268641
vt 0.8838611 0.9369644
vt 0.5000015 0.9369645
vt 0.8838611 0.9369644
vt 0.9275342 0.9470647
vt 0.5000015 0.9470648
vt 0.5000015 0.9369645
vt 0.5000015 0.9470648
vt 0.9275342 0.9470647
vt 0.9275342 0.9618458
vt 0.5000015 0.9618459
vt 0.5000015 0.9618459
vt 0.9275342 0.9618458
vt 0.8838613 0.9719462
vt 0.5000016 0.9719462
vt 0.9563283 0.8949752
vt 1 0.9050755
vt 0.5000013 0.9050754
vt 0.5000017 0.8949751
vt 0.5000017 0.8801939
vt 0.9563283 0.8801941
vt 0.9563283 0.8949752
vt 0.5000017 0.8949751
vt 0.5000013 0.8700937
vt 1 0.8700938
vt 0.9563283 0.8801941
vt 0.5000017 0.8801939
vn -1.146839E-06 -1 1.263627E-06
vn -1.146839E-06 -1 1.263628E-06
vn -2.553341E-06 -1 -1.270607E-07
vn -2.553341E-06 -1 -1.270607E-07
vn -3.814866E-07 -7.171907E-06 1
vn -3.814866E-07 -7.171907E-06 1
vn -3.814867E-07 -7.171907E-06 1
vn -3.814866E-07 -7.171906E-06 1
vn -1.907329E-07 7.171835E-07 1
vn -1.907329E-07 7.171836E-07 1
vn -1.907329E-07 7.171836E-07 1
vn -1.907329E-07 7.171836E-07 1
vn -4.54888E-07 -1.43438E-06 -1
vn -4.54888E-07 -1.43438E-06 -1
vn -4.54888E-07 -1.43438E-06 -1
vn -4.54888E-07 -1.43438E-06 -1
vn 2.603532E-06 1 -1.417077E-07
vn 1.342819E-06 1 -1.402422E-06
vn 1.342819E-06 1 -1.402421E-06
vn 2.603531E-06 1 -1.417077E-07
vn -4.548854E-07 0 -1
vn -4.548854E-07 0 -1
vn -4.548854E-07 0 -1
vn -4.548854E-07 0 -1
vn 0.07230552 -0.9947581 -0.07230543
vn 0.07230552 -0.9947582 -0.07230543
vn -2.6214E-06 -0.9895976 -0.1438634
vn -2.621399E-06 -0.9895975 -0.1438634
vn -5.982257E-07 0 -1
vn -5.982257E-07 0 -1
vn -5.982257E-07 0 -1
vn -5.982258E-07 0 -1
vn 2.333256E-06 0.9895959 -0.1438743
vn 0.07231253 0.9947572 -0.07231347
vn 0.07231253 0.9947572 -0.07231347
vn 2.333256E-06 0.9895959 -0.1438743
vn -0.07231376 -0.9947569 0.07231504
vn -0.07231385 -0.9947569 0.07231496
vn -2.30189E-06 -0.9895955 0.1438773
vn -2.30189E-06 -0.9895955 0.1438773
vn 4.880386E-07 0 1
vn 4.880386E-07 0 1
vn 4.880386E-07 0 1
vn 4.880386E-07 0 1
vn 2.293168E-06 0.9895956 0.1438771
vn -0.07231144 0.9947573 0.07231247
vn -0.07231133 0.9947573 0.07231258
vn 2.293168E-06 0.9895956 0.1438771
vn 3.094075E-07 -1 0
vn -1.146839E-06 -1 1.263628E-06
vn -1.146839E-06 -1 1.263627E-06
vn 3.094075E-07 -1 0
vn -1 -7.171892E-06 1.526054E-07
vn -1 -7.171893E-06 1.526054E-07
vn -1 -7.171892E-06 0
vn -1 -7.171892E-06 0
vn -1 7.171835E-07 0
vn -1 7.171834E-07 0
vn -1 7.171835E-07 0
vn -1 7.171835E-07 0
vn 1 -1.434377E-06 7.950226E-07
vn 1 -1.434377E-06 7.950226E-07
vn 1 -1.434377E-06 0
vn 1 -1.434377E-06 0
vn 1.342819E-06 1 -1.402421E-06
vn 1.342819E-06 1 -1.402422E-06
vn 0 1 0
vn 0 1 0
vn 1 0 5.962645E-07
vn 1 0 5.962646E-07
vn 1 0 0
vn 1 0 0
vn 0.07230552 -0.9947581 -0.07230543
vn 0.1438634 -0.9895975 0
vn 0.1438634 -0.9895975 0
vn 0.07230552 -0.9947582 -0.07230543
vn 1 0 7.13807E-07
vn 1 0 7.13807E-07
vn 1 0 0
vn 1 0 0
vn 0.07231253 0.9947572 -0.07231347
vn 0.07231253 0.9947572 -0.07231347
vn 0.1438724 0.9895963 0
vn 0.1438724 0.9895963 0
vn -0.07231376 -0.9947569 0.07231504
vn -0.1438749 -0.9895958 0
vn -0.1438749 -0.9895958 0
vn -0.07231385 -0.9947569 0.07231496
vn -1 0 -6.687662E-07
vn -1 0 -6.687662E-07
vn -1 0 0
vn -1 0 0
vn -0.07231133 0.9947573 0.07231258
vn -0.07231144 0.9947573 0.07231247
vn -0.1438748 0.9895959 0
vn -0.1438748 0.9895959 0
vn -2.620533E-06 -1 5.712319E-07
vn -1.13069E-06 -1 -9.768028E-07
vn -1.13069E-06 -1 -9.768025E-07
vn -2.620533E-06 -1 5.712319E-07
vn -3.814866E-07 -7.171903E-06 -1
vn -3.814866E-07 -7.171903E-06 -1
vn -3.814866E-07 -7.171903E-06 -1
vn -3.814866E-07 -7.171903E-06 -1
vn -1.907329E-07 7.171837E-07 -1
vn -1.907329E-07 7.171837E-07 -1
vn -1.907329E-07 7.171837E-07 -1
vn -1.907329E-07 7.171837E-07 -1
vn -4.548881E-07 -1.43438E-06 1
vn -4.548881E-07 -1.43438E-06 1
vn -4.548881E-07 -1.43438E-06 1
vn -4.548881E-07 -1.43438E-06 1
vn 1.342819E-06 1 1.283211E-06
vn 1.342819E-06 1 1.283212E-06
vn 2.603532E-06 1 0
vn 2.603531E-06 1 0
vn -4.548854E-07 0 1
vn -4.548854E-07 0 1
vn -4.548854E-07 0 1
vn -4.548854E-07 0 1
vn 0.07230549 -0.9947581 0.07230549
vn -2.621399E-06 -0.9895976 0.1438634
vn -2.6214E-06 -0.9895976 0.1438634
vn 0.07230548 -0.9947581 0.07230549
vn -5.982257E-07 0 1
vn -5.982257E-07 0 1
vn -5.982257E-07 0 1
vn -5.982258E-07 0 1
vn 0.07231257 0.9947572 0.07231342
vn 0.07231257 0.9947572 0.07231342
vn 2.333256E-06 0.9895959 0.1438743
vn 2.333256E-06 0.9895959 0.1438743
vn -0.0723138 -0.9947569 -0.072315
vn -2.317431E-06 -0.9895955 -0.1438773
vn -2.317431E-06 -0.9895955 -0.1438774
vn -0.07231389 -0.9947569 -0.07231492
vn 2.440194E-07 0 -1
vn 2.440194E-07 0 -1
vn 2.440194E-07 0 -1
vn 2.440194E-07 0 -1
vn -0.07231157 0.9947573 -0.07231297
vn -0.07231167 0.9947573 -0.07231286
vn 2.224563E-06 0.9895955 -0.1438777
vn 2.224563E-06 0.9895955 -0.1438777
vn -1.13069E-06 -1 -9.768025E-07
vn -1.13069E-06 -1 -9.768028E-07
vn 3.094075E-07 -1 0
vn 3.094075E-07 -1 0
vn -1 -7.171892E-06 0
vn -1 -7.171893E-06 -1.526043E-07
vn -1 -7.171893E-06 -1.526043E-07
vn -1 -7.171892E-06 0
vn -1 7.171835E-07 0
vn -1 7.171835E-07 0
vn -1 7.171834E-07 0
vn -1 7.171835E-07 0
vn 1 -1.434377E-06 0
vn 1 -1.434377E-06 -7.950224E-07
vn 1 -1.434377E-06 -7.950225E-07
vn 1 -1.434377E-06 0
vn 0 1 0
vn 1.342819E-06 1 1.283212E-06
vn 1.342819E-06 1 1.283211E-06
vn 0 1 0
vn 1 0 0
vn 1 0 -5.962646E-07
vn 1 0 -5.962646E-07
vn 1 0 0
vn 0.07230549 -0.9947581 0.07230549
vn 0.07230548 -0.9947581 0.07230549
vn 0.1438634 -0.9895975 0
vn 0.1438634 -0.9895975 0
vn 1 0 0
vn 1 0 -7.13807E-07
vn 1 0 -7.13807E-07
vn 1 0 0
vn 0.1438724 0.9895963 0
vn 0.07231257 0.9947572 0.07231342
vn 0.07231257 0.9947572 0.07231342
vn 0.1438724 0.9895963 0
vn -0.0723138 -0.9947569 -0.072315
vn -0.07231389 -0.9947569 -0.07231492
vn -0.1438749 -0.9895958 0
vn -0.1438749 -0.9895958 0
vn -1 0 0
vn -1 0 6.687662E-07
vn -1 0 6.687662E-07
vn -1 0 0
vn -0.1438748 0.9895959 0
vn -0.07231167 0.9947573 -0.07231286
vn -0.07231157 0.9947573 -0.07231297
vn -0.1438748 0.9895959 0
g Plt_A_A_03_0
f 3/3/3 2/2/2 1/1/1
f 4/4/4 3/3/3 1/1/1
f 7/7/7 6/6/6 5/5/5
f 8/8/8 7/7/7 5/5/5
f 11/11/11 10/10/10 9/9/9
f 12/12/12 11/11/11 9/9/9
f 15/15/15 14/14/14 13/13/13
f 16/16/16 15/15/15 13/13/13
f 19/19/19 18/18/18 17/17/17
f 20/20/20 19/19/19 17/17/17
f 23/23/23 22/22/22 21/21/21
f 24/24/24 23/23/23 21/21/21
f 27/27/27 26/26/26 25/25/25
f 28/28/28 27/27/27 25/25/25
f 31/31/31 30/30/30 29/29/29
f 32/32/32 31/31/31 29/29/29
f 35/35/35 34/34/34 33/33/33
f 36/36/36 35/35/35 33/33/33
f 39/39/39 38/38/38 37/37/37
f 40/40/40 39/39/39 37/37/37
f 43/43/43 42/42/42 41/41/41
f 44/44/44 43/43/43 41/41/41
f 47/47/47 46/46/46 45/45/45
f 48/48/48 47/47/47 45/45/45
f 51/51/51 50/50/50 49/49/49
f 52/52/52 51/51/51 49/49/49
f 55/55/55 54/54/54 53/53/53
f 56/56/56 55/55/55 53/53/53
f 59/59/59 58/58/58 57/57/57
f 60/60/60 59/59/59 57/57/57
f 63/63/63 62/62/62 61/61/61
f 64/64/64 63/63/63 61/61/61
f 67/67/67 66/66/66 65/65/65
f 68/68/68 67/67/67 65/65/65
f 71/71/71 70/70/70 69/69/69
f 72/72/72 71/71/71 69/69/69
f 75/75/75 74/74/74 73/73/73
f 76/76/76 75/75/75 73/73/73
f 79/79/79 78/78/78 77/77/77
f 80/80/80 79/79/79 77/77/77
f 83/83/83 82/82/82 81/81/81
f 84/84/84 83/83/83 81/81/81
f 87/87/87 86/86/86 85/85/85
f 88/88/88 87/87/87 85/85/85
f 91/91/91 90/90/90 89/89/89
f 92/92/92 91/91/91 89/89/89
f 95/95/95 94/94/94 93/93/93
f 96/96/96 95/95/95 93/93/93
f 99/99/99 98/98/98 97/97/97
f 100/100/100 99/99/99 97/97/97
f 103/103/103 102/102/102 101/101/101
f 104/104/104 103/103/103 101/101/101
f 107/107/107 106/106/106 105/105/105
f 108/108/108 107/107/107 105/105/105
f 111/111/111 110/110/110 109/109/109
f 112/112/112 111/111/111 109/109/109
f 115/115/115 114/114/114 113/113/113
f 116/116/116 115/115/115 113/113/113
f 119/119/119 118/118/118 117/117/117
f 120/120/120 119/119/119 117/117/117
f 123/123/123 122/122/122 121/121/121
f 124/124/124 123/123/123 121/121/121
f 127/127/127 126/126/126 125/125/125
f 128/128/128 127/127/127 125/125/125
f 131/131/131 130/130/130 129/129/129
f 132/132/132 131/131/131 129/129/129
f 135/135/135 134/134/134 133/133/133
f 136/136/136 135/135/135 133/133/133
f 139/139/139 138/138/138 137/137/137
f 140/140/140 139/139/139 137/137/137
f 143/143/143 142/142/142 141/141/141
f 144/144/144 143/143/143 141/141/141
f 147/147/147 146/146/146 145/145/145
f 148/148/148 147/147/147 145/145/145
f 151/151/151 150/150/150 149/149/149
f 152/152/152 151/151/151 149/149/149
f 155/155/155 154/154/154 153/153/153
f 156/156/156 155/155/155 153/153/153
f 159/159/159 158/158/158 157/157/157
f 160/160/160 159/159/159 157/157/157
f 163/163/163 162/162/162 161/161/161
f 164/164/164 163/163/163 161/161/161
f 167/167/167 166/166/166 165/165/165
f 168/168/168 167/167/167 165/165/165
f 171/171/171 170/170/170 169/169/169
f 172/172/172 171/171/171 169/169/169
f 175/175/175 174/174/174 173/173/173
f 176/176/176 175/175/175 173/173/173
f 179/179/179 178/178/178 177/177/177
f 180/180/180 179/179/179 177/177/177
f 183/183/183 182/182/182 181/181/181
f 184/184/184 183/183/183 181/181/181
f 187/187/187 186/186/186 185/185/185
f 188/188/188 187/187/187 185/185/185
f 191/191/191 190/190/190 189/189/189
f 192/192/192 191/191/191 189/189/189
