g Plt_A_B_01
v -1.859665E-07 2.002716E-07 -0.4890981
v -0.031403 -0.03000025 0.502507
v -0.03351863 3.600121E-07 0.5042869
v -0.031403 -0.03000025 0.502507
v -1.859665E-07 2.002716E-07 -0.4890981
v -0.001859317 -0.0300004 -0.4899563
v -0.2596442 3.957748E-07 0.5062148
v -0.2625246 -0.03000035 -0.4904267
v -0.2606652 2.324581E-07 -0.4895697
v -0.2625246 -0.03000035 -0.4904267
v -0.2596442 3.957748E-07 0.5062148
v -0.2575285 -0.03000021 0.5044353
v -0.2606652 2.324581E-07 -0.4895697
v -0.001859317 -0.0300004 -0.4899563
v -1.859665E-07 2.002716E-07 -0.4890981
v -0.2625246 -0.03000035 -0.4904267
v -0.03351863 3.600121E-07 0.5042869
v -0.2575285 -0.03000021 0.5044353
v -0.2596442 3.957748E-07 0.5062148
v -0.031403 -0.03000025 0.502507
v -0.2625246 -0.03000035 -0.4904267
v -0.031403 -0.03000025 0.502507
v -0.001859317 -0.0300004 -0.4899563
v -0.2575285 -0.03000021 0.5044353
v -0.2596442 3.957748E-07 0.5062148
v -1.859665E-07 2.002716E-07 -0.4890981
v -0.03351863 3.600121E-07 0.5042869
v -0.2606652 2.324581E-07 -0.4895697
vt 0.257501 0.693512
vt 0.7425155 0.710443
vt 0.742499 0.693512
vt 0.7425155 0.710443
vt 0.257501 0.693512
vt 0.257517 0.710443
vt 0.7425315 0.848967
vt 0.257517 0.832037
vt 0.2575335 0.848968
vt 0.257517 0.832037
vt 0.7425315 0.848967
vt 0.7425155 0.832037
vt 0.2575005 0.571918
vt 0.2500265 0.693512
vt 0.257501 0.693512
vt 0.2500265 0.571918
vt 0.742499 0.693512
vt 0.7499735 0.571918
vt 0.742499 0.571918
vt 0.7499735 0.693512
vt 0.257517 0.832037
vt 0.7425155 0.710443
vt 0.257517 0.710443
vt 0.7425155 0.832037
vt 0.742499 0.571918
vt 0.257501 0.693512
vt 0.742499 0.693512
vt 0.2575005 0.571918
vn 0.9970962 0.06831884 0.03364366
vn 0.9970962 0.06831884 0.03364366
vn 0.9970962 0.06831884 0.03364366
vn 0.9975924 -0.06267003 0.02969638
vn 0.9975924 -0.06267004 0.02969638
vn 0.9975924 -0.06267003 0.02969638
vn -0.9980862 0.0618296 0.001023392
vn -0.9980862 0.0618296 0.001023392
vn -0.9980862 0.0618296 0.001023392
vn -0.9974893 -0.07063967 0.005009236
vn -0.9974893 -0.07063966 0.005009236
vn -0.9974893 -0.07063967 0.005009237
vn 0.001808528 0.02848085 -0.9995927
vn 0.001808528 0.02848084 -0.9995927
vn 0.001808528 0.02848085 -0.9995927
vn 0.001804141 0.02844302 -0.9995938
vn 0.008510864 -0.05861049 0.9982446
vn 0.008510864 -0.0586105 0.9982446
vn 0.008510863 -0.05861049 0.9982446
vn 0.008512543 -0.05862303 0.9982439
vn -1.831985E-07 -1 1.482932E-07
vn -1.831985E-07 -1 1.482932E-07
vn -1.831985E-07 -1 1.482932E-07
vn -1.464193E-07 -1 1.397322E-07
vn 1.568287E-07 1 -1.555125E-07
vn 1.568287E-07 1 -1.555125E-07
vn 1.568287E-07 1 -1.555125E-07
vn 1.237754E-07 1 -1.641351E-07
g Plt_A_B_01_0
f 3/3/3 2/2/2 1/1/1
f 6/6/6 5/5/5 4/4/4
f 9/9/9 8/8/8 7/7/7
f 12/12/12 11/11/11 10/10/10
f 15/15/15 14/14/14 13/13/13
f 16/16/16 13/13/13 14/14/14
f 19/19/19 18/18/18 17/17/17
f 20/20/20 17/17/17 18/18/18
f 23/23/23 22/22/22 21/21/21
f 24/24/24 21/21/21 22/22/22
f 27/27/27 26/26/26 25/25/25
f 28/28/28 25/25/25 26/26/26
