g Plt_A_B_05
v -0.2301947 -0.02999972 0.533425
v 0.01100262 2.93923E-07 0.5360448
v 0.01199856 -0.02999969 0.5358868
v -0.2311916 2.685178E-07 0.5335829
v 0.01199856 -0.02999969 0.5358868
v 7.629397E-08 -3.273249E-07 -0.5039344
v 0.001299784 -0.03000032 -0.5038475
v 0.01100262 2.93923E-07 0.5360448
v 0.001299784 -0.03000032 -0.5038475
v -0.2204809 -3.477934E-07 -0.4994633
v -0.219182 -0.03000034 -0.4993762
v 7.629397E-08 -3.273249E-07 -0.5039344
v -0.219182 -0.03000034 -0.4993762
v -0.2311916 2.685178E-07 0.5335829
v -0.2301947 -0.02999972 0.533425
v -0.2204809 -3.477934E-07 -0.4994633
v -0.2311916 2.685178E-07 0.5335829
v 7.629397E-08 -3.273249E-07 -0.5039344
v 0.01100262 2.93923E-07 0.5360448
v -0.2204809 -3.477934E-07 -0.4994633
v -0.219182 -0.03000034 -0.4993762
v 0.01199856 -0.02999969 0.5358868
v 0.001299784 -0.03000032 -0.5038475
v -0.2301947 -0.02999972 0.533425
vt 0.2575005 5.3E-05
vt 0.2500265 0.121647
vt 0.257501 0.121647
vt 0.2500265 5.3E-05
vt 0.257501 0.121647
vt 0.7425155 0.138578
vt 0.742499 0.121647
vt 0.257517 0.138578
vt 0.742499 0.121647
vt 0.7499735 5.3E-05
vt 0.742499 5.3E-05
vt 0.7499735 0.121647
vt 0.7425315 0.277103
vt 0.257517 0.260172
vt 0.2575335 0.277103
vt 0.7425155 0.260172
vt 0.257517 0.260172
vt 0.7425155 0.138578
vt 0.257517 0.138578
vt 0.7425155 0.260172
vt 0.742499 5.3E-05
vt 0.257501 0.121647
vt 0.742499 0.121647
vt 0.2575005 5.3E-05
vn -0.01016414 -0.005601094 0.9999326
vn -0.01016414 -0.005601095 0.9999326
vn -0.01016414 -0.005601095 0.9999326
vn -0.0101641 -0.005601404 0.9999326
vn 0.9990114 0.043251 -0.01027977
vn 0.9990114 0.04325101 -0.01027977
vn 0.9990114 0.043251 -0.01027977
vn 0.9993917 0.0332336 -0.01057316
vn -0.02027529 -0.00377922 -0.9997873
vn -0.02027529 -0.00377922 -0.9997873
vn -0.02027529 -0.00377922 -0.9997873
vn -0.02027467 -0.00377465 -0.9997874
vn -0.9993935 -0.03315241 -0.01065648
vn -0.9993935 -0.03315241 -0.01065648
vn -0.9993935 -0.03315241 -0.01065648
vn -0.9990091 -0.04328407 -0.01035776
vn 0 1 -5.9632E-07
vn 0 1 -5.9632E-07
vn 0 1 -5.9632E-07
vn -1.049562E-07 1 -5.976842E-07
vn 0 -1 6.010348E-07
vn 0 -1 6.010348E-07
vn 0 -1 6.010347E-07
vn 0 -1 6.033156E-07
g Plt_A_B_05_0
f 3/3/3 2/2/2 1/1/1
f 4/4/4 1/1/1 2/2/2
f 7/7/7 6/6/6 5/5/5
f 8/8/8 5/5/5 6/6/6
f 11/11/11 10/10/10 9/9/9
f 12/12/12 9/9/9 10/10/10
f 15/15/15 14/14/14 13/13/13
f 16/16/16 13/13/13 14/14/14
f 19/19/19 18/18/18 17/17/17
f 20/20/20 17/17/17 18/18/18
f 23/23/23 22/22/22 21/21/21
f 24/24/24 21/21/21 22/22/22
