g Plt_A_A_01_Col
v -1.98952E-15 -0.2959466 -0.5000001
v -0.1999999 -0.2959466 -0.4999999
v -0.1999999 -0.295946 0.4999994
v -1.847411E-15 -0.2959461 0.4999994
v 1.421085E-16 -2.098083E-07 -0.5000005
v 2.842171E-16 4.768371E-08 0.4999999
v -0.1999999 4.768371E-08 0.4999999
v -0.1999999 -2.098083E-07 -0.5000004
v -1.98952E-15 -0.2959466 -0.5000001
v 1.421085E-16 -2.098083E-07 -0.5000005
v -0.1999999 -2.098083E-07 -0.5000004
v -0.1999999 -0.2959466 -0.4999999
v -0.1999999 -0.295946 0.4999994
v -0.1999999 4.768371E-08 0.4999999
v 2.842171E-16 4.768371E-08 0.4999999
v -1.847411E-15 -0.2959461 0.4999994
v 1.421085E-16 -2.098083E-07 -0.5000005
v -1.98952E-15 -0.2959466 -0.5000001
v -1.847411E-15 -0.2959461 0.4999994
v 2.842171E-16 4.768371E-08 0.4999999
vt 1 0
vt 0 0
vt 0 1
vt 1 1
vt 0 0
vt 0 1
vt 1 1
vt 1 0
vt 0 0
vt 0 1
vt 1 1
vt 1 0
vt 0 0
vt 0 1
vt 1 1
vt 1 0
vt 0 1
vt 1 0
vt 1 0
vt 0 1
vn -1.907347E-07 -1 5.340579E-07
vn -1.907347E-07 -1 5.340579E-07
vn -1.907347E-07 -1 5.340579E-07
vn -1.907347E-07 -1 5.340579E-07
vn 0 1 -2.57492E-07
vn 0 1 -2.57492E-07
vn 0 1 -2.57492E-07
vn 0 1 -2.57492E-07
vn -5.722049E-07 -1.546779E-06 -1
vn -5.722049E-07 -1.546779E-06 -1
vn -5.722049E-07 -1.546779E-06 -1
vn -5.722049E-07 -1.546779E-06 -1
vn -1.907351E-07 -1.804577E-06 1
vn -1.907351E-07 -1.804577E-06 1
vn -1.907351E-07 -1.804577E-06 1
vn -1.907351E-07 -1.804577E-06 1
vn 1 0 0
vn 1 0 0
vn 1 0 0
vn 1 0 0
g Plt_A_A_01_Col_0
f 3/3/3 2/2/2 1/1/1
f 4/4/4 3/3/3 1/1/1
f 7/7/7 6/6/6 5/5/5
f 8/8/8 7/7/7 5/5/5
f 11/11/11 10/10/10 9/9/9
f 12/12/12 11/11/11 9/9/9
f 15/15/15 14/14/14 13/13/13
f 16/16/16 15/15/15 13/13/13
f 19/19/19 18/18/18 17/17/17
f 20/20/20 19/19/19 17/17/17
