g polySurface3433
v -0.4473578 -0.03313822 -0.1492708
v -0.4473578 5.535279 -0.1492708
v -0.5430874 5.535279 -0.08311845
v -0.5430874 -0.03313822 -0.08311845
v -0.5430874 -0.03313822 -0.08311845
v -0.5430874 5.535279 -0.08311845
v -0.5097548 5.535279 0.02836797
v -0.5097548 -0.03313822 0.02836797
v -0.5097548 -0.03313822 0.02836797
v -0.5097548 5.535279 0.02836797
v -0.3934246 5.535279 0.03111806
v -0.3934246 -0.03313822 0.03111806
v -0.3934246 -0.03313822 0.03111806
v -0.3934246 5.535279 0.03111806
v -0.3548612 5.535279 -0.07866871
v -0.3548612 -0.03313822 -0.07866871
v -0.3548612 -0.03313822 -0.07866871
v -0.3548612 5.535279 -0.07866871
v -0.4473578 5.535279 -0.1492708
v -0.4473578 -0.03313822 -0.1492708
v -0.3548612 -0.03313822 -0.07866871
v -0.4473578 -0.03313822 -0.1492708
v -0.5430874 -0.03313822 -0.08311845
v -0.5097548 -0.03313822 0.02836797
v -0.3934246 -0.03313822 0.03111806
v -0.5430874 5.535279 -0.08311845
v -0.4473578 5.535279 -0.1492708
v -0.3548612 5.535279 -0.07866871
v -0.5097548 5.535279 0.02836797
v -0.3934246 5.535279 0.03111806
v 0.4285572 -0.03313822 -0.1492708
v 0.4285572 5.535279 -0.1492708
v 0.3328276 5.535279 -0.08311845
v 0.3328276 -0.03313822 -0.08311845
v 0.3328276 -0.03313822 -0.08311845
v 0.3328276 5.535279 -0.08311845
v 0.3661601 5.535279 0.02836797
v 0.3661601 -0.03313822 0.02836797
v 0.3661601 -0.03313822 0.02836797
v 0.3661601 5.535279 0.02836797
v 0.4824903 5.535279 0.03111806
v 0.4824903 -0.03313822 0.03111806
v 0.4824903 -0.03313822 0.03111806
v 0.4824903 5.535279 0.03111806
v 0.5210538 5.535279 -0.07866871
v 0.5210538 -0.03313822 -0.07866871
v 0.5210538 -0.03313822 -0.07866871
v 0.5210538 5.535279 -0.07866871
v 0.4285572 5.535279 -0.1492708
v 0.4285572 -0.03313822 -0.1492708
v 0.5210538 -0.03313822 -0.07866871
v 0.4285572 -0.03313822 -0.1492708
v 0.3328276 -0.03313822 -0.08311845
v 0.3661601 -0.03313822 0.02836797
v 0.4824903 -0.03313822 0.03111806
v 0.3328276 5.535279 -0.08311845
v 0.4285572 5.535279 -0.1492708
v 0.5210538 5.535279 -0.07866871
v 0.3661601 5.535279 0.02836797
v 0.4824903 5.535279 0.03111806
v -0.5681786 4.794729 0.1044893
v 0.5681786 4.806825 0.1044893
v 0.5681786 4.83276 0.03812203
v -0.5681786 4.825785 0.03812203
v -0.5681786 4.825785 0.03812203
v 0.5681786 4.83276 0.03812203
v 0.5681786 4.909598 0.0402346
v -0.5681786 4.917793 0.0402346
v -0.5681786 4.917793 0.0402346
v 0.5681786 4.909598 0.0402346
v 0.5681786 4.931151 0.1079075
v -0.5681786 4.943602 0.1079075
v -0.5681786 4.943602 0.1079075
v 0.5681786 4.931151 0.1079075
v 0.5681786 4.867634 0.1476191
v -0.5681786 4.867544 0.1476191
v -0.5681786 4.867544 0.1476191
v 0.5681786 4.867634 0.1476191
v 0.5681786 4.806825 0.1044893
v -0.5681786 4.794729 0.1044893
v -0.5681786 4.867544 0.1476191
v -0.5681786 4.794729 0.1044893
v -0.5681786 4.825785 0.03812203
v -0.5681786 4.917793 0.0402346
v -0.5681786 4.943602 0.1079075
v 0.5681786 4.83276 0.03812203
v 0.5681786 4.806825 0.1044893
v 0.5681786 4.867634 0.1476191
v 0.5681786 4.909598 0.0402346
v 0.5681786 4.931151 0.1079075
v -0.5681786 3.920501 0.1044893
v 0.5681786 3.986209 0.1044893
v 0.5681786 4.017265 0.03812203
v -0.5681786 3.956897 0.03812203
v -0.5681786 3.956897 0.03812203
v 0.5681786 4.017265 0.03812203
v 0.5681786 4.109273 0.0402346
v -0.5681786 4.064729 0.0402346
v -0.5681786 4.064729 0.0402346
v 0.5681786 4.109273 0.0402346
v 0.5681786 4.135082 0.1079075
v -0.5681786 4.094976 0.1079075
v -0.5681786 4.094976 0.1079075
v 0.5681786 4.135082 0.1079075
v 0.5681786 4.059025 0.1476191
v -0.5681786 4.005838 0.1476191
v 0.5681786 3.986209 0.1044893
v -0.5681786 3.920501 0.1044893
v -0.5681786 4.005838 0.1476191
v -0.5681786 3.920501 0.1044893
v -0.5681786 3.956897 0.03812203
v -0.5681786 4.064729 0.0402346
v -0.5681786 4.094976 0.1079075
v 0.5681786 4.017265 0.03812203
v 0.5681786 3.986209 0.1044893
v 0.5681786 4.059025 0.1476191
v 0.5681786 4.109273 0.0402346
v 0.5681786 4.135082 0.1079075
v -0.5681786 3.17769 0.1044893
v 0.549422 3.17769 0.1044893
v 0.549422 3.208745 0.03812203
v -0.5681786 3.208745 0.03812203
v -0.5681786 3.208745 0.03812203
v 0.549422 3.208745 0.03812203
v 0.549422 3.300754 0.0402346
v -0.5681786 3.300754 0.0402346
v -0.5681786 3.300754 0.0402346
v 0.549422 3.300754 0.0402346
v 0.549422 3.326562 0.1079075
v -0.5681786 3.326562 0.1079075
v -0.5681786 3.326562 0.1079075
v 0.549422 3.326562 0.1079075
v 0.549422 3.250504 0.1476191
v -0.5681786 3.250504 0.1476191
v -0.5681786 3.250504 0.1476191
v 0.549422 3.250504 0.1476191
v 0.549422 3.17769 0.1044893
v -0.5681786 3.17769 0.1044893
v -0.5681786 3.250504 0.1476191
v -0.5681786 3.17769 0.1044893
v -0.5681786 3.208745 0.03812203
v -0.5681786 3.300754 0.0402346
v -0.5681786 3.326562 0.1079075
v 0.549422 3.208745 0.03812203
v 0.549422 3.17769 0.1044893
v 0.549422 3.250504 0.1476191
v 0.549422 3.300754 0.0402346
v 0.549422 3.326562 0.1079075
v -0.5681786 2.419392 0.1044893
v 0.5681786 2.332299 0.1044893
v 0.5681786 2.370121 0.03812203
v -0.5681786 2.450447 0.03812203
v -0.5681786 2.450447 0.03812203
v 0.5681786 2.370121 0.03812203
v 0.5681786 2.482177 0.0402346
v -0.5681786 2.542456 0.0402346
v -0.5681786 2.542456 0.0402346
v 0.5681786 2.482177 0.0402346
v 0.5681786 2.51361 0.1079075
v -0.5681786 2.568264 0.1079075
v -0.5681786 2.568264 0.1079075
v 0.5681786 2.51361 0.1079075
v 0.5681786 2.42098 0.1476191
v -0.5681786 2.492207 0.1476191
v 0.5681786 2.332299 0.1044893
v -0.5681786 2.419392 0.1044893
v -0.5681786 2.492207 0.1476191
v -0.5681786 2.419392 0.1044893
v -0.5681786 2.450447 0.03812203
v -0.5681786 2.542456 0.0402346
v -0.5681786 2.568264 0.1079075
v 0.5681786 2.370121 0.03812203
v 0.5681786 2.332299 0.1044893
v 0.5681786 2.42098 0.1476191
v 0.5681786 2.482177 0.0402346
v 0.5681786 2.51361 0.1079075
v -0.5681786 1.560649 0.1044893
v 0.5681786 1.560649 0.1044893
v 0.5681786 1.591705 0.03812203
v -0.5681786 1.591705 0.03812203
v -0.5681786 1.591705 0.03812203
v 0.5681786 1.591705 0.03812203
v 0.5681786 1.683713 0.0402346
v -0.5681786 1.683713 0.0402346
v -0.5681786 1.683713 0.0402346
v 0.5681786 1.683713 0.0402346
v 0.5681786 1.709522 0.1079075
v -0.5681786 1.709522 0.1079075
v -0.5681786 1.709522 0.1079075
v 0.5681786 1.709522 0.1079075
v 0.5681786 1.633464 0.1476191
v -0.5681786 1.633464 0.1476191
v -0.5681786 1.633464 0.1476191
v 0.5681786 1.633464 0.1476191
v 0.5681786 1.560649 0.1044893
v -0.5681786 1.560649 0.1044893
v -0.5681786 1.633464 0.1476191
v -0.5681786 1.560649 0.1044893
v -0.5681786 1.591705 0.03812203
v -0.5681786 1.683713 0.0402346
v -0.5681786 1.709522 0.1079075
v 0.5681786 1.591705 0.03812203
v 0.5681786 1.560649 0.1044893
v 0.5681786 1.633464 0.1476191
v 0.5681786 1.683713 0.0402346
v 0.5681786 1.709522 0.1079075
v -0.6530325 0.7386153 0.1044893
v 0.5681786 0.7521292 0.1044893
v 0.5681786 0.7831848 0.03812203
v -0.6530325 0.7753916 0.03812203
v -0.6530325 0.7753916 0.03812203
v 0.5681786 0.7831848 0.03812203
v 0.5681786 0.8751931 0.0402346
v -0.6530325 0.8843492 0.0402346
v -0.6530325 0.8843492 0.0402346
v 0.5681786 0.8751931 0.0402346
v 0.5681786 0.9010019 0.1079075
v -0.6530325 0.9149124 0.1079075
v -0.6530325 0.9149124 0.1079075
v 0.5681786 0.9010019 0.1079075
v 0.5681786 0.8249444 0.1476191
v -0.6530325 0.8248441 0.1476191
v 0.5681786 0.7521292 0.1044893
v -0.6530325 0.7386153 0.1044893
v -0.6530325 0.8248441 0.1476191
v -0.6530325 0.7386153 0.1044893
v -0.6530325 0.7753916 0.03812203
v -0.6530325 0.8843492 0.0402346
v -0.6530325 0.9149124 0.1079075
v 0.5681786 0.7831848 0.03812203
v 0.5681786 0.7521292 0.1044893
v 0.5681786 0.8249444 0.1476191
v 0.5681786 0.8751931 0.0402346
v 0.5681786 0.9010019 0.1079075
vt 0.004154354 0.1800155
vt 0.3278938 0.1800154
vt 0.3278938 0.1692803
vt 0.004154354 0.1692804
vt 0.004154354 0.1692804
vt 0.3278938 0.1692803
vt 0.3278939 0.1585451
vt 0.004154354 0.1585451
vt 0.004154354 0.1585451
vt 0.3278939 0.1585451
vt 0.3278939 0.14781
vt 0.004154384 0.14781
vt 0.004154384 0.14781
vt 0.3278939 0.14781
vt 0.3278938 0.1370748
vt 0.004154325 0.1370748
vt 0.004154325 0.1370748
vt 0.3278938 0.1370748
vt 0.3278938 0.1263397
vt 0.004154384 0.1263396
vt 0.7058536 0.644304
vt 0.6929279 0.6265133
vt 0.6720138 0.6333088
vt 0.6720138 0.6552992
vt 0.6929279 0.6620947
vt 0.6752431 0.6526655
vt 0.6901729 0.6575165
vt 0.6993999 0.6448165
vt 0.6752431 0.6369675
vt 0.6901729 0.6321166
vt 0.004154354 0.208779
vt 0.3278938 0.2087789
vt 0.3278938 0.1980438
vt 0.004154354 0.1980439
vt 0.004154354 0.1980439
vt 0.3278938 0.1980438
vt 0.3278939 0.1873086
vt 0.004154354 0.1873086
vt 0.004154354 0.1873086
vt 0.3278939 0.1873086
vt 0.3278939 0.1765735
vt 0.004154384 0.1765735
vt 0.004154384 0.1765735
vt 0.3278939 0.1765735
vt 0.3278938 0.1658382
vt 0.004154325 0.1658383
vt 0.004154325 0.1658383
vt 0.3278938 0.1658382
vt 0.3278938 0.1551031
vt 0.004154384 0.1551031
vt 0.7058536 0.644304
vt 0.6929279 0.6265133
vt 0.6720138 0.6333088
vt 0.6720138 0.6552992
vt 0.6929279 0.6620947
vt 0.6752431 0.6526655
vt 0.6901729 0.6575165
vt 0.6993999 0.6448165
vt 0.6752431 0.6369675
vt 0.6901729 0.6321166
vt 0.3324233 0.1814208
vt 0.004502078 0.1814207
vt 0.004500796 0.2025667
vt 0.3324246 0.2025668
vt 0.3324273 0.08478233
vt 0.004498188 0.08478233
vt 0.004502182 0.1113381
vt 0.3324232 0.1113384
vt 0.3324232 0.1113384
vt 0.004502182 0.1113381
vt 0.004504879 0.1322374
vt 0.3324205 0.1322372
vt 0.3324205 0.1322372
vt 0.004504879 0.1322374
vt 0.004505147 0.1569962
vt 0.3324202 0.1569964
vt 0.3324202 0.1569964
vt 0.004505147 0.1569962
vt 0.004502078 0.1814207
vt 0.3324233 0.1814208
vt 0.7093043 0.6378627
vt 0.6944218 0.6173787
vt 0.6703413 0.6252029
vt 0.6703413 0.6505226
vt 0.6944218 0.6583468
vt 0.6692235 0.6505029
vt 0.693304 0.6583272
vt 0.7081866 0.6378431
vt 0.6692235 0.6251832
vt 0.693304 0.617359
vt 0.3324233 0.1814208
vt 0.004502078 0.1814207
vt 0.004500796 0.2025667
vt 0.3324246 0.2025668
vt 0.3324273 0.08478233
vt 0.004498188 0.08478233
vt 0.004502182 0.1113381
vt 0.3324232 0.1113384
vt 0.3324232 0.1113384
vt 0.004502182 0.1113381
vt 0.004504879 0.1322374
vt 0.3324205 0.1322372
vt 0.3324205 0.1322372
vt 0.004504879 0.1322374
vt 0.004505147 0.1569962
vt 0.3324202 0.1569964
vt 0.004502078 0.1814207
vt 0.3324233 0.1814208
vt 0.7093043 0.6378627
vt 0.6944218 0.6173787
vt 0.6703413 0.6252029
vt 0.6703413 0.6505226
vt 0.6944218 0.6583468
vt 0.6692235 0.6505029
vt 0.693304 0.6583272
vt 0.7081866 0.6378431
vt 0.6692235 0.6251832
vt 0.693304 0.617359
vt 0.3324233 0.1814208
vt 0.004502078 0.1814207
vt 0.004500796 0.2025667
vt 0.3324246 0.2025668
vt 0.3324273 0.08478233
vt 0.004498188 0.08478233
vt 0.004502182 0.1113381
vt 0.3324232 0.1113384
vt 0.3324232 0.1113384
vt 0.004502182 0.1113381
vt 0.004504879 0.1322374
vt 0.3324205 0.1322372
vt 0.3324205 0.1322372
vt 0.004504879 0.1322374
vt 0.004505147 0.1569962
vt 0.3324202 0.1569964
vt 0.3324202 0.1569964
vt 0.004505147 0.1569962
vt 0.004502078 0.1814207
vt 0.3324233 0.1814208
vt 0.7093043 0.6378627
vt 0.6944218 0.6173787
vt 0.6703413 0.6252029
vt 0.6703413 0.6505226
vt 0.6944218 0.6583468
vt 0.6692235 0.6505029
vt 0.693304 0.6583272
vt 0.7081866 0.6378431
vt 0.6692235 0.6251832
vt 0.693304 0.617359
vt 0.3324233 0.1814208
vt 0.004502078 0.1814207
vt 0.004500796 0.2025667
vt 0.3324246 0.2025668
vt 0.3324273 0.08478233
vt 0.004498188 0.08478233
vt 0.004502182 0.1113381
vt 0.3324232 0.1113384
vt 0.3324232 0.1113384
vt 0.004502182 0.1113381
vt 0.004504879 0.1322374
vt 0.3324205 0.1322372
vt 0.3324205 0.1322372
vt 0.004504879 0.1322374
vt 0.004505147 0.1569962
vt 0.3324202 0.1569964
vt 0.004502078 0.1814207
vt 0.3324233 0.1814208
vt 0.7093043 0.6378627
vt 0.6944218 0.6173787
vt 0.6703413 0.6252029
vt 0.6703413 0.6505226
vt 0.6944218 0.6583468
vt 0.6692235 0.6505029
vt 0.693304 0.6583272
vt 0.7081866 0.6378431
vt 0.6692235 0.6251832
vt 0.693304 0.617359
vt 0.3324233 0.1814208
vt 0.004502078 0.1814207
vt 0.004500796 0.2025667
vt 0.3324246 0.2025668
vt 0.3324273 0.08478233
vt 0.004498188 0.08478233
vt 0.004502182 0.1113381
vt 0.3324232 0.1113384
vt 0.3324232 0.1113384
vt 0.004502182 0.1113381
vt 0.004504879 0.1322374
vt 0.3324205 0.1322372
vt 0.3324205 0.1322372
vt 0.004504879 0.1322374
vt 0.004505147 0.1569962
vt 0.3324202 0.1569964
vt 0.3324202 0.1569964
vt 0.004505147 0.1569962
vt 0.004502078 0.1814207
vt 0.3324233 0.1814208
vt 0.7093043 0.6378627
vt 0.6944218 0.6173787
vt 0.6703413 0.6252029
vt 0.6703413 0.6505226
vt 0.6944218 0.6583468
vt 0.6692235 0.6505029
vt 0.693304 0.6583272
vt 0.7081866 0.6378431
vt 0.6692235 0.6251832
vt 0.693304 0.617359
vt 0.3324233 0.1814208
vt 0.004502078 0.1814207
vt 0.004500796 0.2025667
vt 0.3324246 0.2025668
vt 0.3324273 0.08478233
vt 0.004498188 0.08478233
vt 0.004502182 0.1113381
vt 0.3324232 0.1113384
vt 0.3324232 0.1113384
vt 0.004502182 0.1113381
vt 0.004504879 0.1322374
vt 0.3324205 0.1322372
vt 0.3324205 0.1322372
vt 0.004504879 0.1322374
vt 0.004505147 0.1569962
vt 0.3324202 0.1569964
vt 0.004502078 0.1814207
vt 0.3324233 0.1814208
vt 0.7093043 0.6378627
vt 0.6944218 0.6173787
vt 0.6703413 0.6252029
vt 0.6703413 0.6505226
vt 0.6944218 0.6583468
vt 0.6692235 0.6505029
vt 0.693304 0.6583272
vt 0.7081866 0.6378431
vt 0.6692235 0.6251832
vt 0.693304 0.617359
vn 0.02363396 0 -0.9997206
vn 0.02363396 0 -0.9997206
vn -0.9434876 0 -0.3314077
vn -0.9434876 0 -0.3314077
vn -0.9434876 0 -0.3314077
vn -0.9434876 0 -0.3314077
vn -0.6067411 0 0.7948995
vn -0.6067411 0 0.7948995
vn -0.6067411 0 0.7948995
vn -0.6067411 0 0.7948995
vn 0.5685012 0 0.8226824
vn 0.5685012 0 0.8226824
vn 0.5685012 0 0.8226824
vn 0.5685012 0 0.8226824
vn 0.9580941 0 -0.2864537
vn 0.9580941 0 -0.2864537
vn 0.9580941 0 -0.2864537
vn 0.9580941 0 -0.2864537
vn 0.02363396 0 -0.9997206
vn 0.02363396 0 -0.9997206
vn 0 -1 0
vn 0 -1 0
vn 0 -1 0
vn 0 -1 0
vn 0 -1 0
vn 0 1 0
vn 0 1 0
vn 0 1 0
vn 0 1 0
vn 0 1 0
vn 0.02363378 0 -0.9997206
vn 0.02363378 0 -0.9997206
vn -0.9434876 0 -0.3314076
vn -0.9434876 0 -0.3314076
vn -0.9434876 0 -0.3314076
vn -0.9434876 0 -0.3314076
vn -0.6067411 0 0.7948995
vn -0.6067411 0 0.7948995
vn -0.6067411 0 0.7948995
vn -0.6067411 0 0.7948995
vn 0.5685012 0 0.8226825
vn 0.5685012 0 0.8226825
vn 0.5685012 0 0.8226825
vn 0.5685012 0 0.8226825
vn 0.9580941 0 -0.2864538
vn 0.9580941 0 -0.2864538
vn 0.9580941 0 -0.2864538
vn 0.9580941 0 -0.2864538
vn 0.02363378 0 -0.9997206
vn 0.02363378 0 -0.9997206
vn 0 -1 0
vn 0 -1 0
vn 0 -1 0
vn 0 -1 0
vn 0 -1 0
vn 0 1 0
vn 0 1 0
vn 0 1 0
vn 0 1 0
vn 0 1 0
vn 0.006950393 -0.9564835 0.2917038
vn 0.006950393 -0.9564835 0.2917038
vn 0.004663647 -0.5397125 -0.8418365
vn 0.004663647 -0.5397125 -0.8418365
vn 0.004663647 -0.5397125 -0.8418365
vn 0.004663647 -0.5397125 -0.8418365
vn 0.005218785 0.5887997 -0.8082622
vn 0.005218785 0.5887997 -0.8082622
vn 0.005218785 0.5887997 -0.8082622
vn 0.005218785 0.5887997 -0.8082622
vn 0.007332934 0.9364229 0.3507967
vn 0.007332934 0.9364229 0.3507967
vn 0.007332934 0.9364229 0.3507967
vn 0.007332934 0.9364229 0.3507967
vn 0.003273572 -0.02794507 0.9996042
vn 0.003273572 -0.02794507 0.9996042
vn 0.003273572 -0.02794507 0.9996042
vn 0.003273572 -0.02794507 0.9996042
vn 0.006950393 -0.9564835 0.2917038
vn 0.006950393 -0.9564835 0.2917038
vn -1 0 0
vn -1 0 0
vn -1 0 0
vn -1 0 0
vn -1 0 0
vn 1 0 0
vn 1 0 0
vn 1 0 0
vn 1 0 0
vn 1 0 0
vn 0.05185337 -0.9537262 0.2961715
vn 0.05185337 -0.9537262 0.2961715
vn 0.02859561 -0.5133815 -0.857684
vn 0.02859561 -0.5133815 -0.857684
vn 0.02859561 -0.5133815 -0.857684
vn 0.02859561 -0.5133815 -0.857684
vn -0.02112161 0.5640556 -0.8254665
vn -0.02112161 0.5640556 -0.8254665
vn -0.02112161 0.5640556 -0.8254665
vn -0.02112161 0.5640556 -0.8254665
vn -0.03590131 0.933453 0.3568985
vn -0.03590131 0.933453 0.3568985
vn -0.03590131 0.933453 0.3568985
vn -0.03590131 0.933453 0.3568985
vn 0.004078951 -0.02553907 0.9996655
vn 0.004078951 -0.02553907 0.9996655
vn 0.05185337 -0.9537262 0.2961715
vn 0.05185337 -0.9537262 0.2961715
vn -1 0 0
vn -1 0 0
vn -1 0 0
vn -1 0 0
vn -1 0 0
vn 1 0 0
vn 1 0 0
vn 1 0 0
vn 1 0 0
vn 1 0 0
vn 0 -0.9555759 0.2947452
vn 0 -0.9555759 0.2947452
vn 0 -0.5270182 -0.849854
vn 0 -0.5270182 -0.849854
vn 0 -0.5270182 -0.849854
vn 0 -0.5270182 -0.849854
vn 0 0.5767166 -0.8169442
vn 0 0.5767166 -0.8169442
vn 0 0.5767166 -0.8169442
vn 0 0.5767166 -0.8169442
vn 0 0.9349669 0.354735
vn 0 0.9349669 0.354735
vn 0 0.9349669 0.354735
vn 0 0.9349669 0.354735
vn 0 -0.02677945 0.9996414
vn 0 -0.02677945 0.9996414
vn 0 -0.02677945 0.9996414
vn 0 -0.02677945 0.9996414
vn 0 -0.9555759 0.2947452
vn 0 -0.9555759 0.2947452
vn -1 0 0
vn -1 0 0
vn -1 0 0
vn -1 0 0
vn -1 0 0
vn 1 0 0
vn 1 0 0
vn 1 0 0
vn 1 0 0
vn 1 0 0
vn -0.06885005 -0.9526064 0.2963119
vn -0.06885005 -0.9526064 0.2963119
vn -0.03767807 -0.5095245 -0.8596308
vn -0.03767807 -0.5095245 -0.8596308
vn -0.03767807 -0.5095245 -0.8596308
vn -0.03767807 -0.5095245 -0.8596308
vn 0.0284875 0.5605638 -0.8276211
vn 0.0284875 0.5605638 -0.8276211
vn 0.0284875 0.5605638 -0.8276211
vn 0.0284875 0.5605638 -0.8276211
vn 0.04859264 0.9327675 0.3571885
vn 0.04859264 0.9327675 0.3571885
vn 0.04859264 0.9327675 0.3571885
vn 0.04859264 0.9327675 0.3571885
vn -0.00515754 -0.02520027 0.9996691
vn -0.00515754 -0.02520027 0.9996691
vn -0.06885005 -0.9526064 0.2963119
vn -0.06885005 -0.9526064 0.2963119
vn -1 0 0
vn -1 0 0
vn -1 0 0
vn -1 0 0
vn -1 0 0
vn 1 0 0
vn 1 0 0
vn 1 0 0
vn 1 0 0
vn 1 0 0
vn 0 -0.9555761 0.2947445
vn 0 -0.9555761 0.2947445
vn 0 -0.5270167 -0.8498549
vn 0 -0.5270167 -0.8498549
vn 0 -0.5270167 -0.8498549
vn 0 -0.5270167 -0.8498549
vn 0 0.5767149 -0.8169455
vn 0 0.5767149 -0.8169455
vn 0 0.5767149 -0.8169455
vn 0 0.5767149 -0.8169455
vn 0 0.9349677 0.3547329
vn 0 0.9349677 0.3547329
vn 0 0.9349677 0.3547329
vn 0 0.9349677 0.3547329
vn 0 -0.02677841 0.9996414
vn 0 -0.02677841 0.9996414
vn 0 -0.02677841 0.9996414
vn 0 -0.02677841 0.9996414
vn 0 -0.9555761 0.2947445
vn 0 -0.9555761 0.2947445
vn -1 0 0
vn -1 0 0
vn -1 0 0
vn -1 0 0
vn -1 0 0
vn 1 0 0
vn 1 0 0
vn 1 0 0
vn 1 0 0
vn 1 0 0
vn 0.007283054 -0.9551002 0.2961932
vn 0.007283054 -0.9551002 0.2961932
vn 0.004590241 -0.5129809 -0.8583878
vn 0.004590241 -0.5129809 -0.8583878
vn 0.004590241 -0.5129809 -0.8583878
vn 0.004590241 -0.5129809 -0.8583878
vn 0.005209882 0.5634542 -0.8261309
vn 0.005209882 0.5634542 -0.8261309
vn 0.005209882 0.5634542 -0.8261309
vn 0.005209882 0.5634542 -0.8261309
vn 0.007694062 0.9340585 0.357037
vn 0.007694062 0.9340585 0.357037
vn 0.007694062 0.9340585 0.357037
vn 0.007694062 0.9340585 0.357037
vn 0.002860191 -0.02549392 0.9996709
vn 0.002860191 -0.02549392 0.9996709
vn 0.007283054 -0.9551002 0.2961932
vn 0.007283054 -0.9551002 0.2961932
vn -1 0 0
vn -1 0 0
vn -1 0 0
vn -1 0 0
vn -1 0 0
vn 1 0 0
vn 1 0 0
vn 1 0 0
vn 1 0 0
vn 1 0 0
g polySurface3433_0
f 3/3/3 2/2/2 1/1/1
f 4/4/4 3/3/3 1/1/1
f 7/7/7 6/6/6 5/5/5
f 8/8/8 7/7/7 5/5/5
f 11/11/11 10/10/10 9/9/9
f 12/12/12 11/11/11 9/9/9
f 15/15/15 14/14/14 13/13/13
f 16/16/16 15/15/15 13/13/13
f 19/19/19 18/18/18 17/17/17
f 20/20/20 19/19/19 17/17/17
f 23/23/23 22/22/22 21/21/21
f 21/21/21 24/24/24 23/23/23
f 21/21/21 25/25/25 24/24/24
f 28/28/28 27/27/27 26/26/26
f 26/26/26 29/29/29 28/28/28
f 29/29/29 30/30/30 28/28/28
f 33/33/33 32/32/32 31/31/31
f 34/34/34 33/33/33 31/31/31
f 37/37/37 36/36/36 35/35/35
f 38/38/38 37/37/37 35/35/35
f 41/41/41 40/40/40 39/39/39
f 42/42/42 41/41/41 39/39/39
f 45/45/45 44/44/44 43/43/43
f 46/46/46 45/45/45 43/43/43
f 49/49/49 48/48/48 47/47/47
f 50/50/50 49/49/49 47/47/47
f 53/53/53 52/52/52 51/51/51
f 51/51/51 54/54/54 53/53/53
f 51/51/51 55/55/55 54/54/54
f 58/58/58 57/57/57 56/56/56
f 56/56/56 59/59/59 58/58/58
f 59/59/59 60/60/60 58/58/58
f 63/63/63 62/62/62 61/61/61
f 64/64/64 63/63/63 61/61/61
f 67/67/67 66/66/66 65/65/65
f 68/68/68 67/67/67 65/65/65
f 71/71/71 70/70/70 69/69/69
f 72/72/72 71/71/71 69/69/69
f 75/75/75 74/74/74 73/73/73
f 76/76/76 75/75/75 73/73/73
f 79/79/79 78/78/78 77/77/77
f 80/80/80 79/79/79 77/77/77
f 83/83/83 82/82/82 81/81/81
f 81/81/81 84/84/84 83/83/83
f 81/81/81 85/85/85 84/84/84
f 88/88/88 87/87/87 86/86/86
f 86/86/86 89/89/89 88/88/88
f 89/89/89 90/90/90 88/88/88
f 93/93/93 92/92/92 91/91/91
f 94/94/94 93/93/93 91/91/91
f 97/97/97 96/96/96 95/95/95
f 98/98/98 97/97/97 95/95/95
f 101/101/101 100/100/100 99/99/99
f 102/102/102 101/101/101 99/99/99
f 105/105/105 104/104/104 103/103/103
f 106/106/106 105/105/105 103/103/103
f 107/107/107 105/105/105 106/106/106
f 108/108/108 107/107/107 106/106/106
f 111/111/111 110/110/110 109/109/109
f 109/109/109 112/112/112 111/111/111
f 109/109/109 113/113/113 112/112/112
f 116/116/116 115/115/115 114/114/114
f 114/114/114 117/117/117 116/116/116
f 117/117/117 118/118/118 116/116/116
f 121/121/121 120/120/120 119/119/119
f 122/122/122 121/121/121 119/119/119
f 125/125/125 124/124/124 123/123/123
f 126/126/126 125/125/125 123/123/123
f 129/129/129 128/128/128 127/127/127
f 130/130/130 129/129/129 127/127/127
f 133/133/133 132/132/132 131/131/131
f 134/134/134 133/133/133 131/131/131
f 137/137/137 136/136/136 135/135/135
f 138/138/138 137/137/137 135/135/135
f 141/141/141 140/140/140 139/139/139
f 139/139/139 142/142/142 141/141/141
f 139/139/139 143/143/143 142/142/142
f 146/146/146 145/145/145 144/144/144
f 144/144/144 147/147/147 146/146/146
f 147/147/147 148/148/148 146/146/146
f 151/151/151 150/150/150 149/149/149
f 152/152/152 151/151/151 149/149/149
f 155/155/155 154/154/154 153/153/153
f 156/156/156 155/155/155 153/153/153
f 159/159/159 158/158/158 157/157/157
f 160/160/160 159/159/159 157/157/157
f 163/163/163 162/162/162 161/161/161
f 164/164/164 163/163/163 161/161/161
f 165/165/165 163/163/163 164/164/164
f 166/166/166 165/165/165 164/164/164
f 169/169/169 168/168/168 167/167/167
f 167/167/167 170/170/170 169/169/169
f 167/167/167 171/171/171 170/170/170
f 174/174/174 173/173/173 172/172/172
f 172/172/172 175/175/175 174/174/174
f 175/175/175 176/176/176 174/174/174
f 179/179/179 178/178/178 177/177/177
f 180/180/180 179/179/179 177/177/177
f 183/183/183 182/182/182 181/181/181
f 184/184/184 183/183/183 181/181/181
f 187/187/187 186/186/186 185/185/185
f 188/188/188 187/187/187 185/185/185
f 191/191/191 190/190/190 189/189/189
f 192/192/192 191/191/191 189/189/189
f 195/195/195 194/194/194 193/193/193
f 196/196/196 195/195/195 193/193/193
f 199/199/199 198/198/198 197/197/197
f 197/197/197 200/200/200 199/199/199
f 197/197/197 201/201/201 200/200/200
f 204/204/204 203/203/203 202/202/202
f 202/202/202 205/205/205 204/204/204
f 205/205/205 206/206/206 204/204/204
f 209/209/209 208/208/208 207/207/207
f 210/210/210 209/209/209 207/207/207
f 213/213/213 212/212/212 211/211/211
f 214/214/214 213/213/213 211/211/211
f 217/217/217 216/216/216 215/215/215
f 218/218/218 217/217/217 215/215/215
f 221/221/221 220/220/220 219/219/219
f 222/222/222 221/221/221 219/219/219
f 223/223/223 221/221/221 222/222/222
f 224/224/224 223/223/223 222/222/222
f 227/227/227 226/226/226 225/225/225
f 225/225/225 228/228/228 227/227/227
f 225/225/225 229/229/229 228/228/228
f 232/232/232 231/231/231 230/230/230
f 230/230/230 233/233/233 232/232/232
f 233/233/233 234/234/234 232/232/232
