g polySurface3134
v 0.3513704 1.004141 -0.3513704
v 2.650467E-09 0.01508398 -0.4524453
v 0.3199272 0.01508398 -0.3199272
v 0 1.004141 -0.4969128
v -0.3513704 1.004141 -0.3513704
v -0.3199272 0.01508398 -0.3199272
v -0.3199272 0.01508398 -0.3199272
v -0.3513704 1.004141 -0.3513704
v -0.4969128 1.004141 0
v -0.4524453 0.01508398 1.325232E-09
v -0.3513704 1.004141 0.3513704
v -0.3199272 0.01508398 0.3199272
v -0.3199272 0.01508398 0.3199272
v -0.3513704 1.004141 0.3513704
v 0 1.004141 0.4969128
v 2.650467E-09 0.01508398 0.4524454
v 0.3513704 1.004141 0.3513704
v 0.3199272 0.01508398 0.3199272
v 0.3199272 0.01508398 0.3199272
v 0.3513704 1.004141 0.3513704
v 0.4969128 1.004141 0
v 0.4524454 0.01508398 1.325232E-09
v 0.3199272 0.01508398 -0.3199272
v 0.3513704 1.004141 -0.3513704
v 2.650467E-09 0.01508398 -0.4524453
v 0.4524454 0.01508398 1.325232E-09
v 0.3199272 0.01508398 -0.3199272
v 0.3199272 0.01508398 0.3199272
v 2.650467E-09 0.01508398 0.4524454
v -0.3199272 0.01508398 0.3199272
v -0.4524453 0.01508398 1.325232E-09
v -0.3199272 0.01508398 -0.3199272
v 0.3612686 0.1121212 4.042512E-09
v 8.08502E-09 0.1121212 -0.3612686
v 0.2554555 0.1121212 -0.2554555
v -0.2554555 0.1121212 -0.2554555
v -0.3612686 0.1121212 4.042512E-09
v -0.2554555 0.1121212 0.2554555
v 8.08502E-09 0.1121212 0.3612686
v 0.2554555 0.1121212 0.2554555
v 0.3513704 1.004141 -0.3513704
v 0.2805623 1.004141 -0.2805623
v 5.968681E-09 1.004141 -0.3967749
v 0 1.004141 -0.4969128
v -0.2805623 1.004141 -0.2805623
v -0.3513704 1.004141 -0.3513704
v -0.3967749 1.004141 2.98434E-09
v -0.4969128 1.004141 0
v -0.2805623 1.004141 0.2805623
v -0.3513704 1.004141 0.3513704
v -0.3513704 1.004141 0.3513704
v -0.2805623 1.004141 0.2805623
v 5.968681E-09 1.004141 0.3967749
v 0 1.004141 0.4969128
v 0.2805623 1.004141 0.2805623
v 0.3513704 1.004141 0.3513704
v 0.3967749 1.004141 2.98434E-09
v 0.4969128 1.004141 0
v 0.2805623 1.004141 -0.2805623
v 0.3513704 1.004141 -0.3513704
v 0.2805623 1.004141 -0.2805623
v 0.2554555 0.1121212 -0.2554555
v 8.08502E-09 0.1121212 -0.3612686
v 5.968681E-09 1.004141 -0.3967749
v -0.2554555 0.1121212 -0.2554555
v -0.2805623 1.004141 -0.2805623
v -0.2805623 1.004141 -0.2805623
v -0.2554555 0.1121212 -0.2554555
v -0.3612686 0.1121212 4.042512E-09
v -0.3967749 1.004141 2.98434E-09
v -0.2554555 0.1121212 0.2554555
v -0.2805623 1.004141 0.2805623
v -0.2805623 1.004141 0.2805623
v -0.2554555 0.1121212 0.2554555
v 8.08502E-09 0.1121212 0.3612686
v 5.968681E-09 1.004141 0.3967749
v 5.968681E-09 1.004141 0.3967749
v 8.08502E-09 0.1121212 0.3612686
v 0.2554555 0.1121212 0.2554555
v 0.2805623 1.004141 0.2805623
v 0.3612686 0.1121212 4.042512E-09
v 0.3967749 1.004141 2.98434E-09
v 0.3612686 0.1121212 4.042512E-09
v 0.2554555 0.1121212 -0.2554555
v 0.2805623 1.004141 -0.2805623
v 0.3967749 1.004141 2.98434E-09
v 0.143679 0.9005993 0.4798257
v 0.143679 0.969491 0.4798257
v 0.2081601 0.969491 0.4555719
v 0.2081601 0.9005993 0.4555719
v 0.143679 0.969491 0.4798257
v 0.1707302 0.9689087 0.3502443
v 0.2081601 0.969491 0.4555719
v 0.1024157 0.9689087 0.3759399
v 0.1114006 1.191553 0.1973485
v 0.04627435 1.191553 0.2218451
v -0.04655753 1.191545 -0.2225843
v -0.1116748 1.191545 -0.1980912
v -0.1017827 0.96889 -0.37428
v -0.1701124 0.96889 -0.3485786
v -0.1436791 0.969491 -0.4798257
v -0.2081602 0.969491 -0.4555719
v -0.2081602 0.969491 -0.4555719
v -0.2081602 0.9005993 -0.4555719
v -0.1436791 0.9005993 -0.4798257
v -0.1436791 0.969491 -0.4798257
v -0.2081602 0.9005993 -0.4555719
v -0.08703645 0.8995473 -0.3302374
v -0.1436791 0.9005993 -0.4798257
v -0.1521775 0.8995473 -0.3057353
v -0.02861887 1.11323 -0.1797055
v -0.09690793 1.11323 -0.1540193
v 0.09573399 1.113212 0.1509219
v 0.02746047 1.113212 0.1766021
v 0.1519201 0.8995399 0.3050371
v 0.08676989 0.8995399 0.3295427
v 0.2081601 0.9005993 0.4555719
v 0.143679 0.9005993 0.4798257
v 0.2081601 0.9005993 0.4555719
v 0.2081601 0.969491 0.4555719
v 0.1707302 0.9689087 0.3502443
v 0.1519201 0.8995399 0.3050371
v 0.09573399 1.113212 0.1509219
v 0.1114006 1.191553 0.1973485
v -0.02861887 1.11323 -0.1797055
v -0.04655753 1.191545 -0.2225843
v -0.08703645 0.8995473 -0.3302374
v -0.1017827 0.96889 -0.37428
v -0.1436791 0.9005993 -0.4798257
v -0.1436791 0.969491 -0.4798257
v -0.2081602 0.9005993 -0.4555719
v -0.2081602 0.969491 -0.4555719
v -0.1701124 0.96889 -0.3485786
v -0.1521775 0.8995473 -0.3057353
v -0.09690793 1.11323 -0.1540193
v -0.1116748 1.191545 -0.1980912
v 0.02746047 1.113212 0.1766021
v 0.04627435 1.191553 0.2218451
v 0.08676989 0.8995399 0.3295427
v 0.1024157 0.9689087 0.3759399
v 0.143679 0.9005993 0.4798257
v 0.143679 0.969491 0.4798257
vt 0.6924683 0.1561063
vt 0.6726925 0.2155976
vt 0.6921668 0.2155976
vt 0.6726924 0.1561063
vt 0.653218 0.1561075
vt 0.653218 0.2155976
vt 0.653218 0.2155976
vt 0.653218 0.1561075
vt 0.6337435 0.1561056
vt 0.6337435 0.2155976
vt 0.6139677 0.1561089
vt 0.6142693 0.2155976
vt 0.6920376 0.2155976
vt 0.6923392 0.1561062
vt 0.6725633 0.1561067
vt 0.6725633 0.2155976
vt 0.6530889 0.1561076
vt 0.6530889 0.2155976
vt 0.6530889 0.2155976
vt 0.6530889 0.1561076
vt 0.6336145 0.1561056
vt 0.6336145 0.2155976
vt 0.6141401 0.2155976
vt 0.6138386 0.1561081
vt 0.7261439 0.1864497
vt 0.7487515 0.1638421
vt 0.7327655 0.1704637
vt 0.7647375 0.1704637
vt 0.7713591 0.1864497
vt 0.7647375 0.2024357
vt 0.7487515 0.2090574
vt 0.7327655 0.2024357
vt 0.7715626 0.1868709
vt 0.7486344 0.209799
vt 0.764847 0.2030836
vt 0.7324218 0.2030836
vt 0.7257062 0.1868709
vt 0.7324218 0.1706583
vt 0.7486344 0.1639428
vt 0.764847 0.1706583
vt 0.6924683 0.2190391
vt 0.6924683 0.2140081
vt 0.6729384 0.2140096
vt 0.6726404 0.2190391
vt 0.6533867 0.2140108
vt 0.653163 0.2190402
vt 0.633907 0.2140092
vt 0.633688 0.2190383
vt 0.6141879 0.2140121
vt 0.6141879 0.2190416
vt 0.6924683 0.219039
vt 0.6924683 0.2140079
vt 0.6729124 0.2140099
vt 0.6726144 0.2190395
vt 0.6533673 0.21401
vt 0.6531435 0.2190404
vt 0.6338879 0.2140079
vt 0.6336689 0.2190383
vt 0.6141879 0.2140109
vt 0.6141879 0.2190408
vt 0.6144016 0.08628106
vt 0.6144015 0.1306565
vt 0.6338648 0.1306565
vt 0.6338648 0.08628109
vt 0.6533279 0.1306565
vt 0.6533281 0.08628109
vt 0.6533281 0.08628109
vt 0.6533279 0.1306565
vt 0.6727913 0.1306565
vt 0.6727913 0.08628109
vt 0.6922544 0.1306565
vt 0.6922544 0.08628106
vt 0.614486 0.08627208
vt 0.6144861 0.1306565
vt 0.6339493 0.1306565
vt 0.6339493 0.08627208
vt 0.6339493 0.08627208
vt 0.6339493 0.1306565
vt 0.6534125 0.1306565
vt 0.6534125 0.08627208
vt 0.6728758 0.1306565
vt 0.6728758 0.08627205
vt 0.6728758 0.1306565
vt 0.6923391 0.1306565
vt 0.6923391 0.08627208
vt 0.6728758 0.08627205
vt 0.6740602 0.6338178
vt 0.6740602 0.6578454
vt 0.6980878 0.6578454
vt 0.6980878 0.6338178
vt 0.04387514 0.1148656
vt 0.05886143 0.1011689
vt 0.04466292 0.1021141
vt 0.05873115 0.1166604
vt 0.1213627 0.1030234
vt 0.1211214 0.1169124
vt 0.217238 0.1029946
vt 0.2172929 0.1169103
vt 0.2791645 0.1012445
vt 0.2796996 0.116583
vt 0.2944967 0.1018771
vt 0.294163 0.1147206
vt 0.6735209 0.6578453
vt 0.6975483 0.6578453
vt 0.6975483 0.6338178
vt 0.6735209 0.6338178
vt 0.302259 0.07518474
vt 0.2767086 0.0836687
vt 0.2983544 0.08894707
vt 0.2779191 0.06934545
vt 0.2135854 0.08598892
vt 0.2131859 0.07175384
vt 0.125568 0.08536773
vt 0.1259993 0.07124295
vt 0.06167464 0.08324089
vt 0.06076171 0.06910544
vt 0.04022949 0.08907478
vt 0.03604054 0.07486769
vt 0.04022949 0.08907478
vt 0.04466292 0.1021141
vt 0.05886143 0.1011689
vt 0.06167464 0.08324089
vt 0.125568 0.08536773
vt 0.1213627 0.1030234
vt 0.2135854 0.08598892
vt 0.217238 0.1029946
vt 0.2767086 0.0836687
vt 0.2791645 0.1012445
vt 0.2983544 0.08894707
vt 0.2944967 0.1018771
vt 0.2989298 0.1275408
vt 0.294163 0.1147206
vt 0.2796996 0.116583
vt 0.2785778 0.1344209
vt 0.2142477 0.1338086
vt 0.2172929 0.1169103
vt 0.1249021 0.1345507
vt 0.1211214 0.1169124
vt 0.0600684 0.1348365
vt 0.05873115 0.1166604
vt 0.03975882 0.1276504
vt 0.04387514 0.1148656
vn 0.7063931 -0.04491403 -0.7063932
vn 0 -0.04491405 -0.9989908
vn 0.7063931 -0.04491403 -0.7063932
vn 0 -0.04491405 -0.9989908
vn -0.7063932 -0.04491407 -0.7063931
vn -0.7063932 -0.04491407 -0.7063931
vn -0.7063932 -0.04491407 -0.7063931
vn -0.7063932 -0.04491407 -0.7063931
vn -0.9989908 -0.04491408 0
vn -0.9989908 -0.04491408 0
vn -0.7063932 -0.04491404 0.7063931
vn -0.7063932 -0.04491405 0.7063931
vn -0.7063932 -0.04491405 0.7063931
vn -0.7063932 -0.04491404 0.7063931
vn 0 -0.04491402 0.9989908
vn 0 -0.04491403 0.9989908
vn 0.7063932 -0.04491402 0.7063932
vn 0.7063932 -0.04491403 0.7063932
vn 0.7063932 -0.04491403 0.7063932
vn 0.7063932 -0.04491402 0.7063932
vn 0.9989908 -0.04491401 0
vn 0.9989908 -0.04491403 0
vn 0.7063931 -0.04491403 -0.7063932
vn 0.7063931 -0.04491403 -0.7063932
vn 0 -1 0
vn 0 -1 0
vn 0 -1 0
vn 0 -1 0
vn 0 -1 0
vn 0 -1 0
vn 0 -1 0
vn 0 -1 0
vn 0 1 0
vn 0 1 0
vn 0 1 0
vn 0 1 0
vn 0 1 0
vn 0 1 0
vn 0 1 0
vn 0 1 0
vn 0 1 0
vn 0 1 0
vn 0 1 0
vn 0 1 0
vn 0 1 0
vn 0 1 0
vn 0 1 0
vn 0 1 0
vn 0 1 0
vn 0 1 0
vn 0 1 0
vn 0 1 0
vn 0 1 0
vn 0 1 0
vn 0 1 0
vn 0 1 0
vn 0 1 0
vn 0 1 0
vn 0 1 0
vn 0 1 0
vn -0.7065473 0.03977292 0.7065473
vn -0.7065473 0.03977292 0.7065473
vn 0 0.03977292 0.9992087
vn 0 0.03977292 0.9992087
vn 0.7065473 0.03977289 0.7065473
vn 0.7065473 0.03977289 0.7065473
vn 0.7065473 0.03977289 0.7065473
vn 0.7065473 0.03977289 0.7065473
vn 0.9992087 0.03977285 0
vn 0.9992087 0.03977286 0
vn 0.7065473 0.03977287 -0.7065473
vn 0.7065473 0.03977287 -0.7065473
vn 0.7065473 0.03977287 -0.7065473
vn 0.7065473 0.03977287 -0.7065473
vn 0 0.0397729 -0.9992087
vn 0 0.03977291 -0.9992087
vn 0 0.03977291 -0.9992087
vn 0 0.0397729 -0.9992087
vn -0.7065473 0.0397729 -0.7065473
vn -0.7065473 0.03977291 -0.7065473
vn -0.9992087 0.03977291 0
vn -0.9992087 0.03977292 0
vn -0.9992087 0.03977291 0
vn -0.7065473 0.03977292 0.7065473
vn -0.7065473 0.03977292 0.7065473
vn -0.9992087 0.03977292 0
vn 0.3520581 0 0.9359781
vn 0.3520581 0 0.9359781
vn 0.3520581 0 0.9359781
vn 0.3520581 0 0.9359781
vn -0.7151387 0.6436192 0.2726373
vn 0.9143409 0.4047576 0.01233125
vn 0.7175412 0.6436195 -0.2662489
vn -0.6795591 0.4047573 0.6118585
vn 0.6844099 0.7285452 0.02836937
vn -0.4960556 0.728545 0.4723887
vn 0.4914755 0.7312847 -0.4729426
vn -0.6813307 0.7312844 -0.03180471
vn 0.6757609 0.4077848 -0.6140512
vn -0.9129292 0.4077849 -0.01648307
vn 0.7114843 0.6482915 -0.2711239
vn -0.7137953 0.6482919 0.2649791
vn -0.3520581 0 -0.9359781
vn -0.3520581 0 -0.9359781
vn -0.3520581 0 -0.9359781
vn -0.3520581 0 -0.9359781
vn -0.6069862 -0.7645459 0.2168805
vn 0.7552575 -0.6335022 0.1681094
vn 0.5994531 -0.7645459 -0.2369081
vn -0.457247 -0.6335021 0.6241797
vn 0.8815072 -0.4542457 -0.1288646
vn -0.7479172 -0.454246 0.4840253
vn 0.7504944 -0.4513324 -0.48276
vn -0.8826113 -0.4513327 0.1315145
vn 0.4708285 -0.6273319 -0.6203024
vn -0.7629172 -0.6273322 -0.1562427
vn 0.6040384 -0.7671943 -0.2157558
vn -0.5964951 -0.767194 0.2358112
vn 0.6040384 -0.7671943 -0.2157558
vn 0.7175412 0.6436195 -0.2662489
vn 0.9143409 0.4047576 0.01233125
vn 0.4708285 -0.6273319 -0.6203024
vn 0.7504944 -0.4513324 -0.48276
vn 0.6844099 0.7285452 0.02836937
vn 0.8815072 -0.4542457 -0.1288646
vn 0.4914755 0.7312847 -0.4729426
vn 0.7552575 -0.6335022 0.1681094
vn 0.6757609 0.4077848 -0.6140512
vn 0.5994531 -0.7645459 -0.2369081
vn 0.7114843 0.6482915 -0.2711239
vn -0.6069862 -0.7645459 0.2168805
vn -0.7137953 0.6482919 0.2649791
vn -0.9129292 0.4077849 -0.01648307
vn -0.457247 -0.6335021 0.6241797
vn -0.7479172 -0.454246 0.4840253
vn -0.6813307 0.7312844 -0.03180471
vn -0.8826113 -0.4513327 0.1315145
vn -0.4960556 0.728545 0.4723887
vn -0.7629172 -0.6273322 -0.1562427
vn -0.6795591 0.4047573 0.6118585
vn -0.5964951 -0.767194 0.2358112
vn -0.7151387 0.6436192 0.2726373
g polySurface3134_0
f 3/3/3 2/2/2 1/1/1
f 2/2/2 4/4/4 1/1/1
f 5/5/5 4/4/4 2/2/2
f 6/6/6 5/5/5 2/2/2
f 9/9/9 8/8/8 7/7/7
f 10/10/10 9/9/9 7/7/7
f 11/11/11 9/9/9 10/10/10
f 12/12/12 11/11/11 10/10/10
f 15/15/15 14/14/14 13/13/13
f 16/16/16 15/15/15 13/13/13
f 17/17/17 15/15/15 16/16/16
f 18/18/18 17/17/17 16/16/16
f 21/21/21 20/20/20 19/19/19
f 22/22/22 21/21/21 19/19/19
f 22/22/22 23/23/23 21/21/21
f 23/23/23 24/24/24 21/21/21
f 27/27/27 26/26/26 25/25/25
f 26/26/26 28/28/28 25/25/25
f 28/28/28 29/29/29 25/25/25
f 29/29/29 30/30/30 25/25/25
f 30/30/30 31/31/31 25/25/25
f 31/31/31 32/32/32 25/25/25
f 35/35/35 34/34/34 33/33/33
f 34/34/34 36/36/36 33/33/33
f 36/36/36 37/37/37 33/33/33
f 37/37/37 38/38/38 33/33/33
f 38/38/38 39/39/39 33/33/33
f 39/39/39 40/40/40 33/33/33
f 43/43/43 42/42/42 41/41/41
f 44/44/44 43/43/43 41/41/41
f 45/45/45 43/43/43 44/44/44
f 46/46/46 45/45/45 44/44/44
f 47/47/47 45/45/45 46/46/46
f 48/48/48 47/47/47 46/46/46
f 49/49/49 47/47/47 48/48/48
f 50/50/50 49/49/49 48/48/48
f 53/53/53 52/52/52 51/51/51
f 54/54/54 53/53/53 51/51/51
f 55/55/55 53/53/53 54/54/54
f 56/56/56 55/55/55 54/54/54
f 57/57/57 55/55/55 56/56/56
f 58/58/58 57/57/57 56/56/56
f 59/59/59 57/57/57 58/58/58
f 60/60/60 59/59/59 58/58/58
f 63/63/63 62/62/62 61/61/61
f 64/64/64 63/63/63 61/61/61
f 65/65/65 63/63/63 64/64/64
f 66/66/66 65/65/65 64/64/64
f 69/69/69 68/68/68 67/67/67
f 70/70/70 69/69/69 67/67/67
f 71/71/71 69/69/69 70/70/70
f 72/72/72 71/71/71 70/70/70
f 75/75/75 74/74/74 73/73/73
f 76/76/76 75/75/75 73/73/73
f 79/79/79 78/78/78 77/77/77
f 80/80/80 79/79/79 77/77/77
f 81/81/81 79/79/79 80/80/80
f 82/82/82 81/81/81 80/80/80
f 85/85/85 84/84/84 83/83/83
f 86/86/86 85/85/85 83/83/83
f 89/89/89 88/88/88 87/87/87
f 90/90/90 89/89/89 87/87/87
f 93/93/93 92/92/92 91/91/91
f 92/92/92 94/94/94 91/91/91
f 92/92/92 95/95/95 94/94/94
f 95/95/95 96/96/96 94/94/94
f 95/95/95 97/97/97 96/96/96
f 97/97/97 98/98/98 96/96/96
f 97/97/97 99/99/99 98/98/98
f 99/99/99 100/100/100 98/98/98
f 99/99/99 101/101/101 100/100/100
f 101/101/101 102/102/102 100/100/100
f 105/105/105 104/104/104 103/103/103
f 106/106/106 105/105/105 103/103/103
f 109/109/109 108/108/108 107/107/107
f 108/108/108 110/110/110 107/107/107
f 108/108/108 111/111/111 110/110/110
f 111/111/111 112/112/112 110/110/110
f 111/111/111 113/113/113 112/112/112
f 113/113/113 114/114/114 112/112/112
f 113/113/113 115/115/115 114/114/114
f 115/115/115 116/116/116 114/114/114
f 115/115/115 117/117/117 116/116/116
f 117/117/117 118/118/118 116/116/116
f 121/121/121 120/120/120 119/119/119
f 122/122/122 121/121/121 119/119/119
f 122/122/122 123/123/123 121/121/121
f 123/123/123 124/124/124 121/121/121
f 123/123/123 125/125/125 124/124/124
f 125/125/125 126/126/126 124/124/124
f 125/125/125 127/127/127 126/126/126
f 127/127/127 128/128/128 126/126/126
f 127/127/127 129/129/129 128/128/128
f 129/129/129 130/130/130 128/128/128
f 133/133/133 132/132/132 131/131/131
f 134/134/134 133/133/133 131/131/131
f 134/134/134 135/135/135 133/133/133
f 135/135/135 136/136/136 133/133/133
f 135/135/135 137/137/137 136/136/136
f 137/137/137 138/138/138 136/136/136
f 137/137/137 139/139/139 138/138/138
f 139/139/139 140/140/140 138/138/138
f 139/139/139 141/141/141 140/140/140
f 141/141/141 142/142/142 140/140/140
