g polySurface2801
v -0.5694914 3.048079 1.174443
v 0.5172739 3.048079 1.175111
v 0.5172739 0 1.175111
v -0.5694914 0 1.174443
v -0.5694914 0 -1.135314
v 0.5172739 0 -1.133978
v 0.5172739 3.048079 -1.133978
v -0.5694914 3.048079 -1.135314
v -0.5694914 3.048079 -1.135314
v 0.5172739 3.048079 -1.133978
v 0.5172739 5.616431 -1.133978
v -0.5694914 5.61447 -1.135314
v -0.5694914 3.048079 1.174443
v -0.5694914 3.048079 -1.135314
v -0.5694914 5.61447 -1.135314
v -0.5694914 6.41889 1.174443
v -0.5694914 3.048079 -1.135314
v -0.5694914 3.048079 1.174443
v -0.5694914 0 1.174443
v -0.5694914 0 -1.135314
v 0.5172739 3.048079 1.175111
v -0.5694914 3.048079 1.174443
v -0.5694914 6.41889 1.174443
v 0.5172739 6.421842 1.175111
v 0.5172739 3.048079 1.175111
v 0.5172739 3.048079 -1.133978
v 0.5172739 0 -1.133978
v 0.5172739 0 1.175111
v 0.5172739 3.048079 -1.133978
v 0.5172739 3.048079 1.175111
v 0.5172739 6.421842 1.175111
v 0.5172739 5.616431 -1.133978
v -0.6622374 5.576998 -1.240642
v -0.6622374 5.636932 -1.262794
v -0.6622374 6.566605 1.395238
v -0.6622374 6.506671 1.41739
v 0.6622372 6.505409 1.41739
v 0.6622372 6.565342 1.395238
v 0.6622372 5.63567 -1.262794
v 0.6622372 5.575736 -1.240642
v -0.6622374 6.566605 1.395238
v -0.6622374 5.636932 -1.262794
v 0.6622372 5.63567 -1.262794
v 0.6622372 6.565342 1.395238
v 0.6622372 5.575736 -1.240642
v 0.6622372 5.63567 -1.262794
v -0.6622374 5.636932 -1.262794
v -0.6622374 5.576998 -1.240642
v -0.6622374 6.506671 1.41739
v 0.6622372 6.505409 1.41739
v 0.6622372 5.575736 -1.240642
v -0.6622374 5.576998 -1.240642
v -0.6622374 6.566605 1.395238
v 0.6622372 6.565342 1.395238
v 0.6622372 6.505409 1.41739
v -0.6622374 6.506671 1.41739
vt 0.1608386 1
vt 0.250712 1
vt 0.250712 0.75
vt 0.1608386 0.75
vt 0.2565545 0.75
vt 0.1539914 0.75
vt 0.1539914 1
vt 0.2565545 1
vt 0.3406089 0.75
vt 0.2510675 0.75
vt 0.2510675 0.9419503
vt 0.3406089 0.9419503
vt 0.4972427 0.75
vt 0.3403041 0.75
vt 0.3403041 0.9413072
vt 0.4972427 0.9990315
vt 0.0006481335 1
vt 0.16068 1
vt 0.16068 0.75
vt 0.0006481335 0.75
vt 0.3378522 0.75
vt 0.250712 0.75
vt 0.250712 1
vt 0.3378522 1
vt 0.001966566 1
vt 0.1612362 1
vt 0.1612362 0.75
vt 0.001966566 0.75
vt 0.4988023 0.75
vt 0.3378443 0.75
vt 0.3378443 0.9990315
vt 0.4988023 0.9413071
vt 0.2425962 0.4895723
vt 0.2425962 0.4841643
vt 0.006362096 0.4841642
vt 0.006362126 0.4895723
vt 0.006362095 0.4843743
vt 0.00636211 0.4897824
vt 0.2425962 0.4897825
vt 0.2425962 0.4843743
vt 0.1085146 0.7362341
vt 0.1085146 0.5123205
vt 0.0001188934 0.5123205
vt 0.0001188934 0.7362341
vt 0.0001188948 0.5054376
vt 0.0001188934 0.5123205
vt 0.1085146 0.5123205
vt 0.1085146 0.5054376
vt 0.1086011 0.7352507
vt 0 0.7352507
vt 0 0.5147493
vt 0.1086011 0.5147493
vt 0.1412503 0.5149809
vt 0.2496461 0.5149809
vt 0.2496461 0.5080978
vt 0.1412503 0.5080978
vn -0.0006147335 0 0.9999999
vn -0.0006147335 0 0.9999999
vn -0.0006147335 0 0.9999999
vn -0.0006147335 0 0.9999999
vn 0.001229682 0 -0.9999993
vn 0.001229682 0 -0.9999993
vn 0.001229682 0 -0.9999993
vn 0.001229682 0 -0.9999993
vn 0.001229634 0 -0.9999993
vn 0.001229634 0 -0.9999993
vn 0.001229635 0 -0.9999993
vn 0.001229635 0 -0.9999993
vn -1 0 0
vn -1 0 0
vn -1 0 0
vn -1 0 0
vn -1 0 0
vn -1 0 0
vn -1 0 0
vn -1 0 0
vn -0.0006147032 0 0.9999999
vn -0.0006147032 0 0.9999999
vn -0.0006147033 0 0.9999999
vn -0.0006147033 0 0.9999999
vn 1 0 0
vn 1 0 0
vn 1 0 0
vn 1 0 0
vn 1 0 0
vn 1 0 0
vn 1 0 0
vn 1 0 0
vn -1 0 0
vn -1 0 0
vn -1 0 0
vn -1 0 0
vn 1 0 0
vn 1 0 0
vn 1 0 0
vn 1 0 0
vn 0.0008995374 0.9439288 -0.3301481
vn 0.0008995374 0.9439288 -0.3301481
vn 0.0008995374 0.9439288 -0.3301481
vn 0.0008995374 0.9439288 -0.3301481
vn -0.0003303192 -0.3466823 -0.9379826
vn -0.0003303192 -0.3466823 -0.9379826
vn -0.0003303192 -0.3466823 -0.9379826
vn -0.0003303192 -0.3466823 -0.9379826
vn -0.0008995387 -0.9439287 0.3301482
vn -0.0008995387 -0.9439287 0.3301482
vn -0.0008995387 -0.9439287 0.3301482
vn -0.0008995387 -0.9439287 0.3301482
vn 0.0003303645 0.3466874 0.9379806
vn 0.0003303646 0.3466875 0.9379807
vn 0.0003303645 0.3466874 0.9379806
vn 0.0003303646 0.3466875 0.9379807
g polySurface2801_0
f 3/3/3 2/2/2 1/1/1
f 4/4/4 3/3/3 1/1/1
f 7/7/7 6/6/6 5/5/5
f 8/8/8 7/7/7 5/5/5
f 11/11/11 10/10/10 9/9/9
f 12/12/12 11/11/11 9/9/9
f 15/15/15 14/14/14 13/13/13
f 16/16/16 15/15/15 13/13/13
f 19/19/19 18/18/18 17/17/17
f 20/20/20 19/19/19 17/17/17
f 23/23/23 22/22/22 21/21/21
f 24/24/24 23/23/23 21/21/21
f 27/27/27 26/26/26 25/25/25
f 28/28/28 27/27/27 25/25/25
f 31/31/31 30/30/30 29/29/29
f 32/32/32 31/31/31 29/29/29
f 35/35/35 34/34/34 33/33/33
f 36/36/36 35/35/35 33/33/33
f 39/39/39 38/38/38 37/37/37
f 40/40/40 39/39/39 37/37/37
f 43/43/43 42/42/42 41/41/41
f 44/44/44 43/43/43 41/41/41
f 47/47/47 46/46/46 45/45/45
f 48/48/48 47/47/47 45/45/45
f 51/51/51 50/50/50 49/49/49
f 52/52/52 51/51/51 49/49/49
f 55/55/55 54/54/54 53/53/53
f 56/56/56 55/55/55 53/53/53
