g polySurface217
v -1.135292 -0.002593994 -1.344393
v 2.34934 -0.002593994 -1.344393
v -1.135292 2.999718 -1.344393
v -1.135292 2.999718 -1.002017
v 2.34934 -0.002593994 -1.002017
v -1.135292 -0.002593994 -1.002017
v -1.135292 -0.002593994 1.002017
v 2.34934 -0.002593994 1.002017
v -1.135292 2.999718 1.002017
v -1.135292 2.999718 1.344393
v 2.34934 -0.002593994 1.344393
v -1.135292 -0.002593994 1.344393
v -2.361659 -0.002593994 -1.041611
v -2.361659 2.850811 -1.041611
v -2.361659 2.850811 1.051604
v -2.361659 -0.002593994 1.051604
v -2.361659 2.850811 -1.041611
v -1.586411 2.850811 -1.041611
v -1.586411 2.850811 1.051604
v -2.361659 2.850811 1.051604
v -2.461763 3.210776 0.9023801
v -1.267939 3.209585 1.44403
v -2.461763 3.210776 1.44403
v -1.267939 3.209585 0.9023801
v -1.038085 3.209356 1.44403
v -1.038085 3.209356 0.9023801
v -1.038085 3.209356 0.9023801
v 2.461764 0.1667128 0.9023801
v 2.461764 0.1667128 1.44403
v -1.038085 3.209356 1.44403
v -2.461763 2.999718 0.9023801
v -2.461763 2.999718 1.44403
v -1.267939 2.999718 1.44403
v -1.267939 2.999718 0.9023801
v -1.135292 2.999718 0.9023801
v -1.135292 2.999718 1.44403
v -1.135292 2.999718 0.9023801
v -1.135292 2.999718 1.44403
v 2.34934 -0.002593994 1.44403
v 2.34934 -0.002593994 0.9023801
v -2.461763 2.999718 0.9023801
v -2.461763 3.210776 0.9023801
v -2.461763 3.210776 1.44403
v -2.461763 2.999718 1.44403
v -2.461763 2.999718 1.44403
v -2.461763 3.210776 1.44403
v -1.267939 3.209585 1.44403
v -1.267939 2.999718 1.44403
v -1.135292 2.999718 1.44403
v -1.038085 3.209356 1.44403
v -2.461763 2.999718 0.9023801
v -1.267939 3.209585 0.9023801
v -2.461763 3.210776 0.9023801
v -1.267939 2.999718 0.9023801
v -1.038085 3.209356 0.9023801
v -1.135292 2.999718 0.9023801
v -1.135292 2.999718 1.44403
v -1.038085 3.209356 1.44403
v 2.461764 0.1667128 1.44403
v 2.34934 -0.002593994 1.44403
v 2.34934 -0.002593994 1.44403
v 2.461764 0.1667128 1.44403
v 2.461764 0.1667128 0.9023801
v 2.34934 -0.002593994 0.9023801
v 2.34934 -0.002593994 0.9023801
v 2.461764 0.1667128 0.9023801
v -1.038085 3.209356 0.9023801
v -1.135292 2.999718 0.9023801
v -2.461763 3.210776 -1.44403
v -1.267939 3.209585 -0.9023802
v -2.461763 3.210776 -0.9023802
v -1.267939 3.209585 -1.44403
v -1.038085 3.209356 -0.9023802
v -1.038085 3.209356 -1.44403
v -1.038085 3.209356 -1.44403
v 2.461764 0.1667128 -1.44403
v 2.461764 0.1667128 -0.9023802
v -1.038085 3.209356 -0.9023802
v -2.461763 2.999718 -1.44403
v -2.461763 2.999718 -0.9023802
v -1.267939 2.999718 -0.9023802
v -1.267939 2.999718 -1.44403
v -1.135292 2.999718 -1.44403
v -1.135292 2.999718 -0.9023802
v -1.135292 2.999718 -1.44403
v -1.135292 2.999718 -0.9023802
v 2.34934 -0.002593994 -0.9023802
v 2.34934 -0.002593994 -1.44403
v -2.461763 2.999718 -1.44403
v -2.461763 3.210776 -1.44403
v -2.461763 3.210776 -0.9023802
v -2.461763 2.999718 -0.9023802
v -2.461763 2.999718 -0.9023802
v -2.461763 3.210776 -0.9023802
v -1.267939 3.209585 -0.9023802
v -1.267939 2.999718 -0.9023802
v -1.135292 2.999718 -0.9023802
v -1.038085 3.209356 -0.9023802
v -2.461763 2.999718 -1.44403
v -1.267939 3.209585 -1.44403
v -2.461763 3.210776 -1.44403
v -1.267939 2.999718 -1.44403
v -1.038085 3.209356 -1.44403
v -1.135292 2.999718 -1.44403
v -1.135292 2.999718 -0.9023802
v -1.038085 3.209356 -0.9023802
v 2.461764 0.1667128 -0.9023802
v 2.34934 -0.002593994 -0.9023802
v 2.34934 -0.002593994 -0.9023802
v 2.461764 0.1667128 -0.9023802
v 2.461764 0.1667128 -1.44403
v 2.34934 -0.002593994 -1.44403
v 2.34934 -0.002593994 -1.44403
v 2.461764 0.1667128 -1.44403
v -1.038085 3.209356 -1.44403
v -1.135292 2.999718 -1.44403
v 1.483127 0.5651175 1.18098
v 1.073711 0.5651175 1.18098
v 1.073711 0.5651175 -1.140692
v 1.483127 0.5651175 -1.140692
v 1.483127 0.5651175 -1.140692
v 1.483127 0.275665 -1.140692
v 1.483127 0.275665 1.18098
v 1.483127 0.5651175 1.18098
v 1.81948 0.275665 1.18098
v 1.410065 0.275665 1.18098
v 1.410065 0.275665 -1.140692
v 1.81948 0.275665 -1.140692
v 1.81948 0.275665 -1.140692
v 1.81948 -0.01378759 -1.140692
v 1.81948 -0.01378759 1.18098
v 1.81948 0.275665 1.18098
v 1.138691 0.8545702 1.18098
v 0.7292752 0.8545702 1.18098
v 0.7292752 0.8545702 -1.140692
v 1.138691 0.8545702 -1.140692
v 1.138691 0.8545702 -1.140692
v 1.138691 0.5651175 -1.140692
v 1.138691 0.5651175 1.18098
v 1.138691 0.8545702 1.18098
v 0.4647264 1.432732 1.18098
v 0.05531073 1.432732 1.18098
v 0.05531073 1.432732 -1.140692
v 0.4647264 1.432732 -1.140692
v 0.4647264 1.432732 -1.140692
v 0.4647264 1.143279 -1.140692
v 0.4647264 1.143279 1.18098
v 0.4647264 1.432732 1.18098
v 0.8010793 1.143279 1.18098
v 0.3916645 1.143279 1.18098
v 0.3916645 1.143279 -1.140692
v 0.8010793 1.143279 -1.140692
v 0.8010793 1.143279 -1.140692
v 0.8010793 0.8538263 -1.140692
v 0.8010793 0.8538263 1.18098
v 0.8010793 1.143279 1.18098
v 0.1202908 1.722184 1.18098
v -0.289125 1.722184 1.18098
v -0.289125 1.722184 -1.140692
v 0.1202908 1.722184 -1.140692
v 0.1202908 1.722184 -1.140692
v 0.1202908 1.432732 -1.140692
v 0.1202908 1.432732 1.18098
v 0.1202908 1.722184 1.18098
v -0.5536737 2.300346 1.18098
v -0.9630895 2.300346 1.18098
v -0.9630895 2.300346 -1.140692
v -0.5536737 2.300346 -1.140692
v -0.5536737 2.300346 -1.140692
v -0.5536737 2.010893 -1.140692
v -0.5536737 2.010893 1.18098
v -0.5536737 2.300346 1.18098
v -0.2173209 2.010893 1.18098
v -0.6267362 2.010893 1.18098
v -0.6267362 2.010893 -1.140692
v -0.2173209 2.010893 -1.140692
v -0.2173209 2.010893 -1.140692
v -0.2173209 1.72144 -1.140692
v -0.2173209 1.72144 1.18098
v -0.2173209 2.010893 1.18098
v -0.8981094 2.589798 1.18098
v -1.307526 2.589798 1.18098
v -1.307526 2.589798 -1.140692
v -0.8981094 2.589798 -1.140692
v -0.8981094 2.589798 -1.140692
v -0.8981094 2.300346 -1.140692
v -0.8981094 2.300346 1.18098
v -0.8981094 2.589798 1.18098
v -1.614027 2.880286 -1.140692
v -1.614027 2.880286 1.18098
v -1.614027 2.590833 1.18098
v -1.614027 2.590833 -1.140692
v -1.204612 2.880286 1.18098
v -1.614027 2.880286 1.18098
v -1.614027 2.880286 -1.140692
v -1.204612 2.880286 -1.140692
v -1.204612 2.880286 -1.140692
v -1.204612 2.590833 -1.140692
v -1.204612 2.590833 1.18098
v -1.204612 2.880286 1.18098
v -2.461763 -0.002593994 -1.344393
v -2.461763 2.999718 -1.344393
v -2.461763 2.999718 -1.002017
v -2.461763 -0.002593994 -1.002017
v -2.461763 -0.002593994 -1.344393
v -1.135292 -0.002593994 -1.344393
v -1.135292 2.999718 -1.344393
v -2.461763 2.999718 -1.344393
v -2.461763 2.999718 -1.002017
v -1.135292 2.999718 -1.002017
v -1.135292 -0.002593994 -1.002017
v -2.461763 -0.002593994 -1.002017
v -2.461763 -0.002593994 1.002017
v -2.461763 2.999718 1.002017
v -2.461763 2.999718 1.344393
v -2.461763 -0.002593994 1.344393
v -2.461763 -0.002593994 1.002017
v -1.135292 -0.002593994 1.002017
v -1.135292 2.999718 1.002017
v -2.461763 2.999718 1.002017
v -2.461763 2.999718 1.344393
v -1.135292 2.999718 1.344393
v -1.135292 -0.002593994 1.344393
v -2.461763 -0.002593994 1.344393
vt 0.250201 0.7515388
vt 0.001148641 0.7515388
vt 0.250201 0.9974902
vt 0.002079308 0.9986758
vt 0.2511317 0.7515388
vt 0.002079457 0.7515388
vt 0.250201 0.7515388
vt 0.001148641 0.7515388
vt 0.250201 0.9974902
vt 0.002079308 0.9986758
vt 0.2511317 0.7515388
vt 0.002079457 0.7515388
vt 0.2168325 0.75
vt 0.2168325 1
vt 0.0331675 1
vt 0.0331675 0.75
vt 0.2885055 0.9997981
vt 0.2885055 0.9342347
vt 0.4721705 0.9342347
vt 0.4721705 0.9997981
vt 0.3556921 0.3200369
vt 0.2401511 0.3625199
vt 0.3556921 0.3625199
vt 0.2401511 0.3200369
vt 0.2274259 0.3625199
vt 0.2274259 0.3200369
vt 0.5702475 0.3200369
vt 0.2274259 0.3200369
vt 0.2274259 0.3625199
vt 0.5702475 0.3625199
vt 0.3562169 0.3625199
vt 0.3556921 0.3200369
vt 0.2402525 0.3200369
vt 0.2403049 0.3625199
vt 0.2274259 0.3625199
vt 0.2274259 0.3200369
vt 0.5702475 0.3625199
vt 0.5702475 0.3200369
vt 0.2274259 0.3200369
vt 0.2274259 0.3625199
vt 0.3859945 0.2810452
vt 0.3859945 0.3048371
vt 0.4311219 0.3048371
vt 0.4311219 0.2810452
vt 0.3556921 0.381777
vt 0.3556921 0.3625199
vt 0.2401511 0.3625199
vt 0.2402525 0.381777
vt 0.2274259 0.381777
vt 0.2274259 0.3625199
vt 0.3562169 0.3625199
vt 0.2402525 0.381777
vt 0.3562169 0.381777
vt 0.2403049 0.3625199
vt 0.2274259 0.381777
vt 0.2274259 0.3625199
vt 0.5702475 0.381777
vt 0.5702475 0.3625199
vt 0.2274259 0.3625199
vt 0.2274259 0.381777
vt 0.4311219 0.3048371
vt 0.4311219 0.2810452
vt 0.3859945 0.2810452
vt 0.3859944 0.3048371
vt 0.2274259 0.3625199
vt 0.2274259 0.381777
vt 0.5702475 0.381777
vt 0.5702475 0.3625199
vt 0.3556921 0.3200369
vt 0.2401511 0.3625199
vt 0.3556921 0.3625199
vt 0.2401511 0.3200369
vt 0.2274259 0.3625199
vt 0.2274259 0.3200369
vt 0.5702475 0.3200369
vt 0.2274259 0.3200369
vt 0.2274259 0.3625199
vt 0.5702475 0.3625199
vt 0.3562169 0.3625199
vt 0.3556921 0.3200369
vt 0.2402525 0.3200369
vt 0.2403049 0.3625199
vt 0.2274259 0.3625199
vt 0.2274259 0.3200369
vt 0.5702475 0.3625199
vt 0.5702475 0.3200369
vt 0.2274259 0.3200369
vt 0.2274259 0.3625199
vt 0.3859945 0.2810452
vt 0.3859945 0.3048371
vt 0.4311219 0.3048371
vt 0.4311219 0.2810452
vt 0.3556921 0.381777
vt 0.3556921 0.3625199
vt 0.2401511 0.3625199
vt 0.2402525 0.381777
vt 0.2274259 0.381777
vt 0.2274259 0.3625199
vt 0.3562169 0.3625199
vt 0.2402525 0.381777
vt 0.3562169 0.381777
vt 0.2403049 0.3625199
vt 0.2274259 0.381777
vt 0.2274259 0.3625199
vt 0.5702475 0.381777
vt 0.5702475 0.3625199
vt 0.2274259 0.3625199
vt 0.2274259 0.381777
vt 0.4311219 0.3048371
vt 0.4311219 0.2810452
vt 0.3859945 0.2810452
vt 0.3859944 0.3048371
vt 0.2274259 0.3625199
vt 0.2274259 0.381777
vt 0.5702475 0.381777
vt 0.5702475 0.3625199
vt 0.647055 0.624934
vt 0.647055 0.672584
vt 0.895837 0.672584
vt 0.895837 0.624934
vt 0.895837 0.624934
vt 0.895837 0.608906
vt 0.647055 0.608906
vt 0.647055 0.624934
vt 0.647055 0.554126
vt 0.647055 0.601776
vt 0.895837 0.601776
vt 0.895837 0.554126
vt 0.895837 0.554126
vt 0.895837 0.538098
vt 0.647055 0.538098
vt 0.647055 0.554126
vt 0.647055 0.696772
vt 0.647055 0.744422
vt 0.895837 0.744422
vt 0.895837 0.696772
vt 0.895837 0.696772
vt 0.895837 0.680744
vt 0.647055 0.680744
vt 0.647055 0.696772
vt 0.647055 0.624934
vt 0.647055 0.672584
vt 0.895837 0.672584
vt 0.895837 0.624934
vt 0.895837 0.624934
vt 0.895837 0.608906
vt 0.647055 0.608906
vt 0.647055 0.624934
vt 0.647055 0.554126
vt 0.647055 0.601776
vt 0.895837 0.601776
vt 0.895837 0.554126
vt 0.895837 0.554126
vt 0.895837 0.538098
vt 0.647055 0.538098
vt 0.647055 0.554126
vt 0.647055 0.696772
vt 0.647055 0.744422
vt 0.895837 0.744422
vt 0.895837 0.696772
vt 0.895837 0.696772
vt 0.895837 0.680744
vt 0.647055 0.680744
vt 0.647055 0.696772
vt 0.647055 0.624934
vt 0.647055 0.672584
vt 0.895837 0.672584
vt 0.895837 0.624934
vt 0.895837 0.624934
vt 0.895837 0.608906
vt 0.647055 0.608906
vt 0.647055 0.624934
vt 0.647055 0.554126
vt 0.647055 0.601776
vt 0.895837 0.601776
vt 0.895837 0.554126
vt 0.895837 0.554126
vt 0.895837 0.538098
vt 0.647055 0.538098
vt 0.647055 0.554126
vt 0.647055 0.696772
vt 0.647055 0.744422
vt 0.895837 0.744422
vt 0.895837 0.696772
vt 0.895837 0.696772
vt 0.895837 0.680744
vt 0.647055 0.680744
vt 0.647055 0.696772
vt 0.895837 0.554126
vt 0.647055 0.554126
vt 0.647055 0.538098
vt 0.895837 0.538098
vt 0.647055 0.554126
vt 0.647055 0.601776
vt 0.895837 0.601776
vt 0.895837 0.554126
vt 0.895837 0.554126
vt 0.895837 0.538098
vt 0.647055 0.538098
vt 0.647055 0.554126
vt 0.09750915 0.7511829
vt 0.09750921 0.9971342
vt 0.138126 0.9971342
vt 0.1381259 0.7511828
vt 0.09692506 0.7515388
vt 0.002119958 0.7515388
vt 0.002119943 0.9974902
vt 0.09692506 0.9974905
vt 0.1552807 0.9986758
vt 0.2500858 0.9974902
vt 0.2500859 0.7515388
vt 0.1552808 0.7515388
vt 0.155441 0.7528621
vt 0.155441 0.9988135
vt 0.1148243 0.9988135
vt 0.1148243 0.7528621
vt 0.09692506 0.7515388
vt 0.002119958 0.7515388
vt 0.002119943 0.9974902
vt 0.09692506 0.9974905
vt 0.1552807 0.9986758
vt 0.2500858 0.9974902
vt 0.2500859 0.7515388
vt 0.1552808 0.7515388
vn 0 0 -1
vn 0 0 -1
vn 0 0 -1
vn 0 0 1
vn 0 0 1
vn 0 0 1
vn 0 0 -1
vn 0 0 -1
vn 0 0 -1
vn 0 0 1
vn 0 0 1
vn 0 0 1
vn -1 0 0
vn -1 0 0
vn -1 0 0
vn -1 0 0
vn 0 1 0
vn 0 1 0
vn 0 1 0
vn 0 1 0
vn 0.00099775 0.9999995 0
vn 0.0009977651 0.9999995 0
vn 0.00099775 0.9999995 0
vn 0.0009977651 0.9999995 0
vn 0.6321542 0.7748426 0
vn 0.6321542 0.7748426 0
vn 0.6321542 0.7748426 0
vn 0.6560925 0.7546806 0
vn 0.6560925 0.7546806 0
vn 0.6321542 0.7748426 0
vn 0 -1 0
vn 0 -1 0
vn 0 -1 0
vn 0 -1 0
vn -0.6386657 -0.7694843 0
vn -0.6386657 -0.7694843 0
vn -0.6386657 -0.7694843 0
vn -0.6386657 -0.7694843 0
vn -0.6527299 -0.7575907 0
vn -0.6527299 -0.7575907 0
vn -1 0 0
vn -1 0 0
vn -1 0 0
vn -1 0 0
vn 0 0 1
vn 0 0 1
vn 0 0 1
vn 0 0 1
vn 0 0 1
vn 0 0 1
vn 0 0 -1
vn 0 0 -1
vn 0 0 -1
vn 0 0 -1
vn 0 0 -1
vn 0 0 -1
vn 0 0 1
vn 0 0 1
vn 0 0 1
vn 0 0 1
vn 0.8330657 -0.553174 0
vn 0.8330657 -0.553174 0
vn 0.8330657 -0.553174 0
vn 0.8330657 -0.553174 0
vn 0 0 -1
vn 0 0 -1
vn 0 0 -1
vn 0 0 -1
vn 0.00099775 0.9999995 0
vn 0.0009977651 0.9999995 0
vn 0.00099775 0.9999995 0
vn 0.0009977651 0.9999995 0
vn 0.6321543 0.7748426 0
vn 0.6321543 0.7748426 0
vn 0.6321543 0.7748426 0
vn 0.6560924 0.7546806 0
vn 0.6560924 0.7546806 0
vn 0.6321543 0.7748426 0
vn 0 -1 0
vn 0 -1 0
vn 0 -1 0
vn 0 -1 0
vn -0.6386657 -0.7694843 0
vn -0.6386657 -0.7694843 0
vn -0.6386657 -0.7694843 0
vn -0.6386657 -0.7694843 0
vn -0.6527299 -0.7575907 0
vn -0.6527299 -0.7575907 0
vn -1 0 0
vn -1 0 0
vn -1 0 0
vn -1 0 0
vn 0 0 1
vn 0 0 1
vn 0 0 1
vn 0 0 1
vn 0 0 1
vn 0 0 1
vn 0 0 -1
vn 0 0 -1
vn 0 0 -1
vn 0 0 -1
vn 0 0 -1
vn 0 0 -1
vn 0 0 1
vn 0 0 1
vn 0 0 1
vn 0 0 1
vn 0.8330657 -0.5531741 0
vn 0.8330657 -0.5531741 0
vn 0.8330657 -0.5531741 0
vn 0.8330657 -0.5531741 0
vn 0 0 -1
vn 0 0 -1
vn 0 0 -1
vn 0 0 -1
vn 0.5772859 0.8165421 0
vn 0 1 0
vn 0 1 0
vn 0.5772859 0.8165421 0
vn 0.5772859 0.8165421 0
vn 1 0 0
vn 1 0 0
vn 0.5772859 0.8165421 0
vn 0.5772859 0.8165421 0
vn 0 1 0
vn 0 1 0
vn 0.5772859 0.8165421 0
vn 0.5772859 0.8165421 0
vn 1 0 0
vn 1 0 0
vn 0.5772859 0.8165421 0
vn 0.5772859 0.8165421 0
vn 0 1 0
vn 0 1 0
vn 0.5772859 0.8165421 0
vn 0.5772859 0.8165421 0
vn 1 0 0
vn 1 0 0
vn 0.5772859 0.8165421 0
vn 0.5772859 0.8165421 0
vn 0 1 0
vn 0 1 0
vn 0.5772859 0.8165421 0
vn 0.5772859 0.8165421 0
vn 1 0 0
vn 1 0 0
vn 0.5772859 0.8165421 0
vn 0.5772859 0.8165421 0
vn 0 1 0
vn 0 1 0
vn 0.5772859 0.8165421 0
vn 0.5772859 0.8165421 0
vn 1 0 0
vn 1 0 0
vn 0.5772859 0.8165421 0
vn 0.5772859 0.8165421 0
vn 0 1 0
vn 0 1 0
vn 0.5772859 0.8165421 0
vn 0.5772859 0.8165421 0
vn 1 0 0
vn 1 0 0
vn 0.5772859 0.8165421 0
vn 0.5772859 0.8165421 0
vn 0 1 0
vn 0 1 0
vn 0.5772859 0.8165421 0
vn 0.5772859 0.8165421 0
vn 1 0 0
vn 1 0 0
vn 0.5772859 0.8165421 0
vn 0.5772859 0.8165421 0
vn 0 1 0
vn 0 1 0
vn 0.5772859 0.8165421 0
vn 0.5772859 0.8165421 0
vn 1 0 0
vn 1 0 0
vn 0.5772859 0.8165421 0
vn 0.5772859 0.8165421 0
vn 0 1 0
vn 0 1 0
vn 0.5772859 0.8165421 0
vn 0.5772859 0.8165421 0
vn 1 0 0
vn 1 0 0
vn 0.5772859 0.8165421 0
vn 0.5772859 0.8165421 0
vn 0.5772859 0.8165421 0
vn 1 0 0
vn 1 0 0
vn 0.5772859 0.8165421 0
vn 0 1 0
vn 0 1 0
vn 0.5772859 0.8165421 0
vn 0.5772859 0.8165421 0
vn 1 0 0
vn 1 0 0
vn 0.5772859 0.8165421 0
vn -1 0 0
vn -1 0 0
vn -1 0 0
vn -1 0 0
vn 0 0 -1
vn 0 0 -1
vn 0 0 -1
vn 0 0 -1
vn 0 0 1
vn 0 0 1
vn 0 0 1
vn 0 0 1
vn -1 0 0
vn -1 0 0
vn -1 0 0
vn -1 0 0
vn 0 0 -1
vn 0 0 -1
vn 0 0 -1
vn 0 0 -1
vn 0 0 1
vn 0 0 1
vn 0 0 1
vn 0 0 1
g polySurface217_0
f 3/3/3 2/2/2 1/1/1
f 6/6/6 5/5/5 4/4/4
f 9/9/9 8/8/8 7/7/7
f 12/12/12 11/11/11 10/10/10
f 15/15/15 14/14/14 13/13/13
f 16/16/16 15/15/15 13/13/13
f 19/19/19 18/18/18 17/17/17
f 20/20/20 19/19/19 17/17/17
f 23/23/23 22/22/22 21/21/21
f 22/22/22 24/24/24 21/21/21
f 22/22/22 25/25/25 24/24/24
f 25/25/25 26/26/26 24/24/24
f 29/29/29 28/28/28 27/27/27
f 30/30/30 29/29/29 27/27/27
f 33/33/33 32/32/32 31/31/31
f 34/34/34 33/33/33 31/31/31
f 34/34/34 35/35/35 33/33/33
f 35/35/35 36/36/36 33/33/33
f 39/39/39 38/38/38 37/37/37
f 40/40/40 39/39/39 37/37/37
f 43/43/43 42/42/42 41/41/41
f 44/44/44 43/43/43 41/41/41
f 47/47/47 46/46/46 45/45/45
f 48/48/48 47/47/47 45/45/45
f 48/48/48 49/49/49 47/47/47
f 49/49/49 50/50/50 47/47/47
f 53/53/53 52/52/52 51/51/51
f 52/52/52 54/54/54 51/51/51
f 52/52/52 55/55/55 54/54/54
f 55/55/55 56/56/56 54/54/54
f 59/59/59 58/58/58 57/57/57
f 60/60/60 59/59/59 57/57/57
f 63/63/63 62/62/62 61/61/61
f 64/64/64 63/63/63 61/61/61
f 67/67/67 66/66/66 65/65/65
f 68/68/68 67/67/67 65/65/65
f 71/71/71 70/70/70 69/69/69
f 70/70/70 72/72/72 69/69/69
f 70/70/70 73/73/73 72/72/72
f 73/73/73 74/74/74 72/72/72
f 77/77/77 76/76/76 75/75/75
f 78/78/78 77/77/77 75/75/75
f 81/81/81 80/80/80 79/79/79
f 82/82/82 81/81/81 79/79/79
f 82/82/82 83/83/83 81/81/81
f 83/83/83 84/84/84 81/81/81
f 87/87/87 86/86/86 85/85/85
f 88/88/88 87/87/87 85/85/85
f 91/91/91 90/90/90 89/89/89
f 92/92/92 91/91/91 89/89/89
f 95/95/95 94/94/94 93/93/93
f 96/96/96 95/95/95 93/93/93
f 96/96/96 97/97/97 95/95/95
f 97/97/97 98/98/98 95/95/95
f 101/101/101 100/100/100 99/99/99
f 100/100/100 102/102/102 99/99/99
f 100/100/100 103/103/103 102/102/102
f 103/103/103 104/104/104 102/102/102
f 107/107/107 106/106/106 105/105/105
f 108/108/108 107/107/107 105/105/105
f 111/111/111 110/110/110 109/109/109
f 112/112/112 111/111/111 109/109/109
f 115/115/115 114/114/114 113/113/113
f 116/116/116 115/115/115 113/113/113
f 119/119/119 118/118/118 117/117/117
f 120/120/120 119/119/119 117/117/117
f 123/123/123 122/122/122 121/121/121
f 124/124/124 123/123/123 121/121/121
f 127/127/127 126/126/126 125/125/125
f 128/128/128 127/127/127 125/125/125
f 131/131/131 130/130/130 129/129/129
f 132/132/132 131/131/131 129/129/129
f 135/135/135 134/134/134 133/133/133
f 136/136/136 135/135/135 133/133/133
f 139/139/139 138/138/138 137/137/137
f 140/140/140 139/139/139 137/137/137
f 143/143/143 142/142/142 141/141/141
f 144/144/144 143/143/143 141/141/141
f 147/147/147 146/146/146 145/145/145
f 148/148/148 147/147/147 145/145/145
f 151/151/151 150/150/150 149/149/149
f 152/152/152 151/151/151 149/149/149
f 155/155/155 154/154/154 153/153/153
f 156/156/156 155/155/155 153/153/153
f 159/159/159 158/158/158 157/157/157
f 160/160/160 159/159/159 157/157/157
f 163/163/163 162/162/162 161/161/161
f 164/164/164 163/163/163 161/161/161
f 167/167/167 166/166/166 165/165/165
f 168/168/168 167/167/167 165/165/165
f 171/171/171 170/170/170 169/169/169
f 172/172/172 171/171/171 169/169/169
f 175/175/175 174/174/174 173/173/173
f 176/176/176 175/175/175 173/173/173
f 179/179/179 178/178/178 177/177/177
f 180/180/180 179/179/179 177/177/177
f 183/183/183 182/182/182 181/181/181
f 184/184/184 183/183/183 181/181/181
f 187/187/187 186/186/186 185/185/185
f 188/188/188 187/187/187 185/185/185
f 191/191/191 190/190/190 189/189/189
f 192/192/192 191/191/191 189/189/189
f 195/195/195 194/194/194 193/193/193
f 196/196/196 195/195/195 193/193/193
f 199/199/199 198/198/198 197/197/197
f 200/200/200 199/199/199 197/197/197
f 203/203/203 202/202/202 201/201/201
f 204/204/204 203/203/203 201/201/201
f 207/207/207 206/206/206 205/205/205
f 208/208/208 207/207/207 205/205/205
f 211/211/211 210/210/210 209/209/209
f 212/212/212 211/211/211 209/209/209
f 215/215/215 214/214/214 213/213/213
f 216/216/216 215/215/215 213/213/213
f 219/219/219 218/218/218 217/217/217
f 220/220/220 219/219/219 217/217/217
f 223/223/223 222/222/222 221/221/221
f 224/224/224 223/223/223 221/221/221
