g polySurface480
v 0.4665952 1.92404 -0.4903241
v 0.4380989 2.490573 -0.4286589
v -0.4602323 2.504013 -0.4371563
v -0.4431789 1.724051 -0.4739057
v -0.2830582 1.394529 -0.4978817
v 0.4859366 0.7147728 -0.4713838
v -0.4469678 0.4894624 -0.4597068
v 0.4885955 -0.4621639 -0.4389117
v -0.4481494 -0.4551835 -0.4510515
v -0.4885952 1.135817 -0.4520136
v -0.4751449 1.438738 -0.2929683
v -0.4756231 0.4876474 0.4732997
v -0.4445536 -0.4640931 0.4937401
v -0.4481494 -0.4551835 -0.4510515
v -0.4469678 0.4894624 -0.4597068
v -0.4885952 1.135817 -0.4520136
v -0.4751449 1.438738 -0.2929683
v -0.4822335 1.543983 0.4945087
v -0.4431789 1.724051 -0.4739057
v -0.2830582 1.394529 -0.4978817
v -0.4814136 2.488065 0.4760863
v -0.4602323 2.504013 -0.4371563
v -0.4814136 2.488065 0.4760863
v -0.4602323 2.504013 -0.4371563
v 0.4451566 2.516875 0.4713286
v 0.4380989 2.490573 -0.4286589
v 0.4451566 2.516875 0.4713286
v 0.4380989 2.490573 -0.4286589
v 0.4707885 2.094737 0.4978824
v 0.4665952 1.92404 -0.4903241
v 0.4460912 0.7442564 0.4949695
v 0.4859366 0.7147728 -0.4713838
v 0.4884295 0.3976214 0.4375023
v 0.4885955 -0.4621639 -0.4389117
v 0.4838133 -0.4672179 0.4776966
v -0.4814136 2.488065 0.4760863
v 0.4451566 2.516875 0.4713286
v 0.4707885 2.094737 0.4978824
v -0.4822335 1.543983 0.4945087
v 0.4460912 0.7442564 0.4949695
v -0.4756231 0.4876474 0.4732997
v 0.4884295 0.3976214 0.4375023
v 0.4838133 -0.4672179 0.4776966
v -0.4445536 -0.4640931 0.4937401
v -0.4481494 -0.4551835 -0.4510515
v -0.4445536 -0.4640931 0.4937401
v 0.4838133 -0.4672179 0.4776966
v 0.4885955 -0.4621639 -0.4389117
vt 0.313421 0.223754
vt 0.314076 0.256482
vt 0.366412 0.257791
vt 0.366846 0.214184
vt 0.359608 0.194918
vt 0.314889 0.155447
vt 0.36979 0.143176
vt 0.314974 0.088813
vt 0.370252 0.08887
vt 0.370439 0.179492
vt 0.376352 0.197756
vt 0.421996 0.145253
vt 0.42585 0.090922
vt 0.370252 0.08887
vt 0.36979 0.143176
vt 0.370439 0.179492
vt 0.376352 0.197756
vt 0.419503 0.205598
vt 0.366846 0.214184
vt 0.359608 0.194918
vt 0.418085 0.258644
vt 0.366412 0.257791
vt 0.367885 0.311062
vt 0.366412 0.257791
vt 0.313096 0.310428
vt 0.314076 0.256482
vt 0.472011 0.262652
vt 0.524899 0.264051
vt 0.473405 0.238747
vt 0.528049 0.231566
vt 0.475845 0.162444
vt 0.529216 0.163292
vt 0.479913 0.142378
vt 0.533723 0.096979
vt 0.480414 0.092718
vt 0.418085 0.258644
vt 0.472011 0.262652
vt 0.473405 0.238747
vt 0.419503 0.205598
vt 0.475845 0.162444
vt 0.421996 0.145253
vt 0.479913 0.142378
vt 0.480414 0.092718
vt 0.42585 0.090922
vt 0.370252 0.08887
vt 0.369639 0.033542
vt 0.314915 0.034584
vt 0.314974 0.088813
vn 0.8176664 0.02745416 -0.5750374
vn 0.4716777 0.7496576 -0.464256
vn -0.5687823 0.65722 -0.4945184
vn -0.741725 0.02430477 -0.6702636
vn -0.05196221 -0.0065535 -0.9986275
vn 0.7402909 -0.008555101 -0.6722323
vn -0.6299052 -0.03673434 -0.7758029
vn 0.5806323 -0.5422936 -0.6072757
vn -0.5774067 -0.5690675 -0.5854604
vn -0.9610339 0.005793771 -0.27637
vn -0.9970094 0.02918109 -0.07155931
vn -0.6860623 -0.01424888 0.7274032
vn -0.568666 -0.57508 0.5881342
vn -0.5774067 -0.5690675 -0.5854604
vn -0.6299052 -0.03673434 -0.7758029
vn -0.9610339 0.005793771 -0.27637
vn -0.9970094 0.02918109 -0.07155931
vn -0.6105312 -0.0002971311 0.7919922
vn -0.741725 0.02430477 -0.6702636
vn -0.05196221 -0.0065535 -0.9986275
vn -0.611267 0.5859588 0.5319822
vn -0.5687823 0.65722 -0.4945184
vn -0.611267 0.5859588 0.5319822
vn -0.5687823 0.65722 -0.4945184
vn 0.3711964 0.8477622 0.3788302
vn 0.4716777 0.7496576 -0.464256
vn 0.3711964 0.8477622 0.3788302
vn 0.4716777 0.7496576 -0.464256
vn 0.7105109 0.0133115 0.7035602
vn 0.8176664 0.02745416 -0.5750374
vn 0.6832464 -0.01249803 0.7300809
vn 0.7402909 -0.008555101 -0.6722323
vn 0.7895921 0.01470639 0.613456
vn 0.5806323 -0.5422936 -0.6072757
vn 0.5446878 -0.5921435 0.5938696
vn -0.611267 0.5859588 0.5319822
vn 0.3711964 0.8477622 0.3788302
vn 0.7105109 0.0133115 0.7035602
vn -0.6105312 -0.0002971311 0.7919922
vn 0.6832464 -0.01249803 0.7300809
vn -0.6860623 -0.01424888 0.7274032
vn 0.7895921 0.01470639 0.613456
vn 0.5446878 -0.5921435 0.5938696
vn -0.568666 -0.57508 0.5881342
vn -0.5774067 -0.5690675 -0.5854604
vn -0.568666 -0.57508 0.5881342
vn 0.5446878 -0.5921435 0.5938696
vn 0.5806323 -0.5422936 -0.6072757
g polySurface480_0
f 3/3/3 2/2/2 1/1/1
f 3/3/3 1/1/1 4/4/4
f 5/5/5 4/4/4 1/1/1
f 5/5/5 1/1/1 6/6/6
f 7/7/7 5/5/5 6/6/6
f 8/8/8 7/7/7 6/6/6
f 8/8/8 9/9/9 7/7/7
f 7/7/7 10/10/10 5/5/5
f 10/10/10 11/11/11 5/5/5
f 14/14/14 13/13/13 12/12/12
f 14/14/14 12/12/12 15/15/15
f 12/12/12 16/16/16 15/15/15
f 16/16/16 12/12/12 17/17/17
f 17/17/17 12/12/12 18/18/18
f 19/19/19 17/17/17 18/18/18
f 17/17/17 19/19/19 20/20/20
f 19/19/19 18/18/18 21/21/21
f 22/22/22 19/19/19 21/21/21
f 25/25/25 24/24/24 23/23/23
f 26/26/26 24/24/24 25/25/25
f 29/29/29 28/28/28 27/27/27
f 30/30/30 28/28/28 29/29/29
f 30/30/30 29/29/29 31/31/31
f 30/30/30 31/31/31 32/32/32
f 32/32/32 31/31/31 33/33/33
f 33/33/33 34/34/34 32/32/32
f 33/33/33 35/35/35 34/34/34
f 38/38/38 37/37/37 36/36/36
f 36/36/36 39/39/39 38/38/38
f 39/39/39 40/40/40 38/38/38
f 39/39/39 41/41/41 40/40/40
f 40/40/40 41/41/41 42/42/42
f 43/43/43 42/42/42 41/41/41
f 43/43/43 41/41/41 44/44/44
f 47/47/47 46/46/46 45/45/45
f 47/47/47 45/45/45 48/48/48
