g polySurface3133
v -0.1939533 2.482824 -0.1119791
v -0.1939534 3.482799 0.1119527
v -0.1939534 2.482824 0.111979
v -0.1939533 3.480941 -0.1119976
v -0.1939534 3.858293 0.009481817
v -0.1939533 3.746135 -0.1843679
v -0.1939534 4.13171 -0.260636
v -0.1939533 3.939236 -0.3751391
v -0.1939534 4.238841 -0.6590716
v -0.1939533 4.014897 -0.656535
v -0.1939534 2.482824 0.111979
v -3.337234E-08 3.483728 0.2239279
v -3.337234E-08 2.482824 0.223958
v -0.1939534 3.482799 0.1119527
v -3.337234E-08 3.914372 0.1064067
v -0.1939534 3.858293 0.009481817
v -3.337234E-08 4.227947 -0.2033844
v -0.1939534 4.13171 -0.260636
v -3.337234E-08 4.350813 -0.6603399
v -0.1939534 4.238841 -0.6590716
v -3.337234E-08 2.482824 0.223958
v 0.1939533 3.482799 0.1119528
v 0.1939533 2.482824 0.111979
v -3.337234E-08 3.483728 0.2239279
v 0.1939533 3.858293 0.009481872
v -3.337234E-08 3.914372 0.1064067
v 0.1939533 4.13171 -0.2606359
v -3.337234E-08 4.227947 -0.2033844
v 0.1939533 4.238841 -0.6590716
v -3.337234E-08 4.350813 -0.6603399
v 0.1939533 2.482824 0.111979
v 0.1939534 3.480941 -0.1119975
v 0.1939534 2.482824 -0.111979
v 0.1939533 3.482799 0.1119528
v 0.1939534 3.746135 -0.1843678
v 0.1939533 3.858293 0.009481872
v 0.1939534 3.939236 -0.3751391
v 0.1939533 4.13171 -0.2606359
v 0.1939534 4.014898 -0.656535
v 0.1939533 4.238841 -0.6590716
v 0.1939534 2.482824 -0.111979
v 9.946386E-17 3.480012 -0.2239727
v 1.146784E-16 2.482824 -0.223958
v 0.1939534 3.480941 -0.1119975
v 1.24919E-16 3.690055 -0.2812927
v 0.1939534 3.746135 -0.1843678
v 1.9202E-16 3.842999 -0.4323906
v 0.1939534 3.939236 -0.3751391
v 2.909969E-16 3.902926 -0.6552667
v 0.1939534 4.014898 -0.656535
v 1.146784E-16 2.482824 -0.223958
v -0.1939533 3.480941 -0.1119976
v -0.1939533 2.482824 -0.1119791
v 9.946386E-17 3.480012 -0.2239727
v -0.1939533 3.746135 -0.1843679
v 1.24919E-16 3.690055 -0.2812927
v -0.1939533 3.939236 -0.3751391
v 1.9202E-16 3.842999 -0.4323906
v -0.1939533 4.014897 -0.656535
v 2.909969E-16 3.902926 -0.6552667
v -0.1939533 -0.01733133 -0.1119791
v -0.1939533 2.482824 -0.1119791
v -0.1939534 2.482824 0.111979
v -0.1939534 -0.01733133 0.111979
v -0.1939534 -0.01733133 0.111979
v -0.1939534 2.482824 0.111979
v -3.337234E-08 2.482824 0.223958
v -3.337234E-08 -0.01733133 0.223958
v -3.337234E-08 -0.01733133 0.223958
v -3.337234E-08 2.482824 0.223958
v 0.1939533 2.482824 0.111979
v 0.1939533 -0.01733133 0.111979
v 0.1939533 -0.01733133 0.111979
v 0.1939533 2.482824 0.111979
v 0.1939534 2.482824 -0.111979
v 0.1939534 -0.01733133 -0.111979
v 0.1939534 -0.01733133 -0.111979
v 0.1939534 2.482824 -0.111979
v 1.146784E-16 2.482824 -0.223958
v 2.453935E-15 -0.01733133 -0.223958
v 2.453935E-15 -0.01733133 -0.223958
v 1.146784E-16 2.482824 -0.223958
v -0.1939533 2.482824 -0.1119791
v -0.1939533 -0.01733133 -0.1119791
vt 0.3132336 0.4766805
vt 0.3938765 0.4599893
vt 0.3132336 0.4599893
vt 0.3938765 0.4766805
vt 0.4262093 0.4599894
vt 0.4262093 0.4766805
vt 0.4581276 0.4599894
vt 0.4581276 0.4766805
vt 0.4924495 0.4599893
vt 0.4924495 0.4766806
vt 0.3132336 0.4599893
vt 0.3938765 0.4432982
vt 0.3132336 0.4432982
vt 0.3938765 0.4599893
vt 0.4262093 0.4432982
vt 0.4262093 0.4599894
vt 0.4581276 0.4432982
vt 0.4581276 0.4599894
vt 0.4924495 0.4432982
vt 0.4924495 0.4599893
vt 0.3132336 0.4432982
vt 0.3938765 0.4266071
vt 0.3132336 0.426607
vt 0.3938765 0.4432982
vt 0.4262093 0.4266071
vt 0.4262093 0.4432982
vt 0.4581276 0.4266071
vt 0.4581276 0.4432982
vt 0.4924495 0.4266071
vt 0.4924495 0.4432982
vt 0.3132336 0.426607
vt 0.3938765 0.4099159
vt 0.3132336 0.4099159
vt 0.3938765 0.4266071
vt 0.4262093 0.4099159
vt 0.4262093 0.4266071
vt 0.4581276 0.4099159
vt 0.4581276 0.4266071
vt 0.4924495 0.4099159
vt 0.4924495 0.4266071
vt 0.3132336 0.4099159
vt 0.3938766 0.3932248
vt 0.3132336 0.3932248
vt 0.3938765 0.4099159
vt 0.4262094 0.3932248
vt 0.4262093 0.4099159
vt 0.4581276 0.3932248
vt 0.4581276 0.4099159
vt 0.4924496 0.3932248
vt 0.4924495 0.4099159
vt 0.3132336 0.4933715
vt 0.3938765 0.4766805
vt 0.3132336 0.4766805
vt 0.3938765 0.4933717
vt 0.4262093 0.4766805
vt 0.4262092 0.4933717
vt 0.4581276 0.4766805
vt 0.4581275 0.4933717
vt 0.4924495 0.4766806
vt 0.4924495 0.4933718
vt 0.4915479 0.4099161
vt 0.3115631 0.409916
vt 0.3115631 0.4266072
vt 0.4915479 0.4266072
vt 0.4915479 0.4266072
vt 0.3115631 0.4266072
vt 0.3115631 0.4432983
vt 0.4915479 0.4432984
vt 0.4915479 0.4432984
vt 0.3115631 0.4432983
vt 0.3115631 0.4599895
vt 0.4915479 0.4599895
vt 0.4915479 0.4599895
vt 0.3115631 0.4599895
vt 0.3115631 0.4766806
vt 0.4915479 0.4766806
vt 0.4915479 0.4766806
vt 0.3115631 0.4766806
vt 0.311563 0.4933718
vt 0.4915479 0.4933717
vt 0.4915479 0.393225
vt 0.3115631 0.3932248
vt 0.3115631 0.409916
vt 0.4915479 0.4099161
vn -0.8662255 0 -0.4996531
vn -0.8457522 0.04397007 0.5317611
vn -0.8658169 1.408588E-05 0.500361
vn -0.8835805 -0.02296729 -0.4677158
vn -0.789812 0.305341 0.5319435
vn -0.930863 -0.1819757 -0.3168264
vn -0.7883356 0.5349183 0.3039563
vn -0.9315405 -0.3158692 -0.1801633
vn -0.7752132 0.610033 0.1640249
vn -0.927561 -0.3608552 -0.0970265
vn -0.8658169 1.408588E-05 0.500361
vn 0 0.07367335 0.9972824
vn 0 2.815341E-05 1
vn -0.8457522 0.04397007 0.5317611
vn 0 0.4980609 0.867142
vn -0.789812 0.305341 0.5319435
vn 0 0.8686377 0.4954478
vn -0.7883356 0.5349183 0.3039563
vn 0 0.965701 0.2596565
vn -0.7752132 0.610033 0.1640249
vn 0 2.815341E-05 1
vn 0.845752 0.04397009 0.5317613
vn 0.8658167 1.408322E-05 0.5003613
vn 0 0.07367335 0.9972824
vn 0.7898117 0.3053411 0.5319439
vn 0 0.4980609 0.867142
vn 0.7883354 0.5349186 0.3039563
vn 0 0.8686377 0.4954478
vn 0.7752129 0.6100334 0.164025
vn 0 0.965701 0.2596565
vn 0.8658167 1.408322E-05 0.5003613
vn 0.8835806 -0.02296728 -0.4677156
vn 0.8662257 0 -0.499653
vn 0.845752 0.04397009 0.5317613
vn 0.9308631 -0.1819757 -0.3168262
vn 0.7898117 0.3053411 0.5319439
vn 0.9315405 -0.3158692 -0.1801635
vn 0.7883354 0.5349186 0.3039563
vn 0.9275612 -0.3608545 -0.09702677
vn 0.7752129 0.6100334 0.164025
vn 0.8662257 0 -0.499653
vn 0 -0.05570525 -0.9984472
vn 0 -1.664339E-05 -1
vn 0.8835806 -0.02296728 -0.4677156
vn 0 -0.4978255 -0.8672772
vn 0.9308631 -0.1819757 -0.3168262
vn 0 -0.8694388 -0.4940406
vn 0.9315405 -0.3158692 -0.1801635
vn 0 -0.9657007 -0.2596576
vn 0.9275612 -0.3608545 -0.09702677
vn 0 -1.664339E-05 -1
vn -0.8835805 -0.02296729 -0.4677158
vn -0.8662255 0 -0.4996531
vn 0 -0.05570525 -0.9984472
vn -0.930863 -0.1819757 -0.3168264
vn 0 -0.4978255 -0.8672772
vn -0.9315405 -0.3158692 -0.1801633
vn 0 -0.8694388 -0.4940406
vn -0.927561 -0.3608552 -0.0970265
vn 0 -0.9657007 -0.2596576
vn -0.8660253 0 -0.5000001
vn -0.8660253 0 -0.5000001
vn -0.8660255 0 0.4999999
vn -0.8660255 0 0.4999999
vn -0.8660255 0 0.4999999
vn -0.8660255 0 0.4999999
vn 0 0 1
vn 0 0 1
vn 0 0 1
vn 0 0 1
vn 0.8660253 0 0.5000001
vn 0.8660253 0 0.5000001
vn 0.8660253 0 0.5000001
vn 0.8660253 0 0.5000001
vn 0.8660254 0 -0.4999999
vn 0.8660254 0 -0.4999999
vn 0.8660254 0 -0.4999999
vn 0.8660254 0 -0.4999999
vn 0 0 -1
vn 0 0 -1
vn 0 0 -1
vn 0 0 -1
vn -0.8660253 0 -0.5000001
vn -0.8660253 0 -0.5000001
g polySurface3133_0
f 3/3/3 2/2/2 1/1/1
f 2/2/2 4/4/4 1/1/1
f 2/2/2 5/5/5 4/4/4
f 5/5/5 6/6/6 4/4/4
f 5/5/5 7/7/7 6/6/6
f 7/7/7 8/8/8 6/6/6
f 7/7/7 9/9/9 8/8/8
f 9/9/9 10/10/10 8/8/8
f 13/13/13 12/12/12 11/11/11
f 12/12/12 14/14/14 11/11/11
f 12/12/12 15/15/15 14/14/14
f 15/15/15 16/16/16 14/14/14
f 15/15/15 17/17/17 16/16/16
f 17/17/17 18/18/18 16/16/16
f 17/17/17 19/19/19 18/18/18
f 19/19/19 20/20/20 18/18/18
f 23/23/23 22/22/22 21/21/21
f 22/22/22 24/24/24 21/21/21
f 22/22/22 25/25/25 24/24/24
f 25/25/25 26/26/26 24/24/24
f 25/25/25 27/27/27 26/26/26
f 27/27/27 28/28/28 26/26/26
f 27/27/27 29/29/29 28/28/28
f 29/29/29 30/30/30 28/28/28
f 33/33/33 32/32/32 31/31/31
f 32/32/32 34/34/34 31/31/31
f 32/32/32 35/35/35 34/34/34
f 35/35/35 36/36/36 34/34/34
f 35/35/35 37/37/37 36/36/36
f 37/37/37 38/38/38 36/36/36
f 37/37/37 39/39/39 38/38/38
f 39/39/39 40/40/40 38/38/38
f 43/43/43 42/42/42 41/41/41
f 42/42/42 44/44/44 41/41/41
f 42/42/42 45/45/45 44/44/44
f 45/45/45 46/46/46 44/44/44
f 45/45/45 47/47/47 46/46/46
f 47/47/47 48/48/48 46/46/46
f 47/47/47 49/49/49 48/48/48
f 49/49/49 50/50/50 48/48/48
f 53/53/53 52/52/52 51/51/51
f 52/52/52 54/54/54 51/51/51
f 52/52/52 55/55/55 54/54/54
f 55/55/55 56/56/56 54/54/54
f 55/55/55 57/57/57 56/56/56
f 57/57/57 58/58/58 56/56/56
f 57/57/57 59/59/59 58/58/58
f 59/59/59 60/60/60 58/58/58
f 63/63/63 62/62/62 61/61/61
f 64/64/64 63/63/63 61/61/61
f 67/67/67 66/66/66 65/65/65
f 68/68/68 67/67/67 65/65/65
f 71/71/71 70/70/70 69/69/69
f 72/72/72 71/71/71 69/69/69
f 75/75/75 74/74/74 73/73/73
f 76/76/76 75/75/75 73/73/73
f 79/79/79 78/78/78 77/77/77
f 80/80/80 79/79/79 77/77/77
f 83/83/83 82/82/82 81/81/81
f 84/84/84 83/83/83 81/81/81
