g polySurface9
v -0.2687988 1.630859 -0.01306152
v -0.2834473 -0.1072998 -0.01309204
v -0.2834473 -0.1074219 0.01222229
v -0.2687988 1.630859 0.01225281
v -0.2687988 1.630859 0.01225281
v -0.2834473 -0.1074219 0.01222229
v -0.3093262 -0.1112061 0.01608276
v -0.2946777 1.626953 0.01611328
v -0.3093262 -0.1114502 -0.01309204
v -0.2946777 1.626953 -0.01306152
v -0.2946777 1.626953 0.01611328
v -0.3093262 -0.1112061 0.01608276
v -0.2946777 1.626953 -0.01306152
v -0.3093262 -0.1114502 -0.01309204
v -0.2834473 -0.1072998 -0.01309204
v -0.2687988 1.630859 -0.01306152
v -0.2800293 -0.6586914 -0.01309204
v -0.2124023 -2.382813 -0.01309204
v -0.2124023 -2.382813 0.01222229
v -0.2800293 -0.6586914 0.01222229
v -0.2834473 -0.1074219 0.01222229
v -0.2834473 -0.1072998 -0.01309204
v -0.3059082 -0.6625977 -0.01309204
v -0.2382813 -2.386719 -0.01309204
v -0.2124023 -2.382813 -0.01309204
v -0.2800293 -0.6586914 -0.01309204
v -0.2834473 -0.1072998 -0.01309204
v -0.3093262 -0.1114502 -0.01309204
v -0.2385254 -2.386719 0.01608276
v -0.2382813 -2.386719 -0.01309204
v -0.3059082 -0.6625977 -0.01309204
v -0.3059082 -0.6625977 0.01608276
v -0.3093262 -0.1114502 -0.01309204
v -0.3093262 -0.1112061 0.01608276
v -0.2800293 -0.6586914 0.01222229
v -0.2124023 -2.382813 0.01222229
v -0.2385254 -2.386719 0.01608276
v -0.3059082 -0.6625977 0.01608276
v -0.3093262 -0.1112061 0.01608276
v -0.2834473 -0.1074219 0.01222229
v 0.1680908 1.628906 -0.0145874
v 0.2912598 -0.105835 -0.01615906
v 0.2912598 -0.1060791 0.009155273
v 0.1680908 1.628906 0.01265717
v 0.1680908 1.628906 0.01265717
v 0.2912598 -0.1060791 0.009155273
v 0.2651367 -0.1098633 0.01303101
v 0.1422119 1.62793 0.01265717
v 0.2653809 -0.1099854 -0.01615906
v 0.1422119 1.62793 -0.0145874
v 0.1422119 1.62793 0.01265717
v 0.2651367 -0.1098633 0.01303101
v 0.1422119 1.62793 -0.0145874
v 0.2653809 -0.1099854 -0.01615906
v 0.2912598 -0.105835 -0.01615906
v 0.1680908 1.628906 -0.0145874
v 0.3093262 -0.6572266 -0.01615906
v 0.2595215 -2.380859 -0.01615906
v 0.2595215 -2.380859 0.009155273
v 0.3093262 -0.6572266 0.009155273
v 0.2912598 -0.1060791 0.009155273
v 0.2912598 -0.105835 -0.01615906
v 0.2834473 -0.6611328 -0.01615906
v 0.2336426 -2.384766 -0.01615906
v 0.2595215 -2.380859 -0.01615906
v 0.3093262 -0.6572266 -0.01615906
v 0.2912598 -0.105835 -0.01615906
v 0.2653809 -0.1099854 -0.01615906
v 0.2336426 -2.384766 0.01303101
v 0.2336426 -2.384766 -0.01615906
v 0.2834473 -0.6611328 -0.01615906
v 0.2834473 -0.6611328 0.01303101
v 0.2653809 -0.1099854 -0.01615906
v 0.2651367 -0.1098633 0.01303101
v 0.3093262 -0.6572266 0.009155273
v 0.2595215 -2.380859 0.009155273
v 0.2336426 -2.384766 0.01303101
v 0.2834473 -0.6611328 0.01303101
v 0.2651367 -0.1098633 0.01303101
v 0.2912598 -0.1060791 0.009155273
v -0.2480469 2.181641 -0.01303101
v -0.2687988 1.630859 -0.01306152
v -0.2687988 1.630859 0.01225281
v -0.2480469 2.181641 0.01228333
v -0.2480469 2.181641 0.01228333
v -0.2687988 1.630859 0.01225281
v -0.2946777 1.626953 0.01611328
v -0.2741699 2.179688 0.01615906
v -0.2612305 2.232422 0.01615906
v -0.2370605 2.226563 0.01228333
v -0.244873 2.28125 0.01615906
v -0.2226563 2.269531 0.01228333
v -0.215332 2.324219 0.01615906
v -0.1970215 2.308594 0.01228333
v -0.1750488 2.357422 0.01615906
v -0.1619873 2.337891 0.01228333
v -0.1270752 2.378906 0.01615906
v -0.1202393 2.355469 0.01228333
v -0.07507324 2.386719 0.01615906
v -0.07507324 2.361328 0.01228333
v -0.022995 2.378906 0.01615906
v -0.02978516 2.355469 0.01228333
v 0.025177 2.357422 0.01615906
v 0.01212311 2.335938 0.01228333
v 0.06567383 2.324219 0.01615906
v 0.0473938 2.306641 0.01228333
v 0.09552002 2.28125 0.01615906
v 0.07336426 2.269531 0.01228333
v 0.1123047 2.230469 0.01615906
v 0.08789063 2.226563 0.01228333
v 0.1251221 2.177734 0.01615906
v 0.09912109 2.179688 0.01228333
v -0.2946777 1.626953 -0.01306152
v -0.2741699 2.179688 -0.01303101
v -0.2741699 2.179688 0.01615906
v -0.2946777 1.626953 0.01611328
v -0.2741699 2.179688 -0.01303101
v -0.2946777 1.626953 -0.01306152
v -0.2687988 1.630859 -0.01306152
v -0.2480469 2.181641 -0.01303101
v -0.2370605 2.226563 -0.01303101
v -0.2612305 2.232422 -0.01303101
v -0.2226563 2.269531 -0.01303101
v -0.2446289 2.28125 -0.01303101
v -0.1970215 2.308594 -0.01303101
v -0.215332 2.324219 -0.01303101
v -0.1619873 2.337891 -0.01303101
v -0.1749268 2.357422 -0.01303101
v -0.1202393 2.355469 -0.01303101
v -0.1270752 2.378906 -0.01303101
v -0.07507324 2.361328 -0.01303101
v -0.07507324 2.386719 -0.01303101
v -0.02978516 2.355469 -0.01303101
v -0.02301025 2.378906 -0.01303101
v 0.01212311 2.335938 -0.01303101
v 0.02513123 2.357422 -0.01303101
v 0.0473938 2.306641 -0.01303101
v 0.06567383 2.324219 -0.01303101
v 0.07336426 2.269531 -0.01303101
v 0.09545898 2.28125 -0.01303101
v 0.08789063 2.226563 -0.01303101
v 0.1121826 2.230469 -0.01303101
v 0.09912109 2.179688 -0.01303101
v 0.125 2.177734 -0.01303101
v 0.1680908 1.628906 -0.0145874
v 0.1422119 1.62793 -0.0145874
v 0.09912109 2.179688 0.01228333
v 0.09912109 2.179688 -0.01303101
v 0.08789063 2.226563 -0.01303101
v 0.08789063 2.226563 0.01228333
v 0.07336426 2.269531 -0.01303101
v 0.07336426 2.269531 0.01228333
v 0.0473938 2.306641 -0.01303101
v 0.0473938 2.306641 0.01228333
v 0.01212311 2.335938 -0.01303101
v 0.01212311 2.335938 0.01228333
v -0.02978516 2.355469 -0.01303101
v -0.02978516 2.355469 0.01228333
v -0.07507324 2.361328 -0.01303101
v -0.07507324 2.361328 0.01228333
v -0.1202393 2.355469 -0.01303101
v -0.1202393 2.355469 0.01228333
v -0.1619873 2.337891 -0.01303101
v -0.1619873 2.337891 0.01228333
v -0.1970215 2.308594 -0.01303101
v -0.1970215 2.308594 0.01228333
v -0.2226563 2.269531 -0.01303101
v -0.2226563 2.269531 0.01228333
v -0.2370605 2.226563 -0.01303101
v -0.2370605 2.226563 0.01228333
v -0.2480469 2.181641 -0.01303101
v -0.2480469 2.181641 0.01228333
v -0.2741699 2.179688 0.01615906
v -0.2741699 2.179688 -0.01303101
v -0.2612305 2.232422 -0.01303101
v -0.2612305 2.232422 0.01615906
v -0.2446289 2.28125 -0.01303101
v -0.244873 2.28125 0.01615906
v -0.215332 2.324219 -0.01303101
v -0.215332 2.324219 0.01615906
v -0.1749268 2.357422 -0.01303101
v -0.1750488 2.357422 0.01615906
v -0.1270752 2.378906 -0.01303101
v -0.1270752 2.378906 0.01615906
v -0.07507324 2.386719 -0.01303101
v -0.07507324 2.386719 0.01615906
v -0.02301025 2.378906 -0.01303101
v -0.022995 2.378906 0.01615906
v 0.02513123 2.357422 -0.01303101
v 0.025177 2.357422 0.01615906
v 0.06567383 2.324219 -0.01303101
v 0.06567383 2.324219 0.01615906
v 0.09545898 2.28125 -0.01303101
v 0.09552002 2.28125 0.01615906
v 0.1121826 2.230469 -0.01303101
v 0.1123047 2.230469 0.01615906
v 0.125 2.177734 -0.01303101
v 0.1251221 2.177734 0.01615906
v 0.1680908 1.628906 0.01265717
v 0.1251221 2.177734 0.01615906
v 0.125 2.177734 -0.01303101
v 0.1680908 1.628906 -0.0145874
v 0.1251221 2.177734 0.01615906
v 0.1680908 1.628906 0.01265717
v 0.1422119 1.62793 0.01265717
v 0.09912109 2.179688 0.01228333
v 0.09912109 2.179688 0.01228333
v 0.1422119 1.62793 0.01265717
v 0.1422119 1.62793 -0.0145874
v 0.09912109 2.179688 -0.01303101
vt 0.2837873 0.1652906
vt 0.0649294 0.1650625
vt 0.06490183 0.1684512
vt 0.2837785 0.1684511
vt 0.2842504 0.1683049
vt 0.06535941 0.1687614
vt 0.06492941 0.17224
vt 0.2837872 0.1720119
vt 0.06490268 0.1761488
vt 0.2837799 0.1761488
vt 0.2837872 0.1720119
vt 0.06492941 0.17224
vt 0.2833427 0.1620508
vt 0.06445123 0.1615943
vt 0.0649294 0.1650625
vt 0.2837873 0.1652906
vt 0.2403881 0.1647934
vt 0.02352957 0.1653666
vt 0.0235451 0.1684512
vt 0.2404124 0.1684512
vt 0.3097234 0.1684512
vt 0.309751 0.1650625
vt 0.2399622 0.1610565
vt 0.02305996 0.1622027
vt 0.02352957 0.1653666
vt 0.2403881 0.1647934
vt 0.309751 0.1650625
vt 0.3092728 0.1615944
vt 0.0235296 0.1719359
vt 0.02354547 0.1761488
vt 0.2404132 0.1761487
vt 0.2403882 0.1725091
vt 0.3097242 0.1761488
vt 0.309751 0.17224
vt 0.2408704 0.1692991
vt 0.02396852 0.1681529
vt 0.0235296 0.1719359
vt 0.2403882 0.1725091
vt 0.309751 0.17224
vt 0.310181 0.1687614
vt 0.2837873 0.1652906
vt 0.0649294 0.1650625
vt 0.06490183 0.1684512
vt 0.2837785 0.1684511
vt 0.2842504 0.1683049
vt 0.06535941 0.1687614
vt 0.06492941 0.17224
vt 0.2837872 0.1720119
vt 0.06490268 0.1761488
vt 0.2837799 0.1761488
vt 0.2837872 0.1720119
vt 0.06492941 0.17224
vt 0.2833427 0.1620508
vt 0.06445123 0.1615943
vt 0.0649294 0.1650625
vt 0.2837873 0.1652906
vt 0.2403881 0.1647934
vt 0.02352957 0.1653666
vt 0.0235451 0.1684512
vt 0.2404124 0.1684512
vt 0.3097234 0.1684512
vt 0.309751 0.1650625
vt 0.2399622 0.1610565
vt 0.02305996 0.1622027
vt 0.02352957 0.1653666
vt 0.2403881 0.1647934
vt 0.309751 0.1650625
vt 0.3092728 0.1615944
vt 0.0235296 0.1719359
vt 0.02354547 0.1761488
vt 0.2404132 0.1761487
vt 0.2403882 0.1725091
vt 0.3097242 0.1761488
vt 0.309751 0.17224
vt 0.2408704 0.1692991
vt 0.02396852 0.1681529
vt 0.0235296 0.1719359
vt 0.2403882 0.1725091
vt 0.309751 0.17224
vt 0.310181 0.1687614
vt 0.1198913 0.1648239
vt 0.01832181 0.164662
vt 0.01830307 0.1702781
vt 0.1198705 0.1704401
vt 0.1198705 0.1704401
vt 0.01830307 0.1702781
vt 0.0176812 0.1760265
vt 0.1187749 0.1760548
vt 0.1284025 0.1760874
vt 0.1288675 0.1706256
vt 0.1371191 0.1760921
vt 0.1372461 0.1706523
vt 0.1450512 0.1760919
vt 0.1452438 0.1706518
vt 0.152677 0.1760912
vt 0.1523912 0.1706514
vt 0.1611741 0.1760918
vt 0.1610947 0.170652
vt 0.1707317 0.1760894
vt 0.170731 0.1706496
vt 0.1803021 0.1760894
vt 0.1803807 0.1706498
vt 0.188832 0.1760878
vt 0.1891201 0.1706477
vt 0.1962868 0.1760892
vt 0.1960927 0.1706493
vt 0.2042974 0.1760882
vt 0.2041683 0.1706485
vt 0.2133514 0.1760842
vt 0.2128915 0.1706221
vt 0.2228414 0.1760626
vt 0.2216296 0.1704975
vt 0.0176623 0.1710648
vt 0.1186572 0.1710648
vt 0.1187749 0.1643963
vt 0.0176812 0.164368
vt 0.1186572 0.1710648
vt 0.0176623 0.1710648
vt 0.01824543 0.176798
vt 0.119711 0.1766652
vt 0.1285749 0.1765122
vt 0.1281505 0.1710647
vt 0.1369178 0.1764908
vt 0.1370156 0.1710649
vt 0.1450017 0.1764847
vt 0.1447939 0.171059
vt 0.1526774 0.1764795
vt 0.1526773 0.1710536
vt 0.161175 0.176478
vt 0.1611744 0.1710521
vt 0.1707327 0.1764777
vt 0.1707321 0.1710519
vt 0.1803032 0.1764764
vt 0.1803025 0.1710505
vt 0.188832 0.176475
vt 0.188832 0.1710492
vt 0.1962871 0.1764768
vt 0.1962868 0.1710508
vt 0.204298 0.1764755
vt 0.2042973 0.1710496
vt 0.2129151 0.1765035
vt 0.2133502 0.1710556
vt 0.2215342 0.1766283
vt 0.2228379 0.1710775
vt 0.3245806 0.1710979
vt 0.3235008 0.1767265
vt 0.2216296 0.1704975
vt 0.2217242 0.1648812
vt 0.212867 0.1650056
vt 0.2128915 0.1706221
vt 0.2040386 0.1650322
vt 0.2041683 0.1706485
vt 0.1958979 0.1650328
vt 0.1960927 0.1706493
vt 0.1894075 0.1650314
vt 0.1891201 0.1706477
vt 0.1804589 0.1650335
vt 0.1803807 0.1706498
vt 0.1707303 0.1650333
vt 0.170731 0.1706496
vt 0.1610158 0.1650357
vt 0.1610947 0.170652
vt 0.1521062 0.1650352
vt 0.1523912 0.1706514
vt 0.1454368 0.1650352
vt 0.1452438 0.1706518
vt 0.1373729 0.1650359
vt 0.1372461 0.1706523
vt 0.1288888 0.1650091
vt 0.1288675 0.1706256
vt 0.1198913 0.1648239
vt 0.1198705 0.1704401
vt 0.1187749 0.1643963
vt 0.1186572 0.1710648
vt 0.1281505 0.1710647
vt 0.1284025 0.1644289
vt 0.1370156 0.1710649
vt 0.1371191 0.1644336
vt 0.1447939 0.171059
vt 0.1450512 0.1644334
vt 0.1526773 0.1710536
vt 0.152677 0.1644326
vt 0.1611744 0.1710521
vt 0.1611741 0.1644332
vt 0.1707321 0.1710519
vt 0.1707317 0.1644309
vt 0.1803025 0.1710505
vt 0.1803021 0.1644308
vt 0.188832 0.1710492
vt 0.188832 0.1644292
vt 0.1962868 0.1710508
vt 0.1962868 0.1644306
vt 0.2042973 0.1710496
vt 0.2042974 0.1644297
vt 0.2133502 0.1710556
vt 0.2133514 0.1644257
vt 0.2228379 0.1710775
vt 0.2228414 0.164404
vt 0.3245834 0.1643911
vt 0.2228414 0.164404
vt 0.2228379 0.1710775
vt 0.3245806 0.1710979
vt 0.2228414 0.1760626
vt 0.3245834 0.1760496
vt 0.3232493 0.1704063
vt 0.2216296 0.1704975
vt 0.2216296 0.1704975
vt 0.3232493 0.1704063
vt 0.3229975 0.1647899
vt 0.2217242 0.1648812
vn 0.9999645 -0.008438727 -6.050136E-05
vn 0.999988 -0.004920986 -4.604275E-05
vn 0.9999882 -0.004865061 -4.581289E-05
vn 0.9999645 -0.008438727 -6.050135E-05
vn 0.1476492 -0.001261869 0.9890389
vn 0.1476145 -0.0008039296 0.9890447
vn 0.1476033 -0.0006572658 0.9890464
vn 0.1476492 -0.001261868 0.9890389
vn -0.9999856 0.004847237 -0.002321832
vn -0.999962 0.008407657 -0.002334346
vn -0.999962 0.008407656 -0.002334346
vn -0.9999853 0.004894232 -0.002321997
vn -2.559992E-06 1.835784E-05 -1
vn -1.833016E-06 1.320392E-05 -1
vn -2.027622E-06 1.458359E-05 -1
vn -2.559992E-06 1.835784E-05 -1
vn 0.9995122 0.03122855 -0.0001016099
vn 0.9992348 0.03911157 -0.0001337318
vn 0.9992348 0.03911157 -0.0001337318
vn 0.9995161 0.03110341 -0.0001011
vn 0.9999882 -0.004865061 -4.581289E-05
vn 0.999988 -0.004920986 -4.604275E-05
vn 0 0 -1
vn 0 0 -1
vn 0 0 -1
vn 0 0 -1
vn -2.027622E-06 1.458359E-05 -1
vn -1.833016E-06 1.320392E-05 -1
vn -0.9992319 -0.03911144 -0.002403438
vn -0.9992319 -0.03911144 -0.002403438
vn -0.9995131 -0.03111033 -0.002374188
vn -0.9995097 -0.03122152 -0.002374596
vn -0.9999856 0.004847237 -0.002321832
vn -0.9999853 0.004894232 -0.002321997
vn 0.1469444 0.004423731 0.9891349
vn 0.1467407 0.005743654 0.9891583
vn 0.1467407 0.005743654 0.9891583
vn 0.1468974 0.004728159 0.9891404
vn 0.1476033 -0.0006572658 0.9890464
vn 0.1476145 -0.0008039296 0.9890447
vn 0.9974939 0.0707515 -0.0003767806
vn 0.9980766 0.06199221 -0.0002889538
vn 0.9980845 0.06186426 -0.0002876711
vn 0.9974939 0.0707515 -0.0003767805
vn 0.07397107 0.004344747 0.9972509
vn 0.09014332 0.004458551 0.9959188
vn 0.09325325 0.004480321 0.9956324
vn 0.07397107 0.004344748 0.9972509
vn -0.9981176 -0.06130524 -0.001727585
vn -0.9974999 -0.07065024 -0.001542462
vn -0.9974999 -0.07065023 -0.001542462
vn -0.9981098 -0.06143254 -0.001725064
vn -8.621428E-05 0.0008938229 -0.9999996
vn -6.327705E-05 0.0006559141 -0.9999998
vn -6.760236E-05 0.0007007768 -0.9999998
vn -8.621427E-05 0.0008938229 -0.9999996
vn 0.9999014 -0.01404098 0.0001103017
vn 0.9995816 -0.02892128 0.0001446592
vn 0.9995816 -0.02892128 0.0001446592
vn 0.9999048 -0.01380479 0.0001097562
vn 0.9980845 0.06186426 -0.0002876711
vn 0.9980766 0.06199221 -0.0002889538
vn 0 0 -1
vn 0 0 -1
vn 0 0 -1
vn 0 0 -1
vn -6.760236E-05 0.0007007768 -0.9999998
vn -6.327705E-05 0.0006559141 -0.9999998
vn -0.9995794 0.02892116 -0.002151464
vn -0.9995794 0.02892116 -0.002151463
vn -0.9999021 0.01381725 -0.002185252
vn -0.9998993 0.01402853 -0.002184783
vn -0.9981176 -0.06130524 -0.001727585
vn -0.9981098 -0.06143254 -0.001725064
vn 0.1478904 -0.001700251 0.9890023
vn 0.1482825 -0.004290314 0.9889358
vn 0.1482825 -0.004290314 0.9889358
vn 0.1479923 -0.002372643 0.9889857
vn 0.09325325 0.004480321 0.9956324
vn 0.09014332 0.004458551 0.9959188
vn 0.9993013 -0.03737433 0
vn 0.9993013 -0.03737433 0
vn 0.9993013 -0.03737433 0
vn 0.9993013 -0.03737433 0
vn 0.1477944 -0.005574274 0.9890025
vn 0.1477944 -0.005574274 0.9890025
vn 0.1477944 -0.005574274 0.9890025
vn 0.1477943 -0.005574274 0.9890025
vn 0.1491102 -0.04271043 0.9878977
vn 0.1489649 -0.04347386 0.9878864
vn 0.138275 -0.0687075 0.9880077
vn 0.1382759 -0.06870581 0.9880077
vn 0.1141693 -0.1039529 0.9880077
vn 0.1141701 -0.103952 0.9880077
vn 0.08133191 -0.1312475 0.9880077
vn 0.08133272 -0.131247 0.9880077
vn 0.04227461 -0.1485046 0.9880077
vn 0.04227513 -0.1485044 0.9880077
vn -1.582664E-05 -0.1544057 0.9880075
vn -1.575349E-05 -0.1544057 0.9880075
vn -0.04230513 -0.1484962 0.9880077
vn -0.04230548 -0.1484962 0.9880077
vn -0.08135826 -0.1312301 0.9880078
vn -0.08135904 -0.1312296 0.9880078
vn -0.1141896 -0.1039283 0.9880079
vn -0.1141904 -0.1039274 0.9880079
vn -0.1382885 -0.06867904 0.9880078
vn -0.1382893 -0.0686773 0.9880078
vn -0.1491234 -0.0424387 0.9879075
vn -0.1489791 -0.04322009 0.9878954
vn -0.150209 -0.03654257 0.9879787
vn -0.150209 -0.03654257 0.9879787
vn -0.9993041 0.03723373 -0.002280604
vn -0.9993041 0.03723373 -0.002280603
vn -0.9993041 0.03723373 -0.002280603
vn -0.9993041 0.03723373 -0.002280603
vn -6.093396E-06 5.794865E-05 -1
vn -6.093398E-06 5.794866E-05 -1
vn -6.093396E-06 5.794866E-05 -1
vn -6.093396E-06 5.794866E-05 -1
vn 0 0 -1
vn 0 0 -1
vn 0 0 -1
vn 0 0 -1
vn 0 0 -1
vn 0 0 -1
vn 0 0 -1
vn 0 0 -1
vn 0 0 -1
vn 0 0 -1
vn 0 0 -1
vn 0 0 -1
vn 0 0 -1
vn 0 0 -1
vn 0 0 -1
vn 0 0 -1
vn 0 0 -1
vn 0 0 -1
vn 0 0 -1
vn 0 0 -1
vn 0 0 -1
vn 0 0 -1
vn 0 0 -1
vn 0 0 -1
vn 8.135771E-05 0.002845639 -0.9999959
vn 8.135771E-05 0.002845638 -0.9999959
vn -0.971693 -0.2362475 0
vn -0.971693 -0.2362475 0
vn -0.9611112 -0.2761614 0
vn -0.9611112 -0.2761614 0
vn -0.8956375 -0.4447848 0
vn -0.8956375 -0.4447848 0
vn -0.7395647 -0.6730855 0
vn -0.7395647 -0.6730855 0
vn -0.5269302 -0.8499086 0
vn -0.5269302 -0.8499086 0
vn -0.2739994 -0.9617299 0
vn -0.2739994 -0.9617299 0
vn -0.0001100571 -1 0
vn -0.0001100571 -1 0
vn 0.2737874 -0.9617902 0
vn 0.2737874 -0.9617902 0
vn 0.5267427 -0.8500249 0
vn 0.5267427 -0.8500249 0
vn 0.739416 -0.6732488 0
vn 0.739416 -0.6732488 0
vn 0.89554 -0.4449811 0
vn 0.89554 -0.4449811 0
vn 0.9606214 -0.2778607 0
vn 0.9606214 -0.2778607 0
vn 0.9708858 -0.2395425 0
vn 0.9708858 -0.2395425 0
vn -0.9709268 0.2393668 -0.002177052
vn -0.9709268 0.2393669 -0.002177053
vn -0.9606419 0.2777814 -0.002171426
vn -0.9606449 0.2777706 -0.002171428
vn -0.8955401 0.4449755 -0.002181729
vn -0.8955396 0.4449764 -0.002181729
vn -0.7394198 0.6732411 -0.002182927
vn -0.7394201 0.6732408 -0.002182927
vn -0.5267517 0.8500164 -0.002185035
vn -0.5267516 0.8500164 -0.002185035
vn -0.2737967 0.9617851 -0.002181852
vn -0.2737967 0.9617851 -0.002181852
vn 9.573126E-05 0.9999976 -0.002172392
vn 9.573528E-05 0.9999976 -0.002172392
vn 0.2739794 0.961733 -0.002170045
vn 0.2739795 0.961733 -0.002170045
vn 0.5269142 0.8499156 -0.002172532
vn 0.5269143 0.8499156 -0.002172532
vn 0.7395495 0.6730987 -0.002178654
vn 0.7395491 0.673099 -0.002178654
vn 0.895625 0.4448047 -0.002184822
vn 0.8956245 0.4448056 -0.002184822
vn 0.961068 0.2763034 -0.002173897
vn 0.9610711 0.2762927 -0.0021739
vn 0.9716287 0.2365013 -0.002181633
vn 0.9716287 0.2365013 -0.002181633
vn 0.99694 0.07815156 -0.001761379
vn 0.99694 0.07815156 -0.001761379
vn 0.99694 0.07815156 -0.001761379
vn 0.99694 0.07815158 -0.001761379
vn -0.07445957 -0.008652041 0.9971865
vn -0.07445957 -0.008652041 0.9971865
vn -0.07445958 -0.008652042 0.9971865
vn -0.07445956 -0.008652039 0.9971865
vn -0.9969699 -0.07778635 -0.000637206
vn -0.9969699 -0.07778633 -0.000637206
vn -0.9969699 -0.07778633 -0.000637206
vn -0.9969699 -0.07778635 -0.000637206
g polySurface9_0
f 3/3/3 2/2/2 1/1/1
f 4/4/4 3/3/3 1/1/1
f 7/7/7 6/6/6 5/5/5
f 8/8/8 7/7/7 5/5/5
f 11/11/11 10/10/10 9/9/9
f 12/12/12 11/11/11 9/9/9
f 15/15/15 14/14/14 13/13/13
f 16/16/16 15/15/15 13/13/13
f 19/19/19 18/18/18 17/17/17
f 20/20/20 19/19/19 17/17/17
f 20/20/20 17/17/17 21/21/21
f 17/17/17 22/22/22 21/21/21
f 25/25/25 24/24/24 23/23/23
f 26/26/26 25/25/25 23/23/23
f 26/26/26 23/23/23 27/27/27
f 23/23/23 28/28/28 27/27/27
f 31/31/31 30/30/30 29/29/29
f 32/32/32 31/31/31 29/29/29
f 31/31/31 32/32/32 33/33/33
f 32/32/32 34/34/34 33/33/33
f 37/37/37 36/36/36 35/35/35
f 38/38/38 37/37/37 35/35/35
f 39/39/39 38/38/38 35/35/35
f 40/40/40 39/39/39 35/35/35
f 43/43/43 42/42/42 41/41/41
f 44/44/44 43/43/43 41/41/41
f 47/47/47 46/46/46 45/45/45
f 48/48/48 47/47/47 45/45/45
f 51/51/51 50/50/50 49/49/49
f 52/52/52 51/51/51 49/49/49
f 55/55/55 54/54/54 53/53/53
f 56/56/56 55/55/55 53/53/53
f 59/59/59 58/58/58 57/57/57
f 60/60/60 59/59/59 57/57/57
f 60/60/60 57/57/57 61/61/61
f 57/57/57 62/62/62 61/61/61
f 65/65/65 64/64/64 63/63/63
f 66/66/66 65/65/65 63/63/63
f 66/66/66 63/63/63 67/67/67
f 63/63/63 68/68/68 67/67/67
f 71/71/71 70/70/70 69/69/69
f 72/72/72 71/71/71 69/69/69
f 71/71/71 72/72/72 73/73/73
f 72/72/72 74/74/74 73/73/73
f 77/77/77 76/76/76 75/75/75
f 78/78/78 77/77/77 75/75/75
f 79/79/79 78/78/78 75/75/75
f 80/80/80 79/79/79 75/75/75
f 83/83/83 82/82/82 81/81/81
f 84/84/84 83/83/83 81/81/81
f 87/87/87 86/86/86 85/85/85
f 88/88/88 87/87/87 85/85/85
f 88/88/88 85/85/85 89/89/89
f 85/85/85 90/90/90 89/89/89
f 89/89/89 90/90/90 91/91/91
f 90/90/90 92/92/92 91/91/91
f 91/91/91 92/92/92 93/93/93
f 92/92/92 94/94/94 93/93/93
f 93/93/93 94/94/94 95/95/95
f 94/94/94 96/96/96 95/95/95
f 95/95/95 96/96/96 97/97/97
f 96/96/96 98/98/98 97/97/97
f 97/97/97 98/98/98 99/99/99
f 98/98/98 100/100/100 99/99/99
f 99/99/99 100/100/100 101/101/101
f 100/100/100 102/102/102 101/101/101
f 101/101/101 102/102/102 103/103/103
f 102/102/102 104/104/104 103/103/103
f 103/103/103 104/104/104 105/105/105
f 104/104/104 106/106/106 105/105/105
f 105/105/105 106/106/106 107/107/107
f 106/106/106 108/108/108 107/107/107
f 107/107/107 108/108/108 109/109/109
f 108/108/108 110/110/110 109/109/109
f 109/109/109 110/110/110 111/111/111
f 110/110/110 112/112/112 111/111/111
f 115/115/115 114/114/114 113/113/113
f 116/116/116 115/115/115 113/113/113
f 119/119/119 118/118/118 117/117/117
f 120/120/120 119/119/119 117/117/117
f 120/120/120 117/117/117 121/121/121
f 117/117/117 122/122/122 121/121/121
f 121/121/121 122/122/122 123/123/123
f 122/122/122 124/124/124 123/123/123
f 123/123/123 124/124/124 125/125/125
f 124/124/124 126/126/126 125/125/125
f 125/125/125 126/126/126 127/127/127
f 126/126/126 128/128/128 127/127/127
f 127/127/127 128/128/128 129/129/129
f 128/128/128 130/130/130 129/129/129
f 129/129/129 130/130/130 131/131/131
f 130/130/130 132/132/132 131/131/131
f 131/131/131 132/132/132 133/133/133
f 132/132/132 134/134/134 133/133/133
f 133/133/133 134/134/134 135/135/135
f 134/134/134 136/136/136 135/135/135
f 135/135/135 136/136/136 137/137/137
f 136/136/136 138/138/138 137/137/137
f 137/137/137 138/138/138 139/139/139
f 138/138/138 140/140/140 139/139/139
f 139/139/139 140/140/140 141/141/141
f 140/140/140 142/142/142 141/141/141
f 141/141/141 142/142/142 143/143/143
f 142/142/142 144/144/144 143/143/143
f 144/144/144 145/145/145 143/143/143
f 145/145/145 146/146/146 143/143/143
f 149/149/149 148/148/148 147/147/147
f 150/150/150 149/149/149 147/147/147
f 151/151/151 149/149/149 150/150/150
f 152/152/152 151/151/151 150/150/150
f 153/153/153 151/151/151 152/152/152
f 154/154/154 153/153/153 152/152/152
f 155/155/155 153/153/153 154/154/154
f 156/156/156 155/155/155 154/154/154
f 157/157/157 155/155/155 156/156/156
f 158/158/158 157/157/157 156/156/156
f 159/159/159 157/157/157 158/158/158
f 160/160/160 159/159/159 158/158/158
f 161/161/161 159/159/159 160/160/160
f 162/162/162 161/161/161 160/160/160
f 163/163/163 161/161/161 162/162/162
f 164/164/164 163/163/163 162/162/162
f 165/165/165 163/163/163 164/164/164
f 166/166/166 165/165/165 164/164/164
f 167/167/167 165/165/165 166/166/166
f 168/168/168 167/167/167 166/166/166
f 169/169/169 167/167/167 168/168/168
f 170/170/170 169/169/169 168/168/168
f 171/171/171 169/169/169 170/170/170
f 172/172/172 171/171/171 170/170/170
f 175/175/175 174/174/174 173/173/173
f 176/176/176 175/175/175 173/173/173
f 177/177/177 175/175/175 176/176/176
f 178/178/178 177/177/177 176/176/176
f 179/179/179 177/177/177 178/178/178
f 180/180/180 179/179/179 178/178/178
f 181/181/181 179/179/179 180/180/180
f 182/182/182 181/181/181 180/180/180
f 183/183/183 181/181/181 182/182/182
f 184/184/184 183/183/183 182/182/182
f 185/185/185 183/183/183 184/184/184
f 186/186/186 185/185/185 184/184/184
f 187/187/187 185/185/185 186/186/186
f 188/188/188 187/187/187 186/186/186
f 189/189/189 187/187/187 188/188/188
f 190/190/190 189/189/189 188/188/188
f 191/191/191 189/189/189 190/190/190
f 192/192/192 191/191/191 190/190/190
f 193/193/193 191/191/191 192/192/192
f 194/194/194 193/193/193 192/192/192
f 195/195/195 193/193/193 194/194/194
f 196/196/196 195/195/195 194/194/194
f 197/197/197 195/195/195 196/196/196
f 198/198/198 197/197/197 196/196/196
f 201/201/201 200/200/200 199/199/199
f 202/202/202 201/201/201 199/199/199
f 205/205/205 204/204/204 203/203/203
f 206/206/206 205/205/205 203/203/203
f 209/209/209 208/208/208 207/207/207
f 210/210/210 209/209/209 207/207/207
