g polySurface2751
v 0.4582004 4.780623 0.5067954
v 0.4582004 1.798584 0.5067954
v -0.4416635 1.798584 0.5067954
v -0.4416635 4.780623 0.5067954
v -0.4416635 5.039409 -0.05987787
v -0.4416635 4.780623 0.5067954
v -0.4416635 1.798584 0.5067954
v -0.4416635 1.798584 -0.05987787
v 0.4582004 -0.01106751 -0.05987787
v 0.4582004 -0.01106751 0.5067954
v 0.4582004 1.798584 0.5067954
v 0.4582004 1.798584 -0.05987787
v 0.5006701 4.741795 0.5955539
v 0.5006701 4.805995 0.6376758
v 0.5006701 5.179745 -0.1819553
v 0.5006701 5.095129 -0.1819549
v -0.5006701 4.741795 0.5955548
v 0.5006701 4.741795 0.5955539
v 0.5006701 5.095129 -0.1819549
v -0.5006701 5.095129 -0.1819549
v -0.5006701 4.805995 0.6376758
v 0.5006701 4.805995 0.6376758
v 0.5006701 4.741795 0.5955539
v -0.5006701 4.741795 0.5955548
v 0.5006701 5.179745 -0.1819553
v 0.5006701 4.805995 0.6376758
v -0.5006701 4.805995 0.6376758
v -0.5006701 5.179745 -0.1819553
v -0.5006701 4.741795 0.5955548
v -0.5006701 5.095129 -0.1819549
v -0.5006701 5.179745 -0.1819553
v -0.5006701 4.805995 0.6376758
v 0.4582004 1.798584 0.5067954
v 0.4582004 -0.01106751 0.5067954
v -0.4416635 -0.01106751 0.5067954
v -0.4416635 1.798584 0.5067954
v -0.4416635 1.798584 0.5067954
v -0.4416635 -0.01106751 0.5067954
v -0.4416635 -0.01106751 -0.05987787
v -0.4416635 1.798584 -0.05987787
v 0.4582004 1.798584 0.5067954
v 0.4582004 4.780623 0.5067954
v 0.4582004 5.039409 -0.05987787
v 0.4582004 1.798584 -0.05987787
vt 0.1721757 0.9764475
vt 0.1721757 0.7513556
vt 0.09818113 0.7513556
vt 0.09818113 0.9764475
vt 0.05947406 1
vt 0.09818113 0.9764475
vt 0.09818113 0.7513556
vt 0.05947406 0.7513778
vt 0.2108828 0.8847281
vt 0.1721757 0.8847281
vt 0.1721757 0.9999876
vt 0.2108828 0.9999876
vt 0.1837278 0.5291972
vt 0.1762317 0.5291263
vt 0.1762319 0.593053
vt 0.1837282 0.589651
vt 0.09584694 0.7485609
vt 0.1883805 0.7485608
vt 0.1883805 0.6854574
vt 0.09584694 0.6854575
vt 0.09584714 0.5103024
vt 0.1883805 0.5103024
vt 0.1883805 0.5061613
vt 0.09584694 0.5061625
vt 0.1883806 0.5742291
vt 0.1883805 0.5103024
vt 0.09584714 0.5103024
vt 0.09584676 0.5742288
vt 0.09826936 0.5291969
vt 0.09826842 0.5896509
vt 0.1057649 0.5930528
vt 0.1057653 0.5291263
vt 0.1721757 0.9999876
vt 0.1721757 0.8847281
vt 0.09818113 0.8847281
vt 0.09818113 0.9999876
vt 0.09818113 0.9999876
vt 0.09818113 0.8847281
vt 0.05947407 0.8847281
vt 0.05947407 0.9999876
vt 0.1721757 0.7513556
vt 0.1721757 0.9764475
vt 0.2108828 1
vt 0.2108828 0.7513778
vn 0 0 1
vn 0 0 1
vn 0 0 1
vn 0 0 1
vn -1 0 0
vn -1 0 0
vn -1 0 0
vn -1 0 0
vn 1 0 0
vn 1 0 0
vn 1 0 0
vn 1 0 0
vn 1 0 0
vn 1 0 0
vn 1 0 0
vn 1 0 0
vn 0 -0.9104013 -0.4137264
vn 0 -0.9104012 -0.4137263
vn 0 -0.9104012 -0.4137263
vn 0 -0.9104012 -0.4137263
vn 0 -0.5485629 0.8361093
vn 0 -0.5485629 0.8361093
vn 0 -0.5485629 0.8361093
vn 0 -0.5485629 0.8361093
vn 0 0.9098681 0.4148978
vn 0 0.9098681 0.4148978
vn 0 0.9098681 0.4148978
vn 0 0.9098681 0.4148978
vn -1 0 0
vn -1 0 0
vn -1 0 0
vn -1 0 0
vn 0 0 1
vn 0 0 1
vn 0 0 1
vn 0 0 1
vn -1 0 0
vn -1 0 0
vn -1 0 0
vn -1 0 0
vn 1 0 0
vn 1 0 0
vn 1 0 0
vn 1 0 0
g polySurface2751_0
f 3/3/3 2/2/2 1/1/1
f 4/4/4 3/3/3 1/1/1
f 7/7/7 6/6/6 5/5/5
f 8/8/8 7/7/7 5/5/5
f 11/11/11 10/10/10 9/9/9
f 12/12/12 11/11/11 9/9/9
f 15/15/15 14/14/14 13/13/13
f 16/16/16 15/15/15 13/13/13
f 19/19/19 18/18/18 17/17/17
f 20/20/20 19/19/19 17/17/17
f 23/23/23 22/22/22 21/21/21
f 24/24/24 23/23/23 21/21/21
f 27/27/27 26/26/26 25/25/25
f 28/28/28 27/27/27 25/25/25
f 31/31/31 30/30/30 29/29/29
f 32/32/32 31/31/31 29/29/29
f 35/35/35 34/34/34 33/33/33
f 36/36/36 35/35/35 33/33/33
f 39/39/39 38/38/38 37/37/37
f 40/40/40 39/39/39 37/37/37
f 43/43/43 42/42/42 41/41/41
f 44/44/44 43/43/43 41/41/41
