g polySurface3123
v 0.5939718 2.535785 0.1382051
v 0.1754192 2.525155 0.1898885
v 0.1914619 2.52945 -0.1849549
v 0.1754192 2.525155 0.1898885
v 0.06531847 2.145537 0.007507592
v 0.1914619 2.52945 -0.1849549
v -0.1779398 2.497062 -0.1747046
v 0.06531847 2.145537 0.007507592
v -0.1939658 2.519502 0.1798896
v 0.1914619 2.52945 -0.1849549
v 0.06531847 2.145537 0.007507592
v -0.1779398 2.497062 -0.1747046
v -0.1939658 2.519502 0.1798896
v 0.06531847 2.145537 0.007507592
v 0.1754192 2.525155 0.1898885
v -0.5588762 1.925487 0.5693753
v -0.5619723 2.493799 0.5636756
v 0.2378086 2.519163 0.5715874
v 0.5086035 1.906188 0.5975987
v 0.5635232 2.460036 0.5819676
v 0.5086035 1.906188 0.5975987
v 0.5635232 2.460036 0.5819676
v 0.5892998 1.887365 -0.06939408
v 0.5939718 2.535785 0.1382051
v 0.5795845 2.524431 -0.4928668
v 0.552441 1.889022 -0.5504575
v -0.005389094 2.556678 -0.5975986
v 0.552441 1.889022 -0.5504575
v 0.5795845 2.524431 -0.4928668
v -0.5585605 1.917928 -0.533917
v -0.5939718 2.539864 -0.512215
v -0.5588762 1.925487 0.5693753
v 0.5086035 1.906188 0.5975987
v 0.5892998 1.887365 -0.06939408
v -0.5585605 1.917928 -0.533917
v 0.552441 1.889022 -0.5504575
v -0.5939718 2.539864 -0.512215
v -0.5747553 2.533732 -0.178663
v -0.5585605 1.917928 -0.533917
v -0.5588762 1.925487 0.5693753
v -0.5619723 2.493799 0.5636756
v 0.2378086 2.519163 0.5715874
v 0.5939718 2.535785 0.1382051
v 0.5635232 2.460036 0.5819676
v 0.1754192 2.525155 0.1898885
v -0.1939658 2.519502 0.1798896
v -0.5619723 2.493799 0.5636756
v -0.5747553 2.533732 -0.178663
v -0.1779398 2.497062 -0.1747046
v -0.5939718 2.539864 -0.512215
v -0.005389094 2.556678 -0.5975986
v 0.1914619 2.52945 -0.1849549
v 0.5795845 2.524431 -0.4928668
v -0.5468231 -0.2129721 0.5795314
v -0.4535156 2.004424 0.4774195
v 0.3965362 2.004424 0.4774195
v 0.4898437 -0.2129721 0.5795314
v 0.4898437 -0.2129721 0.5795314
v 0.3965362 2.004424 0.4774195
v 0.3965362 2.004423 -0.4529088
v 0.4898437 -0.2129731 -0.5550206
v 0.4898437 -0.2129731 -0.5550206
v 0.3965362 2.004423 -0.4529088
v -0.4535156 2.004423 -0.4529088
v -0.5468231 -0.2129731 -0.5550206
v -0.5468231 -0.2129731 -0.5550206
v -0.4535156 2.004423 -0.4529088
v -0.4535156 2.004424 0.4774195
v -0.5468231 -0.2129721 0.5795314
vt 0.429911 0.069869
vt 0.44928 0.073718
vt 0.448546 0.05433
vt 0.44928 0.073718
vt 0.457254 0.063999
vt 0.448546 0.05433
vt 0.46792 0.055444
vt 0.457254 0.063999
vt 0.468335 0.07369
vt 0.448546 0.05433
vt 0.457254 0.063999
vt 0.46792 0.055444
vt 0.468335 0.07369
vt 0.457254 0.063999
vt 0.44928 0.073718
vt 0.483975 0.12439
vt 0.48543 0.092874
vt 0.445085 0.091602
vt 0.430451 0.123508
vt 0.428392 0.092459
vt 0.396431 0.09288
vt 0.428392 0.092459
vt 0.396444 0.060071
vt 0.429911 0.069869
vt 0.430033 0.03813
vt 0.394393 0.036747
vt 0.458849 0.036003
vt 0.430106 0.002123
vt 0.430033 0.03813
vt 0.485997 0.002969
vt 0.487656 0.038079
vt 0.343218 0.09461
vt 0.396431 0.09288
vt 0.396444 0.060071
vt 0.339772 0.040624
vt 0.394393 0.036747
vt 0.487656 0.038079
vt 0.486923 0.05501
vt 0.521685 0.040536
vt 0.516559 0.095146
vt 0.48543 0.092874
vt 0.445085 0.091602
vt 0.429911 0.069869
vt 0.428392 0.092459
vt 0.44928 0.073718
vt 0.468335 0.07369
vt 0.48543 0.092874
vt 0.486923 0.05501
vt 0.46792 0.055444
vt 0.487656 0.038079
vt 0.458849 0.036003
vt 0.448546 0.05433
vt 0.430033 0.03813
vt 0.002065711 0.7848406
vt 0.002065711 0.9369409
vt 0.05501212 0.9369409
vt 0.05501212 0.7848406
vt 0.05501212 0.7848406
vt 0.05501212 0.9369409
vt 0.1079585 0.9369409
vt 0.1079585 0.7848406
vt 0.1079585 0.7848406
vt 0.1079585 0.9369409
vt 0.1609049 0.9369409
vt 0.1609049 0.7848406
vt 0.1609049 0.7848406
vt 0.1609049 0.9369409
vt 0.2138513 0.9369409
vt 0.2138513 0.7848406
vn 0.8850146 0.4644179 0.03263829
vn -0.1998841 0.9598389 -0.1968649
vn -0.1479649 0.9749525 0.1660544
vn -0.1998841 0.9598389 -0.1968649
vn -0.1207649 0.9925389 -0.0168045
vn -0.1479649 0.9749525 0.1660544
vn 0.1680366 0.9650952 0.2008855
vn -0.1207649 0.9925389 -0.0168045
vn 0.1024415 0.9914221 -0.08116533
vn -0.1479649 0.9749525 0.1660544
vn -0.1207649 0.9925389 -0.0168045
vn 0.1680366 0.9650952 0.2008855
vn 0.1024415 0.9914221 -0.08116533
vn -0.1207649 0.9925389 -0.0168045
vn -0.1998841 0.9598389 -0.1968649
vn -0.4213588 -0.8080741 0.4116709
vn -0.6206093 0.4151741 0.6651876
vn -0.01214748 0.4179014 0.9084111
vn 0.3276137 -0.7498928 0.5747434
vn 0.8140255 0.2570847 0.5208358
vn 0.3276137 -0.7498928 0.5747434
vn 0.8140255 0.2570847 0.5208358
vn 0.3878529 -0.9216244 0.01336362
vn 0.8850146 0.4644179 0.03263829
vn 0.6936842 0.4349411 -0.5741329
vn 0.3382729 -0.6600343 -0.6707654
vn -0.005072969 0.318023 -0.9480694
vn 0.3382729 -0.6600343 -0.6707654
vn 0.6936842 0.4349411 -0.5741329
vn -0.4122824 -0.811771 -0.4135835
vn -0.5583689 0.4169782 -0.7171844
vn -0.4213588 -0.8080741 0.4116709
vn 0.3276137 -0.7498928 0.5747434
vn 0.3878529 -0.9216244 0.01336362
vn -0.4122824 -0.811771 -0.4135835
vn 0.3382729 -0.6600343 -0.6707654
vn -0.5583689 0.4169782 -0.7171844
vn -0.9418102 0.3357151 0.01699841
vn -0.4122824 -0.811771 -0.4135835
vn -0.4213588 -0.8080741 0.4116709
vn -0.6206093 0.4151741 0.6651876
vn -0.01214748 0.4179014 0.9084111
vn 0.8850146 0.4644179 0.03263829
vn 0.8140255 0.2570847 0.5208358
vn -0.1998841 0.9598389 -0.1968649
vn 0.1024415 0.9914221 -0.08116533
vn -0.6206093 0.4151741 0.6651876
vn -0.9418102 0.3357151 0.01699841
vn 0.1680366 0.9650952 0.2008855
vn -0.5583689 0.4169782 -0.7171844
vn -0.005072969 0.318023 -0.9480694
vn -0.1479649 0.9749525 0.1660544
vn 0.6936842 0.4349411 -0.5741329
vn 0 0.04600157 0.9989414
vn 0 0.04600157 0.9989414
vn 0 0.04600157 0.9989414
vn 0 0.04600157 0.9989414
vn 0.9991158 0.04204248 0
vn 0.9991158 0.04204248 0
vn 0.9991158 0.04204247 0
vn 0.9991158 0.04204247 0
vn 0 0.04600158 -0.9989414
vn 0 0.04600158 -0.9989414
vn 0 0.04600158 -0.9989414
vn 0 0.04600158 -0.9989414
vn -0.9991158 0.04204252 0
vn -0.9991158 0.04204252 0
vn -0.9991158 0.04204253 0
vn -0.9991158 0.04204252 0
g polySurface3123_0
f 3/3/3 2/2/2 1/1/1
f 6/6/6 5/5/5 4/4/4
f 9/9/9 8/8/8 7/7/7
f 12/12/12 11/11/11 10/10/10
f 15/15/15 14/14/14 13/13/13
f 18/18/18 17/17/17 16/16/16
f 19/19/19 18/18/18 16/16/16
f 19/19/19 20/20/20 18/18/18
f 23/23/23 22/22/22 21/21/21
f 24/24/24 22/22/22 23/23/23
f 23/23/23 25/25/25 24/24/24
f 23/23/23 26/26/26 25/25/25
f 29/29/29 28/28/28 27/27/27
f 27/27/27 28/28/28 30/30/30
f 27/27/27 30/30/30 31/31/31
f 34/34/34 33/33/33 32/32/32
f 34/34/34 32/32/32 35/35/35
f 35/35/35 36/36/36 34/34/34
f 39/39/39 38/38/38 37/37/37
f 39/39/39 40/40/40 38/38/38
f 41/41/41 38/38/38 40/40/40
f 44/44/44 43/43/43 42/42/42
f 42/42/42 43/43/43 45/45/45
f 42/42/42 45/45/45 46/46/46
f 46/46/46 47/47/47 42/42/42
f 48/48/48 47/47/47 46/46/46
f 48/48/48 46/46/46 49/49/49
f 48/48/48 49/49/49 50/50/50
f 50/50/50 49/49/49 51/51/51
f 51/51/51 49/49/49 52/52/52
f 52/52/52 43/43/43 53/53/53
f 51/51/51 52/52/52 53/53/53
f 56/56/56 55/55/55 54/54/54
f 57/57/57 56/56/56 54/54/54
f 60/60/60 59/59/59 58/58/58
f 61/61/61 60/60/60 58/58/58
f 64/64/64 63/63/63 62/62/62
f 65/65/65 64/64/64 62/62/62
f 68/68/68 67/67/67 66/66/66
f 69/69/69 68/68/68 66/66/66
