g Saw_Path
v 2.5 -0.1 -0.1000008
v 2.5 -0.1 0.0999992
v 2.5 0.05 0.0699992
v 2.5 0.05000002 -0.07000083
v 2.5 -0.1 0.0999992
v -2.5 -0.1 0.1000008
v -2.5 0.05 0.07000083
v 2.5 0.05 0.0699992
v -2.5 -0.1 0.1000008
v -2.5 -0.1 -0.09999921
v -2.5 0.05000002 -0.0699992
v -2.5 0.05 0.07000083
v -2.5 -0.1 -0.09999921
v 2.5 -0.1 -0.1000008
v 2.5 0.05000002 -0.07000083
v -2.5 0.05000002 -0.0699992
v 2.5 -0.1 0.0999992
v 2.5 -0.1 -0.1000008
v -2.5 -0.1 -0.09999921
v -2.5 -0.1 0.1000008
v 2.470927 0.05000002 -0.04200082
v 2.470927 -0.07669619 -0.04200082
v -2.470927 -0.07669619 -0.04199921
v -2.470927 0.05000002 -0.04199921
v -2.470927 -0.0766962 0.04200081
v -2.470927 -0.07669619 -0.04199921
v 2.470927 -0.07669619 -0.04200082
v 2.470927 -0.0766962 0.0419992
v -2.470927 0.05 0.04200082
v -2.470927 -0.0766962 0.04200081
v 2.470927 -0.0766962 0.0419992
v 2.470927 0.05 0.04199921
v -2.470927 0.05000002 -0.04199921
v -2.470927 -0.07669619 -0.04199921
v -2.470927 -0.0766962 0.04200081
v -2.470927 0.05 0.04200082
v 2.470927 0.05 0.04199921
v 2.470927 -0.0766962 0.0419992
v 2.470927 -0.07669619 -0.04200082
v 2.470927 0.05000002 -0.04200082
v 2.5 0.05 0.0699992
v 2.470927 0.05000002 -0.04200082
v 2.5 0.05000002 -0.07000083
v 2.470927 0.05 0.04199921
v -2.470927 0.05000002 -0.04199921
v -2.5 0.05 0.07000083
v -2.5 0.05000002 -0.0699992
v -2.470927 0.05 0.04200082
vt 0.4317914 0.8100392
vt 0.4317914 0.8100392
vt 0.4317914 0.8100392
vt 0.4317914 0.8100392
vt 0.4317914 0.8100392
vt 0.4317914 0.8100392
vt 0.4317914 0.8100392
vt 0.4317914 0.8100392
vt 0.4317914 0.8100392
vt 0.4317914 0.8100392
vt 0.4317914 0.8100392
vt 0.4317914 0.8100392
vt 0.4317914 0.8100392
vt 0.4317914 0.8100392
vt 0.4317914 0.8100392
vt 0.4317914 0.8100392
vt 0.4317914 0.8100392
vt 0.4317914 0.8100392
vt 0.4317914 0.8100392
vt 0.4317914 0.8100392
vt 0.4317914 0.8100392
vt 0.4317914 0.8100392
vt 0.4317914 0.8100392
vt 0.4317914 0.8100392
vt 0.4317914 0.8100392
vt 0.4317914 0.8100392
vt 0.4317914 0.8100392
vt 0.4317914 0.8100392
vt 0.4317914 0.8100392
vt 0.4317914 0.8100392
vt 0.4317914 0.8100392
vt 0.4317914 0.8100392
vt 0.4317914 0.8100392
vt 0.4317914 0.8100392
vt 0.4317914 0.8100392
vt 0.4317914 0.8100392
vt 0.4317914 0.8100392
vt 0.4317914 0.8100392
vt 0.4317914 0.8100392
vt 0.4317914 0.8100392
vt 0.4317914 0.8100392
vt 0.4317914 0.8100392
vt 0.4317914 0.8100392
vt 0.4317914 0.8100392
vt 0.4317914 0.8100392
vt 0.4317914 0.8100392
vt 0.4317914 0.8100392
vt 0.4317914 0.8100392
vn 1 0 0
vn 1 0 0
vn 1 0 0
vn 1 0 0
vn 0 0.1961162 0.9805807
vn 0 0.1961162 0.9805807
vn 0 0.1961162 0.9805807
vn 0 0.1961162 0.9805807
vn -1 0 0
vn -1 0 0
vn -1 0 0
vn -1 0 0
vn 0 0.1961162 -0.9805807
vn 0 0.1961162 -0.9805807
vn 0 0.1961162 -0.9805807
vn 0 0.1961162 -0.9805807
vn 0 -1 0
vn 0 -1 0
vn 0 -1 0
vn 0 -1 0
vn 0 0 1
vn 0 0 1
vn 0 0 1
vn 0 0 1
vn 0 1 0
vn 0 1 0
vn 0 1 0
vn 0 1 0
vn 0 0 -1
vn 0 0 -1
vn 0 0 -1
vn 0 0 -1
vn 1 0 0
vn 1 0 0
vn 1 0 0
vn 1 0 0
vn -1 0 0
vn -1 0 0
vn -1 0 0
vn -1 0 0
vn 0 1 0
vn 0 1 0
vn 0 1 0
vn 0 1 0
vn 0 1 0
vn 0 1 0
vn 0 1 0
vn 0 1 0
g Saw_Path_0
f 3/3/3 2/2/2 1/1/1
f 4/4/4 3/3/3 1/1/1
f 7/7/7 6/6/6 5/5/5
f 8/8/8 7/7/7 5/5/5
f 11/11/11 10/10/10 9/9/9
f 12/12/12 11/11/11 9/9/9
f 15/15/15 14/14/14 13/13/13
f 16/16/16 15/15/15 13/13/13
f 19/19/19 18/18/18 17/17/17
f 20/20/20 19/19/19 17/17/17
f 23/23/23 22/22/22 21/21/21
f 24/24/24 23/23/23 21/21/21
f 27/27/27 26/26/26 25/25/25
f 28/28/28 27/27/27 25/25/25
f 31/31/31 30/30/30 29/29/29
f 32/32/32 31/31/31 29/29/29
f 35/35/35 34/34/34 33/33/33
f 36/36/36 35/35/35 33/33/33
f 39/39/39 38/38/38 37/37/37
f 40/40/40 39/39/39 37/37/37
f 43/43/43 42/42/42 41/41/41
f 42/42/42 44/44/44 41/41/41
f 45/45/45 42/42/42 43/43/43
f 41/41/41 44/44/44 46/46/46
f 47/47/47 45/45/45 43/43/43
f 44/44/44 48/48/48 46/46/46
f 48/48/48 45/45/45 47/47/47
f 46/46/46 48/48/48 47/47/47
