g Seagull
v 0.03768825 0.00072375 0.1836945
v 0.05247825 0 0.09937499
v 0 -0.02571225 0.1917525
v 0.05205375 -0.01224 0.01924875
v 0 -0.02571225 0.1917525
v 0 -0.05625375 0.00984675
v 0 -0.02571225 0.1917525
v 0 -0.0219435 -0.1219552
v 0.050697 0 -0.09062025
v 0.02937375 0 -0.1219552
v 0 -0.010773 -0.2418053
v 0.0752835 0 -0.2418053
v 0 0 -0.266514
v 0 0.0375285 0.1836945
v 0.03768825 0.00072375 0.1836945
v 0.05205375 0.01224 0.01924875
v 0 0.05625375 0.00984675
v 0 0.0375285 0.1836945
v 0 0.0219435 -0.1219552
v 0.050697 0 -0.09062025
v 0.02937375 0 -0.1219552
v 0.0752835 0 -0.2418053
v 0 0.010773 -0.2418053
v 0 0 -0.266514
v 0.0170715 -0.00429075 0.2072318
v 0 0.01328325 0.2072318
v 0 -0.02571225 0.1917525
v 0.03768825 0.00072375 0.1836945
v 0 0.01328325 0.2072318
v 0 0.0375285 0.1836945
v -0.03768825 0.00072375 0.1836945
v 0 -0.009807 0.2593628
v 0 -0.02571225 0.1917525
v -0.0170715 -0.00429075 0.2072318
v 0 -0.02571225 0.1917525
v 0 -0.02571225 0.1917525
v -0.03768825 0.00072375 0.1836945
v 0 0.0375285 0.1836945
v -0.05247825 0 0.09937499
v -0.05205375 0.01224 0.01924875
v -0.03768825 0.00072375 0.1836945
v 0 -0.02571225 0.1917525
v -0.05205375 -0.01224 0.01924875
v 0 -0.02571225 0.1917525
v 0 0.05625375 0.00984675
v 0 0.0375285 0.1836945
v 0 0.0219435 -0.1219552
v -0.050697 0 -0.09062025
v -0.02937375 0 -0.1219552
v -0.0752835 0 -0.2418053
v 0 0.010773 -0.2418053
v 0 0 -0.266514
v 0 -0.05625375 0.00984675
v 0 -0.02571225 0.1917525
v 0 -0.0219435 -0.1219552
v -0.050697 0 -0.09062025
v -0.02937375 0 -0.1219552
v 0 -0.010773 -0.2418053
v -0.0752835 0 -0.2418053
v 0 0 -0.266514
v 0.05247825 0 0.09937499
v 0.1609425 0 0.05634975
v 0.05205375 -0.01224 0.01924875
v 0.1532325 -0.00949875 0.0099075
v 0.2593763 -0.01083075 0.0096585
v 0.2581778 0 0.0785655
v 0.1405575 0 -0.0456285
v 0.050697 0 -0.09062025
v 0.2920792 0 -0.0538335
v 0.3940515 0 -0.07199625
v 0.3821392 -0.0083355 -0.013419
v 0.3858337 0 0.0322665
v 0.5128935 0 -0.08112
v 0.5200755 -0.00591525 -0.04731825
v 0.527334 0 -0.0194295
v 0.5648497 0 -0.05891625
v 0.05205375 0.01224 0.01924875
v 0.1609425 0 0.05634975
v 0.05247825 0 0.09937499
v 0.1532325 0.00949875 0.0099075
v 0.1405575 0 -0.0456285
v 0.050697 0 -0.09062025
v 0.2593763 0.01083075 0.0096585
v 0.2581778 0 0.0785655
v 0.2920792 0 -0.0538335
v 0.3858337 0 0.0322665
v 0.3821392 0.0083355 -0.013419
v 0.3940515 0 -0.07199625
v 0.527334 0 -0.0194295
v 0.5200755 0.00591525 -0.04731825
v 0.5128935 0 -0.08112
v 0.5648497 0 -0.05891625
v -0.05247825 0 0.09937499
v -0.05205375 -0.01224 0.01924875
v -0.1609425 0 0.05634975
v -0.1532325 -0.00949875 0.0099075
v -0.1405575 0 -0.0456285
v -0.050697 0 -0.09062025
v -0.2593763 -0.01083075 0.0096585
v -0.2920792 0 -0.0538335
v -0.2581778 0 0.0785655
v -0.3940515 0 -0.07199625
v -0.3821392 -0.0083355 -0.013419
v -0.3858337 0 0.0322665
v -0.5128935 0 -0.08112
v -0.5200755 -0.00591525 -0.04731825
v -0.527334 0 -0.0194295
v -0.5648497 0 -0.05891625
v -0.05205375 0.01224 0.01924875
v -0.05247825 0 0.09937499
v -0.1609425 0 0.05634975
v -0.1532325 0.00949875 0.0099075
v -0.2593763 0.01083075 0.0096585
v -0.2581778 0 0.0785655
v -0.3858337 0 0.0322665
v -0.1405575 0 -0.0456285
v -0.050697 0 -0.09062025
v -0.2920792 0 -0.0538335
v -0.3821392 0.0083355 -0.013419
v -0.527334 0 -0.0194295
v -0.3940515 0 -0.07199625
v -0.5200755 0.00591525 -0.04731825
v -0.5648497 0 -0.05891625
v -0.5128935 0 -0.08112
vt 0.78581 0.812837
vt 0.780796 0.665766
vt 0.723906 0.856742
vt 0.750501 0.522288
vt 0.723906 0.856742
vt 0.610947 0.503533
vt 0.723906 0.856742
vt 0.715498 0.25552
vt 0.781428 0.323465
vt 0.782252 0.256682
vt 0.663991 0.053645
vt 0.792052 0.014336
vt 0.650416 0.007874
vt 0.862037 0.844626
vt 0.78581 0.812837
vt 0.808113 0.523722
vt 0.948091 0.506082
vt 0.862037 0.844626
vt 0.84905 0.258727
vt 0.781428 0.323465
vt 0.782252 0.256682
vt 0.792052 0.014336
vt 0.916664 0.063016
vt 0.934072 0.018556
vt 0.778792 0.869235
vt 0.818905 0.883103
vt 0.723906 0.856742
vt 0.78581 0.812837
vt 0.818905 0.883103
vt 0.862037 0.844626
vt 0.78581 0.812837
vt 0.771189 0.969614
vt 0.723906 0.856742
vt 0.778792 0.869235
vt 0.723906 0.856742
vt 0.723906 0.856742
vt 0.78581 0.812837
vt 0.862037 0.844626
vt 0.780796 0.665766
vt 0.808113 0.523722
vt 0.78581 0.812837
vt 0.723906 0.856742
vt 0.750501 0.522288
vt 0.723906 0.856742
vt 0.948091 0.506082
vt 0.862037 0.844626
vt 0.84905 0.258727
vt 0.781428 0.323465
vt 0.782252 0.256682
vt 0.792052 0.014336
vt 0.916664 0.063016
vt 0.934072 0.018556
vt 0.610947 0.503533
vt 0.723906 0.856742
vt 0.715498 0.25552
vt 0.781428 0.323465
vt 0.782252 0.256682
vt 0.663991 0.053645
vt 0.792052 0.014336
vt 0.650416 0.007874
vt 0.592876 0.9321
vt 0.509004 0.740445
vt 0.444313 0.893095
vt 0.415092 0.750097
vt 0.407412 0.572335
vt 0.536182 0.573664
vt 0.29964 0.794514
vt 0.30022 0.992126
vt 0.298897 0.501319
vt 0.298996 0.312242
vt 0.399083 0.346842
vt 0.482287 0.346782
vt 0.299693 0.097751
vt 0.362635 0.091256
vt 0.414807 0.082749
vt 0.349884 0.00833
vt 0.155602 0.893695
vt 0.089946 0.741307
vt 0.007525 0.933962
vt 0.183945 0.750513
vt 0.29964 0.794514
vt 0.30022 0.992126
vt 0.190593 0.572538
vt 0.061923 0.574227
vt 0.298897 0.501319
vt 0.11564 0.346629
vt 0.198818 0.346731
vt 0.298996 0.312242
vt 0.184601 0.082446
vt 0.236752 0.091126
vt 0.299693 0.097751
vt 0.249817 0.008209
vt 0.592876 0.9321
vt 0.444313 0.893095
vt 0.509004 0.740445
vt 0.415092 0.750097
vt 0.29964 0.794514
vt 0.30022 0.992126
vt 0.407412 0.572335
vt 0.298897 0.501319
vt 0.536182 0.573664
vt 0.298996 0.312242
vt 0.399083 0.346842
vt 0.482287 0.346782
vt 0.299693 0.097751
vt 0.362635 0.091256
vt 0.414807 0.082749
vt 0.349884 0.00833
vt 0.155602 0.893695
vt 0.007525 0.933962
vt 0.089946 0.741307
vt 0.183945 0.750513
vt 0.190593 0.572538
vt 0.061923 0.574227
vt 0.11564 0.346629
vt 0.29964 0.794514
vt 0.30022 0.992126
vt 0.298897 0.501319
vt 0.198818 0.346731
vt 0.184601 0.082446
vt 0.298996 0.312242
vt 0.236752 0.091126
vt 0.249817 0.008209
vt 0.299693 0.097751
vn 0.9531083 0.05671301 0.297268
vn 0.954248 -0.004725 0.298979
vn 0 -0.983543 0.180674
vn 0.3946021 -0.9187613 0.012915
vn 0 -0.983543 0.180674
vn 0 -0.9996147 -0.02775799
vn 0 -0.983543 0.180674
vn 0 -0.9987847 -0.04928698
vn 0.2825291 -0.9520123 -0.117686
vn 0.325977 -0.9450698 -0.024124
vn 0 -0.9990976 -0.04247298
vn 0.2923401 -0.9563023 -0.004828001
vn 0 -0.9166578 -0.3996729
vn 0 0.9655992 0.260035
vn 0.9531083 0.05671301 0.297268
vn 0.39703 0.9177982 -0.003703001
vn 0 0.9980794 -0.06194703
vn 0 0.9655992 0.260035
vn 0 0.9987847 -0.04928698
vn 0.2825291 0.9520123 -0.117686
vn 0.325977 0.9450698 -0.024124
vn 0.2923401 0.9563023 -0.004828001
vn 0 0.9990976 -0.04247298
vn 0 0.9166578 -0.3996729
vn 0.8496439 0.05664499 0.524306
vn 0 0.7522724 0.6588523
vn 0 -0.983543 0.180674
vn 0.9531083 0.05671301 0.297268
vn 0 0.7522724 0.6588523
vn 0 0.9655992 0.260035
vn -0.9531083 0.05671301 0.297268
vn 0 -0.4166662 0.9090596
vn 0 -0.983543 0.180674
vn -0.8496439 0.05664499 0.524306
vn 0 -0.983543 0.180674
vn 0 -0.983543 0.180674
vn -0.9531083 0.05671301 0.297268
vn 0 0.9655992 0.260035
vn -0.954248 -0.004725 0.298979
vn -0.3970309 0.9177977 -0.003702999
vn -0.9531083 0.05671301 0.297268
vn 0 -0.983543 0.180674
vn -0.3946021 -0.9187613 0.012915
vn 0 -0.983543 0.180674
vn 0 0.9980794 -0.06194703
vn 0 0.9655992 0.260035
vn 0 0.9987847 -0.04928698
vn -0.2825291 0.9520123 -0.117686
vn -0.325977 0.9450698 -0.024124
vn -0.2923401 0.9563023 -0.004828001
vn 0 0.9990976 -0.04247298
vn 0 0.9166578 -0.3996729
vn 0 -0.9996147 -0.02775799
vn 0 -0.983543 0.180674
vn 0 -0.9987847 -0.04928698
vn -0.2825291 -0.9520123 -0.117686
vn -0.325977 -0.9450698 -0.024124
vn 0 -0.9990976 -0.04247298
vn -0.2923401 -0.9563023 -0.004828001
vn 0 -0.9166578 -0.3996729
vn 0.954248 -0.004725 0.298979
vn 0.01634699 -0.9842327 0.1761219
vn 0.3946021 -0.9187613 0.012915
vn 0.006726999 -0.9999548 -0.006717999
vn 0.011469 -0.999842 0.013581
vn 0.024018 -0.9867257 0.1606099
vn 0.02042301 -0.9889333 -0.1469481
vn 0.2825291 -0.9520123 -0.117686
vn -0.016319 -0.9862229 -0.164615
vn -0.017346 -0.9874802 -0.156786
vn 0.02174 -0.999715 0.009863
vn 0.05814799 -0.9838169 0.169479
vn -0.009364997 -0.9877347 -0.15586
vn 0.03353599 -0.9994349 0.002291
vn 0.07148998 -0.9811878 0.179331
vn 0.119981 -0.9918571 -0.04271
vn 0.39703 0.9177982 -0.003703001
vn 0.01634699 0.9842327 0.1761219
vn 0.954248 -0.004725 0.298979
vn 0.006726999 0.9999548 -0.006717999
vn 0.02042301 0.9889333 -0.1469481
vn 0.2825291 0.9520123 -0.117686
vn 0.011469 0.999842 0.01358
vn 0.024018 0.9867257 0.1606099
vn -0.016319 0.9862229 -0.164615
vn 0.05814799 0.9838169 0.169479
vn 0.02174 0.999715 0.009863
vn -0.017346 0.9874802 -0.156786
vn 0.07148998 0.9811878 0.179331
vn 0.03353599 0.9994349 0.002291
vn -0.009364997 0.9877347 -0.15586
vn 0.119981 0.9918571 -0.042711
vn -0.954248 -0.004725 0.298979
vn -0.3946021 -0.9187613 0.012915
vn -0.01634699 -0.9842327 0.1761219
vn -0.006726999 -0.9999548 -0.006717999
vn -0.02042301 -0.9889333 -0.1469481
vn -0.2825291 -0.9520123 -0.117686
vn -0.011469 -0.999842 0.01358
vn 0.016319 -0.9862229 -0.164615
vn -0.024018 -0.9867257 0.1606099
vn 0.017346 -0.9874802 -0.156786
vn -0.02174 -0.999715 0.009863
vn -0.05814799 -0.9838169 0.169479
vn 0.009364997 -0.9877347 -0.15586
vn -0.03353599 -0.9994349 0.002292
vn -0.07148998 -0.9811878 0.179331
vn -0.119981 -0.9918571 -0.042711
vn -0.3970309 0.9177977 -0.003702999
vn -0.954248 -0.004725 0.298979
vn -0.01634699 0.9842327 0.1761219
vn -0.006726999 0.9999548 -0.006717999
vn -0.011469 0.999842 0.01358
vn -0.024018 0.9867257 0.1606099
vn -0.05814799 0.9838169 0.169479
vn -0.02042301 0.9889333 -0.1469481
vn -0.2825291 0.9520123 -0.117686
vn 0.016319 0.9862229 -0.164615
vn -0.02174 0.999715 0.009863
vn -0.07148998 0.9811878 0.179331
vn 0.017346 0.9874802 -0.156786
vn -0.03353599 0.9994349 0.002292
vn -0.119981 0.9918571 -0.042711
vn 0.009364997 0.9877347 -0.15586
g Seagull_0
f 3/3/3 2/2/2 1/1/1
f 2/2/2 5/5/5 4/4/4
f 4/4/4 7/7/7 6/6/6
f 8/8/8 4/4/4 6/6/6
f 4/4/4 8/8/8 9/9/9
f 9/9/9 8/8/8 10/10/10
f 8/8/8 11/11/11 10/10/10
f 11/11/11 12/12/12 10/10/10
f 11/11/11 13/13/13 12/12/12
f 15/15/15 2/2/2 14/14/14
f 14/14/14 2/2/2 16/16/16
f 18/18/18 16/16/16 17/17/17
f 16/16/16 19/19/19 17/17/17
f 20/20/20 19/19/19 16/16/16
f 19/19/19 20/20/20 21/21/21
f 21/21/21 22/22/22 19/19/19
f 22/22/22 23/23/23 19/19/19
f 22/22/22 24/24/24 23/23/23
f 26/26/26 25/25/25 15/15/15
f 28/28/28 25/25/25 27/27/27
f 30/30/30 29/29/29 15/15/15
f 29/29/29 30/30/30 31/31/31
f 29/29/29 32/32/32 25/25/25
f 25/25/25 32/32/32 33/33/33
f 34/34/34 29/29/29 31/31/31
f 32/32/32 29/29/29 34/34/34
f 32/32/32 34/34/34 35/35/35
f 34/34/34 37/37/37 36/36/36
f 39/39/39 31/31/31 38/38/38
f 39/39/39 38/38/38 40/40/40
f 39/39/39 42/42/42 41/41/41
f 44/44/44 39/39/39 43/43/43
f 40/40/40 46/46/46 45/45/45
f 47/47/47 40/40/40 45/45/45
f 47/47/47 48/48/48 40/40/40
f 48/48/48 47/47/47 49/49/49
f 50/50/50 49/49/49 47/47/47
f 51/51/51 50/50/50 47/47/47
f 52/52/52 50/50/50 51/51/51
f 54/54/54 43/43/43 53/53/53
f 43/43/43 55/55/55 53/53/53
f 55/55/55 43/43/43 56/56/56
f 55/55/55 56/56/56 57/57/57
f 58/58/58 55/55/55 57/57/57
f 59/59/59 58/58/58 57/57/57
f 60/60/60 58/58/58 59/59/59
f 63/63/63 62/62/62 61/61/61
f 63/63/63 64/64/64 62/62/62
f 62/62/62 64/64/64 65/65/65
f 65/65/65 66/66/66 62/62/62
f 67/67/67 64/64/64 63/63/63
f 65/65/65 64/64/64 67/67/67
f 68/68/68 67/67/67 63/63/63
f 67/67/67 69/69/69 65/65/65
f 69/69/69 70/70/70 65/65/65
f 65/65/65 71/71/71 66/66/66
f 70/70/70 71/71/71 65/65/65
f 71/71/71 72/72/72 66/66/66
f 70/70/70 73/73/73 71/71/71
f 71/71/71 74/74/74 72/72/72
f 73/73/73 74/74/74 71/71/71
f 74/74/74 75/75/75 72/72/72
f 73/73/73 76/76/76 74/74/74
f 74/74/74 76/76/76 75/75/75
f 79/79/79 78/78/78 77/77/77
f 78/78/78 80/80/80 77/77/77
f 77/77/77 80/80/80 81/81/81
f 77/77/77 81/81/81 82/82/82
f 83/83/83 80/80/80 78/78/78
f 81/81/81 80/80/80 83/83/83
f 78/78/78 84/84/84 83/83/83
f 83/83/83 85/85/85 81/81/81
f 84/84/84 86/86/86 83/83/83
f 83/83/83 87/87/87 85/85/85
f 86/86/86 87/87/87 83/83/83
f 87/87/87 88/88/88 85/85/85
f 86/86/86 89/89/89 87/87/87
f 87/87/87 90/90/90 88/88/88
f 89/89/89 90/90/90 87/87/87
f 90/90/90 91/91/91 88/88/88
f 89/89/89 92/92/92 90/90/90
f 90/90/90 92/92/92 91/91/91
f 95/95/95 94/94/94 93/93/93
f 95/95/95 96/96/96 94/94/94
f 94/94/94 96/96/96 97/97/97
f 97/97/97 98/98/98 94/94/94
f 99/99/99 96/96/96 95/95/95
f 97/97/97 96/96/96 99/99/99
f 100/100/100 97/97/97 99/99/99
f 101/101/101 99/99/99 95/95/95
f 102/102/102 100/100/100 99/99/99
f 103/103/103 99/99/99 101/101/101
f 103/103/103 102/102/102 99/99/99
f 104/104/104 103/103/103 101/101/101
f 105/105/105 102/102/102 103/103/103
f 106/106/106 103/103/103 104/104/104
f 106/106/106 105/105/105 103/103/103
f 107/107/107 106/106/106 104/104/104
f 108/108/108 105/105/105 106/106/106
f 108/108/108 106/106/106 107/107/107
f 111/111/111 110/110/110 109/109/109
f 109/109/109 112/112/112 111/111/111
f 111/111/111 112/112/112 113/113/113
f 114/114/114 111/111/111 113/113/113
f 115/115/115 114/114/114 113/113/113
f 116/116/116 112/112/112 109/109/109
f 113/113/113 112/112/112 116/116/116
f 116/116/116 109/109/109 117/117/117
f 118/118/118 113/113/113 116/116/116
f 119/119/119 115/115/115 113/113/113
f 119/119/119 113/113/113 118/118/118
f 120/120/120 115/115/115 119/119/119
f 121/121/121 119/119/119 118/118/118
f 122/122/122 120/120/120 119/119/119
f 122/122/122 119/119/119 121/121/121
f 123/123/123 120/120/120 122/122/122
f 124/124/124 122/122/122 121/121/121
f 123/123/123 122/122/122 124/124/124
