g SoccerBall_Explode_Thin_00_Hull
v -0.2507575 -0.01560762 0.250804
v 0.3645994 -0.06001476 0.0345839
v -0.2108726 -0.0561087 0.2596891
v -0.3356026 0.01166209 0.1669665
v -0.3569062 0.0255004 0.05814769
v 0.3645994 -0.06001476 0.0345839
v -0.3356026 0.01166209 0.1669665
v 0.3645994 -0.06001476 0.0345839
v -0.2507575 -0.01560762 0.250804
v -0.1168308 -0.1412325 0.1777551
v 0.05092325 -0.1608284 0.1842874
v 0.03396026 -0.1889768 0.02696414
v -0.1168308 -0.1412325 0.1777551
v 0.03396026 -0.1889768 0.02696414
v -0.124191 -0.1633122 0.02696415
v -0.1075799 -0.1134798 -0.1867628
v -0.248118 -0.07894824 -0.1030655
v -0.1168308 -0.1412324 -0.1238268
v -0.1075237 -0.1133115 0.2410729
v -0.1168308 -0.1412325 0.1777551
v -0.2108726 -0.0561087 0.2596891
v -0.1075237 -0.1133115 0.2410729
v 0.05092325 -0.1608284 0.1842874
v -0.1168308 -0.1412325 0.1777551
v -0.3602929 0.007048616 0.02696419
v -0.3367097 0.002898111 -0.02089892
v -0.3569062 0.0255004 0.05814769
v -0.3602929 0.007048616 0.02696419
v -0.3569062 0.0255004 0.05814769
v -0.3356026 0.01166209 0.1669665
v -0.3602929 0.007048616 0.02696419
v -0.3356026 0.01166209 0.1669665
v -0.3102443 -0.03306357 0.1416992
v -0.3602929 0.007048616 0.02696419
v -0.3102443 -0.03306357 0.1416992
v -0.3196765 -0.0424958 0.02696418
v -0.2333636 -0.08984543 0.1606261
v -0.2108726 -0.0561087 0.2596891
v -0.1168308 -0.1412325 0.1777551
v -0.3131838 -0.03600315 -0.05201359
v -0.3602929 0.007048616 0.02696419
v -0.3196765 -0.0424958 0.02696418
v -0.3131838 -0.03600315 -0.05201359
v -0.3367097 0.002898111 -0.02089892
v -0.3602929 0.007048616 0.02696419
v -0.281092 -0.0161809 0.232909
v -0.2333636 -0.08984543 0.1606261
v -0.3102443 -0.03306357 0.1416992
v -0.281092 -0.0161809 0.232909
v -0.2108726 -0.0561087 0.2596891
v -0.2333636 -0.08984543 0.1606261
v -0.281092 -0.0161809 0.232909
v -0.3102443 -0.03306357 0.1416992
v -0.3356026 0.01166209 0.1669665
v -0.281092 -0.0161809 0.232909
v -0.2507575 -0.01560762 0.250804
v -0.2108726 -0.0561087 0.2596891
v -0.281092 -0.0161809 0.232909
v -0.3356026 0.01166209 0.1669665
v -0.2507575 -0.01560762 0.250804
v 0.3080232 -0.0999539 0.0713645
v 0.3645994 -0.06001476 0.0345839
v 0.3113755 -0.104982 0.02696417
v 0.1778797 -0.1206179 -0.1705755
v 0.1847513 -0.1412324 -0.1238268
v 0.2360778 -0.1185991 -0.1162824
v 0.3063184 -0.09739657 -0.04001781
v 0.3113755 -0.104982 0.02696417
v 0.3645994 -0.06001476 0.0345839
v 0.03396026 -0.104982 -0.2504511
v 0.1778797 -0.1206179 -0.1705755
v 0.06282943 -0.09278768 -0.2596996
v 0.03396026 -0.104982 -0.2504511
v 0.06282943 -0.09278768 -0.2596996
v -0.1075799 -0.1134798 -0.1867628
v -0.3569062 0.0255004 0.05814769
v 0.06282943 -0.09278768 -0.2596996
v 0.3645994 -0.06001476 0.0345839
v -0.3367097 0.002898111 -0.02089892
v -0.1168308 -0.1412324 -0.1238268
v -0.124191 -0.1633122 0.02696415
v 0.03396026 -0.1889768 0.02696414
v 0.03396026 -0.1633122 -0.1311871
v 0.1921115 -0.1633122 0.02696415
v 0.1847513 -0.1412324 -0.1238268
v 0.03396026 -0.1889768 0.02696414
v 0.03396026 -0.1633122 -0.1311871
v -0.243455 -0.104982 0.02696417
v -0.1168308 -0.1412324 -0.1238268
v -0.248118 -0.07894824 -0.1030655
v -0.124191 -0.1633122 0.02696415
v 0.1872069 -0.1485989 0.1274473
v 0.03396026 -0.1889768 0.02696414
v 0.05092325 -0.1608284 0.1842874
v 0.1921115 -0.1633122 0.02696415
v 0.2360778 -0.1185991 -0.1162824
v 0.1847513 -0.1412324 -0.1238268
v 0.1921115 -0.1633122 0.02696415
v 0.3063184 -0.09739657 -0.04001781
v 0.3113755 -0.104982 0.02696417
v -0.1075799 -0.1134798 -0.1867628
v 0.06282943 -0.09278768 -0.2596996
v -0.248118 -0.07894824 -0.1030655
v -0.3131838 -0.03600315 -0.05201359
v -0.3367097 0.002898111 -0.02089892
v 0.03396026 -0.1633122 -0.1311871
v -0.1075799 -0.1134798 -0.1867628
v -0.1168308 -0.1412324 -0.1238268
v 0.03396026 -0.104982 -0.2504511
v -0.1075237 -0.1133115 0.2410729
v 0.1872069 -0.1485989 0.1274473
v 0.05092325 -0.1608284 0.1842874
v 0.3080232 -0.0999539 0.0713645
v -0.1075237 -0.1133115 0.2410729
v -0.2108726 -0.0561087 0.2596891
v 0.3645994 -0.06001476 0.0345839
v 0.3080232 -0.0999539 0.0713645
v -0.3196765 -0.0424958 0.02696418
v -0.3102443 -0.03306357 0.1416992
v -0.243455 -0.104982 0.02696417
v -0.2333636 -0.08984543 0.1606261
v -0.2333636 -0.08984543 0.1606261
v -0.124191 -0.1633122 0.02696415
v -0.243455 -0.104982 0.02696417
v -0.1168308 -0.1412325 0.1777551
v -0.3131838 -0.03600315 -0.05201359
v -0.243455 -0.104982 0.02696417
v -0.248118 -0.07894824 -0.1030655
v -0.3196765 -0.0424958 0.02696418
v 0.3080232 -0.0999539 0.0713645
v 0.1921115 -0.1633122 0.02696415
v 0.1872069 -0.1485989 0.1274473
v 0.3113755 -0.104982 0.02696417
v 0.1778797 -0.1206179 -0.1705755
v 0.03396026 -0.1633122 -0.1311871
v 0.1847513 -0.1412324 -0.1238268
v 0.03396026 -0.104982 -0.2504511
v 0.1778797 -0.1206179 -0.1705755
v 0.2360778 -0.1185991 -0.1162824
v 0.06282943 -0.09278768 -0.2596996
v 0.3645994 -0.06001476 0.0345839
v 0.3063184 -0.09739657 -0.04001781
vn 0.3199211 0.4926012 0.8093173
vn 0.3199211 0.4926012 0.8093173
vn 0.3199211 0.4926012 0.8093173
vn 0.1203702 0.987474 0.1020105
vn 0.1203702 0.987474 0.1020105
vn 0.1203702 0.987474 0.1020105
vn 0.1340045 0.9742587 0.1812808
vn 0.1340045 0.9742587 0.1812808
vn 0.1340045 0.9742587 0.1812808
vn -0.1211658 -0.9747685 0.1874706
vn -0.1211658 -0.9747685 0.1874706
vn -0.1211658 -0.9747685 0.1874706
vn -0.1583557 -0.975827 0.1506159
vn -0.1583557 -0.975827 0.1506159
vn -0.1583557 -0.975827 0.1506159
vn -0.4426781 -0.7946202 -0.4154693
vn -0.4426781 -0.7946203 -0.4154693
vn -0.4426781 -0.7946202 -0.4154693
vn -0.3806264 -0.8241642 0.4193769
vn -0.3806264 -0.8241642 0.4193769
vn -0.3806264 -0.8241642 0.4193769
vn -0.1214816 -0.9014967 0.4153863
vn -0.1214816 -0.9014967 0.4153863
vn -0.1214816 -0.9014968 0.4153863
vn -0.600509 0.7150545 -0.357891
vn -0.600509 0.7150545 -0.357891
vn -0.6005091 0.7150545 -0.357891
vn -0.9771904 -0.1184862 0.1762381
vn -0.9771904 -0.1184862 0.1762381
vn -0.9771904 -0.1184862 0.1762381
vn -0.8162569 -0.5544444 0.1622225
vn -0.8162569 -0.5544443 0.1622225
vn -0.8162569 -0.5544443 0.1622225
vn -0.7682199 -0.6297852 0.1149286
vn -0.7682199 -0.6297852 0.1149286
vn -0.7682201 -0.6297852 0.1149286
vn -0.4195616 -0.8259458 0.376539
vn -0.4195616 -0.8259458 0.376539
vn -0.4195616 -0.8259457 0.3765391
vn -0.7682199 -0.6297854 -0.1149284
vn -0.7682199 -0.6297853 -0.1149284
vn -0.7682199 -0.6297853 -0.1149284
vn -0.8855953 -0.2004646 -0.4189691
vn -0.8855953 -0.2004645 -0.4189691
vn -0.8855953 -0.2004646 -0.4189691
vn -0.6121109 -0.7191914 0.3287615
vn -0.6121109 -0.7191913 0.3287615
vn -0.6121109 -0.7191913 0.3287615
vn -0.562354 -0.7353818 0.3781159
vn -0.5623539 -0.7353818 0.3781158
vn -0.5623538 -0.7353819 0.3781159
vn -0.7213556 -0.6022159 0.3420262
vn -0.7213556 -0.6022159 0.3420262
vn -0.7213556 -0.6022159 0.3420262
vn -0.4816603 -0.2931542 0.8258716
vn -0.4816603 -0.2931542 0.8258716
vn -0.4816603 -0.2931542 0.8258716
vn -0.3694886 0.7064137 0.6037034
vn -0.3694886 0.7064137 0.6037034
vn -0.3694886 0.7064137 0.6037034
vn 0.6282489 -0.7663478 0.1342181
vn 0.6282489 -0.7663478 0.1342181
vn 0.6282489 -0.7663478 0.1342181
vn 0.4173216 -0.8072707 -0.4173211
vn 0.4173215 -0.8072707 -0.4173211
vn 0.4173215 -0.8072707 -0.4173211
vn 0.650675 -0.7474801 -0.1337744
vn 0.6506751 -0.74748 -0.1337743
vn 0.6506751 -0.74748 -0.1337744
vn 0.1913744 -0.8391701 -0.5090868
vn 0.1913744 -0.8391701 -0.5090868
vn 0.1913744 -0.8391701 -0.5090867
vn -0.4057235 0.3078144 -0.8606037
vn -0.4057236 0.3078144 -0.8606037
vn -0.4057235 0.3078144 -0.8606037
vn 0.1078116 0.9698492 -0.2185616
vn 0.1078116 0.9698492 -0.2185616
vn 0.1078116 0.9698492 -0.2185616
vn 0.07800684 0.9636289 -0.2556056
vn -0.1583557 -0.9758269 -0.1506166
vn -0.1583557 -0.9758269 -0.1506166
vn -0.1583557 -0.9758269 -0.1506166
vn -0.1506165 -0.9758269 -0.1583557
vn 0.1583557 -0.9758269 -0.1506165
vn 0.1583557 -0.9758269 -0.1506165
vn 0.1583557 -0.9758269 -0.1506165
vn 0.1506165 -0.9758269 -0.1583557
vn -0.4436767 -0.881677 -0.1606137
vn -0.4436767 -0.881677 -0.1606137
vn -0.4436767 -0.881677 -0.1606137
vn -0.4342994 -0.8879841 -0.1512231
vn 0.1534238 -0.9754495 0.1579855
vn 0.1534238 -0.9754495 0.1579855
vn 0.1534238 -0.9754495 0.1579855
vn 0.1583557 -0.975827 0.1506156
vn 0.4173857 -0.8959997 -0.1515711
vn 0.4173857 -0.8959997 -0.1515711
vn 0.4173857 -0.8959997 -0.1515711
vn 0.4284829 -0.8915488 -0.1467758
vn 0.4354083 -0.8902508 -0.1336902
vn -0.4025797 0.380028 -0.8327715
vn -0.4025797 0.380028 -0.8327715
vn -0.4025797 0.380028 -0.8327715
vn -0.4025798 0.3800279 -0.8327715
vn -0.3892888 0.420193 -0.8196903
vn -0.1515712 -0.8960001 -0.4173847
vn -0.1515712 -0.8960001 -0.4173848
vn -0.1515712 -0.8960001 -0.4173847
vn -0.1422978 -0.8891736 -0.4348812
vn 0.3706343 0.1383281 0.9184201
vn 0.3706343 0.1383281 0.9184201
vn 0.3706343 0.1383281 0.9184201
vn 0.3706343 0.138327 0.9184203
vn 0.3448331 0.3380295 0.8756861
vn 0.3448332 0.3380294 0.8756861
vn 0.3448331 0.3380295 0.8756861
vn 0.3499383 0.3163129 0.8817536
vn -0.6297853 -0.7682199 0.1149285
vn -0.6297852 -0.7682199 0.1149285
vn -0.6297853 -0.7682199 0.1149285
vn -0.6099135 -0.7809725 0.1344897
vn -0.4354081 -0.890251 0.1336899
vn -0.4354081 -0.890251 0.1336899
vn -0.4354081 -0.890251 0.1336899
vn -0.4173853 -0.896 0.1515705
vn -0.6166413 -0.7758886 -0.1332307
vn -0.6166413 -0.7758886 -0.1332307
vn -0.6166413 -0.7758886 -0.1332307
vn -0.6297853 -0.7682199 -0.1149284
vn 0.4288442 -0.8906114 0.1513405
vn 0.4288442 -0.8906114 0.1513405
vn 0.4288442 -0.8906114 0.1513405
vn 0.4354083 -0.8902509 0.1336899
vn 0.1515712 -0.8960001 -0.4173849
vn 0.1515712 -0.8960001 -0.4173849
vn 0.1515712 -0.8960001 -0.4173849
vn 0.1447065 -0.8888599 -0.4347278
vn 0.6211077 0.3892077 -0.6802518
vn 0.621108 0.3892059 -0.6802525
vn 0.6211081 0.3892058 -0.6802526
vn 0.6211081 0.3892058 -0.6802526
vn 0.6211067 0.3892082 -0.6802524
g SoccerBall_Explode_Thin_00_Hull_0
f 3/3/3 2/2/2 1/1/1
f 6/6/6 5/5/5 4/4/4
f 9/9/9 8/8/8 7/7/7
f 12/12/12 11/11/11 10/10/10
f 15/15/15 14/14/14 13/13/13
f 18/18/18 17/17/17 16/16/16
f 21/21/21 20/20/20 19/19/19
f 24/24/24 23/23/23 22/22/22
f 27/27/27 26/26/26 25/25/25
f 30/30/30 29/29/29 28/28/28
f 33/33/33 32/32/32 31/31/31
f 36/36/36 35/35/35 34/34/34
f 39/39/39 38/38/38 37/37/37
f 42/42/42 41/41/41 40/40/40
f 45/45/45 44/44/44 43/43/43
f 48/48/48 47/47/47 46/46/46
f 51/51/51 50/50/50 49/49/49
f 54/54/54 53/53/53 52/52/52
f 57/57/57 56/56/56 55/55/55
f 60/60/60 59/59/59 58/58/58
f 63/63/63 62/62/62 61/61/61
f 66/66/66 65/65/65 64/64/64
f 69/69/69 68/68/68 67/67/67
f 72/72/72 71/71/71 70/70/70
f 75/75/75 74/74/74 73/73/73
f 78/78/78 77/77/77 76/76/76
f 76/76/76 77/77/77 79/79/79
f 82/82/82 81/81/81 80/80/80
f 82/82/82 80/80/80 83/83/83
f 86/86/86 85/85/85 84/84/84
f 85/85/85 86/86/86 87/87/87
f 90/90/90 89/89/89 88/88/88
f 89/89/89 91/91/91 88/88/88
f 94/94/94 93/93/93 92/92/92
f 93/93/93 95/95/95 92/92/92
f 98/98/98 97/97/97 96/96/96
f 98/98/98 96/96/96 99/99/99
f 100/100/100 98/98/98 99/99/99
f 103/103/103 102/102/102 101/101/101
f 102/102/102 103/103/103 104/104/104
f 105/105/105 102/102/102 104/104/104
f 108/108/108 107/107/107 106/106/106
f 106/106/106 107/107/107 109/109/109
f 112/112/112 111/111/111 110/110/110
f 110/110/110 111/111/111 113/113/113
f 116/116/116 115/115/115 114/114/114
f 116/116/116 114/114/114 117/117/117
f 120/120/120 119/119/119 118/118/118
f 119/119/119 120/120/120 121/121/121
f 124/124/124 123/123/123 122/122/122
f 123/123/123 125/125/125 122/122/122
f 128/128/128 127/127/127 126/126/126
f 127/127/127 129/129/129 126/126/126
f 132/132/132 131/131/131 130/130/130
f 131/131/131 133/133/133 130/130/130
f 136/136/136 135/135/135 134/134/134
f 134/134/134 135/135/135 137/137/137
f 140/140/140 139/139/139 138/138/138
f 140/140/140 141/141/141 139/139/139
f 139/139/139 141/141/141 142/142/142
