g SoccerBall_Explode_Thin_15
v 0.07191772 0.07778234 -0.008668165
v 0.0517015 0.0473501 0.02703691
v 0.07185745 0.1023118 0.05923658
v 0.0714502 0.07669684 -0.008892755
v 0.03624862 0.009044036 0.005182428
v 0.03955185 0.00684185 -0.02398602
v 0.02274719 -0.01626677 -0.03120063
v 0.0102359 -0.0278857 -0.0112408
v -0.02123245 -0.06948139 -0.02883225
v -0.01955917 -0.07115471 -0.04918674
v -0.02687027 -0.0772438 -0.05211221
v -0.02123245 -0.06948139 -0.02883225
v -0.01955917 -0.07115471 -0.04918674
v -0.03982498 -0.08435047 -0.032051
v -0.04120926 -0.09001167 -0.05789435
v -0.06563522 -0.1064857 -0.03762339
v 0.04277435 0.0516296 0.02562556
v 0.06295761 0.08195578 -0.01018428
v 0.06289745 0.1064857 0.05772089
v 0.06250759 0.08092761 -0.01035241
v 0.02770958 0.01407111 0.003835869
v 0.03123062 0.01222132 -0.02533451
v 0.01498232 -0.01009576 -0.03247559
v 0.002503509 -0.02166403 -0.01246591
v -0.02826748 -0.06246891 -0.02998708
v -0.02634287 -0.06389873 -0.05034092
v -0.02826748 -0.06246891 -0.02998708
v -0.03303305 -0.06946417 -0.05333594
v -0.02634287 -0.06389873 -0.05034092
v -0.04603891 -0.07661979 -0.03332513
v -0.04749176 -0.08234821 -0.05923658
v -0.07191772 -0.09882221 -0.03896562
v 0.06250759 0.08092761 -0.01035241
v 0.07191772 0.07778234 -0.008668165
v 0.06295761 0.08195578 -0.01018428
v 0.0714502 0.07669684 -0.008892755
v 0.03123062 0.01222132 -0.02533451
v 0.03955185 0.00684185 -0.02398602
v 0.01498232 -0.01009576 -0.03247559
v 0.02274719 -0.01626677 -0.03120063
v -0.02634287 -0.06389873 -0.05034092
v -0.01955917 -0.07115471 -0.04918674
v 0.07185745 0.1023118 0.05923658
v 0.06295761 0.08195578 -0.01018428
v 0.07191772 0.07778234 -0.008668165
v 0.06289745 0.1064857 0.05772089
v 0.0517015 0.0473501 0.02703691
v 0.06289745 0.1064857 0.05772089
v 0.07185745 0.1023118 0.05923658
v 0.04277435 0.0516296 0.02562556
v 0.03624862 0.009044036 0.005182428
v 0.02770958 0.01407111 0.003835869
v 0.0102359 -0.0278857 -0.0112408
v 0.002503509 -0.02166403 -0.01246591
v -0.02123245 -0.06948139 -0.02883225
v -0.02826748 -0.06246891 -0.02998708
v -0.03982498 -0.08435047 -0.032051
v -0.02826748 -0.06246891 -0.02998708
v -0.02123245 -0.06948139 -0.02883225
v -0.04603891 -0.07661979 -0.03332513
v -0.06563522 -0.1064857 -0.03762339
v -0.07191772 -0.09882221 -0.03896562
v -0.03303305 -0.06946417 -0.05333594
v -0.01955917 -0.07115471 -0.04918674
v -0.02634287 -0.06389873 -0.05034092
v -0.02687027 -0.0772438 -0.05211221
v -0.04749176 -0.08234821 -0.05923658
v -0.04120926 -0.09001167 -0.05789435
v -0.04120926 -0.09001167 -0.05789435
v -0.07191772 -0.09882221 -0.03896562
v -0.06563522 -0.1064857 -0.03762339
v -0.04749176 -0.08234821 -0.05923658
vt 0.1919784 0.744788
vt 0.2078829 0.7592516
vt 0.2204167 0.7337407
vt 0.1919064 0.7452944
vt 0.1982828 0.7770892
vt 0.1853674 0.7779601
vt 0.1834107 0.7904769
vt 0.1929688 0.7970369
vt 0.1849258 0.8199678
vt 0.1752781 0.8207681
vt 0.9906174 0.6188766
vt 0.9940384 0.6304413
vt 0.9946719 0.6206906
vt 0.9837868 0.6278691
vt 0.9825777 0.6164199
vt 0.9693981 0.6255913
vt 0.2078829 0.7592516
vt 0.1919784 0.744788
vt 0.2204167 0.7337407
vt 0.1919064 0.7452944
vt 0.1982828 0.7770892
vt 0.1853674 0.7779601
vt 0.1834107 0.7904769
vt 0.1929688 0.7970369
vt 0.1849258 0.8199678
vt 0.1752781 0.8207681
vt 0.9940384 0.6304413
vt 0.9906174 0.6188766
vt 0.9946719 0.6206906
vt 0.9837868 0.6278691
vt 0.9825777 0.6164199
vt 0.9693981 0.6255913
vt 0.1919064 0.7452944
vt 0.1919784 0.744788
vt 0.1919784 0.744788
vt 0.1919064 0.7452944
vt 0.1853674 0.7779601
vt 0.1853674 0.7779601
vt 0.1834107 0.7904769
vt 0.1834107 0.7904769
vt 0.1752781 0.8207681
vt 0.1752781 0.8207681
vt 0.2204167 0.7337407
vt 0.1919784 0.744788
vt 0.1919784 0.744788
vt 0.2204167 0.7337407
vt 0.2078829 0.7592516
vt 0.2204167 0.7337407
vt 0.2204167 0.7337407
vt 0.2078829 0.7592516
vt 0.1982828 0.7770892
vt 0.1982828 0.7770892
vt 0.1929688 0.7970369
vt 0.1929688 0.7970369
vt 0.1849258 0.8199678
vt 0.1849258 0.8199678
vt 0.9837868 0.6278691
vt 0.9940384 0.6304413
vt 0.9940384 0.6304413
vt 0.9837868 0.6278691
vt 0.9693981 0.6255913
vt 0.9693981 0.6255913
vt 0.9906174 0.6188766
vt 0.9946719 0.6206906
vt 0.9946719 0.6206906
vt 0.9906174 0.6188766
vt 0.9825777 0.6164199
vt 0.9825777 0.6164199
vt 0.9825777 0.6164199
vt 0.9693981 0.6255913
vt 0.9693981 0.6255913
vt 0.9825777 0.6164199
vn 0.8960126 -0.4173434 0.1516112
vn 0.8927147 -0.4279501 0.1411355
vn 0.8960003 -0.417385 0.1515688
vn 0.8942593 -0.4230771 0.145966
vn 0.8539048 -0.502707 0.134656
vn 0.8321229 -0.5379473 0.1348494
vn 0.7764869 -0.6171004 0.1274958
vn 0.773239 -0.6221677 0.1225107
vn 0.703502 -0.701248 0.1154822
vn 0.6783698 -0.7255986 0.1154172
vn 0.6162776 -0.7779632 0.122373
vn 0.703502 -0.701248 0.1154822
vn 0.6783698 -0.7255986 0.1154172
vn 0.6213942 -0.7730688 0.1274129
vn 0.6282508 -0.7663454 0.1342226
vn 0.6282499 -0.7663461 0.1342228
vn -0.8928078 0.4276597 -0.1414266
vn -0.896054 0.4172193 -0.1517076
vn -0.8960115 0.4173638 -0.1515612
vn -0.8943679 0.4226889 -0.1464242
vn -0.8536378 0.5031181 -0.1348133
vn -0.8323562 0.5376573 -0.134565
vn -0.7761583 0.6176276 -0.1269431
vn -0.7732022 0.6222211 -0.1224717
vn -0.70235 0.702401 -0.1154868
vn -0.6769031 0.7270208 -0.115078
vn -0.70235 0.702401 -0.1154868
vn -0.6147299 0.7793776 -0.1211513
vn -0.6769031 0.7270208 -0.115078
vn -0.6205606 0.7738766 -0.1265685
vn -0.6282056 0.7663851 -0.1342068
vn -0.6282391 0.7663591 -0.1341992
vn 0.2064387 0.09519476 -0.9738177
vn 0.2098729 0.1075218 -0.9717985
vn 0.1991879 0.07262592 -0.9772664
vn 0.2122176 0.1121416 -0.9707667
vn 0.2328549 0.1193702 -0.9651577
vn 0.2346019 0.1176464 -0.9649463
vn 0.2520021 0.1215469 -0.9600631
vn 0.253823 0.1191389 -0.9598854
vn 0.2892474 0.1209232 -0.9495859
vn 0.2894131 0.1081717 -0.9510725
vn 0.4440506 0.8428296 -0.3040679
vn 0.4440305 0.84284 -0.3040684
vn 0.4440283 0.8428412 -0.3040684
vn 0.4440528 0.8428285 -0.3040679
vn -0.3192099 -0.3789903 0.8686031
vn -0.3254971 -0.386203 0.8630753
vn -0.3258409 -0.3860956 0.8629937
vn -0.3212743 -0.3784595 0.8680733
vn -0.3126908 -0.2941188 0.9031714
vn -0.3159511 -0.2898765 0.9034083
vn -0.2990651 -0.1916409 0.9347908
vn -0.3027586 -0.1897824 0.9339806
vn -0.2422621 -0.08634866 0.9663607
vn -0.2450182 -0.08197881 0.9660463
vn -0.19579 -7.791194E-05 0.9806458
vn -0.2450182 -0.08197881 0.9660463
vn -0.2422621 -0.08634866 0.9663607
vn -0.1993694 0.001860862 0.9799226
vn -0.2105069 -0.002570882 0.977589
vn -0.2112962 -0.002028626 0.97742
vn 0.3050853 0.1033246 -0.9467031
vn 0.2894131 0.1081717 -0.9510725
vn 0.2892474 0.1209232 -0.9495859
vn 0.3043588 0.09071608 -0.948228
vn 0.3059337 0.08726056 -0.9480454
vn 0.3064554 0.08518146 -0.9480659
vn -0.3725551 -0.4477849 -0.8128292
vn -0.3725551 -0.4477849 -0.8128292
vn -0.3725551 -0.4477849 -0.8128292
vn -0.3725551 -0.4477849 -0.8128292
g SoccerBall_Explode_Thin_15_0
f 3/3/3 2/2/2 1/1/1
f 4/4/4 1/1/1 2/2/2
f 2/2/2 5/5/5 4/4/4
f 6/6/6 4/4/4 5/5/5
f 6/6/6 5/5/5 7/7/7
f 8/8/8 7/7/7 5/5/5
f 8/8/8 9/9/9 7/7/7
f 10/10/10 7/7/7 9/9/9
f 13/13/13 12/12/12 11/11/11
f 14/14/14 11/11/11 12/12/12
f 11/11/11 14/14/14 15/15/15
f 16/16/16 15/15/15 14/14/14
f 19/19/19 18/18/18 17/17/17
f 20/20/20 17/17/17 18/18/18
f 17/17/17 20/20/20 21/21/21
f 22/22/22 21/21/21 20/20/20
f 22/22/22 23/23/23 21/21/21
f 24/24/24 21/21/21 23/23/23
f 24/24/24 23/23/23 25/25/25
f 26/26/26 25/25/25 23/23/23
f 29/29/29 28/28/28 27/27/27
f 30/30/30 27/27/27 28/28/28
f 28/28/28 31/31/31 30/30/30
f 32/32/32 30/30/30 31/31/31
f 35/35/35 34/34/34 33/33/33
f 36/36/36 33/33/33 34/34/34
f 33/33/33 36/36/36 37/37/37
f 38/38/38 37/37/37 36/36/36
f 37/37/37 38/38/38 39/39/39
f 40/40/40 39/39/39 38/38/38
f 39/39/39 40/40/40 41/41/41
f 42/42/42 41/41/41 40/40/40
f 45/45/45 44/44/44 43/43/43
f 46/46/46 43/43/43 44/44/44
f 49/49/49 48/48/48 47/47/47
f 50/50/50 47/47/47 48/48/48
f 47/47/47 50/50/50 51/51/51
f 52/52/52 51/51/51 50/50/50
f 51/51/51 52/52/52 53/53/53
f 54/54/54 53/53/53 52/52/52
f 53/53/53 54/54/54 55/55/55
f 56/56/56 55/55/55 54/54/54
f 59/59/59 58/58/58 57/57/57
f 60/60/60 57/57/57 58/58/58
f 57/57/57 60/60/60 61/61/61
f 62/62/62 61/61/61 60/60/60
f 65/65/65 64/64/64 63/63/63
f 66/66/66 63/63/63 64/64/64
f 63/63/63 66/66/66 67/67/67
f 68/68/68 67/67/67 66/66/66
f 71/71/71 70/70/70 69/69/69
f 72/72/72 69/69/69 70/70/70
