g SoccerBall_Explode_Thin_03
v -0.2270269 0.2626571 0.06464638
v -0.2354286 0.2464292 0.07461753
v -0.2344922 0.2612768 0.06240864
v -0.2316382 0.2439264 0.07848038
v -0.2355915 0.2430288 0.07713401
v -0.2357185 0.2161678 0.09072101
v -0.235492 0.1280687 0.1317986
v -0.09800766 0.2540154 0.09361339
v -0.1220815 0.2680292 0.07852337
v -0.09800766 0.2689759 0.08134884
v -0.09800766 0.1347794 0.1519299
v -0.2346508 0.1133085 0.1343237
v -0.09800766 -0.02333454 0.1775884
v -0.2266795 -0.02333454 0.1567077
v -0.222853 -0.05660315 0.1519299
v 0.03562286 0.2439264 0.07848038
v 0.01789505 0.2553742 0.07220031
v 0.03320236 0.2537586 0.07121857
v 0.1445278 0.2192009 0.04139187
v 0.139083 0.223528 0.04055359
v 0.1432833 0.2224788 0.03952511
v 0.180897 0.2053928 0.0206797
v 0.05274788 0.1274209 0.1298554
v 0.1879633 0.1998052 0.01789776
v 0.1855038 0.2031999 0.01824596
v 0.2057104 0.1422154 0.02953937
v 0.2213795 0.09746316 0.03998146
v 0.1692533 0.1102959 0.07848038
v 0.230758 0.01505126 0.04474003
v 0.2357185 -0.02333453 0.04739635
v 0.06010635 -0.02333454 0.1519299
v 0.1793423 -0.02333453 0.09361339
v 0.2057783 -0.06874803 0.06514717
v 0.2339356 -0.0460243 0.04546345
v 0.1740414 -0.09354571 0.08566227
v 0.137207 -0.1177302 0.1000457
v 0.05286201 -0.1717513 0.1301977
v 0.05123444 -0.1725767 0.1303344
v 0.04773002 -0.174335 0.13059
v -0.09800766 -0.1814486 0.1519299
v -0.05208069 -0.2189609 0.1266862
v -0.09800773 -0.2389638 0.1238001
v -0.2092763 -0.1760175 0.1356372
v -0.1517199 -0.2555806 0.1065259
v -0.2029433 -0.2125666 0.1188401
v -0.1933969 -0.2689759 0.09415146
v -0.2320143 0.2404313 0.06738101
v -0.2247961 0.2565164 0.0570757
v -0.2312046 0.2551557 0.05521671
v -0.2290958 0.2387532 0.07030882
v -0.2318048 0.2381166 0.06928985
v -0.2341009 0.211988 0.0817816
v -0.2339669 0.1251414 0.1223591
v -0.09805912 0.2486524 0.08517326
v -0.1207774 0.261888 0.07073968
v -0.09807132 0.2626362 0.07361555
v -0.09804011 0.1317777 0.1423911
v -0.233127 0.1117425 0.1245653
v -0.09800766 -0.02333454 0.1675884
v -0.2250777 -0.02338197 0.146837
v -0.2212882 -0.05503833 0.1421778
v 0.03300525 0.2387363 0.07034336
v 0.01658915 0.2491281 0.06450088
v 0.03092508 0.2476172 0.06366234
v 0.1397821 0.2144552 0.03397861
v 0.1354071 0.2175263 0.03344957
v 0.1391009 0.2168369 0.0324064
v 0.175308 0.2020646 0.01308456
v 0.04984722 0.1245202 0.1207355
v 0.1823805 0.1965427 0.01026963
v 0.1799209 0.1999374 0.01061789
v 0.199698 0.1385286 0.02245002
v 0.2152387 0.09522888 0.03241184
v 0.1640632 0.1076783 0.07034337
v 0.2245112 0.01374465 0.03704129
v 0.2293788 -0.02341184 0.03966314
v 0.05710466 -0.02336699 0.1423911
v 0.1739793 -0.02338599 0.08517326
v 0.1995721 -0.06750767 0.05740479
v 0.2276378 -0.04487501 0.03778124
v 0.1691116 -0.09220009 0.07706652
v 0.1329303 -0.116316 0.0911176
v 0.0503926 -0.1702294 0.1206277
v 0.04968151 -0.1710398 0.120576
v 0.0462162 -0.1724023 0.120896
v -0.0979752 -0.1784469 0.1423911
v -0.05353041 -0.2147201 0.1177468
v -0.09755916 -0.2345747 0.114826
v -0.2077517 -0.1731877 0.1261679
v -0.1502703 -0.2513005 0.09760521
v -0.2014714 -0.208264 0.1099338
v -0.1920641 -0.2648137 0.08515701
v -0.2247961 0.2565164 0.0570757
v -0.2344922 0.2612768 0.06240864
v -0.2312046 0.2551557 0.05521671
v -0.2270269 0.2626571 0.06464638
v -0.1207774 0.261888 0.07073968
v -0.1220815 0.2680292 0.07852337
v -0.09807132 0.2626362 0.07361555
v -0.09800766 0.2689759 0.08134884
v 0.01658915 0.2491281 0.06450088
v 0.01789505 0.2553742 0.07220031
v 0.03092508 0.2476172 0.06366234
v 0.03320236 0.2537586 0.07121857
v 0.1354071 0.2175263 0.03344957
v 0.139083 0.223528 0.04055359
v 0.1391009 0.2168369 0.0324064
v 0.1432833 0.2224788 0.03952511
v 0.175308 0.2020646 0.01308456
v 0.180897 0.2053928 0.0206797
v 0.1799209 0.1999374 0.01061789
v 0.1855038 0.2031999 0.01824596
v 0.1823805 0.1965427 0.01026963
v 0.1879633 0.1998052 0.01789776
v 0.199698 0.1385286 0.02245002
v 0.2057104 0.1422154 0.02953937
v 0.2152387 0.09522888 0.03241184
v 0.2213795 0.09746316 0.03998146
v 0.2245112 0.01374465 0.03704129
v 0.230758 0.01505126 0.04474003
v 0.2293788 -0.02341184 0.03966314
v 0.2357185 -0.02333453 0.04739635
v 0.2276378 -0.04487501 0.03778124
v 0.2339356 -0.0460243 0.04546345
v -0.2354286 0.2464292 0.07461753
v -0.2312046 0.2551557 0.05521671
v -0.2344922 0.2612768 0.06240864
v -0.2320143 0.2404313 0.06738101
v -0.2355915 0.2430288 0.07713401
v -0.2318048 0.2381166 0.06928985
v -0.2357185 0.2161678 0.09072101
v -0.2341009 0.211988 0.0817816
v -0.235492 0.1280687 0.1317986
v -0.2339669 0.1251414 0.1223591
v -0.2346508 0.1133085 0.1343237
v -0.233127 0.1117425 0.1245653
v -0.2266795 -0.02333454 0.1567077
v -0.2250777 -0.02338197 0.146837
v -0.222853 -0.05660315 0.1519299
v -0.2212882 -0.05503833 0.1421778
v -0.2092763 -0.1760175 0.1356372
v -0.2077517 -0.1731877 0.1261679
v -0.2029433 -0.2125666 0.1188401
v -0.2014714 -0.208264 0.1099338
v -0.1933969 -0.2689759 0.09415146
v -0.1920641 -0.2648137 0.08515701
v -0.1517199 -0.2555806 0.1065259
v -0.1920641 -0.2648137 0.08515701
v -0.1933969 -0.2689759 0.09415146
v -0.1502703 -0.2513005 0.09760521
v -0.09800773 -0.2389638 0.1238001
v -0.09755916 -0.2345747 0.114826
v -0.05208069 -0.2189609 0.1266862
v -0.05353041 -0.2147201 0.1177468
v 0.04773002 -0.174335 0.13059
v 0.0462162 -0.1724023 0.120896
v 0.05123444 -0.1725767 0.1303344
v 0.04968151 -0.1710398 0.120576
v 0.05286201 -0.1717513 0.1301977
v 0.0503926 -0.1702294 0.1206277
v 0.137207 -0.1177302 0.1000457
v 0.1329303 -0.116316 0.0911176
v 0.1740414 -0.09354571 0.08566227
v 0.1691116 -0.09220009 0.07706652
v 0.2057783 -0.06874803 0.06514717
v 0.1995721 -0.06750767 0.05740479
v 0.2339356 -0.0460243 0.04546345
v 0.2276378 -0.04487501 0.03778124
vt 0.6338819 0.2794857
vt 0.6252239 0.2825326
vt 0.6333692 0.2830929
vt 0.62372 0.28048
vt 0.6234071 0.2823302
vt 0.6107539 0.2815617
vt 0.5695403 0.2793728
vt 0.62793 0.22133
vt 0.635798 0.2328876
vt 0.6362148 0.2214714
vt 0.57203 0.22087
vt 0.5633332 0.2789727
vt 0.50556 0.22042
vt 0.5051938 0.2745046
vt 0.4912167 0.2728015
vt 0.62485 0.16199
vt 0.6308569 0.1699577
vt 0.6302111 0.1626437
vt 0.61689 0.1106
vt 0.6190142 0.1130066
vt 0.6186086 0.1109517
vt 0.6132467 0.09147991
vt 0.57022 0.1566399
vt 0.6110538 0.08785538
vt 0.6125584 0.08907185
vt 0.5832778 0.08010751
vt 0.5625411 0.07348023
vt 0.56562 0.10195
vt 0.5232472 0.06909949
vt 0.506209 0.0668426
vt 0.50605 0.15395
vt 0.50632 0.09806996
vt 0.4847194 0.08293846
vt 0.4954463 0.06758617
vt 0.4752156 0.09986689
vt 0.4644223 0.1168927
vt 0.4428263 0.1558304
vt 0.4424698 0.1565081
vt 0.4417385 0.1579939
vt 0.43908 0.21997
vt 0.4213217 0.1994897
vt 0.4121206 0.2197529
vt 0.4404307 0.2673691
vt 0.4037549 0.2425611
vt 0.4233669 0.2645345
vt 0.3969319 0.2613948
vt 0.6252239 0.2825326
vt 0.6338819 0.2794857
vt 0.6333692 0.2830929
vt 0.62372 0.28048
vt 0.6234071 0.2823302
vt 0.6107539 0.2815617
vt 0.5695403 0.2793728
vt 0.62793 0.22133
vt 0.635798 0.2328876
vt 0.6362148 0.2214714
vt 0.57203 0.22087
vt 0.5633332 0.2789727
vt 0.50556 0.22042
vt 0.5051938 0.2745046
vt 0.4912167 0.2728015
vt 0.62485 0.16199
vt 0.6308569 0.1699577
vt 0.6302111 0.1626437
vt 0.61689 0.1106
vt 0.6190142 0.1130066
vt 0.6186086 0.1109517
vt 0.6132467 0.09147991
vt 0.57022 0.1566399
vt 0.6110538 0.08785538
vt 0.6125584 0.08907185
vt 0.5832778 0.08010751
vt 0.5625411 0.07348023
vt 0.56562 0.10195
vt 0.5232472 0.06909949
vt 0.506209 0.0668426
vt 0.50605 0.15395
vt 0.50632 0.09806996
vt 0.4847194 0.08293846
vt 0.4954463 0.06758617
vt 0.4752156 0.09986689
vt 0.4644223 0.1168927
vt 0.4428263 0.1558304
vt 0.4424698 0.1565081
vt 0.4417385 0.1579939
vt 0.43908 0.21997
vt 0.4213217 0.1994897
vt 0.4121206 0.2197529
vt 0.4404307 0.2673691
vt 0.4037549 0.2425611
vt 0.4233669 0.2645345
vt 0.3969319 0.2613948
vt 0.6338819 0.2794857
vt 0.6333692 0.2830929
vt 0.6333692 0.2830929
vt 0.6338819 0.2794857
vt 0.635798 0.2328876
vt 0.635798 0.2328876
vt 0.6362148 0.2214714
vt 0.6362148 0.2214714
vt 0.6308569 0.1699577
vt 0.6308569 0.1699577
vt 0.6302111 0.1626437
vt 0.6302111 0.1626437
vt 0.6190142 0.1130066
vt 0.6190142 0.1130066
vt 0.6186086 0.1109517
vt 0.6186086 0.1109517
vt 0.6132467 0.09147991
vt 0.6132467 0.09147991
vt 0.6125584 0.08907185
vt 0.6125584 0.08907185
vt 0.6110538 0.08785538
vt 0.6110538 0.08785538
vt 0.5832778 0.08010751
vt 0.5832778 0.08010751
vt 0.5625411 0.07348023
vt 0.5625411 0.07348023
vt 0.5232472 0.06909949
vt 0.5232472 0.06909949
vt 0.506209 0.0668426
vt 0.506209 0.0668426
vt 0.4954463 0.06758617
vt 0.4954463 0.06758617
vt 0.6252239 0.2825326
vt 0.6333692 0.2830929
vt 0.6333692 0.2830929
vt 0.6252239 0.2825326
vt 0.6234071 0.2823302
vt 0.6234071 0.2823302
vt 0.6107539 0.2815617
vt 0.6107539 0.2815617
vt 0.5695403 0.2793728
vt 0.5695403 0.2793728
vt 0.5633332 0.2789727
vt 0.5633332 0.2789727
vt 0.5051938 0.2745046
vt 0.5051938 0.2745046
vt 0.4912167 0.2728015
vt 0.4912167 0.2728015
vt 0.4404307 0.2673691
vt 0.4404307 0.2673691
vt 0.4233669 0.2645345
vt 0.4233669 0.2645345
vt 0.3969319 0.2613948
vt 0.3969319 0.2613948
vt 0.4037549 0.2425611
vt 0.3969319 0.2613948
vt 0.3969319 0.2613948
vt 0.4037549 0.2425611
vt 0.4121206 0.2197529
vt 0.4121206 0.2197529
vt 0.4213217 0.1994897
vt 0.4213217 0.1994897
vt 0.4417385 0.1579939
vt 0.4417385 0.1579939
vt 0.4424698 0.1565081
vt 0.4424698 0.1565081
vt 0.4428263 0.1558304
vt 0.4428263 0.1558304
vt 0.4644223 0.1168927
vt 0.4644223 0.1168927
vt 0.4752156 0.09986689
vt 0.4752156 0.09986689
vt 0.4847194 0.08293846
vt 0.4847194 0.08293846
vt 0.4954463 0.06758617
vt 0.4954463 0.06758617
vn -0.2230843 0.6140701 0.7570676
vn -0.3414352 0.5997904 0.7236529
vn -0.3287575 0.6121123 0.7191919
vn -0.2542354 0.5173207 0.8171559
vn -0.3786708 0.4912217 0.7844168
vn -0.1617572 0.4179759 0.8939412
vn -0.1525077 0.2927253 0.9439563
vn 0.005146447 0.5362973 0.8440135
vn -0.1304142 0.6141121 0.7783691
vn 0.00636629 0.6339729 0.773329
vn 0.003245764 0.3001697 0.9538803
vn -0.1523804 0.1565943 0.9758373
vn 1.940643E-07 -1.409129E-07 1
vn -0.1601811 0.004743079 0.9870763
vn -0.1564824 -0.1564825 0.9752059
vn 0.2617612 0.5190095 0.8137015
vn 0.13059 0.6246067 0.7699434
vn 0.2277283 0.6141445 0.7556232
vn 0.4745717 0.4745711 0.7413258
vn 0.3675965 0.6001681 0.7104021
vn 0.4182386 0.5641952 0.7118709
vn 0.5589013 0.3328165 0.7595147
vn 0.2900659 0.2900658 0.9119889
vn 0.5582843 0.3262448 0.7628126
vn 0.5582868 0.3262524 0.7628074
vn 0.6012394 0.3686763 0.7089351
vn 0.6140754 0.2234282 0.7569618
vn 0.51901 0.2617615 0.8137012
vn 0.6246774 0.130661 0.7698739
vn 0.633967 0.00773095 0.7733215
vn 0.3001697 0.003245451 0.9538803
vn 0.5362972 0.005146316 0.8440134
vn 0.6206208 -0.1240358 0.7742383
vn 0.6297841 -0.1149285 0.768221
vn 0.4929738 -0.1345626 0.8595753
vn 0.4276658 -0.1414185 0.8928061
vn 0.246941 -0.1521846 0.9570057
vn 0.1552918 -0.1536837 0.9758411
vn 0.1513826 -0.1932676 0.9693972
vn -0.00324557 -0.3001696 0.9538804
vn 0.1449724 -0.4240814 0.8939453
vn -0.04485713 -0.4389099 0.8974106
vn -0.1524682 -0.2829785 0.9469302
vn -0.1449633 -0.4280148 0.89207
vn -0.1471899 -0.4302533 0.8906274
vn -0.1332825 -0.4162157 0.8994444
vn 0.3655819 -0.5999206 -0.7116496
vn 0.227658 -0.6155336 -0.7545131
vn 0.3374746 -0.6104984 -0.7165211
vn 0.2671559 -0.5194153 -0.8116868
vn 0.4054065 -0.4932154 -0.769665
vn 0.1897153 -0.4165792 -0.8890837
vn 0.1537718 -0.2893892 -0.9447795
vn -0.004771159 -0.5384219 -0.8426619
vn 0.1304591 -0.6198822 -0.7737741
vn -0.004437018 -0.6372916 -0.77061
vn -0.002779507 -0.300229 -0.9538631
vn 0.1534311 -0.1534224 -0.9761764
vn 0.0005354923 0.000226981 -0.9999999
vn 0.1611722 -0.003339612 -0.9869206
vn 0.1577498 0.1582766 -0.9747121
vn -0.2609535 -0.5218623 -0.8121349
vn -0.1309343 -0.6349159 -0.7614053
vn -0.2262294 -0.6191651 -0.7519673
vn -0.4691745 -0.4810384 -0.7405925
vn -0.3680993 -0.6404848 -0.6740046
vn -0.4246106 -0.5802334 -0.6950073
vn -0.561676 -0.3378873 -0.7552168
vn -0.2902524 -0.2902524 -0.9118701
vn -0.5606098 -0.3276797 -0.7604885
vn -0.5583356 -0.3262917 -0.7627549
vn -0.6063121 -0.3717158 -0.7030028
vn -0.6154884 -0.2233009 -0.755851
vn -0.5195633 -0.2617064 -0.8133658
vn -0.6283047 -0.1325472 -0.7665927
vn -0.6354907 -0.006586139 -0.7720805
vn -0.3004313 -0.00266408 -0.9537997
vn -0.5369188 -0.004302894 -0.843623
vn -0.6220826 0.1257576 -0.772786
vn -0.6313556 0.1184114 -0.7663999
vn -0.4937154 0.1361084 -0.8589061
vn -0.428581 0.1426192 -0.8921761
vn -0.1965041 0.1525123 -0.968569
vn -0.1409281 0.1543512 -0.9779136
vn -0.1527153 0.192004 -0.9694393
vn 0.003330708 0.30112 -0.9535804
vn -0.145984 0.4273208 -0.8922362
vn 0.04415657 0.4404409 -0.896695
vn 0.1537886 0.2836433 -0.9465176
vn 0.1453853 0.4291833 -0.8914397
vn 0.1497793 0.432848 -0.8889368
vn 0.1333044 0.4162518 -0.8994244
vn 0.03620414 0.7775093 -0.6278285
vn 0.03479068 0.7761591 -0.6295766
vn 0.02339082 0.7665657 -0.6417398
vn 0.04157407 0.7821153 -0.6217453
vn 0.04635077 0.7878187 -0.6141605
vn 0.04530448 0.7859582 -0.6166175
vn 0.04324474 0.7744198 -0.6311924
vn 0.04231825 0.7724821 -0.633625
vn 0.04246644 0.772356 -0.6337687
vn 0.04171661 0.7718291 -0.6344602
vn 0.03961533 0.7701488 -0.6366329
vn 0.03861415 0.7692547 -0.6377743
vn -0.003339015 0.7651834 -0.6438037
vn 0.02370722 0.764818 -0.6438102
vn -0.01253777 0.7796023 -0.6261494
vn 0.02668401 0.7862101 -0.617383
vn 0.1337871 0.8591208 -0.493976
vn 0.1491793 0.8621051 -0.484273
vn 0.3847679 0.7106876 -0.5889624
vn 0.3894255 0.7088076 -0.5881664
vn 0.7014701 0.3053336 -0.6439807
vn 0.6991336 0.3045981 -0.6468635
vn 0.7353755 0.0996694 -0.6702901
vn 0.7346132 0.09928929 -0.6711819
vn 0.7603334 0.08244546 -0.6442794
vn 0.7621495 0.08191016 -0.6421985
vn 0.7708191 0.05365537 -0.6347905
vn 0.771041 0.0536175 -0.6345241
vn 0.7729001 0.02443791 -0.634057
vn 0.7729201 0.02442423 -0.6340331
vn 0.7729752 -0.006793294 -0.6343999
vn 0.772839 -0.006667618 -0.6345671
vn -0.9394695 -0.1789648 -0.2921791
vn -0.9419546 -0.1775538 -0.2849492
vn -0.9431599 -0.1735636 -0.2834169
vn -0.9332271 -0.2266632 -0.2787673
vn -0.9308678 -0.1834451 -0.3159639
vn -0.9335989 -0.2169182 -0.285201
vn -0.9823049 -0.05289295 -0.1796648
vn -0.9861747 -0.03433399 -0.1621134
vn -0.9878413 -0.07306016 -0.1372288
vn -0.9876654 -0.07398616 -0.1379967
vn -0.9868212 -0.08170177 -0.1396735
vn -0.9865067 -0.08290566 -0.1411781
vn -0.98345 -0.08740985 -0.1586998
vn -0.9831644 -0.08770829 -0.1602968
vn -0.981221 -0.08993232 -0.1706391
vn -0.9809366 -0.09008595 -0.1721859
vn -0.9792827 -0.0864161 -0.1831332
vn -0.9790033 -0.08610933 -0.1847641
vn -0.9767798 -0.08026159 -0.1986437
vn -0.9766662 -0.08021182 -0.1992217
vn -0.9793019 -0.08215808 -0.1849809
vn -0.9795647 -0.08260889 -0.1833812
vn 0.3790878 -0.8570367 -0.3489707
vn 0.3784389 -0.8597229 -0.3430169
vn 0.3780598 -0.8602685 -0.3420655
vn 0.3800314 -0.8555719 -0.3515292
vn 0.3891804 -0.8361372 -0.3865399
vn 0.3901877 -0.8330349 -0.3921817
vn 0.3858922 -0.8096719 -0.4421749
vn 0.3865734 -0.8104938 -0.440069
vn 0.4041336 -0.8811243 -0.2455523
vn 0.3740224 -0.8999881 -0.2238943
vn 0.416248 -0.8825117 -0.2188855
vn 0.5327916 -0.809903 -0.2453373
vn 0.4541609 -0.8599238 -0.2329566
vn 0.5989822 -0.7514107 -0.2767712
vn 0.4255254 -0.8410617 -0.333981
vn 0.4240044 -0.8399549 -0.3386682
vn 0.4138004 -0.833941 -0.365119
vn 0.4109901 -0.8322701 -0.3720397
vn 0.3765266 -0.8223287 -0.4266184
vn 0.374153 -0.8209761 -0.431286
vn 0.3685125 -0.8262554 -0.4260285
vn 0.3686239 -0.8263154 -0.4258159
g SoccerBall_Explode_Thin_03_0
f 3/3/3 2/2/2 1/1/1
f 4/4/4 1/1/1 2/2/2
f 4/4/4 2/2/2 5/5/5
f 5/5/5 6/6/6 4/4/4
f 6/6/6 7/7/7 4/4/4
f 4/4/4 8/8/8 1/1/1
f 9/9/9 1/1/1 8/8/8
f 10/10/10 9/9/9 8/8/8
f 11/11/11 4/4/4 7/7/7
f 8/8/8 4/4/4 11/11/11
f 7/7/7 12/12/12 11/11/11
f 13/13/13 11/11/11 12/12/12
f 13/13/13 12/12/12 14/14/14
f 14/14/14 15/15/15 13/13/13
f 8/8/8 16/16/16 10/10/10
f 17/17/17 10/10/10 16/16/16
f 18/18/18 17/17/17 16/16/16
f 16/16/16 19/19/19 18/18/18
f 20/20/20 18/18/18 19/19/19
f 19/19/19 21/21/21 20/20/20
f 19/19/19 22/22/22 21/21/21
f 11/11/11 23/23/23 8/8/8
f 16/16/16 8/8/8 23/23/23
f 22/22/22 19/19/19 24/24/24
f 25/25/25 22/22/22 24/24/24
f 19/19/19 26/26/26 24/24/24
f 26/26/26 19/19/19 27/27/27
f 19/19/19 16/16/16 28/28/28
f 28/28/28 27/27/27 19/19/19
f 23/23/23 28/28/28 16/16/16
f 28/28/28 29/29/29 27/27/27
f 29/29/29 28/28/28 30/30/30
f 23/23/23 11/11/11 31/31/31
f 13/13/13 31/31/31 11/11/11
f 28/28/28 23/23/23 32/32/32
f 32/32/32 30/30/30 28/28/28
f 31/31/31 32/32/32 23/23/23
f 32/32/32 33/33/33 30/30/30
f 34/34/34 30/30/30 33/33/33
f 35/35/35 33/33/33 32/32/32
f 35/35/35 32/32/32 36/36/36
f 31/31/31 36/36/36 32/32/32
f 37/37/37 36/36/36 31/31/31
f 37/37/37 31/31/31 38/38/38
f 13/13/13 38/38/38 31/31/31
f 38/38/38 13/13/13 39/39/39
f 40/40/40 39/39/39 13/13/13
f 40/40/40 13/13/13 15/15/15
f 40/40/40 41/41/41 39/39/39
f 42/42/42 41/41/41 40/40/40
f 40/40/40 15/15/15 43/43/43
f 42/42/42 40/40/40 43/43/43
f 44/44/44 42/42/42 43/43/43
f 45/45/45 44/44/44 43/43/43
f 45/45/45 46/46/46 44/44/44
f 49/49/49 48/48/48 47/47/47
f 50/50/50 47/47/47 48/48/48
f 50/50/50 51/51/51 47/47/47
f 51/51/51 50/50/50 52/52/52
f 52/52/52 50/50/50 53/53/53
f 50/50/50 48/48/48 54/54/54
f 55/55/55 54/54/54 48/48/48
f 56/56/56 54/54/54 55/55/55
f 57/57/57 53/53/53 50/50/50
f 54/54/54 57/57/57 50/50/50
f 53/53/53 57/57/57 58/58/58
f 59/59/59 58/58/58 57/57/57
f 59/59/59 60/60/60 58/58/58
f 60/60/60 59/59/59 61/61/61
f 54/54/54 56/56/56 62/62/62
f 63/63/63 62/62/62 56/56/56
f 64/64/64 62/62/62 63/63/63
f 62/62/62 64/64/64 65/65/65
f 66/66/66 65/65/65 64/64/64
f 65/65/65 66/66/66 67/67/67
f 65/65/65 67/67/67 68/68/68
f 57/57/57 54/54/54 69/69/69
f 62/62/62 69/69/69 54/54/54
f 68/68/68 70/70/70 65/65/65
f 71/71/71 70/70/70 68/68/68
f 65/65/65 70/70/70 72/72/72
f 72/72/72 73/73/73 65/65/65
f 65/65/65 74/74/74 62/62/62
f 74/74/74 65/65/65 73/73/73
f 69/69/69 62/62/62 74/74/74
f 74/74/74 73/73/73 75/75/75
f 75/75/75 76/76/76 74/74/74
f 69/69/69 77/77/77 57/57/57
f 59/59/59 57/57/57 77/77/77
f 74/74/74 78/78/78 69/69/69
f 78/78/78 74/74/74 76/76/76
f 77/77/77 69/69/69 78/78/78
f 78/78/78 76/76/76 79/79/79
f 80/80/80 79/79/79 76/76/76
f 81/81/81 78/78/78 79/79/79
f 81/81/81 82/82/82 78/78/78
f 77/77/77 78/78/78 82/82/82
f 83/83/83 77/77/77 82/82/82
f 83/83/83 84/84/84 77/77/77
f 59/59/59 77/77/77 84/84/84
f 84/84/84 85/85/85 59/59/59
f 86/86/86 59/59/59 85/85/85
f 86/86/86 85/85/85 87/87/87
f 86/86/86 61/61/61 59/59/59
f 88/88/88 86/86/86 87/87/87
f 86/86/86 89/89/89 61/61/61
f 88/88/88 89/89/89 86/86/86
f 90/90/90 89/89/89 88/88/88
f 91/91/91 89/89/89 90/90/90
f 91/91/91 90/90/90 92/92/92
f 95/95/95 94/94/94 93/93/93
f 96/96/96 93/93/93 94/94/94
f 93/93/93 96/96/96 97/97/97
f 98/98/98 97/97/97 96/96/96
f 97/97/97 98/98/98 99/99/99
f 100/100/100 99/99/99 98/98/98
f 99/99/99 100/100/100 101/101/101
f 102/102/102 101/101/101 100/100/100
f 101/101/101 102/102/102 103/103/103
f 104/104/104 103/103/103 102/102/102
f 103/103/103 104/104/104 105/105/105
f 106/106/106 105/105/105 104/104/104
f 105/105/105 106/106/106 107/107/107
f 108/108/108 107/107/107 106/106/106
f 107/107/107 108/108/108 109/109/109
f 110/110/110 109/109/109 108/108/108
f 109/109/109 110/110/110 111/111/111
f 112/112/112 111/111/111 110/110/110
f 111/111/111 112/112/112 113/113/113
f 114/114/114 113/113/113 112/112/112
f 113/113/113 114/114/114 115/115/115
f 116/116/116 115/115/115 114/114/114
f 115/115/115 116/116/116 117/117/117
f 118/118/118 117/117/117 116/116/116
f 117/117/117 118/118/118 119/119/119
f 120/120/120 119/119/119 118/118/118
f 119/119/119 120/120/120 121/121/121
f 122/122/122 121/121/121 120/120/120
f 121/121/121 122/122/122 123/123/123
f 124/124/124 123/123/123 122/122/122
f 127/127/127 126/126/126 125/125/125
f 128/128/128 125/125/125 126/126/126
f 125/125/125 128/128/128 129/129/129
f 130/130/130 129/129/129 128/128/128
f 129/129/129 130/130/130 131/131/131
f 132/132/132 131/131/131 130/130/130
f 131/131/131 132/132/132 133/133/133
f 134/134/134 133/133/133 132/132/132
f 133/133/133 134/134/134 135/135/135
f 136/136/136 135/135/135 134/134/134
f 135/135/135 136/136/136 137/137/137
f 138/138/138 137/137/137 136/136/136
f 137/137/137 138/138/138 139/139/139
f 140/140/140 139/139/139 138/138/138
f 139/139/139 140/140/140 141/141/141
f 142/142/142 141/141/141 140/140/140
f 141/141/141 142/142/142 143/143/143
f 144/144/144 143/143/143 142/142/142
f 143/143/143 144/144/144 145/145/145
f 146/146/146 145/145/145 144/144/144
f 149/149/149 148/148/148 147/147/147
f 150/150/150 147/147/147 148/148/148
f 147/147/147 150/150/150 151/151/151
f 152/152/152 151/151/151 150/150/150
f 151/151/151 152/152/152 153/153/153
f 154/154/154 153/153/153 152/152/152
f 153/153/153 154/154/154 155/155/155
f 156/156/156 155/155/155 154/154/154
f 155/155/155 156/156/156 157/157/157
f 158/158/158 157/157/157 156/156/156
f 157/157/157 158/158/158 159/159/159
f 160/160/160 159/159/159 158/158/158
f 159/159/159 160/160/160 161/161/161
f 162/162/162 161/161/161 160/160/160
f 161/161/161 162/162/162 163/163/163
f 164/164/164 163/163/163 162/162/162
f 163/163/163 164/164/164 165/165/165
f 166/166/166 165/165/165 164/164/164
f 165/165/165 166/166/166 167/167/167
f 168/168/168 167/167/167 166/166/166
