g SoccerBall_Explode_Thin_16_Hull
v 0.1053636 0.292293 0.09615944
v -0.0004752314 0.3139698 0.02015003
v -0.1239949 -0.2796804 -0.1453309
v 0.1445151 -0.2278227 0.1261082
v -0.1239949 -0.2796804 -0.1453309
v -0.02422082 -0.3172664 -0.01875714
v 0.1445151 -0.2278227 0.1261082
v 0.1053636 0.292293 0.09615944
v -0.1239949 -0.2796804 -0.1453309
v -0.1745074 -0.1239774 -0.04167948
v -0.1655137 0.01372432 0.01052775
v -0.1056227 -0.1010161 0.06264481
v -0.0388303 0.01372435 0.1345667
v -0.1056227 -0.1010161 0.06264481
v -0.1655137 0.01372432 0.01052775
v 0.1272981 -0.1390019 0.1766024
v 0.08780004 -0.1370739 0.1708188
v 0.10989 0.01372434 0.1976789
v -0.004005902 0.2563285 0.08233037
v 0.08780004 0.1645225 0.1708189
v -0.0287384 0.1473926 0.1194294
v -0.004005902 0.2563285 0.08233037
v -0.0287384 0.1473926 0.1194294
v -0.0827708 0.2210021 0.03979303
v -0.1253083 -0.2288798 -0.03897196
v -0.1745074 -0.1239774 -0.04167948
v -0.1056227 -0.1010161 0.06264481
v -0.004005902 -0.2288799 0.08233037
v 0.08780004 -0.1370739 0.1708188
v 0.1062579 -0.2590068 0.1154451
v -0.1498013 -0.2452084 -0.1108923
v -0.1745074 -0.1239774 -0.04167948
v -0.1253083 -0.2288798 -0.03897196
v -0.08544522 -0.3103191 -0.08512802
v -0.1498013 -0.2452084 -0.1108923
v -0.1253083 -0.2288798 -0.03897196
v -0.08544522 -0.3103191 -0.08512802
v -0.02422082 -0.3172664 -0.01875714
v -0.1239949 -0.2796804 -0.1453309
v -0.08544522 -0.3103191 -0.08512802
v -0.0501585 -0.2750324 0.00718061
v -0.02422082 -0.3172664 -0.01875714
v -0.08544522 -0.3103191 -0.08512802
v -0.1253083 -0.2288798 -0.03897196
v -0.0501585 -0.2750324 0.00718061
v -0.1056227 0.1284648 0.06264481
v -0.0388303 0.01372435 0.1345667
v -0.1655137 0.01372432 0.01052775
v -0.1056227 0.1284648 0.06264481
v -0.0287384 0.1473926 0.1194294
v -0.0388303 0.01372435 0.1345667
v -0.1056227 0.1284648 0.06264481
v -0.0827708 0.2210021 0.03979303
v -0.0287384 0.1473926 0.1194294
v 0.01905078 0.3170575 0.04774549
v -0.0004752314 0.3139698 0.02015003
v 0.1053636 0.292293 0.09615944
v 0.1009755 0.2801632 0.1180826
v 0.01905078 0.3170575 0.04774549
v 0.1053636 0.292293 0.09615944
v 0.1009755 0.2801632 0.1180826
v -0.004005902 0.2563285 0.08233037
v 0.01905078 0.3170575 0.04774549
v 0.1009755 0.2801632 0.1180826
v 0.08780004 0.1645225 0.1708189
v -0.004005902 0.2563285 0.08233037
v -0.0287384 -0.1199441 0.1194293
v -0.004005902 -0.2288799 0.08233037
v -0.1056227 -0.1010161 0.06264481
v -0.0287384 -0.1199441 0.1194293
v 0.08780004 -0.1370739 0.1708188
v -0.004005902 -0.2288799 0.08233037
v -0.0287384 -0.1199441 0.1194293
v -0.1056227 -0.1010161 0.06264481
v -0.0388303 0.01372435 0.1345667
v 0.02479719 -0.3047443 0.03912581
v -0.004005902 -0.2288799 0.08233037
v 0.1062579 -0.2590068 0.1154451
v 0.02479719 -0.3047443 0.03912581
v -0.02422082 -0.3172664 -0.01875714
v -0.0501585 -0.2750324 0.00718061
v 0.02479719 -0.3047443 0.03912581
v -0.0501585 -0.2750324 0.00718061
v -0.004005902 -0.2288799 0.08233037
v 0.02479719 -0.3047443 0.03912581
v 0.1445151 -0.2278227 0.1261082
v -0.02422082 -0.3172664 -0.01875714
v 0.101075 0.1651704 0.1727627
v 0.10989 0.01372434 0.1976789
v 0.08780004 0.1645225 0.1708189
v 0.101075 0.1651704 0.1727627
v 0.08780004 0.1645225 0.1708189
v 0.1009755 0.2801632 0.1180826
v 0.101075 0.1651704 0.1727627
v 0.1009755 0.2801632 0.1180826
v 0.1053636 0.292293 0.09615944
v -0.1264316 0.135401 0.03447023
v -0.1056227 0.1284648 0.06264481
v -0.1655137 0.01372432 0.01052775
v -0.1264316 0.135401 0.03447023
v -0.0827708 0.2210021 0.03979303
v -0.1056227 0.1284648 0.06264481
v -0.1309835 -0.2857682 -0.1415687
v -0.1239949 -0.2796804 -0.1453309
v -0.1498013 -0.2452084 -0.1108923
v -0.1309835 -0.2857682 -0.1415687
v -0.08544522 -0.3103191 -0.08512802
v -0.1239949 -0.2796804 -0.1453309
v -0.1309835 -0.2857682 -0.1415687
v -0.1498013 -0.2452084 -0.1108923
v -0.08544522 -0.3103191 -0.08512802
v -0.005504206 0.319611 0.02670307
v -0.004005902 0.2563285 0.08233037
v -0.0827708 0.2210021 0.03979303
v -0.005504206 0.319611 0.02670307
v 0.01905078 0.3170575 0.04774549
v -0.004005902 0.2563285 0.08233037
v -0.005504206 0.319611 0.02670307
v -0.0004752314 0.3139698 0.02015003
v 0.01905078 0.3170575 0.04774549
v -0.0388303 0.01372435 0.1345667
v 0.10989 0.01372434 0.1976789
v 0.08780004 -0.1370739 0.1708188
v -0.0287384 -0.1199441 0.1194293
v -0.0388303 0.01372435 0.1345667
v 0.08780004 0.1645225 0.1708189
v 0.10989 0.01372434 0.1976789
v -0.0287384 0.1473926 0.1194294
v -0.1253083 -0.2288798 -0.03897196
v -0.1056227 -0.1010161 0.06264481
v -0.0501585 -0.2750324 0.00718061
v -0.004005902 -0.2288799 0.08233037
v -0.1498013 -0.2452084 -0.1108923
v -0.1239949 -0.2796804 -0.1453309
v -0.1745074 -0.1239774 -0.04167948
v -0.1655137 0.01372432 0.01052775
v -0.1264316 0.135401 0.03447023
v -0.0004752314 0.3139698 0.02015003
v -0.0827708 0.2210021 0.03979303
v -0.005504206 0.319611 0.02670307
v 0.02479719 -0.3047443 0.03912581
v 0.1062579 -0.2590068 0.1154451
v 0.1445151 -0.2278227 0.1261082
v 0.1431819 -0.231986 0.1351052
v 0.101075 0.1651704 0.1727627
v 0.1053636 0.292293 0.09615944
v 0.10989 0.01372434 0.1976789
v 0.1272981 -0.1390019 0.1766024
v 0.1431819 -0.231986 0.1351052
v 0.1445151 -0.2278227 0.1261082
v 0.1431819 -0.231986 0.1351052
v 0.1062579 -0.2590068 0.1154451
v 0.08780004 -0.1370739 0.1708188
v 0.1272981 -0.1390019 0.1766024
vn 0.5937563 0.09904844 -0.7985254
vn 0.5937563 0.09904846 -0.7985255
vn 0.5937563 0.09904844 -0.7985255
vn 0.7073475 -0.291262 -0.6440698
vn 0.7073475 -0.2912621 -0.6440699
vn 0.7073475 -0.2912621 -0.6440699
vn 0.7096443 0.01285577 -0.7044429
vn 0.7096443 0.01285577 -0.7044429
vn 0.7096443 0.01285577 -0.7044429
vn -0.8065066 -0.1628111 0.5683656
vn -0.8065066 -0.1628111 0.5683656
vn -0.8065068 -0.1628111 0.5683656
vn -0.699033 -0.04059232 0.7139364
vn -0.699033 -0.04059232 0.7139364
vn -0.699033 -0.04059232 0.7139364
vn -0.1504572 -0.1519591 0.976868
vn -0.1504572 -0.1519591 0.976868
vn -0.1504572 -0.1519591 0.976868
vn -0.4195615 0.3765388 0.8259459
vn -0.4195615 0.3765389 0.8259459
vn -0.4195615 0.3765388 0.8259459
vn -0.5654382 0.3780251 0.7330598
vn -0.5654382 0.3780251 0.7330598
vn -0.5654382 0.3780251 0.7330598
vn -0.7498778 -0.336998 0.5693115
vn -0.7498778 -0.336998 0.5693115
vn -0.7498778 -0.3369979 0.5693115
vn -0.3654441 -0.4301891 0.8254622
vn -0.3654441 -0.4301892 0.8254622
vn -0.3654441 -0.4301891 0.8254622
vn -0.8430933 -0.3857388 0.3746989
vn -0.8430933 -0.3857388 0.3746989
vn -0.8430933 -0.3857388 0.3746989
vn -0.7288869 -0.5709239 0.377849
vn -0.7288868 -0.5709239 0.377849
vn -0.7288869 -0.5709239 0.377849
vn 0.6352421 -0.443339 -0.6323906
vn 0.6352421 -0.443339 -0.6323906
vn 0.6352422 -0.443339 -0.6323906
vn -0.58917 -0.6535952 0.4750706
vn -0.58917 -0.6535952 0.4750705
vn -0.58917 -0.6535952 0.4750706
vn -0.6535947 -0.5891706 0.4750705
vn -0.6535947 -0.5891706 0.4750705
vn -0.6535947 -0.5891706 0.4750705
vn -0.6990331 0.04059232 0.7139364
vn -0.6990331 0.04059232 0.7139364
vn -0.699033 0.04059232 0.7139364
vn -0.6099137 0.1344897 0.7809723
vn -0.6099137 0.1344897 0.7809722
vn -0.6099137 0.1344897 0.7809722
vn -0.6121111 0.3287612 0.7191913
vn -0.6121112 0.3287612 0.7191913
vn -0.6121111 0.3287612 0.7191913
vn 0.4571104 0.7884081 -0.4116585
vn 0.4571104 0.7884081 -0.4116585
vn 0.4571104 0.7884081 -0.4116585
vn -0.01846245 0.8764101 0.4812116
vn -0.01846245 0.8764101 0.4812116
vn -0.01846245 0.8764101 0.4812116
vn -0.3781157 0.562354 0.7353818
vn -0.3781157 0.562354 0.7353818
vn -0.3781157 0.562354 0.7353818
vn -0.3765389 0.4195615 0.8259459
vn -0.3765389 0.4195614 0.8259459
vn -0.3765389 0.4195615 0.8259459
vn -0.6086088 -0.376113 0.698666
vn -0.6086089 -0.376113 0.698666
vn -0.6086089 -0.376113 0.698666
vn -0.4195614 -0.3765384 0.8259462
vn -0.4195613 -0.3765384 0.8259462
vn -0.4195614 -0.3765384 0.8259462
vn -0.6099135 -0.13449 0.7809725
vn -0.6099135 -0.13449 0.7809725
vn -0.6099135 -0.13449 0.7809725
vn -0.3749756 -0.5621613 0.737135
vn -0.3749756 -0.5621613 0.737135
vn -0.3749757 -0.5621613 0.737135
vn -0.5007909 -0.6550398 0.5658014
vn -0.500791 -0.6550398 0.5658014
vn -0.5007909 -0.6550398 0.5658014
vn -0.5027555 -0.5639663 0.6551175
vn -0.5027555 -0.5639663 0.6551176
vn -0.5027555 -0.5639663 0.6551176
vn 0.6926373 -0.5490279 -0.4677841
vn 0.6926373 -0.5490279 -0.4677841
vn 0.6926373 -0.549028 -0.4677841
vn -0.1504562 0.1519587 0.9768682
vn -0.1504562 0.1519587 0.9768682
vn -0.1504562 0.1519587 0.9768682
vn -0.1514335 0.4243726 0.8927351
vn -0.1514335 0.4243726 0.8927351
vn -0.1514335 0.4243726 0.8927351
vn 0.9573348 0.124773 0.2606565
vn 0.9573348 0.124773 0.2606566
vn 0.9573348 0.124773 0.2606565
vn -0.7817439 0.1311305 0.6096568
vn -0.7817439 0.1311305 0.6096568
vn -0.7817439 0.1311305 0.6096568
vn -0.7191912 0.3287613 0.6121112
vn -0.7191912 0.3287613 0.6121112
vn -0.7191912 0.3287613 0.6121112
vn -0.6256441 0.2647343 -0.7338155
vn -0.6256441 0.2647343 -0.7338155
vn -0.6256441 0.2647343 -0.7338155
vn 0.3285757 -0.7399364 -0.5869687
vn 0.3285757 -0.7399364 -0.5869686
vn 0.3285757 -0.7399364 -0.5869687
vn -0.7331275 -0.5925627 0.3337565
vn -0.7331275 -0.5925628 0.3337565
vn -0.7331275 -0.5925628 0.3337565
vn -0.5745181 0.5326672 0.6214456
vn -0.5745181 0.5326672 0.6214456
vn -0.574518 0.5326673 0.6214456
vn -0.5027555 0.5639655 0.6551181
vn -0.5027555 0.5639655 0.6551181
vn -0.5027555 0.5639655 0.6551181
vn 0.4174089 0.8220376 -0.3873293
vn 0.4174088 0.8220376 -0.3873293
vn 0.4174088 0.8220376 -0.3873293
vn -0.3884418 -0.1061383 0.9153402
vn -0.3884417 -0.1061383 0.9153402
vn -0.3884417 -0.1061383 0.9153402
vn -0.4162157 -0.1332824 0.8994444
vn -0.3884418 0.1061377 0.9153402
vn -0.3884418 0.1061377 0.9153402
vn -0.3884417 0.1061377 0.9153403
vn -0.4162158 0.133282 0.8994444
vn -0.6468903 -0.4109326 0.6423918
vn -0.6468903 -0.4109327 0.6423919
vn -0.6468903 -0.4109327 0.6423919
vn -0.6423919 -0.4109326 0.6468902
vn -0.5879453 0.3073587 -0.7482319
vn -0.5601506 0.3254086 -0.7618009
vn -0.5601506 0.3254086 -0.7618008
vn -0.5601506 0.3254086 -0.7618009
vn -0.5558658 0.3309361 -0.7625579
vn -0.5558657 0.3309361 -0.7625579
vn -0.5558658 0.3309361 -0.7625579
vn -0.5726985 0.3503659 -0.7411208
vn 0.6523966 -0.7071773 -0.2725416
vn 0.6523966 -0.7071773 -0.2725416
vn 0.6523966 -0.7071773 -0.2725416
vn 0.6526449 -0.7198425 -0.2363928
vn 0.9746715 0.09038612 0.2045624
vn 0.9780301 0.08522383 0.1902473
vn 0.9780301 0.08522383 0.1902473
vn 0.9780301 0.08522383 0.1902473
vn 0.9792786 0.08431725 0.1841306
vn 0.9792786 0.08431724 0.1841306
vn -0.1602287 -0.4281548 0.8893875
vn -0.1602287 -0.4281548 0.8893876
vn -0.1602287 -0.4281548 0.8893876
vn -0.1514362 -0.4242971 0.8927705
g SoccerBall_Explode_Thin_16_Hull_0
f 3/3/3 2/2/2 1/1/1
f 6/6/6 5/5/5 4/4/4
f 9/9/9 8/8/8 7/7/7
f 12/12/12 11/11/11 10/10/10
f 15/15/15 14/14/14 13/13/13
f 18/18/18 17/17/17 16/16/16
f 21/21/21 20/20/20 19/19/19
f 24/24/24 23/23/23 22/22/22
f 27/27/27 26/26/26 25/25/25
f 30/30/30 29/29/29 28/28/28
f 33/33/33 32/32/32 31/31/31
f 36/36/36 35/35/35 34/34/34
f 39/39/39 38/38/38 37/37/37
f 42/42/42 41/41/41 40/40/40
f 45/45/45 44/44/44 43/43/43
f 48/48/48 47/47/47 46/46/46
f 51/51/51 50/50/50 49/49/49
f 54/54/54 53/53/53 52/52/52
f 57/57/57 56/56/56 55/55/55
f 60/60/60 59/59/59 58/58/58
f 63/63/63 62/62/62 61/61/61
f 66/66/66 65/65/65 64/64/64
f 69/69/69 68/68/68 67/67/67
f 72/72/72 71/71/71 70/70/70
f 75/75/75 74/74/74 73/73/73
f 78/78/78 77/77/77 76/76/76
f 81/81/81 80/80/80 79/79/79
f 84/84/84 83/83/83 82/82/82
f 87/87/87 86/86/86 85/85/85
f 90/90/90 89/89/89 88/88/88
f 93/93/93 92/92/92 91/91/91
f 96/96/96 95/95/95 94/94/94
f 99/99/99 98/98/98 97/97/97
f 102/102/102 101/101/101 100/100/100
f 105/105/105 104/104/104 103/103/103
f 108/108/108 107/107/107 106/106/106
f 111/111/111 110/110/110 109/109/109
f 114/114/114 113/113/113 112/112/112
f 117/117/117 116/116/116 115/115/115
f 120/120/120 119/119/119 118/118/118
f 123/123/123 122/122/122 121/121/121
f 123/123/123 121/121/121 124/124/124
f 127/127/127 126/126/126 125/125/125
f 126/126/126 128/128/128 125/125/125
f 131/131/131 130/130/130 129/129/129
f 130/130/130 131/131/131 132/132/132
f 135/135/135 134/134/134 133/133/133
f 136/136/136 134/134/134 135/135/135
f 134/134/134 136/136/136 137/137/137
f 138/138/138 134/134/134 137/137/137
f 139/139/139 138/138/138 137/137/137
f 138/138/138 139/139/139 140/140/140
f 143/143/143 142/142/142 141/141/141
f 142/142/142 143/143/143 144/144/144
f 147/147/147 146/146/146 145/145/145
f 146/146/146 147/147/147 148/148/148
f 146/146/146 148/148/148 149/149/149
f 150/150/150 146/146/146 149/149/149
f 153/153/153 152/152/152 151/151/151
f 154/154/154 153/153/153 151/151/151
