g SoccerBall_Explode_Thin_14_Hull
v -0.1757157 0.1339471 0.1404303
v 0.1298128 0.3326464 -0.08086348
v -0.1242881 -0.3172469 0.2473765
v -0.1418785 -0.02533217 -0.06255756
v -0.200207 -0.02533219 0.05670287
v -0.1781279 -0.1761186 0.06406288
v -0.1188483 -0.2873853 0.0580117
v -0.1781279 -0.1761186 0.06406288
v -0.1986562 -0.1829617 0.2042585
v -0.1986562 -0.1829617 0.2042585
v -0.1041098 -0.3398653 0.1658352
v -0.1242881 -0.3172469 0.2473765
v -0.1188483 -0.2873853 0.0580117
v -0.0928119 -0.192284 -0.07445057
v -0.1781279 -0.1761186 0.06406288
v 0.1234453 0.1254543 -0.2375103
v 0.1698644 0.2441951 -0.1894418
v 0.1405738 0.2419837 -0.1861248
v 0.1234453 0.1254543 -0.2375103
v 0.1964155 0.1110528 -0.2509603
v 0.1698644 0.2441951 -0.1894418
v -0.06996223 -0.1400636 -0.1293447
v -0.0928119 -0.192284 -0.07445057
v 0.0285201 -0.02533208 -0.2167626
v 0.03164658 0.2172531 -0.1490287
v 0.1234453 0.1254543 -0.2375103
v 0.1405738 0.2419837 -0.1861248
v 0.1501549 0.316554 -0.1270368
v 0.1405738 0.2419837 -0.1861248
v 0.1698644 0.2441951 -0.1894418
v 0.2061992 0.1358144 -0.2352724
v 0.1698644 0.2441951 -0.1894418
v 0.1964155 0.1110528 -0.2509603
v 0.2061992 0.1358144 -0.2352724
v 0.1501549 0.316554 -0.1270368
v 0.1698644 0.2441951 -0.1894418
v 0.2061992 0.1358144 -0.2352724
v 0.1298128 0.3326464 -0.08086348
v 0.1501549 0.316554 -0.1270368
v 0.2061992 0.1358144 -0.2352724
v -0.1041098 -0.3398653 0.1658352
v -0.1242881 -0.3172469 0.2473765
v 0.2061992 0.1358144 -0.2352724
v 0.1964155 0.1110528 -0.2509603
v -0.1041098 -0.3398653 0.1658352
v 0.2061992 0.1358144 -0.2352724
v -0.1242881 -0.3172469 0.2473765
v 0.1298128 0.3326464 -0.08086348
v 0.04512345 0.3183307 -0.06323252
v 0.1501549 0.316554 -0.1270368
v 0.1298128 0.3326464 -0.08086348
v 0.04512345 0.3183307 -0.06323252
v -0.03481556 0.2837152 -0.02462936
v -0.01450241 0.263402 -0.07388489
v 0.04512345 0.3183307 -0.06323252
v -0.01450241 0.263402 -0.07388489
v 0.03164658 0.2172531 -0.1490287
v -0.07939424 -0.0253321 -0.1387767
v -0.1418785 -0.02533217 -0.06255756
v -0.06996223 -0.1400636 -0.1293447
v -0.07939424 -0.0253321 -0.1387767
v -0.06996223 -0.1400636 -0.1293447
v 0.0285201 -0.02533208 -0.2167626
v 0.006916013 0.1083258 -0.1861248
v 0.03164658 0.2172531 -0.1490287
v -0.06996223 0.08939932 -0.1293447
v 0.006916013 0.1083258 -0.1861248
v 0.1234453 0.1254543 -0.2375103
v 0.03164658 0.2172531 -0.1490287
v -0.08964628 0.217253 -0.02773592
v -0.1781279 0.1254542 0.06406288
v -0.1267423 0.1083257 -0.0524665
v -0.08964628 0.217253 -0.02773592
v -0.1472188 0.1955483 0.07436596
v -0.1781279 0.1254542 0.06406288
v -0.08964628 0.217253 -0.02773592
v -0.1267423 0.1083257 -0.0524665
v -0.06996223 0.08939932 -0.1293447
v -0.08964628 0.217253 -0.02773592
v -0.01450241 0.263402 -0.07388489
v -0.03481556 0.2837152 -0.02462936
v -0.08964628 0.217253 -0.02773592
v -0.03481556 0.2837152 -0.02462936
v -0.1472188 0.1955483 0.07436596
v 0.1200627 0.05615367 -0.2476577
v 0.1964155 0.1110528 -0.2509603
v 0.1234453 0.1254543 -0.2375103
v -0.1892383 0.1291578 0.1399401
v -0.1472188 0.1955483 0.07436596
v -0.1757157 0.1339471 0.1404303
v -0.1892383 0.1291578 0.1399401
v -0.1781279 0.1254542 0.06406288
v -0.1472188 0.1955483 0.07436596
v -0.1892383 0.1291578 0.1399401
v -0.1757157 0.1339471 0.1404303
v -0.1242881 -0.3172469 0.2473765
v -0.1757157 0.1339471 0.1404303
v -0.1472188 0.1955483 0.07436596
v 0.1298128 0.3326464 -0.08086348
v 0.04512345 0.3183307 -0.06323252
v -0.03481556 0.2837152 -0.02462936
v -0.200207 -0.02533219 0.05670287
v -0.2181071 -0.02533221 0.1670079
v -0.1781279 -0.1761186 0.06406288
v -0.1986562 -0.1829617 0.2042585
v -0.1986562 -0.1829617 0.2042585
v -0.2181071 -0.02533221 0.1670079
v -0.1242881 -0.3172469 0.2473765
v -0.1892383 0.1291578 0.1399401
v -0.1418785 -0.02533217 -0.06255756
v -0.1781279 -0.1761186 0.06406288
v -0.0928119 -0.192284 -0.07445057
v -0.06996223 -0.1400636 -0.1293447
v -0.1188483 -0.2873853 0.0580117
v -0.1041098 -0.3398653 0.1658352
v -0.0928119 -0.192284 -0.07445057
v 0.1964155 0.1110528 -0.2509603
v 0.0285201 -0.02533208 -0.2167626
v 0.1200627 0.05615367 -0.2476577
v -0.1267423 0.1083257 -0.0524665
v -0.200207 -0.02533219 0.05670287
v -0.1418785 -0.02533217 -0.06255756
v -0.1781279 0.1254542 0.06406288
v -0.1267423 0.1083257 -0.0524665
v -0.1418785 -0.02533217 -0.06255756
v -0.06996223 0.08939932 -0.1293447
v -0.07939424 -0.0253321 -0.1387767
v 0.03164658 0.2172531 -0.1490287
v -0.01450241 0.263402 -0.07388489
v -0.06996223 0.08939932 -0.1293447
v -0.08964628 0.217253 -0.02773592
v 0.1501549 0.316554 -0.1270368
v 0.03164658 0.2172531 -0.1490287
v 0.1405738 0.2419837 -0.1861248
v 0.04512345 0.3183307 -0.06323252
v -0.1781279 0.1254542 0.06406288
v -0.2181071 -0.02533221 0.1670079
v -0.200207 -0.02533219 0.05670287
v -0.1892383 0.1291578 0.1399401
v 0.006916013 0.1083258 -0.1861248
v -0.07939424 -0.0253321 -0.1387767
v 0.0285201 -0.02533208 -0.2167626
v -0.06996223 0.08939932 -0.1293447
v 0.1200627 0.05615367 -0.2476577
v 0.006916013 0.1083258 -0.1861248
v 0.0285201 -0.02533208 -0.2167626
v 0.1234453 0.1254543 -0.2375103
vn 0.4534482 0.2541721 0.8542724
vn 0.4534482 0.2541721 0.8542724
vn 0.4534483 0.2541721 0.8542724
vn -0.887984 -0.1512227 -0.4342996
vn -0.887984 -0.1512227 -0.4342996
vn -0.8879841 -0.1512227 -0.4342996
vn -0.8630457 -0.4904796 -0.1207558
vn -0.8758661 -0.4584432 -0.1506267
vn -0.8758661 -0.4584432 -0.1506267
vn -0.8620887 -0.501283 -0.07428449
vn -0.8620889 -0.5012831 -0.0742845
vn -0.8620887 -0.501283 -0.07428449
vn -0.7998592 -0.4018983 -0.4457611
vn -0.7998592 -0.4018983 -0.4457611
vn -0.7998592 -0.4018983 -0.4457612
vn -0.1332827 0.4162154 -0.8994446
vn -0.1332827 0.4162154 -0.8994446
vn -0.1332827 0.4162154 -0.8994445
vn -0.08830192 0.4032381 -0.9108248
vn -0.08830192 0.403238 -0.9108248
vn -0.08830193 0.403238 -0.9108248
vn 0.3783821 -0.744199 -0.5504496
vn 0.3783822 -0.7441989 -0.5504497
vn 0.3783822 -0.744199 -0.5504497
vn -0.3765388 0.419561 -0.8259462
vn -0.3765388 0.419561 -0.8259462
vn -0.3765388 0.4195611 -0.8259462
vn -0.1342566 0.6259627 -0.7682094
vn -0.1342566 0.6259627 -0.7682094
vn -0.1342566 0.6259628 -0.7682094
vn 0.247988 0.4466559 -0.8596513
vn 0.247988 0.4466559 -0.8596514
vn 0.2479881 0.4466558 -0.8596513
vn 0.921726 0.3647526 -0.1318212
vn 0.921726 0.3647526 -0.1318213
vn 0.921726 0.3647526 -0.1318213
vn 0.9205854 0.05381403 0.386816
vn 0.9205854 0.05381403 0.386816
vn 0.9205854 0.05381403 0.386816
vn 0.8944827 -0.3216349 0.3105669
vn 0.8944827 -0.321635 0.3105669
vn 0.8944826 -0.321635 0.3105669
vn 0.8818735 -0.4457615 0.1536085
vn 0.8818735 -0.4457616 0.1536085
vn 0.8818735 -0.4457616 0.1536085
vn 0.8536221 -0.07328756 0.5157112
vn 0.8536221 -0.07328756 0.5157112
vn 0.8536221 -0.07328757 0.5157113
vn -0.2344067 0.8812601 -0.4104073
vn -0.2344068 0.8812602 -0.4104073
vn -0.2344067 0.8812601 -0.4104073
vn -0.536154 0.6792042 -0.501219
vn -0.536154 0.6792042 -0.501219
vn -0.536154 0.6792043 -0.5012191
vn -0.4479294 0.6125359 -0.6512749
vn -0.4479294 0.6125358 -0.6512749
vn -0.4479294 0.6125358 -0.651275
vn -0.7682199 -0.1149287 -0.6297852
vn -0.7682199 -0.1149287 -0.6297853
vn -0.7682199 -0.1149287 -0.6297853
vn -0.5819056 -0.1140343 -0.8052218
vn -0.5819056 -0.1140343 -0.8052217
vn -0.5819056 -0.1140343 -0.8052217
vn -0.6086089 0.3761131 -0.6986659
vn -0.608609 0.3761131 -0.6986659
vn -0.6086089 0.3761131 -0.6986659
vn -0.4195613 0.3765385 -0.8259462
vn -0.4195613 0.3765386 -0.8259462
vn -0.4195613 0.3765385 -0.8259462
vn -0.825946 0.3765386 -0.4195614
vn -0.825946 0.3765386 -0.4195614
vn -0.825946 0.3765386 -0.4195614
vn -0.825946 0.4195612 -0.3765388
vn -0.825946 0.4195612 -0.3765388
vn -0.825946 0.4195611 -0.3765388
vn -0.6986658 0.3761133 -0.6086089
vn -0.6986658 0.3761133 -0.6086089
vn -0.6986659 0.3761133 -0.608609
vn -0.6551177 0.5639662 -0.5027553
vn -0.6551177 0.5639662 -0.5027553
vn -0.6551177 0.5639662 -0.5027553
vn -0.7335163 0.6183336 -0.2821654
vn -0.7335163 0.6183336 -0.2821654
vn -0.7335163 0.6183336 -0.2821654
vn -0.1504171 0.1504174 -0.9771128
vn -0.1504171 0.1504174 -0.9771128
vn -0.1504171 0.1504174 -0.9771128
vn -0.289989 0.7591381 0.5827656
vn -0.289989 0.7591381 0.5827657
vn -0.2899889 0.7591381 0.5827657
vn -0.8960001 0.4173848 -0.1515705
vn -0.8960001 0.4173848 -0.1515705
vn -0.8960001 0.4173848 -0.1515705
vn -0.1120396 0.2170777 0.9697033
vn -0.1120396 0.2170777 0.9697033
vn -0.1120396 0.2170777 0.9697033
vn 0.02639719 0.7254207 0.6877993
vn 0.02639719 0.7254208 0.6877993
vn 0.02639719 0.7254208 0.6877993
vn 0.01731646 0.7338771 0.6790615
vn -0.004874992 0.7495022 0.661984
vn -0.975827 -0.1506161 -0.1583554
vn -0.975827 -0.1506162 -0.1583554
vn -0.975827 -0.1506161 -0.1583554
vn -0.9762088 -0.1560401 -0.1505589
vn -0.1892015 0.2036567 0.9605866
vn -0.1892015 0.2036567 0.9605866
vn -0.1892015 0.2036567 0.9605866
vn -0.1892009 0.2036569 0.9605867
vn -0.8428803 -0.2125033 -0.4943632
vn -0.8428803 -0.2125033 -0.4943633
vn -0.8428803 -0.2125033 -0.4943632
vn -0.8203565 -0.2030171 -0.5346019
vn 0.5143721 -0.7413177 -0.4311256
vn 0.5143738 -0.741317 -0.431125
vn 0.5143733 -0.741317 -0.4311256
vn 0.5143733 -0.741317 -0.4311256
vn 0.5143733 -0.741317 -0.4311256
vn 0.5143728 -0.7413166 -0.4311268
vn -0.890251 0.1336899 -0.4354082
vn -0.8902509 0.1336899 -0.4354082
vn -0.8902509 0.1336899 -0.4354082
vn -0.896 0.1515708 -0.4173852
vn -0.7809722 0.1344896 -0.6099138
vn -0.7809722 0.1344896 -0.6099137
vn -0.7809722 0.1344897 -0.6099138
vn -0.7682199 0.1149288 -0.6297852
vn -0.6423921 0.4109327 -0.6468901
vn -0.6423921 0.4109327 -0.6468901
vn -0.6423921 0.4109327 -0.6468901
vn -0.6468902 0.4109327 -0.6423919
vn -0.3763431 0.6046093 -0.7020068
vn -0.3763431 0.6046093 -0.7020068
vn -0.3763431 0.6046093 -0.7020068
vn -0.3979994 0.6239285 -0.6725397
vn -0.975827 0.1506161 -0.1583553
vn -0.975827 0.1506161 -0.1583553
vn -0.975827 0.1506161 -0.1583554
vn -0.9762088 0.1560403 -0.1505587
vn -0.5833102 0.09073814 -0.8071653
vn -0.5833103 0.09073814 -0.8071653
vn -0.5833102 0.09073815 -0.8071653
vn -0.6082848 0.114574 -0.7854058
vn -0.4238746 0.1367213 -0.8953422
vn -0.4238746 0.1367213 -0.8953422
vn -0.4238746 0.1367213 -0.8953422
vn -0.417385 0.1515713 -0.896
g SoccerBall_Explode_Thin_14_Hull_0
f 3/3/3 2/2/2 1/1/1
f 6/6/6 5/5/5 4/4/4
f 9/9/9 8/8/8 7/7/7
f 11/11/11 10/10/10 7/7/7
f 11/11/11 12/12/12 10/10/10
f 15/15/15 14/14/14 13/13/13
f 18/18/18 17/17/17 16/16/16
f 21/21/21 20/20/20 19/19/19
f 24/24/24 23/23/23 22/22/22
f 27/27/27 26/26/26 25/25/25
f 30/30/30 29/29/29 28/28/28
f 33/33/33 32/32/32 31/31/31
f 36/36/36 35/35/35 34/34/34
f 39/39/39 38/38/38 37/37/37
f 42/42/42 41/41/41 40/40/40
f 45/45/45 44/44/44 43/43/43
f 48/48/48 47/47/47 46/46/46
f 51/51/51 50/50/50 49/49/49
f 54/54/54 53/53/53 52/52/52
f 57/57/57 56/56/56 55/55/55
f 60/60/60 59/59/59 58/58/58
f 63/63/63 62/62/62 61/61/61
f 66/66/66 65/65/65 64/64/64
f 69/69/69 68/68/68 67/67/67
f 72/72/72 71/71/71 70/70/70
f 75/75/75 74/74/74 73/73/73
f 78/78/78 77/77/77 76/76/76
f 81/81/81 80/80/80 79/79/79
f 84/84/84 83/83/83 82/82/82
f 87/87/87 86/86/86 85/85/85
f 90/90/90 89/89/89 88/88/88
f 93/93/93 92/92/92 91/91/91
f 96/96/96 95/95/95 94/94/94
f 99/99/99 98/98/98 97/97/97
f 98/98/98 99/99/99 100/100/100
f 101/101/101 98/98/98 100/100/100
f 104/104/104 103/103/103 102/102/102
f 103/103/103 104/104/104 105/105/105
f 108/108/108 107/107/107 106/106/106
f 107/107/107 108/108/108 109/109/109
f 112/112/112 111/111/111 110/110/110
f 112/112/112 110/110/110 113/113/113
f 116/116/116 115/115/115 114/114/114
f 116/116/116 117/117/117 115/115/115
f 117/117/117 116/116/116 118/118/118
f 117/117/117 118/118/118 119/119/119
f 122/122/122 121/121/121 120/120/120
f 120/120/120 121/121/121 123/123/123
f 126/126/126 125/125/125 124/124/124
f 125/125/125 126/126/126 127/127/127
f 130/130/130 129/129/129 128/128/128
f 129/129/129 130/130/130 131/131/131
f 134/134/134 133/133/133 132/132/132
f 132/132/132 133/133/133 135/135/135
f 138/138/138 137/137/137 136/136/136
f 136/136/136 137/137/137 139/139/139
f 142/142/142 141/141/141 140/140/140
f 141/141/141 143/143/143 140/140/140
f 146/146/146 145/145/145 144/144/144
f 145/145/145 147/147/147 144/144/144
