g SoccerBall_Explode_Thin_18_Hull
v 0.01203989 0.03861811 0.03173764
v -0.04729195 0.03037146 -0.03734963
v 0.05294109 -0.03035972 -0.03669082
v 0.04917019 -0.03863121 -0.0324891
v 0.05294109 -0.03035972 -0.03669082
v -0.04729195 0.03037146 -0.03734963
v 0.04917019 -0.03863121 -0.0324891
v -0.04729195 0.03037146 -0.03734963
v -0.05293979 0.02381071 -0.03231478
v -0.02535374 0.02613974 0.001664648
v -0.05293979 0.02381071 -0.03231478
v 0.007005005 0.03205739 0.03738551
v 0.01150373 0.01811369 0.02519855
v 0.03089611 -0.0190785 -0.01039807
v -0.005115128 -0.006814575 -0.01857398
v -0.03678203 0.01121962 -0.03059678
v -0.005115128 -0.006814575 -0.01857398
v -0.007358131 -0.0101792 -0.02845371
v 0.005441303 -0.0169895 -0.02913039
v -0.007358131 -0.0101792 -0.02845371
v -0.005115128 -0.006814575 -0.01857398
v 0.01203989 0.03861811 0.03173764
v -0.05293979 0.02381071 -0.03231478
v -0.04729195 0.03037146 -0.03734963
v 0.007005005 0.03205739 0.03738551
v 0.04917019 -0.03863121 -0.0324891
v 0.01203989 0.03861811 0.03173764
v 0.05294109 -0.03035972 -0.03669082
v 0.007005005 0.03205739 0.03738551
v 0.04917019 -0.03863121 -0.0324891
v 0.03089611 -0.0190785 -0.01039807
v 0.007005005 0.03205739 0.03738551
v 0.01150373 0.01811369 0.02519855
v -0.005115128 -0.006814575 -0.01857398
v 0.03089611 -0.0190785 -0.01039807
v 0.04917019 -0.03863121 -0.0324891
v 0.005441303 -0.0169895 -0.02913039
v -0.02535374 0.02613974 0.001664648
v -0.005115128 -0.006814575 -0.01857398
v -0.05293979 0.02381071 -0.03231478
v -0.03678203 0.01121962 -0.03059678
v -0.02535374 0.02613974 0.001664648
v 0.007005005 0.03205739 0.03738551
v -0.005115128 -0.006814575 -0.01857398
v 0.01150373 0.01811369 0.02519855
v -0.03678203 0.01121962 -0.03059678
v -0.007358131 -0.0101792 -0.02845371
v -0.05293979 0.02381071 -0.03231478
v 0.04917019 -0.03863121 -0.0324891
v 0.005441303 -0.0169895 -0.02913039
vn 0.4565233 0.7482414 -0.4813745
vn 0.4565233 0.7482413 -0.4813745
vn 0.4565233 0.7482414 -0.4813745
vn -0.2140302 -0.3630809 -0.9068425
vn -0.2140302 -0.3630809 -0.9068425
vn -0.2140302 -0.3630809 -0.9068425
vn -0.2658631 -0.4323549 -0.8616183
vn -0.265863 -0.4323549 -0.8616183
vn -0.265863 -0.4323549 -0.8616183
vn -0.6333256 0.6131786 0.4721342
vn -0.6333256 0.6131786 0.4721342
vn -0.6333256 0.6131786 0.4721342
vn -0.378116 -0.7353818 0.5623538
vn -0.3781159 -0.7353818 0.5623538
vn -0.378116 -0.7353818 0.5623539
vn -0.5623541 -0.7353835 0.3781123
vn -0.5623541 -0.7353835 0.3781123
vn -0.5623541 -0.7353835 0.3781123
vn -0.4195618 -0.8259469 0.3765362
vn -0.4195618 -0.8259469 0.3765362
vn -0.4195618 -0.8259469 0.3765362
vn -0.5408667 0.753085 0.3746013
vn -0.5408667 0.753085 0.3746014
vn -0.5408667 0.753085 0.3746013
vn -0.5455475 0.7465395 0.380863
vn 0.8167518 -0.0822463 0.5710972
vn 0.8167518 -0.0822463 0.5710972
vn 0.8167518 -0.0822463 0.5710971
vn 0.8002579 -0.1060587 0.5902023
vn 0.3186297 -0.5634189 0.762256
vn 0.3186296 -0.5634189 0.762256
vn 0.3186297 -0.5634189 0.762256
vn 0.3186194 -0.5634236 0.7622568
vn -0.376539 -0.8259453 0.4195624
vn -0.376539 -0.8259453 0.4195624
vn -0.376539 -0.8259453 0.4195624
vn -0.3765415 -0.8259471 0.4195568
vn -0.5639651 -0.655118 0.5027561
vn -0.5639651 -0.655118 0.5027561
vn -0.5639652 -0.655118 0.5027561
vn -0.563966 -0.6551222 0.5027498
vn -0.5027561 -0.655118 0.5639651
vn -0.5027561 -0.655118 0.563965
vn -0.5027561 -0.655118 0.5639651
vn -0.5027546 -0.6551191 0.5639654
vn -0.3155712 -0.5138126 -0.797754
vn -0.3155541 -0.5137919 -0.7977741
vn -0.3155541 -0.5137919 -0.7977741
vn -0.3155541 -0.5137919 -0.7977741
vn -0.3155526 -0.5137883 -0.7977769
g SoccerBall_Explode_Thin_18_Hull_0
f 3/3/3 2/2/2 1/1/1
f 6/6/6 5/5/5 4/4/4
f 9/9/9 8/8/8 7/7/7
f 12/12/12 11/11/11 10/10/10
f 15/15/15 14/14/14 13/13/13
f 18/18/18 17/17/17 16/16/16
f 21/21/21 20/20/20 19/19/19
f 24/24/24 23/23/23 22/22/22
f 23/23/23 25/25/25 22/22/22
f 28/28/28 27/27/27 26/26/26
f 27/27/27 29/29/29 26/26/26
f 32/32/32 31/31/31 30/30/30
f 31/31/31 32/32/32 33/33/33
f 36/36/36 35/35/35 34/34/34
f 36/36/36 34/34/34 37/37/37
f 40/40/40 39/39/39 38/38/38
f 39/39/39 40/40/40 41/41/41
f 44/44/44 43/43/43 42/42/42
f 43/43/43 44/44/44 45/45/45
f 48/48/48 47/47/47 46/46/46
f 47/47/47 48/48/48 49/49/49
f 47/47/47 49/49/49 50/50/50
