g SoccerBall_Explode_Thin_04
v -0.0140406 -0.1665296 -0.1603961
v -0.04280632 -0.1585631 -0.1683452
v -0.0352388 -0.1791097 -0.1577159
v -0.008654098 -0.1298843 -0.1765555
v 0.0580233 -0.1200834 -0.1471529
v -0.05212616 -0.1320062 -0.1829209
v -0.001295624 0.02087125 -0.19863
v -0.08721779 -0.06505085 -0.19863
v -0.1316975 0.02087125 -0.2197914
v 0.1099401 -0.08509179 -0.1283137
v -0.1428931 0.03738775 -0.2190589
v 0.1179403 0.02087123 -0.1403135
v 0.1941439 0.02087122 -0.07784198
v 0.139723 -0.06340369 -0.1076963
v 0.190223 -0.02682398 -0.07392101
v 0.1595989 0.09243502 -0.0954557
v 0.1885509 0.08890524 -0.07224899
v 0.1120676 0.09865632 -0.1315047
v 0.06902122 0.1069612 -0.1513109
v -0.006227722 0.1219155 -0.1838344
v -0.04749786 0.132783 -0.1888543
v -0.1594096 0.1624933 -0.2013063
v -0.1594097 0.06151355 -0.2176931
v -0.2121866 0.1262082 -0.19863
v -0.1717758 0.166619 -0.19863
v -0.2321729 0.1754336 -0.1879755
v -0.2372098 0.1572284 -0.1900026
v -0.2027259 0.1768709 -0.1922873
v -0.2289406 0.1863273 -0.183198
v 0.190223 -0.02682398 -0.07392101
v 0.2064345 -0.01382344 -0.05543774
v 0.1941439 0.02087122 -0.07784198
v 0.250499 0.02087121 -0.009099254
v 0.2545052 0.02423758 -0.003598099
v 0.1885509 0.08890524 -0.07224899
v 0.214562 0.08796076 -0.04069248
v 0.2491093 0.08715263 0.003365707
v 0.2560813 0.02558687 -0.001282463
v 0.2682388 0.03776171 0.02731336
v 0.2539252 0.08785541 0.01342838
v -0.04420628 -0.154333 -0.1593927
v -0.01627626 -0.1623237 -0.1516034
v -0.03657162 -0.1749476 -0.1487215
v -0.01155476 -0.1269836 -0.1674356
v 0.05383541 -0.1183104 -0.1382469
v -0.0536494 -0.1293911 -0.1733899
v -0.004297319 0.0209037 -0.1890912
v -0.08875336 -0.06351528 -0.1888686
v -0.1332975 0.02038781 -0.2099321
v 0.105056 -0.08374666 -0.1196918
v -0.1444428 0.03584759 -0.2093005
v 0.1125773 0.0209227 -0.1318734
v 0.187073 0.02093002 -0.07077103
v 0.1334655 -0.06208645 -0.1000081
v 0.1834913 -0.0256701 -0.06661668
v 0.1533621 0.09122491 -0.08773314
v 0.1815528 0.08775041 -0.06519977
v 0.1068912 0.09730867 -0.1230555
v 0.06472331 0.1055682 -0.1423897
v -0.008952952 0.1203915 -0.1743344
v -0.04905597 0.1312513 -0.1790959
v -0.1590917 0.1608922 -0.1914404
v -0.160274 0.05991771 -0.2078591
v -0.2106412 0.1246628 -0.1888717
v -0.1702217 0.1650649 -0.1888745
v -0.2306489 0.1727234 -0.1784712
v -0.2357056 0.1557243 -0.1802315
v -0.201213 0.1749842 -0.1825842
v -0.2274284 0.1819843 -0.1743182
v 0.1986825 -0.01257128 -0.04924599
v 0.1834913 -0.0256701 -0.06661668
v 0.187073 0.02093002 -0.07077103
v 0.2427879 0.02011199 -0.002777693
v 0.2467487 0.0229754 0.002585936
v 0.1815528 0.08775041 -0.06519977
v 0.2068443 0.08675802 -0.03444823
v 0.2406989 0.08580465 0.008604918
v 0.2478279 0.02423825 0.004200509
v 0.2593362 0.03642482 0.03166744
v 0.2450227 0.08651853 0.01778248
v -0.01627626 -0.1623237 -0.1516034
v -0.0352388 -0.1791097 -0.1577159
v -0.03657162 -0.1749476 -0.1487215
v -0.0140406 -0.1665296 -0.1603961
v 0.05383541 -0.1183104 -0.1382469
v 0.0580233 -0.1200834 -0.1471529
v 0.105056 -0.08374666 -0.1196918
v 0.1099401 -0.08509179 -0.1283137
v 0.1334655 -0.06208645 -0.1000081
v 0.139723 -0.06340369 -0.1076963
v 0.1834913 -0.0256701 -0.06661668
v 0.190223 -0.02682398 -0.07392101
v -0.04280632 -0.1585631 -0.1683452
v -0.03657162 -0.1749476 -0.1487215
v -0.0352388 -0.1791097 -0.1577159
v -0.04420628 -0.154333 -0.1593927
v -0.05212616 -0.1320062 -0.1829209
v -0.0536494 -0.1293911 -0.1733899
v -0.08721779 -0.06505085 -0.19863
v -0.08875336 -0.06351528 -0.1888686
v -0.1316975 0.02087125 -0.2197914
v -0.1332975 0.02038781 -0.2099321
v -0.1428931 0.03738775 -0.2190589
v -0.1444428 0.03584759 -0.2093005
v -0.1594097 0.06151355 -0.2176931
v -0.160274 0.05991771 -0.2078591
v -0.2121866 0.1262082 -0.19863
v -0.2106412 0.1246628 -0.1888717
v -0.2372098 0.1572284 -0.1900026
v -0.2357056 0.1557243 -0.1802315
v -0.2321729 0.1754336 -0.1879755
v -0.2357056 0.1557243 -0.1802315
v -0.2372098 0.1572284 -0.1900026
v -0.2306489 0.1727234 -0.1784712
v -0.2289406 0.1863273 -0.183198
v -0.2274284 0.1819843 -0.1743182
v 0.1986825 -0.01257128 -0.04924599
v 0.190223 -0.02682398 -0.07392101
v 0.1834913 -0.0256701 -0.06661668
v 0.2064345 -0.01382344 -0.05543774
v 0.2427879 0.02011199 -0.002777693
v 0.250499 0.02087121 -0.009099254
v 0.2467487 0.0229754 0.002585936
v 0.2545052 0.02423758 -0.003598099
v 0.2478279 0.02423825 0.004200509
v 0.2560813 0.02558687 -0.001282463
v 0.2593362 0.03642482 0.03166744
v 0.2682388 0.03776171 0.02731336
v 0.2406989 0.08580465 0.008604918
v 0.2539252 0.08785541 0.01342838
v 0.2450227 0.08651853 0.01778248
v 0.2491093 0.08715263 0.003365707
v 0.2068443 0.08675802 -0.03444823
v 0.214562 0.08796076 -0.04069248
v 0.1815528 0.08775041 -0.06519977
v 0.1885509 0.08890524 -0.07224899
v 0.2682388 0.03776171 0.02731336
v 0.2450227 0.08651853 0.01778248
v 0.2539252 0.08785541 0.01342838
v 0.2593362 0.03642482 0.03166744
v 0.1533621 0.09122491 -0.08773314
v 0.1885509 0.08890524 -0.07224899
v 0.1815528 0.08775041 -0.06519977
v 0.1595989 0.09243502 -0.0954557
v 0.1068912 0.09730867 -0.1230555
v 0.1120676 0.09865632 -0.1315047
v 0.06472331 0.1055682 -0.1423897
v 0.06902122 0.1069612 -0.1513109
v -0.008952952 0.1203915 -0.1743344
v -0.006227722 0.1219155 -0.1838344
v -0.04905597 0.1312513 -0.1790959
v -0.04749786 0.132783 -0.1888543
v -0.1590917 0.1608922 -0.1914404
v -0.1594096 0.1624933 -0.2013063
v -0.1702217 0.1650649 -0.1888745
v -0.1717758 0.166619 -0.19863
v -0.201213 0.1749842 -0.1825842
v -0.2027259 0.1768709 -0.1922873
v -0.2274284 0.1819843 -0.1743182
v -0.2289406 0.1863273 -0.183198
vt 0.4295698 0.4993511
vt 0.4425835 0.5033359
vt 0.4387114 0.4936057
vt 0.42806 0.51655
vt 0.3967832 0.5194917
vt 0.4465728 0.5158464
vt 0.42599 0.58076
vt 0.4620023 0.5445412
vt 0.48081 0.5806115
vt 0.3727267 0.5339761
vt 0.485457 0.5876312
vt 0.37011 0.58103
vt 0.32791 0.58159
vt 0.3566049 0.5438137
vt 0.3293944 0.5587461
vt 0.3466023 0.6152996
vt 0.3305908 0.6138372
vt 0.3724442 0.6154723
vt 0.3925733 0.6190536
vt 0.4276991 0.6237769
vt 0.4450096 0.6283569
vt 0.4926481 0.6401348
vt 0.492514 0.5976709
vt 0.514787 0.6248128
vt 0.4978522 0.6418549
vt 0.5236565 0.6458826
vt 0.5256733 0.6381461
vt 0.5111164 0.6463631
vt 0.522289 0.6509677
vt 0.003579896 0.6796714
vt 0.01386185 0.6723167
vt 0.001949965 0.65684
vt 0.04002734 0.6571107
vt 0.04304386 0.655535
vt 0.00442916 0.624581
vt 0.02191725 0.6251533
vt 0.04596047 0.6277914
vt 0.04428804 0.655052
vt 0.05759176 0.6496379
vt 0.0506714 0.6274717
vt 0.4425835 0.5033359
vt 0.4295698 0.4993511
vt 0.4387114 0.4936057
vt 0.42806 0.51655
vt 0.3967832 0.5194917
vt 0.4465728 0.5158464
vt 0.42599 0.58076
vt 0.4620023 0.5445412
vt 0.48081 0.5806115
vt 0.3727267 0.5339761
vt 0.485457 0.5876312
vt 0.37011 0.58103
vt 0.32791 0.58159
vt 0.3566049 0.5438137
vt 0.3293944 0.5587461
vt 0.3466023 0.6152996
vt 0.3305908 0.6138372
vt 0.3724442 0.6154723
vt 0.3925733 0.6190536
vt 0.4276991 0.6237769
vt 0.4450096 0.6283569
vt 0.4926481 0.6401348
vt 0.492514 0.5976709
vt 0.514787 0.6248128
vt 0.4978522 0.6418549
vt 0.5236565 0.6458826
vt 0.5256733 0.6381461
vt 0.5111164 0.6463631
vt 0.522289 0.6509677
vt 0.01386185 0.6723167
vt 0.003579896 0.6796714
vt 0.001949965 0.65684
vt 0.04002734 0.6571107
vt 0.04304386 0.655535
vt 0.00442916 0.624581
vt 0.02191725 0.6251533
vt 0.04596047 0.6277914
vt 0.04428804 0.655052
vt 0.05759176 0.6496379
vt 0.0506714 0.6274717
vt 0.4295698 0.4993511
vt 0.4387114 0.4936057
vt 0.4387114 0.4936057
vt 0.4295698 0.4993511
vt 0.3967832 0.5194917
vt 0.3967832 0.5194917
vt 0.3727267 0.5339761
vt 0.3727267 0.5339761
vt 0.3566049 0.5438137
vt 0.3566049 0.5438137
vt 0.3293944 0.5587461
vt 0.3293944 0.5587461
vt 0.4425835 0.5033359
vt 0.4387114 0.4936057
vt 0.4387114 0.4936057
vt 0.4425835 0.5033359
vt 0.4465728 0.5158464
vt 0.4465728 0.5158464
vt 0.4620023 0.5445412
vt 0.4620023 0.5445412
vt 0.48081 0.5806115
vt 0.48081 0.5806115
vt 0.485457 0.5876312
vt 0.485457 0.5876312
vt 0.492514 0.5976709
vt 0.492514 0.5976709
vt 0.514787 0.6248128
vt 0.514787 0.6248128
vt 0.5256733 0.6381461
vt 0.5256733 0.6381461
vt 0.5236565 0.6458826
vt 0.5256733 0.6381461
vt 0.5256733 0.6381461
vt 0.5236565 0.6458826
vt 0.522289 0.6509677
vt 0.522289 0.6509677
vt 0.01386185 0.6723167
vt 0.003579896 0.6796714
vt 0.003579896 0.6796714
vt 0.01386185 0.6723167
vt 0.04002734 0.6571107
vt 0.04002734 0.6571107
vt 0.04304386 0.655535
vt 0.04304386 0.655535
vt 0.04428804 0.655052
vt 0.04428804 0.655052
vt 0.05759176 0.6496379
vt 0.05759176 0.6496379
vt 0.04596047 0.6277914
vt 0.0506714 0.6274717
vt 0.0506714 0.6274717
vt 0.04596047 0.6277914
vt 0.02191725 0.6251533
vt 0.02191725 0.6251533
vt 0.00442916 0.624581
vt 0.00442916 0.624581
vt 0.05759176 0.6496379
vt 0.0506714 0.6274717
vt 0.0506714 0.6274717
vt 0.05759176 0.6496379
vt 0.3466023 0.6152996
vt 0.3305908 0.6138372
vt 0.3305908 0.6138372
vt 0.3466023 0.6152996
vt 0.3724442 0.6154723
vt 0.3724442 0.6154723
vt 0.3925733 0.6190536
vt 0.3925733 0.6190536
vt 0.4276991 0.6237769
vt 0.4276991 0.6237769
vt 0.4450096 0.6283569
vt 0.4450096 0.6283569
vt 0.4926481 0.6401348
vt 0.4926481 0.6401348
vt 0.4978522 0.6418549
vt 0.4978522 0.6418549
vt 0.5111164 0.6463631
vt 0.5111164 0.6463631
vt 0.522289 0.6509677
vt 0.522289 0.6509677
vn 0.2235661 -0.4205917 -0.8792729
vn 0.1399965 -0.4230094 -0.8952453
vn 0.1332825 -0.416215 -0.8994448
vn 0.2900661 -0.290066 -0.9119887
vn 0.4187896 -0.1773048 -0.8906055
vn 0.1523237 -0.2615072 -0.9531062
vn 0.3001696 -0.003245361 -0.9538804
vn 0.1535571 -0.1535572 -0.9761354
vn 0.1599957 0.0483443 -0.9859331
vn 0.4884108 -0.1345129 -0.862184
vn 0.1549606 0.1540163 -0.9758413
vn 0.5362972 -0.005146783 -0.8440134
vn 0.7070942 -0.005880667 -0.7070948
vn 0.625747 -0.1317241 -0.7688234
vn 0.6731665 -0.1153874 -0.7304332
vn 0.6236805 0.121011 -0.7722558
vn 0.6998203 0.1154828 -0.7049222
vn 0.5176401 0.1347643 -0.8449185
vn 0.4297913 0.1393037 -0.8921176
vn 0.2725231 0.152408 -0.9500016
vn 0.155811 0.1531656 -0.9758399
vn -0.03179129 0.1601019 -0.9865884
vn 0.08642893 0.1595835 -0.9833937
vn -0.1545449 0.1545449 -0.9758236
vn -0.1554168 0.1554169 -0.9755466
vn -0.1523976 0.2710213 -0.9504328
vn -0.1504181 0.1504171 -0.9771127
vn -0.1512896 0.1886764 -0.9703158
vn -0.1512231 0.4342994 -0.887984
vn 0.6731665 -0.1153874 -0.7304332
vn 0.775206 -0.1252166 -0.6191741
vn 0.7070942 -0.005880667 -0.7070948
vn 0.7711126 0.07592157 -0.6321561
vn 0.7756585 0.1262178 -0.6184035
vn 0.6998203 0.1154828 -0.7049222
vn 0.7717688 0.1202744 -0.6244254
vn 0.8410327 0.1347984 -0.523921
vn 0.8253376 0.1348618 -0.5482973
vn 0.8902513 0.1336898 -0.4354075
vn 0.8902506 0.1336886 -0.4354093
vn -0.1382986 0.4266171 0.893796
vn -0.2228488 0.42236 0.8786072
vn -0.1315718 0.4168525 0.8994014
vn -0.2880325 0.2905351 0.9124838
vn -0.4208523 0.182572 0.8885667
vn -0.1501587 0.2632598 0.9529673
vn -0.2997569 0.002691342 0.9540119
vn -0.1521579 0.1547981 0.9761586
vn -0.1590902 -0.05038562 0.9859775
vn -0.489588 0.1365 0.8612035
vn -0.1543964 -0.154546 0.975847
vn -0.5365009 0.004496386 0.8438879
vn -0.7074951 0.005933717 0.7066933
vn -0.6315826 0.1392291 0.7627048
vn -0.67421 0.1168298 0.7292404
vn -0.6236446 -0.1223725 0.7720702
vn -0.6997129 -0.1165923 0.7048461
vn -0.5177287 -0.1360452 0.8446589
vn -0.4301046 -0.140802 0.8917314
vn -0.2722937 -0.1536345 0.9498698
vn -0.1552734 -0.153751 0.9758334
vn 0.03431079 -0.1617774 0.9862307
vn -0.08615568 -0.1589155 0.9835259
vn 0.1562347 -0.1551512 0.9754582
vn 0.1581732 -0.1585996 0.9745909
vn 0.1554316 -0.271128 0.9499108
vn 0.1544669 -0.1471191 0.9769831
vn 0.1502025 -0.190877 0.9700542
vn 0.1573838 -0.4491346 0.8794933
vn -0.7763479 0.1275632 0.6172612
vn -0.67421 0.1168298 0.7292404
vn -0.7074951 0.005933717 0.7066933
vn -0.771694 -0.07610559 0.631424
vn -0.7728949 -0.1258522 0.6219282
vn -0.6997129 -0.1165923 0.7048461
vn -0.7721434 -0.1208492 0.6238509
vn -0.8417141 -0.1351347 0.5227388
vn -0.8189662 -0.1347354 0.5577999
vn -0.8914376 -0.1343277 0.4327759
vn -0.8921831 -0.135499 0.4308704
vn 0.4494874 -0.7597072 0.4699
vn 0.5145083 -0.7393669 0.4343016
vn 0.5214707 -0.7423059 0.4207734
vn 0.4511739 -0.7574558 0.471914
vn 0.4382708 -0.8175796 0.3734733
vn 0.4390312 -0.8188713 0.3697316
vn 0.410319 -0.8366992 0.3627295
vn 0.4057084 -0.8366944 0.3678901
vn 0.3381275 -0.8461305 0.4119865
vn 0.3325713 -0.8460327 0.4166834
vn 0.3057218 -0.8564342 0.4159985
vn 0.2965346 -0.8571008 0.4212428
vn -0.9425492 -0.3338891 0.01091423
vn -0.9407908 -0.338601 0.01619144
vn -0.9410463 -0.3378558 0.01689489
vn -0.9407758 -0.3389833 0.005590362
vn -0.9081743 -0.4179476 -0.02321845
vn -0.9064023 -0.421251 -0.03134368
vn -0.8776472 -0.4753943 -0.06112012
vn -0.8765323 -0.4767625 -0.06624614
vn -0.8381163 -0.5220926 -0.1580516
vn -0.8349388 -0.5235975 -0.1694782
vn -0.8078252 -0.5520012 -0.2066714
vn -0.805967 -0.5536625 -0.2094639
vn -0.8077511 -0.5648359 -0.1688151
vn -0.8085425 -0.5673369 -0.1561656
vn -0.7807723 -0.6245717 0.0174574
vn -0.7801647 -0.6250939 0.02451026
vn -0.7750302 -0.6315346 0.02218706
vn -0.7750303 -0.631538 0.02208928
vn -0.9519402 0.2231319 0.209814
vn -0.948872 0.2472021 0.1962984
vn -0.9524075 0.243013 0.1840239
vn -0.9465239 0.2279803 0.2282926
vn -0.9502617 0.2017709 0.2372576
vn -0.9417765 0.2096162 0.2629033
vn 0.2124316 -0.8780183 0.4289017
vn 0.2965346 -0.8571008 0.4212428
vn 0.3057218 -0.8564342 0.4159985
vn 0.2100808 -0.8790203 0.4280065
vn 0.3233014 -0.8978534 0.2988901
vn 0.3467313 -0.8897147 0.2969601
vn 0.3787371 -0.8694382 0.3172307
vn 0.3589213 -0.8873364 0.2894988
vn 0.3676895 -0.8772143 0.3087062
vn 0.3272994 -0.9025875 0.279662
vn 0.282999 -0.9190481 0.2743393
vn 0.2733949 -0.9214332 0.2760726
vn -0.1255288 0.9908587 0.04941167
vn -0.153118 0.9882079 -0.0002889878
vn -0.1512053 0.9884863 -0.005652251
vn -0.1257443 0.9907466 0.05108405
vn -0.0821426 0.9924389 0.09119993
vn -0.08113682 0.9926252 0.09006713
vn -0.03914348 0.991474 0.1242858
vn -0.03848723 0.9915801 0.1236429
vn 0.3701039 0.3448505 0.862613
vn 0.3701051 0.3448509 0.8626124
vn 0.3701053 0.344851 0.8626122
vn 0.3701037 0.3448504 0.8626132
vn 0.002353715 0.9875693 0.1571672
vn -0.03848723 0.9915801 0.1236429
vn -0.03914348 0.991474 0.1242858
vn 0.002462848 0.9876232 0.1568259
vn 0.04978345 0.9811131 0.1869193
vn 0.05054282 0.9811824 0.1863504
vn 0.1018505 0.9740412 0.2021639
vn 0.1022331 0.9743024 0.200707
vn 0.1710394 0.9638512 0.2042949
vn 0.1725866 0.9641426 0.2016011
vn 0.232528 0.9540048 0.1892238
vn 0.2324455 0.954688 0.1858497
vn 0.3064316 0.9409618 0.1438415
vn 0.2994875 0.9447254 0.1334208
vn 0.3361759 0.9358358 0.1058156
vn 0.328912 0.939013 0.1003568
vn 0.3139928 0.9403707 0.1308105
vn 0.3308723 0.9307448 0.1556843
vn 0.3972186 0.867589 0.2991767
vn 0.4211317 0.8410185 0.3396115
g SoccerBall_Explode_Thin_04_0
f 3/3/3 2/2/2 1/1/1
f 4/4/4 1/1/1 2/2/2
f 4/4/4 5/5/5 1/1/1
f 4/4/4 2/2/2 6/6/6
f 4/4/4 6/6/6 7/7/7
f 8/8/8 7/7/7 6/6/6
f 7/7/7 8/8/8 9/9/9
f 5/5/5 4/4/4 10/10/10
f 9/9/9 11/11/11 7/7/7
f 12/12/12 10/10/10 4/4/4
f 7/7/7 12/12/12 4/4/4
f 12/12/12 13/13/13 10/10/10
f 14/14/14 10/10/10 13/13/13
f 15/15/15 14/14/14 13/13/13
f 12/12/12 16/16/16 13/13/13
f 17/17/17 13/13/13 16/16/16
f 18/18/18 16/16/16 12/12/12
f 18/18/18 12/12/12 19/19/19
f 7/7/7 19/19/19 12/12/12
f 20/20/20 19/19/19 7/7/7
f 21/21/21 20/20/20 7/7/7
f 11/11/11 21/21/21 7/7/7
f 21/21/21 11/11/11 22/22/22
f 23/23/23 22/22/22 11/11/11
f 23/23/23 24/24/24 22/22/22
f 25/25/25 22/22/22 24/24/24
f 25/25/25 24/24/24 26/26/26
f 24/24/24 27/27/27 26/26/26
f 28/28/28 25/25/25 26/26/26
f 26/26/26 29/29/29 28/28/28
f 32/32/32 31/31/31 30/30/30
f 33/33/33 31/31/31 32/32/32
f 33/33/33 32/32/32 34/34/34
f 32/32/32 35/35/35 34/34/34
f 35/35/35 36/36/36 34/34/34
f 36/36/36 37/37/37 34/34/34
f 38/38/38 34/34/34 37/37/37
f 38/38/38 37/37/37 39/39/39
f 40/40/40 39/39/39 37/37/37
f 43/43/43 42/42/42 41/41/41
f 44/44/44 41/41/41 42/42/42
f 44/44/44 42/42/42 45/45/45
f 44/44/44 46/46/46 41/41/41
f 44/44/44 47/47/47 46/46/46
f 48/48/48 46/46/46 47/47/47
f 47/47/47 49/49/49 48/48/48
f 45/45/45 50/50/50 44/44/44
f 49/49/49 47/47/47 51/51/51
f 52/52/52 44/44/44 50/50/50
f 47/47/47 44/44/44 52/52/52
f 52/52/52 50/50/50 53/53/53
f 54/54/54 53/53/53 50/50/50
f 55/55/55 53/53/53 54/54/54
f 52/52/52 53/53/53 56/56/56
f 57/57/57 56/56/56 53/53/53
f 58/58/58 52/52/52 56/56/56
f 58/58/58 59/59/59 52/52/52
f 47/47/47 52/52/52 59/59/59
f 60/60/60 47/47/47 59/59/59
f 61/61/61 47/47/47 60/60/60
f 51/51/51 47/47/47 61/61/61
f 61/61/61 62/62/62 51/51/51
f 63/63/63 51/51/51 62/62/62
f 63/63/63 62/62/62 64/64/64
f 65/65/65 64/64/64 62/62/62
f 65/65/65 66/66/66 64/64/64
f 64/64/64 66/66/66 67/67/67
f 68/68/68 66/66/66 65/65/65
f 66/66/66 68/68/68 69/69/69
f 72/72/72 71/71/71 70/70/70
f 73/73/73 72/72/72 70/70/70
f 73/73/73 74/74/74 72/72/72
f 72/72/72 74/74/74 75/75/75
f 75/75/75 74/74/74 76/76/76
f 76/76/76 74/74/74 77/77/77
f 78/78/78 77/77/77 74/74/74
f 78/78/78 79/79/79 77/77/77
f 80/80/80 77/77/77 79/79/79
f 83/83/83 82/82/82 81/81/81
f 84/84/84 81/81/81 82/82/82
f 81/81/81 84/84/84 85/85/85
f 86/86/86 85/85/85 84/84/84
f 85/85/85 86/86/86 87/87/87
f 88/88/88 87/87/87 86/86/86
f 87/87/87 88/88/88 89/89/89
f 90/90/90 89/89/89 88/88/88
f 89/89/89 90/90/90 91/91/91
f 92/92/92 91/91/91 90/90/90
f 95/95/95 94/94/94 93/93/93
f 96/96/96 93/93/93 94/94/94
f 93/93/93 96/96/96 97/97/97
f 98/98/98 97/97/97 96/96/96
f 97/97/97 98/98/98 99/99/99
f 100/100/100 99/99/99 98/98/98
f 99/99/99 100/100/100 101/101/101
f 102/102/102 101/101/101 100/100/100
f 101/101/101 102/102/102 103/103/103
f 104/104/104 103/103/103 102/102/102
f 103/103/103 104/104/104 105/105/105
f 106/106/106 105/105/105 104/104/104
f 105/105/105 106/106/106 107/107/107
f 108/108/108 107/107/107 106/106/106
f 107/107/107 108/108/108 109/109/109
f 110/110/110 109/109/109 108/108/108
f 113/113/113 112/112/112 111/111/111
f 114/114/114 111/111/111 112/112/112
f 111/111/111 114/114/114 115/115/115
f 116/116/116 115/115/115 114/114/114
f 119/119/119 118/118/118 117/117/117
f 120/120/120 117/117/117 118/118/118
f 117/117/117 120/120/120 121/121/121
f 122/122/122 121/121/121 120/120/120
f 121/121/121 122/122/122 123/123/123
f 124/124/124 123/123/123 122/122/122
f 123/123/123 124/124/124 125/125/125
f 126/126/126 125/125/125 124/124/124
f 125/125/125 126/126/126 127/127/127
f 128/128/128 127/127/127 126/126/126
f 131/131/131 130/130/130 129/129/129
f 132/132/132 129/129/129 130/130/130
f 129/129/129 132/132/132 133/133/133
f 134/134/134 133/133/133 132/132/132
f 133/133/133 134/134/134 135/135/135
f 136/136/136 135/135/135 134/134/134
f 139/139/139 138/138/138 137/137/137
f 140/140/140 137/137/137 138/138/138
f 143/143/143 142/142/142 141/141/141
f 144/144/144 141/141/141 142/142/142
f 141/141/141 144/144/144 145/145/145
f 146/146/146 145/145/145 144/144/144
f 145/145/145 146/146/146 147/147/147
f 148/148/148 147/147/147 146/146/146
f 147/147/147 148/148/148 149/149/149
f 150/150/150 149/149/149 148/148/148
f 149/149/149 150/150/150 151/151/151
f 152/152/152 151/151/151 150/150/150
f 151/151/151 152/152/152 153/153/153
f 154/154/154 153/153/153 152/152/152
f 153/153/153 154/154/154 155/155/155
f 156/156/156 155/155/155 154/154/154
f 155/155/155 156/156/156 157/157/157
f 158/158/158 157/157/157 156/156/156
f 157/157/157 158/158/158 159/159/159
f 160/160/160 159/159/159 158/158/158
