g SoccerBall_Explode_Thin_04_Hull
v -0.2357924 0.1557637 -0.1802512
v -0.237297 0.1572684 -0.1900253
v -0.2290252 0.1863765 -0.1832186
v -0.2357924 0.1557637 -0.1802512
v -0.03526206 -0.1791763 -0.1577284
v -0.237297 0.1572684 -0.1900253
v 0.1941933 0.02086797 -0.07782919
v 0.1902711 -0.02684233 -0.07390698
v 0.2505663 0.02086796 -0.009064693
v -0.03659531 -0.1750128 -0.1487311
v -0.2357924 0.1557637 -0.1802512
v 0.2594063 0.0364265 0.03171492
v -0.03659531 -0.1750128 -0.1487311
v -0.03526206 -0.1791763 -0.1577284
v -0.2357924 0.1557637 -0.1802512
v -0.2275125 0.1820321 -0.1743359
v -0.2357924 0.1557637 -0.1802512
v -0.2290252 0.1863765 -0.1832186
v -0.2275125 0.1820321 -0.1743359
v 0.2594063 0.0364265 0.03171492
v -0.2357924 0.1557637 -0.1802512
v 0.2450882 0.08653606 0.01782556
v -0.2290252 0.1863765 -0.1832186
v 0.2539936 0.08787338 0.01347009
v 0.2450882 0.08653606 0.01782556
v -0.2275125 0.1820321 -0.1743359
v -0.2290252 0.1863765 -0.1832186
v 0.2450882 0.08653606 0.01782556
v 0.2594063 0.0364265 0.03171492
v -0.2275125 0.1820321 -0.1743359
v -0.01405716 -0.1665922 -0.1604095
v 0.05802957 -0.1201313 -0.1471621
v -0.008668944 -0.1299353 -0.1765739
v -0.2322586 0.1754793 -0.1879976
v -0.2290252 0.1863765 -0.1832186
v -0.237297 0.1572684 -0.1900253
v -0.2322586 0.1754793 -0.1879976
v -0.1594722 0.1625349 -0.2013325
v -0.2290252 0.1863765 -0.1832186
v -0.001308141 0.020868 -0.1986554
v 0.1099628 -0.0851286 -0.1283169
v 0.1179655 0.02086798 -0.1403205
v 0.05802957 -0.1201313 -0.1471621
v -0.008668944 -0.1299353 -0.1765739
v -0.001308141 0.020868 -0.1986554
v -0.006241801 0.1219443 -0.1838552
v -0.1317513 0.020868 -0.2198236
v -0.1594723 0.06152317 -0.2177246
v -0.1594722 0.1625349 -0.2013325
v -0.1594722 0.1625349 -0.2013325
v -0.006241801 0.1219443 -0.1838552
v -0.2290252 0.1863765 -0.1832186
v 0.1596373 0.09245443 -0.09544848
v 0.112091 0.09867771 -0.1315089
v 0.2539936 0.08787338 0.01347009
v 0.1885986 0.08892354 -0.07223442
v 0.249176 0.08717038 0.003404217
v -0.008668944 -0.1299353 -0.1765739
v -0.001308141 0.020868 -0.1986554
v -0.1317513 0.020868 -0.2198236
v -0.05215478 -0.1320578 -0.1829414
v 0.1902711 -0.02684233 -0.07390698
v 0.1179655 0.02086798 -0.1403205
v 0.1099628 -0.0851286 -0.1283169
v 0.1941933 0.02086797 -0.07782919
v 0.1902711 -0.02684233 -0.07390698
v 0.1099628 -0.0851286 -0.1283169
v 0.2505663 0.02086796 -0.009064693
v -0.03526206 -0.1791763 -0.1577284
v 0.05802957 -0.1201313 -0.1471621
v -0.01405716 -0.1665922 -0.1604095
v 0.2683116 0.03776382 0.02735947
v 0.2561503 0.02558512 -0.001245422
v 0.2683116 0.03776382 0.02735947
v 0.2594063 0.0364265 0.03171492
v 0.2539936 0.08787338 0.01347009
v 0.2450882 0.08653606 0.01782556
v 0.2683116 0.03776382 0.02735947
v -0.03526206 -0.1791763 -0.1577284
v 0.2594063 0.0364265 0.03171492
v -0.03659531 -0.1750128 -0.1487311
v -0.05215478 -0.1320578 -0.1829414
v -0.1317513 0.020868 -0.2198236
v -0.03526206 -0.1791763 -0.1577284
v -0.237297 0.1572684 -0.1900253
v -0.1594723 0.06152317 -0.2177246
v 0.112091 0.09867771 -0.1315089
v -0.001308141 0.020868 -0.1986554
v 0.1179655 0.02086798 -0.1403205
v -0.006241801 0.1219443 -0.1838552
v 0.112091 0.09867771 -0.1315089
v 0.1179655 0.02086798 -0.1403205
v 0.1596373 0.09245443 -0.09544848
v 0.1941933 0.02086797 -0.07782919
v 0.1885986 0.08892354 -0.07223442
v 0.1885986 0.08892354 -0.07223442
v 0.1941933 0.02086797 -0.07782919
v 0.2505663 0.02086796 -0.009064693
v 0.2561503 0.02558512 -0.001245422
v 0.249176 0.08717038 0.003404217
v -0.01405716 -0.1665922 -0.1604095
v -0.05215478 -0.1320578 -0.1829414
v -0.03526206 -0.1791763 -0.1577284
v -0.008668944 -0.1299353 -0.1765739
v -0.2322586 0.1754793 -0.1879976
v -0.1594723 0.06152317 -0.2177246
v -0.1594722 0.1625349 -0.2013325
v -0.237297 0.1572684 -0.1900253
v 0.249176 0.08717038 0.003404217
v 0.2683116 0.03776382 0.02735947
v 0.2539936 0.08787338 0.01347009
v 0.2561503 0.02558512 -0.001245422
vn -0.9561621 0.2290521 0.1824535
vn -0.9561621 0.2290521 0.1824535
vn -0.9561621 0.2290521 0.1824535
vn -0.8583341 -0.5102861 0.0535784
vn -0.8583341 -0.5102861 0.0535784
vn -0.8583342 -0.5102862 0.05357841
vn 0.7682202 -0.1149273 -0.6297852
vn 0.7682202 -0.1149273 -0.6297852
vn 0.7682202 -0.1149273 -0.6297852
vn -0.4220259 -0.1692784 0.8906397
vn -0.4220258 -0.1692784 0.8906397
vn -0.4220259 -0.1692784 0.8906397
vn -0.8562111 -0.5054224 0.1070078
vn -0.8562111 -0.5054223 0.1070078
vn -0.8562112 -0.5054224 0.1070078
vn -0.9334716 0.2327968 0.2728302
vn -0.9334716 0.2327968 0.2728302
vn -0.9334716 0.2327968 0.2728302
vn -0.4078501 -0.07632849 0.9098529
vn -0.4078501 -0.07632849 0.9098529
vn -0.40785 -0.07632849 0.9098529
vn 0.04001104 0.929303 0.3671444
vn 0.04001104 0.929303 0.3671444
vn 0.04001104 0.929303 0.3671444
vn 0.003089882 0.898518 0.4389257
vn 0.003089882 0.898518 0.4389257
vn 0.003089882 0.898518 0.4389257
vn -0.3443346 0.158124 0.9254352
vn -0.3443346 0.158124 0.9254352
vn -0.3443346 0.158124 0.9254352
vn 0.4173214 -0.4173216 -0.8072705
vn 0.4173214 -0.4173216 -0.8072705
vn 0.4173214 -0.4173215 -0.8072705
vn -0.9637812 0.2600777 0.05903668
vn -0.9637812 0.2600777 0.05903668
vn -0.9637812 0.2600777 0.05903668
vn -0.09014251 0.4223046 -0.9019607
vn -0.09014251 0.4223046 -0.9019607
vn -0.09014251 0.4223047 -0.9019607
vn 0.4354083 -0.13369 -0.8902509
vn 0.4354083 -0.13369 -0.8902509
vn 0.4354083 -0.13369 -0.8902509
vn 0.4239334 -0.1479141 -0.8935333
vn 0.4173856 -0.1515705 -0.8959998
vn 0.1583557 0.1506167 -0.9758269
vn 0.1583557 0.1506167 -0.9758269
vn 0.1583556 0.1506167 -0.9758269
vn 0.1543108 0.1555921 -0.9756942
vn 0.1531892 0.1582922 -0.9754367
vn 0.2719259 0.9421585 -0.1959428
vn 0.2719259 0.9421585 -0.1959433
vn 0.2719258 0.9421585 -0.1959428
vn 0.2719258 0.9421585 -0.1959428
vn 0.2719249 0.9421592 -0.1959411
vn 0.2719258 0.9421585 -0.1959428
vn 0.2719249 0.9421589 -0.1959421
vn 0.2719294 0.9421569 -0.1959456
vn 0.1583557 -0.1506158 -0.975827
vn 0.1583557 -0.1506159 -0.975827
vn 0.1583556 -0.1506158 -0.975827
vn 0.1505827 -0.1570232 -0.9760474
vn 0.6207952 -0.1343381 -0.7723773
vn 0.6207952 -0.1343381 -0.7723773
vn 0.6207951 -0.1343381 -0.7723773
vn 0.6297849 -0.1149276 -0.7682204
vn 0.5183265 -0.8438269 0.1389014
vn 0.5183324 -0.8438249 0.1388925
vn 0.5183324 -0.8438249 0.1388925
vn 0.5183324 -0.8438249 0.1388925
vn 0.5183321 -0.8438249 0.1388938
vn 0.5183323 -0.843825 0.1388921
vn 0.5183302 -0.8438253 0.1388977
vn 0.5183347 -0.8438233 0.1388938
vn 0.3701025 0.3448506 0.8626136
vn 0.3701026 0.3448506 0.8626136
vn 0.3701025 0.3448506 0.8626136
vn 0.3701048 0.3448505 0.8626127
vn 0.3362654 -0.8376992 0.4303321
vn 0.3362654 -0.8376992 0.4303321
vn 0.3362654 -0.8376992 0.4303321
vn 0.3316018 -0.8365071 0.4362294
vn -0.7601475 -0.4966811 -0.4189075
vn -0.760147 -0.4966812 -0.4189086
vn -0.760147 -0.4966811 -0.4189086
vn -0.760147 -0.4966812 -0.4189086
vn -0.7601492 -0.4966847 -0.4189004
vn 0.4354083 0.1336898 -0.8902509
vn 0.4354083 0.1336898 -0.8902509
vn 0.4354083 0.1336898 -0.8902509
vn 0.4246341 0.1514291 -0.8926114
vn 0.6099133 0.1344894 -0.7809728
vn 0.6099133 0.1344894 -0.7809728
vn 0.6099132 0.1344894 -0.7809728
vn 0.6297849 0.1149282 -0.7682203
vn 0.6297846 0.114928 -0.7682206
vn 0.7682201 0.1149279 -0.6297852
vn 0.7682201 0.1149279 -0.6297852
vn 0.7682201 0.1149279 -0.6297851
vn 0.7712463 0.1224522 -0.6246476
vn 0.7749709 0.1343861 -0.617544
vn 0.1407346 -0.4274066 -0.8930383
vn 0.1407346 -0.4274066 -0.8930383
vn 0.1407346 -0.4274065 -0.8930383
vn 0.1515701 -0.4173854 -0.896
vn -0.1506163 0.1583558 -0.9758269
vn -0.1506163 0.1583558 -0.9758269
vn -0.1506163 0.1583558 -0.9758269
vn -0.159307 0.1526808 -0.9753512
vn 0.8902501 0.1336883 -0.4354104
vn 0.8902501 0.1336883 -0.4354104
vn 0.8902501 0.1336883 -0.4354104
vn 0.8902511 0.13369 -0.4354078
g SoccerBall_Explode_Thin_04_Hull_0
f 3/3/3 2/2/2 1/1/1
f 6/6/6 5/5/5 4/4/4
f 9/9/9 8/8/8 7/7/7
f 12/12/12 11/11/11 10/10/10
f 15/15/15 14/14/14 13/13/13
f 18/18/18 17/17/17 16/16/16
f 21/21/21 20/20/20 19/19/19
f 24/24/24 23/23/23 22/22/22
f 27/27/27 26/26/26 25/25/25
f 30/30/30 29/29/29 28/28/28
f 33/33/33 32/32/32 31/31/31
f 36/36/36 35/35/35 34/34/34
f 39/39/39 38/38/38 37/37/37
f 42/42/42 41/41/41 40/40/40
f 40/40/40 41/41/41 43/43/43
f 44/44/44 40/40/40 43/43/43
f 47/47/47 46/46/46 45/45/45
f 46/46/46 47/47/47 48/48/48
f 49/49/49 46/46/46 48/48/48
f 52/52/52 51/51/51 50/50/50
f 52/52/52 53/53/53 51/51/51
f 51/51/51 53/53/53 54/54/54
f 53/53/53 52/52/52 55/55/55
f 53/53/53 55/55/55 56/56/56
f 56/56/56 55/55/55 57/57/57
f 60/60/60 59/59/59 58/58/58
f 60/60/60 58/58/58 61/61/61
f 64/64/64 63/63/63 62/62/62
f 62/62/62 63/63/63 65/65/65
f 68/68/68 67/67/67 66/66/66
f 69/69/69 67/67/67 68/68/68
f 67/67/67 69/69/69 70/70/70
f 70/70/70 69/69/69 71/71/71
f 69/69/69 68/68/68 72/72/72
f 72/72/72 68/68/68 73/73/73
f 76/76/76 75/75/75 74/74/74
f 75/75/75 76/76/76 77/77/77
f 80/80/80 79/79/79 78/78/78
f 79/79/79 80/80/80 81/81/81
f 84/84/84 83/83/83 82/82/82
f 83/83/83 84/84/84 85/85/85
f 83/83/83 85/85/85 86/86/86
f 89/89/89 88/88/88 87/87/87
f 88/88/88 90/90/90 87/87/87
f 93/93/93 92/92/92 91/91/91
f 92/92/92 93/93/93 94/94/94
f 94/94/94 93/93/93 95/95/95
f 98/98/98 97/97/97 96/96/96
f 98/98/98 96/96/96 99/99/99
f 96/96/96 100/100/100 99/99/99
f 103/103/103 102/102/102 101/101/101
f 102/102/102 104/104/104 101/101/101
f 107/107/107 106/106/106 105/105/105
f 106/106/106 108/108/108 105/105/105
f 111/111/111 110/110/110 109/109/109
f 109/109/109 110/110/110 112/112/112
