g SoccerBall_Explode_Thin_12
v -0.007169266 0.185564 0.1970682
v -0.006145248 0.1840131 0.1986487
v -0.008646316 0.1795826 0.1985453
v -0.00451828 0.1865705 0.1985779
v 0.02395676 0.2610386 0.1659421
v 0.03987564 0.2451196 0.1918627
v 0.06818932 0.2792803 0.1841838
v 0.06859855 0.2781638 0.185459
v 0.0529229 0.3283674 0.1086516
v -0.007169266 0.2921646 0.0904677
v -0.01788506 0.3028804 0.04707451
v 0.05321426 0.3265528 0.1133932
v 0.06449401 0.2921646 0.162131
v 0.02395676 0.2610386 0.1659421
v 0.06818932 0.2792803 0.1841838
v -0.1004323 -0.3030124 -0.09658682
v -0.07207176 -0.324407 -0.03480031
v -0.08580543 -0.3194924 -0.09021188
v -0.08826019 -0.2948974 0.01089749
v -0.06354019 -0.3283674 0.002657614
v -0.05684509 -0.3270449 0.01723439
v -0.07565781 -0.2864959 0.04790258
v -0.08826019 -0.2210536 0.08474132
v -0.1084904 -0.2871818 -0.1015303
v -0.1396352 -0.1783919 0.02802259
v -0.1003569 -0.1652991 0.1170958
v -0.144604 -0.2207254 -0.122733
v -0.09728454 -0.08157818 0.1505445
v -0.1617097 -0.1857504 -0.122733
v -0.157084 -0.1926244 -0.1311489
v -0.1601593 -0.1852336 -0.1333215
v -0.1751044 -0.06636941 -0.1614659
v -0.1033932 -0.02763647 0.1546171
v -0.09136581 -0.02763646 0.1692883
v -0.07923859 0.01089872 0.1770491
v -0.05229477 0.09400573 0.193224
v -0.1873682 -0.02763643 -0.1227329
v -0.1796062 -0.02763642 -0.1705645
v -0.1617097 0.06626303 -0.1869475
v -0.1617097 0.1304776 -0.1227329
v -0.1507433 0.126822 -0.1976268
v -0.1461036 0.1359527 -0.1986487
v -0.1291298 0.1970917 -0.1227329
v -0.09564018 0.2445447 -0.05427022
v -0.1617097 -0.02763646 0.0353811
v -0.08826019 0.105994 0.1445281
v -0.008646316 0.1795826 0.1985453
v -0.007169266 0.185564 0.1970682
v -0.1396352 0.1231191 0.02802259
v -0.08826019 0.2396246 0.0108976
v -0.05915245 0.2790354 0.001195183
v -0.01788506 0.3028804 0.04707451
v -0.007169266 0.2921646 0.0904677
v -0.05117172 0.2148991 0.1198026
v 0.02395676 0.2610386 0.1659421
v -0.0002160436 0.1805293 0.1913888
v -0.0007326877 0.1814238 0.1906317
v -0.001572459 0.1762911 0.1922902
v 0.001129068 0.1818499 0.1918086
v 0.02962812 0.2550661 0.1602707
v 0.04524474 0.2398116 0.1853055
v 0.07322565 0.2729908 0.1782612
v 0.07362612 0.2725241 0.1789078
v -0.0008520788 0.2855949 0.08635285
v 0.05850573 0.3207393 0.1053891
v -0.01106301 0.296354 0.04377815
v 0.05886243 0.3196977 0.1087991
v 0.06964085 0.2853075 0.1569842
v 0.02962812 0.2550661 0.1602707
v 0.07322565 0.2729908 0.1782612
v -0.06435625 -0.3181773 -0.03608989
v -0.09192018 -0.2979399 -0.09793374
v -0.07814197 -0.3132099 -0.09155405
v -0.08012319 -0.2897073 0.008279878
v -0.0560516 -0.3222244 0.0001708688
v -0.04985844 -0.3209588 0.01347325
v -0.06756253 -0.2820016 0.0441253
v -0.08014346 -0.2169233 0.08061104
v -0.09953681 -0.2829536 -0.1029284
v -0.1305153 -0.1754912 0.02512194
v -0.09158748 -0.1629779 0.1128876
v -0.1356937 -0.2163675 -0.1240042
v -0.08840614 -0.08024032 0.1461418
v -0.1521709 -0.1827487 -0.1227654
v -0.1481611 -0.1883315 -0.1297508
v -0.1506502 -0.1825399 -0.1317977
v -0.165346 -0.06481061 -0.159935
v -0.09495311 -0.027585 0.1492541
v -0.08363344 -0.02780271 0.1629493
v -0.07144311 0.009576195 0.1709269
v -0.04478217 0.09159195 0.1870811
v -0.1521709 -0.027604 0.0323794
v -0.1773682 -0.02763643 -0.1227329
v -0.1697382 -0.02787687 -0.1689631
v -0.1519554 0.06470529 -0.1853897
v -0.1521709 0.1274759 -0.1227005
v -0.1413526 0.1237418 -0.1961014
v -0.1372238 0.1316097 -0.1971365
v -0.1201597 0.1927045 -0.1232711
v -0.08695374 0.2397761 -0.05561395
v -0.08008865 0.1034516 0.1393549
v -0.001572459 0.1762911 0.1922902
v -0.0007326877 0.1814238 0.1906317
v -0.130486 0.1202651 0.02516856
v -0.08008865 0.2344514 0.008355247
v -0.05172195 0.2728933 -0.001462154
v -0.01106301 0.296354 0.04377815
v -0.0008520788 0.2855949 0.08635285
v -0.04372265 0.2101815 0.115085
v 0.02962812 0.2550661 0.1602707
v -0.006145248 0.1840131 0.1986487
v -0.001572459 0.1762911 0.1922902
v -0.008646316 0.1795826 0.1985453
v -0.0002160436 0.1805293 0.1913888
v -0.00451828 0.1865705 0.1985779
v 0.001129068 0.1818499 0.1918086
v 0.03987564 0.2451196 0.1918627
v 0.04524474 0.2398116 0.1853055
v 0.06859855 0.2781638 0.185459
v 0.07362612 0.2725241 0.1789078
v -0.04478217 0.09159195 0.1870811
v -0.008646316 0.1795826 0.1985453
v -0.001572459 0.1762911 0.1922902
v -0.05229477 0.09400573 0.193224
v -0.07144311 0.009576195 0.1709269
v -0.07923859 0.01089872 0.1770491
v -0.08363344 -0.02780271 0.1629493
v -0.09136581 -0.02763646 0.1692883
v -0.08840614 -0.08024032 0.1461418
v -0.09728454 -0.08157818 0.1505445
v -0.09158748 -0.1629779 0.1128876
v -0.1003569 -0.1652991 0.1170958
v -0.08014346 -0.2169233 0.08061104
v -0.08826019 -0.2210536 0.08474132
v -0.06756253 -0.2820016 0.0441253
v -0.07565781 -0.2864959 0.04790258
v -0.04985844 -0.3209588 0.01347325
v -0.05684509 -0.3270449 0.01723439
v 0.05886243 0.3196977 0.1087991
v 0.0529229 0.3283674 0.1086516
v 0.05850573 0.3207393 0.1053891
v 0.05321426 0.3265528 0.1133932
v 0.06964085 0.2853075 0.1569842
v 0.06449401 0.2921646 0.162131
v 0.07322565 0.2729908 0.1782612
v 0.06818932 0.2792803 0.1841838
v -0.01788506 0.3028804 0.04707451
v 0.05850573 0.3207393 0.1053891
v 0.0529229 0.3283674 0.1086516
v -0.01106301 0.296354 0.04377815
v -0.05915245 0.2790354 0.001195183
v -0.01106301 0.296354 0.04377815
v -0.01788506 0.3028804 0.04707451
v -0.05172195 0.2728933 -0.001462154
v -0.09564018 0.2445447 -0.05427022
v -0.08695374 0.2397761 -0.05561395
v -0.1291298 0.1970917 -0.1227329
v -0.1201597 0.1927045 -0.1232711
v -0.1461036 0.1359527 -0.1986487
v -0.1372238 0.1316097 -0.1971365
v 0.06818932 0.2792803 0.1841838
v 0.07362612 0.2725241 0.1789078
v 0.06859855 0.2781638 0.185459
v 0.07322565 0.2729908 0.1782612
v -0.1507433 0.126822 -0.1976268
v -0.1372238 0.1316097 -0.1971365
v -0.1461036 0.1359527 -0.1986487
v -0.1413526 0.1237418 -0.1961014
v -0.1617097 0.06626303 -0.1869475
v -0.1519554 0.06470529 -0.1853897
v -0.1796062 -0.02763642 -0.1705645
v -0.1697382 -0.02787687 -0.1689631
v -0.1751044 -0.06636941 -0.1614659
v -0.165346 -0.06481061 -0.159935
v -0.1601593 -0.1852336 -0.1333215
v -0.1506502 -0.1825399 -0.1317977
v -0.157084 -0.1926244 -0.1311489
v -0.1481611 -0.1883315 -0.1297508
v -0.144604 -0.2207254 -0.122733
v -0.1356937 -0.2163675 -0.1240042
v -0.1084904 -0.2871818 -0.1015303
v -0.09953681 -0.2829536 -0.1029284
v -0.1004323 -0.3030124 -0.09658682
v -0.09192018 -0.2979399 -0.09793374
v -0.08580543 -0.3194924 -0.09021188
v -0.07814197 -0.3132099 -0.09155405
v -0.07207176 -0.324407 -0.03480031
v -0.07814197 -0.3132099 -0.09155405
v -0.08580543 -0.3194924 -0.09021188
v -0.06435625 -0.3181773 -0.03608989
v -0.06354019 -0.3283674 0.002657614
v -0.0560516 -0.3222244 0.0001708688
v -0.05684509 -0.3270449 0.01723439
v -0.04985844 -0.3209588 0.01347325
vt 0.60668 0.37153
vt 0.6058485 0.3709034
vt 0.6038069 0.3721063
vt 0.6069689 0.3701548
vt 0.6444 0.36115
vt 0.634291 0.350903
vt 0.6507822 0.3391259
vt 0.6501321 0.3387895
vt 0.7137266 0.06045546
vt 0.68203 0.06441998
vt 0.6778269 0.0856424
vt 0.7137123 0.05805849
vt 0.7145876 0.03166746
vt 0.69235 0.02625995
vt 0.7146846 0.02007118
vt 0.1865104 0.06452564
vt 0.2137558 0.05162028
vt 0.1892166 0.05529022
vt 0.2342399 0.06717997
vt 0.2320801 0.04892138
vt 0.2390617 0.04890295
vt 0.2516882 0.06994927
vt 0.2672908 0.1000319
vt 0.1839672 0.07203022
vt 0.23937 0.12183
vt 0.2811751 0.1254998
vt 0.1750908 0.1033689
vt 0.2962326 0.1619987
vt 0.17517 0.11976
vt 0.1714265 0.1164933
vt 0.1706615 0.1199391
vt 0.1588117 0.1698073
vt 0.29771 0.18594
vt 0.3058366 0.1859997
vt 0.3104859 0.204316
vt 0.3204772 0.2422854
vt 0.17535 0.18623
vt 0.1552359 0.1862935
vt 0.1484594 0.2257899
vt 0.17554 0.2527
vt 0.1436361 0.2516766
vt 0.1432208 0.2559667
vt 0.1756853 0.2839299
vt 0.2061093 0.3065558
vt 0.24182 0.18603
vt 0.29409 0.24513
vt 0.3266667 0.2850393
vt 0.32608 0.28791
vt 0.23971 0.25021
vt 0.23496 0.30461
vt 0.232791 0.3259863
vt 0.2571405 0.3407337
vt 0.27794 0.33635
vt 0.28597 0.29619
vt 0.31556 0.3256
vt 0.6058485 0.3709034
vt 0.60668 0.37153
vt 0.6038069 0.3721063
vt 0.6069689 0.3701548
vt 0.6444 0.36115
vt 0.634291 0.350903
vt 0.6507822 0.3391259
vt 0.6501321 0.3387895
vt 0.68203 0.06441998
vt 0.7137266 0.06045546
vt 0.6778269 0.0856424
vt 0.7137123 0.05805849
vt 0.7145876 0.03166746
vt 0.69235 0.02625995
vt 0.7146846 0.02007118
vt 0.2137558 0.05162028
vt 0.1865104 0.06452564
vt 0.1892166 0.05529022
vt 0.2342399 0.06717997
vt 0.2320801 0.04892138
vt 0.2390617 0.04890295
vt 0.2516882 0.06994927
vt 0.2672908 0.1000319
vt 0.1839672 0.07203022
vt 0.23937 0.12183
vt 0.2811751 0.1254998
vt 0.1750908 0.1033689
vt 0.2962326 0.1619987
vt 0.17517 0.11976
vt 0.1714265 0.1164933
vt 0.1706615 0.1199391
vt 0.1588117 0.1698073
vt 0.29771 0.18594
vt 0.3058366 0.1859997
vt 0.3104859 0.204316
vt 0.3204772 0.2422854
vt 0.24182 0.18603
vt 0.17535 0.18623
vt 0.1552359 0.1862935
vt 0.1484594 0.2257899
vt 0.17554 0.2527
vt 0.1436361 0.2516766
vt 0.1432208 0.2559667
vt 0.1756853 0.2839299
vt 0.2061093 0.3065558
vt 0.29409 0.24513
vt 0.3266667 0.2850393
vt 0.32608 0.28791
vt 0.23971 0.25021
vt 0.23496 0.30461
vt 0.232791 0.3259863
vt 0.2571405 0.3407337
vt 0.27794 0.33635
vt 0.28597 0.29619
vt 0.31556 0.3256
vt 0.6058485 0.3709034
vt 0.6038069 0.3721063
vt 0.6038069 0.3721063
vt 0.6058485 0.3709034
vt 0.6069689 0.3701548
vt 0.6069689 0.3701548
vt 0.634291 0.350903
vt 0.634291 0.350903
vt 0.6501321 0.3387895
vt 0.6501321 0.3387895
vt 0.3204772 0.2422854
vt 0.3266667 0.2850393
vt 0.3266667 0.2850393
vt 0.3204772 0.2422854
vt 0.3104859 0.204316
vt 0.3104859 0.204316
vt 0.3058366 0.1859997
vt 0.3058366 0.1859997
vt 0.2962326 0.1619987
vt 0.2962326 0.1619987
vt 0.2811751 0.1254998
vt 0.2811751 0.1254998
vt 0.2672908 0.1000319
vt 0.2672908 0.1000319
vt 0.2516882 0.06994927
vt 0.2516882 0.06994927
vt 0.2390617 0.04890295
vt 0.2390617 0.04890295
vt 0.7137123 0.05805849
vt 0.7137266 0.06045546
vt 0.7137266 0.06045546
vt 0.7137123 0.05805849
vt 0.7145876 0.03166746
vt 0.7145876 0.03166746
vt 0.7146846 0.02007118
vt 0.7146846 0.02007118
vt 0.6778269 0.0856424
vt 0.7137266 0.06045546
vt 0.7137266 0.06045546
vt 0.6778269 0.0856424
vt 0.232791 0.3259863
vt 0.2571405 0.3407337
vt 0.2571405 0.3407337
vt 0.232791 0.3259863
vt 0.2061093 0.3065558
vt 0.2061093 0.3065558
vt 0.1756853 0.2839299
vt 0.1756853 0.2839299
vt 0.1432208 0.2559667
vt 0.1432208 0.2559667
vt 0.6507822 0.3391259
vt 0.6501321 0.3387895
vt 0.6501321 0.3387895
vt 0.6507822 0.3391259
vt 0.1436361 0.2516766
vt 0.1432208 0.2559667
vt 0.1432208 0.2559667
vt 0.1436361 0.2516766
vt 0.1484594 0.2257899
vt 0.1484594 0.2257899
vt 0.1552359 0.1862935
vt 0.1552359 0.1862935
vt 0.1588117 0.1698073
vt 0.1588117 0.1698073
vt 0.1706615 0.1199391
vt 0.1706615 0.1199391
vt 0.1714265 0.1164933
vt 0.1714265 0.1164933
vt 0.1750908 0.1033689
vt 0.1750908 0.1033689
vt 0.1839672 0.07203022
vt 0.1839672 0.07203022
vt 0.1865104 0.06452564
vt 0.1865104 0.06452564
vt 0.1892166 0.05529022
vt 0.1892166 0.05529022
vt 0.2137558 0.05162028
vt 0.1892166 0.05529022
vt 0.1892166 0.05529022
vt 0.2137558 0.05162028
vt 0.2320801 0.04892138
vt 0.2320801 0.04892138
vt 0.2390617 0.04890295
vt 0.2390617 0.04890295
vn -0.6436577 0.4140223 0.6436538
vn -0.5929205 0.3483847 0.7259982
vn -0.7073857 0.3291518 0.6255115
vn -0.5647348 0.4720582 0.676931
vn -0.5671368 0.5972537 0.5671368
vn -0.5369101 0.5308025 0.6557258
vn -0.5036338 0.6289505 0.592262
vn -0.5027568 0.5639672 0.6551156
vn -0.5582827 0.7628149 0.326242
vn -0.6317186 0.6569718 0.4114846
vn -0.682205 0.6526384 0.3296351
vn -0.564817 0.6855116 0.4594078
vn -0.5146829 0.6857126 0.5146839
vn -0.5671368 0.5972537 0.5671368
vn -0.5036338 0.6289505 0.592262
vn -0.8512101 -0.5072469 0.1346921
vn -0.7715507 -0.6229602 0.1289577
vn -0.7663462 -0.628251 0.1342171
vn -0.8137011 -0.5190101 0.2617615
vn -0.748859 -0.6143056 0.2486745
vn -0.6986654 -0.6086085 0.3761145
vn -0.8095272 -0.4494296 0.3777283
vn -0.8116733 -0.4130295 0.4130291
vn -0.8953633 -0.4228215 0.139809
vn -0.9119887 -0.290066 0.2900659
vn -0.8769421 -0.2321238 0.420822
vn -0.8910272 -0.4357876 0.1271203
vn -0.8878407 -0.1337848 0.4402734
vn -0.9538804 -0.3001696 0.003245721
vn -0.8922822 -0.4292857 -0.1398069
vn -0.9509053 -0.2693658 -0.1523849
vn -0.9758396 -0.1558795 -0.1530968
vn -0.8440133 -0.005146992 0.5362977
vn -0.7732369 0.01662524 0.6338992
vn -0.7795476 0.1322524 0.6122213
vn -0.7512601 0.2413787 0.6142837
vn -1 -1.372047E-07 -1.001224E-07
vn -0.9868019 0.02404481 -0.1601366
vn -0.9754326 0.1557745 -0.1557745
vn -0.9538803 0.3001696 -0.003245778
vn -0.9390715 0.3080205 -0.1525393
vn -0.8879843 0.4342989 -0.1512226
vn -0.8970132 0.4387153 0.05381495
vn -0.8686441 0.4768662 0.1343734
vn -0.9538803 -0.003245764 0.3001697
vn -0.8171553 0.2542349 0.5173219
vn -0.7073857 0.3291518 0.6255115
vn -0.6436577 0.4140223 0.6436538
vn -0.9149261 0.2854034 0.2854035
vn -0.8171553 0.5173218 0.2542351
vn -0.7430503 0.6142165 0.2657337
vn -0.682205 0.6526384 0.3296351
vn -0.6317186 0.6569718 0.4114846
vn -0.7449073 0.4717589 0.4717592
vn -0.5671368 0.5972537 0.5671368
vn 0.5486981 -0.3323592 -0.7671165
vn 0.6327128 -0.4084095 -0.6579333
vn 0.7058095 -0.3218277 -0.6310783
vn 0.5497068 -0.4652206 -0.6938243
vn 0.5663837 -0.5974105 -0.5677237
vn 0.5356574 -0.5299541 -0.6574343
vn 0.4930647 -0.6192158 -0.611113
vn 0.4752411 -0.5470854 -0.6890888
vn 0.631236 -0.6574122 -0.411522
vn 0.5555403 -0.7747034 -0.3020096
vn 0.6813109 -0.654049 -0.3286872
vn 0.564391 -0.6921557 -0.4498704
vn 0.51364 -0.686993 -0.5140179
vn 0.5663837 -0.5974105 -0.5677237
vn 0.4930647 -0.6192158 -0.611113
vn 0.7695615 0.6256505 -0.1278147
vn 0.8517876 0.506551 -0.1336562
vn 0.7628391 0.6327758 -0.1329328
vn 0.8130231 0.5200361 -0.261832
vn 0.7472662 0.6155946 -0.2502729
vn 0.6954187 0.6104581 -0.3791226
vn 0.8073896 0.4513936 -0.3799552
vn 0.8030624 0.4201571 -0.4225621
vn 0.895884 0.4221314 -0.1385532
vn 0.9118651 0.2903575 -0.290163
vn 0.8761198 0.2322066 -0.4224857
vn 0.8898864 0.4378531 -0.128011
vn 0.8863309 0.1357997 -0.4426918
vn 0.9530061 0.3029237 0.0040559
vn 0.8869725 0.4316624 0.164156
vn 0.9456078 0.2799593 0.1656765
vn 0.9748026 0.1573464 0.1581205
vn 0.8431698 0.004751775 -0.5376264
vn 0.7705848 -0.01498721 -0.6371612
vn 0.7744112 -0.1286537 -0.6194639
vn 0.750317 -0.2412525 -0.6154848
vn 0.9538009 0.003201882 -0.3004225
vn 0.9999983 0.0002682394 0.001806837
vn 0.9863875 -0.02233138 0.162914
vn 0.975081 -0.1551102 0.1586124
vn 0.953749 -0.3005727 0.004348926
vn 0.9371477 -0.3130853 0.1540509
vn 0.884899 -0.4398446 0.153266
vn 0.8963281 -0.440332 -0.05199884
vn 0.867689 -0.4789826 -0.1330095
vn 0.8167288 -0.2543927 -0.5179175
vn 0.7058095 -0.3218277 -0.6310783
vn 0.6327128 -0.4084095 -0.6579333
vn 0.9147641 -0.285663 -0.285663
vn 0.8168551 -0.5178432 -0.2541379
vn 0.7426236 -0.6154365 -0.2640988
vn 0.6813109 -0.654049 -0.3286872
vn 0.631236 -0.6574122 -0.411522
vn 0.7447031 -0.4718777 -0.4719626
vn 0.5663837 -0.5974105 -0.5677237
vn 0.6126141 -0.3205763 0.7224506
vn 0.6205214 -0.2458436 0.744657
vn 0.5383462 -0.3223318 0.7786434
vn 0.6044897 -0.3452158 0.7179263
vn 0.5865639 -0.3808381 0.7147763
vn 0.474931 -0.4839735 0.7349899
vn 0.5678163 -0.3485592 0.7457152
vn 0.567571 -0.3484081 0.7459724
vn 0.5712549 -0.3508243 0.7420176
vn 0.5719393 -0.3512381 0.7412943
vn 0.5342574 -0.3243323 0.7806264
vn 0.5383462 -0.3223318 0.7786434
vn 0.6205214 -0.2458436 0.744657
vn 0.5347708 -0.3242971 0.7802893
vn 0.5458202 -0.3343208 0.7683164
vn 0.5502496 -0.3338147 0.7653712
vn 0.5945703 -0.3138263 0.7402696
vn 0.5897136 -0.3167581 0.7429012
vn 0.466431 -0.3392095 0.8169327
vn 0.4591039 -0.3412917 0.8202095
vn 0.4786117 -0.3577183 0.8018532
vn 0.4832748 -0.354149 0.8006397
vn 0.55123 -0.3259273 0.7680605
vn 0.5542412 -0.3238059 0.7667897
vn 0.5463746 -0.3393751 0.7657018
vn 0.5508415 -0.3339708 0.7648772
vn 0.6171984 -0.27458 0.7373412
vn 0.6256456 -0.2647332 0.7338146
vn 0.8195448 0.5517977 0.1544852
vn 0.8148356 0.5607336 0.1470396
vn 0.8211998 0.5640619 0.0864012
vn 0.8169467 0.5475631 0.1810322
vn 0.84213 0.5142677 0.1623134
vn 0.843061 0.5130851 0.1612197
vn 0.8109675 0.5807171 0.0714094
vn 0.8344945 0.524082 0.170167
vn 0.3377196 0.6771065 -0.6538137
vn 0.3938102 0.5971874 -0.6987709
vn 0.3975525 0.5911103 -0.7018123
vn 0.335515 0.6802157 -0.651718
vn 0.3332777 0.683682 -0.6492342
vn 0.335515 0.6802157 -0.651718
vn 0.3377196 0.6771065 -0.6538137
vn 0.3316405 0.6852232 -0.6484472
vn 0.2961034 0.7135116 -0.6349992
vn 0.2948707 0.7147039 -0.6342314
vn 0.3061568 0.7057279 -0.638918
vn 0.3103432 0.7038427 -0.6389776
vn 0.417055 0.6513152 -0.6339191
vn 0.4243706 0.6471662 -0.6333132
vn 0.8344945 0.524082 0.170167
vn 0.7807714 0.6248007 0.004488655
vn 0.8319518 0.5214638 0.1895567
vn 0.8109675 0.5807171 0.0714094
vn 0.09572895 -0.1786797 -0.9792392
vn 0.09520091 -0.1683644 -0.9811168
vn 0.09102743 -0.1563353 -0.9835005
vn 0.09929366 -0.1858205 -0.9775538
vn 0.1226506 -0.1956167 -0.9729805
vn 0.1249323 -0.1962998 -0.9725524
vn 0.1509118 -0.2047885 -0.9671026
vn 0.1543409 -0.2054163 -0.9664279
vn 0.1813864 -0.208339 -0.9610899
vn 0.1847121 -0.2085449 -0.9604117
vn 0.2089297 -0.1987004 -0.9575315
vn 0.2229896 -0.2067117 -0.952652
vn 0.23141 -0.1931854 -0.9534824
vn 0.2202973 -0.2059696 -0.9534389
vn 0.01526696 -0.2554042 -0.9667138
vn -0.012934 -0.2568949 -0.9663528
vn -0.00526005 -0.3025045 -0.9531334
vn -0.0001489586 -0.3029469 -0.9530075
vn 0.03080709 -0.313785 -0.9489942
vn 0.04314238 -0.3126923 -0.9488742
vn 0.07826835 -0.3164985 -0.9453585
vn 0.09095245 -0.31292 -0.9454146
vn 0.5913789 -0.7767501 -0.2166341
vn 0.5955032 -0.7736768 -0.2163334
vn 0.5960409 -0.7732691 -0.2163105
vn 0.5897634 -0.777912 -0.2168683
vn 0.5797465 -0.7879455 -0.207451
vn 0.5782114 -0.7890065 -0.2077026
vn 0.5821177 -0.78916 -0.1958714
vn 0.5820331 -0.7892174 -0.1958915
g SoccerBall_Explode_Thin_12_0
f 3/3/3 2/2/2 1/1/1
f 1/1/1 2/2/2 4/4/4
f 1/1/1 4/4/4 5/5/5
f 6/6/6 5/5/5 4/4/4
f 5/5/5 6/6/6 7/7/7
f 8/8/8 7/7/7 6/6/6
f 11/11/11 10/10/10 9/9/9
f 12/12/12 9/9/9 10/10/10
f 10/10/10 13/13/13 12/12/12
f 10/10/10 14/14/14 13/13/13
f 15/15/15 13/13/13 14/14/14
f 18/18/18 17/17/17 16/16/16
f 19/19/19 16/16/16 17/17/17
f 19/19/19 17/17/17 20/20/20
f 20/20/20 21/21/21 19/19/19
f 22/22/22 19/19/19 21/21/21
f 22/22/22 23/23/23 19/19/19
f 16/16/16 19/19/19 24/24/24
f 25/25/25 24/24/24 19/19/19
f 23/23/23 26/26/26 19/19/19
f 25/25/25 19/19/19 26/26/26
f 24/24/24 25/25/25 27/27/27
f 26/26/26 28/28/28 25/25/25
f 29/29/29 27/27/27 25/25/25
f 29/29/29 30/30/30 27/27/27
f 31/31/31 30/30/30 29/29/29
f 31/31/31 29/29/29 32/32/32
f 33/33/33 25/25/25 28/28/28
f 33/33/33 28/28/28 34/34/34
f 34/34/34 35/35/35 33/33/33
f 35/35/35 36/36/36 33/33/33
f 37/37/37 32/32/32 29/29/29
f 37/37/37 38/38/38 32/32/32
f 38/38/38 37/37/37 39/39/39
f 40/40/40 39/39/39 37/37/37
f 41/41/41 39/39/39 40/40/40
f 41/41/41 40/40/40 42/42/42
f 43/43/43 42/42/42 40/40/40
f 43/43/43 40/40/40 44/44/44
f 25/25/25 45/45/45 29/29/29
f 45/45/45 25/25/25 33/33/33
f 37/37/37 29/29/29 45/45/45
f 46/46/46 33/33/33 36/36/36
f 33/33/33 46/46/46 45/45/45
f 36/36/36 47/47/47 46/46/46
f 48/48/48 46/46/46 47/47/47
f 45/45/45 49/49/49 37/37/37
f 40/40/40 37/37/37 49/49/49
f 49/49/49 45/45/45 46/46/46
f 50/50/50 44/44/44 40/40/40
f 49/49/49 50/50/50 40/40/40
f 50/50/50 51/51/51 44/44/44
f 51/51/51 50/50/50 52/52/52
f 53/53/53 52/52/52 50/50/50
f 54/54/54 46/46/46 48/48/48
f 46/46/46 54/54/54 49/49/49
f 50/50/50 49/49/49 54/54/54
f 54/54/54 53/53/53 50/50/50
f 48/48/48 55/55/55 54/54/54
f 53/53/53 54/54/54 55/55/55
f 58/58/58 57/57/57 56/56/56
f 57/57/57 59/59/59 56/56/56
f 57/57/57 60/60/60 59/59/59
f 61/61/61 59/59/59 60/60/60
f 60/60/60 62/62/62 61/61/61
f 63/63/63 61/61/61 62/62/62
f 66/66/66 65/65/65 64/64/64
f 67/67/67 64/64/64 65/65/65
f 64/64/64 67/67/67 68/68/68
f 64/64/64 68/68/68 69/69/69
f 70/70/70 69/69/69 68/68/68
f 73/73/73 72/72/72 71/71/71
f 74/74/74 71/71/71 72/72/72
f 74/74/74 75/75/75 71/71/71
f 75/75/75 74/74/74 76/76/76
f 77/77/77 76/76/76 74/74/74
f 77/77/77 74/74/74 78/78/78
f 72/72/72 79/79/79 74/74/74
f 80/80/80 74/74/74 79/79/79
f 78/78/78 74/74/74 81/81/81
f 80/80/80 81/81/81 74/74/74
f 79/79/79 82/82/82 80/80/80
f 81/81/81 80/80/80 83/83/83
f 84/84/84 80/80/80 82/82/82
f 84/84/84 82/82/82 85/85/85
f 86/86/86 84/84/84 85/85/85
f 86/86/86 87/87/87 84/84/84
f 88/88/88 83/83/83 80/80/80
f 88/88/88 89/89/89 83/83/83
f 89/89/89 88/88/88 90/90/90
f 90/90/90 88/88/88 91/91/91
f 80/80/80 84/84/84 92/92/92
f 92/92/92 88/88/88 80/80/80
f 93/93/93 84/84/84 87/87/87
f 93/93/93 92/92/92 84/84/84
f 93/93/93 87/87/87 94/94/94
f 94/94/94 95/95/95 93/93/93
f 96/96/96 93/93/93 95/95/95
f 97/97/97 96/96/96 95/95/95
f 97/97/97 98/98/98 96/96/96
f 99/99/99 96/96/96 98/98/98
f 99/99/99 100/100/100 96/96/96
f 101/101/101 91/91/91 88/88/88
f 88/88/88 92/92/92 101/101/101
f 91/91/91 101/101/101 102/102/102
f 103/103/103 102/102/102 101/101/101
f 92/92/92 93/93/93 104/104/104
f 96/96/96 104/104/104 93/93/93
f 104/104/104 101/101/101 92/92/92
f 105/105/105 96/96/96 100/100/100
f 104/104/104 96/96/96 105/105/105
f 105/105/105 100/100/100 106/106/106
f 106/106/106 107/107/107 105/105/105
f 108/108/108 105/105/105 107/107/107
f 109/109/109 103/103/103 101/101/101
f 101/101/101 104/104/104 109/109/109
f 105/105/105 109/109/109 104/104/104
f 109/109/109 105/105/105 108/108/108
f 103/103/103 109/109/109 110/110/110
f 108/108/108 110/110/110 109/109/109
f 113/113/113 112/112/112 111/111/111
f 114/114/114 111/111/111 112/112/112
f 111/111/111 114/114/114 115/115/115
f 116/116/116 115/115/115 114/114/114
f 115/115/115 116/116/116 117/117/117
f 118/118/118 117/117/117 116/116/116
f 117/117/117 118/118/118 119/119/119
f 120/120/120 119/119/119 118/118/118
f 123/123/123 122/122/122 121/121/121
f 124/124/124 121/121/121 122/122/122
f 121/121/121 124/124/124 125/125/125
f 126/126/126 125/125/125 124/124/124
f 125/125/125 126/126/126 127/127/127
f 128/128/128 127/127/127 126/126/126
f 127/127/127 128/128/128 129/129/129
f 130/130/130 129/129/129 128/128/128
f 129/129/129 130/130/130 131/131/131
f 132/132/132 131/131/131 130/130/130
f 131/131/131 132/132/132 133/133/133
f 134/134/134 133/133/133 132/132/132
f 133/133/133 134/134/134 135/135/135
f 136/136/136 135/135/135 134/134/134
f 135/135/135 136/136/136 137/137/137
f 138/138/138 137/137/137 136/136/136
f 141/141/141 140/140/140 139/139/139
f 142/142/142 139/139/139 140/140/140
f 139/139/139 142/142/142 143/143/143
f 144/144/144 143/143/143 142/142/142
f 143/143/143 144/144/144 145/145/145
f 146/146/146 145/145/145 144/144/144
f 149/149/149 148/148/148 147/147/147
f 150/150/150 147/147/147 148/148/148
f 153/153/153 152/152/152 151/151/151
f 154/154/154 151/151/151 152/152/152
f 151/151/151 154/154/154 155/155/155
f 156/156/156 155/155/155 154/154/154
f 155/155/155 156/156/156 157/157/157
f 158/158/158 157/157/157 156/156/156
f 157/157/157 158/158/158 159/159/159
f 160/160/160 159/159/159 158/158/158
f 163/163/163 162/162/162 161/161/161
f 164/164/164 161/161/161 162/162/162
f 167/167/167 166/166/166 165/165/165
f 168/168/168 165/165/165 166/166/166
f 165/165/165 168/168/168 169/169/169
f 170/170/170 169/169/169 168/168/168
f 169/169/169 170/170/170 171/171/171
f 172/172/172 171/171/171 170/170/170
f 171/171/171 172/172/172 173/173/173
f 174/174/174 173/173/173 172/172/172
f 173/173/173 174/174/174 175/175/175
f 176/176/176 175/175/175 174/174/174
f 175/175/175 176/176/176 177/177/177
f 178/178/178 177/177/177 176/176/176
f 177/177/177 178/178/178 179/179/179
f 180/180/180 179/179/179 178/178/178
f 179/179/179 180/180/180 181/181/181
f 182/182/182 181/181/181 180/180/180
f 181/181/181 182/182/182 183/183/183
f 184/184/184 183/183/183 182/182/182
f 183/183/183 184/184/184 185/185/185
f 186/186/186 185/185/185 184/184/184
f 189/189/189 188/188/188 187/187/187
f 190/190/190 187/187/187 188/188/188
f 187/187/187 190/190/190 191/191/191
f 192/192/192 191/191/191 190/190/190
f 191/191/191 192/192/192 193/193/193
f 194/194/194 193/193/193 192/192/192
