g SoccerBall_Explode_Thin_01_Hull
v 0.1157071 0.1691224 -0.001745987
v -0.1286805 0.05703257 -0.2061124
v 0.1142021 0.1593463 -0.0002410459
v -0.08044338 0.1883123 0.07686766
v 0.0470564 0.1857509 0.09994692
v -0.078859 0.178549 0.0783746
v 0.04863889 0.1955026 0.09836443
v -0.08044338 0.1883123 0.07686766
v -0.003263006 0.2017814 0.08515423
v 0.04863889 0.1955026 0.09836443
v 0.0470564 0.1857509 0.09994692
v -0.08044338 0.1883123 0.07686766
v -0.1253912 0.04983693 -0.1999881
v 0.1142021 0.1593463 -0.0002410459
v -0.1286805 0.05703257 -0.2061124
v -0.1253912 0.04983693 -0.1999881
v 0.0470564 0.1857509 0.09994692
v 0.1142021 0.1593463 -0.0002410459
v 0.07866294 0.1709601 -0.02685279
v -0.003263006 0.1829561 -0.03085167
v -0.003263006 0.1546477 -0.08873222
v -0.1224464 0.06591895 -0.1990197
v -0.06799989 0.1172783 -0.1452617
v -0.1354095 0.1096445 -0.1401723
v -0.003263006 0.1829561 -0.03085167
v -0.003263006 0.2017814 0.08515423
v -0.1013567 0.1685927 -0.02606364
v -0.08044338 0.1883123 0.07686766
v -0.1354095 0.1096445 -0.1401723
v -0.003263006 0.1829561 -0.03085167
v -0.1013567 0.1685927 -0.02606364
v -0.003263006 0.1546477 -0.08873222
v -0.06799989 0.1172783 -0.1452617
v -0.1354095 0.1096445 -0.1401723
v -0.1013567 0.1685927 -0.02606364
v -0.1510163 0.07365534 -0.1745853
v -0.08044338 0.1883123 0.07686766
v -0.08044338 0.1883123 0.07686766
v -0.078859 0.178549 0.0783746
v -0.1510163 0.07365534 -0.1745853
v -0.147727 0.06645971 -0.168461
v 0.04863889 0.1955026 0.09836443
v -0.003263006 0.2017814 0.08515423
v 0.1157071 0.1691224 -0.001745987
v 0.07866294 0.1709601 -0.02685279
v -0.003263006 0.1829561 -0.03085167
v 0.04863889 0.1955026 0.09836443
v 0.1142021 0.1593463 -0.0002410459
v 0.0470564 0.1857509 0.09994692
v 0.1157071 0.1691224 -0.001745987
v -0.1253912 0.04983693 -0.1999881
v -0.1286805 0.05703257 -0.2061124
v -0.1510163 0.07365534 -0.1745853
v -0.147727 0.06645971 -0.168461
v -0.1253912 0.04983693 -0.1999881
v -0.078859 0.178549 0.0783746
v 0.0470564 0.1857509 0.09994692
v -0.147727 0.06645971 -0.168461
v 0.07866294 0.1709601 -0.02685279
v -0.003263006 0.1546477 -0.08873222
v 0.1157071 0.1691224 -0.001745987
v -0.1286805 0.05703257 -0.2061124
v -0.06799989 0.1172783 -0.1452617
v -0.1224464 0.06591895 -0.1990197
v -0.1224464 0.06591895 -0.1990197
v -0.1510163 0.07365534 -0.1745853
v -0.1286805 0.05703257 -0.2061124
v -0.1354095 0.1096445 -0.1401723
vn 0.6823891 -0.212706 -0.6993578
vn 0.6823891 -0.212706 -0.6993578
vn 0.6823891 -0.212706 -0.6993578
vn -0.1743945 0.1225006 0.9770262
vn -0.1743945 0.1225006 0.9770262
vn -0.1743945 0.1225006 0.9770262
vn -0.1713325 0.4391963 0.8819023
vn -0.1713325 0.4391963 0.8819023
vn -0.1713325 0.4391963 0.8819023
vn -0.1714525 0.184859 0.9676937
vn -0.1714525 0.184859 0.9676937
vn -0.1714525 0.184859 0.9676937
vn 0.6859345 -0.2636738 -0.6782108
vn 0.6859345 -0.2636738 -0.6782109
vn 0.6859345 -0.2636738 -0.6782108
vn 0.1415681 -0.9297408 0.3399126
vn 0.1415681 -0.9297408 0.3399126
vn 0.1415681 -0.9297408 0.3399126
vn 0.1512222 0.8879843 -0.434299
vn 0.1512222 0.8879843 -0.4342991
vn 0.1512222 0.8879843 -0.434299
vn -0.1344892 0.7809722 -0.6099139
vn -0.1344892 0.7809722 -0.6099139
vn -0.1344892 0.7809722 -0.6099139
vn -0.1506157 0.975827 -0.1583557
vn -0.1506157 0.975827 -0.1583557
vn -0.1506157 0.975827 -0.1583557
vn -0.1535675 0.9757878 -0.1557406
vn -0.1515665 0.895905 -0.4175903
vn -0.1515665 0.895905 -0.4175903
vn -0.1515665 0.895905 -0.4175903
vn -0.1336902 0.8902512 -0.4354077
vn -0.1336896 0.8902507 -0.4354088
vn -0.9502278 0.2784735 0.139713
vn -0.9502278 0.2784734 0.1397129
vn -0.9502278 0.2784735 0.139713
vn -0.9502283 0.2784704 0.1397151
vn -0.9440116 -0.1049153 0.3127858
vn -0.9440115 -0.1049153 0.3127859
vn -0.9440115 -0.1049152 0.3127858
vn -0.9332093 -0.1478486 0.3275076
vn 0.1567706 0.9758497 -0.1521193
vn 0.1567706 0.9758497 -0.1521193
vn 0.1567706 0.9758497 -0.1521193
vn 0.1540173 0.9757022 -0.1558332
vn 0.1506156 0.975827 -0.1583558
vn 0.8247545 -0.04233035 0.5639046
vn 0.8247544 -0.04233034 0.5639045
vn 0.8247545 -0.04233034 0.5639046
vn 0.8251757 -0.04029231 0.5634373
vn -0.7809777 -0.5714698 -0.2519842
vn -0.7809777 -0.5714699 -0.2519842
vn -0.7809777 -0.57147 -0.2519842
vn -0.7809775 -0.5714708 -0.251983
vn -0.02054391 -0.906161 0.4224338
vn -0.02054391 -0.9061609 0.4224337
vn -0.02054391 -0.9061609 0.4224337
vn -0.06676872 -0.9013411 0.4279323
vn 0.5518841 0.2482455 -0.7961144
vn 0.5518852 0.2482406 -0.7961152
vn 0.5518852 0.2482406 -0.7961152
vn 0.5518852 0.2482406 -0.7961152
vn 0.5518872 0.2482372 -0.7961147
vn 0.5518733 0.2482557 -0.7961187
vn -0.3287611 0.7191911 -0.6121113
vn -0.3287611 0.7191911 -0.6121113
vn -0.3287611 0.7191912 -0.6121113
vn -0.3250603 0.7234027 -0.6091177
g SoccerBall_Explode_Thin_01_Hull_0
f 3/3/3 2/2/2 1/1/1
f 6/6/6 5/5/5 4/4/4
f 9/9/9 8/8/8 7/7/7
f 12/12/12 11/11/11 10/10/10
f 15/15/15 14/14/14 13/13/13
f 18/18/18 17/17/17 16/16/16
f 21/21/21 20/20/20 19/19/19
f 24/24/24 23/23/23 22/22/22
f 27/27/27 26/26/26 25/25/25
f 26/26/26 27/27/27 28/28/28
f 31/31/31 30/30/30 29/29/29
f 30/30/30 32/32/32 29/29/29
f 29/29/29 32/32/32 33/33/33
f 36/36/36 35/35/35 34/34/34
f 35/35/35 36/36/36 37/37/37
f 40/40/40 39/39/39 38/38/38
f 39/39/39 40/40/40 41/41/41
f 44/44/44 43/43/43 42/42/42
f 43/43/43 44/44/44 45/45/45
f 46/46/46 43/43/43 45/45/45
f 49/49/49 48/48/48 47/47/47
f 48/48/48 50/50/50 47/47/47
f 53/53/53 52/52/52 51/51/51
f 53/53/53 51/51/51 54/54/54
f 57/57/57 56/56/56 55/55/55
f 55/55/55 56/56/56 58/58/58
f 61/61/61 60/60/60 59/59/59
f 61/61/61 62/62/62 60/60/60
f 60/60/60 62/62/62 63/63/63
f 63/63/63 62/62/62 64/64/64
f 67/67/67 66/66/66 65/65/65
f 66/66/66 68/68/68 65/65/65
