g SoccerBall_Explode_Thin_08_Hull
v 0.09243532 0.237079 -0.1609653
v -0.005463743 0.1712528 0.2789878
v 0.1275211 0.01831437 -0.3161452
v 0.1885448 -0.2068465 -0.05378797
v 0.1808687 -0.1011112 -0.209388
v 0.157883 -0.2520197 0.00307225
v 0.07797534 0.1939169 0.1888165
v 0.09713072 0.2429444 0.07389951
v 0.1664639 0.1021108 0.09701046
v 0.07797534 0.1939169 0.1888165
v 0.1664639 0.1021108 0.09701046
v 0.1150743 0.08498085 0.2135491
v 0.03354635 0.07214444 0.3087082
v 0.04788942 -0.04868758 0.3161252
v -0.005463743 0.1712528 0.2789878
v 0.1336604 0.1361441 -0.2386196
v 0.1275211 0.01831437 -0.3161452
v 0.1664639 0.1021108 -0.2045863
v 0.0398063 -0.07023505 0.3065073
v 0.157883 -0.2520197 0.00307225
v 0.1329332 -0.03312887 -0.2979015
v 0.0398063 -0.07023505 0.3065073
v -0.005463743 0.1712528 0.2789878
v 0.04788942 -0.04868758 0.3161252
v 0.1111446 0.2519996 -0.05378789
v 0.1302117 0.2287413 -0.05378789
v 0.09713072 0.2429444 0.07389951
v 0.06343675 0.2194457 0.1791242
v 0.09713072 0.2429444 0.07389951
v 0.07797534 0.1939169 0.1888165
v 0.1158444 0.2191629 -0.1806556
v 0.1111446 0.2519996 -0.05378789
v 0.09243532 0.237079 -0.1609653
v 0.1158444 0.2191629 -0.1806556
v 0.1302117 0.2287413 -0.05378789
v 0.1111446 0.2519996 -0.05378789
v 0.1158444 0.2191629 -0.1806556
v 0.1336604 0.1361441 -0.2386196
v 0.1664639 0.1021108 -0.2045863
v 0.1158444 0.2191629 -0.1806556
v 0.09243532 0.237079 -0.1609653
v 0.1275211 0.01831437 -0.3161452
v 0.1158444 0.2191629 -0.1806556
v 0.1275211 0.01831437 -0.3161452
v 0.1336604 0.1361441 -0.2386196
v 0.03396029 0.1645735 0.2661041
v 0.03354635 0.07214444 0.3087082
v -0.005463743 0.1712528 0.2789878
v 0.03396029 0.1645735 0.2661041
v 0.07797534 0.1939169 0.1888165
v 0.1150743 0.08498085 0.2135491
v 0.03396029 0.1645735 0.2661041
v 0.1150743 0.08498085 0.2135491
v 0.03354635 0.07214444 0.3087082
v 0.06469642 -0.08549681 0.2968401
v 0.1302117 -0.04868756 0.223641
v 0.1290516 -0.1569267 0.1927789
v 0.06469642 -0.08549681 0.2968401
v 0.04788942 -0.04868758 0.3161252
v 0.1302117 -0.04868756 0.223641
v 0.06469642 -0.08549681 0.2968401
v 0.0398063 -0.07023505 0.3065073
v 0.04788942 -0.04868758 0.3161252
v 0.1592831 -0.2157704 0.0946168
v 0.157883 -0.2520197 0.00307225
v 0.0398063 -0.07023505 0.3065073
v 0.1592831 -0.2157704 0.0946168
v 0.0398063 -0.07023505 0.3065073
v 0.06469642 -0.08549681 0.2968401
v 0.1592831 -0.2157704 0.0946168
v 0.06469642 -0.08549681 0.2968401
v 0.1290516 -0.1569267 0.1927789
v 0.1592831 -0.2157704 0.0946168
v 0.1290516 -0.1569267 0.1927789
v 0.1664639 -0.1994859 0.09701046
v 0.155264 -0.04868748 -0.2799939
v 0.1275211 0.01831437 -0.3161452
v 0.1329332 -0.03312887 -0.2979015
v 0.155264 -0.04868748 -0.2799939
v 0.1808687 -0.1011112 -0.209388
v 0.1885448 -0.04868748 -0.2119468
v 0.02310622 0.1908924 0.25525
v 0.03396029 0.1645735 0.2661041
v -0.005463743 0.1712528 0.2789878
v 0.02310622 0.1908924 0.25525
v 0.06343675 0.2194457 0.1791242
v 0.07797534 0.1939169 0.1888165
v 0.02310622 0.1908924 0.25525
v 0.07797534 0.1939169 0.1888165
v 0.03396029 0.1645735 0.2661041
v 0.1885448 -0.04868754 0.1043711
v 0.1664639 0.1021108 0.09701046
v 0.2142107 -0.04868751 -0.05378795
v 0.1885448 0.1094714 -0.05378791
v 0.1150743 0.08498085 0.2135491
v 0.1664639 0.1021108 0.09701046
v 0.1885448 -0.04868754 0.1043711
v 0.1302117 -0.04868756 0.223641
v 0.1302117 0.2287413 -0.05378789
v 0.1664639 0.1021108 0.09701046
v 0.09713072 0.2429444 0.07389951
v 0.1885448 0.1094714 -0.05378791
v 0.1329332 -0.03312887 -0.2979015
v 0.1275211 0.01831437 -0.3161452
v -0.005463743 0.1712528 0.2789878
v 0.0398063 -0.07023505 0.3065073
v 0.1885448 -0.2068465 -0.05378797
v 0.2142107 -0.04868751 -0.05378795
v 0.1808687 -0.1011112 -0.209388
v 0.1885448 -0.04868748 -0.2119468
v 0.1885448 0.1094714 -0.05378791
v 0.1664639 0.1021108 -0.2045863
v 0.2142107 -0.04868751 -0.05378795
v 0.1885448 -0.04868748 -0.2119468
v 0.1664639 -0.1994859 0.09701046
v 0.1885448 -0.2068465 -0.05378797
v 0.157883 -0.2520197 0.00307225
v 0.1592831 -0.2157704 0.0946168
v 0.1664639 -0.1994859 0.09701046
v 0.1885448 -0.04868754 0.1043711
v 0.2142107 -0.04868751 -0.05378795
v 0.1885448 -0.2068465 -0.05378797
v 0.1664639 -0.1994859 0.09701046
v 0.1290516 -0.1569267 0.1927789
v 0.1885448 -0.04868754 0.1043711
v 0.1302117 -0.04868756 0.223641
v 0.1302117 -0.04868756 0.223641
v 0.03354635 0.07214444 0.3087082
v 0.1150743 0.08498085 0.2135491
v 0.04788942 -0.04868758 0.3161252
v 0.1111446 0.2519996 -0.05378789
v -0.005463743 0.1712528 0.2789878
v 0.09243532 0.237079 -0.1609653
v 0.09713072 0.2429444 0.07389951
v 0.06343675 0.2194457 0.1791242
v 0.02310622 0.1908924 0.25525
v 0.1158444 0.2191629 -0.1806556
v 0.1885448 0.1094714 -0.05378791
v 0.1302117 0.2287413 -0.05378789
v 0.1664639 0.1021108 -0.2045863
v 0.1885448 -0.04868748 -0.2119468
v 0.1664639 0.1021108 -0.2045863
v 0.1275211 0.01831437 -0.3161452
v 0.155264 -0.04868748 -0.2799939
v 0.155264 -0.04868748 -0.2799939
v 0.157883 -0.2520197 0.00307225
v 0.1808687 -0.1011112 -0.209388
v 0.1329332 -0.03312887 -0.2979015
vn -0.9760517 -0.002238277 -0.2175275
vn -0.9760517 -0.002238277 -0.2175275
vn -0.9760517 -0.002238277 -0.2175275
vn 0.1587408 -0.8129607 -0.5602643
vn 0.1587408 -0.8129607 -0.5602643
vn 0.1587408 -0.8129607 -0.5602643
vn 0.8230164 0.4598857 0.3333903
vn 0.8230164 0.4598857 0.3333903
vn 0.8230164 0.4598857 0.3333903
vn 0.8259462 0.3765384 0.4195614
vn 0.8259462 0.3765384 0.4195614
vn 0.8259462 0.3765384 0.4195614
vn -0.6549863 -0.03140527 0.7549878
vn -0.6549863 -0.03140527 0.7549878
vn -0.6549863 -0.03140527 0.7549878
vn 0.8168334 0.2867718 -0.5005448
vn 0.8168335 0.2867718 -0.5005448
vn 0.8168334 0.2867718 -0.5005448
vn -0.9294375 -0.3307707 -0.163514
vn -0.9294375 -0.3307708 -0.163514
vn -0.9294375 -0.3307707 -0.163514
vn -0.7047359 -0.05147509 0.7075999
vn -0.7047359 -0.05147508 0.7075999
vn -0.7047359 -0.05147508 0.7075999
vn 0.7669061 0.6287107 0.128755
vn 0.7669061 0.6287107 0.128755
vn 0.7669061 0.6287107 0.128755
vn 0.7434742 0.5613908 0.363437
vn 0.7434742 0.5613908 0.363437
vn 0.7434742 0.5613908 0.363437
vn 0.4818569 0.8524616 -0.2027887
vn 0.4818569 0.8524615 -0.2027886
vn 0.4818569 0.8524616 -0.2027887
vn 0.7663457 0.6282513 -0.1342184
vn 0.7663457 0.6282513 -0.1342184
vn 0.7663457 0.6282513 -0.1342184
vn 0.8253944 0.4313972 -0.3641709
vn 0.8253944 0.4313972 -0.3641709
vn 0.8253944 0.4313972 -0.364171
vn -0.2735709 0.5269221 -0.8046813
vn -0.2735709 0.5269221 -0.8046813
vn -0.2735709 0.5269221 -0.8046812
vn -0.1246625 0.5498835 -0.8258859
vn -0.1246625 0.5498835 -0.8258858
vn -0.1246625 0.5498835 -0.8258859
vn 0.3450941 0.3916176 0.8529629
vn 0.3450942 0.3916176 0.8529629
vn 0.3450942 0.3916176 0.8529629
vn 0.7353814 0.3781153 0.5623549
vn 0.7353814 0.3781153 0.5623548
vn 0.7353814 0.3781153 0.5623548
vn 0.7059197 0.2938872 0.6444436
vn 0.7059197 0.2938872 0.6444436
vn 0.7059197 0.2938872 0.6444436
vn 0.7762692 -0.1805372 0.6039971
vn 0.7762692 -0.1805372 0.6039971
vn 0.7762692 -0.1805372 0.6039971
vn 0.7469318 -0.007287026 0.6648607
vn 0.7469318 -0.007287026 0.6648607
vn 0.7469318 -0.007287025 0.6648607
vn 0.0837313 -0.4321899 0.8978869
vn 0.0837313 -0.4321899 0.8978869
vn 0.0837313 -0.4321899 0.8978869
vn -0.4221788 -0.8406121 0.3393176
vn -0.4221788 -0.8406121 0.3393176
vn -0.4221788 -0.8406121 0.3393176
vn -0.3765422 -0.848961 0.3707847
vn -0.3765422 -0.848961 0.3707847
vn -0.3765422 -0.848961 0.3707847
vn -0.2418288 -0.8632802 0.4430193
vn -0.2418288 -0.8632802 0.4430193
vn -0.2418288 -0.8632802 0.4430192
vn 0.7719262 -0.4116032 0.4844716
vn 0.7719262 -0.4116032 0.4844716
vn 0.7719262 -0.4116032 0.4844716
vn 0.4983262 -0.2427435 -0.8323141
vn 0.4983262 -0.2427435 -0.832314
vn 0.4983262 -0.2427435 -0.832314
vn 0.8879841 -0.151221 -0.4343
vn 0.8879841 -0.151221 -0.4343
vn 0.8879841 -0.151221 -0.4343
vn 0.3450077 0.4759164 0.8089952
vn 0.3450077 0.4759164 0.8089952
vn 0.3450077 0.4759164 0.8089952
vn 0.6251354 0.561749 0.5418893
vn 0.6251354 0.561749 0.5418893
vn 0.6251354 0.561749 0.5418893
vn 0.6551172 0.502756 0.5639663
vn 0.6551172 0.502756 0.5639663
vn 0.6551172 0.502756 0.5639663
vn 0.9758269 0.1506164 0.1583561
vn 0.9758269 0.1506164 0.1583561
vn 0.9758269 0.1506164 0.1583561
vn 0.9758269 0.1583561 0.1506164
vn 0.896 0.1515711 0.417385
vn 0.896 0.1515711 0.417385
vn 0.896 0.1515711 0.417385
vn 0.8902509 0.1336901 0.4354083
vn 0.8716661 0.4578284 0.1749038
vn 0.8716661 0.4578284 0.1749038
vn 0.8716661 0.4578284 0.1749038
vn 0.887984 0.4342995 0.1512229
vn -0.9708369 -0.1641145 -0.1747629
vn -0.9708369 -0.1641145 -0.1747629
vn -0.9708369 -0.1641145 -0.1747629
vn -0.9665399 -0.1995577 -0.1611752
vn 0.9750607 -0.1582317 -0.1556257
vn 0.9750607 -0.1582317 -0.1556256
vn 0.9750607 -0.1582317 -0.1556257
vn 0.9758271 -0.1506145 -0.1583562
vn 0.9758269 0.1583562 -0.1506164
vn 0.9758269 0.1583562 -0.1506164
vn 0.9758269 0.1583562 -0.1506164
vn 0.9758269 0.1506164 -0.1583561
vn 0.896 -0.4173852 0.151571
vn 0.896 -0.4173852 0.151571
vn 0.896 -0.4173851 0.151571
vn 0.8960015 -0.4173824 0.1515693
vn 0.9758269 -0.1506164 0.158356
vn 0.9758269 -0.1506164 0.158356
vn 0.9758269 -0.1506164 0.158356
vn 0.9758269 -0.1583561 0.1506163
vn 0.8960003 -0.1515711 0.4173843
vn 0.8960003 -0.1515711 0.4173843
vn 0.8960003 -0.1515711 0.4173843
vn 0.890251 -0.1336893 0.4354082
vn 0.7436063 0.1336713 0.6551196
vn 0.7436063 0.1336713 0.6551196
vn 0.7436063 0.1336713 0.6551196
vn 0.7407681 0.1284053 0.6593744
vn -0.5808458 0.8139913 -0.006022941
vn -0.5808458 0.8139913 -0.006022942
vn -0.5882035 0.8086524 -0.009896589
vn -0.5808458 0.8139913 -0.006022941
vn -0.5741346 0.8187603 -0.0009986401
vn -0.5572648 0.8301778 0.01615069
vn 0.8902508 0.4354082 -0.1336907
vn 0.8902508 0.4354082 -0.1336907
vn 0.8902508 0.4354082 -0.1336907
vn 0.8955842 0.4182826 -0.151554
vn 0.8923306 0.1514165 -0.4252284
vn 0.8923306 0.1514166 -0.4252284
vn 0.8923306 0.1514166 -0.4252284
vn 0.8902507 0.1336905 -0.4354085
vn -0.05546506 -0.8111735 -0.5821693
vn -0.05546506 -0.8111735 -0.5821693
vn -0.05546506 -0.8111735 -0.5821694
vn -0.09833158 -0.8086755 -0.5799784
g SoccerBall_Explode_Thin_08_Hull_0
f 3/3/3 2/2/2 1/1/1
f 6/6/6 5/5/5 4/4/4
f 9/9/9 8/8/8 7/7/7
f 12/12/12 11/11/11 10/10/10
f 15/15/15 14/14/14 13/13/13
f 18/18/18 17/17/17 16/16/16
f 21/21/21 20/20/20 19/19/19
f 24/24/24 23/23/23 22/22/22
f 27/27/27 26/26/26 25/25/25
f 30/30/30 29/29/29 28/28/28
f 33/33/33 32/32/32 31/31/31
f 36/36/36 35/35/35 34/34/34
f 39/39/39 38/38/38 37/37/37
f 42/42/42 41/41/41 40/40/40
f 45/45/45 44/44/44 43/43/43
f 48/48/48 47/47/47 46/46/46
f 51/51/51 50/50/50 49/49/49
f 54/54/54 53/53/53 52/52/52
f 57/57/57 56/56/56 55/55/55
f 60/60/60 59/59/59 58/58/58
f 63/63/63 62/62/62 61/61/61
f 66/66/66 65/65/65 64/64/64
f 69/69/69 68/68/68 67/67/67
f 72/72/72 71/71/71 70/70/70
f 75/75/75 74/74/74 73/73/73
f 78/78/78 77/77/77 76/76/76
f 81/81/81 80/80/80 79/79/79
f 84/84/84 83/83/83 82/82/82
f 87/87/87 86/86/86 85/85/85
f 90/90/90 89/89/89 88/88/88
f 93/93/93 92/92/92 91/91/91
f 92/92/92 93/93/93 94/94/94
f 97/97/97 96/96/96 95/95/95
f 97/97/97 95/95/95 98/98/98
f 101/101/101 100/100/100 99/99/99
f 99/99/99 100/100/100 102/102/102
f 105/105/105 104/104/104 103/103/103
f 105/105/105 103/103/103 106/106/106
f 109/109/109 108/108/108 107/107/107
f 108/108/108 109/109/109 110/110/110
f 113/113/113 112/112/112 111/111/111
f 112/112/112 113/113/113 114/114/114
f 117/117/117 116/116/116 115/115/115
f 117/117/117 115/115/115 118/118/118
f 121/121/121 120/120/120 119/119/119
f 122/122/122 121/121/121 119/119/119
f 125/125/125 124/124/124 123/123/123
f 124/124/124 125/125/125 126/126/126
f 129/129/129 128/128/128 127/127/127
f 128/128/128 130/130/130 127/127/127
f 133/133/133 132/132/132 131/131/131
f 132/132/132 134/134/134 131/131/131
f 134/134/134 132/132/132 135/135/135
f 135/135/135 132/132/132 136/136/136
f 139/139/139 138/138/138 137/137/137
f 138/138/138 140/140/140 137/137/137
f 143/143/143 142/142/142 141/141/141
f 143/143/143 141/141/141 144/144/144
f 147/147/147 146/146/146 145/145/145
f 146/146/146 148/148/148 145/145/145
