g SoccerBall_Explode_Thin_02_Hull
v -0.1330004 -0.02682053 -0.09846539
v -0.06644971 0.0001560354 -0.1877762
v -0.05188072 0.02573818 -0.1780636
v -0.1534799 -0.0732628 -0.1052919
v -0.06644971 0.0001560354 -0.1877762
v -0.1330004 -0.02682053 -0.09846539
v -0.0626003 0.03645769 0.20508
v 0.0006779584 0.1068577 0.1688903
v 0.008232744 0.06195378 0.2666788
v -0.0626003 0.03645769 0.20508
v -0.07621177 0.0500692 0.149961
v 0.0006779584 0.1068577 0.1688903
v -0.0626003 0.03645769 0.20508
v 0.008232744 0.06195378 0.2666788
v 0.01381756 0.05432294 0.2634152
v 0.02541221 0.06975615 -0.207409
v 0.1172247 0.158251 -0.1155965
v 0.0006779584 0.1068578 -0.09846539
v 0.02541221 0.06975615 -0.207409
v 0.0006779584 0.1068578 -0.09846539
v -0.05188072 0.02573818 -0.1780636
v 0.06283102 0.1342652 0.1780261
v 0.008232744 0.06195378 0.2666788
v 0.0006779584 0.1068577 0.1688903
v 0.06283102 0.1342652 0.1780261
v 0.01381756 0.05432294 0.2634152
v 0.008232744 0.06195378 0.2666788
v 0.03889111 0.04953796 -0.242911
v -0.05188072 0.02573818 -0.1780636
v -0.06644971 0.0001560354 -0.1877762
v 0.03889111 0.04953796 -0.242911
v 0.02541221 0.06975615 -0.207409
v -0.05188072 0.02573818 -0.1780636
v 0.1343558 0.1068578 -0.2321432
v 0.1172247 0.158251 -0.1155965
v 0.02541221 0.06975615 -0.207409
v 0.1343558 0.1068578 -0.2321432
v 0.1699559 0.1659722 -0.1181703
v 0.1172247 0.158251 -0.1155965
v -0.1738845 -0.06936853 0.03521236
v -0.1481388 -0.01672796 0.03521238
v -0.140383 -0.02189867 0.1036993
v 0.1098636 0.1803334 0.03521241
v 0.156115 0.187839 0.03521241
v 0.1130362 0.170816 0.1002099
v -0.07621177 0.0500692 -0.07953618
v -0.1330004 -0.02682053 -0.09846539
v -0.05188072 0.02573818 -0.1780636
v -0.07621177 0.0500692 -0.07953618
v -0.05188072 0.02573818 -0.1780636
v 0.0006779584 0.1068578 -0.09846539
v 0.1908659 0.1856887 -0.01525548
v 0.1699559 0.1659722 -0.1181703
v 0.19245 0.175927 -0.01374879
v 0.1908659 0.1856887 -0.01525548
v 0.19245 0.175927 -0.01374879
v 0.156115 0.187839 0.03521241
v -0.1819812 -0.1348735 -0.03921734
v -0.1908642 -0.130529 -0.0407301
v -0.1738845 -0.06936853 0.03521236
v -0.1819812 -0.1348735 -0.03921734
v -0.1534799 -0.0732628 -0.1052919
v -0.1908642 -0.130529 -0.0407301
v 0.1235932 0.06385586 -0.2605446
v -0.1819812 -0.1348735 -0.03921734
v 0.01381756 0.05432294 0.2634152
v 0.1235932 0.06385586 -0.2605446
v 0.1203044 0.07105032 -0.2666679
v 0.03889111 0.04953796 -0.242911
v 0.1235932 0.06385586 -0.2605446
v 0.1343558 0.1068578 -0.2321432
v 0.1203044 0.07105032 -0.2666679
v 0.1235932 0.06385586 -0.2605446
v 0.1699559 0.1659722 -0.1181703
v 0.1343558 0.1068578 -0.2321432
v 0.1235932 0.06385586 -0.2605446
v 0.19245 0.175927 -0.01374879
v 0.1699559 0.1659722 -0.1181703
v 0.1235932 0.06385586 -0.2605446
v 0.01381756 0.05432294 0.2634152
v 0.19245 0.175927 -0.01374879
v -0.1038823 0.01260426 0.1591844
v -0.07621177 0.0500692 0.149961
v -0.0626003 0.03645769 0.20508
v 0.0006779584 0.1068577 0.1688903
v -0.07621177 0.0500692 0.149961
v -0.009414652 0.1219962 0.0352124
v -0.0856452 0.05950254 0.03521239
v 0.156115 0.187839 0.03521241
v 0.19245 0.175927 -0.01374879
v 0.1130362 0.170816 0.1002099
v 0.01381756 0.05432294 0.2634152
v 0.06283102 0.1342652 0.1780261
v -0.1534799 -0.0732628 -0.1052919
v -0.1330004 -0.02682053 -0.09846539
v -0.1908642 -0.130529 -0.0407301
v -0.1738845 -0.06936853 0.03521236
v -0.1481388 -0.01672796 0.03521238
v 0.06283102 0.1342652 0.1780261
v 0.0006779584 0.1068577 0.1688903
v 0.1130362 0.170816 0.1002099
v 0.1098636 0.1803334 0.03521241
v -0.009414652 0.1219962 0.0352124
v -0.1481388 -0.01672796 0.03521238
v -0.0856452 0.05950254 0.03521239
v -0.07621177 0.0500692 0.149961
v -0.140383 -0.02189867 0.1036993
v -0.1038823 0.01260426 0.1591844
v 0.1343558 0.1068578 -0.2321432
v 0.03889111 0.04953796 -0.242911
v 0.1203044 0.07105032 -0.2666679
v 0.02541221 0.06975615 -0.207409
v 0.1098636 0.1803334 0.03521241
v 0.1172247 0.158251 -0.1155965
v 0.156115 0.187839 0.03521241
v 0.1908659 0.1856887 -0.01525548
v 0.1699559 0.1659722 -0.1181703
v 0.1098636 0.1803334 0.03521241
v 0.0006779584 0.1068578 -0.09846539
v 0.1172247 0.158251 -0.1155965
v -0.009414652 0.1219962 0.0352124
v -0.07621177 0.0500692 -0.07953618
v -0.1481388 -0.01672796 0.03521238
v -0.1330004 -0.02682053 -0.09846539
v -0.0856452 0.05950254 0.03521239
v -0.07621177 0.0500692 -0.07953618
v 0.0006779584 0.1068578 -0.09846539
v -0.009414652 0.1219962 0.0352124
v -0.0856452 0.05950254 0.03521239
v -0.1819812 -0.1348735 -0.03921734
v -0.1738845 -0.06936853 0.03521236
v -0.140383 -0.02189867 0.1036993
v 0.01381756 0.05432294 0.2634152
v -0.1038823 0.01260426 0.1591844
v -0.0626003 0.03645769 0.20508
v -0.1819812 -0.1348735 -0.03921734
v -0.06644971 0.0001560354 -0.1877762
v -0.1534799 -0.0732628 -0.1052919
v 0.1235932 0.06385586 -0.2605446
v 0.03889111 0.04953796 -0.242911
vn -0.7353815 0.5623553 -0.3781145
vn -0.7353815 0.5623554 -0.3781145
vn -0.7353815 0.5623553 -0.3781145
vn -0.7853922 0.4139766 -0.4601984
vn -0.7853922 0.4139766 -0.4601984
vn -0.7853922 0.4139766 -0.4601985
vn -0.5851309 0.718866 0.3753046
vn -0.5851309 0.718866 0.3753046
vn -0.5851309 0.718866 0.3753046
vn -0.612111 0.719191 0.328762
vn -0.612111 0.719191 0.328762
vn -0.612111 0.719191 0.328762
vn -0.3975517 -0.5911112 0.7018121
vn -0.3975517 -0.5911112 0.7018121
vn -0.3975517 -0.5911112 0.7018121
vn -0.4195615 0.8259459 -0.376539
vn -0.4195615 0.8259459 -0.376539
vn -0.4195615 0.8259459 -0.376539
vn -0.5623538 0.7353819 -0.3781159
vn -0.5623538 0.7353819 -0.3781159
vn -0.5623538 0.7353819 -0.3781159
vn -0.4180587 0.8128638 0.4055605
vn -0.4180586 0.8128638 0.4055605
vn -0.4180587 0.8128638 0.4055605
vn 0.7199795 0.2500605 0.6473788
vn 0.7199795 0.2500605 0.6473788
vn 0.7199795 0.2500605 0.6473788
vn -0.5748612 0.5554876 -0.6008064
vn -0.5748611 0.5554875 -0.6008064
vn -0.5748611 0.5554875 -0.6008064
vn -0.5601987 0.6102087 -0.5601988
vn -0.5601987 0.6102087 -0.5601988
vn -0.5601987 0.6102087 -0.5601988
vn -0.3765391 0.8259459 -0.4195615
vn -0.3765391 0.8259459 -0.4195615
vn -0.376539 0.8259458 -0.4195615
vn -0.1515706 0.896 -0.4173851
vn -0.1515707 0.896 -0.4173852
vn -0.1515706 0.896 -0.4173851
vn -0.890251 0.4354083 0.1336896
vn -0.890251 0.4354083 0.1336896
vn -0.890251 0.4354083 0.1336896
vn -0.1583555 0.9758268 0.1506172
vn -0.1583555 0.9758268 0.1506172
vn -0.1583555 0.9758268 0.1506172
vn -0.7191913 0.6121112 -0.328761
vn -0.7191913 0.6121112 -0.328761
vn -0.7191913 0.6121112 -0.328761
vn -0.6121112 0.7191913 -0.3287609
vn -0.6121113 0.7191913 -0.3287609
vn -0.6121112 0.7191913 -0.3287609
vn 0.9676665 0.1230502 -0.2201819
vn 0.9676665 0.1230502 -0.2201819
vn 0.9676665 0.1230502 -0.2201819
vn 0.8085067 0.2157148 0.5475255
vn 0.8085067 0.2157148 0.5475253
vn 0.8085066 0.2157148 0.5475254
vn -0.4266755 -0.6553944 0.6232223
vn -0.4266755 -0.6553946 0.6232222
vn -0.4266755 -0.6553945 0.6232222
vn -0.2060779 -0.6697633 -0.7134067
vn -0.2060779 -0.6697631 -0.7134068
vn -0.2060779 -0.6697631 -0.7134068
vn 0.5969068 -0.7946507 0.110601
vn 0.5969069 -0.7946507 0.110601
vn 0.5969069 -0.7946507 0.110601
vn -0.04480872 -0.6592875 -0.7505546
vn -0.04480871 -0.6592875 -0.7505546
vn -0.04480872 -0.6592875 -0.7505546
vn 0.9044399 0.05319221 -0.4232718
vn 0.9044399 0.0531922 -0.4232717
vn 0.9044399 0.0531922 -0.4232718
vn 0.961552 -0.06432537 -0.2669831
vn 0.961552 -0.06432536 -0.266983
vn 0.961552 -0.06432536 -0.2669831
vn 0.9663652 -0.1712738 -0.1918429
vn 0.9663652 -0.1712738 -0.1918429
vn 0.9663652 -0.1712738 -0.1918429
vn 0.6890473 -0.7127053 0.1313964
vn 0.6890472 -0.7127054 0.1313964
vn 0.6890473 -0.7127053 0.1313964
vn -0.7191913 0.6121108 0.3287619
vn -0.7191913 0.6121108 0.3287618
vn -0.7191913 0.6121108 0.3287619
vn -0.6099135 0.7809725 0.1344899
vn -0.6099135 0.7809725 0.1344899
vn -0.6099135 0.7809725 0.1344899
vn -0.6297852 0.7682199 0.1149288
vn 0.8110664 0.1273773 0.5709171
vn 0.8133469 0.1081266 0.5716428
vn 0.8133469 0.1081266 0.5716428
vn 0.8133469 0.1081266 0.5716428
vn 0.8065739 0.1230579 0.5781828
vn -0.8964974 0.4172318 -0.1490302
vn -0.8964973 0.4172319 -0.1490302
vn -0.8964973 0.4172319 -0.1490302
vn -0.8957543 0.4220538 -0.1396237
vn -0.8902508 0.4354084 -0.13369
vn -0.4173853 0.8960001 0.1515699
vn -0.4173854 0.8960001 0.1515699
vn -0.4173853 0.8960001 0.1515699
vn -0.4354081 0.8902509 0.1336901
vn -0.4354081 0.890251 0.1336902
vn -0.7809721 0.6099141 0.1344893
vn -0.7682201 0.6297851 0.1149288
vn -0.780972 0.6099141 0.1344893
vn -0.780972 0.6099141 0.1344893
vn -0.7809722 0.6099137 0.1344903
vn -0.3631216 0.7166303 -0.5954694
vn -0.3631216 0.7166303 -0.5954694
vn -0.3631216 0.7166303 -0.5954694
vn -0.378116 0.7353819 -0.5623537
vn -0.1583556 0.975827 -0.1506159
vn -0.1583556 0.975827 -0.1506159
vn -0.1583556 0.975827 -0.1506159
vn -0.1505682 0.9761468 -0.1564186
vn -0.1505682 0.9761468 -0.1564186
vn -0.4173852 0.896 -0.1515706
vn -0.4173853 0.896 -0.1515706
vn -0.4173853 0.896 -0.1515706
vn -0.4354081 0.890251 -0.1336898
vn -0.7809722 0.6099139 -0.1344897
vn -0.7809722 0.6099138 -0.1344897
vn -0.7809722 0.6099138 -0.1344897
vn -0.7682201 0.6297851 -0.1149289
vn -0.6099139 0.7809722 -0.1344896
vn -0.6099139 0.7809722 -0.1344896
vn -0.6099138 0.7809722 -0.1344896
vn -0.6297852 0.7682199 -0.1149288
vn -0.3226441 -0.694599 0.6429876
vn -0.3381302 -0.6879173 0.6422131
vn -0.3226441 -0.694599 0.6429875
vn -0.3226441 -0.694599 0.6429875
vn -0.3253307 -0.6920603 0.6443699
vn -0.3470387 -0.6673161 0.6589791
vn -0.04887385 -0.7199044 -0.6923504
vn -0.04887385 -0.7199043 -0.6923503
vn -0.04887385 -0.7199043 -0.6923503
vn -0.02096082 -0.7245016 -0.6889543
vn -0.02096082 -0.7245016 -0.6889543
g SoccerBall_Explode_Thin_02_Hull_0
f 3/3/3 2/2/2 1/1/1
f 6/6/6 5/5/5 4/4/4
f 9/9/9 8/8/8 7/7/7
f 12/12/12 11/11/11 10/10/10
f 15/15/15 14/14/14 13/13/13
f 18/18/18 17/17/17 16/16/16
f 21/21/21 20/20/20 19/19/19
f 24/24/24 23/23/23 22/22/22
f 27/27/27 26/26/26 25/25/25
f 30/30/30 29/29/29 28/28/28
f 33/33/33 32/32/32 31/31/31
f 36/36/36 35/35/35 34/34/34
f 39/39/39 38/38/38 37/37/37
f 42/42/42 41/41/41 40/40/40
f 45/45/45 44/44/44 43/43/43
f 48/48/48 47/47/47 46/46/46
f 51/51/51 50/50/50 49/49/49
f 54/54/54 53/53/53 52/52/52
f 57/57/57 56/56/56 55/55/55
f 60/60/60 59/59/59 58/58/58
f 63/63/63 62/62/62 61/61/61
f 66/66/66 65/65/65 64/64/64
f 69/69/69 68/68/68 67/67/67
f 72/72/72 71/71/71 70/70/70
f 75/75/75 74/74/74 73/73/73
f 78/78/78 77/77/77 76/76/76
f 81/81/81 80/80/80 79/79/79
f 84/84/84 83/83/83 82/82/82
f 87/87/87 86/86/86 85/85/85
f 86/86/86 87/87/87 88/88/88
f 91/91/91 90/90/90 89/89/89
f 92/92/92 90/90/90 91/91/91
f 92/92/92 91/91/91 93/93/93
f 96/96/96 95/95/95 94/94/94
f 95/95/95 96/96/96 97/97/97
f 98/98/98 95/95/95 97/97/97
f 101/101/101 100/100/100 99/99/99
f 100/100/100 101/101/101 102/102/102
f 103/103/103 100/100/100 102/102/102
f 106/106/106 105/105/105 104/104/104
f 107/107/107 106/106/106 104/104/104
f 106/106/106 107/107/107 108/108/108
f 111/111/111 110/110/110 109/109/109
f 110/110/110 112/112/112 109/109/109
f 115/115/115 114/114/114 113/113/113
f 114/114/114 115/115/115 116/116/116
f 117/117/117 114/114/114 116/116/116
f 120/120/120 119/119/119 118/118/118
f 119/119/119 121/121/121 118/118/118
f 124/124/124 123/123/123 122/122/122
f 123/123/123 125/125/125 122/122/122
f 128/128/128 127/127/127 126/126/126
f 129/129/129 128/128/128 126/126/126
f 132/132/132 131/131/131 130/130/130
f 133/133/133 132/132/132 130/130/130
f 132/132/132 133/133/133 134/134/134
f 133/133/133 135/135/135 134/134/134
f 138/138/138 137/137/137 136/136/136
f 136/136/136 137/137/137 139/139/139
f 137/137/137 140/140/140 139/139/139
