g SoccerBall_Explode_Thin_06_Hull
v 0.266065 -0.08504068 0.1568692
v -0.08909198 0.1722192 -0.2271903
v -0.2510068 -0.007370376 0.1250089
v 0.03838063 0.1696583 -0.204116
v -0.08909198 0.1722192 -0.2271903
v 0.266065 -0.08504068 0.1568692
v -0.2717167 0.04849012 0.05473084
v -0.2510068 -0.007370376 0.1250089
v -0.08909198 0.1722192 -0.2271903
v -0.1451667 -0.02904751 0.2010194
v 0.266065 -0.08504068 0.1568692
v -0.2510068 -0.007370376 0.1250089
v -0.1669181 0.1573472 -0.1117302
v -0.08909198 0.1722192 -0.2271903
v -0.01192792 0.1925305 -0.1767246
v 0.1217436 0.09339195 0.09061855
v 0.2439195 0.04875346 0.06085964
v 0.201338 0.01227614 0.1431747
v -0.01192792 0.1856854 -0.2189055
v 0.07108654 0.179059 -0.1767246
v -0.01192792 0.1925305 -0.1767246
v -0.01192792 0.1856854 -0.2189055
v 0.03838063 0.1696583 -0.204116
v 0.07108654 0.179059 -0.1767246
v -0.01192792 0.1856854 -0.2189055
v -0.08909198 0.1722192 -0.2271903
v 0.03838063 0.1696583 -0.204116
v -0.01192792 0.1856854 -0.2189055
v -0.01192792 0.1925305 -0.1767246
v -0.08909198 0.1722192 -0.2271903
v 0.2294372 -0.06173426 0.1853233
v 0.1193224 -0.03044485 0.2170265
v 0.201338 0.01227614 0.1431747
v -0.2314807 -0.004282751 0.1526049
v -0.1451667 -0.02904751 0.2010194
v -0.2510068 -0.007370376 0.1250089
v 0.2644313 -0.01374376 0.1171547
v 0.201338 0.01227614 0.1431747
v 0.2439195 0.04875346 0.06085964
v 0.2644313 -0.01374376 0.1171547
v 0.2294372 -0.06173426 0.1853233
v 0.201338 0.01227614 0.1431747
v 0.2644313 -0.01374376 0.1171547
v 0.2439195 0.04875346 0.06085964
v 0.266065 -0.08504068 0.1568692
v -0.1455995 0.09339195 0.09061855
v -0.1266712 0.03660598 0.1675045
v -0.2314807 -0.004282751 0.1526049
v -0.2171209 0.1207981 -0.03391762
v -0.1669181 0.1573472 -0.1117302
v -0.1627298 0.1447827 -0.02592274
v -0.1409868 -0.02154362 0.2104522
v -0.2314807 -0.004282751 0.1526049
v -0.1266712 0.03660598 0.1675045
v -0.1409868 -0.02154362 0.2104522
v -0.1451667 -0.02904751 0.2010194
v -0.2314807 -0.004282751 0.1526049
v 0.1028153 0.03660598 0.1675045
v 0.201338 0.01227614 0.1431747
v 0.1193224 -0.03044485 0.2170265
v 0.1028153 0.03660598 0.1675045
v 0.1217436 0.09339195 0.09061855
v 0.201338 0.01227614 0.1431747
v 0.2717142 -0.08059166 0.1638229
v 0.2644313 -0.01374376 0.1171547
v 0.266065 -0.08504068 0.1568692
v 0.2717142 -0.08059166 0.1638229
v 0.2294372 -0.06173426 0.1853233
v 0.2644313 -0.01374376 0.1171547
v 0.2717142 -0.08059166 0.1638229
v 0.266065 -0.08504068 0.1568692
v -0.1451667 -0.02904751 0.2010194
v -0.2564456 -0.0006121302 0.1302864
v -0.2510068 -0.007370376 0.1250089
v -0.2717167 0.04849012 0.05473084
v -0.2564456 -0.0006121302 0.1302864
v -0.2314807 -0.004282751 0.1526049
v -0.2510068 -0.007370376 0.1250089
v 0.1423233 0.1551303 -0.09659048
v 0.07108654 0.179059 -0.1767246
v 0.03838063 0.1696583 -0.204116
v 0.1423233 0.1551303 -0.09659048
v 0.189579 0.1224235 -0.03337581
v 0.1388739 0.1447827 -0.02592274
v 0.2439195 0.04875346 0.06085964
v 0.1388739 0.1447827 -0.02592274
v 0.189579 0.1224235 -0.03337581
v 0.1217436 0.09339195 0.09061855
v 0.2439195 0.04875346 0.06085964
v 0.189579 0.1224235 -0.03337581
v 0.266065 -0.08504068 0.1568692
v 0.03838063 0.1696583 -0.204116
v 0.1423233 0.1551303 -0.09659048
v -0.1669181 0.1573472 -0.1117302
v -0.01192792 0.1925305 -0.1767246
v -0.1627298 0.1447827 -0.02592274
v -0.01192792 0.1668641 -0.01856198
v -0.1669181 0.1573472 -0.1117302
v -0.2717167 0.04849012 0.05473084
v -0.08909198 0.1722192 -0.2271903
v -0.2171209 0.1207981 -0.03391762
v -0.01192792 0.1668641 -0.01856198
v -0.01192792 0.1925305 -0.1767246
v 0.1388739 0.1447827 -0.02592274
v 0.07108654 0.179059 -0.1767246
v 0.1423233 0.1551303 -0.09659048
v 0.1217436 0.09339195 0.09061855
v -0.01192792 0.1668641 -0.01856198
v 0.1388739 0.1447827 -0.02592274
v -0.01192792 0.1085297 0.1007107
v -0.1455995 0.09339195 0.09061855
v -0.01192792 0.1668641 -0.01856198
v -0.01192792 0.1085297 0.1007107
v -0.1627298 0.1447827 -0.02592274
v -0.1455995 0.09339195 0.09061855
v -0.01192792 0.1085297 0.1007107
v -0.1266712 0.03660598 0.1675045
v -0.01192792 0.04603888 0.1769375
v -0.1455995 0.09339195 0.09061855
v -0.2717167 0.04849012 0.05473084
v -0.1627298 0.1447827 -0.02592274
v -0.2171209 0.1207981 -0.03391762
v -0.1409868 -0.02154362 0.2104522
v -0.01192792 -0.01522295 0.2271598
v -0.1451667 -0.02904751 0.2010194
v 0.1193224 -0.03044485 0.2170265
v 0.2294372 -0.06173426 0.1853233
v 0.2717142 -0.08059166 0.1638229
v -0.1409868 -0.02154362 0.2104522
v -0.1266712 0.03660598 0.1675045
v -0.01192792 -0.01522295 0.2271598
v -0.01192792 0.04603888 0.1769375
v 0.1028153 0.03660598 0.1675045
v 0.1193224 -0.03044485 0.2170265
v -0.01192792 -0.01522295 0.2271598
v -0.01192792 0.04603888 0.1769375
v 0.1028153 0.03660598 0.1675045
v -0.01192792 0.1085297 0.1007107
v 0.1217436 0.09339195 0.09061855
v -0.01192792 0.04603888 0.1769375
v -0.2564456 -0.0006121302 0.1302864
v -0.1455995 0.09339195 0.09061855
v -0.2314807 -0.004282751 0.1526049
v -0.2717167 0.04849012 0.05473084
vn -0.1001565 -0.8670015 -0.4881363
vn -0.1001565 -0.8670015 -0.4881364
vn -0.1001565 -0.8670015 -0.4881364
vn 0.09526495 -0.784079 -0.6133063
vn 0.09526493 -0.784079 -0.6133063
vn 0.09526493 -0.784079 -0.6133063
vn -0.2976792 -0.7881362 -0.5387283
vn -0.2976792 -0.7881362 -0.5387283
vn -0.2976792 -0.7881362 -0.5387283
vn -0.1431006 -0.9863036 -0.08202092
vn -0.1431006 -0.9863036 -0.08202091
vn -0.1431006 -0.9863036 -0.08202091
vn -0.2343071 0.9716097 -0.03278536
vn -0.234307 0.9716097 -0.03278536
vn -0.234307 0.9716097 -0.03278536
vn 0.4018109 0.7419855 0.5366615
vn 0.4018109 0.7419855 0.5366616
vn 0.4018109 0.7419855 0.5366615
vn 0.1581668 0.9746624 -0.1581666
vn 0.1581668 0.9746624 -0.1581666
vn 0.1581668 0.9746624 -0.1581666
vn 0.3962342 0.6130401 -0.6835059
vn 0.3962343 0.6130401 -0.6835059
vn 0.3962343 0.6130401 -0.6835059
vn 0.1600931 -0.3493862 -0.9232006
vn 0.1600931 -0.3493862 -0.9232007
vn 0.1600931 -0.3493862 -0.9232006
vn -0.1532311 0.9754302 -0.1582912
vn -0.1532311 0.9754302 -0.1582913
vn -0.1532311 0.9754302 -0.1582912
vn 0.3723416 0.5619926 0.7385974
vn 0.3723416 0.5619926 0.7385974
vn 0.3723416 0.5619926 0.7385973
vn -0.4571061 -0.7884159 0.4116484
vn -0.4571061 -0.7884159 0.4116484
vn -0.4571061 -0.7884158 0.4116484
vn 0.5022804 0.6639004 0.5540313
vn 0.5022803 0.6639004 0.5540313
vn 0.5022802 0.6639004 0.5540313
vn 0.5027555 0.5639652 0.6551184
vn 0.5027555 0.5639653 0.6551184
vn 0.5027555 0.5639652 0.6551184
vn 0.705092 -0.3326757 -0.6262366
vn 0.705092 -0.3326757 -0.6262366
vn 0.705092 -0.3326757 -0.6262366
vn -0.361781 0.7051221 0.6098503
vn -0.361781 0.7051221 0.6098502
vn -0.361781 0.7051221 0.6098503
vn -0.4173848 0.8960001 0.1515705
vn -0.4173849 0.8960001 0.1515705
vn -0.4173848 0.8960001 0.1515705
vn -0.3401029 0.6114268 0.714484
vn -0.3401029 0.6114268 0.7144839
vn -0.3401029 0.6114268 0.714484
vn -0.5245404 -0.5376548 0.6601398
vn -0.5245404 -0.5376548 0.6601399
vn -0.5245404 -0.5376548 0.6601399
vn 0.3287608 0.6121115 0.7191911
vn 0.3287608 0.6121115 0.7191911
vn 0.3287608 0.6121115 0.7191911
vn 0.3287608 0.7191908 0.6121119
vn 0.3287607 0.7191908 0.6121119
vn 0.3287607 0.7191908 0.6121119
vn 0.8241913 -0.2610519 -0.5025542
vn 0.8241912 -0.2610519 -0.5025542
vn 0.8241913 -0.2610518 -0.5025542
vn 0.5598145 0.5144668 0.6495627
vn 0.5598145 0.5144669 0.6495627
vn 0.5598145 0.5144668 0.6495627
vn -0.05100608 -0.8219237 0.5673093
vn -0.05100609 -0.8219237 0.5673093
vn -0.05100609 -0.8219237 0.5673093
vn -0.8295863 -0.5297217 -0.1765832
vn -0.8295862 -0.5297217 -0.1765832
vn -0.8295862 -0.5297216 -0.1765832
vn -0.5015274 -0.7458854 0.4383211
vn -0.5015274 -0.7458853 0.4383211
vn -0.5015274 -0.7458853 0.4383211
vn 0.6610116 -0.3141798 -0.6814357
vn 0.6610116 -0.3141798 -0.6814357
vn 0.6610116 -0.3141798 -0.6814357
vn 0.417385 0.896 0.1515709
vn 0.417385 0.896 0.1515709
vn 0.417385 0.896 0.1515709
vn 0.4185395 0.8167543 0.3971613
vn 0.4185395 0.8167543 0.3971613
vn 0.4185394 0.8167543 0.3971613
vn 0.399866 0.8155109 0.4183886
vn 0.651261 -0.3683114 -0.66348
vn 0.6381958 -0.3791447 -0.6700413
vn 0.6381958 -0.3791448 -0.6700413
vn 0.6381958 -0.3791448 -0.6700413
vn 0.6429829 -0.3685804 -0.6713579
vn -0.1583559 0.9758269 0.150616
vn -0.1583558 0.9758269 0.150616
vn -0.1583559 0.975827 0.150616
vn -0.1506164 0.975827 0.1583555
vn -0.8230106 -0.06971544 -0.5637316
vn -0.8230106 -0.06971545 -0.5637316
vn -0.8230106 -0.06971544 -0.5637316
vn -0.8230093 -0.06971888 -0.563733
vn 0.1506164 0.975827 0.1583555
vn 0.1506164 0.975827 0.1583555
vn 0.1506164 0.975827 0.1583555
vn 0.1583558 0.975827 0.1506161
vn 0.1583559 0.9758269 0.150616
vn 0.1515711 0.8960001 0.417385
vn 0.1515711 0.8960001 0.417385
vn 0.1515711 0.896 0.417385
vn 0.1336901 0.890251 0.4354081
vn -0.1336901 0.890251 0.4354081
vn -0.1336901 0.890251 0.4354081
vn -0.1336901 0.890251 0.4354081
vn -0.1515711 0.8960001 0.4173849
vn -0.1344898 0.7809716 0.6099146
vn -0.1344898 0.7809716 0.6099146
vn -0.1344898 0.7809716 0.6099146
vn -0.1149287 0.7682191 0.6297863
vn -0.4079311 0.8117504 0.4179158
vn -0.4079312 0.8117503 0.4179158
vn -0.4079312 0.8117503 0.4179158
vn -0.4180583 0.8128639 0.4055607
vn -0.04424188 -0.7721723 0.633871
vn -0.0419946 -0.7787679 0.6259049
vn -0.0419946 -0.7787679 0.6259049
vn -0.0419946 -0.7787679 0.6259049
vn -0.04190521 -0.780047 0.6243162
vn -0.04359415 -0.7920185 0.6089386
vn -0.1310621 0.6096517 0.7817594
vn -0.1310621 0.6096516 0.7817594
vn -0.1310621 0.6096516 0.7817594
vn -0.1149288 0.6297851 0.7682201
vn 0.131062 0.6096517 0.7817593
vn 0.131062 0.6096517 0.7817593
vn 0.131062 0.6096517 0.7817593
vn 0.1149288 0.629785 0.7682202
vn 0.1344898 0.7809716 0.6099146
vn 0.1344898 0.7809716 0.6099146
vn 0.1344898 0.7809716 0.6099145
vn 0.1149287 0.7682192 0.6297861
vn -0.4036537 0.7162086 0.5693057
vn -0.4036537 0.7162086 0.5693057
vn -0.4036537 0.7162085 0.5693057
vn -0.4146582 0.7224334 0.5533069
g SoccerBall_Explode_Thin_06_Hull_0
f 3/3/3 2/2/2 1/1/1
f 6/6/6 5/5/5 4/4/4
f 9/9/9 8/8/8 7/7/7
f 12/12/12 11/11/11 10/10/10
f 15/15/15 14/14/14 13/13/13
f 18/18/18 17/17/17 16/16/16
f 21/21/21 20/20/20 19/19/19
f 24/24/24 23/23/23 22/22/22
f 27/27/27 26/26/26 25/25/25
f 30/30/30 29/29/29 28/28/28
f 33/33/33 32/32/32 31/31/31
f 36/36/36 35/35/35 34/34/34
f 39/39/39 38/38/38 37/37/37
f 42/42/42 41/41/41 40/40/40
f 45/45/45 44/44/44 43/43/43
f 48/48/48 47/47/47 46/46/46
f 51/51/51 50/50/50 49/49/49
f 54/54/54 53/53/53 52/52/52
f 57/57/57 56/56/56 55/55/55
f 60/60/60 59/59/59 58/58/58
f 63/63/63 62/62/62 61/61/61
f 66/66/66 65/65/65 64/64/64
f 69/69/69 68/68/68 67/67/67
f 72/72/72 71/71/71 70/70/70
f 75/75/75 74/74/74 73/73/73
f 78/78/78 77/77/77 76/76/76
f 81/81/81 80/80/80 79/79/79
f 84/84/84 83/83/83 82/82/82
f 87/87/87 86/86/86 85/85/85
f 85/85/85 86/86/86 88/88/88
f 91/91/91 90/90/90 89/89/89
f 91/91/91 92/92/92 90/90/90
f 90/90/90 92/92/92 93/93/93
f 96/96/96 95/95/95 94/94/94
f 95/95/95 96/96/96 97/97/97
f 100/100/100 99/99/99 98/98/98
f 98/98/98 99/99/99 101/101/101
f 104/104/104 103/103/103 102/102/102
f 103/103/103 104/104/104 105/105/105
f 105/105/105 104/104/104 106/106/106
f 109/109/109 108/108/108 107/107/107
f 108/108/108 110/110/110 107/107/107
f 113/113/113 112/112/112 111/111/111
f 112/112/112 114/114/114 111/111/111
f 117/117/117 116/116/116 115/115/115
f 116/116/116 117/117/117 118/118/118
f 121/121/121 120/120/120 119/119/119
f 120/120/120 121/121/121 122/122/122
f 125/125/125 124/124/124 123/123/123
f 126/126/126 124/124/124 125/125/125
f 126/126/126 125/125/125 127/127/127
f 127/127/127 125/125/125 128/128/128
f 131/131/131 130/130/130 129/129/129
f 130/130/130 131/131/131 132/132/132
f 135/135/135 134/134/134 133/133/133
f 135/135/135 133/133/133 136/136/136
f 139/139/139 138/138/138 137/137/137
f 137/137/137 138/138/138 140/140/140
f 143/143/143 142/142/142 141/141/141
f 142/142/142 144/144/144 141/141/141
