g SoccerBall_Explode_Thin_18
v 0.01148636 0.01809387 0.025144
v -0.02531753 0.02610824 0.001644325
v 0.006994171 0.03201729 0.03731324
v -0.005108337 -0.006798134 -0.01856487
v 0.03085052 -0.01904423 -0.01040085
v -0.0367292 0.01120983 -0.03057018
v -0.05286346 0.02378261 -0.03228567
v -0.007348099 -0.01015785 -0.02843023
v 0.005432739 -0.01695827 -0.02910593
v 0.04909805 -0.0385685 -0.03245975
v -0.02000149 0.03266554 -0.003716793
v 0.01623915 0.02484098 0.0194971
v 0.01202173 0.03856848 0.03167359
v -0.0003907394 0.0006509495 -0.02328245
v 0.03463381 -0.01107721 -0.01511395
v -0.03108593 0.01783875 -0.03549065
v -0.04722381 0.0303338 -0.03731322
v -0.002413387 -0.0023279 -0.03221712
v 0.009285603 -0.008696365 -0.03321642
v 0.05286345 -0.03030905 -0.03665537
v 0.01623915 0.02484098 0.0194971
v 0.006994171 0.03201729 0.03731324
v 0.01202173 0.03856848 0.03167359
v 0.01148636 0.01809387 0.025144
v 0.03463381 -0.01107721 -0.01511395
v 0.03085052 -0.01904423 -0.01040085
v 0.05286345 -0.03030905 -0.03665537
v 0.04909805 -0.0385685 -0.03245975
v -0.02531753 0.02610824 0.001644325
v 0.01202173 0.03856848 0.03167359
v 0.006994171 0.03201729 0.03731324
v -0.02000149 0.03266554 -0.003716793
v -0.05286346 0.02378261 -0.03228567
v -0.04722381 0.0303338 -0.03731322
v 0.009285603 -0.008696365 -0.03321642
v 0.04909805 -0.0385685 -0.03245975
v 0.05286345 -0.03030905 -0.03665537
v 0.005432739 -0.01695827 -0.02910593
v -0.002413387 -0.0023279 -0.03221712
v -0.007348099 -0.01015785 -0.02843023
v -0.03108593 0.01783875 -0.03549065
v -0.0367292 0.01120983 -0.03057018
v -0.04722381 0.0303338 -0.03731322
v -0.05286346 0.02378261 -0.03228567
vt 0.7253483 0.7471957
vt 0.7077883 0.7374605
vt 0.7217339 0.7543209
vt 0.72067 0.7245
vt 0.7375293 0.7271811
vt 0.7042345 0.7212179
vt 0.6954725 0.721925
vt 0.7199072 0.71988
vt 0.7259508 0.7191881
vt 0.7467707 0.7161889
vt 0.7077883 0.7374605
vt 0.7253483 0.7471957
vt 0.7217339 0.7543209
vt 0.72067 0.7245
vt 0.7375293 0.7271811
vt 0.7042345 0.7212179
vt 0.6954725 0.721925
vt 0.7199072 0.71988
vt 0.7259508 0.7191881
vt 0.7467707 0.7161889
vt 0.7253483 0.7471957
vt 0.7217339 0.7543209
vt 0.7217339 0.7543209
vt 0.7253483 0.7471957
vt 0.7375293 0.7271811
vt 0.7375293 0.7271811
vt 0.7467707 0.7161889
vt 0.7467707 0.7161889
vt 0.7077883 0.7374605
vt 0.7217339 0.7543209
vt 0.7217339 0.7543209
vt 0.7077883 0.7374605
vt 0.6954725 0.721925
vt 0.6954725 0.721925
vt 0.7259508 0.7191881
vt 0.7467707 0.7161889
vt 0.7467707 0.7161889
vt 0.7259508 0.7191881
vt 0.7199072 0.71988
vt 0.7199072 0.71988
vt 0.7042345 0.7212179
vt 0.7042345 0.7212179
vt 0.6954725 0.721925
vt 0.6954725 0.721925
vn -0.4752789 -0.6747106 0.5646906
vn -0.5316037 -0.6557297 0.536112
vn -0.5027555 -0.6551189 0.5639647
vn -0.4717594 -0.7449079 0.4717577
vn -0.3783292 -0.7967015 0.4713107
vn -0.564326 -0.662892 0.492047
vn -0.5639642 -0.6551194 0.5027552
vn -0.4934703 -0.7829955 0.3786886
vn -0.3852872 -0.8261917 0.4110488
vn -0.3765399 -0.8259456 0.4195612
vn 0.5324042 0.6547155 -0.5365568
vn 0.4753295 0.6742198 -0.5652341
vn 0.5027856 0.6549069 -0.564184
vn 0.4717385 0.7460349 -0.4699944
vn 0.3779555 0.7971169 -0.470908
vn 0.5651003 0.6621683 -0.4921329
vn 0.5640641 0.6552131 -0.5025212
vn 0.4933681 0.7855094 -0.3735812
vn 0.3839518 0.8284997 -0.4076384
vn 0.3767202 0.8262289 -0.4188409
vn 0.8330446 -0.1464086 0.5334802
vn 0.8380356 -0.1900877 0.5114321
vn 0.8348618 -0.198816 0.513301
vn 0.8357897 -0.1410404 0.5306253
vn 0.8057445 -0.03581752 0.5911792
vn 0.8047649 -0.03535773 0.5925397
vn 0.7634534 -0.01309372 0.6457302
vn 0.7621797 -0.0187604 0.6470936
vn -0.5432631 0.7493922 0.3785189
vn -0.5503939 0.7460427 0.3748158
vn -0.5506315 0.7456334 0.3752809
vn -0.5429701 0.7498327 0.3780667
vn -0.5356368 0.7531278 0.3819578
vn -0.5353339 0.7535927 0.3814649
vn -0.2486804 -0.3366461 -0.9082001
vn -0.243485 -0.347445 -0.9055368
vn -0.2441996 -0.3483834 -0.9049837
vn -0.2395245 -0.3323841 -0.912222
vn -0.1882916 -0.337841 -0.9221767
vn -0.1896176 -0.34117 -0.9206781
vn -0.2368728 -0.428137 -0.8721182
vn -0.2473188 -0.4349456 -0.8658266
vn -0.2497048 -0.4409939 -0.8620742
vn -0.2531953 -0.4423117 -0.8603792
g SoccerBall_Explode_Thin_18_0
f 3/3/3 2/2/2 1/1/1
f 4/4/4 1/1/1 2/2/2
f 4/4/4 5/5/5 1/1/1
f 4/4/4 2/2/2 6/6/6
f 7/7/7 6/6/6 2/2/2
f 4/4/4 6/6/6 8/8/8
f 8/8/8 9/9/9 4/4/4
f 4/4/4 9/9/9 5/5/5
f 10/10/10 5/5/5 9/9/9
f 13/13/13 12/12/12 11/11/11
f 14/14/14 11/11/11 12/12/12
f 14/14/14 12/12/12 15/15/15
f 14/14/14 16/16/16 11/11/11
f 17/17/17 11/11/11 16/16/16
f 14/14/14 18/18/18 16/16/16
f 18/18/18 14/14/14 19/19/19
f 14/14/14 15/15/15 19/19/19
f 20/20/20 19/19/19 15/15/15
f 23/23/23 22/22/22 21/21/21
f 24/24/24 21/21/21 22/22/22
f 21/21/21 24/24/24 25/25/25
f 26/26/26 25/25/25 24/24/24
f 25/25/25 26/26/26 27/27/27
f 28/28/28 27/27/27 26/26/26
f 31/31/31 30/30/30 29/29/29
f 32/32/32 29/29/29 30/30/30
f 29/29/29 32/32/32 33/33/33
f 34/34/34 33/33/33 32/32/32
f 37/37/37 36/36/36 35/35/35
f 38/38/38 35/35/35 36/36/36
f 35/35/35 38/38/38 39/39/39
f 40/40/40 39/39/39 38/38/38
f 39/39/39 40/40/40 41/41/41
f 42/42/42 41/41/41 40/40/40
f 41/41/41 42/42/42 43/43/43
f 44/44/44 43/43/43 42/42/42
