g Sphere_009
v 0.151618 0.12012 -0.14729
v 0.151618 0.12012 0.14729
v -0.151618 0.12012 0.14729
v -0.151618 0.12012 -0.14729
v -0.151618 0.12012 -0.14729
v -0.151618 0.12012 0.14729
v -0.151618 -0.12012 0.147291
v -0.151618 -0.12012 -0.14729
v -0.151618 -0.12012 -0.14729
v -0.151618 -0.12012 0.147291
v 0.151618 -0.12012 0.14729
v 0.151618 -0.12012 -0.14729
v 0.151618 -0.12012 -0.14729
v 0.151618 -0.12012 0.14729
v 0.151618 0.12012 0.14729
v 0.151618 0.12012 -0.14729
v 0.151618 0.12012 0.14729
v 0.151618 -0.12012 0.14729
v -0.151618 -0.12012 0.147291
v -0.151618 0.12012 0.14729
v 0.151618 -0.12012 -0.14729
v 0.151618 0.12012 -0.14729
v -0.151618 0.12012 -0.14729
v -0.151618 -0.12012 -0.14729
vt 0.623635 0.237037
vt 0.623635 0.167067
vt 0.553664 0.167067
vt 0.553664 0.237037
vt 0.549125 0.237679
vt 0.549125 0.16609
vt 0.478353 0.16609
vt 0.478354 0.237679
vt 0.623635 0.237037
vt 0.623635 0.167067
vt 0.553664 0.167067
vt 0.553664 0.237037
vt 0.549125 0.237679
vt 0.549125 0.16609
vt 0.478353 0.16609
vt 0.478354 0.237679
vt 0.549125 0.237679
vt 0.549125 0.16609
vt 0.478353 0.16609
vt 0.478354 0.237679
vt 0.549125 0.237679
vt 0.549125 0.16609
vt 0.478353 0.16609
vt 0.478354 0.237679
vn 0 1 0
vn 0 1 0
vn 0 1 0
vn 0 1 0
vn -1 0 0
vn -1 0 0
vn -1 0 0
vn -1 0 0
vn 0 -1 0
vn 0 -1 0
vn 0 -1 0
vn 0 -1 0
vn 1 0 0
vn 1 0 0
vn 1 0 0
vn 1 0 0
vn 0 0 1
vn 0 0 1
vn 0 0 1
vn 0 0 1
vn 0 0 -1
vn 0 0 -1
vn 0 0 -1
vn 0 0 -1
g Sphere_009_0
f 3/3/3 2/2/2 1/1/1
f 4/4/4 3/3/3 1/1/1
f 7/7/7 6/6/6 5/5/5
f 8/8/8 7/7/7 5/5/5
f 11/11/11 10/10/10 9/9/9
f 12/12/12 11/11/11 9/9/9
f 15/15/15 14/14/14 13/13/13
f 16/16/16 15/15/15 13/13/13
f 19/19/19 18/18/18 17/17/17
f 20/20/20 19/19/19 17/17/17
f 23/23/23 22/22/22 21/21/21
f 24/24/24 23/23/23 21/21/21
