g stairs_a_200_col_02_02
v -1 -0.7963105 -1
v -0.9383708 -0.4991615 -0.9999999
v -1 -0.5303631 -1
v 2.765655E-07 -0.2959456 -1
v 2.765655E-07 -2.346039E-06 -1
v -1.074885 -0.3485316 -0.9999998
v -1.097313 -0.2493586 -0.9999998
v -1.097313 -0.3485314 -0.9999998
v -0.9383708 -0.4991615 -0.9999999
v -1.097313 -0.2493586 -0.9999998
v -1.074885 -0.3485316 -0.9999998
v -0.9383708 -0.4991615 -0.9999999
v -0.4999996 -0.2493585 -0.9999989
v -1.097313 -0.2493586 -0.9999998
v -1 -0.7963105 -1
v -0.4999996 -0.2493585 -0.9999989
v -0.9383708 -0.4991615 -0.9999999
v -0.5451924 -0.09834903 -0.9999995
v -0.5736286 -2.260208E-06 -1
v -0.5736287 -0.09834898 -0.9999998
v -0.5451924 -0.09834903 -0.9999995
v 2.765655E-07 -2.346039E-06 -1
v -0.5736286 -2.260208E-06 -1
v -0.4999996 -0.2493585 -0.9999989
v 2.765655E-07 -2.346039E-06 -1
v -0.5451924 -0.09834903 -0.9999995
v -1 -0.7963105 -1
v 2.765655E-07 -2.346039E-06 -1
v -0.4999996 -0.2493585 -0.9999989
v -1.000001 -0.7963112 0.9999997
v 1.907349E-08 -2.765655E-06 0.9999997
v -7.629394E-08 -0.2959461 0.9999996
v -1 -0.5303634 0.9999995
v -0.9383711 -0.4991618 0.9999992
v 1.907349E-08 -2.765655E-06 0.9999997
v -0.5736288 -0.09834928 0.999999
v -0.5736288 -2.622604E-06 0.999999
v 1.907349E-08 -2.765655E-06 0.9999997
v -0.5451926 -0.09834933 0.9999989
v -0.5736288 -0.09834928 0.999999
v 1.907349E-08 -2.765655E-06 0.9999997
v -0.4999998 -0.2493589 0.9999983
v -0.5451926 -0.09834933 0.9999989
v -1.000001 -0.7963112 0.9999997
v -0.4999998 -0.2493589 0.9999983
v 1.907349E-08 -2.765655E-06 0.9999997
v -1.097313 -0.2493589 0.999999
v -1.074886 -0.3485319 0.9999992
v -1.097313 -0.3485317 0.9999992
v -0.4999998 -0.2493589 0.9999983
v -1.074886 -0.3485319 0.9999992
v -1.097313 -0.2493589 0.999999
v -0.4999998 -0.2493589 0.9999983
v -0.9383711 -0.4991618 0.9999992
v -1.074886 -0.3485319 0.9999992
v -1.000001 -0.7963112 0.9999997
v -0.9383711 -0.4991618 0.9999992
v -0.4999998 -0.2493589 0.9999983
v -0.9383711 -0.4991618 0.9999992
v -1 -0.5303631 -1
v -0.9383708 -0.4991615 -0.9999999
v -1 -0.5303631 -1
v -0.9383711 -0.4991618 0.9999992
v -1 -0.5303634 0.9999995
v -0.4999998 -0.2493589 0.9999983
v -1.097313 -0.2493586 -0.9999998
v -0.4999996 -0.2493585 -0.9999989
v -1.097313 -0.2493586 -0.9999998
v -0.4999998 -0.2493589 0.9999983
v -1.097313 -0.2493589 0.999999
v -1.097313 -0.2493589 0.999999
v -1.097313 -0.3485314 -0.9999998
v -1.097313 -0.2493586 -0.9999998
v -1.097313 -0.3485314 -0.9999998
v -1.097313 -0.2493589 0.999999
v -1.097313 -0.3485317 0.9999992
v -1.097313 -0.3485317 0.9999992
v -1.074885 -0.3485316 -0.9999998
v -1.097313 -0.3485314 -0.9999998
v -1.074885 -0.3485316 -0.9999998
v -1.097313 -0.3485317 0.9999992
v -1.074886 -0.3485319 0.9999992
v -1.074886 -0.3485319 0.9999992
v -0.9383708 -0.4991615 -0.9999999
v -1.074885 -0.3485316 -0.9999998
v -0.9383708 -0.4991615 -0.9999999
v -1.074886 -0.3485319 0.9999992
v -0.9383711 -0.4991618 0.9999992
v -0.5736288 -2.622604E-06 0.999999
v -0.5736287 -0.09834898 -0.9999998
v -0.5736286 -2.260208E-06 -1
v -0.5736287 -0.09834898 -0.9999998
v -0.5736288 -2.622604E-06 0.999999
v -0.5736288 -0.09834928 0.999999
v -0.5736288 -0.09834928 0.999999
v -0.5451924 -0.09834903 -0.9999995
v -0.5736287 -0.09834898 -0.9999998
v -0.5451924 -0.09834903 -0.9999995
v -0.5736288 -0.09834928 0.999999
v -0.5451926 -0.09834933 0.9999989
v -0.5451926 -0.09834933 0.9999989
v -0.4999996 -0.2493585 -0.9999989
v -0.5451924 -0.09834903 -0.9999995
v -0.4999996 -0.2493585 -0.9999989
v -0.5451926 -0.09834933 0.9999989
v -0.4999998 -0.2493589 0.9999983
v 2.765655E-07 -0.2959456 -1
v -1.000001 -0.7963112 0.9999997
v -7.629394E-08 -0.2959461 0.9999996
v -1 -0.7963105 -1
v -0.5736288 -2.622604E-06 0.999999
v 2.765655E-07 -2.346039E-06 -1
v 1.907349E-08 -2.765655E-06 0.9999997
v -0.5736286 -2.260208E-06 -1
vt 0.985031 0.138578
vt 0.015033 0.1380489
vt 0.015034 0.138578
vt 0.984998 0.121647
vt 0.5 0.121647
vt 0.015032 0.1375198
vt 0.015026 0.1343452
vt 0.01503 0.1364616
vt 0.015033 0.1380489
vt 0.015026 0.1343452
vt 0.015032 0.1375198
vt 0.015033 0.1380489
vt 0.015016 0.1290543
vt 0.015026 0.1343452
vt 0.985031 0.138578
vt 0.015016 0.1290543
vt 0.015033 0.1380489
vt 0.015014 0.1279961
vt 0.015002 0.121647
vt 0.01501 0.1258797
vt 0.015014 0.1279961
vt 0.5 0.121647
vt 0.015002 0.121647
vt 0.015016 0.1290543
vt 0.5 0.121647
vt 0.015014 0.1279961
vt 0.985031 0.138578
vt 0.5 0.121647
vt 0.015016 0.1290543
vt 0.985031 0.260172
vt 0.500065 0.277103
vt 0.985063 0.277103
vt 0.015034 0.260172
vt 0.01503503 0.2607011
vt 0.500065 0.277103
vt 0.01505875 0.2728702
vt 0.015067 0.277103
vt 0.500065 0.277103
vt 0.01505463 0.2707539
vt 0.01505875 0.2728702
vt 0.500065 0.277103
vt 0.01505256 0.2696957
vt 0.01505463 0.2707539
vt 0.985031 0.260172
vt 0.01505256 0.2696957
vt 0.500065 0.277103
vt 0.01504225 0.2644048
vt 0.01503606 0.2612302
vt 0.01503813 0.2622884
vt 0.01505256 0.2696957
vt 0.01503606 0.2612302
vt 0.01504225 0.2644048
vt 0.01505256 0.2696957
vt 0.01503503 0.2607011
vt 0.01503606 0.2612302
vt 0.985031 0.260172
vt 0.01503503 0.2607011
vt 0.01505256 0.2696957
vt 0.01503503 0.2607011
vt 0.015034 0.138578
vt 0.015033 0.1380489
vt 0.015034 0.138578
vt 0.01503503 0.2607011
vt 0.015034 0.260172
vt 0.01505256 0.2696957
vt 0.015026 0.1343452
vt 0.015016 0.1290543
vt 0.015026 0.1343452
vt 0.01505256 0.2696957
vt 0.01504225 0.2644048
vt 0.01504225 0.2644048
vt 0.01503 0.1364616
vt 0.015026 0.1343452
vt 0.01503 0.1364616
vt 0.01504225 0.2644048
vt 0.01503813 0.2622884
vt 0.01503813 0.2622884
vt 0.015032 0.1375198
vt 0.01503 0.1364616
vt 0.015032 0.1375198
vt 0.01503813 0.2622884
vt 0.01503606 0.2612302
vt 0.01503606 0.2612302
vt 0.015033 0.1380489
vt 0.015032 0.1375198
vt 0.015033 0.1380489
vt 0.01503606 0.2612302
vt 0.01503503 0.2607011
vt 0.015067 0.277103
vt 0.01501 0.1258797
vt 0.015002 0.121647
vt 0.01501 0.1258797
vt 0.015067 0.277103
vt 0.01505875 0.2728702
vt 0.01505875 0.2728702
vt 0.015014 0.1279961
vt 0.01501 0.1258797
vt 0.015014 0.1279961
vt 0.01505875 0.2728702
vt 0.01505463 0.2707539
vt 0.01505463 0.2707539
vt 0.015016 0.1290543
vt 0.015014 0.1279961
vt 0.015016 0.1290543
vt 0.01505463 0.2707539
vt 0.01505256 0.2696957
vt 0.984998 0.121647
vt 0.999947 5.3E-05
vt 0.984998 5.3E-05
vt 0.999947 0.121647
vt 0.015001 5.3E-05
vt 0.5 0.121647
vt 0.4999995 5.3E-05
vt 0.015002 0.121647
vn 5.387514E-06 -8.606312E-07 -1
vn 5.387514E-06 -8.606312E-07 -1
vn 5.387514E-06 -8.606312E-07 -1
vn 0 -2.577992E-07 -1
vn 0 -2.577992E-07 -1
vn -3.401847E-06 0 -1
vn -3.401847E-06 0 -1
vn -3.401847E-06 0 -1
vn 3.863901E-07 8.566813E-07 -1
vn 3.863901E-07 8.566812E-07 -1
vn 3.863902E-07 8.566814E-07 -1
vn 1.405014E-06 1.5048E-06 -1
vn 1.405014E-06 1.5048E-06 -1
vn 1.405014E-06 1.5048E-06 -1
vn 2.399835E-06 -2.409789E-07 -1
vn 2.399835E-06 -2.409789E-07 -1
vn 2.399835E-06 -2.409789E-07 -1
vn 8.048944E-06 -2.327301E-06 -1
vn 8.048944E-06 -2.327301E-06 -1
vn 8.048945E-06 -2.327301E-06 -1
vn -3.990075E-07 -4.769958E-06 -1
vn -3.990075E-07 -4.769958E-06 -1
vn -3.990075E-07 -4.769958E-06 -1
vn -5.031924E-07 -4.1924E-06 -1
vn -5.031924E-07 -4.1924E-06 -1
vn -5.031924E-07 -4.1924E-06 -1
vn -6.55747E-06 7.947414E-06 -1
vn -6.55747E-06 7.947414E-06 -1
vn -6.557469E-06 7.947414E-06 -1
vn 2.052875E-07 -2.577992E-07 1
vn 2.052875E-07 -2.577992E-07 1
vn 2.052875E-07 -2.577992E-07 1
vn 4.661319E-06 5.737461E-07 1
vn 4.661319E-06 5.737461E-07 1
vn -1.064019E-06 -7.757646E-07 1
vn -1.064019E-06 -7.757646E-07 1
vn -1.064019E-06 -7.757646E-07 1
vn 2.682945E-06 -2.26308E-05 1
vn 2.682945E-06 -2.26308E-05 1
vn 2.682945E-06 -2.26308E-05 1
vn -6.359653E-07 -4.232134E-06 1
vn -6.359653E-07 -4.232134E-06 1
vn -6.359654E-07 -4.232134E-06 1
vn -7.349327E-06 9.229254E-06 1
vn -7.349327E-06 9.229254E-06 1
vn -7.349328E-06 9.229254E-06 1
vn 3.401863E-06 2.30791E-06 1
vn 3.401862E-06 2.30791E-06 1
vn 3.401862E-06 2.30791E-06 1
vn 1.149557E-06 1.798568E-06 1
vn 1.149557E-06 1.798568E-06 1
vn 1.149557E-06 1.798568E-06 1
vn 1.186888E-06 1.582166E-06 1
vn 1.186888E-06 1.582166E-06 1
vn 1.186888E-06 1.582166E-06 1
vn 1.372878E-06 1.255778E-06 1
vn 1.372878E-06 1.255778E-06 1
vn 1.372878E-06 1.255778E-06 1
vn -0.45169 0.892175 0
vn -0.45169 0.892175 0
vn -0.45169 0.892175 0
vn -0.45169 0.892175 0
vn -0.45169 0.892175 0
vn -0.45169 0.892175 0
vn -1.596609E-07 1 1.716616E-07
vn -1.596609E-07 1 1.716616E-07
vn -1.596609E-07 1 1.716616E-07
vn 0 1 1.52588E-07
vn 0 1 1.52588E-07
vn 0 1 1.525879E-07
vn -1 0 -1.52588E-07
vn -1 0 -1.52588E-07
vn -1 0 -1.52588E-07
vn -1 0 -1.52588E-07
vn -1 0 -1.52588E-07
vn -1 0 -1.52588E-07
vn -6.803693E-06 -1 -1.52589E-07
vn -6.803694E-06 -1 -1.52589E-07
vn -6.803693E-06 -1 -1.52589E-07
vn -6.803693E-06 -1 -1.52589E-07
vn -6.803694E-06 -1 -1.52589E-07
vn -6.803693E-06 -1 -1.52589E-07
vn -0.7409717 -0.6715361 -2.155317E-07
vn -0.7409717 -0.6715362 -2.155317E-07
vn -0.7409717 -0.6715363 -2.155317E-07
vn -0.7409717 -0.6715361 -2.155317E-07
vn -0.7409717 -0.6715362 -2.155317E-07
vn -0.7409717 -0.6715362 -2.155317E-07
vn -1 7.757649E-07 0
vn -1 7.757649E-07 0
vn -1 7.757649E-07 0
vn -1 7.757656E-07 0
vn -1 7.757656E-07 0
vn -1 7.757656E-07 0
vn -1.676863E-06 -1 -1.525881E-07
vn -1.676863E-06 -1 -1.525881E-07
vn -1.676863E-06 -1 -1.525881E-07
vn -1.676865E-06 -1 -1.525882E-07
vn -1.676865E-06 -1 -1.525882E-07
vn -1.676865E-06 -1 -1.525881E-07
vn -0.9580181 -0.2867074 -1.168392E-07
vn -0.9580181 -0.2867074 -1.168392E-07
vn -0.9580181 -0.2867074 -1.168392E-07
vn -0.9580181 -0.2867074 -1.223077E-07
vn -0.9580181 -0.2867074 -1.223077E-07
vn -0.9580181 -0.2867074 -1.223077E-07
vn 0.4474745 -0.8942967 -1.257405E-07
vn 0.4474745 -0.8942967 -1.257405E-07
vn 0.4474745 -0.8942967 -1.257405E-07
vn 0.4474744 -0.8942967 -1.70499E-07
vn 2.493792E-07 1 2.098084E-07
vn 2.493792E-07 1 2.098084E-07
vn 2.493792E-07 1 2.098084E-07
vn 1.496277E-07 1 1.811982E-07
g stairs_a_200_col_02_02_0
f 3/3/3 2/2/2 1/1/1
f 5/5/5 4/4/4 1/1/1
f 8/8/8 7/7/7 6/6/6
f 11/11/11 10/10/10 9/9/9
f 14/14/14 13/13/13 12/12/12
f 17/17/17 16/16/16 15/15/15
f 20/20/20 19/19/19 18/18/18
f 23/23/23 22/22/22 21/21/21
f 26/26/26 25/25/25 24/24/24
f 29/29/29 28/28/28 27/27/27
f 32/32/32 31/31/31 30/30/30
f 30/30/30 34/34/34 33/33/33
f 37/37/37 36/36/36 35/35/35
f 40/40/40 39/39/39 38/38/38
f 43/43/43 42/42/42 41/41/41
f 46/46/46 45/45/45 44/44/44
f 49/49/49 48/48/48 47/47/47
f 52/52/52 51/51/51 50/50/50
f 55/55/55 54/54/54 53/53/53
f 58/58/58 57/57/57 56/56/56
f 61/61/61 60/60/60 59/59/59
f 64/64/64 63/63/63 62/62/62
f 67/67/67 66/66/66 65/65/65
f 70/70/70 69/69/69 68/68/68
f 73/73/73 72/72/72 71/71/71
f 76/76/76 75/75/75 74/74/74
f 79/79/79 78/78/78 77/77/77
f 82/82/82 81/81/81 80/80/80
f 85/85/85 84/84/84 83/83/83
f 88/88/88 87/87/87 86/86/86
f 91/91/91 90/90/90 89/89/89
f 94/94/94 93/93/93 92/92/92
f 97/97/97 96/96/96 95/95/95
f 100/100/100 99/99/99 98/98/98
f 103/103/103 102/102/102 101/101/101
f 106/106/106 105/105/105 104/104/104
f 109/109/109 108/108/108 107/107/107
f 110/110/110 107/107/107 108/108/108
f 113/113/113 112/112/112 111/111/111
f 114/114/114 111/111/111 112/112/112
